<svg width="73" height="94" viewBox="0 0 73 94" xmlns="http://www.w3.org/2000/svg"><rect width="73" height="94" fill="none"/><g fill="none" fill-rule="evenodd"><rect stroke="#3B3F41" fill="#FFF" x="10.5" y="8.5" width="52" height="77" rx="4"/><path d="M10.5 27.5h52V12A3.5 3.5 0 0 0 59 8.5H14a3.5 3.5 0 0 0-3.5 3.5v15.5z" stroke="#3F4244" fill="#808385"/><g fill="#D8D8D8"><path d="M18 36h11v9H18zM32 36h19v3H32zM32 41h24v3H32z"/><g><path d="M18 51h11v9H18zM32 51h19v3H32zM32 56h24v3H32z"/></g><g><path d="M18 66h11v9H18zM32 66h19v3H32zM32 71h24v3H32z"/></g></g></g></svg>