<!--
  - Copyright (C) 2025 The Android Open Source Project
  -
  - Licensed under the Apache License, Version 2.0 (the "License");
  - you may not use this file except in compliance with the License.
  - You may obtain a copy of the License at
  -
  -      http://www.apache.org/licenses/LICENSE-2.0
  -
  - Unless required by applicable law or agreed to in writing, software
  - distributed under the License is distributed on an "AS IS" BASIS,
  - WITHOUT WARRANTIES OR CONDITIONS OF ANY KIND, either express or implied.
  - See the License for the specific language governing permissions and
  - limitations under the License.
  -->
<svg width="53" height="78" viewBox="0 0 53 78" fill="none" xmlns="http://www.w3.org/2000/svg"><g clip-path="url(#clip0_101_1401)" stroke="#3B3F41"><rect x=".5" y=".5" width="22" height="35" rx="2.5" fill="#fff"/><rect x=".5" y="42.5" width="22" height="35" rx="2.5" fill="#fff"/><rect x="30.5" y=".5" width="22" height="35" rx="2.5" fill="#fff"/><rect x="30.5" y="42.5" width="22" height="35" rx="2.5" fill="#fff"/><path d="M.5 3A2.5 2.5 0 013 .5h17A2.5 2.5 0 0122.5 3v5.5H.5V3zM.5 45A2.5 2.5 0 013 42.5h17a2.5 2.5 0 012.5 2.5v5.5H.5V45zM30.5 3A2.5 2.5 0 0133 .5h17A2.5 2.5 0 0152.5 3v5.5h-22V3zM30.5 45a2.5 2.5 0 012.5-2.5h17a2.5 2.5 0 012.5 2.5v5.5h-22V45z" fill="#808385"/></g><defs><clipPath id="clip0_101_1401"><path fill="#fff" d="M0 0h53v78H0z"/></clipPath></defs></svg>