<svg width="53" height="78" viewBox="0 0 53 78" xmlns="http://www.w3.org/2000/svg"><rect width="53" height="78" fill="none"/><g stroke="#CCC" fill="none" fill-rule="evenodd"><rect fill="#FFF" x=".5" y=".5" width="22" height="35" rx="3"/><rect fill="#FFF" x=".5" y="42.5" width="22" height="35" rx="3"/><rect fill="#FFF" x="30.5" y=".5" width="22" height="35" rx="3"/><rect fill="#FFF" x="30.5" y="42.5" width="22" height="35" rx="3"/><path d="M.5 8.5h22V3A2.5 2.5 0 0 0 20 .5H3A2.5 2.5 0 0 0 .5 3v5.5zM.5 50.5h22V45a2.5 2.5 0 0 0-2.5-2.5H3A2.5 2.5 0 0 0 .5 45v5.5zM30.5 8.5h22V3A2.5 2.5 0 0 0 50 .5H33A2.5 2.5 0 0 0 30.5 3v5.5zM30.5 50.5h22V45a2.5 2.5 0 0 0-2.5-2.5H33a2.5 2.5 0 0 0-2.5 2.5v5.5z" fill="#D8D8D8"/></g></svg>