<svg width="16" height="16" viewBox="0 0 16 16" fill="none" xmlns="http://www.w3.org/2000/svg"><path d="M10.021 2a1.664 1.664 0 01-.39.295H9.63l-.915.5a1.402 1.402 0 00-.28.205H4a1 1 0 00-1 1v5a1 1 0 001 1h5a1 1 0 01.625.219l3.375 2.7V7.564c.074-.08.143-.17.2-.273l.506-.926.06-.101c.067-.104.147-.198.234-.284v7.98a.5.5 0 01-.813.39L9 11H4a2 2 0 01-2-2V4a2 2 0 012-2h6.021z" fill="#6C707E"/><path d="M12.321 1.19l.508.927c.245.445.612.813 1.061 1.057l.916.501a.37.37 0 010 .652l-.916.5a2.664 2.664 0 00-1.06 1.057l-.509.927a.368.368 0 01-.642 0l-.508-.928a2.67 2.67 0 00-1.06-1.057l-.917-.501a.37.37 0 010-.651l.916-.501a2.664 2.664 0 001.06-1.057l.509-.927a.368.368 0 01.642 0v.001z" fill="#834DF0"/></svg>