<svg width="16" height="16" viewBox="0 0 16 16" fill="none" xmlns="http://www.w3.org/2000/svg"><path d="M13.214 2.127l.339.618c.163.296.408.541.707.704l.61.334a.247.247 0 010 .435l-.61.333c-.3.163-.544.408-.707.705l-.339.618a.245.245 0 01-.428 0l-.339-.619a1.78 1.78 0 00-.706-.704l-.611-.334a.247.247 0 010-.435l.61-.333c.3-.163.544-.408.707-.705l.339-.618a.245.245 0 01.428 0z" fill="#834DF0"/><path d="M6 3.5c.043 0 .075.019.094.05l.004.008.846 1.545A4.939 4.939 0 008.91 7.062v0l1.525.834a.117.117 0 010 .21l-1.524.833a4.94 4.94 0 00-1.967 1.96v.001l-.846 1.545h-.001A.104.104 0 016 12.5a.104.104 0 01-.097-.055l-.847-1.547v0l-.181-.303a4.95 4.95 0 00-1.48-1.477l-.303-.18-1.529-.835a.117.117 0 01.001-.208l1.524-.835h0A4.94 4.94 0 005.057 5.1v0l.846-1.545h.001A.104.104 0 016 3.5z" stroke="#834DF0"/><path d="M12.214 10.127l.339.618c.163.296.408.542.707.705l.61.333a.247.247 0 010 .435l-.61.334c-.3.162-.544.408-.707.704l-.339.618a.245.245 0 01-.428 0l-.339-.619a1.78 1.78 0 00-.706-.705l-.611-.333a.247.247 0 010-.435l.61-.334c.3-.162.544-.408.707-.704l.339-.618a.245.245 0 01.428 0z" fill="#834DF0"/></svg>