<svg width="16" height="16" viewBox="0 0 16 16" fill="none" xmlns="http://www.w3.org/2000/svg">
  <path d="M13.7679 1.15861L14.1913 1.93094C14.395 2.30185 14.7011 2.6081 15.0751 2.81186L15.838 3.22914C16.054 3.34749 16.054 3.65373 15.838 3.77208L15.0751 4.18936C14.7011 4.39312 14.395 4.69937 14.1913 5.07028L13.7679 5.84261C13.6531 6.05246 13.3469 6.05246 13.2321 5.84261L12.8087 5.06906C12.6051 4.69815 12.2989 4.3919 11.9261 4.18814L11.162 3.77086C10.946 3.65251 10.946 3.34627 11.162 3.22792L11.9249 2.81064C12.2989 2.60688 12.6051 2.30063 12.8087 1.92972L13.2321 1.15739C13.3469 0.947535 13.6531 0.947535 13.7679 1.15739V1.15861Z"
          fill="#A571E6" />
  <path d="M6 2.625C6.02324 2.625 6.04299 2.63146 6.05762 2.63965C6.06792 2.64544 6.0774 2.65402 6.08691 2.66797L6.09473 2.68066L7.11133 4.53516C7.65748 5.52969 8.47848 6.35108 9.48145 6.89746V6.89648L11.3105 7.89844C11.3961 7.94529 11.3961 8.05764 11.3105 8.10449L9.48145 9.10547C8.47848 9.65185 7.65748 10.4732 7.11133 11.4678L6.09473 13.3223C6.08345 13.3429 6.07029 13.3532 6.05762 13.3604C6.04299 13.3685 6.02324 13.375 6 13.375C5.97676 13.375 5.95701 13.3685 5.94238 13.3604C5.93601 13.3568 5.92901 13.3529 5.92285 13.3467L5.90527 13.3223L4.88965 11.4658L4.88867 11.4648C4.34262 10.4705 3.52191 9.64983 2.52246 9.10352V9.10254L0.688477 8.10156H0.689453C0.604019 8.05476 0.603214 7.94147 0.688477 7.89453L2.51758 6.89355L2.51855 6.89453C3.52152 6.34815 4.34252 5.52676 4.88867 4.53223L5.90527 2.67773C5.91655 2.65713 5.92971 2.64677 5.94238 2.63965C5.95701 2.63146 5.97676 2.625 6 2.625Z"
          stroke="#A571E6" stroke-width="1.25" />
  <path d="M13.7679 10.1586L14.1913 10.9309C14.395 11.3019 14.7011 11.6081 15.0751 11.8119L15.838 12.2291C16.054 12.3475 16.054 12.6537 15.838 12.7721L15.0751 13.1894C14.7011 13.3931 14.395 13.6994 14.1913 14.0703L13.7679 14.8426C13.6531 15.0525 13.3469 15.0525 13.2321 14.8426L12.8087 14.0691C12.6051 13.6981 12.2989 13.3919 11.9261 13.1881L11.162 12.7709C10.946 12.6525 10.946 12.3463 11.162 12.2279L11.9249 11.8106C12.2989 11.6069 12.6051 11.3006 12.8087 10.9297L13.2321 10.1574C13.3469 9.94754 13.6531 9.94754 13.7679 10.1574V10.1586Z"
          fill="#A571E6" />
</svg>
