<!--
  - Copyright (C) 2025 The Android Open Source Project
  -
  - Licensed under the Apache License, Version 2.0 (the "License");
  - you may not use this file except in compliance with the License.
  - You may obtain a copy of the License at
  -
  -      http://www.apache.org/licenses/LICENSE-2.0
  -
  - Unless required by applicable law or agreed to in writing, software
  - distributed under the License is distributed on an "AS IS" BASIS,
  - WITHOUT WARRANTIES OR CONDITIONS OF ANY KIND, either express or implied.
  - See the License for the specific language governing permissions and
  - limitations under the License.
  -->
<svg width="16" height="16" viewBox="0 0 16 16" fill="none" xmlns="http://www.w3.org/2000/svg">
  <path
    d="M13.4833 7.25834C12.4047 6.79403 11.461 6.15705 10.6518 5.3482C9.8429 4.53934 9.20592 3.59521 8.74162 2.51661C8.56337 2.10323 8.42014 1.67831 8.31033 1.24265C8.27452 1.10022 8.14681 0.999954 8 0.999954C7.85319 0.999954 7.72547 1.10022 7.68967 1.24265C7.57986 1.67831 7.43663 2.10283 7.25838 2.51661C6.79408 3.59521 6.1571 4.53934 5.34824 5.3482C4.53939 6.15705 3.59526 6.79403 2.51665 7.25834C2.10327 7.43658 1.67836 7.57981 1.2427 7.68962C1.10026 7.72543 1 7.85314 1 7.99995C1 8.14677 1.10026 8.27448 1.2427 8.31029C1.67836 8.4201 2.10288 8.56333 2.51665 8.74157C3.59526 9.20588 4.53899 9.84285 5.34824 10.6517C6.1575 11.4606 6.79408 12.4047 7.25838 13.4833C7.43663 13.8967 7.57986 14.3216 7.68967 14.7573C7.72547 14.8997 7.85319 15 8 15C8.14681 15 8.27452 14.8997 8.31033 14.7573C8.42014 14.3216 8.56337 13.8971 8.74162 13.4833C9.20592 12.4047 9.8429 11.461 10.6518 10.6517C11.4606 9.84285 12.4047 9.20588 13.4833 8.74157C13.8967 8.56333 14.3216 8.4201 14.7573 8.31029C14.8997 8.27448 15 8.14677 15 7.99995C15 7.85314 14.8997 7.72543 14.7573 7.68962C14.3216 7.57981 13.8971 7.43658 13.4833 7.25834Z"
    fill="url(#paint0_linear_5_1627)"/>
  <defs>
    <linearGradient id="paint0_linear_5_1627" x1="5.35713" y1="10.0494" x2="11.6902" y2="4.70989" gradientUnits="userSpaceOnUse">
      <stop stop-color="#346BF1"/>
      <stop offset="0.371606" stop-color="#3186FF"/>
      <stop offset="0.776981" stop-color="#4FA0FF"/>
    </linearGradient>
  </defs>
</svg>