<svg width="16" height="16" viewBox="0 0 16 16" fill="none" xmlns="http://www.w3.org/2000/svg"><path d="M15.969 7.969a7.748 7.748 0 0 1-3.076-.618 8.226 8.226 0 0 1-2.53-1.713 8.226 8.226 0 0 1-1.714-2.53A7.748 7.748 0 0 1 8.032.032a.031.031 0 1 0-.063 0c0 1.097-.215 2.11-.638 3.076a7.948 7.948 0 0 1-1.693 2.53 8.223 8.223 0 0 1-2.53 1.713 7.75 7.75 0 0 1-3.076.618.032.032 0 1 0 0 .063c1.097 0 2.11.214 3.076.637.965.41 1.816.98 2.53 1.694a7.95 7.95 0 0 1 1.693 2.53c.423.965.638 1.978.638 3.075a.032.032 0 0 0 .063 0c0-1.097.207-2.11.617-3.075.423-.965 1-1.817 1.714-2.53a7.945 7.945 0 0 1 2.53-1.694 7.54 7.54 0 0 1 3.075-.637.032.032 0 0 0 0-.063z" fill="url(#paint0_linear_4952_246)"/><defs><linearGradient id="paint0_linear_4952_246" x1="4.98" y1="10.342" x2="12.217" y2="4.24" gradientUnits="userSpaceOnUse"><stop stop-color="#217BFE"/><stop offset=".27" stop-color="#078EFB"/><stop offset=".777" stop-color="#A190FF"/><stop offset="1" stop-color="#BD99FE"/></linearGradient></defs></svg>