<svg width="16" height="16" viewBox="0 0 16 16" fill="none" xmlns="http://www.w3.org/2000/svg"><path d="M15.969 7.969a7.748 7.748 0 01-3.076-.618 8.226 8.226 0 01-2.53-1.713 8.226 8.226 0 01-1.714-2.53A7.748 7.748 0 018.032.032a.031.031 0 10-.063 0c0 1.097-.215 2.11-.638 3.076a7.948 7.948 0 01-1.693 2.53 8.223 8.223 0 01-2.53 1.713 7.75 7.75 0 01-3.076.618.031.031 0 100 .063c1.097 0 2.11.214 3.076.637a7.95 7.95 0 012.53 1.694 7.95 7.95 0 011.693 2.53c.423.965.638 1.978.638 3.075a.032.032 0 00.063 0c0-1.097.207-2.11.617-3.075.423-.965 1-1.816 1.714-2.53a7.944 7.944 0 012.53-1.694 7.54 7.54 0 013.075-.637.032.032 0 000-.063z" fill="#CED0D6"/></svg>