<?xml version="1.0" encoding="UTF-8"?>
<svg width="16px" height="16px" viewBox="0 0 16 16" version="1.1" xmlns="http://www.w3.org/2000/svg" xmlns:xlink="http://www.w3.org/1999/xlink">
    <!-- Generator: Sketch 64 (93537) - https://sketch.com -->
    <title>android-studio-canary-16@1x</title>
    <desc>Created with Sketch.</desc>
    <g id="android-studio-canary-16" stroke="none" stroke-width="1" fill="none" fill-rule="evenodd">
        <g id="android-head-16" transform="translate(0.000000, 3.000000)" fill="#F4B400" fill-rule="nonzero">
            <path d="M13.13,-9.57012247e-14 L13.9960254,0.5 L12.3782752,3.30333531 C14.4944417,4.68970035 15.9136246,7.05207237 15.9961932,9.75082067 L15.999,9.999 L-1.02140518e-13,10 L0.00380682394,9.75082067 C0.0863362206,7.05335201 1.50421274,4.6919407 3.61871509,3.30530804 L2,0.5 L2.8660254,-5.50448576e-13 L4.48870586,2.80974762 C5.54873461,2.29111985 6.74036996,2 8,2 C9.25843343,2 10.4490013,2.290567 11.5082728,2.8082702 L13.13,-9.57012247e-14 Z M5,6 L4,6 L4,7 L5,7 L5,6 Z M12,6 L11,6 L11,7 L12,7 L12,6 Z" id="Combined-Shape"></path>
        </g>
    </g>
</svg>