<svg width="22" height="22" viewBox="0 0 22 22" xmlns="http://www.w3.org/2000/svg"><rect width="22" height="22" fill="none"/><g fill="#AFB1B3" fill-rule="evenodd"><path d="M6.85 6.234c.512-.512 1.338-.523 1.841-.02l8.236 8.236a1.309 1.309 0 0 1-.015 1.845l-4.652 4.652a1.309 1.309 0 0 1-1.846.016l-8.236-8.236a1.309 1.309 0 0 1 .016-1.846L6.85 6.234zm8.231 8.231L8.676 8.059l-4.652 4.652 6.405 6.406 4.652-4.652zM18.188 5.156c-1.426-1.349-3.308-2.023-5.183-2.023V.65L9.55 3.9l3.455 3.249V4.666c1.459 0 2.918.52 4.034 1.57 1.889 1.777 2.174 4.498.855 6.56l1.148 1.148c1.979-2.685 1.694-6.399-.854-8.788z"/></g></svg>