<svg width="16" height="16" viewBox="0 0 16 16" xmlns="http://www.w3.org/2000/svg"><rect width="16" height="16" fill="none"/><g fill="#AFB1B3" fill-rule="evenodd"><path d="M11 8.74a6.278 6.278 0 0 0-1.235.202 2 2 0 1 0-2.118 1.027A6.35 6.35 0 0 0 6.556 11H6.5l.027.036a6.322 6.322 0 0 0-.994 1.691c.178.452.407.879.68 1.273H4a2 2 0 0 1-2-2V4a2 2 0 0 1 2-2h8a2 2 0 0 1 2 2v5.288a6.252 6.252 0 0 0-2.007-.533L13 8l-2-1.5v2.24zM8 3L6.5 5h3L8 3zM3 8l2 1.5v-3L3 8z"/><path d="M11.5 9.727A4.838 4.838 0 0 0 7 12.795a4.838 4.838 0 0 0 4.5 3.069 4.838 4.838 0 0 0 4.5-3.069 4.838 4.838 0 0 0-4.5-3.068zm0 5.114a2.046 2.046 0 1 1 .001-4.092 2.046 2.046 0 0 1-.001 4.092zm0-3.273c-.68 0-1.227.548-1.227 1.227 0 .68.548 1.228 1.227 1.228.68 0 1.227-.548 1.227-1.228 0-.679-.548-1.227-1.227-1.227z" fill-rule="nonzero"/></g></svg>