<svg width="16" height="16" viewBox="0 0 16 16" xmlns="http://www.w3.org/2000/svg"><rect width="16" height="16" fill="none"/><path d="M11.821 15c.4 0 .71-.314.768-.731l.4-3.012a.86.86 0 0 0-.475-.903l-2.42-1.291A.708.708 0 0 0 9.804 9H9.4V5.571c0-.474-.357-.857-.8-.857-.443 0-.8.383-.8.857v6.138l-1.83-.412c-.042-.006-.08-.017-.127-.017a.578.578 0 0 0-.422.189L5 11.926l2.635 2.823A.777.777 0 0 0 8.2 15H2V1h12v14h-2.179zM7.267 7.709V5.57c0-.788.597-1.428 1.333-1.428s1.333.64 1.333 1.428V7.71C10.58 7.246 11 6.463 11 5.57 11 4.15 9.928 3 8.6 3 7.272 3 6.2 4.149 6.2 5.571c0 .892.421 1.675 1.067 2.138z" fill="#AFB1B3" fill-rule="evenodd"/></svg>