<svg width="16" height="16" viewBox="0 0 16 16" xmlns="http://www.w3.org/2000/svg"><rect width="16" height="16" fill="none"/><g fill="none" fill-rule="evenodd"><path d="M0 0h16v16H0z"/><path d="M9 12H7v2a1 1 0 0 1-2 0v-2H4V6h8v6h-1v2a1 1 0 0 1-2 0v-2zm2-9.815c.622.617 1 1.427 1 2.315 0 .17-.014.337-.04.5H4.04A3.097 3.097 0 0 1 4 4.5c0-.888.378-1.698 1-2.315V0h1v1.468A4.426 4.426 0 0 1 8 1c.729 0 1.412.17 2 .468V0h1v2.185zM9 3v1h1V3H9zM6 3v1h1V3H6zM2 6a1 1 0 0 1 1 1v3a1 1 0 0 1-2 0V7a1 1 0 0 1 1-1zm12 0a1 1 0 0 1 1 1v3a1 1 0 0 1-2 0V7a1 1 0 0 1 1-1z" fill="#6E6E6E"/></g></svg>