<svg width="16" height="16" viewBox="0 0 16 16" xmlns="http://www.w3.org/2000/svg"><rect id="frame" width="16" height="16" fill="none"/><g fill="none" fill-rule="evenodd"><path d="M11 8.266a6.097 6.097 0 0 0-.445-.016C7.777 8.25 5.695 10.125 5 12c.348.939 1.043 1.877 2 2.58V15H5v-3H4V6h7v2.266zm2 .505a5.932 5.932 0 0 0-1-.346V6h1v2.771zm-3-5.87c.619.54 1 1.282 1 2.099H4c0-.817.381-1.558 1-2.1V1h1v1.289A3.977 3.977 0 0 1 7.5 2c.537 0 1.045.104 1.5.289V1h1v1.9zM8 3v1h1V3H8zM6 3v1h1V3H6zM2 6h1v5H2V6z" fill="#3DDC84"/><path d="M10.5 9C8.455 9 6.708 10.244 6 12c.708 1.756 2.455 3 4.5 3s3.792-1.244 4.5-3c-.708-1.756-2.455-3-4.5-3zm0 5c-1.13 0-2.045-.896-2.045-2s.916-2 2.045-2c1.13 0 2.045.896 2.045 2s-.916 2-2.045 2zm0-3.2c-.68 0-1.227.536-1.227 1.2 0 .664.548 1.2 1.227 1.2.68 0 1.227-.536 1.227-1.2 0-.664-.548-1.2-1.227-1.2z" fill="#AFB1B3"/></g></svg>