<svg width="16" height="16" viewBox="0 0 16 16" xmlns="http://www.w3.org/2000/svg"><rect id="frame" width="16" height="16" fill="none"/><g fill="none" fill-rule="evenodd"><path d="M5.027 15a4.5 4.5 0 1 1 8.945 0H5.028z" fill="#3DDC84"/><rect fill="#3DDC84" transform="rotate(-40 6.347 9.97)" x="5.847" y="8.47" width="1" height="3" rx=".5"/><rect fill="#3DDC84" transform="scale(-1 1) rotate(-40 0 43.894)" x="11.847" y="8.47" width="1" height="3" rx=".5"/><path d="M10 9.022a5.57 5.57 0 0 0-1 0V4H3v7h2.257a5.475 5.475 0 0 0-1.235 3H3c-.5 0-1-.5-1-1V3c0-.5.5-1 1-1h6c.5 0 1 .5 1 1v6.022z" fill="#6E6E6E"/></g></svg>