<svg width="16" height="16" viewBox="0 0 16 16" fill="none" xmlns="http://www.w3.org/2000/svg"><path fill-rule="evenodd" clip-rule="evenodd" d="M8 1C4.136 1 1 4.136 1 8s3.136 7 7 7 7-3.136 7-7-3.136-7-7-7zm-.7 12.551A5.592 5.592 0 0 1 2.4 8c0-.434.056-.847.147-1.253L5.9 10.1v.7c0 .77.63 1.4 1.4 1.4v1.351zm4.83-1.778a1.389 1.389 0 0 0-1.33-.973h-.7V8.7c0-.385-.315-.7-.7-.7H5.2V6.6h1.4c.385 0 .7-.315.7-.7V4.5h1.4c.77 0 1.4-.63 1.4-1.4v-.287A5.603 5.603 0 0 1 13.6 8a5.57 5.57 0 0 1-1.47 3.773z" fill="#6E6E6E"/></svg>