<!--
  - Copyright (C) 2025 The Android Open Source Project
  -
  - Licensed under the Apache License, Version 2.0 (the "License");
  - you may not use this file except in compliance with the License.
  - You may obtain a copy of the License at
  -
  -      http://www.apache.org/licenses/LICENSE-2.0
  -
  - Unless required by applicable law or agreed to in writing, software
  - distributed under the License is distributed on an "AS IS" BASIS,
  - WITHOUT WARRANTIES OR CONDITIONS OF ANY KIND, either express or implied.
  - See the License for the specific language governing permissions and
  - limitations under the License.
  -->
<svg width="16" height="16" viewBox="0 0 16 16" fill="none" xmlns="http://www.w3.org/2000/svg"><g clip-path="url(#clip0_1632_905)"><path d="M10.833 8c0 1.97-.364 3.73-.931 4.979-.588 1.293-1.298 1.854-1.902 1.854-.604 0-1.314-.561-1.902-1.854C5.531 11.73 5.167 9.97 5.167 8c0-1.97.364-3.73.931-4.979C6.686 1.728 7.396 1.167 8 1.167c.604 0 1.314.56 1.902 1.854.567 1.249.931 3.009.931 4.979z" stroke="#6C707E"/><circle cx="8" cy="8" r="6.833" stroke="#6C707E"/><path fill="#6C707E" d="M2 5h12v1H2zM2 10h12v1H2z"/></g><defs><clipPath id="clip0_1632_905"><path fill="#fff" d="M0 0h16v16H0z"/></clipPath></defs></svg>