<!--
  - Copyright (C) 2025 The Android Open Source Project
  -
  - Licensed under the Apache License, Version 2.0 (the "License");
  - you may not use this file except in compliance with the License.
  - You may obtain a copy of the License at
  -
  -      http://www.apache.org/licenses/LICENSE-2.0
  -
  - Unless required by applicable law or agreed to in writing, software
  - distributed under the License is distributed on an "AS IS" BASIS,
  - WITHOUT WARRANTIES OR CONDITIONS OF ANY KIND, either express or implied.
  - See the License for the specific language governing permissions and
  - limitations under the License.
  -->
<svg width="16" height="16" viewBox="0 0 16 16" fill="none" xmlns="http://www.w3.org/2000/svg"><path fill-rule="evenodd" clip-rule="evenodd" d="M12.157 7.202a.6.6 0 10-.752-.935l-2.477 1.99a1.8 1.8 0 10.764.926l2.465-1.98zM8.8 9.8a.8.8 0 11-1.6 0 .8.8 0 011.6 0z" fill="#6C707E"/><path fill-rule="evenodd" clip-rule="evenodd" d="M8 3.5A6.5 6.5 0 001.5 10c0 .89.27 2.087.64 3h11.72c.37-.913.64-2.11.64-3A6.5 6.5 0 008 3.5zM.5 10a7.5 7.5 0 1115 0c0 1.16-.377 2.68-.866 3.73a.475.475 0 01-.435.27H1.8a.475.475 0 01-.435-.27C.877 12.68.5 11.16.5 10z" fill="#6C707E"/></svg>