<svg width="16" height="16" viewBox="0 0 16 16" xmlns="http://www.w3.org/2000/svg"><rect width="16" height="16" fill="none"/><g fill="#6E6E6E" fill-rule="evenodd"><path d="M12.794 5.246a.253.253 0 0 0-.27-.233.26.26 0 0 0-.156.063L6.826 9.618a1.452 1.452 0 0 0-.54 1.2c.043.817.769 1.442 1.622 1.397a1.56 1.56 0 0 0 1.282-.78l3.562-6.042a.236.236 0 0 0 .042-.147z"/><path d="M12.899 5l-1.2 1.635A5 5 0 0 0 3.416 12H1.29A7 7 0 0 1 12.9 5zm.945 1.146A6.967 6.967 0 0 1 15 10c0 .695-.101 1.366-.29 2h-2.126A4.983 4.983 0 0 0 13 10a4.99 4.99 0 0 0-.304-1.721l1.148-2.133z"/><path d="M12.899 5l-1.2 1.635A5 5 0 0 0 3.416 12H1.29A7 7 0 0 1 12.9 5z"/></g></svg>