<!--
  - Copyright (C) 2025 The Android Open Source Project
  -
  - Licensed under the Apache License, Version 2.0 (the "License");
  - you may not use this file except in compliance with the License.
  - You may obtain a copy of the License at
  -
  -      http://www.apache.org/licenses/LICENSE-2.0
  -
  - Unless required by applicable law or agreed to in writing, software
  - distributed under the License is distributed on an "AS IS" BASIS,
  - WITHOUT WARRANTIES OR CONDITIONS OF ANY KIND, either express or implied.
  - See the License for the specific language governing permissions and
  - limitations under the License.
  -->
<svg width="16" height="16" viewBox="0 0 16 16" fill="none" xmlns="http://www.w3.org/2000/svg"><g clip-path="url(#clip0_3_1568)" fill-rule="evenodd" clip-rule="evenodd" fill="#6C707E"><path d="M8 14A6 6 0 108 2a6 6 0 000 12zm0 1A7 7 0 118 1a7 7 0 010 14z"/><path d="M8 11a3 3 0 100-6 3 3 0 000 6zm0 1a4 4 0 110-8 4 4 0 010 8z"/><path d="M8 5C5.79 5 4 6.343 4 8s1.79 3 4 3V5z"/></g><defs><clipPath id="clip0_3_1568"><path fill="#fff" d="M0 0h16v16H0z"/></clipPath></defs></svg>