<svg width="300" height="96.2037962037" viewBox="0 0 1001 321" fill="none" xmlns="http://www.w3.org/2000/svg">
<path d="M210.005 166.642V156.863H242.643C242.978 158.585 243.17 160.635 243.17 162.858C243.17 170.192 241.17 179.272 234.728 185.736C228.462 192.286 220.459 195.774 209.835 195.774C190.17 195.778 173.632 179.714 173.632 159.978C173.632 140.241 190.17 124.174 209.835 124.174C220.716 124.174 228.462 128.454 234.293 134.042L227.416 140.941C223.235 137.011 217.582 133.954 209.835 133.954C195.474 133.954 184.243 145.568 184.243 159.974C184.243 174.384 195.474 185.998 209.835 185.998C219.147 185.998 224.455 182.241 227.851 178.837C230.616 176.064 232.435 172.084 233.143 166.642H210.005ZM292.905 172.726C292.905 185.994 282.547 195.778 269.839 195.778C257.132 195.778 246.778 185.998 246.778 172.726C246.778 159.366 257.135 149.671 269.839 149.671C282.547 149.671 292.905 159.362 292.905 172.726ZM282.809 172.726C282.809 164.427 276.805 158.755 269.839 158.755C262.878 158.755 256.87 164.427 256.87 172.726C256.87 180.933 262.878 186.694 269.839 186.694C276.801 186.694 282.809 180.937 282.809 172.726ZM343.22 172.726C343.22 185.994 332.862 195.778 320.155 195.778C307.447 195.778 297.093 185.998 297.093 172.726C297.093 159.366 307.451 149.671 320.159 149.671C332.866 149.671 343.22 159.362 343.22 172.726ZM333.124 172.726C333.124 164.427 327.116 158.755 320.155 158.755C313.193 158.755 307.185 164.427 307.185 172.726C307.185 180.933 313.189 186.694 320.155 186.694C327.116 186.694 333.124 180.937 333.124 172.726ZM391.447 151.067V192.459C391.447 209.488 381.435 216.471 369.601 216.471C358.459 216.471 351.755 208.961 349.235 202.85L358.024 199.181C359.593 202.938 363.42 207.392 369.601 207.392C377.174 207.392 381.87 202.677 381.87 193.855V190.54H381.524C379.262 193.332 374.909 195.778 369.424 195.778C357.935 195.778 347.405 185.736 347.405 172.815C347.405 159.801 357.935 149.675 369.424 149.675C374.909 149.675 379.262 152.117 381.524 154.828H381.87V151.071H391.447V151.067ZM382.57 172.811C382.57 164.689 377.174 158.751 370.297 158.751C363.335 158.751 357.501 164.689 357.501 172.811C357.501 180.845 363.335 186.694 370.297 186.694C377.174 186.694 382.57 180.845 382.57 172.811ZM408.547 126.847V194.378H398.451V126.847H408.547ZM447.535 180.322L455.366 185.559C452.843 189.313 446.751 195.778 436.22 195.778C423.162 195.778 413.412 185.648 413.412 172.722C413.412 159.012 423.251 149.671 435.089 149.671C447.012 149.671 452.843 159.189 454.759 164.343L455.801 166.958L425.078 179.71C427.428 184.34 431.085 186.698 436.22 186.698C441.355 186.698 444.924 184.16 447.535 180.322ZM423.424 172.026L443.962 163.466C442.835 160.585 439.439 158.578 435.435 158.578C430.301 158.578 423.166 163.116 423.424 172.026Z" fill="white"/>
<path d="M626.197 151.394L614.674 180.687H614.328L602.37 151.394H591.535L609.47 192.328L599.243 215.103H609.735L637.37 151.394H626.197ZM545.185 127.062H535.135V194.617H545.185V127.059V127.062ZM507.493 127.062H483.412V194.617H493.482V169.05H507.52C518.655 169.05 529.612 160.963 529.612 148.072C529.612 135.181 518.635 127.062 507.493 127.062ZM507.762 159.613H493.482V136.5H507.782C510.843 136.5 513.778 137.723 515.943 139.892C518.111 142.065 519.328 145.01 519.328 148.079C519.328 151.149 518.111 154.093 515.943 156.267C514.873 157.341 513.601 158.194 512.2 158.776C510.8 159.358 509.298 159.658 507.782 159.659L507.762 159.613ZM569.882 149.914C562.601 149.914 555.058 153.129 551.943 160.259L560.87 164.001C562.782 160.263 566.332 159.07 570.055 159.07C575.247 159.07 580.535 162.205 580.628 167.77V168.458C577.417 166.734 573.83 165.83 570.185 165.824C560.57 165.824 550.774 171.123 550.774 181.033C550.774 190.071 558.639 195.89 567.489 195.89C574.259 195.89 577.982 192.851 580.274 189.29H580.628V194.497H590.335V168.608C590.335 156.609 581.405 149.918 569.882 149.918V149.914ZM568.67 186.941C565.378 186.941 560.801 185.287 560.801 181.203C560.801 175.992 566.516 173.992 571.462 173.992C574.671 173.907 577.844 174.686 580.647 176.249C580.276 179.18 578.858 181.877 576.655 183.845C574.455 185.808 571.619 186.908 568.67 186.941Z" fill="white"/>
<path d="M689.328 195.364C679.851 195.364 671.924 192.176 665.543 185.799C659.224 179.419 656.066 171.463 656.066 161.929C656.066 152.395 659.224 144.465 665.543 138.147C671.862 131.709 679.789 128.494 689.328 128.494C698.982 128.494 706.824 131.978 712.843 138.955L706.943 144.673C702.351 139.131 696.482 136.359 689.328 136.359C682.235 136.359 676.305 138.743 671.535 143.512C666.824 148.219 664.47 154.357 664.47 161.929C664.47 169.501 666.828 175.635 671.535 180.346C676.305 185.115 682.235 187.499 689.328 187.499C696.778 187.499 703.247 184.369 708.732 178.108L714.72 183.923C711.682 187.557 707.862 190.46 703.547 192.414C699.07 194.395 694.223 195.4 689.328 195.364ZM718.655 172.032C718.655 165.294 720.77 159.725 725.001 155.31C729.297 150.899 734.693 148.696 741.185 148.696C747.678 148.696 753.051 150.899 757.282 155.31C761.574 159.722 763.72 165.294 763.72 172.032C763.72 178.823 761.574 184.4 757.282 188.749C753.051 193.16 747.685 195.364 741.185 195.364C734.685 195.364 729.297 193.16 725.005 188.749C720.774 184.338 718.658 178.766 718.658 172.032H718.655ZM726.882 172.032C726.882 176.739 728.251 180.554 730.997 183.473C733.735 186.396 737.135 187.857 741.189 187.857C745.239 187.857 748.639 186.396 751.382 183.473C754.124 180.55 755.493 176.739 755.493 172.032C755.493 167.378 754.124 163.598 751.378 160.675C748.578 157.695 745.182 156.207 741.185 156.207C737.189 156.207 733.797 157.695 730.993 160.675C728.251 163.598 726.878 167.382 726.878 172.032H726.882ZM770.316 150.126H778.185V156.203H778.543C779.797 154.061 781.705 152.272 784.266 150.842C786.751 149.447 789.551 148.709 792.401 148.696C797.766 148.696 801.882 150.246 804.743 153.345C807.666 156.383 809.124 160.737 809.124 166.398V193.933H800.897V166.936C800.716 159.783 797.112 156.207 790.078 156.207C786.801 156.207 784.058 157.549 781.851 160.229C779.647 162.852 778.543 166.009 778.543 169.705V193.933H770.316V150.126ZM851.874 181.777C851.874 185.588 850.205 188.807 846.866 191.43C843.528 194.052 839.328 195.364 834.258 195.364C829.847 195.364 825.974 194.233 822.635 191.968C819.37 189.737 816.872 186.552 815.482 182.85L822.812 179.719C823.889 182.342 825.435 184.396 827.466 185.888C829.454 187.287 831.827 188.037 834.258 188.034C836.882 188.034 839.058 187.468 840.785 186.334C842.574 185.203 843.47 183.861 843.47 182.311C843.47 179.512 841.324 177.454 837.032 176.143L829.52 174.266C820.997 172.12 816.735 168.009 816.735 161.929C816.735 157.933 818.343 154.745 821.562 152.361C824.839 149.919 829.012 148.696 834.082 148.696C837.955 148.696 841.443 149.619 844.543 151.465C847.701 153.315 849.908 155.787 851.158 158.887L843.828 161.925C842.984 160.069 841.532 158.557 839.712 157.637C837.809 156.549 835.647 155.992 833.455 156.026C831.308 156.026 829.37 156.564 827.643 157.637C825.974 158.71 825.139 160.021 825.139 161.571C825.139 164.071 827.493 165.863 832.205 166.936L838.82 168.632C847.52 170.778 851.874 175.158 851.874 181.777ZM856.966 172.032C856.966 165.294 859.082 159.725 863.312 155.31C867.605 150.899 873.005 148.696 879.497 148.696C885.989 148.696 891.362 150.899 895.593 155.31C899.885 159.722 902.032 165.294 902.032 172.032C902.032 178.823 899.885 184.4 895.593 188.749C891.362 193.16 885.997 195.364 879.497 195.364C872.997 195.364 867.605 193.16 863.316 188.749C859.085 184.338 856.966 178.766 856.966 172.032ZM865.193 172.032C865.193 176.739 866.562 180.554 869.309 183.473C872.047 186.396 875.443 187.857 879.501 187.857C883.559 187.857 886.951 186.396 889.693 183.473C892.432 180.55 893.805 176.739 893.805 172.032C893.805 167.378 892.432 163.598 889.689 160.675C886.889 157.695 883.493 156.207 879.497 156.207C875.501 156.207 872.108 157.695 869.305 160.675C866.562 163.598 865.189 167.382 865.189 172.032H865.193ZM917.293 129.921V193.937H909.066V129.921H917.293ZM946.551 195.364C940.112 195.364 934.805 193.16 930.635 188.749C926.462 184.338 924.374 178.766 924.374 172.032C924.374 165.356 926.401 159.81 930.455 155.403C934.509 150.93 939.693 148.696 946.012 148.696C952.512 148.696 957.666 150.811 961.482 155.041C965.355 159.214 967.297 165.086 967.297 172.655L967.201 173.551H932.778C932.901 177.843 934.332 181.3 937.07 183.923C938.368 185.197 939.906 186.2 941.595 186.875C943.284 187.55 945.09 187.882 946.909 187.853C952.155 187.853 956.27 185.234 959.251 179.989L966.578 183.565C964.7 187.167 961.852 190.171 958.355 192.237C954.893 194.322 950.962 195.364 946.547 195.364H946.551ZM933.405 166.755H958.528C958.441 165.315 958.064 163.908 957.42 162.617C956.775 161.327 955.877 160.179 954.778 159.245C952.57 157.218 949.585 156.207 945.835 156.207C942.735 156.207 940.051 157.16 937.785 159.068C935.582 160.975 934.12 163.536 933.405 166.755Z" fill="white"/>
<path d="M15.9395 110.899V206.677C15.9395 217.164 27.4318 223.718 36.6241 218.472L120.586 170.581C129.778 165.339 129.778 152.233 120.586 146.987L36.6241 99.1003C27.4279 93.8509 15.9395 100.408 15.9395 110.899Z" fill="#2F80ED"/>
<path d="M100.005 135.25L55.8892 160.651L47.4661 145.73C46.9986 144.899 46.371 144.17 45.6197 143.584C44.8684 142.998 44.0083 142.566 43.0892 142.315C41.2304 141.793 39.2407 142.028 37.5546 142.968L15.9392 154.967V169.681L38.9238 156.917L47.3854 171.915C48.3315 173.588 49.9469 174.838 51.8161 175.346C53.6997 175.852 55.707 175.593 57.4007 174.626L112.955 142.634L100.005 135.25Z" fill="#CCF6FF"/>
</svg>
