<svg width="300" height="96.2037962037" viewBox="0 0 1001 321" fill="none" xmlns="http://www.w3.org/2000/svg">
<path d="M210.005 166.068V156.288H242.643C242.978 158.011 243.17 160.061 243.17 162.284C243.17 169.618 241.17 178.697 234.728 185.162C228.462 191.711 220.459 195.199 209.835 195.199C190.17 195.203 173.632 179.14 173.632 159.403C173.632 139.667 190.17 123.6 209.835 123.6C220.716 123.6 228.462 127.88 234.293 133.468L227.416 140.367C223.235 136.437 217.582 133.379 209.835 133.379C195.474 133.379 184.243 144.993 184.243 159.4C184.243 173.81 195.474 185.424 209.835 185.424C219.147 185.424 224.455 181.666 227.851 178.263C230.616 175.49 232.435 171.51 233.143 166.068H210.005ZM292.905 172.152C292.905 185.42 282.547 195.203 269.839 195.203C257.132 195.203 246.778 185.424 246.778 172.152C246.778 158.792 257.135 149.097 269.839 149.097C282.547 149.097 292.905 158.788 292.905 172.152ZM282.809 172.152C282.809 163.853 276.805 158.18 269.839 158.18C262.878 158.18 256.87 163.853 256.87 172.152C256.87 180.359 262.878 186.12 269.839 186.12C276.801 186.12 282.809 180.363 282.809 172.152ZM343.22 172.152C343.22 185.42 332.862 195.203 320.155 195.203C307.447 195.203 297.093 185.424 297.093 172.152C297.093 158.792 307.451 149.097 320.159 149.097C332.866 149.097 343.22 158.788 343.22 172.152ZM333.124 172.152C333.124 163.853 327.116 158.18 320.155 158.18C313.193 158.18 307.185 163.853 307.185 172.152C307.185 180.359 313.189 186.12 320.155 186.12C327.116 186.12 333.124 180.363 333.124 172.152ZM391.447 150.493V191.884C391.447 208.913 381.435 215.897 369.601 215.897C358.459 215.897 351.755 208.387 349.235 202.276L358.024 198.607C359.593 202.364 363.42 206.817 369.601 206.817C377.174 206.817 381.87 202.103 381.87 193.28V189.965H381.524C379.262 192.757 374.909 195.203 369.424 195.203C357.935 195.203 347.405 185.162 347.405 172.24C347.405 159.226 357.935 149.101 369.424 149.101C374.909 149.101 379.262 151.543 381.524 154.254H381.87V150.497H391.447V150.493ZM382.57 172.237C382.57 164.114 377.174 158.177 370.297 158.177C363.335 158.177 357.501 164.114 357.501 172.237C357.501 180.27 363.335 186.12 370.297 186.12C377.174 186.12 382.57 180.27 382.57 172.237ZM408.547 126.272V193.803H398.451V126.272H408.547ZM447.535 179.747L455.366 184.985C452.843 188.739 446.751 195.203 436.22 195.203C423.162 195.203 413.412 185.074 413.412 172.148C413.412 158.438 423.251 149.097 435.089 149.097C447.012 149.097 452.843 158.615 454.759 163.768L455.801 166.383L425.078 179.136C427.428 183.766 431.085 186.124 436.22 186.124C441.355 186.124 444.924 183.585 447.535 179.747ZM423.424 171.452L443.962 162.891C442.835 160.011 439.439 158.004 435.435 158.004C430.301 158.004 423.166 162.542 423.424 171.452Z" fill="#5F6368"/>
<path d="M626.197 150.82L614.674 180.113H614.328L602.37 150.82H591.535L609.47 191.754L599.243 214.529H609.735L637.37 150.82H626.197ZM545.185 126.488H535.135V194.042H545.185V126.484V126.488ZM507.493 126.488H483.412V194.042H493.482V168.476H507.52C518.655 168.476 529.612 160.388 529.612 147.497C529.612 134.607 518.635 126.488 507.493 126.488ZM507.762 159.039H493.482V135.926H507.782C510.843 135.926 513.778 137.149 515.943 139.318C518.111 141.491 519.328 144.436 519.328 147.505C519.328 150.575 518.111 153.519 515.943 155.693C514.873 156.767 513.601 157.62 512.2 158.202C510.8 158.784 509.298 159.084 507.782 159.085L507.762 159.039ZM569.882 149.34C562.601 149.34 555.058 152.555 551.943 159.685L560.87 163.427C562.782 159.688 566.332 158.496 570.055 158.496C575.247 158.496 580.535 161.631 580.628 167.195V167.884C577.417 166.16 573.83 165.255 570.185 165.249C560.57 165.249 550.774 170.549 550.774 180.459C550.774 189.497 558.639 195.315 567.489 195.315C574.259 195.315 577.982 192.277 580.274 188.716H580.628V193.923H590.335V168.034C590.335 156.035 581.405 149.343 569.882 149.343V149.34ZM568.67 186.366C565.378 186.366 560.801 184.713 560.801 180.628C560.801 175.418 566.516 173.418 571.462 173.418C574.671 173.332 577.844 174.112 580.647 175.675C580.276 178.606 578.858 181.303 576.655 183.27C574.455 185.234 571.619 186.334 568.67 186.366Z" fill="#5F6368"/>
<path d="M689.328 194.789C679.851 194.789 671.924 191.601 665.543 185.224C659.224 178.844 656.066 170.887 656.066 161.354C656.066 151.82 659.224 143.89 665.543 137.572C671.862 131.134 679.789 127.919 689.328 127.919C698.981 127.919 706.824 131.403 712.843 138.379L706.943 144.098C702.351 138.556 696.481 135.784 689.328 135.784C682.235 135.784 676.305 138.168 671.535 142.937C666.824 147.644 664.47 153.782 664.47 161.354C664.47 168.926 666.828 175.06 671.535 179.771C676.305 184.54 682.235 186.924 689.328 186.924C696.778 186.924 703.247 183.794 708.732 177.533L714.72 183.348C711.681 186.982 707.862 189.884 703.547 191.839C699.07 193.82 694.223 194.825 689.328 194.789ZM718.655 171.457C718.655 164.719 720.77 159.15 725.001 154.735C729.297 150.324 734.693 148.121 741.185 148.121C747.678 148.121 753.051 150.324 757.281 154.735C761.574 159.146 763.72 164.719 763.72 171.457C763.72 178.248 761.574 183.824 757.281 188.174C753.051 192.585 747.685 194.789 741.185 194.789C734.685 194.789 729.297 192.585 725.005 188.174C720.774 183.763 718.658 178.19 718.658 171.457H718.655ZM726.882 171.457C726.882 176.164 728.251 179.979 730.997 182.898C733.735 185.82 737.135 187.282 741.189 187.282C745.239 187.282 748.639 185.82 751.381 182.898C754.124 179.975 755.493 176.164 755.493 171.457C755.493 166.803 754.124 163.023 751.378 160.1C748.578 157.12 745.181 155.631 741.185 155.631C737.189 155.631 733.797 157.12 730.993 160.1C728.251 163.023 726.878 166.807 726.878 171.457H726.882ZM770.316 149.551H778.185V155.628H778.543C779.797 153.485 781.705 151.697 784.266 150.267C786.751 148.872 789.551 148.134 792.401 148.121C797.766 148.121 801.882 149.671 804.743 152.77C807.666 155.808 809.124 160.162 809.124 165.823V193.358H800.897V166.361C800.716 159.208 797.112 155.631 790.078 155.631C786.801 155.631 784.058 156.974 781.851 159.654C779.647 162.277 778.543 165.434 778.543 169.13V193.358H770.316V149.551ZM851.874 181.202C851.874 185.013 850.205 188.232 846.866 190.854C843.528 193.477 839.328 194.789 834.258 194.789C829.847 194.789 825.974 193.658 822.635 191.393C819.37 189.161 816.872 185.977 815.481 182.275L822.812 179.144C823.889 181.767 825.435 183.821 827.466 185.313C829.454 186.712 831.827 187.462 834.258 187.459C836.881 187.459 839.058 186.893 840.785 185.759C842.574 184.628 843.47 183.286 843.47 181.736C843.47 178.937 841.324 176.879 837.031 175.568L829.52 173.691C820.997 171.545 816.735 167.434 816.735 161.354C816.735 157.358 818.343 154.17 821.562 151.786C824.839 149.344 829.012 148.121 834.081 148.121C837.955 148.121 841.443 149.044 844.543 150.89C847.701 152.739 849.908 155.212 851.158 158.312L843.828 161.35C842.984 159.494 841.532 157.982 839.712 157.062C837.809 155.974 835.647 155.417 833.455 155.451C831.308 155.451 829.37 155.989 827.643 157.062C825.974 158.135 825.139 159.446 825.139 160.996C825.139 163.496 827.493 165.288 832.205 166.361L838.82 168.057C847.52 170.203 851.874 174.583 851.874 181.202ZM856.966 171.457C856.966 164.719 859.081 159.15 863.312 154.735C867.605 150.324 873.005 148.121 879.497 148.121C885.989 148.121 891.362 150.324 895.593 154.735C899.885 159.146 902.032 164.719 902.032 171.457C902.032 178.248 899.885 183.824 895.593 188.174C891.362 192.585 885.997 194.789 879.497 194.789C872.997 194.789 867.605 192.585 863.316 188.174C859.085 183.763 856.966 178.19 856.966 171.457ZM865.193 171.457C865.193 176.164 866.562 179.979 869.308 182.898C872.047 185.82 875.443 187.282 879.501 187.282C883.558 187.282 886.951 185.82 889.693 182.898C892.431 179.975 893.805 176.164 893.805 171.457C893.805 166.803 892.432 163.023 889.689 160.1C886.889 157.12 883.493 155.631 879.497 155.631C875.501 155.631 872.108 157.12 869.305 160.1C866.562 163.023 865.189 166.807 865.189 171.457H865.193ZM917.293 129.346V193.362H909.066V129.346H917.293ZM946.551 194.789C940.112 194.789 934.805 192.585 930.635 188.174C926.462 183.763 924.374 178.19 924.374 171.457C924.374 164.78 926.401 159.235 930.455 154.828C934.508 150.355 939.693 148.121 946.012 148.121C952.512 148.121 957.666 150.236 961.482 154.466C965.355 158.639 967.297 164.511 967.297 172.08L967.201 172.976H932.778C932.901 177.268 934.332 180.725 937.07 183.348C938.368 184.622 939.906 185.625 941.595 186.3C943.284 186.975 945.09 187.307 946.908 187.278C952.155 187.278 956.27 184.659 959.251 179.413L966.578 182.99C964.7 186.592 961.852 189.596 958.355 191.662C954.893 193.746 950.962 194.789 946.547 194.789H946.551ZM933.405 166.18H958.528C958.441 164.74 958.064 163.333 957.42 162.042C956.775 160.751 955.877 159.604 954.778 158.67C952.57 156.643 949.585 155.631 945.835 155.631C942.735 155.631 940.051 156.585 937.785 158.493C935.581 160.4 934.12 162.961 933.405 166.18ZM15.9392 206.103V110.325C15.9392 99.8336 27.4277 93.2767 36.6238 98.5261L120.585 146.413C129.778 151.659 129.778 164.765 120.585 170.007L36.6238 217.898C27.4315 223.143 15.9392 216.59 15.9392 206.103Z" fill="#2F80ED"/>
<path d="M100.005 134.676L55.8892 160.077L47.4661 145.155C46.9986 144.325 46.371 143.596 45.6197 143.01C44.8684 142.423 44.0083 141.992 43.0892 141.74C41.2304 141.219 39.2407 141.454 37.5546 142.394L15.9392 154.393V169.107L38.9238 156.343L47.3854 171.341C48.3315 173.014 49.9469 174.264 51.8161 174.771C53.6997 175.278 55.707 175.019 57.4007 174.052L112.955 142.06L100.005 134.676Z" fill="#CCF6FF"/>
</svg>
