<?xml version="1.0" encoding="UTF-8"?>
<svg width="128px" height="128px" viewBox="0 0 128 128" version="1.1" xmlns="http://www.w3.org/2000/svg" xmlns:xlink="http://www.w3.org/1999/xlink">
    <!-- Generator: Sketch 64 (93537) - https://sketch.com -->
    <title>android-studio-stable-128@1x</title>
    <desc>Created with Sketch.</desc>
    <defs>
        <linearGradient x1="31.677374%" y1="34.9121905%" x2="78.4596211%" y2="88.5939019%" id="linearGradient-1">
            <stop stop-color="#E6E6E6" offset="0%"></stop>
            <stop stop-color="#FFFFFF" stop-opacity="0" offset="92.575%"></stop>
        </linearGradient>
    </defs>
    <g id="android-studio-stable-128" stroke="none" stroke-width="1" fill="none" fill-rule="evenodd">
        <g id="android-studio-stable/4.1">
            <g id="android-studio-desktop-icon_RGB" transform="translate(6.500000, 6.000000)">
                <ellipse id="Oval" fill="#000000" fill-rule="nonzero" opacity="0.2" cx="57.5396825" cy="58.3956337" rx="57.5396825" ry="57.4749987"></ellipse>
                <ellipse id="Oval" fill="#FFFFFF" fill-rule="nonzero" cx="57.5396825" cy="57.4749987" rx="57.5396825" ry="57.4749987"></ellipse>
                <g id="Group" transform="translate(31.531746, 18.873016)" fill-rule="nonzero">
                    <path d="M83.0584121,46.1141843 L37.10376,0.211175238 L0.0849584921,60.8239463 L34.7215964,95.4215908 C59.9194248,91.5979569 79.7471829,71.4495717 83.0584121,46.1141843 Z" id="Path" fill="#FFFFFF"></path>
                    <path d="M83.0584121,46.1141843 L37.10376,0.211175238 L0.0849584921,60.8239463 L34.7215964,95.4215908 C59.9194248,91.5979569 79.7471829,71.4495717 83.0584121,46.1141843 Z" id="Path" fill="url(#linearGradient-1)"></path>
                </g>
                <path d="M79.184599,41.3143989 L76.9392026,41.3143989 C76.4175801,35.1036668 72.8654046,29.8468207 67.6727843,27.0223772 L66.5448615,26.4594136 C64.2025913,25.3904483 61.5719484,24.7950483 58.7648704,24.7950483 C55.9579006,24.7950483 53.3272576,25.3904483 50.9849322,26.4594136 L50.9753231,26.4427524 C50.588447,26.6152863 50.197863,26.7765286 49.8013778,26.925996 L49.8570071,27.0223772 C48.5094324,27.7552924 47.2736204,28.6532682 46.1713212,29.6879283 L35.6717331,29.6879283 C32.4745153,29.6879283 29.8585956,32.3038342 29.8585956,35.501052 L29.8585956,35.5010658 C29.8585956,35.5794671 29.8612356,35.6572216 29.8641033,35.734891 C29.8526411,35.5748017 29.8526411,35.4831825 29.8526411,35.4831825 L29.8526411,75.6584821 C29.8526411,78.8556998 32.4685611,81.4716057 35.6657789,81.4716057 L45.8527194,81.4716057 L43.3509239,86.8024133 C42.4728821,88.6872867 43.8488884,90.8464173 45.9283541,90.8464173 C47.0341379,90.8464173 48.0396232,90.2052618 48.5061779,89.2027019 L52.1240983,81.471608 L65.2417948,81.471608 L68.9111856,89.0978347 C69.3851008,90.0799013 70.3793474,90.7040296 71.4697359,90.7040296 C73.5633034,90.7040296 74.9376825,88.5164675 74.029071,86.6303444 L71.553516,81.471608 L79.710102,81.471608 L79.6961659,90.4639671 C79.6961659,90.6231702 79.8264173,90.7534217 79.9856618,90.7534217 L82.4464384,90.7673578 C85.3233673,90.7673578 87.6772674,88.4134991 87.6772674,85.5365426 L87.6772674,46.9175073 C87.6772674,40.5835483 79.184599,41.3143989 79.184599,41.3143989 Z" id="Path" fill="#CCCCCC" fill-rule="nonzero"></path>
                <path d="M36.040689,41.3142125 L40.5905934,41.3142125 C40.5905934,41.3142838 40.5905382,41.314339 40.5905382,41.3144081 L36.0473199,41.3144081 C36.0450713,41.3144081 36.0429929,41.3142125 36.040689,41.3142125 Z" id="Path" fill="#CCCCCC" fill-rule="nonzero"></path>
                <g id="Group" transform="translate(27.849206, 18.873016)" fill-rule="nonzero">
                    <path d="M21.8440774,8.95883881 L5.97090437,8.95883881 C2.77368429,8.95883881 0.15777381,11.5747447 0.15777381,14.7719694 L0.15777381,14.7719809 C0.15777381,17.969201 2.5807123,20.5851114 5.77793698,20.5851114 L21.9800529,20.5851114 L21.8440774,8.95883881 Z" id="Path" fill="#073042"></path>
                    <path d="M57.9764456,60.7425185 L15.9170804,60.7425185 L5.96496397,60.7425185 C2.76774389,60.7425185 0.151835168,58.1266126 0.151835168,54.9293879 L0.151835168,54.9293741 L0.151835168,14.7540952 C0.151835168,14.7540952 0.13437127,20.5853025 6.34651651,20.5853025 L49.483814,20.5853025 C49.483814,20.5853025 57.9764456,19.8544633 57.9764456,26.1884155 C57.9764456,33.8622413 57.9764456,61.1907342 57.9764456,60.7425185 Z" id="Path" fill="#4285F4"></path>
                    <path d="M26.8629371,40.2386899 L17.2304904,60.7637391 L23.5019798,60.7637391 L27.9671489,51.2222512 C28.7861894,49.4826033 31.2582576,49.4752429 32.0875264,51.210016 L36.6842957,60.7637391 L42.9959616,60.7637391 L33.0866616,40.1141579 C34.3294957,39.154541 35.134828,37.6544907 35.134828,35.9664398 C35.134828,33.5208906 33.4505563,31.4656444 31.1815595,30.8900796 L31.1821211,30.8090384 L31.1821211,27.4831435 C31.1821211,26.9269212 30.7307983,26.4756375 30.1746174,26.4756375 C29.6184365,26.4756375 29.1670538,26.9269212 29.1670538,27.4831435 L29.1670538,30.7792996 C26.6185637,31.1340064 24.6483912,33.3217503 24.6483912,35.9664398 C24.6483889,37.7289977 25.525365,39.2876694 26.8629371,40.2386899 Z M29.8914692,32.7379504 C31.6744652,32.7379504 33.1200369,34.1834232 33.1200369,35.9664375 C33.1200369,37.7494519 31.6744652,39.1947981 29.8914692,39.1947981 C28.1084687,39.1947981 26.6631225,37.7494496 26.6631225,35.9664375 C26.6631225,34.1834255 28.1084687,32.7379504 29.8914692,32.7379504 Z" id="Shape" fill="#3870B2"></path>
                    <g transform="translate(10.817460, 0.000000)">
                        <rect id="Rectangle" fill="#FFFFFF" x="7.5856727" y="11.8140752" width="22.2536909" height="4.07461968"></rect>
                        <path d="M26.6116475,15.4109176 C25.7770206,15.4109176 25.0981052,14.7315144 25.0981052,13.8968806 C25.0981052,13.0622467 25.7770206,12.3833337 26.6116475,12.3833337 C27.4462951,12.3833337 28.1251897,13.0622444 28.1251897,13.8968806 C28.1251897,14.7315167 27.4462951,15.4109176 26.6116475,15.4109176 M9.8816004,15.4109176 C9.04694587,15.4109176 8.36805817,14.7315144 8.36805817,13.8968806 C8.36805817,13.0622467 9.04694587,12.3833337 9.8816004,12.3833337 C10.716225,12.3833337 11.3951426,13.0622444 11.3951426,13.8968806 C11.3951426,14.7315167 10.716225,15.4109176 9.8816004,15.4109176 M27.1544952,6.29329 L30.1796072,1.05409476 C30.3530272,0.752955079 30.249854,0.368306905 29.9492091,0.194403571 C29.6485666,0.0209904762 29.2634259,0.124154524 29.0895202,0.424799365 L26.0265725,5.73031484 C23.6842885,4.66135183 21.0536456,4.06595651 18.246609,4.06595651 C15.4396046,4.06595651 12.8089617,4.66135183 10.4666708,5.73031484 L7.40372532,0.424799365 C7.22982198,0.124154524 6.84467897,0.0209904762 6.54403643,0.194403571 C6.24338929,0.368306905 6.1397373,0.752955079 6.31364294,1.05409476 L9.33874571,6.29329 C4.14426802,9.11847921 0.591540159,14.3773231 0.0718049206,20.5901795 L36.4214383,20.5901795 C35.9012221,14.3773254 32.3484988,9.11847921 27.1544952,6.29329" id="Shape" fill="#3DDC84"></path>
                    </g>
                    <path d="M52.7456327,31.7442125 L50.3432106,31.7442125 C50.1840144,31.7442125 50.0537629,31.8744708 50.0537629,32.033667 L49.9953671,69.734873 C49.9953671,69.8940761 50.1256185,70.0243275 50.2848216,70.0243275 L52.7456258,70.0382706 C55.6225823,70.0382706 57.976441,67.684405 57.976441,64.8074554 L57.976441,64.7891578 L57.976441,26.8477374 L57.976441,26.5078551 C57.976441,29.3847932 55.6225823,31.7442125 52.7456327,31.7442125 Z" id="Path" fill="#073042"></path>
                    <path d="M28.7808958,32.7848015 C30.5639102,32.7848015 32.0094957,34.2302674 32.0094957,36.0132863 C32.0094957,37.7963053 30.5639102,39.2416515 28.7808958,39.2416515 C26.9978791,39.2416515 25.5525306,37.796303 25.5525306,36.0132863 C25.5525306,34.2302697 26.9978791,32.7848015 28.7808958,32.7848015 Z M30.0715569,30.8558826 L30.0715569,27.5299877 C30.0715569,26.9737654 29.6202087,26.5224886 29.0640371,26.5224886 C28.5078654,26.5224886 28.0565126,26.9737654 28.0565126,27.5299877 L28.0565126,30.8261392 C25.5080156,31.180846 23.5378247,33.3685968 23.5378247,36.013284 C23.5378247,37.7758488 24.4147755,39.3345113 25.7523613,40.2855318 L13.6501228,66.0733261 C12.7720672,67.9582064 14.1480597,70.1173232 16.2275001,70.1173232 C17.3333023,70.1173232 18.3388037,69.4761746 18.8053584,68.4736147 L26.8565732,51.2691092 C27.6756252,49.5294544 30.1476957,49.522094 30.9769507,51.2568602 L39.2103867,68.3687567 C39.6842606,69.3508163 40.6784979,69.9749447 41.7689002,69.9749447 C43.8624885,69.9749447 45.2368468,67.7873826 44.3282722,65.9012525 L31.9760997,40.1610044 C33.2189683,39.2013944 34.0242592,37.7013487 34.0242592,36.013291 C34.0242592,33.5677486 32.340029,31.5125002 30.0710252,30.9369353" id="Shape" fill="#073042"></path>
                </g>
            </g>
        </g>
    </g>
</svg>