<svg xmlns="http://www.w3.org/2000/svg" width="13" height="13" viewBox="0 0 13 13">
  <g fill="#6E6E6E" fill-rule="evenodd" transform="translate(1.629 2)">
    <path fill-rule="nonzero" d="M7.63968242,8.82339522 C6.80121402,9.29496728 5.83700323,9.56742592 4.80991736,9.56742592 C3.78329966,9.56742592 2.81949972,9.30045042 1.98653074,8.82928083 L2.792179,7.43438823 C3.38963919,7.76980447 4.08143519,7.96371699 4.81515823,7.96371699 C5.54819898,7.96371699 6.23939063,7.77016495 6.83647048,7.43532358 L7.63968096,8.82339606 Z M8.52658927,8.19880518 L7.71005871,6.78263499 C8.4845841,6.02807108 8.97117517,4.97020283 8.97117517,3.80245918 L7.896795,3.7972183 C7.896795,4.56067679 7.61505093,5.26152549 7.15047344,5.80605956 L6.11489619,4.01733521 L5.32352348,4.80870792 L6.29832695,6.50151179 C5.85809313,6.7478331 5.34972788,6.88409595 4.80991736,6.88409595 C4.27010683,6.88409595 3.76174158,6.74259222 3.32674864,6.50151179 L4.30155211,4.80870792 L3.5101794,4.01733521 L1.09226956,8.20322074 C-0.159226354,7.14456875 -0.955049385,5.56251789 -0.955049385,3.7972183 C-0.955049385,0.616004838 1.62870389,-1.96774844 4.80991736,-1.96774844 C7.99113082,-1.96774844 10.5748841,0.616004838 10.5748841,3.7972183 C10.5748841,5.56297669 9.77864734,7.14015269 8.52658927,8.19880518 Z M5.8161661,1.65369885 L5.48074985,1.65369885 L5.48074985,0.579318686 L5.48074985,0.574077807 L4.80991736,0.574077807 L4.14432574,0.574077807 L4.14432574,0.579318686 L4.14432574,1.65369885 L3.80366862,1.65369885 C3.47349325,1.65369885 3.20096755,1.92622455 3.20096755,2.25639992 L3.20096755,3.6242693 L3.20620843,3.6242693 C3.20096755,3.67667809 3.23241282,3.73432776 3.30054425,3.80245918 L4.51118726,5.0131022 C4.59504132,5.09695626 4.70509978,5.13888329 4.80991736,5.13888329 L4.80991736,5.13364241 L4.81515823,5.13888329 C4.92521669,5.13888329 5.03527515,5.09695626 5.11388833,5.0131022 L6.32453134,3.80245918 C6.39266277,3.73432776 6.41886716,3.67143721 6.41886716,3.6242693 L6.42410804,3.6242693 L6.42410804,2.2616408 C6.41886716,1.92622455 6.15158234,1.65369885 5.8161661,1.65369885 Z M4.81515823,3.7972183 L4.80991736,3.7972183 C4.36968353,3.7972183 4.00806289,3.43559766 4.00806289,2.99012296 C4.00806289,2.54464826 4.36968353,2.18302762 4.80991736,2.18302762 L4.80991736,2.17254586 L4.81515823,2.18302762 C5.25539206,2.18826849 5.6170127,2.54464826 5.6170127,2.99012296 C5.6170127,3.43559766 5.25539206,3.79197742 4.81515823,3.7972183 Z"/>
    <path d="M7.63968095 8.82339604C7.63978461 8.82333774 7.63988828 8.82327943 7.63999194 8.82322112L8.52570046 8.19955654C8.52599676 8.19930612 8.52629303 8.19905566 8.52658927 8.19880518L9.3852046 9.68796614C9.41140899 9.73513405 9.42713163 9.78230196 9.43237251 9.83471074L9.51098569 10.8042733C9.51098569 10.8409595 9.49526305 10.8724048 9.46381778 10.8933683 9.43237251 10.9090909 9.39568635 10.9090909 9.36424108 10.8881274L8.55714574 10.3378351C8.51521871 10.3116307 8.47853255 10.2749446 8.45232816 10.2277767L7.63968095 8.82339604zM1.98653074 8.82928083L1.17274743 10.2382584C1.14654304 10.2801854 1.10985688 10.3168716 1.06792985 10.3483169L.260834509 10.8933683C.229389236 10.9143318.192703084 10.9195727.161257811 10.8986092.129812538 10.8776456.108849022 10.8462004.114089901 10.8095142L.187462205 9.83471074C.192703084 9.78230196.208425721 9.73513405.234630115 9.68796614L1.09226956 8.20322073C1.09289101 8.20374642 1.09351257 8.20427199 1.09413425 8.20479742L1.98508365 8.828462C1.98556597 8.82873502 1.98604834 8.82900796 1.98653074 8.82928083z"/>
  </g>
</svg>
