<svg width="16" height="16" viewBox="0 0 16 16" fill="none" xmlns="http://www.w3.org/2000/svg"><path d="M6.5.5v3.75a.25.25 0 0 1-.25.25H2.5" stroke="#CED0D6" stroke-linecap="round"/><circle cx="11.5" cy="11.5" r="4" stroke="#CED0D6"/><path fill-rule="evenodd" clip-rule="evenodd" d="M3 4.707L6.707 1H12v5.022c.343.031.678.094 1 .185V1a1 1 0 0 0-1-1H6.604a.75.75 0 0 0-.53.22L2.22 4.073a.75.75 0 0 0-.22.53V14a1 1 0 0 0 1 1h4.257a5.507 5.507 0 0 1-.657-1H3V4.707z" fill="#CED0D6"/><path d="M7.5 11.5h8" stroke="#CED0D6" stroke-linecap="round"/><path d="M8.224 8.615A6.47 6.47 0 0 0 11.5 9.5a6.47 6.47 0 0 0 3.276-.885M14.793 14.395A6.47 6.47 0 0 0 11.5 13.5a6.47 6.47 0 0 0-3.293.895" stroke="#CED0D6"/></svg>