<svg width="16" height="16" viewBox="0 0 16 16" fill="none" xmlns="http://www.w3.org/2000/svg"><path d="M6.5.5v3.75a.25.25 0 0 1-.25.25H2.5" stroke="#6C707E" stroke-linecap="round"/><circle cx="11.5" cy="11.5" r="4" stroke="#6C707E"/><path fill-rule="evenodd" clip-rule="evenodd" d="M3 4.707L6.707 1H12v5.022c.343.031.678.094 1 .185V1a1 1 0 0 0-1-1H6.604a.75.75 0 0 0-.53.22L2.22 4.073a.75.75 0 0 0-.22.53V14a1 1 0 0 0 1 1h4.257a5.507 5.507 0 0 1-.657-1H3V4.707z" fill="#6C707E"/><path fill-rule="evenodd" clip-rule="evenodd" d="M11.5 7a4.5 4.5 0 1 1 0 9 4.5 4.5 0 0 1 0-9zm-1.448 7.55c-.27-.672-.453-1.534-.506-2.488H8.172a3.38 3.38 0 0 0 1.88 2.488zm1.448.272c-.097-.099-.228-.285-.362-.59-.233-.533-.41-1.286-.465-2.17h1.653c-.054.884-.232 1.637-.465 2.17-.133.305-.265.491-.361.59zm-.827-3.884h1.654c-.055-.884-.233-1.637-.466-2.17-.133-.305-.265-.491-.361-.59-.097.099-.228.285-.362.59-.233.533-.41 1.286-.465 2.17zm2.275 3.612c.27-.672.453-1.534.505-2.488h1.375a3.38 3.38 0 0 1-1.88 2.488zm1.88-3.613a3.38 3.38 0 0 0-1.88-2.487c.27.672.453 1.534.505 2.488h1.375zm-5.282 0c.053-.953.235-1.815.506-2.487a3.38 3.38 0 0 0-1.88 2.488h1.374" fill="#6C707E"/></svg>