<svg width="16" height="16" viewBox="0 0 16 16" fill="none" xmlns="http://www.w3.org/2000/svg"><rect x="3.5" y="1.5" width="7" height="10" rx=".5" stroke="#6C707E"/><path fill="#6C707E" d="M4 14h6v1H4zM13 2h1v9h-1z"/><path fill-rule="evenodd" clip-rule="evenodd" d="M13.5 1l-1.32 1.76a.15.15 0 0 0 .12.24h2.4a.15.15 0 0 0 .12-.24L13.5 1zM11 14.5l-1.76-1.32a.15.15 0 0 0-.24.12v2.4a.15.15 0 0 0 .24.12L11 14.5zM3 14.5l1.76-1.32a.15.15 0 0 1 .24.12v2.4a.15.15 0 0 1-.24.12L3 14.5zM13.5 12l-1.32-1.76a.15.15 0 0 1 .12-.24h2.4a.15.15 0 0 1 .12.24L13.5 12z" fill="#6C707E"/></svg>