<svg width="16" height="16" viewBox="0 0 16 16" fill="none" xmlns="http://www.w3.org/2000/svg"><path fill-rule="evenodd" clip-rule="evenodd" d="M5.923 4.21a.5.5 0 1 0 .73.684l1.332-1.42 1.353 1.422a.5.5 0 1 0 .724-.69L8.345 2.403l-.364-.384-.362.386-1.696 1.805zM4.12 10.07a.5.5 0 1 0 .685-.73l-1.42-1.333 1.422-1.352a.5.5 0 0 0-.689-.725L2.313 7.647l-.384.365.386.362L4.12 10.07zm5.899.988a.5.5 0 0 1 .022.707L8.346 13.57l-.362.386-.365-.384-1.717-1.805a.5.5 0 1 1 .725-.69L7.979 12.5l1.333-1.42a.5.5 0 0 1 .707-.022zm1.741-5.13a.5.5 0 1 0-.684.73l1.42 1.332-1.423 1.352a.5.5 0 0 0 .69.725l1.805-1.717.383-.365-.386-.362-1.805-1.695z" fill="#6C707E"/><circle cx="8" cy="8" r="1.25" stroke="#6C707E"/></svg>