<svg width="16" height="16" viewBox="0 0 16 16" fill="none" xmlns="http://www.w3.org/2000/svg"><path d="M9.5 5L8.185 3.553a.25.25 0 0 0-.37 0L6.5 5M5 6.5L3.553 7.815a.25.25 0 0 0 0 .37L5 9.5" stroke="#CED0D6" stroke-linecap="round"/><circle cx="8" cy="8" r="1.25" stroke="#CED0D6"/><circle cx="11.5" cy="13" r="1" fill="#CED0D6"/><path d="M9.002 14.7c-.681-.46-1.203-1.065-1.467-1.7.264-.635.786-1.24 1.467-1.7.737-.496 1.626-.8 2.498-.8.872 0 1.76.304 2.498.8.681.46 1.203 1.065 1.467 1.7-.264.635-.786 1.24-1.467 1.7-.737.496-1.626.8-2.498.8-.872 0-1.76-.304-2.498-.8z" stroke="#CED0D6"/><path fill-rule="evenodd" clip-rule="evenodd" d="M2 2h12v7.63c.352.179.687.391 1 .631V2a1 1 0 0 0-1-1H2a1 1 0 0 0-1 1v12a1 1 0 0 0 1 1h5.19a5.81 5.81 0 0 1-.743-1H2V2zm5.183 9.008c-.232.253-.44.522-.62.804l-.433-.476a.5.5 0 1 1 .74-.672l.313.344zm5.05-1.953a4.983 4.983 0 0 0-1.49.004L11.906 8l-1.243-1.13a.5.5 0 1 1 .672-.74l1.447 1.315a.75.75 0 0 1 0 1.11l-.55.5z" fill="#CED0D6"/></svg>