<svg width="16" height="16" viewBox="0 0 16 16" fill="none" xmlns="http://www.w3.org/2000/svg"><path fill-rule="evenodd" clip-rule="evenodd" d="M5.923 4.21a.5.5 0 1 0 .73.684l1.332-1.42 1.353 1.422a.5.5 0 1 0 .724-.69L8.345 2.403l-.364-.384-.362.386-1.696 1.805zM4.12 10.07a.5.5 0 1 0 .685-.73l-1.42-1.333 1.422-1.352a.5.5 0 0 0-.689-.725L2.313 7.647l-.384.365.386.362L4.12 10.07zm2.886 1.407c-.228.252-.436.52-.62.798l-.484-.508a.5.5 0 1 1 .725-.69l.379.4zm4.047-5.527a.5.5 0 0 1 .707-.022l1.805 1.695.386.362-.383.365-.87.827a5.669 5.669 0 0 0-1.457.005l1.254-1.192-1.42-1.333a.5.5 0 0 1-.022-.707z" fill="#6C707E"/><circle cx="8" cy="8" r="1.25" stroke="#6C707E"/><circle cx="11.5" cy="13" r="1" fill="#6C707E"/><path d="M9.002 14.7c-.681-.46-1.203-1.065-1.467-1.7.264-.635.786-1.24 1.467-1.7.737-.496 1.626-.8 2.498-.8.872 0 1.76.304 2.498.8.681.46 1.203 1.065 1.467 1.7-.264.635-.786 1.24-1.467 1.7-.737.496-1.626.8-2.498.8-.872 0-1.76-.304-2.498-.8z" stroke="#6C707E"/></svg>