<svg width="16" height="16" viewBox="0 0 16 16" fill="none" xmlns="http://www.w3.org/2000/svg"><path d="M6.5.5v3.75a.25.25 0 0 1-.25.25H2.5" stroke="#6C707E" stroke-linecap="round"/><circle cx="7" cy="9.5" r="1.5" stroke="#6C707E"/><circle cx="14" cy="14" r="1.5" stroke="#6C707E"/><circle cx="14" cy="5" r="1.5" stroke="#6C707E"/><path d="M14 12.5v-6M12.694 13.16l-4.375-2.812M12.694 5.84L8.319 8.652" stroke="#6C707E" stroke-linecap="round"/><path fill-rule="evenodd" clip-rule="evenodd" d="M3 4.707L6.707 1H12v1.764a2.998 2.998 0 0 1 1-.593V1a1 1 0 0 0-1-1H6.604a.75.75 0 0 0-.53.22L2.22 4.073a.75.75 0 0 0-.22.53V14a1 1 0 0 0 1 1h8.17c-.11-.313-.17-.65-.17-1H3V4.707z" fill="#6C707E"/></svg>