<svg width="16" height="16" viewBox="0 0 16 16" fill="none" xmlns="http://www.w3.org/2000/svg"><path d="M6.5.5v3.75a.25.25 0 0 1-.25.25H2.5" stroke="#6C707E" stroke-linecap="round"/><path fill-rule="evenodd" clip-rule="evenodd" d="M3 4.707L6.707 1H12v4.5c.29-.219.63-.375 1-.45V1a1 1 0 0 0-1-1H6.604a.75.75 0 0 0-.53.22L2.22 4.073a.75.75 0 0 0-.22.53V14a1 1 0 0 0 1 1h3.05a3.51 3.51 0 0 1-.713-1H3V4.707z" fill="#6C707E"/><path fill-rule="evenodd" clip-rule="evenodd" d="M9.75 6.25c0 .463-.251.867-.625 1.083v2.746c.23.059.446.15.645.267l2.522-2.522A1.252 1.252 0 0 1 13.5 6.25a1.25 1.25 0 1 1-.324 2.458l-2.522 2.522c.117.199.208.416.267.645h2.746a1.25 1.25 0 1 1 0 1.25h-2.746a2.5 2.5 0 1 1-3.046-3.046V7.333A1.25 1.25 0 1 1 9.75 6.25zm-1.25 7.5a1.25 1.25 0 1 0 0-2.5 1.25 1.25 0 0 0 0 2.5z" fill="#6C707E"/></svg>