<svg width="16" height="16" viewBox="0 0 16 16" fill="none" xmlns="http://www.w3.org/2000/svg"><mask id="a" fill="#fff"><path fill-rule="evenodd" clip-rule="evenodd" d="M14.447 9.125a5.5 5.5 0 0 1-7.572-7.572 6.5 6.5 0 1 0 7.572 7.572z"/></mask><path d="M14.447 9.125l.983.18.406-2.218-1.916 1.188.527.85zM6.875 1.553l.85.527L8.913.163 6.695.57l.18.983zm7.045 6.722a4.474 4.474 0 0 1-2.367.672v2a6.474 6.474 0 0 0 3.42-.972l-1.053-1.7zm-2.367.672a4.5 4.5 0 0 1-4.5-4.5h-2a6.5 6.5 0 0 0 6.5 6.5v-2zm-4.5-4.5c0-.87.246-1.68.672-2.367l-1.7-1.054a6.474 6.474 0 0 0-.972 3.42h2zm-4.5 3.5c0-2.696 1.941-4.941 4.502-5.41L6.695.57A7.502 7.502 0 0 0 .553 7.947h2zm5.5 5.5a5.5 5.5 0 0 1-5.5-5.5h-2a7.5 7.5 0 0 0 7.5 7.5v-2zm5.41-4.502a5.502 5.502 0 0 1-5.41 4.502v2a7.502 7.502 0 0 0 7.377-6.142l-1.967-.36z" fill="#6C707E" mask="url(#a)"/></svg>