<svg width="16" height="16" viewBox="0 0 16 16" fill="none" xmlns="http://www.w3.org/2000/svg"><mask id="a" fill="#fff"><path fill-rule="evenodd" clip-rule="evenodd" d="M14.82 9.178a5.5 5.5 0 0 1-7.572-7.572A6.502 6.502 0 0 0 8.429 14.5a6.502 6.502 0 0 0 6.393-5.322z"/></mask><path d="M14.82 9.178l.984.18.406-2.218-1.916 1.188.527.85zM7.25 1.607l.85.526L9.287.217 7.069.623l.18.984zm7.045 6.721A4.474 4.474 0 0 1 11.927 9v2a6.475 6.475 0 0 0 3.42-.972l-1.053-1.7zM11.927 9a4.5 4.5 0 0 1-4.5-4.5h-2a6.5 6.5 0 0 0 6.5 6.5V9zm-4.5-4.5c0-.87.246-1.68.672-2.367l-1.7-1.053a6.474 6.474 0 0 0-.972 3.42h2zM2.927 8c0-2.696 1.941-4.94 4.502-5.41L7.07.623A7.502 7.502 0 0 0 .927 8h2zm5.5 5.5a5.5 5.5 0 0 1-5.5-5.5h-2a7.5 7.5 0 0 0 7.5 7.5v-2zm5.41-4.502a5.502 5.502 0 0 1-5.41 4.502v2a7.502 7.502 0 0 0 7.377-6.142l-1.967-.36z" fill="#CED0D6" mask="url(#a)"/></svg>