<svg width="16" height="16" viewBox="0 0 16 16" fill="none" xmlns="http://www.w3.org/2000/svg">
  <circle cx="12.5" cy="12.5" r="0.5" fill="#6C707E"/>
  <path fill-rule="evenodd" clip-rule="evenodd"
        d="M12.5 14C13.3284 14 14 13.3284 14 12.5C14 11.6716 13.3284 11 12.5 11C11.6716 11 11 11.6716 11 12.5C11 13.3284 11.6716 14 12.5 14ZM12.5 15C13.8807 15 15 13.8807 15 12.5C15 11.1193 13.8807 10 12.5 10C11.1193 10 10 11.1193 10 12.5C10 13.8807 11.1193 15 12.5 15Z"
        fill="#6C707E"/>
  <path fill-rule="evenodd" clip-rule="evenodd"
        d="M6 10C8.20914 10 10 8.20914 10 6C10 3.79086 8.20914 2 6 2C3.79086 2 2 3.79086 2 6C2 8.20914 3.79086 10 6 10ZM6 11C8.76142 11 11 8.76142 11 6C11 3.23858 8.76142 1 6 1C3.23858 1 1 3.23858 1 6C1 8.76142 3.23858 11 6 11Z"
        fill="#6C707E"/>
  <path fill-rule="evenodd" clip-rule="evenodd" d="M5 11.9171C5.32521 11.9716 5.65929 12 6 12V15H5V11.9171Z" fill="#6C707E"/>
  <path fill-rule="evenodd" clip-rule="evenodd" d="M12 6H15V5H11.917C11.9716 5.32521 12 5.65929 12 6Z" fill="#6C707E"/>
  <path fill-rule="evenodd" clip-rule="evenodd"
        d="M6 9V8.5C6 7.11929 7.11929 6 8.5 6H9C9 5.64936 8.93985 5.31278 8.82929 5H8.5C6.567 5 5 6.567 5 8.5V8.82929C5.31278 8.93985 5.64936 9 6 9Z"
        fill="#6C707E"/>
</svg>
