<svg width="16" height="16" viewBox="0 0 16 16" fill="none" xmlns="http://www.w3.org/2000/svg"><rect x="2.5" y="1.5" width="11" height="13" rx="1.5" stroke="#6C707E"/><path d="M8 3.5v9M4.5 8h7" stroke="#6C707E" stroke-linecap="round"/><path fill-rule="evenodd" clip-rule="evenodd" d="M6.146 3.946a.5.5 0 0 0 .729.684l1.118-1.19 1.134 1.193a.5.5 0 1 0 .725-.69l-1.5-1.576-.364-.383-.362.385-1.48 1.577zm3.708 8.108a.5.5 0 0 0-.729-.684l-1.118 1.19-1.134-1.193a.5.5 0 1 0-.725.69l1.5 1.576.364.383.362-.386 1.48-1.576zm.493-5.886a.5.5 0 0 1 .707-.022l1.576 1.48.386.362-.383.365-1.577 1.5a.5.5 0 1 1-.689-.726l1.193-1.134-1.19-1.118a.5.5 0 0 1-.023-.707zM4.946 9.854a.5.5 0 1 0 .684-.729L4.44 8.007l1.193-1.134a.5.5 0 1 0-.69-.725l-1.576 1.5-.383.364.385.362 1.577 1.48z" fill="#6C707E"/></svg>