<svg width="16" height="16" viewBox="0 0 16 16" fill="none" xmlns="http://www.w3.org/2000/svg"><path fill-rule="evenodd" clip-rule="evenodd" d="M11.38 4.433a.5.5 0 1 1 .866.5l-1.122 1.943a5.999 5.999 0 0 1 2.855 4.624.47.47 0 0 1-.479.5.541.541 0 0 1-.525-.5 5 5 0 0 0-9.95 0 .541.541 0 0 1-.525.5.47.47 0 0 1-.48-.5 5.999 5.999 0 0 1 2.853-4.622L3.75 4.933a.5.5 0 0 1 .866-.5l1.152 1.996A5.984 5.984 0 0 1 8 6c.787 0 1.54.152 2.229.427l1.151-1.994z" fill="#6C707E"/><path d="M2.5 11.5h11" stroke="#6C707E"/><rect x="5" y="9" width="1" height="1" rx=".5" fill="#6C707E"/><rect x="10" y="9" width="1" height="1" rx=".5" fill="#6C707E"/></svg>