<!--
  - Copyright (C) 2025 The Android Open Source Project
  -
  - Licensed under the Apache License, Version 2.0 (the "License");
  - you may not use this file except in compliance with the License.
  - You may obtain a copy of the License at
  -
  -      http://www.apache.org/licenses/LICENSE-2.0
  -
  - Unless required by applicable law or agreed to in writing, software
  - distributed under the License is distributed on an "AS IS" BASIS,
  - WITHOUT WARRANTIES OR CONDITIONS OF ANY KIND, either express or implied.
  - See the License for the specific language governing permissions and
  - limitations under the License.
  -->
<svg width="16" height="16" viewBox="0 0 16 16" fill="none" xmlns="http://www.w3.org/2000/svg"><path fill-rule="evenodd" clip-rule="evenodd" d="M11 10a1 1 0 00-1 1v2H4a1 1 0 01-1-1V4a1 1 0 011-1h8a1 1 0 011 1v6h-2zm1.5 2.5l1.207-1.207a1 1 0 00.293-.707V4a2 2 0 00-2-2H4a2 2 0 00-2 2v8a2 2 0 002 2h6.586a1 1 0 00.707-.293L12.5 12.5zM5.5 5a.5.5 0 000 1h5a.5.5 0 000-1h-5zM5 7.5a.5.5 0 01.5-.5h5a.5.5 0 010 1h-5a.5.5 0 01-.5-.5zM5.5 9a.5.5 0 000 1h3a.5.5 0 000-1h-3z" fill="#6C707E"/></svg>