<svg width="16" height="16" viewBox="0 0 16 16" fill="none" xmlns="http://www.w3.org/2000/svg"><mask id="a" fill="#fff"><path fill-rule="evenodd" clip-rule="evenodd" d="M5.964 4.66a.5.5 0 0 0-.928 0L4.07 7.072l-2.41.965a.5.5 0 0 0 0 .928l2.41.965.965 2.41a.5.5 0 0 0 .928 0l.965-2.41 2.41-.965a.5.5 0 0 0 0-.928L6.93 7.07l-.965-2.41z"/></mask><path d="M5.036 4.66l-.929-.37.929.37zm.928 0l.929-.37-.929.37zM4.071 7.072L4.443 8l.398-.16L5 7.444 4.07 7.07zm-2.41.965l-.372-.929.372.929zm0 .928l-.372.929.372-.929zm2.41.965L5 9.557l-.16-.398L4.444 9l-.372.929zm.965 2.41l.928-.371-.928.371zm.928 0l.929.372-.929-.372zm.965-2.41L6.557 9l-.398.16L6 9.556l.929.372zm2.41-.965l-.371-.928.371.928zm0-.928l.372-.929-.372.929zM6.93 7.07L6 7.443l.16.398.397.159.372-.929zm-.965-2.039a.5.5 0 0 1-.928 0l1.857-.743c-.503-1.257-2.283-1.257-2.786 0l1.857.743zM5 7.442l.964-2.41-1.857-.743L3.143 6.7 5 7.443zM2.032 8.965L4.442 8 3.7 6.143l-2.41.964.742 1.857zm0-.928a.5.5 0 0 1 0 .928l-.743-1.857C.032 7.61.032 9.39 1.29 9.893l.743-1.857zM4.442 9l-2.41-.964-.743 1.857 2.411.964L4.443 9zm1.522 2.968L5 9.558l-1.857.742.964 2.41 1.857-.742zm-.928 0a.5.5 0 0 1 .928 0l-1.857.743c.503 1.257 2.283 1.257 2.786 0l-1.857-.743zM6 9.558l-.964 2.41 1.857.743.964-2.411L6 9.557zm2.968-1.522L6.558 9l.742 1.857 2.41-.964-.742-1.857zm0 .928a.5.5 0 0 1 0-.928l.743 1.857c1.257-.503 1.257-2.283 0-2.786l-.743 1.857zM6.558 8l2.41.964.743-1.857L7.3 6.143 6.557 8zM5.035 5.032L6 7.442 7.857 6.7l-.964-2.41-1.857.742z" fill="#6C707E" mask="url(#a)"/><path fill-rule="evenodd" clip-rule="evenodd" d="M12.737 2.212a.25.25 0 0 0-.474 0L11.75 3.75l-1.539.513a.25.25 0 0 0 0 .474l1.539.513.513 1.538a.25.25 0 0 0 .474 0l.513-1.538 1.539-.513a.25.25 0 0 0 0-.474L13.25 3.75l-.513-1.538zM12.737 10.211a.25.25 0 0 0-.474 0l-.513 1.539-1.539.513a.25.25 0 0 0 0 .474l1.539.513.513 1.539a.25.25 0 0 0 .474 0l.513-1.539 1.539-.513a.25.25 0 0 0 0-.474l-1.539-.513-.513-1.539z" fill="#6C707E"/></svg>