<svg width="16" height="16" viewBox="0 0 16 16" fill="none" xmlns="http://www.w3.org/2000/svg"><path d="M7 13.917A6.002 6.002 0 0 1 8 2c1.777 0 3.374.772 4.472 2h1.273A7 7 0 1 0 7 14.93v-1.013z" fill="#AFB1B3"/><path d="M16 7.52v6.647A1.839 1.839 0 0 1 14.167 16H10.82a1.83 1.83 0 0 1-1.306-.545l-3.598-3.658s.577-.564.596-.573a.56.56 0 0 1 .637-.06c.018.005 1.975 1.128 1.975 1.128V6.833a.687.687 0 1 1 1.375 0v3.209h.458V5.688a.687.687 0 1 1 1.375 0v4.354h.459V6.146a.687.687 0 1 1 1.375 0v3.896h.458V7.52a.687.687 0 1 1 1.375 0z" fill="#AFB1B3"/></svg>