<svg width="16" height="16" viewBox="0 0 16 16" fill="none" xmlns="http://www.w3.org/2000/svg">
<path fill="#6E6E6E" d="M7.99999 4.66666C6.34666 4.66666 4.99999 6.01333 4.99999 7.66666C4.99999 9.32 6.34666 10.6667 7.99999 10.6667C9.65332 10.6667 11 9.32 11 7.66666C11 6.01333 9.65332 4.66666 7.99999 4.66666ZM7.99999 9.46666C7.00666 9.46666 6.19999 8.66 6.19999 7.66666C6.19999 6.67333 7.00666 5.86666 7.99999 5.86666C8.99332 5.86666 9.79999 6.67333 9.79999 7.66666C9.79999 8.66 8.99332 9.46666 7.99999 9.46666ZM7.99999 2.66666C4.66666 2.66666 1.81999 4.74 0.666656 7.66666C1.81999 10.5933 4.66666 12.6667 7.99999 12.6667C11.3333 12.6667 14.18 10.5933 15.3333 7.66666C14.18 4.74 11.3333 2.66666 7.99999 2.66666ZM7.99999 11.3333C5.47332 11.3333 3.21999 9.91333 2.11999 7.66666C3.21999 5.42 5.47332 4 7.99999 4C10.5267 4 12.78 5.42 13.88 7.66666C12.78 9.91333 10.5267 11.3333 7.99999 11.3333Z"/>
</svg>
