<svg width="16" height="16" viewBox="0 0 16 16" fill="none" xmlns="http://www.w3.org/2000/svg"><path d="M12.68 6.756l-.32.384.32-.384zm0 .769l.32.384-.32-.384zM7.55 2.482l-.32.384.32-.384zm-.41.192h.5-.5zm0 2.967h.5v.5h-.5v-.5zm-5.5 0v-.5.5zm-.5.5h-.5.5zm0 2h.5-.5zm.5.5v-.5.5zm5.5 0v-.5h.5v.5h-.5zm0 2.966h.5-.5zm.41.192l.32.384-.32-.384zM13 6.372a1 1 0 0 1 0 1.537l-.64-.769.64-.768zM7.87 2.098L13 6.372l-.64.768-5.13-4.274.64-.768zm-1.23.576a.75.75 0 0 1 1.23-.576l-.64.768a.25.25 0 0 0 .41-.192h-1zm0 2.967V2.674h1v2.967h-1zm.5.5h-5.5v-1h5.5v1zm-5.5 0h-1a1 1 0 0 1 1-1v1zm0 0v2h-1v-2h1zm0 2v1a1 1 0 0 1-1-1h1zm0 0h5.5v1h-5.5v-1zm5 3.466V8.64h1v2.966h-1zm1.23.576a.75.75 0 0 1-1.23-.576h1a.25.25 0 0 0-.41-.192l.64.768zM13 7.909l-5.13 4.274-.64-.768 5.13-4.275.64.769z" fill="#6C707E"/><rect x="12" y="10" width="1" height="5" rx=".5" fill="#508453"/><path d="M10 12.5a.5.5 0 0 1 .5-.5h4a.5.5 0 0 1 0 1h-4a.5.5 0 0 1-.5-.5z" fill="#508453"/></svg>