<svg width="16" height="16" viewBox="0 0 16 16" fill="none" xmlns="http://www.w3.org/2000/svg"><path fill-rule="evenodd" clip-rule="evenodd" d="M11.802 7.667a.619.619 0 0 0-.106.333v.5a.5.5 0 1 1-1 0V8c0-.247.07-.606.295-.917.242-.337.643-.583 1.205-.583.563 0 .963.246 1.206.583.225.311.294.67.294.917v1a.5.5 0 1 1-1 0V8a.619.619 0 0 0-.105-.333c-.058-.08-.157-.167-.395-.167-.237 0-.336.088-.394.167z" fill="#CED0D6"/><path fill-rule="evenodd" clip-rule="evenodd" d="M9.802 6.817a.62.62 0 0 0-.106.333v.5a.5.5 0 1 1-1 0v-.5c0-.247.07-.606.295-.917.242-.337.642-.583 1.205-.583.563 0 .963.246 1.206.583.225.311.294.67.294.917v1a.5.5 0 1 1-1 0v-1a.619.619 0 0 0-.105-.333c-.058-.08-.157-.167-.395-.167-.237 0-.337.088-.394.167z" fill="#CED0D6"/><path fill-rule="evenodd" clip-rule="evenodd" d="M7.802 6.667A.62.62 0 0 0 7.696 7v.5a.5.5 0 0 1-1 0V7c0-.247.07-.606.295-.917.242-.337.642-.583 1.205-.583.563 0 .963.246 1.206.583.225.311.294.67.294.917v1a.5.5 0 0 1-1 0V7a.62.62 0 0 0-.105-.333c-.058-.08-.158-.167-.395-.167-.237 0-.337.088-.394.167z" fill="#CED0D6"/><path fill-rule="evenodd" clip-rule="evenodd" d="M5.802 3.167a.62.62 0 0 0-.106.333v3a.5.5 0 0 1-1 0v-3c0-.247.07-.606.295-.917C5.233 2.246 5.633 2 6.196 2c.563 0 .963.246 1.206.583.225.311.294.67.294.917v4a.5.5 0 0 1-1 0v-4a.62.62 0 0 0-.105-.333C6.533 3.087 6.433 3 6.196 3c-.237 0-.337.088-.394.167z" fill="#CED0D6"/><rect x="10.7" y="10" width="1" height="5" rx=".5" fill="#508453"/><path d="M8.6 12.5a.5.5 0 0 1 .5-.5h4a.5.5 0 0 1 0 1h-4a.5.5 0 0 1-.5-.5z" fill="#508453"/><path fill-rule="evenodd" clip-rule="evenodd" d="M7 4.834A2 2 0 1 0 5 4.6v1.15a3 3 0 1 1 2 .142V4.834z" fill="#CED0D6"/><path fill-rule="evenodd" clip-rule="evenodd" d="M5.696 5.5a.5.5 0 0 0-1 0v3.691l-.993-.57a1.559 1.559 0 0 0-1.8 2.497l3.061 2.857A3.5 3.5 0 0 0 7.44 15H9.5v-1H7.439a2.5 2.5 0 0 1-1.768-.732l-3.06-2.857a.559.559 0 0 1 .645-.895l1.644.895a.55.55 0 0 0 .796-.492V5.5zm7 5.5h1V8a.5.5 0 0 0-1 0v3z" fill="#CED0D6"/></svg>