<svg width="16" height="16" viewBox="0 0 16 16" fill="none" xmlns="http://www.w3.org/2000/svg"><path d="M11.475 4.904l.707-.707a1 1 0 1 1 1.414 1.414l-.707.707-1.414-1.414z" fill="#CED0D6"/><path d="M6 1.5h4M8 5.5V9" stroke="#CED0D6" stroke-linecap="round"/><rect x="11" y="10" width="1" height="5" rx=".5" fill="#508453"/><path d="M9 12.5a.5.5 0 0 1 .5-.5h4a.5.5 0 0 1 0 1h-4a.5.5 0 0 1-.5-.5z" fill="#508453"/><path fill-rule="evenodd" clip-rule="evenodd" d="M9 13.9a5 5 0 1 1 3.9-3.9h1.017A6 6 0 1 0 9 14.917V13.9z" fill="#CED0D6"/></svg>