<svg width="16" height="16" viewBox="0 0 16 16" fill="none" xmlns="http://www.w3.org/2000/svg"><g clip-path="url(#clip0_235_46)"><path fill-rule="evenodd" clip-rule="evenodd" d="M8.83 5A3 3 0 1 0 4 6.236v1.229A4 4 0 1 1 9.874 5H8.829z" fill="#CED0D6"/><path fill-rule="evenodd" clip-rule="evenodd" d="M6.106 4.167A.62.62 0 0 0 6 4.5V10.919a.55.55 0 0 1-.797.492l-1.644-.895a.559.559 0 0 0-.645.895l3.06 2.857A2.5 2.5 0 0 0 7.742 15H10v1H7.742a3.5 3.5 0 0 1-2.475-1.025l-3.06-2.857a1.559 1.559 0 0 1 1.799-2.496l.993.569V6.5L5 6.472V4.5c0-.247.07-.606.294-.917C5.537 3.246 5.937 3 6.5 3s.963.246 1.206.583c.224.311.294.67.294.917v2.073c.15-.047.316-.073.5-.073.477 0 .838.177 1.084.436.233-.175.538-.286.916-.286.563 0 .963.246 1.206.583.087.12.15.25.196.375A1.61 1.61 0 0 1 12.5 7.5c.563 0 .963.246 1.206.583.224.311.294.67.294.917v1h-1V8.982a.62.62 0 0 0-.106-.315c-.057-.08-.157-.167-.394-.167-.237 0-.337.088-.394.167A.619.619 0 0 0 12 9v.5a.5.5 0 0 1-1 0V8.15a.619.619 0 0 0-.106-.333c-.057-.08-.157-.167-.394-.167-.237 0-.337.088-.394.167A.619.619 0 0 0 10 8.15V9a.5.5 0 0 1-1 0V8a.62.62 0 0 0-.106-.333c-.057-.08-.157-.167-.394-.167-.237 0-.337.088-.394.167A.62.62 0 0 0 8 8v.5a.5.5 0 0 1-1 0v-4a.62.62 0 0 0-.106-.333C6.837 4.087 6.737 4 6.5 4c-.237 0-.337.088-.394.167z" fill="#CED0D6"/><rect x="13" y="11" width="1" height="5" rx=".5" fill="#57965C"/><path d="M11 13.5a.5.5 0 0 1 .5-.5h4a.5.5 0 0 1 0 1h-4a.5.5 0 0 1-.5-.5z" fill="#57965C"/></g><defs><clipPath id="clip0_235_46"><path fill="#fff" d="M0 0h16v16H0z"/></clipPath></defs></svg>