<svg width="16" height="16" viewBox="0 0 16 16" fill="none" xmlns="http://www.w3.org/2000/svg"><g clip-path="url(#clip0_235_45)"><rect x="13" y="11" width="1" height="5" rx=".5" fill="#57965C"/><path d="M11 13.5a.5.5 0 0 1 .5-.5h4a.5.5 0 0 1 0 1h-4a.5.5 0 0 1-.5-.5z" fill="#57965C"/><path fill-rule="evenodd" clip-rule="evenodd" d="M9 10V9H2V7h7V3.414L13.586 8l-2 2H13l1.293-1.293a1 1 0 0 0 0-1.414L9.707 2.707C9.077 2.077 8 2.523 8 3.414V6H2a1 1 0 0 0-1 1v2a1 1 0 0 0 1 1h6V12.586c0 .89 1.077 1.337 1.707.707L10 13v-1.414l-1 1V10z" fill="#CED0D6"/></g><defs><clipPath id="clip0_235_45"><path fill="#fff" d="M0 0h16v16H0z"/></clipPath></defs></svg>