<svg width="16" height="16" viewBox="0 0 16 16" fill="none" xmlns="http://www.w3.org/2000/svg"><g clip-path="url(#clip0_235_61)"><path d="M11.475 4.904l.707-.707a1 1 0 1 1 1.414 1.414l-.707.707-1.414-1.414z" fill="#CED0D6"/><path d="M6 1.5h4M8 5.5V9" stroke="#CED0D6" stroke-linecap="round"/><rect x="13" y="11" width="1" height="5" rx=".5" fill="#57965C"/><path d="M11 13.5a.5.5 0 0 1 .5-.5h4a.5.5 0 0 1 0 1h-4a.5.5 0 0 1-.5-.5z" fill="#57965C"/><path fill-rule="evenodd" clip-rule="evenodd" d="M10 13.584A5 5 0 1 1 12.9 10h1.017A6 6 0 1 0 10 14.659v-1.075z" fill="#CED0D6"/></g><defs><clipPath id="clip0_235_61"><path fill="#fff" d="M0 0h16v16H0z"/></clipPath></defs></svg>