<svg width="16" height="16" viewBox="0 0 16 16" fill="none" xmlns="http://www.w3.org/2000/svg"><path d="M11.475 4.904l.707-.707a1 1 0 1 1 1.414 1.414l-.707.707-1.414-1.414z" fill="#6C707E"/><path d="M6 1.5h4M8 5.5V9" stroke="#6C707E" stroke-linecap="round"/><rect x="13" y="11" width="1" height="5" rx=".5" fill="#208A3C"/><path d="M11 13.5a.5.5 0 0 1 .5-.5h4a.5.5 0 0 1 0 1h-4a.5.5 0 0 1-.5-.5z" fill="#208A3C"/><path fill-rule="evenodd" clip-rule="evenodd" d="M10 13.584A5 5 0 1 1 12.9 10h1.017A6 6 0 1 0 10 14.659v-1.075z" fill="#6C707E"/></svg>