<svg width="16" height="16" viewBox="0 0 16 16" fill="none" xmlns="http://www.w3.org/2000/svg"><path fill-rule="evenodd" clip-rule="evenodd" d="M13 .5a2.5 2.5 0 0 1 2.45 3 3.507 3.507 0 0 0-.96-.668 1.5 1.5 0 0 0-2.98 0c-.358.169-.681.395-.96.669V3.5H10a1.5 1.5 0 0 0-1.49 1.332c-.38.179-.72.423-1.01.719V5A2.5 2.5 0 0 1 10 2.5h.55A2.5 2.5 0 0 1 13 .5zM6.5 8.415A1.498 1.498 0 0 1 6 8.5h-.55a2.5 2.5 0 0 0-4.9 1c.279-.273.602-.5.96-.668a1.5 1.5 0 0 1 2.98 0c.358.169.681.395.96.669V9.5H6c.171 0 .338-.017.5-.05V8.415zM5 10.5a2.513 2.513 0 0 0-.752-.667 1.499 1.499 0 0 1-2.496 0c-.293.17-.55.397-.752.667.203.27.459.497.752.667a1.499 1.499 0 0 1 2.496 0c.293-.17.55-.397.752-.667zm10-6a2.512 2.512 0 0 0-.752-.667 1.499 1.499 0 0 1-2.496 0c-.293.17-.55.397-.752.667.203.27.459.497.752.667A1.508 1.508 0 0 1 13 4.5c.52 0 .979.265 1.248.667.293-.17.55-.397.752-.667zM8.5 6v1c0 .818-.393 1.544-1 2V8c0-.818.393-1.544 1-2z" fill="#CED0D6"/><path clip-rule="evenodd" d="M3 14a2 2 0 1 1 0-4 2 2 0 0 1 0 4zM13 8a2 2 0 1 1 0-4 2 2 0 0 1 0 4z" stroke="#CED0D6"/><path d="M11 6h-1a2 2 0 0 0-2 2v2a2 2 0 0 1-2 2H5" stroke="#CED0D6"/></svg>