<svg width="16" height="16" viewBox="0 0 16 16" fill="none" xmlns="http://www.w3.org/2000/svg"><g clip-path="url(#clip0_235_37)" fill-rule="evenodd" clip-rule="evenodd" fill="#6C707E"><path d="M12.106 8.667A.619.619 0 0 0 12 9v.5a.5.5 0 0 1-1 0V9c0-.247.07-.606.294-.917.243-.337.643-.583 1.206-.583s.963.246 1.206.583c.224.311.294.67.294.917v1a.5.5 0 0 1-1 0V9a.619.619 0 0 0-.106-.333c-.057-.08-.157-.167-.394-.167-.237 0-.337.088-.394.167z"/><path d="M10.106 7.817A.619.619 0 0 0 10 8.15v.5a.5.5 0 1 1-1 0v-.5c0-.247.07-.606.294-.917.243-.337.643-.583 1.206-.583s.963.246 1.206.583c.224.311.294.67.294.917v1a.5.5 0 0 1-1 0v-1a.619.619 0 0 0-.106-.333c-.057-.08-.157-.167-.394-.167-.237 0-.337.088-.394.167z"/><path d="M8.106 7.667A.62.62 0 0 0 8 8v.5a.5.5 0 0 1-1 0V8c0-.247.07-.606.294-.917.243-.337.643-.583 1.206-.583s.963.246 1.206.583c.224.311.294.67.294.917v1a.5.5 0 0 1-1 0V8a.62.62 0 0 0-.106-.333c-.057-.08-.157-.167-.394-.167-.237 0-.337.088-.394.167z"/><path d="M6.106 4.167A.62.62 0 0 0 6 4.5v3a.5.5 0 0 1-1 0v-3c0-.247.07-.606.294-.917C5.537 3.246 5.937 3 6.5 3s.963.246 1.206.583c.224.311.294.67.294.917v4a.5.5 0 0 1-1 0v-4a.62.62 0 0 0-.106-.333C6.837 4.087 6.737 4 6.5 4c-.237 0-.337.088-.394.167z"/><path d="M8.83 5A3 3 0 1 0 4 6.236v1.229A4 4 0 1 1 9.874 5H8.829z"/><path d="M5.5 6a.5.5 0 0 1 .5.5v4.42a.55.55 0 0 1-.797.491l-1.644-.895a.559.559 0 0 0-.645.895l3.06 2.857A2.5 2.5 0 0 0 7.742 15h2.757a2.5 2.5 0 0 0 2.5-2.5V9a.5.5 0 0 1 1 0v3.5a3.5 3.5 0 0 1-3.5 3.5H7.742a3.5 3.5 0 0 1-2.475-1.025l-3.06-2.857a1.559 1.559 0 0 1 1.799-2.496l.993.569V6.5a.5.5 0 0 1 .5-.5z"/></g><defs><clipPath id="clip0_235_37"><path fill="#fff" d="M0 0h16v16H0z"/></clipPath></defs></svg>