<svg width="16" height="16" viewBox="0 0 16 16" fill="none" xmlns="http://www.w3.org/2000/svg"><circle cx="10" cy="6" r="4.5" stroke="#6C707E"/><mask id="a" fill="#fff"><path fill-rule="evenodd" clip-rule="evenodd" d="M2.108 6.86a5 5 0 0 0 7.031 7.031 6.03 6.03 0 0 1-2.242.008 4 4 0 0 1-4.796-4.796 6.033 6.033 0 0 1 .007-2.242z"/></mask><path fill-rule="evenodd" clip-rule="evenodd" d="M2.108 6.86a5 5 0 0 0 7.031 7.031 6.03 6.03 0 0 1-2.242.008 4 4 0 0 1-4.796-4.796 6.033 6.033 0 0 1 .007-2.242z" fill="#6C707E"/><path d="M2.108 6.86l.982.19-1.76-.817.778.628zm7.031 7.032l.628.778-.817-1.76.19.982zm-2.242.007l.183-.983-.204-.038-.202.046.223.975zM2.101 9.103l.975.223.046-.202-.038-.204-.983.183zm-.771-2.87A5.98 5.98 0 0 0 0 10h2c0-.952.331-1.824.886-2.51L1.33 6.232zM0 10a6 6 0 0 0 6 6v-2a4 4 0 0 1-4-4H0zm6 6a5.98 5.98 0 0 0 3.767-1.33l-1.256-1.556A3.979 3.979 0 0 1 6 14v2zm2.95-3.09A5.03 5.03 0 0 1 8 13v2c.453 0 .897-.043 1.328-.126L8.95 12.91zM8 13c-.315 0-.622-.029-.92-.084l-.365 1.966C7.132 14.96 7.562 15 8 15v-2zm-2 2c.384 0 .76-.043 1.12-.126l-.446-1.95A3.01 3.01 0 0 1 6 13v2zm-5-5a5 5 0 0 0 5 5v-2a3 3 0 0 1-3-3H1zm.126-1.12A5.013 5.013 0 0 0 1 10h2c0-.233.026-.458.076-.674l-1.95-.447zm1.958.04A5.034 5.034 0 0 1 3 8H1c0 .438.04.868.118 1.285l1.966-.365zM3 8c0-.326.031-.643.09-.95l-1.964-.378C1.043 7.102 1 7.547 1 8h2z" fill="#6C707E" mask="url(#a)"/><mask id="b" fill="#fff"><path fill-rule="evenodd" clip-rule="evenodd" d="M4.108 4.86a5 5 0 0 0 7.031 7.031 6.03 6.03 0 0 1-2.242.008 4 4 0 0 1-4.796-4.796 6.033 6.033 0 0 1 .007-2.242z"/></mask><path fill-rule="evenodd" clip-rule="evenodd" d="M4.108 4.86a5 5 0 0 0 7.031 7.031 6.03 6.03 0 0 1-2.242.008 4 4 0 0 1-4.796-4.796 6.033 6.033 0 0 1 .007-2.242z" fill="#6C707E"/><path d="M4.108 4.86l.982.19-1.76-.817.778.628zm7.031 7.032l.628.778-.817-1.76.19.982zm-2.242.007l.183-.983-.204-.038-.202.046.223.975zM4.101 7.103l.975.223.046-.202-.038-.204-.983.183zm-.771-2.87A5.98 5.98 0 0 0 2 8h2c0-.952.331-1.824.886-2.51L3.33 4.232zM2 8a6 6 0 0 0 6 6v-2a4 4 0 0 1-4-4H2zm6 6a5.98 5.98 0 0 0 3.767-1.33l-1.256-1.556A3.979 3.979 0 0 1 8 12v2zm2.95-3.09c-.307.059-.624.09-.95.09v2a7.03 7.03 0 0 0 1.328-.126l-.378-1.964zM10 11c-.315 0-.622-.029-.92-.084l-.365 1.966c.417.078.847.118 1.285.118v-2zm-2 2c.384 0 .76-.043 1.12-.126l-.446-1.95A3.01 3.01 0 0 1 8 11v2zM3 8a5 5 0 0 0 5 5v-2a3 3 0 0 1-3-3H3zm.126-1.12A5.013 5.013 0 0 0 3 8h2c0-.233.026-.458.076-.674l-1.95-.447zm1.958.04A5.034 5.034 0 0 1 5 6H3c0 .438.04.868.118 1.285l1.966-.365zM5 6c0-.326.031-.643.09-.95l-1.964-.378C3.043 5.102 3 5.547 3 6h2z" fill="#6C707E" mask="url(#b)"/></svg>