<svg width="16" height="16" viewBox="0 0 16 16" fill="none" xmlns="http://www.w3.org/2000/svg"><path d="M1.83 7.624l.32.384-.32-.384zm0 .768l.32-.384-.32.384zm3.9-4.017l.32.384-.32-.384zm.41.192h-.5.5zm0 2.249h-.5v.5h.5v-.5zm8.36.5H14h.5zm0 1.385h.5-.5zm-8.36.5v-.5h-.5v.5h.5zm-.41 2.44l.32-.383-.32.384zM1.51 7.24a1 1 0 0 0 0 1.536l.64-.768-.64-.768zm3.9-3.25l-3.9 3.25.64.768 3.9-3.25-.64-.768zm1.23.577a.75.75 0 0 0-1.23-.577l.64.769a.25.25 0 0 1-.41-.192h1zm0 2.249v-2.25h-1v2.25h1zm-.5.5H14v-1H6.14v1zm7.86 0h1a1 1 0 0 0-1-1v1zm0 0V8.7h1V7.316h-1zM14 8.7v1a1 1 0 0 0 1-1h-1zm0 0H6.14v1H14v-1zm-7.36 2.748V9.201h-1v2.248h1zm-1.23.577a.75.75 0 0 0 1.23-.576h-1a.25.25 0 0 1 .41-.192l-.64.768zm-3.9-3.25l3.9 3.25.64-.768-3.9-3.25-.64.768z" fill="#CED0D6"/></svg>