<svg width="16" height="16" viewBox="0 0 16 16" fill="none" xmlns="http://www.w3.org/2000/svg"><path d="M1.88 11.366l.32.384-.32-.384zm0 .768l.32-.384-.32.384zm3.9-4.018l.32.385-.32-.385zm.41 2.441h-.5v.5h.5v-.5zm7.86 0v.5-.5zm0 2.386v.5-.5zm-7.86 0v-.5h-.5v.5h.5zm-.41 2.44L6.1 15l-.32.384zm-4.22-4.401a1 1 0 0 0 0 1.536l.64-.768-.64-.768zm3.9-3.25l-3.9 3.25.64.768L6.1 8.5l-.64-.768zm1.23.576a.75.75 0 0 0-1.231-.576l.64.769a.25.25 0 0 1-.41-.193h1zm0 2.25v-2.25h-1v2.25h1zm-.5.5h7.86v-1H6.19v1zm7.86 0h1a1 1 0 0 0-1-1v1zm0 0v1.385h1v-1.386h-1zm0 1.385v1a1 1 0 0 0 1-1h-1zm0 0H6.19v1h7.86v-1zM6.69 15.19v-2.248h-1v2.248h1zm-1.231.577a.75.75 0 0 0 1.23-.577h-1A.25.25 0 0 1 6.1 15l-.64.769zm-3.9-3.25l3.9 3.25.64-.769-3.9-3.249-.64.768zM14.32 3.864l-.32.384.32-.384zm0 .768L14 4.248l.32.384zM10.42.614L10.1 1l.32-.385zm-.41.193h.5-.5zm0 2.248h.5v.5h-.5v-.5zm-8.36.5h.5-.5zm0 1.386h-.5.5zm8.36.5v-.5h.5v.5h-.5zm.41 2.44l-.32-.384.32.385zm4.22-4.401a1 1 0 0 1 0 1.536L14 4.248l.64-.768zM10.74.23l3.9 3.25-.64.768-3.9-3.25.64-.768zM9.51.807A.75.75 0 0 1 10.74.23L10.1 1a.25.25 0 0 0 .41-.192h-1zm0 2.248V.807h1v2.248h-1zm.5.5H2.15v-1h7.86v1zm-7.86 0h-1a1 1 0 0 1 1-1v1zm0 0v1.386h-1V3.555h1zm0 1.386v1a1 1 0 0 1-1-1h1zm0 0h7.86v1H2.15v-1zm7.36 2.748V5.441h1v2.248h-1zm1.23.577a.75.75 0 0 1-1.23-.577h1a.25.25 0 0 0-.41-.192l.64.769zm3.9-3.25l-3.9 3.25-.64-.769L14 4.248l.64.768z" fill="#CED0D6"/></svg>