<svg width="16" height="16" viewBox="0 0 16 16" fill="none" xmlns="http://www.w3.org/2000/svg"><path d="M14.32 7.624l-.32.384.32-.384zm0 .768L14 8.008l.32.384zm-3.9-4.017l-.32.384.32-.384zm-.41 2.44h.5v.5h-.5v-.5zm-8.36.5h.5-.5zm0 1.386h-.5.5zm8.36.5v-.5h.5v.5h-.5zm.41 2.44l-.32-.383.32.384zm4.22-4.401a1 1 0 0 1 0 1.536L14 8.008l.64-.768zm-3.9-3.25l3.9 3.25-.64.768-3.9-3.25.64-.768zm-1.23.577a.75.75 0 0 1 1.23-.577l-.64.769a.25.25 0 0 0 .41-.192h-1zm0 2.249v-2.25h1v2.25h-1zm.5.5H2.15v-1h7.86v1zm-7.86 0h-1a1 1 0 0 1 1-1v1zm0 0V8.7h-1V7.316h1zm0 1.385v1a1 1 0 0 1-1-1h1zm0 0h7.86v1H2.15v-1zm7.36 2.748V9.201h1v2.248h-1zm1.23.577a.75.75 0 0 1-1.23-.576h1a.25.25 0 0 0-.41-.192l.64.768zm3.9-3.25l-3.9 3.25-.64-.768 3.9-3.25.64.768z" fill="#CED0D6"/></svg>