<svg width="16" height="16" viewBox="0 0 16 16" fill="none" xmlns="http://www.w3.org/2000/svg"><path fill-rule="evenodd" clip-rule="evenodd" d="M6.25 10.117a.5.5 0 0 0 .757.429l3.528-2.117a.5.5 0 0 0 0-.858L7.007 5.454a.5.5 0 0 0-.757.43v4.233z" fill="#6C707E"/><circle cx="1.75" cy="8" r=".75" fill="#6C707E"/><circle cx="5.125" cy="2.5" r=".75" fill="#6C707E"/><circle cx="2.719" cy="4.75" r=".75" fill="#6C707E"/><circle cx=".75" cy=".75" r=".75" transform="matrix(1 0 0 -1 4.375 14.25)" fill="#6C707E"/><circle cx=".75" cy=".75" r=".75" transform="matrix(1 0 0 -1 1.969 12)" fill="#6C707E"/><path d="M8 1.5c3.5 0 6.5 3 6.5 6.5s-3 6.5-6.5 6.5" stroke="#6C707E" stroke-linecap="round"/></svg>