<svg width="16" height="16" viewBox="0 0 16 16" fill="none" xmlns="http://www.w3.org/2000/svg"><g clip-path="url(#clip0_235_49)"><mask id="a" fill="#fff"><path fill-rule="evenodd" clip-rule="evenodd" d="M8 10v2.586c0 .89 1.077 1.337 1.707.707l4.586-4.586a1 1 0 0 0 0-1.414L9.707 2.707C9.077 2.077 8 2.523 8 3.414V6H2a1 1 0 0 0-1 1v2a1 1 0 0 0 1 1h6z"/></mask><path d="M8 10h1V9H8v1zm1.707 3.293L9 12.586l.707.707zm4.586-4.586l.707.707-.707-.707zm0-1.414L13.586 8l.707-.707zM9.707 2.707L10.414 2l-.707.707zM8 6v1h1V6H8zm1 6.586V10H7v2.586h2zm0 0H7C7 14.368 9.154 15.26 10.414 14L9 12.586zM13.586 8L9 12.586 10.414 14 15 9.414 13.586 8zm0 0L15 9.414a2 2 0 0 0 0-2.828L13.586 8zM9 3.414L13.586 8 15 6.586 10.414 2 9 3.414zm0 0L10.414 2C9.154.74 7 1.632 7 3.414h2zM9 6V3.414H7V6h2zM2 7h6V5H2v2zm0 0V5a2 2 0 0 0-2 2h2zm0 2V7H0v2h2zm0 0H0a2 2 0 0 0 2 2V9zm6 0H2v2h6V9z" fill="#CED0D6" mask="url(#a)"/></g><defs><clipPath id="clip0_235_49"><path fill="#fff" d="M0 0h16v16H0z"/></clipPath></defs></svg>