<svg width="16" height="16" viewBox="0 0 16 16" fill="none" xmlns="http://www.w3.org/2000/svg"><path d="M14.68 7.756l-.32.385.32-.385zm0 .769l.32.384-.32-.384zM9.55 3.482l-.32.384.32-.384zm-.41 3.159h.5v.5h-.5v-.5zm-8 .5h-.5.5zm0 2h.5-.5zm.5.5v-.5.5zm7.5 0v-.5h.5v.5h-.5zm.41 3.158l.32.384-.32-.384zM15 7.372a1 1 0 0 1 0 1.537l-.64-.768.64-.769zM9.87 3.098L15 7.372l-.64.769-5.13-4.275.64-.768zm-1.23.576a.75.75 0 0 1 1.23-.576l-.64.768a.25.25 0 0 0 .41-.192h-1zm0 2.967V3.674h1v2.967h-1zm.5.5h-7.5v-1h7.5v1zm-7.5 0h-1a1 1 0 0 1 1-1v1zm0 0v2h-1v-2h1zm0 2v1a1 1 0 0 1-1-1h1zm0 0h7.5v1h-7.5v-1zm7 3.466V9.64h1v2.966h-1zm1.23.576a.75.75 0 0 1-1.23-.576h1a.25.25 0 0 0-.41-.192l.64.768zM15 8.909l-5.13 4.274-.64-.768 5.13-4.274.64.768z" fill="#CED0D6"/></svg>