<!--
  - Copyright (C) 2025 The Android Open Source Project
  -
  - Licensed under the Apache License, Version 2.0 (the "License");
  - you may not use this file except in compliance with the License.
  - You may obtain a copy of the License at
  -
  -      http://www.apache.org/licenses/LICENSE-2.0
  -
  - Unless required by applicable law or agreed to in writing, software
  - distributed under the License is distributed on an "AS IS" BASIS,
  - WITHOUT WARRANTIES OR CONDITIONS OF ANY KIND, either express or implied.
  - See the License for the specific language governing permissions and
  - limitations under the License.
  -->
<svg width="16" height="16" viewBox="0 0 16 16" fill="none" xmlns="http://www.w3.org/2000/svg"><path fill-rule="evenodd" clip-rule="evenodd" d="M11.38 1.433a.5.5 0 11.866.5l-1.122 1.943A5.999 5.999 0 0113.979 8.5a.47.47 0 01-.479.5.541.541 0 01-.525-.5 5 5 0 00-9.95 0A.541.541 0 012.5 9a.47.47 0 01-.48-.5 5.999 5.999 0 012.853-4.622L3.75 1.933a.5.5 0 01.866-.5l1.152 1.996A5.984 5.984 0 018 3c.787 0 1.54.152 2.229.427l1.151-1.994z" fill="#CED0D6"/><path d="M2.5 8.5h11" stroke="#CED0D6"/><path d="M13.35 10.5H2.65a.15.15 0 00-.15.15v1.7c0 .083.067.15.15.15h10.7a.15.15 0 00.15-.15v-1.7a.15.15 0 00-.15-.15zM5.5 12.5v2M10.5 12.5v2" stroke="#CED0D6" stroke-linecap="round"/><rect x="5" y="6" width="1" height="1" rx=".5" fill="#CED0D6"/><rect x="10" y="6" width="1" height="1" rx=".5" fill="#CED0D6"/></svg>