<!--
  - Copyright (C) 2025 The Android Open Source Project
  -
  - Licensed under the Apache License, Version 2.0 (the "License");
  - you may not use this file except in compliance with the License.
  - You may obtain a copy of the License at
  -
  -      http://www.apache.org/licenses/LICENSE-2.0
  -
  - Unless required by applicable law or agreed to in writing, software
  - distributed under the License is distributed on an "AS IS" BASIS,
  - WITHOUT WARRANTIES OR CONDITIONS OF ANY KIND, either express or implied.
  - See the License for the specific language governing permissions and
  - limitations under the License.
  -->
<svg width="16" height="16" viewBox="0 0 16 16" fill="none" xmlns="http://www.w3.org/2000/svg"><path fill-rule="evenodd" clip-rule="evenodd" d="M11.38 1.433a.5.5 0 11.866.5l-1.122 1.943A5.999 5.999 0 0113.979 8.5a.47.47 0 01-.479.5.541.541 0 01-.525-.5 5 5 0 00-9.95 0A.541.541 0 012.5 9a.47.47 0 01-.48-.5 5.999 5.999 0 012.853-4.622L3.75 1.933a.5.5 0 01.866-.5l1.152 1.996A5.984 5.984 0 018 3c.787 0 1.54.152 2.229.427l1.151-1.994z" fill="#6C707E"/><path d="M2.5 8.5h11" stroke="#6C707E"/><path d="M2.75 10.5h10.5" stroke="#6C707E" stroke-linecap="round"/><rect x="5" y="6" width="1" height="1" rx=".5" fill="#6C707E"/><rect x="10" y="6" width="1" height="1" rx=".5" fill="#6C707E"/><path fill-rule="evenodd" clip-rule="evenodd" d="M13.316 10a.547.547 0 00-.516.404 5.002 5.002 0 01-9.6 0A.547.547 0 002.684 10c-.314 0-.555.284-.472.587a6.003 6.003 0 0011.576 0c.083-.303-.158-.587-.472-.587z" fill="#6C707E"/></svg>