<svg width="16" height="16" viewBox="0 0 16 16" fill="none" xmlns="http://www.w3.org/2000/svg"><path fill="#6E6E6E" d="M1 1h1v4H1z"/><path fill="#6E6E6E" d="M1 1h4v1H1zM1 11h1v4H1z"/><path fill="#6E6E6E" d="M1 14h4v1H1zM14 11h1v4h-1zM14 1h1v4h-1z"/><path fill="#6E6E6E" d="M11 1h4v1h-4zM11 14h4v1h-4z"/><path fill-rule="evenodd" clip-rule="evenodd" d="M4.032 4.957l1.43-.05a3.996 3.996 0 0 1 1.13-.652l.757-1.213a5.049 5.049 0 0 1 1.302 0l.757 1.213c.414.155.794.377 1.13.653l1.43.05c.264.342.483.72.652 1.126l-.673 1.264a4.03 4.03 0 0 1 0 1.304l.673 1.264a4.996 4.996 0 0 1-.652 1.127l-1.43.05a3.995 3.995 0 0 1-1.13.652l-.757 1.213a5.044 5.044 0 0 1-1.302 0l-.757-1.213a3.994 3.994 0 0 1-1.13-.653l-1.43-.05a4.997 4.997 0 0 1-.652-1.126l.673-1.264a4.028 4.028 0 0 1 0-1.304L3.38 6.084c.169-.405.389-.784.652-1.127zM8 10a2 2 0 1 0 0-4 2 2 0 0 0 0 4z" fill="#6E6E6E"/></svg>