<!--
  - Copyright (C) 2025 The Android Open Source Project
  -
  - Licensed under the Apache License, Version 2.0 (the "License");
  - you may not use this file except in compliance with the License.
  - You may obtain a copy of the License at
  -
  -      http://www.apache.org/licenses/LICENSE-2.0
  -
  - Unless required by applicable law or agreed to in writing, software
  - distributed under the License is distributed on an "AS IS" BASIS,
  - WITHOUT WARRANTIES OR CONDITIONS OF ANY KIND, either express or implied.
  - See the License for the specific language governing permissions and
  - limitations under the License.
  -->
<svg width="16" height="16" viewBox="0 0 16 16" fill="none" xmlns="http://www.w3.org/2000/svg"><g clip-path="url(#clip0_2284_715)"><mask id="a" fill="#fff"><path d="M2.5 4a1 1 0 011-1h10a1 1 0 011 1v7a1 1 0 01-1 1h-10a1 1 0 01-1-1V4z"/></mask><path d="M3.5 4h10V2h-10v2zm10 0v7h2V4h-2zm0 7h-10v2h10v-2zm-10 0V4h-2v7h2zm0 0h-2a2 2 0 002 2v-2zm10 0v2a2 2 0 002-2h-2zm0-7h2a2 2 0 00-2-2v2zm-10-2a2 2 0 00-2 2h2V2z" fill="#CED0D6" mask="url(#a)"/><path d="M6.5 4h4a1 1 0 01-1 1h-2a1 1 0 01-1-1z" fill="#CED0D6"/><rect x="1.5" y="13" width="14" height="1" rx=".5" fill="#CED0D6"/></g><defs><clipPath id="clip0_2284_715"><path fill="#fff" d="M0 0h16v16H0z"/></clipPath></defs></svg>