<!--
  - Copyright (C) 2021 The Android Open Source Project
  -
  - Licensed under the Apache License, Version 2.0 (the "License");
  - you may not use this file except in compliance with the License.
  - You may obtain a copy of the License at
  -
  -      http://www.apache.org/licenses/LICENSE-2.0
  -
  - Unless required by applicable law or agreed to in writing, software
  - distributed under the License is distributed on an "AS IS" BASIS,
  - WITHOUT WARRANTIES OR CONDITIONS OF ANY KIND, either express or implied.
  - See the License for the specific language governing permissions and
  - limitations under the License.
  -->
<svg  xmlns="http://www.w3.org/2000/svg" width="16" height="16" viewBox="0 0 24 24">
  <rect x="11" y="10" width="2" height="4"  fill="#6E6E6E"/>
  <path fill="#6E6E6E" d="M3 3L21 3C22.6569 3 24 4.34315 24 6L24 18C24 19.6569 22.6569 21 21 21L3 21C1.34315 21 0 19.6569 0 18L0 6C0 4.34315 1.34314 3 3 3ZM3 5C2.44772 5 2 5.44772 2 6L2 18C2 18.5523 2.44772 19 3 19L11 19L11 16H13L13 19L21 19C21.5523 19 22 18.5523 22 18L22 6C22 5.44772 21.5523 5 21 5L13 5L13 8H11L11 5L3 5Z"/>
</svg>
