<svg width="16" height="16" viewBox="0 0 16 16" fill="none" xmlns="http://www.w3.org/2000/svg"><g clip-path="url(#clip0_4187_778)"><path fill-rule="evenodd" clip-rule="evenodd" d="M10.796 2H13a1 1 0 011 1v10a1 1 0 01-1 1H6l5-.5V12h2.125V3H11v-.395A.994.994 0 0010.796 2z" fill="#AFB1B3"/><path d="M6.5 13.447V2.453l3.45-.345a.5.5 0 01.55.498v10.442l-4 .4z" stroke="#AFB1B3" stroke-linecap="round"/><path fill-rule="evenodd" clip-rule="evenodd" d="M2 2h3v1H3v2H2V2zm0 5h1v2H2V7zm1 4H2v3h3v-1H3v-2z" fill="#AFB1B3"/></g><defs><clipPath id="clip0_4187_778"><path fill="#fff" d="M0 0h16v16H0z"/></clipPath></defs></svg>