<!--
  - Copyright (C) 2025 The Android Open Source Project
  -
  - Licensed under the Apache License, Version 2.0 (the "License");
  - you may not use this file except in compliance with the License.
  - You may obtain a copy of the License at
  -
  -      http://www.apache.org/licenses/LICENSE-2.0
  -
  - Unless required by applicable law or agreed to in writing, software
  - distributed under the License is distributed on an "AS IS" BASIS,
  - WITHOUT WARRANTIES OR CONDITIONS OF ANY KIND, either express or implied.
  - See the License for the specific language governing permissions and
  - limitations under the License.
  -->
<svg width="16" height="16" viewBox="0 0 16 16" fill="none" xmlns="http://www.w3.org/2000/svg"><circle cx="8" cy="5" r="1" fill="#6C707E"/><path fill-rule="evenodd" clip-rule="evenodd" d="M4 3.5A1.5 1.5 0 015.5 2h5A1.5 1.5 0 0112 3.5v9a1.5 1.5 0 01-1.5 1.5h-5A1.5 1.5 0 014 12.5v-9zM5.5 3a.5.5 0 00-.5.5v9a.5.5 0 00.5.5h5a.5.5 0 00.5-.5v-9a.5.5 0 00-.5-.5h-5z" fill="#6C707E"/></svg>