<svg width="16" height="16" viewBox="0 0 16 16" fill="none" xmlns="http://www.w3.org/2000/svg"><path fill-rule="evenodd" clip-rule="evenodd" d="M4.5 2A1.5 1.5 0 003 3.5v9a1.5 1.5 0 00.82 1.338 1 1 0 01-.32-.734V4.115a1 1 0 01.602-.918A.5.5 0 014.5 3h7a.5.5 0 01.5.5v9a.5.5 0 01-.5.5h-3v.758c0 .084-.01.165-.03.242h3.03a1.5 1.5 0 001.5-1.5v-9A1.5 1.5 0 0011.5 2h-7z" fill="#CED0D6"/><path d="M7.608 3.448l-3-.327a1 1 0 00-1.108.994v8.989a1 1 0 00.787.977l3 .654a1 1 0 001.213-.977V4.442a1 1 0 00-.892-.994z" stroke="#CED0D6" stroke-linecap="round"/><circle cx="1" cy="1" r="1" transform="matrix(.96623 .25766 -.19612 .98058 5 4.75)" fill="#CED0D6"/></svg>