<!--
  - Copyright (C) 2025 The Android Open Source Project
  -
  - Licensed under the Apache License, Version 2.0 (the "License");
  - you may not use this file except in compliance with the License.
  - You may obtain a copy of the License at
  -
  -      http://www.apache.org/licenses/LICENSE-2.0
  -
  - Unless required by applicable law or agreed to in writing, software
  - distributed under the License is distributed on an "AS IS" BASIS,
  - WITHOUT WARRANTIES OR CONDITIONS OF ANY KIND, either express or implied.
  - See the License for the specific language governing permissions and
  - limitations under the License.
  -->
<svg width="16" height="16" viewBox="0 0 16 16" fill="none" xmlns="http://www.w3.org/2000/svg"><path fill-rule="evenodd" clip-rule="evenodd" d="M12 1H4a1 1 0 00-1 1v10.566a1 1 0 00.952.998l8 .386a1 1 0 001.048-1V2a1 1 0 00-1-1zM5.13 2.15l5 .658A1 1 0 0111 3.8v9.032a1 1 0 01-1.154.988l-5-.78A1 1 0 014 12.054V3.14a1 1 0 011.13-.992z" fill="#CED0D6"/><path d="M10.196 2.313l-5-.66A1.5 1.5 0 003.5 3.141v8.912a1.5 1.5 0 001.269 1.482l5 .78a1.5 1.5 0 001.731-1.483V3.8a1.5 1.5 0 00-1.304-1.487z" stroke="#CED0D6" stroke-linecap="round"/><rect x="5.094" y="3.657" width="5" height="1" rx=".5" transform="rotate(8 5.094 3.657)" fill="#CED0D6"/><rect x="5.094" y="5.657" width="5" height="1" rx=".5" transform="rotate(8 5.094 5.657)" fill="#CED0D6"/><rect x="5.084" y="7.796" width="3" height="1" rx=".5" transform="rotate(8 5.084 7.796)" fill="#CED0D6"/></svg>