<svg width="16" height="16" viewBox="0 0 16 16" fill="none" xmlns="http://www.w3.org/2000/svg"><path fill-rule="evenodd" clip-rule="evenodd" d="M11.11 2.143L4 1.748a1 1 0 0 0-1 1v9.076c0 .797.564 1.482 1.345 1.636l5.667 1.113a1.667 1.667 0 0 0 1.796-.857A1.5 1.5 0 0 0 13 12.248V4.14a2 2 0 0 0-1.89-1.997zM4 11.824c0 .32.226.593.538.655l5.667 1.113a.667.667 0 0 0 .795-.655v-8.34a.667.667 0 0 0-.546-.656L4.788 2.894A.667.667 0 0 0 4 3.549v8.275zm1-8.076l5 1v1l-5-1v-1zm5 3l-5-1v1l5 1v-1zm-5 1l4 .8v1l-4-.8v-1z" fill="#6E6E6E"/></svg>