<svg width="16" height="16" viewBox="0 0 16 16" fill="none" xmlns="http://www.w3.org/2000/svg"><rect x="6.5" y="1.5" width="7" height="3" rx=".5" stroke="#6C707E"/><rect x="6.5" y="6.5" width="7" height="3" rx=".5" stroke="#6C707E"/><rect x="6.5" y="11.5" width="7" height="3" rx=".5" stroke="#6C707E"/><path d="M2.85 2.412h-.886V1.72h.522a.573.573 0 0 0 .292-.071.477.477 0 0 0 .192-.198.629.629 0 0 0 .07-.3h.64V5h-.83V2.412zM1.62 9.376l1.546-1.35c.118-.107.206-.213.264-.32a.695.695 0 0 0 .088-.335.567.567 0 0 0-.071-.289.486.486 0 0 0-.204-.195.623.623 0 0 0-.297-.069.658.658 0 0 0-.321.077.557.557 0 0 0-.218.22.658.658 0 0 0-.077.322H1.5c0-.26.061-.493.184-.699.125-.205.297-.365.517-.48.222-.116.473-.174.754-.174.27 0 .513.052.726.157.212.104.378.25.497.437.12.185.178.396.176.633 0 .22-.057.427-.173.621a2.215 2.215 0 0 1-.52.577l-.869.765h1.659V10H1.62v-.624zM2.924 15.066c-.277 0-.525-.052-.745-.157a1.29 1.29 0 0 1-.523-.437 1.18 1.18 0 0 1-.198-.643h.836c.004.1.034.191.091.272a.594.594 0 0 0 .226.187.752.752 0 0 0 .319.066.717.717 0 0 0 .33-.074.56.56 0 0 0 .31-.512.564.564 0 0 0-.319-.52.747.747 0 0 0-.343-.077H2.36v-.56l.894-.77h-1.6v-.691h2.618v.577l-1.348 1.158v-.319c.288-.005.544.043.767.146.226.103.402.25.528.44.127.189.19.406.19.652 0 .245-.063.464-.19.654-.126.19-.302.34-.528.448-.223.107-.479.16-.767.16z" fill="#4285F4"/></svg>