<svg width="16" height="16" viewBox="0 0 16 16" fill="none" xmlns="http://www.w3.org/2000/svg"><path d="M10.5 10.5h5M10.5 12.5h5M10.5 14.5h5" stroke="#FFAF0F" stroke-linecap="round"/><path fill-rule="evenodd" clip-rule="evenodd" d="M14.93 9A7 7 0 1 0 9 14.93V9h5.93z" fill="#EDF3FF"/><path fill-rule="evenodd" clip-rule="evenodd" d="M9 13.917A6 6 0 1 1 13.917 9h1.012A7 7 0 1 0 9 14.93v-1.013z" fill="#3574F0"/><path fill-rule="evenodd" clip-rule="evenodd" d="M9 11.395a3.598 3.598 0 0 1-.867.105c-1.92 0-3.345-1.494-3.345-3.5 0-2.006 1.426-3.5 3.345-3.5 1.489 0 2.765.9 3.08 2.175h-1.016c-.314-.73-1.092-1.252-2.064-1.252-1.34 0-2.306 1.074-2.306 2.577s.967 2.577 2.306 2.577c.312 0 .604-.054.867-.151v.969z" fill="#3574F0"/></svg>