<svg width="16" height="16" viewBox="0 0 16 16" fill="none" xmlns="http://www.w3.org/2000/svg"><path fill-rule="evenodd" clip-rule="evenodd" d="M14.93 9A7 7 0 1 0 9 14.93V9h5.93z" fill="#FFF4EB"/><path fill-rule="evenodd" clip-rule="evenodd" d="M9 13.917A6 6 0 1 1 13.917 9h1.012A7 7 0 1 0 9 14.93v-1.013z" fill="#E66D17"/><path d="M7.257 12h1.017V7.327H9.83V6.43H8.274v-.95c0-.36.246-.606.6-.606H9.88V4H8.777c-.903 0-1.52.571-1.52 1.406V6.43H6.12v.897h1.137V12z" fill="#E66D17"/><path d="M10.5 10.5h5M10.5 12.5h5M10.5 14.5h5" stroke="#FFAF0F" stroke-linecap="round"/></svg>