<svg width="16" height="16" viewBox="0 0 16 16" fill="none" xmlns="http://www.w3.org/2000/svg"><mask id="a" maskUnits="userSpaceOnUse" x="1" y=".103" width="14" height="15" fill="#000"><path fill="#fff" d="M1 .103h14v15H1z"/><path fill-rule="evenodd" clip-rule="evenodd" d="M8.421 13.805l5-2.322a1 1 0 0 0 .579-.907V4.424a1 1 0 0 0-.579-.907l-5-2.321a1 1 0 0 0-.842 0l-5 2.32A1 1 0 0 0 2 4.425v6.152a1 1 0 0 0 .579.907l5 2.322a1 1 0 0 0 .842 0zm.026-3.029l2-1A1 1 0 0 0 11 8.882V6.118a1 1 0 0 0-.553-.894l-2-1a1 1 0 0 0-.894 0l-2 1A1 1 0 0 0 5 6.118v2.764a1 1 0 0 0 .553.894l2 1a1 1 0 0 0 .894 0z"/></mask><path fill-rule="evenodd" clip-rule="evenodd" d="M8.421 13.805l5-2.322a1 1 0 0 0 .579-.907V4.424a1 1 0 0 0-.579-.907l-5-2.321a1 1 0 0 0-.842 0l-5 2.32A1 1 0 0 0 2 4.425v6.152a1 1 0 0 0 .579.907l5 2.322a1 1 0 0 0 .842 0zm.026-3.029l2-1A1 1 0 0 0 11 8.882V6.118a1 1 0 0 0-.553-.894l-2-1a1 1 0 0 0-.894 0l-2 1A1 1 0 0 0 5 6.118v2.764a1 1 0 0 0 .553.894l2 1a1 1 0 0 0 .894 0z" fill="#EDF3FF"/><path d="M13.421 11.483L13 10.576l.421.907zm-5 2.322L8 12.898l.421.907zm5-10.288L13 4.424l.421-.907zm-5-2.321l.421-.907-.42.907zm-.842 0L8 2.103l-.421-.907zm-5 2.32L3 4.425l-.421-.907zm0 7.967L3 10.576l-.421.907zm5 2.322L8 12.898l-.421.907zm2.868-4.029l.447.895-.447-.895zm-2 1l.447.895-.447-.895zm2-5.552l.447-.895-.447.895zm-2-1L8 5.118l.447-.894zm-.894 0L8 5.118l-.447-.894zm-2 1l-.447-.895.447.895zm0 4.552L6 8.882l-.447.894zm2 1L8 9.882l-.447.894zm5.447-.2l-5 2.322.842 1.813 5-2.32L13 10.575zm0 0l.842 1.814A2 2 0 0 0 15 10.576h-2zm0-6.152v6.152h2V4.424h-2zm0 0h2a2 2 0 0 0-1.158-1.814L13 4.424zM8 2.103l5 2.32.842-1.813-5-2.321L8 2.103zm0 0L8.842.289a2 2 0 0 0-1.684 0L8 2.103zm-5 2.32l5-2.32L7.158.289l-5 2.32L3 4.425zm0 0l-.842-1.813A2 2 0 0 0 1 4.424h2zm0 6.153V4.424H1v6.152h2zm0 0H1a2 2 0 0 0 1.158 1.814L3 10.576zm5 2.322l-5-2.322-.842 1.814 5 2.321L8 12.898zm0 0l-.842 1.813a2 2 0 0 0 1.684 0L8 12.898zm2-4.016l-2 1 .894 1.789 2-1L10 8.882zm0 0l.894 1.789A2 2 0 0 0 12 8.882h-2zm0-2.764v2.764h2V6.118h-2zm0 0h2a2 2 0 0 0-1.106-1.789L10 6.118zm-2-1l2 1 .894-1.789-2-1L8 5.118zm0 0l.894-1.789a2 2 0 0 0-1.788 0L8 5.118zm-2 1l2-1-.894-1.789-2 1L6 6.118zm0 0l-.894-1.789A2 2 0 0 0 4 6.118h2zm0 2.764V6.118H4v2.764h2zm0 0H4a2 2 0 0 0 1.106 1.789L6 8.882zm2 1l-2-1-.894 1.789 2 1L8 9.882zm0 0l-.894 1.789a2 2 0 0 0 1.788 0L8 9.882z" fill="#3574F0" mask="url(#a)"/><mask id="b" fill="#fff"><path fill-rule="evenodd" clip-rule="evenodd" d="M5.559 5.22L2.224 3.553l-.448.894L5.002 6.06a1 1 0 0 1 .55-.836l.007-.004zm5.44.84a1 1 0 0 0-.552-.836l-.006-.004 3.335-1.667.448.894-3.226 1.613zM7.5 10.75l.053.026a1 1 0 0 0 .894 0l.053-.026v3.75h-1v-3.75z"/></mask><path fill-rule="evenodd" clip-rule="evenodd" d="M5.559 5.22L2.224 3.553l-.448.894L5.002 6.06a1 1 0 0 1 .55-.836l.007-.004zm5.44.84a1 1 0 0 0-.552-.836l-.006-.004 3.335-1.667.448.894-3.226 1.613zM7.5 10.75l.053.026a1 1 0 0 0 .894 0l.053-.026v3.75h-1v-3.75z" fill="#3574F0"/><path d="M2.224 3.553l.447-.895-.895-.447-.447.895.895.447zM5.559 5.22l.447.895 1.79-.895-1.79-.894-.447.894zm-3.783-.773L.882 4l-.447.894.894.448.447-.895zM5.002 6.06l-.448.894 1.358.68L6 6.117l-.998-.058zm5.445-.836L10 6.118l.447-.894zm.551.836L10 6.118l.088 1.515 1.357-.679-.447-.894zm-.557-.84l-.447-.894-1.79.894 1.79.895.447-.895zm3.335-1.667l.895-.447-.447-.895-.895.447.447.895zm.448.894l.447.895.894-.448L15.118 4l-.894.447zM7.5 10.75l.447-.894L6.5 9.132v1.618h1zm.947.026l.447.895-.447-.895zm.053-.026h1V9.132l-1.447.724.447.894zm0 3.75v1h1v-1h-1zm-1 0h-1v1h1v-1zM1.776 4.447l3.336 1.668.894-1.789-3.335-1.668-.895 1.79zm.895.447L3.118 4l-1.789-.894L.882 4l1.789.894zm2.778.271L2.224 3.553l-.895 1.789 3.225 1.612.895-1.789zM6 6.118l-.894-1.789a2 2 0 0 0-1.103 1.673L6 6.118zm0 0l.006-.003-.894-1.789-.006.003L6 6.118zm4 0l1.997-.116a2 2 0 0 0-1.103-1.673L10 6.118zm-.006-.003l.006.003.894-1.789-.006-.003-.894 1.789zm.894 0l3.336-1.668-.895-1.789-3.335 1.668.894 1.789zM12.882 4l.447.894L15.118 4l-.447-.894L12.88 4zm.894-.447l-3.225 1.612.894 1.79 3.226-1.613-.895-1.79zM8 9.882l-.053-.026-.894 1.788.053.027L8 9.882zm0 0l-.894 1.789a2 2 0 0 0 1.788 0L8 9.882zm.053-.026L8 9.882l.894 1.789.053-.027-.894-1.788zm-.553.894v3.75h2v-3.75h-2zm1 2.75h-1v2h1v-2zm0 1v-3.75h-2v3.75h2z" fill="#3574F0" mask="url(#b)"/></svg>