<svg width="14" height="14" viewBox="0 0 14 14" fill="none" xmlns="http://www.w3.org/2000/svg"><path fill-rule="evenodd" clip-rule="evenodd" d="M12 8.54l-1.195-.816a3.534 3.534 0 0 0 0-1.448L12 5.461a4.943 4.943 0 0 0-1.096-1.807l-1.34.575A3.926 3.926 0 0 0 8.243 3.5L8.097 2.11a5.533 5.533 0 0 0-2.193 0l-.146 1.392c-.492.158-.94.408-1.322.728l-1.34-.576A4.943 4.943 0 0 0 2 5.46l1.195.816a3.538 3.538 0 0 0 0 1.448L2 8.54c.23.677.607 1.29 1.096 1.807l1.34-.576c.382.32.83.57 1.322.728l.146 1.392a5.528 5.528 0 0 0 2.193 0l.146-1.392c.492-.159.94-.408 1.321-.728l1.34.575A4.943 4.943 0 0 0 12 8.54zM8.859 7c0 .977-.832 1.77-1.859 1.77-1.027 0-1.86-.793-1.86-1.77S5.974 5.23 7 5.23c1.027 0 1.859.793 1.859 1.77z" fill="#AFB1B3"/></svg>