<svg width="16" height="16" viewBox="0 0 16 16" fill="none" xmlns="http://www.w3.org/2000/svg">
<path d="M6 6.5H8H10" stroke="#FFFFFF" stroke-linecap="square"/>
<path d="M10.6074 6.5C9.71877 6.50004 9.02498 7.26831 9.11523 8.15234L9.31934 10.1523C9.39761 10.9177 10.0432 11.5 10.8125 11.5H12.6523C13.4152 11.5 14.0564 10.927 14.1426 10.1689L14.3701 8.16895C14.471 7.27932 13.7753 6.5 12.8799 6.5H10.6074Z" stroke="#FFFFFF" stroke-linecap="square"/>
<rect x="2" y="3" width="4" height="2" rx="1" fill="#548AF7"/>
<path d="M5.39258 6.5C6.28123 6.50004 6.97502 7.26831 6.88477 8.15234L6.68066 10.1523C6.60239 10.9177 5.95684 11.5 5.1875 11.5H3.34766C2.58476 11.5 1.94356 10.927 1.85742 10.1689L1.62988 8.16895C1.52902 7.27932 2.22473 6.5 3.12012 6.5H5.39258Z" stroke="#FFFFFF" stroke-linecap="square"/>
</svg>