<svg width="28" height="28" viewBox="0 0 28 28" fill="none" xmlns="http://www.w3.org/2000/svg">
<path d="M0 4C0 1.79086 1.79086 0 4 0H24C26.2091 0 28 1.79086 28 4V24C28 26.2091 26.2091 28 24 28H4C1.79086 28 0 26.2091 0 24V4Z" fill="#4E9D6C"/>
<path fill-rule="evenodd" clip-rule="evenodd" d="M7.76585 7.63798C6.86426 8.53889 6.09813 9.33011 6.06333 9.3963C6.00942 9.49877 6 10.4195 6 15.5835C6 19.9639 6.01378 21.6773 6.04964 21.7476C6.07693 21.8011 6.14195 21.8796 6.19409 21.922C6.28306 21.9943 6.7591 21.999 13.9645 22C19.6115 22.0007 21.6694 21.9875 21.7512 21.9502C22.0151 21.8296 21.9998 22.3167 21.9998 14.0005C21.9998 5.68421 22.0151 6.17133 21.7512 6.05077C21.6698 6.01359 20.0026 6 15.5226 6H9.40503L7.76585 7.63798ZM10.7111 8.69997V10.464L10.5812 10.5942L10.4512 10.7245H8.69228H6.93332V15.8947V21.065H13.9999H21.0665V14.0005V6.93599H15.8888H10.7111V8.69997ZM8.37775 8.40683L7.00052 9.78853H8.38913H9.77774V8.40683C9.77774 7.64689 9.77263 7.02513 9.76636 7.02513C9.7601 7.02513 9.13521 7.64689 8.37775 8.40683ZM12.5615 9.95059C12.4446 10.0679 12.4444 10.0691 12.4444 10.7944V11.5206L11.7295 11.5349L11.0147 11.5491L10.8851 11.6946L10.7555 11.8402V12.5304V13.2205H10.0624C9.31041 13.2205 9.1697 13.2566 9.07041 13.4751C8.97184 13.6921 9.05815 14.0119 9.24197 14.1106C9.29041 14.1366 9.63676 14.1565 10.0415 14.1565H10.7555V14.8028V15.449H10.0644C9.30881 15.449 9.17063 15.4831 9.0753 15.6929C9.00779 15.8414 9.00779 15.9926 9.0753 16.1411C9.17063 16.351 9.30881 16.385 10.0644 16.385H10.7555V17.0752V17.7653L10.8851 17.9109L11.0147 18.0564L11.7295 18.0706L12.4444 18.0849V18.8111C12.4444 19.5292 12.4457 19.5387 12.5571 19.6505C12.7047 19.7985 12.8434 19.8295 13.052 19.7613C13.3295 19.6704 13.3776 19.5192 13.3776 18.7361L13.3777 18.0787H13.9999H14.6221V18.7495C14.6221 19.5062 14.6624 19.6496 14.9028 19.7485C15.1054 19.8318 15.3136 19.7863 15.4447 19.6302C15.5526 19.5016 15.5555 19.4797 15.5555 18.7915V18.0849L16.2703 18.0706L16.9852 18.0564L17.1147 17.9109L17.2443 17.7653V17.0752V16.385H17.9599H18.6754L18.8265 16.2335C18.9949 16.0646 19.0227 15.8886 18.9143 15.6783C18.8118 15.4796 18.6809 15.449 17.9311 15.449H17.2443V14.8028V14.1565H17.9354C18.691 14.1565 18.8292 14.1224 18.9245 13.9126C19.0204 13.7017 18.9904 13.5363 18.8265 13.372L18.6754 13.2205H17.9599H17.2443V12.5304V11.8402L17.1147 11.6946L16.9851 11.5491L16.2703 11.534L15.5555 11.5189V10.8132C15.5555 10.1189 15.5536 10.1051 15.4404 9.97024C15.3435 9.85471 15.294 9.8331 15.1264 9.8331C14.6876 9.8331 14.6221 9.96596 14.6221 10.856V11.5268H13.9999H13.3777L13.3774 10.9139C13.3771 9.99814 13.3019 9.8331 12.885 9.8331C12.7214 9.8331 12.6545 9.85739 12.5615 9.95059ZM11.6888 14.8028V17.1427H13.9999H16.311V14.8028V12.4628H13.9999H11.6888V14.8028Z" fill="#FCFCFC"/>
</svg>
