<svg width="26" height="26" viewBox="0 0 26 26" fill="none" xmlns="http://www.w3.org/2000/svg">
<path d="M0 4C0 1.79086 1.79086 0 4 0H22C24.2091 0 26 1.79086 26 4V22C26 24.2091 24.2091 26 22 26H4C1.79086 26 0 24.2091 0 22V4Z" fill="#338555"/>
<path fill-rule="evenodd" clip-rule="evenodd" d="M5.3525 5.02051C5.25687 5.04217 5.09658 5.16591 5.04595 5.25719C5.00552 5.33004 5 6.10863 5 11.7368V18.1337L5.06921 18.2308C5.18612 18.3947 5.36173 18.4564 5.7115 18.4564H6.01152L6.0122 19.5349C6.01296 20.7414 6.01833 20.7754 6.23016 20.9163L6.33337 20.9849L9.21712 20.9924L12.1009 21L12.205 20.9346C12.3578 20.8386 12.4367 20.7113 12.4604 20.5225C12.5211 20.0402 13.0606 19.8589 13.3911 20.2097C13.4918 20.3167 13.5035 20.3458 13.536 20.5706C13.5463 20.6413 13.5873 20.7454 13.6272 20.8018C13.775 21.011 13.5872 20.9991 16.7533 20.9991C19.5174 20.9991 19.596 20.9977 19.7112 20.9429C19.7762 20.9119 19.8619 20.838 19.9015 20.7786C19.9735 20.6708 19.9736 20.6687 19.9829 19.5666L19.9922 18.4626L20.3201 18.4521C20.702 18.4398 20.838 18.384 20.9401 18.1975C20.9996 18.0888 21.0004 17.9979 20.9999 11.7222L20.9994 5.35712L20.9308 5.24284C20.8856 5.16753 20.8156 5.10665 20.7256 5.06428L20.589 5L13.0014 5.00331C8.82821 5.00514 5.38622 5.01289 5.3525 5.02051ZM6.04217 11.7282V17.485H13.0002H19.9583V11.7282V5.97138H13.0002H6.04217V11.7282ZM9.39552 6.91124C9.32977 6.95678 8.94889 7.30068 8.54909 7.67549C7.76829 8.40756 7.70732 8.48493 7.7449 8.69629C7.76292 8.79757 7.81491 8.86045 8.11585 9.14509L8.46584 9.47613L8.13213 10.0736C7.94858 10.4023 7.78098 10.7209 7.75964 10.7816C7.69454 10.9673 7.73028 11.3593 7.82956 11.5484C7.92786 11.7356 8.16297 11.9503 8.36509 12.0374C8.50596 12.098 8.54535 12.0998 9.90435 12.1076L11.299 12.1155L12.0193 12.7831C12.4155 13.1502 12.7698 13.4649 12.8066 13.4822C12.935 13.5428 13.1343 13.5207 13.2638 13.4315C13.3296 13.3862 13.727 13.0263 14.1471 12.6316L14.9108 11.9139H16.1025H17.2943L17.3695 11.9841C17.4109 12.0226 17.4448 12.0849 17.4448 12.1225C17.4448 12.1601 17.3098 12.4501 17.1448 12.767L16.8449 13.3431L16.7251 13.2287C16.5583 13.0696 16.3914 13.0134 16.2156 13.0573C16.0986 13.0865 15.9854 13.1793 15.359 13.7595L14.6373 14.4281H12.9833H11.3292L10.6091 13.756C10.0355 13.2208 9.86563 13.0781 9.77407 13.055C9.53434 12.9944 9.49827 13.0191 8.59626 13.863C7.88513 14.5283 7.76026 14.6577 7.74263 14.7476C7.6995 14.9673 7.74211 15.0204 8.61272 15.8327C9.73551 16.8802 9.58673 16.8744 10.626 15.9111L11.363 15.228H13.0018H14.6406L15.3453 15.888C15.733 16.251 16.0945 16.566 16.1487 16.588C16.2751 16.6392 16.4141 16.6389 16.5191 16.5872C16.5646 16.5648 16.9708 16.201 17.4218 15.7789L18.2417 15.0113V14.8607C18.2417 14.7778 18.2264 14.6819 18.2077 14.6476C18.189 14.6133 18.021 14.4412 17.8343 14.2652L17.4948 13.9453L17.8667 13.2338C18.0712 12.8424 18.2549 12.4619 18.2748 12.3881C18.4001 11.9246 18.1376 11.4112 17.6643 11.1939C17.5218 11.1284 17.5172 11.1282 15.9888 11.1203L14.4562 11.1124L13.8585 10.5591C13.5297 10.2548 13.2306 9.99159 13.1938 9.97419C13.1001 9.92994 12.8903 9.93482 12.7918 9.98353C12.7463 10.0061 12.3988 10.3146 12.0196 10.6692L11.3302 11.3139H10.0335H8.73677L8.66155 11.2438C8.62017 11.2052 8.5863 11.1407 8.5863 11.1004C8.5863 11.03 8.78266 10.639 9.00694 10.2628L9.1141 10.0831L9.27598 10.2258C9.45646 10.3849 9.53686 10.4135 9.7417 10.392C9.87765 10.3777 9.90416 10.3566 10.606 9.70283L11.3301 9.02836H12.9996H14.6691L15.407 9.71403L16.1449 10.3997H16.3064C16.3952 10.3997 16.4981 10.3855 16.5349 10.3681C16.6303 10.3231 18.1449 8.91545 18.1978 8.82265C18.222 8.7802 18.2417 8.67783 18.2417 8.59512V8.44476L17.3895 7.64894C16.5968 6.90878 16.5283 6.85199 16.4105 6.83724C16.3407 6.82853 16.2449 6.83033 16.1975 6.84122C16.1411 6.85419 15.8576 7.09666 15.375 7.54472L14.6385 8.2284H12.9991H11.3598L10.6551 7.56938C10.2675 7.20694 9.91308 6.89196 9.86756 6.86941C9.72668 6.79973 9.53161 6.81702 9.39552 6.91124ZM9.22988 8.21423L8.78606 8.62863L9.22261 9.0355L9.65913 9.44236L10.1037 9.02798L10.5483 8.61361L10.111 8.20671L9.67369 7.79985L9.22988 8.21423ZM15.8888 8.20734L15.4524 8.61481L15.8896 9.02158L16.3267 9.42833L16.7632 9.02084L17.1996 8.61338L16.7624 8.2066L16.3252 7.79985L15.8888 8.20734ZM12.5477 11.3215L12.1113 11.7289L12.5485 12.1357L12.9857 12.5425L13.4293 12.1282L13.873 11.7139L13.4447 11.3139C13.2091 11.094 13.0091 10.914 13.0002 10.914C12.9914 10.914 12.7877 11.0973 12.5477 11.3215ZM9.21452 14.4282L8.78609 14.8283L9.22261 15.2352L9.65913 15.642L10.0956 15.2352L10.5322 14.8283L10.1037 14.4282C9.86808 14.2081 9.66802 14.0281 9.65913 14.0281C9.65024 14.0281 9.45017 14.2081 9.21452 14.4282ZM15.8888 14.4356L15.4524 14.843L15.8896 15.2498L16.3267 15.6566L16.7704 15.2423L17.2141 14.828L16.7858 14.4281C16.5502 14.2081 16.3502 14.0281 16.3413 14.0281C16.3324 14.0281 16.1288 14.2114 15.8888 14.4356ZM7.05369 19.2421V20.0278H7.43685H7.82V19.7488C7.82 19.4304 7.86601 19.3136 8.03343 19.2071C8.24389 19.0732 8.49156 19.0883 8.67948 19.2465C8.82496 19.369 8.86177 19.4791 8.86199 19.7921L8.86217 20.0278H9.24122H9.62029L9.63479 19.7492C9.6514 19.4306 9.69484 19.3278 9.86361 19.2079C9.95875 19.1402 10.0054 19.1278 10.1649 19.1278C10.3243 19.1278 10.371 19.1402 10.4662 19.2079C10.6393 19.331 10.6706 19.4126 10.6706 19.7406V20.0278H11.0836H11.4964L11.5779 19.8673C11.6227 19.779 11.747 19.6203 11.854 19.5145C12.1681 19.2041 12.5397 19.0557 12.999 19.0571C13.2866 19.058 13.4488 19.092 13.7044 19.2054C13.9683 19.3225 14.2755 19.6073 14.3972 19.8478L14.4868 20.0249L14.893 20.0263L15.2991 20.0278L15.2993 19.7921C15.2995 19.4791 15.3363 19.369 15.4818 19.2465C15.6697 19.0883 15.9174 19.0732 16.1279 19.2071C16.2953 19.3136 16.3413 19.4304 16.3413 19.7488V20.0278H16.7398H17.1383L17.1387 19.7492C17.1394 19.4095 17.1994 19.2841 17.4113 19.18C17.5823 19.0959 17.7361 19.0957 17.9058 19.1793C18.1116 19.2807 18.1804 19.4266 18.1804 19.7608V20.0278H18.5636H18.9467V19.2421V18.4564H13.0002H7.05369V19.2421Z" fill="#FCFCFC"/>
</svg>
