<svg width="64" height="64" viewBox="0 0 64 64" fill="none" xmlns="http://www.w3.org/2000/svg">
<path opacity="0.2" d="M24.9268 61.7462C23.9376 61.5116 23.1097 60.963 21.9511 59.7745C20.0158 57.7892 18.4452 56.9626 15.7155 56.4927C12.8837 56.0052 11.6253 54.9527 10.8688 52.4387C9.93488 49.3354 8.95883 47.8493 6.81427 46.2652C4.38145 44.4683 3.75726 42.8837 4.35106 40.0121C4.90104 37.3524 4.69044 35.4615 3.57344 33.0302C2.24072 30.1293 2.40524 28.5793 4.2981 26.2027C6.0334 24.0239 6.57805 22.5837 6.83793 19.4868C7.10019 16.3616 7.96968 15.0795 10.5304 14.0419C12.6676 13.1759 14.4958 11.6726 15.5095 9.94783C16.6816 7.95338 16.8527 7.72475 17.5789 7.18292C18.7509 6.30855 19.6984 6.06623 21.503 6.17939C24.6378 6.37596 26.3179 5.99957 28.423 4.62916C31.1677 2.84236 32.832 2.84236 35.5767 4.62916C37.6818 5.99957 39.3619 6.37596 42.4967 6.17939C45.461 5.99351 46.6945 6.7717 48.5014 9.96773C49.3968 11.5516 51.2272 13.0931 53.2303 13.9504C56.0834 15.1714 56.9127 16.2858 57.1231 19.1819C57.3509 22.3184 57.994 24.072 59.6977 26.2027C61.5947 28.575 61.7602 30.1266 60.4262 33.0302C59.3093 35.4615 59.0986 37.3524 59.6486 40.0121C60.2424 42.8837 59.6182 44.4683 57.1854 46.2652C55.0409 47.8493 54.0648 49.3354 53.1309 52.4387C52.3744 54.9527 51.116 56.0052 48.2842 56.4927C45.5487 56.9636 43.9763 57.7927 42.0486 59.7808C39.9116 61.9847 38.3797 62.3483 35.3921 61.3607C32.9486 60.553 31.0672 60.5495 28.6334 61.3484C26.9285 61.9079 26.0198 62.0055 24.9268 61.7462V61.7462Z" fill="black"/>
<path d="M24.9268 61.1603C23.9376 60.9257 23.1097 60.3771 21.9511 59.1886C20.0158 57.2033 18.4452 56.3767 15.7155 55.9068C12.8837 55.4193 11.6253 54.3667 10.8688 51.8528C9.93488 48.7495 8.95883 47.2633 6.81427 45.6793C4.38145 43.8823 3.75726 42.2978 4.35106 39.4262C4.90104 36.7665 4.69044 34.8755 3.57344 32.4442C2.24072 29.5434 2.40524 27.9934 4.2981 25.6167C6.0334 23.4379 6.57805 21.9978 6.83793 18.9009C7.10019 15.7757 7.96968 14.4936 10.5304 13.4559C12.6676 12.5899 14.4958 11.0866 15.5095 9.36189C16.6816 7.36744 16.8527 7.13881 17.5789 6.59699C18.7509 5.72261 19.6984 5.48029 21.503 5.59345C24.6378 5.79002 26.3179 5.41363 28.423 4.04322C31.1677 2.25643 32.832 2.25643 35.5767 4.04322C37.6818 5.41363 39.3619 5.79002 42.4967 5.59345C45.461 5.40757 46.6945 6.18576 48.5014 9.38179C49.3968 10.9657 51.2272 12.5072 53.2303 13.3644C56.0834 14.5855 56.9127 15.6999 57.1231 18.596C57.3509 21.7324 57.994 23.486 59.6977 25.6167C61.5947 27.9891 61.7602 29.5406 60.4262 32.4442C59.3093 34.8755 59.0986 36.7665 59.6486 39.4262C60.2424 42.2978 59.6182 43.8823 57.1854 45.6793C55.0409 47.2633 54.0648 48.7495 53.1309 51.8528C52.3744 54.3667 51.116 55.4193 48.2842 55.9068C45.5487 56.3777 43.9763 57.2068 42.0486 59.1949C39.9116 61.3988 38.3797 61.7624 35.3921 60.7748C32.9486 59.967 31.0672 59.9636 28.6334 60.7624C26.9285 61.322 26.0198 61.4195 24.9268 61.1603V61.1603Z" fill="#073042"/>
<path d="M42.7939 28.3902C42.6183 28.0279 42.7678 27.5871 43.1338 27.4078C43.4962 27.2322 43.937 27.3817 44.1163 27.7477C44.2918 28.1101 44.1424 28.5509 43.7763 28.7302C43.4103 28.9095 42.9732 28.7563 42.7939 28.3902ZM46.3389 35.6856C46.1633 35.3233 46.3127 34.8825 46.6788 34.7032C47.0449 34.5239 47.4819 34.677 47.6612 35.0431C47.8405 35.4092 47.6874 35.8462 47.3213 36.0255C46.9552 36.2048 46.5182 36.0517 46.3389 35.6856ZM46.6526 26.2237C44.3217 24.5577 41.2736 24.1243 38.457 25.2114L46.1596 41.0609C48.7594 39.5182 50.2985 36.8548 50.4292 33.9897L53.3541 34.1989C53.5222 34.2101 53.6678 34.0831 53.679 33.915C53.6903 33.7469 53.5632 33.6012 53.3952 33.59L50.4329 33.3771C50.403 32.1294 50.1042 30.8556 49.5103 29.6341C48.9163 28.4089 48.0983 27.3891 47.1345 26.5935L48.8005 24.1355C48.8939 23.9973 48.8566 23.8068 48.7183 23.7134C48.5801 23.6201 48.3896 23.6574 48.2962 23.7956L46.6526 26.2237" fill="#3DDC84"/>
<path d="M30.5713 19.3056C30.5713 18.5174 31.2101 17.8787 31.9982 17.8787C32.7864 17.8787 33.4252 18.5174 33.4252 19.3056C33.4252 20.0938 32.7864 20.7326 31.9982 20.7326C31.2101 20.7326 30.5713 20.0938 30.5713 19.3056Z" fill="white"/>
<path d="M47.3735 44.4378C47.3585 43.8252 47.2166 43.2312 46.9476 42.6821L36.6863 21.5655C37.0188 20.882 37.2093 20.1162 37.2093 19.3056C37.2093 17.2137 35.9654 15.4095 34.1798 14.5802V11.6815C34.1798 10.4787 33.2011 9.5 31.9983 9.5C30.7955 9.5 29.8168 10.4787 29.8168 11.6815V14.5802C28.0312 15.4058 26.7873 17.21 26.7873 19.3056C26.7873 20.1162 26.9778 20.8782 27.3103 21.5655L22.9622 30.512C21.468 29.4212 20.2054 28.0951 19.1969 26.5561C18.9877 26.2386 18.6552 26.0182 18.2779 25.9472C17.9007 25.88 17.5084 25.9697 17.2021 26.1975L14.4043 28.2595C13.7991 28.704 13.6572 29.5445 14.0755 30.1721C15.6743 32.559 17.7811 34.6359 20.1905 36.216L17.049 42.6784C16.78 43.2312 16.6381 43.8214 16.6231 44.4341L16.5596 47.2357C16.5447 47.8333 16.8734 48.3675 17.4113 48.6327C17.9492 48.8942 18.573 48.8195 19.0362 48.4422L21.2028 46.6604C21.6697 46.2756 22.0582 45.7863 22.3234 45.2409L25.4874 38.7263C27.6017 39.3949 29.7981 39.7348 32.0245 39.7348C34.2508 39.7348 36.4286 39.4024 38.5167 38.7412L41.6732 45.2409C41.9421 45.7938 42.3194 46.2682 42.7938 46.6604L44.9604 48.4422C45.2405 48.6701 45.5767 48.7896 45.9166 48.7896C46.1408 48.7896 46.3686 48.7373 46.5816 48.6327C47.1195 48.3712 47.4445 47.8371 47.4332 47.2357L47.3697 44.4341L47.3735 44.4378ZM31.1541 11.6852C31.1541 11.2183 31.5351 10.8373 32.002 10.8373C32.469 10.8373 32.85 11.2183 32.85 11.6852V14.1731C32.5736 14.1282 32.2897 14.0984 32.002 14.0984C31.7144 14.0984 31.4305 14.1282 31.1541 14.1731V11.6852ZM32.002 15.4282C34.1387 15.4282 35.8795 17.1689 35.8795 19.3056C35.8795 21.4423 34.1425 23.183 32.002 23.183C29.8616 23.183 28.1246 21.4423 28.1246 19.3056C28.1246 17.1689 29.8654 15.4282 32.002 15.4282ZM35.7375 33.0222C33.3132 33.6274 30.732 33.6274 28.274 33.0073L32.002 25.3346L35.7375 33.0222ZM46.0026 47.4374C45.954 47.4598 45.883 47.4747 45.8083 47.415L43.6417 45.6331C43.3168 45.3679 43.059 45.0392 42.876 44.6619L39.204 37.1088L38.6437 37.3031C36.5257 38.0352 34.2993 38.4088 32.0282 38.4088C29.757 38.4088 27.512 38.0315 25.3679 37.2881L24.8075 37.0939L21.1281 44.6657C20.9488 45.0392 20.6836 45.3754 20.3623 45.6369L18.1958 47.415C18.1211 47.4785 18.0463 47.4598 18.0015 47.4374C17.953 47.415 17.8969 47.3664 17.9007 47.2693L17.9642 44.4677C17.9754 44.0456 18.0725 43.6421 18.2555 43.2649L21.92 35.723L21.4045 35.4054C18.9429 33.8926 16.795 31.8269 15.1887 29.4324C15.1663 29.3988 15.17 29.354 15.1999 29.3353L17.9978 27.2733C17.9978 27.2733 18.0277 27.2584 18.0501 27.2621C18.0762 27.2659 18.0837 27.2808 18.0874 27.2883C19.3351 29.1896 20.9413 30.7959 22.8614 32.0622L23.4964 32.4806L28.1807 22.8393C28.9091 23.6275 29.8766 24.1953 30.971 24.4157L26.3876 33.8478L27.131 34.0756C28.7298 34.565 30.3771 34.8152 32.0282 34.8152C33.6793 34.8152 35.3117 34.5724 36.8806 34.0943L37.6276 33.8664L33.0368 24.4157C34.1313 24.1953 35.095 23.6275 35.8272 22.8393L45.756 43.2686C45.9391 43.6459 46.0362 44.0493 46.0474 44.4714L46.1109 47.273C46.1109 47.3701 46.0549 47.4187 46.01 47.4411L46.0026 47.4374Z" fill="white"/>
</svg>
