<svg width="64" height="64" viewBox="0 0 64 64" fill="none" xmlns="http://www.w3.org/2000/svg">
<g clip-path="url(#clip0_1345_987)">
<path opacity="0.2" d="M24.9268 61.7462C23.9376 61.5116 23.1097 60.963 21.9511 59.7745C20.0158 57.7892 18.4452 56.9626 15.7155 56.4927C12.8837 56.0052 11.6253 54.9527 10.8688 52.4387C9.93488 49.3354 8.95883 47.8493 6.81427 46.2652C4.38145 44.4683 3.75726 42.8837 4.35106 40.0121C4.90104 37.3524 4.69044 35.4615 3.57344 33.0302C2.24072 30.1293 2.40524 28.5793 4.2981 26.2027C6.0334 24.0239 6.57805 22.5837 6.83793 19.4868C7.10019 16.3616 7.96968 15.0795 10.5304 14.0419C12.6676 13.1759 14.4958 11.6726 15.5095 9.94783C16.6816 7.95338 16.8527 7.72475 17.5789 7.18292C18.7509 6.30855 19.6984 6.06623 21.503 6.17939C24.6378 6.37596 26.3179 5.99957 28.423 4.62916C31.1677 2.84236 32.832 2.84236 35.5767 4.62916C37.6818 5.99957 39.3619 6.37596 42.4967 6.17939C45.461 5.99351 46.6945 6.7717 48.5014 9.96773C49.3968 11.5516 51.2272 13.0931 53.2303 13.9504C56.0834 15.1714 56.9127 16.2858 57.1231 19.1819C57.3509 22.3184 57.994 24.072 59.6977 26.2027C61.5947 28.575 61.7602 30.1266 60.4262 33.0302C59.3093 35.4615 59.0986 37.3524 59.6486 40.0121C60.2424 42.8837 59.6182 44.4683 57.1854 46.2652C55.0409 47.8493 54.0648 49.3354 53.1309 52.4387C52.3744 54.9527 51.116 56.0052 48.2842 56.4927C45.5487 56.9636 43.9763 57.7927 42.0486 59.7808C39.9116 61.9847 38.3797 62.3483 35.3921 61.3607C32.9486 60.553 31.0672 60.5495 28.6334 61.3484C26.9285 61.9079 26.0198 62.0055 24.9268 61.7462V61.7462Z" fill="black"/>
<path d="M24.9268 61.1603C23.9376 60.9257 23.1097 60.3771 21.9511 59.1886C20.0158 57.2033 18.4452 56.3767 15.7155 55.9068C12.8837 55.4193 11.6253 54.3667 10.8688 51.8528C9.93488 48.7495 8.95883 47.2633 6.81427 45.6793C4.38145 43.8823 3.75726 42.2978 4.35106 39.4262C4.90104 36.7665 4.69044 34.8755 3.57344 32.4442C2.24072 29.5434 2.40524 27.9934 4.2981 25.6167C6.0334 23.4379 6.57805 21.9978 6.83793 18.9009C7.10019 15.7757 7.96968 14.4936 10.5304 13.4559C12.6676 12.5899 14.4958 11.0866 15.5095 9.36189C16.6816 7.36744 16.8527 7.13881 17.5789 6.59699C18.7509 5.72261 19.6984 5.48029 21.503 5.59345C24.6378 5.79002 26.3179 5.41363 28.423 4.04322C31.1677 2.25643 32.832 2.25643 35.5767 4.04322C37.6818 5.41363 39.3619 5.79002 42.4967 5.59345C45.461 5.40757 46.6945 6.18576 48.5014 9.38179C49.3968 10.9657 51.2272 12.5072 53.2303 13.3644C56.0834 14.5855 56.9127 15.6999 57.1231 18.596C57.3509 21.7324 57.994 23.486 59.6977 25.6167C61.5947 27.9891 61.7602 29.5406 60.4262 32.4442C59.3093 34.8755 59.0986 36.7665 59.6486 39.4262C60.2424 42.2978 59.6182 43.8823 57.1854 45.6793C55.0409 47.2633 54.0648 48.7495 53.1309 51.8528C52.3744 54.3667 51.116 55.4193 48.2842 55.9068C45.5487 56.3777 43.9763 57.2068 42.0486 59.1949C39.9116 61.3988 38.3797 61.7624 35.3921 60.7748C32.9486 59.967 31.0672 59.9636 28.6334 60.7624C26.9285 61.322 26.0198 61.4195 24.9268 61.1603V61.1603Z" fill="#202124"/>
<path d="M45.4445 49.5026C45.5483 49.8689 45.3633 50.2552 45.0128 50.404C44.6624 50.5528 44.256 50.4174 44.0647 50.0883L42.3302 47.1054L44.5035 46.1829L45.4445 49.5026Z" fill="white"/>
<mask id="mask0_1345_987" style="mask-type:alpha" maskUnits="userSpaceOnUse" x="39" y="25" width="11" height="14">
<path d="M44.1431 37.783C44.3702 37.6299 44.5854 37.4631 44.7875 37.2843C44.9586 37.133 45.1203 36.9728 45.2725 36.8054C45.4678 36.5899 45.6474 36.3619 45.8102 36.1232C46.0096 35.8308 46.1838 35.5221 46.3305 35.2008C46.3923 35.0659 46.4494 34.929 46.5011 34.79C46.614 34.4891 46.7036 34.1789 46.7691 33.8628C46.7736 33.8637 46.7784 33.8642 46.7829 33.8651C47.03 33.9077 47.2767 33.9508 47.5238 33.9934C47.765 34.0353 48.0062 34.0772 48.2474 34.1191C48.4206 34.1493 48.5941 34.1793 48.7672 34.2092C48.8083 34.2163 48.849 34.2187 48.8891 34.2172C49.0009 34.2125 49.1064 34.1752 49.1945 34.1133C49.2163 34.0978 49.237 34.0811 49.2565 34.063C49.276 34.0448 49.2942 34.0252 49.3111 34.0044C49.3688 33.9331 49.4099 33.8466 49.4277 33.7502C49.4434 33.6649 49.4393 33.5776 49.4168 33.4948C49.4073 33.4602 49.3945 33.4266 49.3787 33.3942C49.3655 33.3675 49.3502 33.3418 49.333 33.3171C49.2711 33.2291 49.1842 33.1585 49.0806 33.1165C49.0434 33.1015 49.0043 33.0901 48.9632 33.083C48.79 33.0528 48.6165 33.0227 48.4434 32.9929L47.7198 32.8673C47.4727 32.8246 47.226 32.7815 46.9789 32.7389C46.952 32.7343 46.925 32.7294 46.8977 32.7249C46.8982 32.7044 46.8988 32.6841 46.8991 32.6637C46.9068 31.9234 46.7821 31.1693 46.5101 30.4333C46.5026 30.4132 46.4953 30.3933 46.4876 30.3731C46.2391 29.7212 45.8929 29.1344 45.4718 28.6232C45.423 28.5641 45.3732 28.5061 45.3224 28.4493C45.3388 28.4297 45.3551 28.4099 45.3715 28.3902C45.5314 28.1975 45.6911 28.0046 45.8511 27.8119C46.0072 27.6235 46.1634 27.4351 46.3195 27.2468C46.4315 27.1115 46.5438 26.9761 46.656 26.8411C46.6826 26.809 46.705 26.7749 46.7235 26.7393C46.7749 26.6403 46.795 26.5302 46.7848 26.4231C46.7818 26.3932 46.7768 26.3638 46.7693 26.3349C46.7603 26.3 46.7481 26.2661 46.7329 26.2336C46.6965 26.1559 46.6427 26.0869 46.5751 26.0324C46.4989 25.9707 46.4115 25.9318 46.3211 25.9148C46.2947 25.91 46.268 25.9069 46.2414 25.9058C46.2148 25.9046 46.1882 25.9051 46.1616 25.9077C46.0544 25.9179 45.9499 25.958 45.8619 26.0269C45.8303 26.0517 45.801 26.0801 45.7744 26.1122C45.6623 26.2475 45.55 26.3828 45.4379 26.5179C45.2817 26.7062 45.1257 26.8946 44.9695 27.083C44.8095 27.2757 44.6499 27.4685 44.4898 27.6613C44.4885 27.6628 44.4871 27.6645 44.4857 27.666C44.2503 27.4831 44.0031 27.3175 43.7453 27.1703C43.5908 27.0822 43.4329 27.0006 43.2718 26.926C42.9512 26.7772 42.6181 26.6556 42.276 26.5624C41.9969 26.4863 41.7124 26.4294 41.4236 26.3928C41.1989 26.3642 40.9719 26.3475 40.7433 26.3434C40.4734 26.3387 40.2013 26.3515 39.9291 26.3823C39.658 26.4132 39.3866 26.4623 39.1171 26.5296L43.4293 38.1975C43.6753 38.0751 43.9148 37.9371 44.1431 37.783Z" fill="white"/>
</mask>
<g mask="url(#mask0_1345_987)">
<path d="M50.4389 35.6862L45.8396 23.2258L38.829 25.8136L43.4284 38.2739L50.4389 35.6862Z" fill="#4FAF53"/>
<g opacity="0.8" filter="url(#filter0_f_1345_987)">
<path d="M46.169 31.0432C45.7538 32.5998 44.3752 29.1592 41.9758 28.5191C39.5764 27.8791 36.6673 30.1759 37.0825 28.6193C37.8467 27.4709 39.9252 26.5718 42.3245 27.2119C44.7238 27.8519 46.1727 29.8516 46.169 31.0432Z" fill="url(#paint0_linear_1345_987)" fill-opacity="0.3"/>
</g>
<g opacity="0.7" filter="url(#filter1_f_1345_987)">
<path d="M45.8558 30.1958C44.5289 29.2823 45.7163 32.7936 44.3082 34.839C42.9001 36.8845 39.1964 37.0286 40.5233 37.942C41.8505 38.3186 44.0145 37.6517 45.4226 35.6062C46.8307 33.5608 46.6329 31.0992 45.8558 30.1958Z" fill="url(#paint1_linear_1345_987)" fill-opacity="0.4"/>
</g>
<g opacity="0.6" filter="url(#filter2_f_1345_987)">
<path d="M40.6838 25.7724C39.0164 25.8489 37.6719 26.0677 37.6807 26.261C37.6896 26.4544 39.0486 26.5492 40.716 26.4727C42.3834 26.3963 44.7329 27.7524 44.724 27.5591C44.7152 27.3657 42.3513 25.6961 40.6838 25.7724Z" fill="#8BD8A0"/>
</g>
<g opacity="0.5" filter="url(#filter3_f_1345_987)">
<path d="M45.0836 37.6913C43.7663 38.7166 42.6022 39.424 42.4832 39.2711C42.3644 39.1184 43.3358 38.1634 44.6531 37.1382C45.9702 36.1129 46.8751 33.5556 46.9941 33.7083C47.1129 33.8611 46.4008 36.6661 45.0836 37.6913Z" fill="#8BD8A0"/>
</g>
<g opacity="0.7" filter="url(#filter4_f_1345_987)">
<path d="M45.5409 26.68C44.9427 27.4346 44.6508 27.776 44.5841 27.7232C44.5174 27.6702 44.7011 27.2431 45.2993 26.4885C45.661 25.5486 46.7829 25.9874 46.8496 26.0404C46.9163 26.0932 46.3054 25.6045 45.5409 26.68Z" fill="#0D652D"/>
</g>
<g opacity="0.1" filter="url(#filter5_f_1345_987)">
<path d="M44.4672 27.6623C44.5246 27.7048 44.9683 27.204 45.4582 26.5435C45.948 25.883 46.2986 25.3131 46.2412 25.2705C46.1838 25.2279 45.7401 25.7288 45.2502 26.3892C44.7604 27.0497 44.4098 27.6197 44.4672 27.6623Z" fill="black"/>
</g>
<g opacity="0.3" filter="url(#filter6_f_1345_987)">
<path d="M46.1499 27.1211C45.524 27.9104 45.2427 28.2867 45.296 28.329C45.3495 28.3713 45.7173 28.0636 46.3431 27.2743C47.2462 26.4026 46.2879 25.7852 46.2012 25.9132C45.9457 26.1941 47.0495 26.0751 46.1499 27.1211Z" fill="white"/>
</g>
<path opacity="0.15" d="M45.8331 25.4041C45.5595 25.6058 45.5302 26.0303 45.7675 26.3522C46.0049 26.6742 46.4191 26.7716 46.6927 26.5699C46.9663 26.3681 46.9957 25.9436 46.7583 25.6217C46.5209 25.2998 46.1067 25.2023 45.8331 25.4041Z" fill="url(#paint2_radial_1345_987)" fill-opacity="0.9"/>
<path opacity="0.15" d="M48.6732 32.824C48.3996 33.0257 48.3703 33.4502 48.6076 33.7721C48.845 34.0941 49.2592 34.1915 49.5328 33.9898C49.8064 33.788 49.8358 33.3635 49.5984 33.0416C49.361 32.7197 48.9468 32.6223 48.6732 32.824Z" fill="url(#paint3_radial_1345_987)" fill-opacity="0.9"/>
<g opacity="0.1" filter="url(#filter7_f_1345_987)">
<path d="M46.7041 33.8462C46.7189 33.7763 47.383 33.8581 48.1874 34.0289C48.9918 34.1997 49.6318 34.3949 49.617 34.4648C49.6021 34.5347 48.938 34.453 48.1336 34.2821C47.3293 34.1113 46.6892 33.9162 46.7041 33.8462Z" fill="black"/>
</g>
<mask id="mask1_1345_987" style="mask-type:alpha" maskUnits="userSpaceOnUse" x="46" y="32" width="2" height="3">
<path d="M46.7846 33.9398C46.8549 33.5997 46.9179 32.859 46.9407 32.5312L47.6665 32.4744L47.6063 34.5592C47.3031 34.4945 46.7142 34.2799 46.7846 33.9398Z" fill="black"/>
</mask>
<g mask="url(#mask1_1345_987)">
<g style="mix-blend-mode:multiply" opacity="0.3" filter="url(#filter8_f_1345_987)">
<path d="M46.8939 34.087C46.9204 33.5153 46.884 33.0491 46.8126 33.0458C46.7412 33.0425 46.706 33.4817 46.6794 34.0534C46.6529 34.6251 46.6452 35.1128 46.7165 35.1161C46.7879 35.1194 46.8673 34.6587 46.8939 34.087Z" fill="#0D652D"/>
</g>
<g style="mix-blend-mode:screen" opacity="0.3" filter="url(#filter9_f_1345_987)">
<path d="M46.9145 32.9292C46.9313 32.7664 46.9192 32.6317 46.8874 32.6285C46.8556 32.6252 46.836 32.7498 46.8192 32.9125C46.8024 33.0753 46.7946 33.2146 46.8264 33.2178C46.8582 33.2212 46.8976 33.0919 46.9145 32.9292Z" fill="#81C995"/>
</g>
</g>
<mask id="mask2_1345_987" style="mask-type:alpha" maskUnits="userSpaceOnUse" x="44" y="26" width="2" height="3">
<path d="M44.3168 27.5803C44.5956 27.7875 45.1353 28.2985 45.3704 28.5282L45.9502 28.0878L44.5182 26.5712C44.3349 26.8213 44.038 27.3732 44.3168 27.5803Z" fill="black"/>
</mask>
<g mask="url(#mask2_1345_987)">
<g style="mix-blend-mode:multiply" opacity="0.3" filter="url(#filter10_f_1345_987)">
<path d="M44.3442 27.359C44.7444 27.7682 45.0273 28.1404 44.9762 28.1904C44.9251 28.2404 44.6066 27.9359 44.2064 27.5268C43.8063 27.1176 43.476 26.7586 43.5272 26.7086C43.5783 26.6586 43.9441 26.9498 44.3442 27.359Z" fill="#0D652D"/>
</g>
<g style="mix-blend-mode:screen" opacity="0.3" filter="url(#filter11_f_1345_987)">
<path d="M45.13 28.2092C45.2508 28.3195 45.3313 28.4281 45.3098 28.4517C45.2882 28.4753 45.1908 28.3953 45.07 28.285C44.9491 28.1747 44.8506 28.0758 44.8721 28.0521C44.8937 28.0286 45.0091 28.0989 45.13 28.2092Z" fill="#81C995"/>
</g>
</g>
<g opacity="0.7" filter="url(#filter12_f_1345_987)">
<path d="M48.188 33.9531C47.2389 33.7902 46.7937 33.7307 46.7793 33.8145C46.7649 33.8984 47.1867 34.094 48.1357 34.2569C49.0324 34.7157 49.5751 33.6402 49.5895 33.5563C49.6039 33.4725 49.475 34.244 48.188 33.9531Z" fill="#0D652D"/>
</g>
<g opacity="0.3" filter="url(#filter13_f_1345_987)">
<path d="M48.3415 33.1921C47.3757 33.0264 46.9278 32.9354 46.9399 32.8649C46.952 32.7945 47.4194 32.7712 48.3853 32.937C49.9618 32.9503 50.1624 34.0563 49.3435 34.165C48.9832 34.1455 49.6729 33.362 48.3415 33.1921Z" fill="white"/>
</g>
</g>
<path d="M42.6442 28.8766C42.5681 29.0703 42.5926 29.2612 42.699 29.303C42.8054 29.3448 42.9533 29.2216 43.0293 29.0279C43.1054 28.8342 43.0809 28.6433 42.9745 28.6015C42.8681 28.5597 42.7202 28.6829 42.6442 28.8766Z" fill="url(#paint4_radial_1345_987)" fill-opacity="0.7"/>
<path d="M44.5704 34.1156C44.3868 34.0178 44.2814 33.8568 44.3351 33.756C44.3888 33.6551 44.5812 33.6527 44.7648 33.7504C44.9484 33.8482 45.0538 34.0092 45.0001 34.1101C44.9464 34.2109 44.754 34.2134 44.5704 34.1156Z" fill="url(#paint5_radial_1345_987)" fill-opacity="0.7"/>
<g style="mix-blend-mode:multiply" opacity="0.09" filter="url(#filter14_f_1345_987)">
<path d="M42.1437 29.4427C42.6442 29.4576 42.8465 29.1728 42.8852 29.0286C43.1709 28.5488 42.6913 28.2215 42.4684 28.153C42.2456 28.0845 41.868 28.0055 41.5163 28.3484C41.1645 28.6915 41.5181 29.424 42.1437 29.4427Z" fill="#011B04"/>
</g>
<g style="mix-blend-mode:multiply" opacity="0.09" filter="url(#filter15_f_1345_987)">
<path d="M43.8226 34.0111C44.1911 33.6754 44.5285 33.761 44.6511 33.8457C45.1779 34.0257 45.0277 34.5857 44.9038 34.7823C44.7798 34.9788 44.5458 35.2836 44.0578 35.2506C43.5697 35.2175 43.3621 34.4308 43.8226 34.0111Z" fill="#011B04"/>
</g>
<path d="M43.9162 35.1072C44.1997 35.3136 44.6316 35.2044 44.8808 34.8631C45.1299 34.5219 45.1021 34.0779 44.8186 33.8714C44.535 33.6649 44.1031 33.7742 43.854 34.1154C43.6049 34.4567 43.6327 34.9007 43.9162 35.1072Z" fill="black"/>
<g filter="url(#filter16_d_1345_987)">
<path d="M42.1059 29.3392C42.5173 29.4369 42.9151 29.2461 42.9944 28.913C43.0737 28.5799 42.8046 28.2307 42.3932 28.1329C41.9818 28.0351 41.5839 28.226 41.5046 28.5591C41.4252 28.8923 41.6944 29.2415 42.1059 29.3392Z" fill="black"/>
</g>
<g filter="url(#filter17_d_1345_987)">
<path d="M43.862 34.1119C44.1112 33.7708 44.5375 33.6577 44.8144 33.8594C45.0913 34.061 45.1139 34.5011 44.8648 34.8422C44.6158 35.1833 44.1894 35.2963 43.9124 35.0947C43.6356 34.8931 43.613 34.453 43.862 34.1119Z" fill="black"/>
</g>
<mask id="mask3_1345_987" style="mask-type:alpha" maskUnits="userSpaceOnUse" x="41" y="28" width="3" height="2">
<path d="M42.106 29.3392C42.5174 29.437 42.9152 29.2461 42.9946 28.913C43.0739 28.5799 42.8047 28.2306 42.3933 28.1329C41.9819 28.0352 41.584 28.226 41.5047 28.5591C41.4253 28.8922 41.6946 29.2414 42.106 29.3392Z" fill="#202124"/>
</mask>
<g mask="url(#mask3_1345_987)">
<g filter="url(#filter18_f_1345_987)">
<path d="M42.4394 28.2047C42.1044 28.0897 41.7955 28.1769 41.6771 28.2499C41.9068 28.1048 42.1585 28.0338 42.4779 28.1466C42.6542 28.2088 42.792 28.3515 42.874 28.4628C42.8879 28.4802 42.8989 28.4968 42.9084 28.5122C42.9272 28.5411 42.941 28.5658 42.9494 28.5835C42.9367 28.5638 42.9251 28.5396 42.9084 28.5122C42.8983 28.4968 42.8869 28.4802 42.874 28.4628C42.8133 28.3863 42.6997 28.294 42.4394 28.2047Z" fill="#D8D8D8" fill-opacity="0.29"/>
</g>
<g opacity="0.8" filter="url(#filter19_f_1345_987)">
<path d="M42.7263 29.1756C43.0583 28.9539 42.9866 28.643 42.9092 28.5154C43.0046 28.6148 43.0177 28.8525 42.9477 28.9807C42.8917 29.0833 42.7767 29.1534 42.7263 29.1756Z" fill="url(#paint6_linear_1345_987)"/>
</g>
</g>
<mask id="mask4_1345_987" style="mask-type:alpha" maskUnits="userSpaceOnUse" x="43" y="33" width="3" height="3">
<path d="M43.8627 34.1119C44.1118 33.7708 44.5381 33.6577 44.815 33.8594C45.092 34.061 45.1145 34.5011 44.8654 34.8422C44.6164 35.1833 44.1899 35.2963 43.913 35.0947C43.6362 34.8931 43.6136 34.453 43.8627 34.1119Z" fill="#202124"/>
</mask>
<g mask="url(#mask4_1345_987)">
<path d="M44.903 34.1205C44.768 33.815 44.4865 33.8028 44.3625 33.8348C44.4481 33.8392 44.6465 33.8939 44.7555 34.0779C44.8644 34.2619 44.7345 34.607 44.6559 34.7565L44.8021 34.8145C44.8919 34.7104 45.0379 34.4259 44.903 34.1205Z" fill="url(#paint7_linear_1345_987)"/>
<g filter="url(#filter20_f_1345_987)">
<path d="M44.8505 34.7592C44.6706 35.0642 44.3792 35.1986 44.2419 35.2199C44.5107 35.1811 44.748 35.0716 44.9174 34.7784C45.011 34.6167 45.023 34.4187 45.0131 34.2809C45.0124 34.2587 45.01 34.2389 45.0071 34.2209C45.0027 34.1867 44.9971 34.159 44.9919 34.1403C44.9952 34.1634 45.002 34.1893 45.0071 34.2209C45.0095 34.2392 45.0116 34.2593 45.0131 34.2809C45.0167 34.3784 44.9903 34.5224 44.8505 34.7592Z" fill="#D8D8D8" fill-opacity="0.29"/>
</g>
</g>
<g opacity="0.8" filter="url(#filter21_f_1345_987)">
<path d="M42.6409 28.4461C42.5713 28.3329 42.4092 28.2886 42.3369 28.2806L42.2678 28.3756C42.2919 28.3782 42.3569 28.3912 42.4238 28.422C42.4907 28.4529 42.5707 28.5066 42.6023 28.5297L42.6409 28.4461Z" fill="#E2DCE1"/>
</g>
<g opacity="0.8" filter="url(#filter22_f_1345_987)">
<path d="M44.8493 34.4498C44.8705 34.5793 44.7809 34.7152 44.7334 34.7671L44.6233 34.739C44.6391 34.7219 44.678 34.6709 44.707 34.6053C44.736 34.5396 44.76 34.4484 44.7684 34.411L44.8493 34.4498Z" fill="#E2DCE1"/>
</g>
<g opacity="0.8" filter="url(#filter23_f_1345_987)">
<path d="M42.1653 29.1913C42.1107 29.1448 42.0354 29.0694 42.0045 29.0374L41.8857 29.0396C41.9488 29.1204 42.0272 29.1694 42.0586 29.1838L42.1653 29.1913Z" fill="#E2DCE1"/>
</g>
<g opacity="0.8" filter="url(#filter24_f_1345_987)">
<path d="M42.695 29.2036C42.7216 29.1854 42.7581 29.1491 42.7731 29.1332L42.7319 29.1484C42.7057 29.1789 42.6537 29.2136 42.631 29.2272C42.6412 29.2269 42.6685 29.2218 42.695 29.2036Z" fill="#E2DCE1"/>
</g>
<g opacity="0.8" filter="url(#filter25_f_1345_987)">
<path d="M43.9963 34.1813C43.985 34.2521 43.9768 34.3585 43.9742 34.403L43.8825 34.4784C43.8779 34.376 43.9056 34.2876 43.9201 34.2563L43.9963 34.1813Z" fill="#E2DCE1"/>
</g>
<g opacity="0.8" filter="url(#filter26_f_1345_987)">
<path d="M44.3908 33.8274C44.4228 33.824 44.4741 33.8279 44.4959 33.8303L44.4547 33.8456C44.415 33.8393 44.3529 33.8466 44.3268 33.8511C44.3348 33.8447 44.3588 33.8309 44.3908 33.8274Z" fill="#E2DCE1"/>
</g>
<g opacity="0.3" filter="url(#filter27_f_1345_987)">
<path d="M45.1615 35.9405C43.6501 36.4983 45.6671 33.3887 44.8073 31.0591C43.9473 28.7294 40.3937 27.676 41.9049 27.1182C43.2839 27.0808 45.2166 28.2609 46.0765 30.5905C46.9364 32.9202 46.1373 35.2567 45.1615 35.9405Z" fill="url(#paint8_linear_1345_987)" fill-opacity="0.4"/>
</g>
<g opacity="0.2" filter="url(#filter28_f_1345_987)">
<path d="M45.1615 35.9405C43.6501 36.4983 45.6671 33.3887 44.8073 31.0591C43.9473 28.7294 40.3937 27.676 41.9049 27.1182C43.2839 27.0808 45.2166 28.2609 46.0765 30.5905C46.9364 32.9202 46.1373 35.2567 45.1615 35.9405Z" fill="url(#paint9_linear_1345_987)" fill-opacity="0.4"/>
</g>
<path fill-rule="evenodd" clip-rule="evenodd" d="M18.1671 28.4399C18.8336 28.5995 19.3909 29.0121 19.7164 29.5871L19.7161 29.5873C23.1036 35.1488 31.0895 37.5504 37.4923 34.8145L39.5936 39.7323C30.9327 43.4332 19.9839 40.3734 15.117 32.3171L15.1173 32.3169C14.7933 31.7422 14.6711 30.9549 14.8768 30.3027C15.083 29.6491 15.5454 29.0857 16.1625 28.7363C16.7795 28.387 17.5006 28.2804 18.1671 28.4399Z" fill="#202124"/>
<mask id="mask5_1345_987" style="mask-type:alpha" maskUnits="userSpaceOnUse" x="14" y="28" width="26" height="14">
<path fill-rule="evenodd" clip-rule="evenodd" d="M18.1671 28.4399C18.8336 28.5995 19.3909 29.0121 19.7164 29.5871L19.7161 29.5873C23.1036 35.1488 31.0895 37.5504 37.4923 34.8145L39.5936 39.7323C30.9327 43.4332 19.9839 40.3734 15.117 32.3171L15.1173 32.3169C14.7933 31.7422 14.6711 30.9549 14.8768 30.3027C15.083 29.6491 15.5454 29.0857 16.1625 28.7363C16.7795 28.387 17.5006 28.2804 18.1671 28.4399Z" fill="white"/>
</mask>
<g mask="url(#mask5_1345_987)">
<path d="M19.7164 29.5871L20.2651 30.395L21.0098 29.8894L20.5663 29.106L19.7164 29.5871ZM19.7161 29.5873L19.1675 28.7794L18.3986 29.3016L18.8821 30.0953L19.7161 29.5873ZM37.4923 34.8146L38.3903 34.4309L38.0066 33.5328L37.1085 33.9165L37.4923 34.8146ZM39.5937 39.7323L39.9774 40.6304L40.8754 40.2467L40.4917 39.3486L39.5937 39.7323ZM15.117 32.3171L14.6121 31.4812L13.7761 31.986L14.2811 32.822L15.117 32.3171ZM15.1173 32.3169L15.6222 33.1527L16.4334 32.6628L15.968 31.8373L15.1173 32.3169ZM20.5663 29.106C20.1018 28.2855 19.3134 27.7102 18.3945 27.4902L17.9398 29.3897C18.3538 29.4888 18.6801 29.7388 18.8666 30.0683L20.5663 29.106ZM20.2647 30.3952L20.2651 30.395L19.1679 28.7792L19.1675 28.7794L20.2647 30.3952ZM18.8821 30.0953C22.5416 36.1034 31.0622 38.624 37.876 35.7126L37.1085 33.9165C31.1169 36.4768 23.6655 34.1941 20.5501 29.0793L18.8821 30.0953ZM36.5943 35.1983L38.6956 40.1161L40.4917 39.3486L38.3903 34.4309L36.5943 35.1983ZM39.21 38.8344C30.9577 42.3606 20.5467 39.4164 15.9529 31.8121L14.2811 32.822C19.4211 41.3304 30.9078 44.5058 39.9774 40.6304L39.21 38.8344ZM15.6219 33.1529L15.6222 33.1527L14.6124 31.481L14.6121 31.4812L15.6219 33.1529ZM13.9455 30.009C13.6482 30.9517 13.8277 32.0179 14.2666 32.7964L15.968 31.8373C15.759 31.4666 15.6941 30.9582 15.8082 30.5965L13.9455 30.009ZM15.6814 27.8865C14.8576 28.3529 14.2288 29.1108 13.9455 30.009L15.8082 30.5965C15.9372 30.1874 16.2334 29.8185 16.6437 29.5861L15.6814 27.8865ZM18.3945 27.4902C17.4787 27.271 16.5052 27.4201 15.6814 27.8865L16.6437 29.5861C17.0539 29.3539 17.5226 29.2899 17.9398 29.3897L18.3945 27.4902Z" fill="white"/>
</g>
<path d="M18.6678 49.5024C18.5642 49.8688 18.7493 50.2552 19.0999 50.4039C19.4504 50.5527 19.8568 50.4176 20.0485 50.0885L21.7732 47.1272L19.5999 46.2046L18.6678 49.5024Z" fill="white"/>
<path d="M33.3672 13.2012C33.3672 12.4191 32.7332 11.7852 31.9512 11.7852C31.1691 11.7852 30.5352 12.4191 30.5352 13.2012V16.8145C30.5352 17.5965 31.1691 18.2305 31.9512 18.2305C32.7332 18.2305 33.3672 17.5965 33.3672 16.8145V13.2012Z" fill="#202124"/>
<path fill-rule="evenodd" clip-rule="evenodd" d="M31.9512 12.2734C31.4388 12.2734 31.0234 12.6888 31.0234 13.2012V16.8145C31.0234 17.3268 31.4388 17.7422 31.9512 17.7422C32.4635 17.7422 32.8789 17.3268 32.8789 16.8145V13.2012C32.8789 12.6888 32.4635 12.2734 31.9512 12.2734ZM30.0469 13.2012C30.0469 12.1495 30.8995 11.2969 31.9512 11.2969C33.0029 11.2969 33.8555 12.1495 33.8555 13.2012V16.8145C33.8555 17.8662 33.0029 18.7188 31.9512 18.7188C30.8995 18.7188 30.0469 17.8662 30.0469 16.8145V13.2012Z" fill="white"/>
<path d="M28.2186 18.8524C28.6982 17.5346 30.1552 16.8552 31.4729 17.3348C32.7907 17.8144 33.4701 19.2715 32.9905 20.5892L24.106 44.9992C23.6264 46.3169 22.1693 46.9963 20.8516 46.5167C19.5339 46.0371 18.8545 44.5801 19.3341 43.2624L28.2186 18.8524Z" fill="#202124"/>
<path fill-rule="evenodd" clip-rule="evenodd" d="M31.306 17.7936C32.3703 18.181 32.919 19.3578 32.5317 20.4221L23.6472 44.8321C23.2598 45.8964 22.083 46.4452 21.0186 46.0578C19.9543 45.6705 19.4056 44.4936 19.7929 43.4293L28.6775 19.0193C29.0648 17.955 30.2417 17.4063 31.306 17.7936ZM33.4493 20.7562C34.0212 19.185 33.2111 17.4478 31.64 16.876C30.0688 16.3041 28.3316 17.1142 27.7598 18.6853L18.8753 43.0953C18.3034 44.6664 19.1135 46.4037 20.6846 46.9755C22.2558 47.5473 23.993 46.7373 24.5648 45.1661L33.4493 20.7562Z" fill="white"/>
<path d="M35.8418 18.8364L44.8025 43.2919C45.2791 44.5927 44.6092 46.0333 43.3074 46.5072C42.0095 46.9795 40.5742 46.3122 40.0991 45.0153L31.1383 20.5597C30.6617 19.2589 31.3316 17.8183 32.6335 17.3445C33.9313 16.8721 35.3666 17.5395 35.8418 18.8364Z" fill="#202124"/>
<path fill-rule="evenodd" clip-rule="evenodd" d="M35.3832 19.0044C35.0006 17.9603 33.8452 17.423 32.8004 17.8033L32.8003 17.8033C31.7523 18.1848 31.213 19.3446 31.5967 20.3917L31.5967 20.3917L40.5574 44.8473L40.5575 44.8473C40.9399 45.8913 42.0954 46.4286 43.1403 46.0483C44.1883 45.6669 44.7276 44.5071 44.3439 43.4599L35.3832 19.0044ZM32.4663 16.8856C34.0172 16.3212 35.7323 17.1187 36.3001 18.6684L36.3001 18.6684L45.2609 43.124L44.8024 43.2919L45.2609 43.124C45.8303 44.6783 45.0299 46.3998 43.4743 46.966C41.9234 47.5305 40.2082 46.733 39.6405 45.1833M39.6405 45.1832L30.6798 20.7277C30.6798 20.7277 30.6798 20.7277 30.6798 20.7277C30.1102 19.1733 30.9107 17.4518 32.4663 16.8856" fill="white"/>
<path d="M32 24.0637C34.0495 24.0637 35.7109 22.4023 35.7109 20.3528C35.7109 18.3033 34.0495 16.6418 32 16.6418C29.9505 16.6418 28.2891 18.3033 28.2891 20.3528C28.2891 22.4023 29.9505 24.0637 32 24.0637Z" fill="#202124"/>
<path fill-rule="evenodd" clip-rule="evenodd" d="M32 17.6184C30.4898 17.6184 29.2656 18.8426 29.2656 20.3528C29.2656 21.8629 30.4898 23.0872 32 23.0872C33.5102 23.0872 34.7344 21.8629 34.7344 20.3528C34.7344 18.8426 33.5102 17.6184 32 17.6184ZM27.3125 20.3528C27.3125 17.7639 29.4112 15.6653 32 15.6653C34.5888 15.6653 36.6875 17.7639 36.6875 20.3528C36.6875 22.9416 34.5888 25.0403 32 25.0403C29.4112 25.0403 27.3125 22.9416 27.3125 20.3528Z" fill="white"/>
</g>
<defs>
<filter id="filter0_f_1345_987" x="36.8085" y="26.7646" width="9.59473" height="4.91308" filterUnits="userSpaceOnUse" color-interpolation-filters="sRGB">
<feFlood flood-opacity="0" result="BackgroundImageFix"/>
<feBlend mode="normal" in="SourceGraphic" in2="BackgroundImageFix" result="shape"/>
<feGaussianBlur stdDeviation="0.117065" result="effect1_foregroundBlur_1345_987"/>
</filter>
<filter id="filter1_f_1345_987" x="39.8898" y="29.6959" width="6.92248" height="8.69726" filterUnits="userSpaceOnUse" color-interpolation-filters="sRGB">
<feFlood flood-opacity="0" result="BackgroundImageFix"/>
<feBlend mode="normal" in="SourceGraphic" in2="BackgroundImageFix" result="shape"/>
<feGaussianBlur stdDeviation="0.175598" result="effect1_foregroundBlur_1345_987"/>
</filter>
<filter id="filter2_f_1345_987" x="37.5051" y="25.5943" width="7.39453" height="2.1593" filterUnits="userSpaceOnUse" color-interpolation-filters="sRGB">
<feFlood flood-opacity="0" result="BackgroundImageFix"/>
<feBlend mode="normal" in="SourceGraphic" in2="BackgroundImageFix" result="shape"/>
<feGaussianBlur stdDeviation="0.0877992" result="effect1_foregroundBlur_1345_987"/>
</filter>
<filter id="filter3_f_1345_987" x="42.2978" y="33.5262" width="4.88477" height="5.94128" filterUnits="userSpaceOnUse" color-interpolation-filters="sRGB">
<feFlood flood-opacity="0" result="BackgroundImageFix"/>
<feBlend mode="normal" in="SourceGraphic" in2="BackgroundImageFix" result="shape"/>
<feGaussianBlur stdDeviation="0.0877992" result="effect1_foregroundBlur_1345_987"/>
</filter>
<filter id="filter4_f_1345_987" x="44.337" y="25.658" width="2.75159" height="2.30469" filterUnits="userSpaceOnUse" color-interpolation-filters="sRGB">
<feFlood flood-opacity="0" result="BackgroundImageFix"/>
<feBlend mode="normal" in="SourceGraphic" in2="BackgroundImageFix" result="shape"/>
<feGaussianBlur stdDeviation="0.117065" result="effect1_foregroundBlur_1345_987"/>
</filter>
<filter id="filter5_f_1345_987" x="44.4025" y="25.2094" width="1.90332" height="2.51392" filterUnits="userSpaceOnUse" color-interpolation-filters="sRGB">
<feFlood flood-opacity="0" result="BackgroundImageFix"/>
<feBlend mode="normal" in="SourceGraphic" in2="BackgroundImageFix" result="shape"/>
<feGaussianBlur stdDeviation="0.0292663" result="effect1_foregroundBlur_1345_987"/>
</filter>
<filter id="filter6_f_1345_987" x="45.1141" y="25.7208" width="1.78943" height="2.7876" filterUnits="userSpaceOnUse" color-interpolation-filters="sRGB">
<feFlood flood-opacity="0" result="BackgroundImageFix"/>
<feBlend mode="normal" in="SourceGraphic" in2="BackgroundImageFix" result="shape"/>
<feGaussianBlur stdDeviation="0.0877992" result="effect1_foregroundBlur_1345_987"/>
</filter>
<filter id="filter7_f_1345_987" x="46.6453" y="33.7626" width="3.0304" height="0.785767" filterUnits="userSpaceOnUse" color-interpolation-filters="sRGB">
<feFlood flood-opacity="0" result="BackgroundImageFix"/>
<feBlend mode="normal" in="SourceGraphic" in2="BackgroundImageFix" result="shape"/>
<feGaussianBlur stdDeviation="0.0292663" result="effect1_foregroundBlur_1345_987"/>
</filter>
<filter id="filter8_f_1345_987" x="46.5433" y="32.9287" width="0.476318" height="2.30444" filterUnits="userSpaceOnUse" color-interpolation-filters="sRGB">
<feFlood flood-opacity="0" result="BackgroundImageFix"/>
<feBlend mode="normal" in="SourceGraphic" in2="BackgroundImageFix" result="shape"/>
<feGaussianBlur stdDeviation="0.0585326" result="effect1_foregroundBlur_1345_987"/>
</filter>
<filter id="filter9_f_1345_987" x="46.7343" y="32.5582" width="0.258032" height="0.729956" filterUnits="userSpaceOnUse" color-interpolation-filters="sRGB">
<feFlood flood-opacity="0" result="BackgroundImageFix"/>
<feBlend mode="normal" in="SourceGraphic" in2="BackgroundImageFix" result="shape"/>
<feGaussianBlur stdDeviation="0.0351196" result="effect1_foregroundBlur_1345_987"/>
</filter>
<filter id="filter10_f_1345_987" x="43.4049" y="26.5859" width="1.69434" height="1.72693" filterUnits="userSpaceOnUse" color-interpolation-filters="sRGB">
<feFlood flood-opacity="0" result="BackgroundImageFix"/>
<feBlend mode="normal" in="SourceGraphic" in2="BackgroundImageFix" result="shape"/>
<feGaussianBlur stdDeviation="0.0585326" result="effect1_foregroundBlur_1345_987"/>
</filter>
<filter id="filter11_f_1345_987" x="44.7989" y="27.9774" width="0.58457" height="0.548681" filterUnits="userSpaceOnUse" color-interpolation-filters="sRGB">
<feFlood flood-opacity="0" result="BackgroundImageFix"/>
<feBlend mode="normal" in="SourceGraphic" in2="BackgroundImageFix" result="shape"/>
<feGaussianBlur stdDeviation="0.0351196" result="effect1_foregroundBlur_1345_987"/>
</filter>
<filter id="filter12_f_1345_987" x="46.5448" y="33.3158" width="3.27991" height="1.28869" filterUnits="userSpaceOnUse" color-interpolation-filters="sRGB">
<feFlood flood-opacity="0" result="BackgroundImageFix"/>
<feBlend mode="normal" in="SourceGraphic" in2="BackgroundImageFix" result="shape"/>
<feGaussianBlur stdDeviation="0.117065" result="effect1_foregroundBlur_1345_987"/>
</filter>
<filter id="filter13_f_1345_987" x="46.7641" y="32.6358" width="3.22742" height="1.70483" filterUnits="userSpaceOnUse" color-interpolation-filters="sRGB">
<feFlood flood-opacity="0" result="BackgroundImageFix"/>
<feBlend mode="normal" in="SourceGraphic" in2="BackgroundImageFix" result="shape"/>
<feGaussianBlur stdDeviation="0.0877992" result="effect1_foregroundBlur_1345_987"/>
</filter>
<filter id="filter14_f_1345_987" x="41.342" y="28.058" width="1.66667" height="1.42034" filterUnits="userSpaceOnUse" color-interpolation-filters="sRGB">
<feFlood flood-opacity="0" result="BackgroundImageFix"/>
<feBlend mode="normal" in="SourceGraphic" in2="BackgroundImageFix" result="shape"/>
<feGaussianBlur stdDeviation="0.0175598" result="effect1_foregroundBlur_1345_987"/>
</filter>
<filter id="filter15_f_1345_987" x="43.5306" y="33.7342" width="1.52764" height="1.554" filterUnits="userSpaceOnUse" color-interpolation-filters="sRGB">
<feFlood flood-opacity="0" result="BackgroundImageFix"/>
<feBlend mode="normal" in="SourceGraphic" in2="BackgroundImageFix" result="shape"/>
<feGaussianBlur stdDeviation="0.0175598" result="effect1_foregroundBlur_1345_987"/>
</filter>
<filter id="filter16_d_1345_987" x="41.4732" y="28.1073" width="1.54099" height="1.28086" filterUnits="userSpaceOnUse" color-interpolation-filters="sRGB">
<feFlood flood-opacity="0" result="BackgroundImageFix"/>
<feColorMatrix in="SourceAlpha" type="matrix" values="0 0 0 0 0 0 0 0 0 0 0 0 0 0 0 0 0 0 127 0" result="hardAlpha"/>
<feOffset dx="-0.00585326" dy="0.0117065"/>
<feGaussianBlur stdDeviation="0.00585326"/>
<feComposite in2="hardAlpha" operator="out"/>
<feColorMatrix type="matrix" values="0 0 0 0 0.0156863 0 0 0 0 0.231373 0 0 0 0 0.0666667 0 0 0 0.7 0"/>
<feBlend mode="normal" in2="BackgroundImageFix" result="effect1_dropShadow_1345_987"/>
<feBlend mode="normal" in="SourceGraphic" in2="effect1_dropShadow_1345_987" result="shape"/>
</filter>
<filter id="filter17_d_1345_987" x="43.6715" y="33.7594" width="1.37217" height="1.45859" filterUnits="userSpaceOnUse" color-interpolation-filters="sRGB">
<feFlood flood-opacity="0" result="BackgroundImageFix"/>
<feColorMatrix in="SourceAlpha" type="matrix" values="0 0 0 0 0 0 0 0 0 0 0 0 0 0 0 0 0 0 127 0" result="hardAlpha"/>
<feOffset dx="-0.00585326" dy="0.0117065"/>
<feGaussianBlur stdDeviation="0.00585326"/>
<feComposite in2="hardAlpha" operator="out"/>
<feColorMatrix type="matrix" values="0 0 0 0 0.0156863 0 0 0 0 0.231373 0 0 0 0 0.0666667 0 0 0 0.7 0"/>
<feBlend mode="normal" in2="BackgroundImageFix" result="effect1_dropShadow_1345_987"/>
<feBlend mode="normal" in="SourceGraphic" in2="effect1_dropShadow_1345_987" result="shape"/>
</filter>
<filter id="filter18_f_1345_987" x="41.6654" y="28.0792" width="1.29563" height="0.515967" filterUnits="userSpaceOnUse" color-interpolation-filters="sRGB">
<feFlood flood-opacity="0" result="BackgroundImageFix"/>
<feBlend mode="normal" in="SourceGraphic" in2="BackgroundImageFix" result="shape"/>
<feGaussianBlur stdDeviation="0.00585326" result="effect1_foregroundBlur_1345_987"/>
</filter>
<filter id="filter19_f_1345_987" x="42.7234" y="28.5125" width="0.2716" height="0.666132" filterUnits="userSpaceOnUse" color-interpolation-filters="sRGB">
<feFlood flood-opacity="0" result="BackgroundImageFix"/>
<feBlend mode="normal" in="SourceGraphic" in2="BackgroundImageFix" result="shape"/>
<feGaussianBlur stdDeviation="0.00146331" result="effect1_foregroundBlur_1345_987"/>
</filter>
<filter id="filter20_f_1345_987" x="44.2302" y="34.1286" width="0.797461" height="1.10312" filterUnits="userSpaceOnUse" color-interpolation-filters="sRGB">
<feFlood flood-opacity="0" result="BackgroundImageFix"/>
<feBlend mode="normal" in="SourceGraphic" in2="BackgroundImageFix" result="shape"/>
<feGaussianBlur stdDeviation="0.00585326" result="effect1_foregroundBlur_1345_987"/>
</filter>
<filter id="filter21_f_1345_987" x="42.2561" y="28.2689" width="0.39646" height="0.272436" filterUnits="userSpaceOnUse" color-interpolation-filters="sRGB">
<feFlood flood-opacity="0" result="BackgroundImageFix"/>
<feBlend mode="normal" in="SourceGraphic" in2="BackgroundImageFix" result="shape"/>
<feGaussianBlur stdDeviation="0.00585326" result="effect1_foregroundBlur_1345_987"/>
</filter>
<filter id="filter22_f_1345_987" x="44.6116" y="34.3993" width="0.252539" height="0.379492" filterUnits="userSpaceOnUse" color-interpolation-filters="sRGB">
<feFlood flood-opacity="0" result="BackgroundImageFix"/>
<feBlend mode="normal" in="SourceGraphic" in2="BackgroundImageFix" result="shape"/>
<feGaussianBlur stdDeviation="0.00585326" result="effect1_foregroundBlur_1345_987"/>
</filter>
<filter id="filter23_f_1345_987" x="41.8799" y="29.0315" width="0.291248" height="0.165637" filterUnits="userSpaceOnUse" color-interpolation-filters="sRGB">
<feFlood flood-opacity="0" result="BackgroundImageFix"/>
<feBlend mode="normal" in="SourceGraphic" in2="BackgroundImageFix" result="shape"/>
<feGaussianBlur stdDeviation="0.00292663" result="effect1_foregroundBlur_1345_987"/>
</filter>
<filter id="filter24_f_1345_987" x="42.6251" y="29.1273" width="0.153796" height="0.105701" filterUnits="userSpaceOnUse" color-interpolation-filters="sRGB">
<feFlood flood-opacity="0" result="BackgroundImageFix"/>
<feBlend mode="normal" in="SourceGraphic" in2="BackgroundImageFix" result="shape"/>
<feGaussianBlur stdDeviation="0.00292663" result="effect1_foregroundBlur_1345_987"/>
</filter>
<filter id="filter25_f_1345_987" x="43.8761" y="34.1754" width="0.126086" height="0.308826" filterUnits="userSpaceOnUse" color-interpolation-filters="sRGB">
<feFlood flood-opacity="0" result="BackgroundImageFix"/>
<feBlend mode="normal" in="SourceGraphic" in2="BackgroundImageFix" result="shape"/>
<feGaussianBlur stdDeviation="0.00292663" result="effect1_foregroundBlur_1345_987"/>
</filter>
<filter id="filter26_f_1345_987" x="44.3209" y="33.8202" width="0.180896" height="0.036731" filterUnits="userSpaceOnUse" color-interpolation-filters="sRGB">
<feFlood flood-opacity="0" result="BackgroundImageFix"/>
<feBlend mode="normal" in="SourceGraphic" in2="BackgroundImageFix" result="shape"/>
<feGaussianBlur stdDeviation="0.00292663" result="effect1_foregroundBlur_1345_987"/>
</filter>
<filter id="filter27_f_1345_987" x="41.301" y="26.8832" width="5.37561" height="9.35718" filterUnits="userSpaceOnUse" color-interpolation-filters="sRGB">
<feFlood flood-opacity="0" result="BackgroundImageFix"/>
<feBlend mode="normal" in="SourceGraphic" in2="BackgroundImageFix" result="shape"/>
<feGaussianBlur stdDeviation="0.117065" result="effect1_foregroundBlur_1345_987"/>
</filter>
<filter id="filter28_f_1345_987" x="41.301" y="26.8832" width="5.37561" height="9.35718" filterUnits="userSpaceOnUse" color-interpolation-filters="sRGB">
<feFlood flood-opacity="0" result="BackgroundImageFix"/>
<feBlend mode="normal" in="SourceGraphic" in2="BackgroundImageFix" result="shape"/>
<feGaussianBlur stdDeviation="0.117065" result="effect1_foregroundBlur_1345_987"/>
</filter>
<linearGradient id="paint0_linear_1345_987" x1="42.3467" y1="27.1284" x2="41.7667" y2="29.3028" gradientUnits="userSpaceOnUse">
<stop stop-color="#A8F0B9"/>
<stop offset="1" stop-color="#ADEEBC" stop-opacity="0"/>
</linearGradient>
<linearGradient id="paint1_linear_1345_987" x1="45.4937" y1="35.6552" x2="43.64" y2="34.379" gradientUnits="userSpaceOnUse">
<stop stop-color="#A8F0B9"/>
<stop offset="1" stop-color="#ADEEBC" stop-opacity="0"/>
</linearGradient>
<radialGradient id="paint2_radial_1345_987" cx="0" cy="0" r="1" gradientUnits="userSpaceOnUse" gradientTransform="translate(46.2629 25.987) rotate(-126.921) scale(0.455257 0.329905)">
<stop stop-color="white"/>
<stop offset="0.948484" stop-color="white" stop-opacity="0"/>
</radialGradient>
<radialGradient id="paint3_radial_1345_987" cx="0" cy="0" r="1" gradientUnits="userSpaceOnUse" gradientTransform="translate(49.103 33.4069) rotate(-126.921) scale(0.455257 0.329905)">
<stop stop-color="white"/>
<stop offset="0.948484" stop-color="white" stop-opacity="0"/>
</radialGradient>
<radialGradient id="paint4_radial_1345_987" cx="0" cy="0" r="1" gradientUnits="userSpaceOnUse" gradientTransform="translate(42.8368 28.9522) rotate(-157.024) scale(0.177616 0.323493)">
<stop stop-color="#93E19F"/>
<stop offset="1" stop-color="#93E19F" stop-opacity="0"/>
</radialGradient>
<radialGradient id="paint5_radial_1345_987" cx="0" cy="0" r="1" gradientUnits="userSpaceOnUse" gradientTransform="translate(44.6676 33.933) rotate(116.504) scale(0.177542 0.323361)">
<stop stop-color="#93E19F"/>
<stop offset="1" stop-color="#93E19F" stop-opacity="0"/>
</radialGradient>
<linearGradient id="paint6_linear_1345_987" x1="43.0684" y1="28.4985" x2="42.5606" y2="28.7124" gradientUnits="userSpaceOnUse">
<stop stop-color="#E2DDE2"/>
<stop offset="1" stop-color="#E2DDE2" stop-opacity="0"/>
</linearGradient>
<linearGradient id="paint7_linear_1345_987" x1="44.9321" y1="34.1956" x2="44.5068" y2="34.3526" gradientUnits="userSpaceOnUse">
<stop stop-color="#373637"/>
<stop offset="1" stop-color="#373637" stop-opacity="0"/>
</linearGradient>
<linearGradient id="paint8_linear_1345_987" x1="46.1576" y1="30.5607" x2="44.0463" y2="31.3399" gradientUnits="userSpaceOnUse">
<stop stop-color="#A8F0B9"/>
<stop offset="1" stop-color="#ADEEBC" stop-opacity="0"/>
</linearGradient>
<linearGradient id="paint9_linear_1345_987" x1="46.1576" y1="30.5607" x2="44.0463" y2="31.3399" gradientUnits="userSpaceOnUse">
<stop stop-color="#A8F0B9"/>
<stop offset="1" stop-color="#ADEEBC" stop-opacity="0"/>
</linearGradient>
<clipPath id="clip0_1345_987">
<rect x="2" y="2" width="60" height="60" rx="2.34375" fill="white"/>
</clipPath>
</defs>
</svg>
