<svg width="16" height="17" viewBox="0 0 16 17" fill="none" xmlns="http://www.w3.org/2000/svg">
<g clip-path="url(#clip0_2_1646)">
<g clip-path="url(#clip1_2_1646)">
<path fill-rule="evenodd" clip-rule="evenodd" d="M12.157 7.25877C12.4154 7.0496 12.4566 6.66897 12.249 6.40861C12.0415 6.14824 11.6638 6.10674 11.4055 6.31591L8.92772 8.32209C8.6568 8.15756 8.33937 8.0629 8.00001 8.0629C7.0059 8.0629 6.20001 8.87513 6.20001 9.87706C6.20001 10.879 7.0059 11.6912 8.00001 11.6912C8.99413 11.6912 9.80001 10.879 9.80001 9.87706C9.80001 9.65857 9.76169 9.44909 9.69144 9.2551L12.157 7.25877ZM8.80001 9.87706C8.80001 10.3224 8.44184 10.6833 8.00001 10.6833C7.55818 10.6833 7.20001 10.3224 7.20001 9.87706C7.20001 9.43176 7.55818 9.07077 8.00001 9.07077C8.44184 9.07077 8.80001 9.43176 8.80001 9.87706Z" fill="#6C707E"/>
<path fill-rule="evenodd" clip-rule="evenodd" d="M8 3.52752C4.41015 3.52752 1.5 6.46055 1.5 10.0786C1.5 10.9765 1.76974 12.1824 2.13917 13.1022H13.8608C14.2303 12.1824 14.5 10.9765 14.5 10.0786C14.5 6.46055 11.5899 3.52752 8 3.52752ZM0.5 10.0786C0.5 5.90392 3.85786 2.51965 8 2.51965C12.1421 2.51965 15.5 5.90392 15.5 10.0786C15.5 11.2481 15.1228 12.7803 14.6336 13.8383C14.5554 14.0076 14.3841 14.1101 14.1987 14.1101H1.80126C1.61594 14.1101 1.44463 14.0076 1.36637 13.8383C0.877241 12.7803 0.5 11.2481 0.5 10.0786Z" fill="#6C707E"/>
</g>
</g>
<defs>
<clipPath id="clip0_2_1646">
<rect width="16" height="16.1258" fill="white"/>
</clipPath>
<clipPath id="clip1_2_1646">
<rect width="16" height="16.1258" fill="white"/>
</clipPath>
</defs>
</svg>
