<svg width="20" height="20" viewBox="0 0 20 20" fill="none" xmlns="http://www.w3.org/2000/svg"><g clip-path="url(#clip0_3754_1937)"><g clip-path="url(#clip1_3754_1937)" fill-rule="evenodd" clip-rule="evenodd" fill="#6C707E"><path d="M10 4a8 8 0 0 0-8 8c0 1.19.258 2.454.7 3.5h14.6c.442-1.046.7-2.31.7-3.5a8 8 0 0 0-8-8zM.5 12a9.5 9.5 0 1 1 19 0c0 1.628-.41 3.382-1.131 4.748a.481.481 0 0 1-.428.252H2.059a.481.481 0 0 1-.428-.252C.91 15.382.5 13.628.5 12z"/><path d="M14.871 8.623a.85.85 0 1 0-1.086-1.308L11 9.628a2.3 2.3 0 1 0 1.15 1.254l2.722-2.26zM10.8 11.7a.8.8 0 1 1-1.6 0 .8.8 0 0 1 1.6 0z"/></g></g><defs><clipPath id="clip0_3754_1937"><path fill="#fff" d="M0 0h20v20H0z"/></clipPath><clipPath id="clip1_3754_1937"><path fill="#fff" d="M0 0h20v20H0z"/></clipPath></defs></svg>