<svg width="16" height="17" viewBox="0 0 16 17" fill="none" xmlns="http://www.w3.org/2000/svg">
<path d="M11.0858 2.12585H4.91421C4.649 2.12585 4.39464 2.23121 4.20711 2.41875L1.64198 4.98387C1.27784 5.34802 1.24978 5.92916 1.57716 6.32669L7.22807 13.1885C7.62808 13.6742 8.37192 13.6742 8.77193 13.1885L14.4228 6.32669C14.7502 5.92916 14.7222 5.34802 14.358 4.98387L11.7929 2.41875C11.6054 2.23121 11.351 2.12585 11.0858 2.12585Z" stroke="#6C707E" stroke-linecap="round"/>
<path d="M1.5 6.12585H14.5" stroke="#6C707E" stroke-linecap="round"/>
<path d="M7 2.12585L5.20742 5.71102C5.07587 5.97412 5.06683 6.28179 5.1827 6.55215L8 13.1259" stroke="#6C707E" stroke-linecap="round"/>
<path d="M9 2.12585L10.7926 5.71102C10.9241 5.97412 10.9332 6.28179 10.8173 6.55215L8 13.1259" stroke="#6C707E" stroke-linecap="round"/>
</svg>
