<svg width="20" height="20" viewBox="0 0 20 20" fill="none" xmlns="http://www.w3.org/2000/svg"><path d="M14.094 2.5H5.906a1 1 0 0 0-.697.283l-3.54 3.441a1 1 0 0 0-.066 1.363L9.238 16.6a1 1 0 0 0 1.526 0l7.633-9.012a1 1 0 0 0-.066-1.363l-3.539-3.441a1 1 0 0 0-.697-.283zM2 7.5h16" stroke="#6C707E" stroke-width="1.5" stroke-linecap="round"/><path d="M8.667 2.5L6.225 7.16a1 1 0 0 0-.026.874L10 16.5M11.333 2.5l2.442 4.66a1 1 0 0 1 .026.874L10 16.5" stroke="#6C707E" stroke-width="1.5" stroke-linecap="round"/></svg>