<svg width="20" height="20" viewBox="0 0 20 20" fill="none" xmlns="http://www.w3.org/2000/svg"><g clip-path="url(#clip0_3575_1540)"><path d="M14.5 15.5L17 18" stroke="#CED0D6" stroke-width="1.5" stroke-linecap="round"/><circle cx="12" cy="13" r="3.25" stroke="#CED0D6" stroke-width="1.5"/><path fill-rule="evenodd" clip-rule="evenodd" d="M4.283 4.133C4.035 4.357 4 4.51 4 4.58c0 .07.035.223.283.448.25.225.651.462 1.212.676 1.116.427 2.709.706 4.505.706 1.796 0 3.389-.28 4.505-.706.56-.214.963-.451 1.212-.676.248-.225.283-.378.283-.448s-.035-.224-.283-.448c-.25-.225-.651-.462-1.212-.677C13.39 3.03 11.796 2.75 10 2.75c-1.796 0-3.389.28-4.505.706-.56.215-.963.452-1.212.677zm-1.783.19v11.2h.003c.034.595.364 1.086.775 1.457.434.393 1.02.712 1.681.965 1.327.507 3.11.805 5.041.805.69 0 1.362-.038 2-.11v-.04a5.48 5.48 0 0 1-3.707-1.437c-1.092-.114-2.052-.334-2.798-.62-.56-.214-.963-.45-1.212-.676C4.035 15.642 4 15.49 4 15.42v-1.536c.292.168.616.317.96.449.538.206 1.152.377 1.821.508a5.487 5.487 0 0 1-.28-1.598 8.75 8.75 0 0 1-1.006-.311c-.56-.215-.963-.452-1.212-.676-.248-.225-.283-.378-.283-.449V10.27c.292.168.616.318.96.449.55.21 1.179.385 1.864.517.18-.502.433-.97.744-1.393a10.357 10.357 0 0 1-2.073-.525c-.56-.214-.963-.451-1.212-.676C4.035 8.417 4 8.264 4 8.194V6.657c.292.168.616.318.96.449 1.326.507 3.109.805 5.04.805h.174a5.492 5.492 0 0 1 2.726-.238 11.54 11.54 0 0 0 2.14-.567c.344-.131.668-.28.96-.449v1.537c0 .07-.035.223-.283.448-.07.063-.152.127-.246.191A5.49 5.49 0 0 1 17.499 13h.001V4.323h-.019c-.077-.527-.384-.965-.759-1.303-.434-.393-1.02-.712-1.681-.965-1.327-.507-3.11-.805-5.041-.805-1.931 0-3.714.298-5.04.805-.662.253-1.248.572-1.682.965-.375.338-.682.776-.76 1.303H2.5z" fill="#CED0D6"/></g><defs><clipPath id="clip0_3575_1540"><path fill="#fff" d="M0 0h20v20H0z"/></clipPath></defs></svg>