<svg width="16" height="16" viewBox="0 0 16 16" fill="none" xmlns="http://www.w3.org/2000/svg"><g clip-path="url(#clip0_136_87)"><circle cx="9" cy="10" r="2.5" stroke="#CED0D6"/><path d="M11 12l2 2" stroke="#CED0D6" stroke-linecap="round"/><path fill-rule="evenodd" clip-rule="evenodd" d="M2.017 3.392H2v9.126h.003c.028.444.274.816.594 1.106.34.307.804.561 1.335.764 1.066.408 2.504.65 4.068.65 1.287 0 2.488-.164 3.467-.45l-.822-.821c-.254.056-.524.105-.806.145-.266.057-.541.087-.823.088-.328.024-.667.037-1.016.037-1.474 0-2.785-.23-3.71-.583-.465-.177-.806-.377-1.022-.572-.217-.196-.268-.348-.268-.448v-1.449c.272.175.588.328.932.46.45.171.965.313 1.529.42a3.973 3.973 0 0 1-.39-1.11 7.15 7.15 0 0 1-.782-.245c-.464-.177-.805-.376-1.021-.572C3.05 9.742 3 9.59 3 9.49V8.041c.272.175.588.328.932.46.37.14.784.262 1.232.36.099-.332.239-.645.415-.935a7.952 7.952 0 0 1-1.29-.36c-.464-.177-.805-.376-1.021-.572C3.05 6.8 3 6.646 3 6.547v-1.45c.272.175.588.328.932.46 1.006.384 2.344.62 3.806.646a3.996 3.996 0 0 1 2.105-.114c.837-.11 1.596-.292 2.225-.532.344-.132.66-.285.932-.46v1.45c0 .1-.051.252-.268.447a2.776 2.776 0 0 1-.675.426c.216.256.401.54.548.845.14-.07.272-.145.395-.224v3.838l.943.942c.029-.096.048-.198.054-.303H14V3.392h-.017c-.062-.388-.29-.717-.58-.979-.34-.307-.804-.561-1.335-.764C11.002 1.24 9.564 1 8 1c-1.564 0-3.002.241-4.068.649-.53.203-.995.457-1.335.764-.29.262-.518.591-.58.98zm1.25-.237c-.216.196-.267.348-.267.448 0 .1.051.252.268.447.216.196.557.395 1.021.573.926.353 2.237.582 3.711.582 1.474 0 2.786-.229 3.71-.582.465-.178.806-.377 1.022-.573.217-.195.268-.347.268-.447 0-.1-.051-.252-.268-.448-.216-.195-.557-.395-1.021-.572C10.785 2.229 9.473 2 8 2c-1.474 0-2.785.23-3.71.583-.465.177-.806.377-1.022.572z" fill="#CED0D6"/></g><defs><clipPath id="clip0_136_87"><path fill="#fff" d="M0 0h16v16H0z"/></clipPath></defs></svg>