<svg width="16" height="17" viewBox="0 0 16 17" fill="none" xmlns="http://www.w3.org/2000/svg">
<circle cx="9" cy="10.1259" r="2.5" stroke="#6C707E"/>
<path d="M11 12.1259L13 14.1259" stroke="#6C707E" stroke-linecap="round"/>
<path fill-rule="evenodd" clip-rule="evenodd" d="M2.01664 3.51831H2V12.6442H2.00263C2.03051 13.0879 2.2768 13.4602 2.59694 13.7496C2.9371 14.0571 3.40129 14.311 3.93236 14.5141C4.99792 14.9215 6.43619 15.1629 8 15.1629C9.28669 15.1629 10.4884 14.9995 11.4674 14.7146L10.6455 13.8927C10.3907 13.9491 10.121 13.9978 9.83875 14.0378C9.57323 14.0944 9.29796 14.1247 9.01579 14.1258C8.68825 14.1501 8.34866 14.1629 8 14.1629C6.52624 14.1629 5.21452 13.9337 4.28947 13.58C3.82523 13.4025 3.48396 13.2034 3.2675 13.0077C3.05102 12.8121 3 12.66 3 12.5602V11.1108C3.27236 11.2858 3.58833 11.4387 3.93236 11.5702C4.38173 11.742 4.89739 11.8843 5.46079 11.9914C5.27936 11.648 5.14647 11.2749 5.07124 10.8813C4.78787 10.8089 4.52602 10.7266 4.28947 10.6362C3.82523 10.4587 3.48396 10.2596 3.2675 10.0639C3.05102 9.86821 3 9.71615 3 9.61633V8.16697C3.27236 8.34195 3.58833 8.49485 3.93236 8.62638C4.3017 8.76759 4.71583 8.88886 5.16444 8.98706C5.26279 8.6553 5.40301 8.34155 5.57897 8.05191C5.09631 7.95673 4.6616 7.83459 4.28947 7.69232C3.82523 7.51484 3.48396 7.3157 3.2675 7.12004C3.05102 6.92437 3 6.7723 3 6.67249V5.22309C3.27236 5.39807 3.58833 5.55097 3.93236 5.6825C4.93809 6.06701 6.27584 6.30371 7.7378 6.32908C8.13458 6.19724 8.55895 6.12585 9 6.12585C9.28915 6.12585 9.57114 6.15654 9.84288 6.21482C10.6804 6.1055 11.4389 5.92288 12.0676 5.6825C12.4117 5.55097 12.7276 5.39807 13 5.22309V6.67249C13 6.7723 12.949 6.92437 12.7325 7.12004C12.574 7.26336 12.3484 7.40853 12.0567 7.5457C12.2732 7.80186 12.458 8.08559 12.6052 8.39089C12.7447 8.32072 12.8768 8.2461 13 8.16697V9.12585V9.61633V10.1259V11.1108V12.0045L13.9427 12.9473C13.9719 12.8504 13.9908 12.7493 13.9974 12.6442H14V3.51831H13.9834C13.9213 3.12991 13.6924 2.80068 13.4031 2.53919C13.0629 2.23171 12.5987 1.97774 12.0676 1.7747C11.0021 1.36732 9.56381 1.12585 8 1.12585C6.43619 1.12585 4.99792 1.36732 3.93236 1.7747C3.40129 1.97774 2.9371 2.23171 2.59694 2.53919C2.30765 2.80068 2.07865 3.12991 2.01664 3.51831ZM3.2675 3.28104C3.05102 3.47672 3 3.62879 3 3.7286C3 3.82842 3.05102 3.98048 3.2675 4.17616C3.48396 4.37182 3.82523 4.57095 4.28947 4.74844C5.21452 5.1021 6.52624 5.33135 8 5.33135C9.47376 5.33135 10.7855 5.1021 11.7105 4.74844C12.1748 4.57095 12.516 4.37182 12.7325 4.17616C12.949 3.98048 13 3.82842 13 3.7286C13 3.62879 12.949 3.47672 12.7325 3.28104C12.516 3.08538 12.1748 2.88625 11.7105 2.70877C10.7855 2.3551 9.47376 2.12585 8 2.12585C6.52624 2.12585 5.21452 2.3551 4.28947 2.70877C3.82523 2.88625 3.48396 3.08538 3.2675 3.28104Z" fill="#6C707E"/>
</svg>
