<svg width="20" height="20" viewBox="0 0 20 20" fill="none" xmlns="http://www.w3.org/2000/svg"><path d="M16.5 16.5L19 19" stroke="#CED0D6" stroke-width="1.5" stroke-linecap="round"/><circle cx="14" cy="14" r="3.25" stroke="#CED0D6" stroke-width="1.5"/><path fill-rule="evenodd" clip-rule="evenodd" d="M3.783 3.883c-.248.224-.283.377-.283.448 0 .07.035.223.283.448.25.225.651.462 1.212.676 1.116.427 2.709.706 4.505.706 1.796 0 3.389-.28 4.505-.706.56-.214.963-.451 1.212-.676.248-.225.283-.378.283-.448s-.035-.224-.283-.448c-.25-.225-.651-.462-1.212-.677C12.89 2.78 11.296 2.5 9.5 2.5c-1.796 0-3.389.28-4.505.706-.56.215-.963.452-1.212.677zM2 4.073v11.2h.003c.034.595.364 1.086.775 1.457.434.393 1.02.712 1.681.965 1.327.507 3.11.805 5.041.805.434 0 .86-.015 1.275-.044A5.531 5.531 0 0 1 9.39 17c-1.75-.012-3.301-.288-4.394-.706-.56-.215-.963-.452-1.212-.677-.248-.225-.283-.377-.283-.448v-1.536c.292.168.616.317.96.449 1.11.424 2.539.702 4.107.782a5.54 5.54 0 0 1-.03-1.504c-1.4-.08-2.63-.33-3.542-.68-.56-.214-.963-.45-1.212-.675-.248-.225-.283-.378-.283-.449V10.02c.292.168.616.318.96.449 1.262.483 2.939.776 4.763.803a5.527 5.527 0 0 1 1.293-1.528c-.33.02-.669.03-1.016.03-1.796 0-3.389-.28-4.505-.706-.56-.214-.963-.451-1.212-.676-.248-.225-.283-.378-.283-.448V6.407c.292.168.616.318.96.449 1.326.507 3.109.805 5.04.805s3.714-.298 5.04-.805c.344-.131.668-.28.96-.449v1.537c0 .07-.035.223-.283.448-.07.063-.154.128-.249.193.739.131 1.427.41 2.032.804V4.073h-.019c-.077-.527-.384-.965-.759-1.303-.434-.393-1.02-.712-1.681-.965C13.214 1.298 11.43 1 9.5 1c-1.931 0-3.714.298-5.04.805-.662.253-1.248.572-1.682.965-.375.338-.682.776-.76 1.303H2z" fill="#CED0D6"/></svg>