<svg width="16" height="17" viewBox="0 0 16 17" fill="none" xmlns="http://www.w3.org/2000/svg">
<g clip-path="url(#clip0_2008_705)">
<path d="M7.72299 10.0589C7.58492 9.81977 7.66686 9.51398 7.906 9.37591C8.14515 9.23784 8.45095 9.31978 8.58902 9.55892L9.24886 10.7018C9.38693 10.9409 9.30499 11.2467 9.06585 11.3848C8.8267 11.5229 8.52091 11.4409 8.38283 11.2018L7.72299 10.0589Z" fill="#6C707E"/>
<path d="M13.219 10.0589C13.3571 9.81977 13.2752 9.51398 13.036 9.37591C12.7969 9.23784 12.4911 9.31978 12.353 9.55892L11.6941 10.7001C11.5561 10.9392 11.638 11.245 11.8772 11.3831C12.1163 11.5212 12.4221 11.4392 12.5602 11.2001L13.219 10.0589Z" fill="#6C707E"/>
<path fill-rule="evenodd" clip-rule="evenodd" d="M6.00765 14.0652C6.28402 11.8443 8.17745 10.1259 10.473 10.1259C12.7685 10.1259 14.662 11.8443 14.9383 14.0652C15.0148 14.6791 14.5063 15.1259 13.973 15.1259H6.973C6.43973 15.1259 5.93125 14.6791 6.00765 14.0652ZM7.00838 14.1259H13.9376C13.6953 12.43 12.2361 11.1259 10.473 11.1259C8.70992 11.1259 7.25068 12.43 7.00838 14.1259Z" fill="#6C707E"/>
<path d="M4 2.12585H9C9.55228 2.12585 10 2.57357 10 3.12585V9.12585H11V3.12585C11 2.02129 10.1046 1.12585 9 1.12585H4C2.89543 1.12585 2 2.02128 2 3.12585V13.1259C2 14.2304 2.89543 15.1259 4 15.1259H5V14.1259H4C3.44772 14.1259 3 13.6781 3 13.1259V3.12585C3 2.57357 3.44772 2.12585 4 2.12585Z" fill="#6C707E"/>
<path d="M5 3.62585C5 3.34971 5.22386 3.12585 5.5 3.12585H7.5C7.77614 3.12585 8 3.34971 8 3.62585C8 3.902 7.77614 4.12585 7.5 4.12585H5.5C5.22386 4.12585 5 3.902 5 3.62585Z" fill="#6C707E"/>
</g>
<defs>
<clipPath id="clip0_2008_705">
<rect width="16" height="16" fill="white" transform="translate(0 0.125854)"/>
</clipPath>
</defs>
</svg>
