<svg width="16" height="16" viewBox="0 0 16 16" fill="none" xmlns="http://www.w3.org/2000/svg">
<g clip-path="url(#clip0_2008_706)">
<path d="M7.72299 9.93307C7.58492 9.69392 7.66686 9.38813 7.906 9.25005C8.14515 9.11198 8.45095 9.19392 8.58902 9.43307L9.24886 10.5759C9.38693 10.8151 9.30499 11.1209 9.06585 11.259C8.8267 11.397 8.52091 11.3151 8.38283 11.0759L7.72299 9.93307Z" fill="#CED0D6"/>
<path d="M13.219 9.93307C13.3571 9.69392 13.2752 9.38813 13.036 9.25005C12.7969 9.11198 12.4911 9.19392 12.353 9.43307L11.6941 10.5742C11.5561 10.8134 11.638 11.1192 11.8772 11.2572C12.1163 11.3953 12.4221 11.3134 12.5602 11.0742L13.219 9.93307Z" fill="#CED0D6"/>
<path fill-rule="evenodd" clip-rule="evenodd" d="M6.00765 13.9393C6.28402 11.7184 8.17745 10.0001 10.473 10.0001C12.7685 10.0001 14.662 11.7184 14.9383 13.9393C15.0148 14.5533 14.5063 15.0001 13.973 15.0001H6.973C6.43973 15.0001 5.93125 14.5533 6.00765 13.9393ZM7.00838 14.0001H13.9376C13.6953 12.3041 12.2361 11.0001 10.473 11.0001C8.70992 11.0001 7.25068 12.3041 7.00838 14.0001Z" fill="#CED0D6"/>
<path d="M4 2H9C9.55228 2 10 2.44772 10 3V9H11V3C11 1.89543 10.1046 1 9 1H4C2.89543 1 2 1.89543 2 3V13C2 14.1046 2.89543 15 4 15H5V14H4C3.44772 14 3 13.5523 3 13V3C3 2.44772 3.44772 2 4 2Z" fill="#CED0D6"/>
<path d="M5 3.5C5 3.22386 5.22386 3 5.5 3H7.5C7.77614 3 8 3.22386 8 3.5C8 3.77614 7.77614 4 7.5 4H5.5C5.22386 4 5 3.77614 5 3.5Z" fill="#CED0D6"/>
</g>
<defs>
<clipPath id="clip0_2008_706">
<rect width="16" height="16" fill="white"/>
</clipPath>
</defs>
</svg>
