<svg width="16" height="16" viewBox="0 0 16 16" fill="none" xmlns="http://www.w3.org/2000/svg"><path fill-rule="evenodd" clip-rule="evenodd" d="M4 1a2 2 0 0 0-2 2v10a2 2 0 0 0 2 2h5c.293 0 .571-.063.822-.176A3.994 3.994 0 0 1 8.354 14H4a1 1 0 0 1-1-1V3a1 1 0 0 1 1-1h5a1 1 0 0 1 1 1v4.126c.32-.082.655-.126 1-.126V3a2 2 0 0 0-2-2H4zm1.5 2a.5.5 0 0 0 0 1h2a.5.5 0 0 0 0-1h-2z" fill="#CED0D6"/><circle cx="11" cy="11" r="2.5" stroke="#CED0D6"/><path d="M13 13l2 2" stroke="#CED0D6" stroke-linecap="round"/></svg>