<svg width="20" height="20" viewBox="0 0 20 20" fill="none" xmlns="http://www.w3.org/2000/svg"><path fill-rule="evenodd" clip-rule="evenodd" d="M6.75 5a.75.75 0 0 0 0 1.5h1.5a.75.75 0 0 0 0-1.5h-1.5zm4.75 4.1V4a.5.5 0 0 0-.5-.5H4a.5.5 0 0 0-.5.5v12a.5.5 0 0 0 .5.5h5.1c.288.563.67 1.07 1.125 1.5H4a2 2 0 0 1-2-2V4a2 2 0 0 1 2-2h7a2 2 0 0 1 2 2v4.59a5.46 5.46 0 0 0-1.5.51z" fill="#CED0D6"/><circle cx="14" cy="14" r="3.25" stroke="#CED0D6" stroke-width="1.5"/><path d="M16.5 16.5L19 19" stroke="#CED0D6" stroke-width="1.5" stroke-linecap="round"/></svg>