<svg width="20" height="20" viewBox="0 0 20 20" fill="none" xmlns="http://www.w3.org/2000/svg"><g clip-path="url(#clip0_3754_1878)"><path d="M7.5 18h11" stroke="#6C707E" stroke-width="1.5" stroke-linecap="round"/><path fill-rule="evenodd" clip-rule="evenodd" d="M8.276 18a4.75 4.75 0 0 1 9.448 0h1.506a6.25 6.25 0 0 0-12.46 0h1.506z" fill="#6C707E"/><path d="M10.5 13.5l-1-2M15.5 13.5l1-2" stroke="#6C707E" stroke-width="1.5" stroke-linecap="round"/><path fill-rule="evenodd" clip-rule="evenodd" d="M3 1.25A1.75 1.75 0 0 0 1.25 3v14c0 .966.784 1.75 1.75 1.75h2v-1.5H3a.25.25 0 0 1-.25-.25V3A.25.25 0 0 1 3 2.75h9a.25.25 0 0 1 .25.25v7.5h1.5V3A1.75 1.75 0 0 0 12 1.25H3zm2.781 3.2a.75.75 0 0 0 0 1.5h3.48a.75.75 0 0 0 0-1.5h-3.48z" fill="#6C707E"/></g><defs><clipPath id="clip0_3754_1878"><path fill="#fff" d="M0 0h20v20H0z"/></clipPath></defs></svg>