<svg width="16" height="16" viewBox="0 0 16 16" fill="none" xmlns="http://www.w3.org/2000/svg"><mask id="a" fill="#fff"><rect x="6" y="8" width="8" height="5" rx=".5"/></mask><rect x="6" y="8" width="8" height="5" rx=".5" stroke="#CED0D6" stroke-width="2" mask="url(#a)"/><path d="M6.5 14.5h7" stroke="#CED0D6" stroke-linecap="round"/><path fill-rule="evenodd" clip-rule="evenodd" d="M4 1a2 2 0 0 0-2 2v10a2 2 0 0 0 2 2h1v-1H4a1 1 0 0 1-1-1V3a1 1 0 0 1 1-1h5a1 1 0 0 1 1 1v4h1V3a2 2 0 0 0-2-2H4zm1.5 2a.5.5 0 0 0 0 1h2a.5.5 0 0 0 0-1h-2z" fill="#CED0D6"/></svg>