<svg xmlns="http://www.w3.org/2000/svg" width="20" height="20" fill="none"><path fill="#CED0D6" fill-rule="evenodd" d="M8.5 11.5v3h8v-3h-8ZM8 10a1 1 0 0 0-1 1v4a1 1 0 0 0 1 1h9a1 1 0 0 0 1-1v-4a1 1 0 0 0-1-1H8Z" clip-rule="evenodd"/><path stroke="#CED0D6" stroke-linecap="round" stroke-width="1.5" d="M7.75 18.25h9.5"/><path fill="#CED0D6" fill-rule="evenodd" d="M6.75 5a.75.75 0 0 0 0 1.5h1.5a.75.75 0 0 0 0-1.5h-1.5Zm4.75 3.5V4a.5.5 0 0 0-.5-.5H4a.5.5 0 0 0-.5.5v12a.5.5 0 0 0 .5.5h1.5V18H4a2 2 0 0 1-2-2V4a2 2 0 0 1 2-2h7a2 2 0 0 1 2 2v4.5h-1.5Z" clip-rule="evenodd"/></svg>