<svg width="16" height="17" viewBox="0 0 16 17" fill="none" xmlns="http://www.w3.org/2000/svg">
<mask id="path-1-inside-1_241_657" fill="white">
<rect x="6" y="8.12585" width="8" height="5" rx="0.5"/>
</mask>
<rect x="6" y="8.12585" width="8" height="5" rx="0.5" stroke="#6C707E" stroke-width="2" mask="url(#path-1-inside-1_241_657)"/>
<path d="M6.5 14.6259H13.5" stroke="#6C707E" stroke-linecap="round"/>
<path fill-rule="evenodd" clip-rule="evenodd" d="M4 1.12585C2.89543 1.12585 2 2.02129 2 3.12585V13.1259C2 14.2304 2.89543 15.1259 4 15.1259H5V14.1259H4C3.44772 14.1259 3 13.6781 3 13.1259V3.12585C3 2.57357 3.44772 2.12585 4 2.12585H9C9.55228 2.12585 10 2.57357 10 3.12585V7.12585H11V3.12585C11 2.02129 10.1046 1.12585 9 1.12585H4ZM5.5 3.12585C5.22386 3.12585 5 3.34971 5 3.62585C5 3.902 5.22386 4.12585 5.5 4.12585H7.5C7.77614 4.12585 8 3.902 8 3.62585C8 3.34971 7.77614 3.12585 7.5 3.12585H5.5Z" fill="#6C707E"/>
</svg>
