<svg width="20" height="20" viewBox="0 0 20 20" fill="none" xmlns="http://www.w3.org/2000/svg"><mask id="a" fill="#fff"><rect x="7" y="10" width="11" height="6" rx=".5"/></mask><rect x="7" y="10" width="11" height="6" rx=".5" stroke="#6C707E" stroke-width="3" mask="url(#a)"/><path d="M7.75 18.25h9.5" stroke="#6C707E" stroke-width="1.5" stroke-linecap="round"/><path fill-rule="evenodd" clip-rule="evenodd" d="M6.75 5a.75.75 0 0 0 0 1.5h1.5a.75.75 0 0 0 0-1.5h-1.5zm4.75 3.5V4a.5.5 0 0 0-.5-.5H4a.5.5 0 0 0-.5.5v12a.5.5 0 0 0 .5.5h1.5V18H4a2 2 0 0 1-2-2V4a2 2 0 0 1 2-2h7a2 2 0 0 1 2 2v4.5h-1.5z" fill="#6C707E"/></svg>