<svg width="20" height="20" viewBox="0 0 20 20" fill="none" xmlns="http://www.w3.org/2000/svg"><mask id="a" fill="#fff"><rect x="7" y="9" width="11" height="6" rx=".5"/></mask><rect x="7" y="9" width="11" height="6" rx=".5" stroke="#6C707E" stroke-width="3" mask="url(#a)"/><path d="M7.5 17.25h10" stroke="#6C707E" stroke-width="1.5" stroke-linecap="round"/><path fill-rule="evenodd" clip-rule="evenodd" d="M6 4.75a.75.75 0 0 0 0 1.5h3a.75.75 0 0 0 0-1.5H6zm5.5 2.75V4a.5.5 0 0 0-.5-.5H4a.5.5 0 0 0-.5.5v12a.5.5 0 0 0 .5.5h1.5V18H4a2 2 0 0 1-2-2V4a2 2 0 0 1 2-2h7a2 2 0 0 1 2 2v3.5h-1.5z" fill="#6C707E"/></svg>