<svg width="16" height="16" viewBox="0 0 16 16" fill="none" xmlns="http://www.w3.org/2000/svg"><g opacity=".2" fill="#CED0D6"><path fill-rule="evenodd" clip-rule="evenodd" d="M3 2.8A1.8 1.8 0 0 1 4.8 1h3.4A1.8 1.8 0 0 1 10 2.8V5h2v1h-2v2.5a3.5 3.5 0 1 1-7 0V6H1V5h2V2.8z"/><rect x="2" y="7" width="2" height="2" rx=".45"/><path fill-rule="evenodd" clip-rule="evenodd" d="M6.167 11H4a2 2 0 0 0-2 2h4.167v-2zM6.833 11H9a2 2 0 0 1 2 2H6.833v-2z"/><path d="M5 10h3v3H5z"/><path fill-rule="evenodd" clip-rule="evenodd" d="M9 7h1.55a.45.45 0 0 1 .45.45v1.1a.45.45 0 0 1-.45.45H9V7z"/></g></svg>