<svg width="16" height="16" viewBox="0 0 16 16" fill="none" xmlns="http://www.w3.org/2000/svg"><path d="M4.5 8.588V3.865c0-.54.27-1.045.72-1.345v0c.482-.321 1.1-.36 1.619-.1l.267.133a2 2 0 0 0 1.788 0l.267-.134a1.616 1.616 0 0 1 1.62.101v0c.449.3.719.805.719 1.345v4.723" stroke="#CED0D6"/><path fill-rule="evenodd" clip-rule="evenodd" d="M12.873 11.764c-.06.373-.2.762-.401 1.096l.928.164a.548.548 0 0 0 .644-.54.535.535 0 0 0-.395-.52 36.672 36.672 0 0 0-.776-.2zm-3.23.595l-.92-.163a4 4 0 0 0-1.399 0l-.849.152c.114-.323.177-.661.177-.969 0-.095-.006-.183-.017-.265.483-.057.955-.091 1.388-.092.445 0 .93.035 1.427.094-.013.081-.02.17-.02.263 0 .311.078.654.214.98zm-6.96.664l1.114-.198a3.113 3.113 0 0 1-.405-1.106c-.392.094-.723.18-.96.244a.535.535 0 0 0-.394.52c0 .342.309.6.645.54z" fill="#CED0D6"/><path d="M2.5 8c5.5.5 5.5.5 11 0" stroke="#CED0D6" stroke-linecap="round"/><path d="M6.576 12.011a1.5 1.5 0 1 1-3-.06c0-.261 0-.472.022-.66.023-.199.066-.326.126-.414.099-.146.372-.366 1.352-.366.9 0 1.193.213 1.313.378.151.21.187.54.187 1.122zM12.571 12.011a1.5 1.5 0 1 1-3-.06c0-.261 0-.472.022-.66.023-.199.066-.326.126-.414.099-.146.372-.366 1.352-.366.9 0 1.193.213 1.313.378.151.21.187.54.187 1.122z" stroke="#CED0D6"/></svg>