<svg width="20" height="20" viewBox="0 0 20 20" fill="none" xmlns="http://www.w3.org/2000/svg"><g clip-path="url(#clip0_4423_1387)"><path d="M4.75 9.543V3.3a2 2 0 0 1 1.188-1.828l.2-.089a2 2 0 0 1 1.706.04l1.326.662a2 2 0 0 0 1.683.05l1.791-.768a1.87 1.87 0 0 1 1.664.095v0c.583.333.942.952.942 1.623v6.458" stroke="#6C707E" stroke-width="1.5"/><path d="M1.75 9.5c8.25 1 8.25 1 16.5 0" stroke="#6C707E" stroke-width="1.5" stroke-linecap="round"/><path fill-rule="evenodd" clip-rule="evenodd" d="M8.964 14.51a21.402 21.402 0 0 1 2.048-.01c.008-.566.052-1.079.28-1.488a22.688 22.688 0 0 0-2.668.016c.243.409.318.919.34 1.482zm-5.93-.576c-.474.112-.962.235-1.465.366a.75.75 0 1 0 .378 1.451c.374-.097.738-.19 1.092-.275a3.04 3.04 0 0 1-.033-.558c0-.346 0-.678.029-.984zm13.943 1.092c0 .148-.011.293-.032.436.35.089.71.185 1.08.287a.75.75 0 0 0 .399-1.446 54.889 54.889 0 0 0-1.507-.395c.051.346.06.723.06 1.118z" fill="#6C707E"/><path d="M16.227 15.026a2.242 2.242 0 0 1-2.234 2.25 2.242 2.242 0 0 1-2.232-2.25v-.099c0-.387 0-.701.032-.984.034-.297.098-.488.187-.62.146-.219.551-.547 2.013-.547 1.327 0 1.765.316 1.946.567.229.317.288.816.288 1.683zM8.222 15.026a2.242 2.242 0 0 1-2.233 2.25 2.242 2.242 0 0 1-2.233-2.25v-.099c0-.387 0-.701.032-.984.034-.297.099-.488.188-.62.146-.219.55-.547 2.013-.547 1.326 0 1.765.316 1.946.567.228.317.287.816.287 1.683z" stroke="#6C707E" stroke-width="1.5"/></g><defs><clipPath id="clip0_4423_1387"><path fill="#fff" d="M0 0h20v20H0z"/></clipPath></defs></svg>