<svg width="20" height="20" viewBox="0 0 20 20" fill="none" xmlns="http://www.w3.org/2000/svg"><path d="M14.625 7.563L17.4 4.836a.5.5 0 0 1 .851.357v8.557a3 3 0 0 1-3 3h-5.5a3 3 0 0 1-3-3V5.193a.5.5 0 0 1 .85-.357l2.775 2.727a1 1 0 0 0 .7.287h2.85a1 1 0 0 0 .7-.287z" stroke="#6C707E" stroke-width="1.5" stroke-linecap="round"/><circle cx="10" cy="11" r="1" fill="#6C707E"/><circle cx="15" cy="11" r="1" fill="#6C707E"/><path d="M12.665 14.606a.25.25 0 0 1-.33 0l-1.334-1.168a.25.25 0 0 1 .164-.438h2.67a.25.25 0 0 1 .164.438l-1.334 1.168z" fill="#6C707E"/><path d="M1.75 7.75H6M2.75 11.25H6M2.75 14.75H6.5" stroke="#6C707E" stroke-width="1.5" stroke-linecap="round"/></svg>