<svg width="16" height="16" viewBox="0 0 16 16" fill="none" xmlns="http://www.w3.org/2000/svg"><path d="M11.5 5.5l2.146-2.146a.5.5 0 0 1 .854.353V9.5a3 3 0 0 1-3 3h-3a3 3 0 0 1-3-3V3.707a.5.5 0 0 1 .854-.353L8.5 5.5h3z" stroke="#CED0D6" stroke-linecap="round"/><path d="M10.189 10.282a.25.25 0 0 1-.378 0l-.752-.868A.25.25 0 0 1 9.25 9h1.503a.25.25 0 0 1 .189.414l-.752.868z" fill="#CED0D6"/><circle cx="7.75" cy="7.75" r=".75" fill="#CED0D6"/><circle cx="12.25" cy="7.75" r=".75" fill="#CED0D6"/><path d="M1.5 5.5h4M2.5 8.5h3M2.5 11.5H6" stroke="#CED0D6" stroke-linecap="round"/></svg>