<svg width="20" height="20" viewBox="0 0 20 20" fill="none" xmlns="http://www.w3.org/2000/svg"><path d="M14.625 7.314l2.525-2.48a.5.5 0 0 1 .85.358V13a3 3 0 0 1-3 3h-5a3 3 0 0 1-3-3V5.192a.5.5 0 0 1 .85-.357l2.525 2.479a1 1 0 0 0 .7.286h2.85a1 1 0 0 0 .7-.286z" stroke="#CED0D6" stroke-width="1.5" stroke-linecap="round"/><circle cx="10" cy="11" r="1" fill="#CED0D6"/><circle cx="15" cy="11" r="1" fill="#CED0D6"/><path d="M12.689 13.782a.25.25 0 0 1-.378 0l-.752-.868a.25.25 0 0 1 .19-.414h1.503a.25.25 0 0 1 .189.414l-.752.868z" fill="#CED0D6"/><path d="M2 7.5h5M3 11.25h4M3 15h4.5" stroke="#CED0D6" stroke-width="1.5" stroke-linecap="round"/></svg>