<svg width="20" height="20" viewBox="0 0 20 20" fill="none" xmlns="http://www.w3.org/2000/svg">
<path d="M12.25 7.6H14.7812M9.5 17V6C9.5 5.44772 9.94772 5 10.5 5H16.5C17.0523 5 17.5 5.44772 17.5 6V17C17.5 17.5523 17.0523 18 16.5 18H10.5C9.94772 18 9.5 17.5523 9.5 17Z" stroke="#6C707E" stroke-width="1.5" stroke-linecap="round"/>
<path fill-rule="evenodd" clip-rule="evenodd" d="M3.5 0.25C2.5335 0.25 1.75 1.0335 1.75 2V17C1.75 17.9665 2.5335 18.75 3.5 18.75H7.5V17.25H3.5C3.36193 17.25 3.25 17.1381 3.25 17V2C3.25 1.86193 3.36193 1.75 3.5 1.75H14.5C14.6381 1.75 14.75 1.86193 14.75 2V3H16.25V2C16.25 1.0335 15.4665 0.25 14.5 0.25H3.5Z" fill="#6C707E"/>
</svg>
