<svg width="20" height="20" viewBox="0 0 20 20" fill="none" xmlns="http://www.w3.org/2000/svg"><path d="M12.25 7.6h2.531M9.5 17V6a1 1 0 0 1 1-1h6a1 1 0 0 1 1 1v11a1 1 0 0 1-1 1h-6a1 1 0 0 1-1-1z" stroke="#CED0D6" stroke-width="1.5" stroke-linecap="round"/><path fill-rule="evenodd" clip-rule="evenodd" d="M3.5.25A1.75 1.75 0 0 0 1.75 2v15c0 .966.784 1.75 1.75 1.75h4v-1.5h-4a.25.25 0 0 1-.25-.25V2a.25.25 0 0 1 .25-.25h11a.25.25 0 0 1 .25.25v1h1.5V2A1.75 1.75 0 0 0 14.5.25h-11z" fill="#CED0D6"/></svg>