<svg width="16" height="17" viewBox="0 0 16 17" fill="none" xmlns="http://www.w3.org/2000/svg">
<path d="M9.5 6.62585H11.5M7.5 13.6259V5.62585C7.5 5.07357 7.94772 4.62585 8.5 4.62585H12.5C13.0523 4.62585 13.5 5.07357 13.5 5.62585V13.6259C13.5 14.1781 13.0523 14.6259 12.5 14.6259H8.5C7.94772 14.6259 7.5 14.1781 7.5 13.6259Z" stroke="#6C707E" stroke-linecap="round"/>
<path fill-rule="evenodd" clip-rule="evenodd" d="M4 1.12585C2.89543 1.12585 2 2.02129 2 3.12585V13.1259C2 14.2304 2.89543 15.1259 4 15.1259H6V14.1259H4C3.44772 14.1259 3 13.6781 3 13.1259V3.12585C3 2.57357 3.44772 2.12585 4 2.12585H10C10.5523 2.12585 11 2.57357 11 3.12585H12C12 2.02128 11.1046 1.12585 10 1.12585H4Z" fill="#6C707E"/>
</svg>
