<svg width="20" height="20" viewBox="0 0 20 20" fill="none" xmlns="http://www.w3.org/2000/svg">
<path d="M2 12.5V17.5C2 17.7761 2.22386 18 2.5 18H17.5C17.7761 18 18 17.7761 18 17.5V12.5C18 12.2239 17.7761 12 17.5 12H2.5C2.22386 12 2 12.2239 2 12.5Z" stroke="#CED0D6" stroke-width="1.5"/>
<circle cx="15" cy="15" r="1" fill="#CED0D6"/>
<path fill-rule="evenodd" clip-rule="evenodd" d="M3.67374 6.85566L6.85572 3.67368L13.182 9.99999H15.3033L7.73961 2.43625C7.25145 1.94809 6.46 1.94809 5.97184 2.43625L2.43631 5.97178C1.94815 6.45993 1.94815 7.25139 2.43631 7.73955L4.69675 9.99999H6.81807L3.67374 6.85566Z" fill="#CED0D6"/>
<path fill-rule="evenodd" clip-rule="evenodd" d="M12.75 2.75L17.25 2.75V9.9967C17.2656 9.99884 17.2814 9.99994 17.2975 9.99994L18.75 9.99992V2.5C18.75 1.80964 18.1904 1.25 17.5 1.25H12.5C11.8096 1.25 11.25 1.80964 11.25 2.5V3.90619L12.75 5.40619L12.75 2.75Z" fill="#CED0D6"/>
</svg>
