<svg width="16" height="16" viewBox="0 0 16 16" fill="none" xmlns="http://www.w3.org/2000/svg">
<path d="M2.5 10V13C2.5 13.2761 2.72386 13.5 3 13.5H13C13.2761 13.5 13.5 13.2761 13.5 13V10C13.5 9.72386 13.2761 9.5 13 9.5H3C2.72386 9.5 2.5 9.72386 2.5 10Z" stroke="#CED0D6"/>
<path fill-rule="evenodd" clip-rule="evenodd" d="M10 2C9.44772 2 9 2.44772 9 3V4.10283L10 5.07712V3L13 3V7.9568C13.0634 7.98502 13.1326 8 13.2033 8L14 8V3C14 2.44772 13.5523 2 13 2H10Z" fill="#CED0D6"/>
<path fill-rule="evenodd" clip-rule="evenodd" d="M3.14063 5.15225C2.7501 5.54278 2.7501 6.17594 3.14063 6.56646L4.57414 7.99998H5.98836L3.84773 5.85936L5.82843 3.87866L9.94975 7.99998H11.364L6.53553 3.17156C6.14501 2.78103 5.51185 2.78103 5.12132 3.17156L3.14063 5.15225Z" fill="#CED0D6"/>
<circle cx="11.5" cy="11.5" r="0.5" fill="#CED0D6"/>
</svg>
