<svg width="20" height="20" viewBox="0 0 20 20" fill="none" xmlns="http://www.w3.org/2000/svg"><path fill-rule="evenodd" clip-rule="evenodd" d="M7.25 3.5H4a.5.5 0 0 0-.5.5v3.25a.5.5 0 0 0 .5.5h3.25a.5.5 0 0 0 .5-.5V4a.5.5 0 0 0-.5-.5zM4 2a2 2 0 0 0-2 2v3.25a2 2 0 0 0 2 2h3.25a2 2 0 0 0 2-2V4a2 2 0 0 0-2-2H4zm3.25 10.25H4a.5.5 0 0 0-.5.5V16a.5.5 0 0 0 .5.5h3.25a.5.5 0 0 0 .5-.5v-3.25a.5.5 0 0 0-.5-.5zM4 10.75a2 2 0 0 0-2 2V16a2 2 0 0 0 2 2h3.25a2 2 0 0 0 2-2v-3.25a2 2 0 0 0-2-2H4zm8.75 1.5H16a.5.5 0 0 1 .5.5V16a.5.5 0 0 1-.5.5h-3.25a.5.5 0 0 1-.5-.5v-3.25a.5.5 0 0 1 .5-.5zm-2 .5a2 2 0 0 1 2-2H16a2 2 0 0 1 2 2V16a2 2 0 0 1-2 2h-3.25a2 2 0 0 1-2-2v-3.25z" fill="#CED0D6"/></svg>