<svg width="20" height="20" viewBox="0 0 20 20" fill="none" xmlns="http://www.w3.org/2000/svg">
<circle cx="9" cy="5.5" r="3.25" stroke="#CED0D6" stroke-width="1.5"/>
<path fill-rule="evenodd" clip-rule="evenodd" d="M3.5 12.5V16.5H7.5V12.5H3.5ZM3 11C2.44772 11 2 11.4477 2 12V17C2 17.5523 2.44772 18 3 18H8C8.55228 18 9 17.5523 9 17V12C9 11.4477 8.55228 11 8 11H3Z" fill="#CED0D6"/>
<path d="M17.1295 15.25H11.8705C11.4846 15.25 11.2442 14.8314 11.4386 14.4981L14.0681 9.99038C14.261 9.65963 14.739 9.65963 14.9319 9.99038L17.5614 14.4981C17.7558 14.8314 17.5154 15.25 17.1295 15.25Z" stroke="#CED0D6" stroke-width="1.5"/>
</svg>
