<svg width="16" height="16" viewBox="0 0 16 16" xmlns="http://www.w3.org/2000/svg"><rect width="16" height="16" fill="none"/><g fill="none" fill-rule="evenodd"><path d="M13 6.207A5.5 5.5 0 0 0 7.257 15H2V5h5V0h6v6.207zM6 0v4H2l4-4z" fill="#9AA7B0"/><path d="M11.5 7A4.502 4.502 0 0 0 7 11.5c0 2.484 2.016 4.5 4.5 4.5s4.5-2.016 4.5-4.5S13.984 7 11.5 7zm-.45 8.069A3.595 3.595 0 0 1 7.9 11.5c0-.279.036-.544.095-.806l2.155 2.156v.45c0 .495.405.9.9.9v.869zm3.105-1.144a.893.893 0 0 0-.855-.625h-.45v-1.35a.451.451 0 0 0-.45-.45H9.7v-.9h.9c.248 0 .45-.202.45-.45v-.9h.9c.495 0 .9-.405.9-.9v-.184A3.602 3.602 0 0 1 15.1 11.5a3.58 3.58 0 0 1-.945 2.425z" fill="#9AA7B0"/></g></svg>