<!--
  - Copyright (C) 2025 The Android Open Source Project
  -
  - Licensed under the Apache License, Version 2.0 (the "License");
  - you may not use this file except in compliance with the License.
  - You may obtain a copy of the License at
  -
  -      http://www.apache.org/licenses/LICENSE-2.0
  -
  - Unless required by applicable law or agreed to in writing, software
  - distributed under the License is distributed on an "AS IS" BASIS,
  - WITHOUT WARRANTIES OR CONDITIONS OF ANY KIND, either express or implied.
  - See the License for the specific language governing permissions and
  - limitations under the License.
  -->
<svg width="16" height="16" viewBox="0 0 16 16" fill="none" xmlns="http://www.w3.org/2000/svg"><path d="M10 4.5h2M10 11.5h2M7.5 9V7M14.5 9V7M11 5v6M8 8h6" stroke="#CED0D6" stroke-linecap="round"/><circle cx="11" cy="8" r="4.5" stroke="#CED0D6"/><path fill-rule="evenodd" clip-rule="evenodd" d="M4 1h8a1 1 0 011 1v.384c.35.124.684.279 1 .461V2a2 2 0 00-2-2H4a2 2 0 00-2 2v12a2 2 0 002 2h8a2 2 0 002-2v-.754c-.316.182-.65.337-1 .46V14a1 1 0 01-1 1H4a1 1 0 01-1-1V2a1 1 0 011-1z" fill="#CED0D6"/></svg>