<svg width="16" height="16" viewBox="0 0 16 16" fill="none" xmlns="http://www.w3.org/2000/svg"><circle cx="8" cy="8" r="6.5" stroke="#CED0D6"/><path d="M10.5 8c0 1.882-.328 3.562-.838 4.753-.256.596-.547 1.047-.845 1.341-.297.292-.572.406-.817.406s-.52-.114-.817-.406c-.298-.294-.59-.745-.845-1.341C5.828 11.562 5.5 9.882 5.5 8c0-1.882.328-3.562.838-4.753.256-.596.547-1.047.845-1.341.297-.292.572-.406.817-.406s.52.114.817.406c.298.294.59.745.845 1.341.51 1.191.838 2.871.838 4.753zM14.222 5.5H1.777M14.222 10.5H1.777" stroke="#CED0D6"/></svg>