<!--
  - Copyright (C) 2025 The Android Open Source Project
  -
  - Licensed under the Apache License, Version 2.0 (the "License");
  - you may not use this file except in compliance with the License.
  - You may obtain a copy of the License at
  -
  -      http://www.apache.org/licenses/LICENSE-2.0
  -
  - Unless required by applicable law or agreed to in writing, software
  - distributed under the License is distributed on an "AS IS" BASIS,
  - WITHOUT WARRANTIES OR CONDITIONS OF ANY KIND, either express or implied.
  - See the License for the specific language governing permissions and
  - limitations under the License.
  -->
<svg width="16" height="16" viewBox="0 0 16 16" fill="none" xmlns="http://www.w3.org/2000/svg"><path fill-rule="evenodd" clip-rule="evenodd" d="M5.923 4.21a.5.5 0 10.73.684l1.332-1.42 1.353 1.422a.5.5 0 10.724-.69L8.345 2.403l-.364-.384-.362.386-1.696 1.805zM4.12 10.07a.5.5 0 10.685-.73l-1.42-1.333 1.422-1.352a.5.5 0 00-.689-.725L2.313 7.647l-.384.365.386.362L4.12 10.07zm5.899.988a.5.5 0 01.022.707L8.346 13.57l-.362.386-.365-.384-1.717-1.805a.5.5 0 11.725-.69L7.979 12.5l1.333-1.42a.5.5 0 01.707-.022zm1.741-5.13a.5.5 0 10-.684.73l1.42 1.332-1.423 1.352a.5.5 0 00.69.725l1.805-1.717.383-.365-.386-.362-1.805-1.695z" fill="#6C707E"/><circle cx="8" cy="8" r="1.25" stroke="#6C707E"/></svg>