<svg width="16" height="16" viewBox="0 0 16 16" xmlns="http://www.w3.org/2000/svg"><rect width="16" height="16" fill="none"/><g fill="#6E6E6E" fill-rule="evenodd"><path d="M11 15.973a4.5 4.5 0 1 1 1 0v-3.058a1.5 1.5 0 1 0-1 0v3.058zm-1.871-2.094l.759-.663A2.495 2.495 0 0 1 9 11.305c0-.63.233-1.207.619-1.646L8.866 9A3.487 3.487 0 0 0 8 11.305a3.49 3.49 0 0 0 1.129 2.574zm4.742 0A3.49 3.49 0 0 0 15 11.305c0-.883-.327-1.69-.866-2.305l-.753.659A2.49 2.49 0 0 1 14 11.305c0 .766-.345 1.452-.888 1.91l.759.664z"/><path d="M13 6.207A5.5 5.5 0 0 0 7.257 15H2V5h5V0h6v6.207zM6 0v4H2l4-4z"/></g></svg>