<svg width="16" height="16" viewBox="0 0 16 16" fill="none" xmlns="http://www.w3.org/2000/svg">
  <path fill-rule="evenodd" clip-rule="evenodd"
        d="M6 10C8.20914 10 10 8.20914 10 6C10 3.79086 8.20914 2 6 2C3.79086 2 2 3.79086 2 6C2 8.20914 3.79086 10 6 10ZM6 11C8.76142 11 11 8.76142 11 6C11 3.23858 8.76142 1 6 1C3.23858 1 1 3.23858 1 6C1 8.76142 3.23858 11 6 11Z"
        fill="#9AA7B0"/>
  <path fill-rule="evenodd" clip-rule="evenodd"
        d="M6 12C9.31371 12 12 9.31371 12 6C12 5.65929 11.9716 5.32521 11.917 5H15V15H5V11.917C5.32521 11.9716 5.65929 12 6 12ZM9.2 6C9.2 7.76731 7.76731 9.2 6 9.2C5.65078 9.2 5.31462 9.14406 5 9.04065V9C5 6.79086 6.79086 5 9 5H9.04065C9.14406 5.31462 9.2 5.65078 9.2 6ZM14 12.5C14 13.3284 13.3284 14 12.5 14C11.6716 14 11 13.3284 11 12.5C11 11.6716 11.6716 11 12.5 11C13.3284 11 14 11.6716 14 12.5Z"
        fill="#9AA7B0"/>
  <circle cx="12.5" cy="12.5" r="0.5" fill="#9AA7B0"/>
</svg>
