<svg width="16" height="16" viewBox="0 0 16 16" fill="none" xmlns="http://www.w3.org/2000/svg"><rect width="16" height="16" rx="2" fill="#F0F1F2"/><path fill-rule="evenodd" clip-rule="evenodd" d="M8 2.073a.5.5 0 0 1 .462.308l1.47 3.534 3.814.305a.5.5 0 0 1 .285.879l-2.906 2.49.888 3.722a.5.5 0 0 1-.747.543L8 11.859l-3.266 1.995a.5.5 0 0 1-.747-.543l.888-3.723-2.907-2.49a.5.5 0 0 1 .286-.878l3.814-.305 1.47-3.534A.5.5 0 0 1 8 2.073zm0 1.802L6.875 6.58a.5.5 0 0 1-.422.306l-2.921.234 2.225 1.907a.5.5 0 0 1 .161.495l-.68 2.85 2.501-1.527a.5.5 0 0 1 .522 0l2.5 1.528-.68-2.85a.5.5 0 0 1 .162-.496l2.225-1.907-2.921-.234a.5.5 0 0 1-.422-.306L8 3.875z" fill="#FCC75B"/></svg>