<svg width="16" height="16" viewBox="0 0 16 16" fill="none" xmlns="http://www.w3.org/2000/svg">
<g clip-path="url(#clip0_4897_319)">
<path fill-rule="evenodd" clip-rule="evenodd" d="M1.90892 0.0483786C1.45002 0.146506 1.04687 0.372313 0.695252 0.728131C0.427944 0.998674 0.237314 1.31136 0.108586 1.69035L0.0145674 1.96721L0.00564933 7.85428C-0.000995479 12.2262 0.00544532 13.7976 0.0306257 13.9599C0.174451 14.8866 0.861314 15.648 1.79861 15.9197L2.0255 15.9854H8H13.9745L14.2052 15.9186C14.6364 15.7937 14.9943 15.5828 15.3018 15.2725C15.6302 14.9411 15.9065 14.4145 15.9587 14.0206C15.9696 13.9384 15.9899 13.8642 16.0038 13.8556C16.037 13.835 16.0371 2.09836 16.004 2.09836C15.9901 2.09836 15.9711 2.04261 15.9618 1.9745C15.9524 1.90636 15.9124 1.75481 15.8727 1.63765C15.6089 0.858083 14.941 0.253085 14.1295 0.0585206C13.8913 0.00142774 13.7847 0.000436853 8 0.0025935C2.88868 0.00445871 2.08606 0.0104915 1.90892 0.0483786ZM0.0142759 8C0.0142759 11.2379 0.0176858 12.5582 0.0218533 10.9339C0.0260209 9.3097 0.0260209 6.66052 0.0218533 5.04685C0.0176858 3.43321 0.0142759 4.76211 0.0142759 8ZM2.13537 3.10333C2.08358 3.12583 2.01465 3.18761 1.98219 3.2406C1.92399 3.33564 1.92326 3.37116 1.9306 5.78002L1.93806 8.22307L2.04692 8.32283L2.1558 8.42259H3.1777C4.29933 8.42259 4.32687 8.41871 4.4148 8.24868C4.44357 8.19302 4.45901 8.08128 4.45901 7.9286V7.69399L5.58834 7.69381C6.23353 7.69373 6.76138 7.68146 6.81967 7.66519C6.89533 7.64409 7.06078 7.49741 7.46054 7.09706L7.99941 6.55735L8.53919 7.09657C8.93374 7.49071 9.10627 7.6436 9.18044 7.66487C9.24018 7.68201 9.74653 7.69399 10.4114 7.69399H11.541V7.9286C11.541 8.08128 11.5564 8.19302 11.5852 8.24868C11.6731 8.41871 11.7007 8.42259 12.8223 8.42259H13.8442L13.9531 8.32283L14.0619 8.22307L14.0694 5.78002C14.0767 3.37029 14.076 3.33566 14.0177 3.24051C13.9118 3.0676 13.8616 3.06011 12.8087 3.06011C11.778 3.06011 11.725 3.06719 11.6042 3.22081C11.5501 3.28947 11.541 3.33858 11.541 3.55949V3.81785H8H4.45901V3.55949C4.45901 3.26721 4.4141 3.1745 4.23647 3.1003C4.09565 3.04146 2.27162 3.04408 2.13537 3.10333ZM2.68123 5.74135V7.66484H3.19125H3.70127V5.74135V3.81785H3.19125H2.68123V5.74135ZM12.2987 5.74135V7.66484H12.8087H13.3188V5.74135V3.81785H12.8087H12.2987V5.74135ZM4.45901 5.75592V6.93625H5.48651H6.51404L7.359 6.08915C7.82376 5.62326 8.23941 5.22326 8.28269 5.20026C8.38408 5.14643 8.57766 5.14672 8.6824 5.2009C8.82847 5.27644 8.90573 5.53865 8.82719 5.69227C8.80929 5.72727 8.7408 5.81185 8.67497 5.88022L8.5553 6.00452L9.02047 6.47038L9.48566 6.93625H10.5133H11.541V5.75592V4.57559H8H4.45901V5.75592ZM7.79599 8.18535C7.7317 8.22505 7.52964 8.54313 7.03242 9.38742C6.66054 10.0189 6.32987 10.5954 6.29758 10.6685C6.19701 10.8963 6.14933 11.1351 6.1498 11.4087C6.15067 11.9475 6.31475 12.3482 6.68788 12.723C7.07173 13.1085 7.45806 13.2693 8 13.2693C8.54126 13.2693 8.92703 13.1087 9.31255 12.7227C9.58029 12.4546 9.7073 12.2378 9.79307 11.9025C9.8634 11.6275 9.86902 11.2164 9.80578 10.9715C9.737 10.7051 9.64607 10.5329 8.95216 9.35519C8.49384 8.57731 8.28144 8.24338 8.21537 8.19672C8.10022 8.11541 7.91731 8.11042 7.79599 8.18535ZM7.50333 10.1026C7.23267 10.5627 6.9864 11.0122 6.95606 11.1016C6.88008 11.3256 6.89833 11.6431 6.99981 11.8621C7.21011 12.3161 7.70777 12.5861 8.17594 12.5003C8.69834 12.4047 9.05935 11.995 9.08724 11.4663C9.09773 11.2673 9.0889 11.2049 9.02956 11.0583C8.97244 10.9172 8.08431 9.36781 8.01527 9.2888C8.00437 9.27633 7.77398 9.64255 7.50333 10.1026Z" fill="#62B543"/>
<path fill-rule="evenodd" clip-rule="evenodd" d="M2.13539 3.10332C2.0836 3.12582 2.01467 3.1876 1.98221 3.24059C1.92401 3.33563 1.92328 3.37115 1.93062 5.78001L1.93808 8.22306L2.04694 8.32282L2.15582 8.42258H3.17772C4.29935 8.42258 4.32689 8.4187 4.41482 8.24867C4.44359 8.19301 4.45903 8.08127 4.45903 7.92859V7.69398L5.58836 7.6938C6.23354 7.69372 6.7614 7.68145 6.81969 7.66518C6.89534 7.64408 7.06079 7.4974 7.46056 7.09705L7.99943 6.55734L8.53921 7.09656C8.93376 7.4907 9.10629 7.64359 9.18046 7.66486C9.2402 7.682 9.74655 7.69398 10.4115 7.69398H11.541V7.92859C11.541 8.08127 11.5564 8.19301 11.5852 8.24867C11.6731 8.4187 11.7007 8.42258 12.8223 8.42258H13.8442L13.9531 8.32282L14.0619 8.22306L14.0694 5.78001C14.0768 3.37028 14.0761 3.33566 14.0178 3.2405C13.9119 3.06759 13.8616 3.0601 12.8088 3.0601C11.7781 3.0601 11.725 3.06718 11.6042 3.2208C11.5501 3.28946 11.541 3.33857 11.541 3.55948V3.81784H8.00002H4.45903V3.55948C4.45903 3.2672 4.41412 3.17449 4.23649 3.10029C4.09566 3.04145 2.27164 3.04407 2.13539 3.10332ZM2.68125 5.74134V7.66484H3.19127H3.70129V5.74134V3.81784H3.19127H2.68125V5.74134ZM12.2987 5.74134V7.66484H12.8088H13.3188V5.74134V3.81784H12.8088H12.2987V5.74134ZM4.45903 5.75591V6.93624H5.48653H6.51406L7.35902 6.08914C7.82378 5.62325 8.23943 5.22325 8.28271 5.20025C8.3841 5.14642 8.57768 5.14672 8.68242 5.20089C8.82849 5.27643 8.90575 5.53864 8.82721 5.69226C8.80931 5.72726 8.74082 5.81184 8.67499 5.88021L8.55532 6.00451L9.02049 6.47037L9.48568 6.93624H10.5133H11.541V5.75591V4.57558H8.00002H4.45903V5.75591ZM7.79601 8.18534C7.73172 8.22504 7.52966 8.54312 7.03244 9.38741C6.66056 10.0189 6.32989 10.5953 6.2976 10.6685C6.19703 10.8963 6.14935 11.1351 6.14981 11.4087C6.15069 11.9475 6.31477 12.3482 6.6879 12.723C7.07175 13.1084 7.45808 13.2693 8.00002 13.2693C8.54128 13.2693 8.92705 13.1087 9.31257 12.7227C9.58031 12.4545 9.70732 12.2378 9.79309 11.9025C9.86342 11.6275 9.86904 11.2164 9.8058 10.9715C9.73702 10.7051 9.64609 10.5329 8.95218 9.35518C8.49386 8.5773 8.28146 8.24337 8.21539 8.19671C8.10024 8.1154 7.91733 8.11042 7.79601 8.18534ZM7.50335 10.1026C7.23269 10.5627 6.98642 11.0122 6.95608 11.1016C6.8801 11.3256 6.89835 11.6431 6.99983 11.8621C7.21013 12.3161 7.70779 12.5861 8.17596 12.5003C8.69836 12.4047 9.05937 11.995 9.08726 11.4663C9.09775 11.2673 9.08892 11.2049 9.02958 11.0583C8.97246 10.9172 8.08433 9.3678 8.01529 9.28879C8.00439 9.27632 7.774 9.64254 7.50335 10.1026Z" fill="#FCFCFC"/>
</g>
<defs>
<clipPath id="clip0_4897_319">
<rect width="16" height="16" fill="white"/>
</clipPath>
</defs>
</svg>
