<!--
  - Copyright (C) 2025 The Android Open Source Project
  -
  - Licensed under the Apache License, Version 2.0 (the "License");
  - you may not use this file except in compliance with the License.
  - You may obtain a copy of the License at
  -
  -      http://www.apache.org/licenses/LICENSE-2.0
  -
  - Unless required by applicable law or agreed to in writing, software
  - distributed under the License is distributed on an "AS IS" BASIS,
  - WITHOUT WARRANTIES OR CONDITIONS OF ANY KIND, either express or implied.
  - See the License for the specific language governing permissions and
  - limitations under the License.
  -->
<svg width="16" height="16" viewBox="0 0 16 16" fill="none" xmlns="http://www.w3.org/2000/svg"><path d="M14 0H2a2 2 0 00-2 2v12a2 2 0 002 2h12a2 2 0 002-2V2a2 2 0 00-2-2z" fill="#57965C"/><path d="M4.5 3.5L6 2v1.5L7 3l-.5 2" fill="#F86932"/><path d="M12.28 5.855c.212-.41.316-1.71.289-2.243l-5.68 2.375-1.305 1.876.888 1.158 5.809-3.166z" fill="#F5BD14"/><path d="M3.945 3C1.895 3 1 4.9 1 6.034 1 9.774 4.097 14 9.084 14c3.486 0 5.445-2.078 5.445-2.078-1.696.203-3.238-.342-3.833-.673 2.202-1.128 3.946-3.3 4.304-6.332L6.216 7.95C7.737 6.155 6.568 3 3.946 3z" fill="#FFCC32"/><circle cx="4.5" cy="4.5" r=".5" fill="#444"/></svg>