<svg width="16" height="16" viewBox="0 0 16 16" fill="none" xmlns="http://www.w3.org/2000/svg"><g clip-path="url(#clip0_4961_887)"><path d="M14 0H2a2 2 0 0 0-2 2v12a2 2 0 0 0 2 2h12a2 2 0 0 0 2-2V2a2 2 0 0 0-2-2z" fill="#62B543"/><path d="M13.5 14.49h-11c-.55 0-1-.45-1-1V5.5l4-4h8c.55 0 1 .45 1 1v10.99c0 .55-.45 1-1 1z" stroke="#fff" stroke-linecap="round" stroke-linejoin="round"/><path d="M11.5 7.5h-4v4h4v-4zM8.5 7.5v-1M10.5 7.5v-1M10.5 12.5v-1M8.5 12.5v-1M11.5 8.5h1M11.5 10.5h1M6.5 8.5h1M6.5 10.5h1" stroke="#fff" stroke-linecap="round" stroke-linejoin="round"/><path d="M1.5 5.5h4v-4" stroke="#fff" stroke-linejoin="round"/></g><defs><clipPath id="clip0_4961_887"><path fill="#fff" d="M0 0h16v16H0z"/></clipPath></defs></svg>