<svg width="16" height="16" viewBox="0 0 16 16" fill="none" xmlns="http://www.w3.org/2000/svg"><g clip-path="url(#clip0_4961_888)"><g clip-path="url(#clip1_4961_888)"><path d="M14 0H2a2 2 0 0 0-2 2v12a2 2 0 0 0 2 2h12a2 2 0 0 0 2-2V2a2 2 0 0 0-2-2z" fill="#62B543"/><path d="M6.5 8.5h3M3.5 1.5h9c.55 0 1 .45 1 1v9h-11v-9c0-.55.45-1 1-1zM3.5 11.5v3H7c0-.55.45-1 1-1s1 .45 1 1h3.5v-3h-9zM10.5 14.5v-1M5.5 14.5v-1" stroke="#fff" stroke-linecap="round" stroke-linejoin="round"/><mask id="a" fill="#fff"><rect x="9" y="3" width="3" height="3" rx=".5"/></mask><rect x="9" y="3" width="3" height="3" rx=".5" stroke="#fff" stroke-width="2" stroke-linejoin="round" mask="url(#a)"/><mask id="b" fill="#fff"><rect x="9" y="7" width="3" height="3" rx=".5"/></mask><rect x="9" y="7" width="3" height="3" rx=".5" stroke="#fff" stroke-width="2" stroke-linejoin="round" mask="url(#b)"/><mask id="c" fill="#fff"><rect x="4" y="7" width="3" height="3" rx=".5"/></mask><rect x="4" y="7" width="3" height="3" rx=".5" stroke="#fff" stroke-width="2" stroke-linejoin="round" mask="url(#c)"/><path d="M9.5 4.5h-4v3" stroke="#fff" stroke-linecap="round" stroke-linejoin="round"/></g></g><defs><clipPath id="clip0_4961_888"><path fill="#fff" d="M0 0h16v16H0z"/></clipPath><clipPath id="clip1_4961_888"><path fill="#fff" d="M0 0h16v16H0z"/></clipPath></defs></svg>