<svg width="16" height="16" viewBox="0 0 16 16" fill="none" xmlns="http://www.w3.org/2000/svg">
<g clip-path="url(#clip0_4897_323)">
<path fill-rule="evenodd" clip-rule="evenodd" d="M2.10465 0.0159309C0.991011 0.191118 0.160207 1.04431 0.0247925 2.15185C-0.00895336 2.42787 -0.00955127 13.5691 0.0241468 13.838C0.0946042 14.3998 0.331639 14.8899 0.721044 15.2787C1.03308 15.5904 1.40309 15.8038 1.84131 15.9251L2.06877 15.988L7.88043 15.9949C11.9758 15.9998 13.7512 15.9941 13.8922 15.9758C14.8213 15.8546 15.6097 15.1945 15.8911 14.302C16.0294 13.8632 16.0236 14.1398 16.0238 7.97429C16.0239 2.39393 16.0232 2.3001 15.9757 2.03662C15.7881 0.994777 15.0375 0.231273 14.009 0.0361641C13.8418 0.00445112 13.1007 0.000409266 7.99141 0.0032553C4.78657 0.00504903 2.13753 0.0107411 2.10465 0.0159309ZM4.41257 1.70861C4.37311 1.72654 3.74889 2.33423 3.02543 3.05904L1.71003 4.37685L1.70388 9.20986C1.69702 14.5956 1.683 14.1484 1.86204 14.2597L1.94919 14.3139H8.01621H14.0832L14.1507 14.2639C14.1879 14.2363 14.2425 14.1783 14.2721 14.1348L14.3259 14.0557V8.00746V1.95923L14.2766 1.86272C14.2418 1.79439 14.1981 1.75292 14.1272 1.72071C14.0297 1.67644 13.8952 1.6752 9.25562 1.6756C5.27927 1.67594 4.47236 1.68144 4.41257 1.70861ZM0.0117821 8C0.0117821 11.157 0.0145564 12.4449 0.0179525 10.8621C0.0213486 9.27924 0.0213486 6.69628 0.0179525 5.12216C0.0145564 3.54801 0.0117821 4.84305 0.0117821 8ZM5.42361 3.80095C5.41715 5.16685 5.41634 5.1873 5.36671 5.25386C5.33904 5.291 5.27985 5.3429 5.23517 5.36921C5.15694 5.4153 5.10433 5.41731 3.79673 5.42395L2.43948 5.43087V9.50766V13.5845H8.01197H13.5845V8V2.41555H9.50731H5.43014L5.42361 3.80095ZM3.56354 3.57549L2.45163 4.6876H3.56962H4.68761V3.57549C4.68761 2.96383 4.68488 2.46338 4.68153 2.46338C4.67819 2.46338 4.17511 2.96383 3.56354 3.57549ZM9.94919 3.61304C9.55245 3.68141 9.18172 4.01959 9.0762 4.4094C9.01053 4.65203 9.03358 4.98636 9.13044 5.1962C9.37757 5.73159 10.0323 5.99713 10.5698 5.78002L10.7108 5.72305L10.8656 5.88095C11.0677 6.08706 11.1075 6.16624 11.1075 6.36174C11.1075 6.55723 11.0677 6.63642 10.8656 6.84253L10.7108 7.00042L10.5678 6.94266C10.2953 6.8326 9.94309 6.84585 9.66619 6.97655C9.46838 7.0699 9.24751 7.29167 9.14427 7.50058L9.05702 7.67713H8.00119H6.94535L6.91319 7.58745C6.7287 7.07282 6.12605 6.7598 5.58909 6.89966C5.30321 6.97411 5.02057 7.17867 4.88583 7.4086C4.72439 7.68404 4.68766 8.07699 4.79492 8.38097L4.8534 8.54668L4.66886 8.73981C4.38392 9.03799 4.28103 9.27654 4.28103 9.63896C4.28103 9.98123 4.39152 10.2303 4.67029 10.5163L4.8617 10.7127L4.8048 10.8391C4.75467 10.9506 4.74788 11.0014 4.74764 11.2658L4.7474 11.566L4.84125 11.7561C4.99596 12.0695 5.27581 12.2943 5.59949 12.3654C5.78627 12.4064 6.10063 12.3845 6.2724 12.3184C6.54555 12.2133 6.81499 11.9471 6.90522 11.693L6.94696 11.5755H8.00298H9.05898L9.1445 11.7556C9.25849 11.9956 9.43418 12.1709 9.67573 12.2856C9.83652 12.362 9.88567 12.3736 10.0906 12.3834C10.4594 12.4012 10.6903 12.3173 10.9445 12.0732C11.2982 11.7336 11.3903 11.2192 11.1778 10.7699C11.1004 10.6063 10.9007 10.3903 10.7349 10.291C10.3745 10.075 9.88282 10.0925 9.52104 10.3341C9.34246 10.4533 9.233 10.5835 9.1347 10.7936L9.05977 10.9537H8.00035H6.94093L6.92455 10.8879C6.87631 10.6941 6.60117 10.37 6.39655 10.2657C6.11921 10.1245 5.78293 10.1008 5.48297 10.2015L5.30128 10.2625L5.15917 10.1238C4.81702 9.78985 4.81702 9.46906 5.15914 9.13081L5.29747 8.99403L5.46489 9.056C5.75511 9.16339 6.1621 9.13342 6.40958 8.98641C6.647 8.8454 6.85182 8.6043 6.91589 8.39048L6.94332 8.29896H8.00456C8.99407 8.29896 9.06673 8.30178 9.07957 8.34081C9.17096 8.61829 9.40656 8.88904 9.66289 9.01118C10.1496 9.2431 10.7334 9.10725 11.0529 8.68769C11.2273 8.45884 11.2741 8.31381 11.2749 8C11.2755 7.77024 11.2678 7.71825 11.2139 7.58934L11.1521 7.44175L11.3389 7.25601C11.4426 7.15291 11.5578 7.01008 11.5979 6.93501C11.7857 6.5826 11.7857 6.14087 11.5979 5.78846C11.5578 5.71339 11.4426 5.57056 11.3389 5.46746L11.1521 5.28172L11.2139 5.13414C11.2678 5.00523 11.2755 4.95323 11.2749 4.72347C11.2741 4.40966 11.2273 4.26464 11.0529 4.03578C10.8017 3.70593 10.3699 3.54055 9.94919 3.61304ZM10.0478 4.23323C9.92461 4.26232 9.77972 4.37685 9.71785 4.49404C9.5706 4.77295 9.72608 5.12785 10.0332 5.21385C10.4127 5.32009 10.7802 4.91066 10.6296 4.54931C10.5725 4.41227 10.4339 4.28475 10.298 4.24443C10.1682 4.20585 10.1645 4.20568 10.0478 4.23323ZM5.69781 7.51773C5.49368 7.59175 5.35875 7.78253 5.35779 7.99842C5.35674 8.23288 5.51454 8.42803 5.75387 8.4883C5.97502 8.54398 6.22882 8.40431 6.3247 8.17416C6.424 7.93579 6.30944 7.6568 6.06559 7.54325C5.93269 7.48135 5.81969 7.47353 5.69781 7.51773ZM10.0027 7.51644C9.88055 7.56277 9.75695 7.67407 9.70802 7.78181C9.4838 8.27559 10.0787 8.72541 10.484 8.3686C10.6791 8.19693 10.7167 7.963 10.5854 7.73896C10.4714 7.54445 10.2011 7.44122 10.0027 7.51644ZM5.65622 10.8077C5.32763 10.9598 5.25593 11.3807 5.5165 11.628C5.76619 11.865 6.16996 11.7842 6.3164 11.4679C6.50513 11.0603 6.06382 10.619 5.65622 10.8077ZM9.97311 10.7991C9.78577 10.8832 9.6622 11.0672 9.6622 11.2621C9.6622 11.4107 9.68638 11.4752 9.78388 11.5862C9.99554 11.8273 10.3436 11.8265 10.5434 11.5846C10.7393 11.3473 10.6864 11.0145 10.4252 10.8416C10.3041 10.7615 10.0998 10.7423 9.97311 10.7991Z" fill="#C75450"/>
<path fill-rule="evenodd" clip-rule="evenodd" d="M4.41257 1.70859C4.3731 1.72653 3.74889 2.33421 3.02542 3.05902L1.71002 4.37683L1.70388 9.20984C1.69701 14.5956 1.683 14.1484 1.86204 14.2597L1.94919 14.3139H8.0162H14.0832L14.1507 14.2639C14.1879 14.2363 14.2424 14.1782 14.2721 14.1348L14.3259 14.0557V8.00745V1.95921L14.2766 1.86271C14.2418 1.79438 14.1981 1.75291 14.1271 1.72069C14.0297 1.67642 13.8952 1.67518 9.25562 1.67558C5.27927 1.67592 4.47236 1.68142 4.41257 1.70859ZM5.4236 3.80093C5.41715 5.16684 5.41633 5.18729 5.36671 5.25384C5.33904 5.29099 5.27984 5.34288 5.23517 5.36919C5.15694 5.41528 5.10432 5.41729 3.79672 5.42394L2.43947 5.43085V9.50764V13.5844H8.01197H13.5845V7.99999V2.41553H9.50731H5.43013L5.4236 3.80093ZM3.56354 3.57547L2.45162 4.68758H3.56961H4.6876V3.57547C4.6876 2.96381 4.68488 2.46336 4.68153 2.46336C4.67818 2.46336 4.1751 2.96381 3.56354 3.57547ZM9.94919 3.61302C9.55244 3.6814 9.18171 4.01957 9.07619 4.40938C9.01052 4.65201 9.03358 4.98634 9.13044 5.19618C9.37756 5.73157 10.0322 5.99711 10.5698 5.78L10.7108 5.72303L10.8656 5.88093C11.0677 6.08704 11.1075 6.16623 11.1075 6.36172C11.1075 6.55721 11.0677 6.6364 10.8656 6.84251L10.7108 7.0004L10.5678 6.94265C10.2953 6.83258 9.94309 6.84583 9.66619 6.97653C9.46837 7.06988 9.24751 7.29166 9.14426 7.50057L9.05701 7.67711H8.00118H6.94535L6.91318 7.58743C6.72869 7.0728 6.12605 6.75978 5.58908 6.89964C5.30321 6.9741 5.02057 7.17865 4.88582 7.40858C4.72439 7.68403 4.68765 8.07697 4.79492 8.38095L4.85339 8.54666L4.66885 8.73979C4.38391 9.03798 4.28103 9.27652 4.28103 9.63894C4.28103 9.98121 4.39152 10.2303 4.67029 10.5162L4.86169 10.7126L4.80479 10.8391C4.75466 10.9505 4.74787 11.0014 4.74763 11.2658L4.74739 11.566L4.84124 11.7561C4.99596 12.0694 5.2758 12.2943 5.59948 12.3654C5.78627 12.4064 6.10063 12.3844 6.27239 12.3184C6.54554 12.2133 6.81498 11.947 6.90522 11.693L6.94695 11.5755H8.00298H9.05898L9.1445 11.7556C9.25849 11.9956 9.43417 12.1709 9.67573 12.2856C9.83652 12.362 9.88567 12.3735 10.0906 12.3834C10.4594 12.4012 10.6903 12.3173 10.9445 12.0732C11.2982 11.7336 11.3903 11.2191 11.1778 10.7699C11.1004 10.6063 10.9007 10.3903 10.7349 10.291C10.3745 10.075 9.88282 10.0925 9.52104 10.334C9.34245 10.4533 9.23299 10.5835 9.13469 10.7936L9.05976 10.9536H8.00034H6.94093L6.92454 10.8879C6.8763 10.6941 6.60117 10.3699 6.39654 10.2657C6.11921 10.1244 5.78292 10.1008 5.48296 10.2015L5.30127 10.2625L5.15916 10.1238C4.81701 9.78983 4.81701 9.46904 5.15914 9.1308L5.29747 8.99402L5.46488 9.05598C5.75511 9.16337 6.16209 9.1334 6.40958 8.98639C6.64699 8.84538 6.85181 8.60428 6.91588 8.39047L6.94332 8.29894H8.00455C8.99407 8.29894 9.06672 8.30176 9.07957 8.34079C9.17095 8.61827 9.40655 8.88903 9.66289 9.01117C10.1496 9.24308 10.7334 9.10724 11.0529 8.68767C11.2273 8.45882 11.2741 8.31379 11.2749 7.99999C11.2755 7.77022 11.2678 7.71823 11.2139 7.58932L11.1521 7.44173L11.3389 7.256C11.4426 7.15289 11.5578 7.01007 11.5979 6.93499C11.7857 6.58259 11.7857 6.14085 11.5979 5.78844C11.5578 5.71337 11.4426 5.57054 11.3389 5.46744L11.1521 5.28171L11.2139 5.13412C11.2678 5.00521 11.2755 4.95322 11.2749 4.72345C11.2741 4.40965 11.2273 4.26462 11.0529 4.03576C10.8017 3.70591 10.3699 3.54053 9.94919 3.61302ZM10.0478 4.23322C9.9246 4.2623 9.77972 4.37683 9.71784 4.49402C9.57059 4.77294 9.72607 5.12783 10.0332 5.21383C10.4127 5.32007 10.7802 4.91065 10.6296 4.54929C10.5725 4.41225 10.4339 4.28473 10.298 4.24441C10.1682 4.20583 10.1645 4.20566 10.0478 4.23322ZM5.6978 7.51771C5.49368 7.59173 5.35874 7.78251 5.35779 7.99841C5.35673 8.23286 5.51453 8.42801 5.75386 8.48828C5.97502 8.54396 6.22882 8.40429 6.3247 8.17414C6.424 7.93577 6.30944 7.65679 6.06559 7.54323C5.93269 7.48134 5.81968 7.47352 5.6978 7.51771ZM10.0027 7.51642C9.88055 7.56275 9.75695 7.67405 9.70802 7.7818C9.4838 8.27557 10.0787 8.72539 10.484 8.36858C10.6791 8.19691 10.7167 7.96299 10.5854 7.73894C10.4714 7.54443 10.2011 7.4412 10.0027 7.51642ZM5.65621 10.8077C5.32763 10.9598 5.25593 11.3807 5.51649 11.628C5.76618 11.865 6.16996 11.7841 6.3164 11.4678C6.50512 11.0602 6.06382 10.6189 5.65621 10.8077ZM9.9731 10.7991C9.78577 10.8832 9.66219 11.0672 9.66219 11.262C9.66219 11.4107 9.68637 11.4751 9.78388 11.5862C9.99554 11.8272 10.3436 11.8265 10.5434 11.5845C10.7393 11.3473 10.6864 11.0145 10.4251 10.8416C10.3041 10.7615 10.0998 10.7423 9.9731 10.7991Z" fill="#FCFCFC"/>
</g>
<defs>
<clipPath id="clip0_4897_323">
<rect width="16" height="16" fill="white"/>
</clipPath>
</defs>
</svg>
