<svg width="16" height="16" viewBox="0 0 16 16" fill="none" xmlns="http://www.w3.org/2000/svg"><g clip-path="url(#clip0_4961_866)"><g clip-path="url(#clip1_4961_866)"><path d="M14 0H2a2 2 0 0 0-2 2v12a2 2 0 0 0 2 2h12a2 2 0 0 0 2-2V2a2 2 0 0 0-2-2z" fill="#62B543"/><path d="M10.5 2.5C10.5 3 10 4 9 4S7.5 3 7.5 2.5h-5v11h5C7.5 13 8 12 9 12s1.5 1 1.5 1.5h3v-11h-3zM11.5 7.5h2M11.5 5.5h2M11.5 9.5h2" stroke="#fff" stroke-linecap="round" stroke-linejoin="round"/><path d="M7.5 5.5h-3v1h3v-1z" stroke="#fff" stroke-linecap="round" stroke-linejoin="round"/><mask id="a" fill="#fff"><rect x="4" y="8" width="4" height="3" rx=".5"/></mask><rect x="4" y="8" width="4" height="3" rx=".5" stroke="#fff" stroke-width="2" mask="url(#a)"/></g></g><defs><clipPath id="clip0_4961_866"><path fill="#fff" d="M0 0h16v16H0z"/></clipPath><clipPath id="clip1_4961_866"><path fill="#fff" d="M0 0h16v16H0z"/></clipPath></defs></svg>