<svg width="16" height="16" viewBox="0 0 16 16" fill="none" xmlns="http://www.w3.org/2000/svg">
<g clip-path="url(#clip0_4897_304)">
<path fill-rule="evenodd" clip-rule="evenodd" d="M2.04257 0.0494449C1.01079 0.228801 0.218373 1.03858 0.0447069 2.09117C0.0200504 2.24067 0.000840637 4.85786 0.00113243 8.0243C0.00161875 12.8321 0.012561 13.7415 0.0734972 14.0304C0.25937 14.9119 0.849327 15.5775 1.70214 15.868L2.01825 15.9757L7.78117 15.9894C11.5916 15.9985 13.6549 15.9861 13.8712 15.9527C14.3281 15.8822 14.6877 15.7369 15.0155 15.4905C15.5 15.1263 15.8739 14.5103 15.9392 13.9685C15.953 13.8542 15.9833 13.7489 16.0065 13.7346C16.0299 13.7201 16.0486 11.1476 16.0486 7.94562C16.0486 4.67899 16.0303 2.19403 16.0062 2.20891C15.9829 2.22331 15.9526 2.14258 15.939 2.02941C15.8226 1.06464 14.956 0.217469 13.9088 0.044679C13.5831 -0.00905964 2.35328 -0.00453685 2.04257 0.0494449ZM3.37334 2.24534C3.3162 2.27296 3.2451 2.34912 3.21528 2.41453C3.13738 2.58557 3.13849 13.4169 3.21645 13.588C3.2469 13.6548 3.33769 13.7324 3.41823 13.7605C3.61144 13.8278 9.08529 13.831 9.26187 13.7639C9.38837 13.7158 9.45188 13.6102 9.5062 13.3575C9.54846 13.161 9.74173 12.9848 9.91505 12.9848C10.0829 12.9848 10.3587 13.1946 10.3587 13.3223C10.3587 13.5243 10.4655 13.7081 10.6126 13.7594C10.8059 13.8268 12.3891 13.8277 12.5818 13.7605C12.6623 13.7324 12.7531 13.6548 12.7836 13.588C12.8614 13.4172 12.8627 2.58557 12.7849 2.41492C12.7552 2.34975 12.6776 2.27213 12.6124 2.24242C12.4504 2.16864 10.7447 2.16976 10.5822 2.24378C10.4645 2.29742 10.3587 2.50275 10.3587 2.67768C10.3587 2.78613 10.0905 3.01518 9.96349 3.01518C9.91072 3.01518 9.80602 2.98338 9.73088 2.94452C9.60162 2.87765 9.55537 2.79668 9.45256 2.45693C9.42844 2.37727 9.35437 2.28458 9.28794 2.25098C9.13159 2.17185 3.53611 2.1665 3.37334 2.24534ZM0.0235519 7.99999C0.0235519 11.183 0.0293878 12.4779 0.0364881 10.8777C0.0435884 9.27746 0.0435884 6.6732 0.0364881 5.09047C0.0293878 3.50773 0.0235519 4.81701 0.0235519 7.99999ZM3.89059 7.99999V13.0821H6.33869H8.78683L8.84437 12.9558C9.09866 12.3976 9.71153 12.1304 10.3194 12.3125C10.5673 12.3868 10.9209 12.7 10.9982 12.9138L11.0591 13.0821H11.5843H12.1094V11.7933V10.5045H11.086C10.0641 10.5045 10.0623 10.5044 9.94311 10.3852C9.79571 10.2378 9.78579 10.0075 9.92099 9.87233C10.0122 9.78109 10.0831 9.77506 11.0638 9.77506H12.1094V9.43731V9.09956L11.0595 9.08473C10.023 9.07009 10.0083 9.06844 9.91661 8.95507C9.80412 8.81604 9.79707 8.61893 9.89944 8.47284C9.97375 8.36672 9.99467 8.36473 11.0423 8.36473H12.1094V7.99999V7.63524H11.0423C9.99467 7.63524 9.97375 7.63325 9.89944 7.52713C9.79707 7.38104 9.80412 7.18394 9.91661 7.0449C10.0083 6.93154 10.023 6.92988 11.0595 6.91524L12.1094 6.90041V6.56266V6.22491H11.0638C10.0831 6.22491 10.0122 6.21888 9.92099 6.12765C9.77616 5.98282 9.79128 5.72254 9.95187 5.59624C10.0722 5.50155 10.1418 5.49543 11.0947 5.49543H12.1094V4.20667V2.91792H11.5843H11.0591L10.9982 3.08614C10.9165 3.31228 10.5564 3.62027 10.285 3.69623C10.0254 3.76893 9.60629 3.73698 9.39668 3.62858C9.19286 3.5232 8.94698 3.26695 8.86781 3.07743L8.80113 2.91792H6.34589H3.89059V7.99999ZM5.3428 4.17793C5.23265 4.26703 5.22735 4.30097 5.21222 5.01027C5.19442 5.84728 5.22871 5.99571 5.45869 6.07585C5.66017 6.14613 7.86297 6.14491 8.06513 6.07444C8.28446 5.99799 8.32726 5.80317 8.30795 4.9682C8.28578 4.01049 8.41655 4.08509 6.75989 4.08509C5.5507 4.08509 5.4494 4.09175 5.3428 4.17793ZM5.30448 7.13117C5.21251 7.24808 5.20366 7.32429 5.20366 7.99999C5.20366 8.67568 5.21251 8.75189 5.30448 8.8688L5.40524 8.99695H6.73373C7.96928 8.99695 8.07024 8.99043 8.17699 8.90396C8.28923 8.81307 8.29181 8.79318 8.29181 8.00937C8.29181 7.28932 8.28237 7.19736 8.19916 7.1054C8.10919 7.00599 8.06722 7.00303 6.7559 7.00303H5.40524L5.30448 7.13117ZM5.93314 7.99999V8.26746H6.75989H7.58664V7.99999V7.73251H6.75989H5.93314V7.99999ZM5.43958 9.92723C5.23099 10.0036 5.19481 10.1727 5.21222 10.9897C5.23367 11.9965 5.09706 11.9149 6.75989 11.9149C8.42273 11.9149 8.28612 11.9965 8.30756 10.9897C8.32536 10.1527 8.29108 10.0043 8.0611 9.92412C7.87372 9.85881 5.61903 9.86148 5.43958 9.92723ZM5.93314 10.8936V11.1854H6.75989H7.58664V10.8936V10.6018H6.75989H5.93314V10.8936Z" fill="#62B543"/>
<path fill-rule="evenodd" clip-rule="evenodd" d="M3.37333 2.24535C3.31619 2.27297 3.24509 2.34913 3.21528 2.41454C3.13737 2.58558 3.13849 13.4169 3.21645 13.588C3.24689 13.6548 3.33769 13.7324 3.41822 13.7605C3.61144 13.8278 9.08529 13.831 9.26187 13.7639C9.38836 13.7158 9.45187 13.6102 9.5062 13.3575C9.54846 13.161 9.74172 12.9848 9.91505 12.9848C10.0829 12.9848 10.3587 13.1946 10.3587 13.3223C10.3587 13.5243 10.4655 13.7081 10.6126 13.7594C10.8059 13.8268 12.3891 13.8277 12.5818 13.7605C12.6623 13.7324 12.7531 13.6548 12.7836 13.588C12.8614 13.4172 12.8627 2.58558 12.7849 2.41493C12.7552 2.34976 12.6776 2.27214 12.6124 2.24243C12.4504 2.16865 10.7447 2.16977 10.5822 2.24379C10.4644 2.29743 10.3587 2.50276 10.3587 2.67769C10.3587 2.78614 10.0905 3.01519 9.96349 3.01519C9.91072 3.01519 9.80602 2.98339 9.73088 2.94453C9.60161 2.87766 9.55536 2.79669 9.45256 2.45695C9.42843 2.37729 9.35437 2.28459 9.28794 2.25099C9.13158 2.17186 3.53611 2.16651 3.37333 2.24535ZM3.89059 8V13.0821H6.33868H8.78683L8.84436 12.9558C9.09866 12.3976 9.71152 12.1304 10.3194 12.3125C10.5673 12.3868 10.9209 12.7 10.9982 12.9138L11.0591 13.0821H11.5843H12.1094V11.7933V10.5046H11.086C10.0641 10.5046 10.0623 10.5044 9.94311 10.3852C9.7957 10.2378 9.78578 10.0075 9.92098 9.87234C10.0122 9.7811 10.0831 9.77507 11.0638 9.77507H12.1094V9.43732V9.09957L11.0595 9.08474C10.023 9.0701 10.0083 9.06845 9.9166 8.95509C9.80412 8.81605 9.79707 8.61894 9.89944 8.47285C9.97375 8.36673 9.99466 8.36474 11.0423 8.36474H12.1094V8V7.63526H11.0423C9.99466 7.63526 9.97375 7.63326 9.89944 7.52715C9.79707 7.38105 9.80412 7.18395 9.9166 7.04491C10.0083 6.93155 10.023 6.92989 11.0595 6.91526L12.1094 6.90042V6.56267V6.22492H11.0638C10.0831 6.22492 10.0122 6.21889 9.92098 6.12766C9.77615 5.98283 9.79128 5.72255 9.95186 5.59625C10.0722 5.50157 10.1418 5.49544 11.0947 5.49544H12.1094V4.20668V2.91793H11.5843H11.0591L10.9982 3.08615C10.9165 3.31229 10.5564 3.62028 10.2849 3.69624C10.0254 3.76895 9.60628 3.73699 9.39668 3.62859C9.19286 3.52321 8.94698 3.26696 8.8678 3.07744L8.80113 2.91793H6.34588H3.89059V8ZM5.34279 4.17794C5.23264 4.26704 5.22734 4.30098 5.21222 5.01028C5.19442 5.84729 5.2287 5.99572 5.45868 6.07586C5.66017 6.14614 7.86296 6.14492 8.06513 6.07445C8.28446 5.998 8.32726 5.80318 8.30795 4.96822C8.28577 4.0105 8.41654 4.0851 6.75989 4.0851C5.5507 4.0851 5.44939 4.09177 5.34279 4.17794ZM5.30447 7.13118C5.21251 7.24809 5.20366 7.3243 5.20366 8C5.20366 8.67569 5.21251 8.7519 5.30447 8.86881L5.40524 8.99696H6.73372C7.96927 8.99696 8.07023 8.99044 8.17698 8.90397C8.28923 8.81308 8.2918 8.79319 8.2918 8.00938C8.2918 7.28933 8.28237 7.19737 8.19916 7.10541C8.10919 7.006 8.06722 7.00304 6.7559 7.00304H5.40524L5.30447 7.13118ZM5.93314 8V8.26747H6.75989H7.58664V8V7.73252H6.75989H5.93314V8ZM5.43957 9.92724C5.23099 10.0036 5.19481 10.1727 5.21222 10.9897C5.23366 11.9965 5.09705 11.9149 6.75989 11.9149C8.42272 11.9149 8.28611 11.9965 8.30756 10.9897C8.32536 10.1527 8.29107 10.0043 8.06109 9.92413C7.87371 9.85882 5.61902 9.86149 5.43957 9.92724ZM5.93314 10.8936V11.1854H6.75989H7.58664V10.8936V10.6018H6.75989H5.93314V10.8936Z" fill="#FCFCFC"/>
</g>
<defs>
<clipPath id="clip0_4897_304">
<rect width="16" height="16" fill="white"/>
</clipPath>
</defs>
</svg>
