<!--
  - Copyright (C) 2025 The Android Open Source Project
  -
  - Licensed under the Apache License, Version 2.0 (the "License");
  - you may not use this file except in compliance with the License.
  - You may obtain a copy of the License at
  -
  -      http://www.apache.org/licenses/LICENSE-2.0
  -
  - Unless required by applicable law or agreed to in writing, software
  - distributed under the License is distributed on an "AS IS" BASIS,
  - WITHOUT WARRANTIES OR CONDITIONS OF ANY KIND, either express or implied.
  - See the License for the specific language governing permissions and
  - limitations under the License.
  -->
<svg width="16" height="16" viewBox="0 0 16 16" fill="none" xmlns="http://www.w3.org/2000/svg"><g clip-path="url(#clip0_5891_1663)"><path d="M14 0H2a2 2 0 00-2 2v12a2 2 0 002 2h12a2 2 0 002-2V2a2 2 0 00-2-2z" fill="#548AF7"/><path d="M4.5 7V4.5h7v2" stroke="#fff" stroke-linecap="round" stroke-linejoin="round"/><path d="M2.5 7.5v-5h11v4M13.5 9.5v4h-11v-3" stroke="#fff" stroke-linecap="round" stroke-linejoin="round"/><path d="M2.5 10.5h4l3-1h4M2.5 7.5h4l3-1h4" stroke="#fff" stroke-linejoin="round"/><path d="M12 11.5H9m-6.5-1h4l3-1h4" stroke="#fff"/></g><defs><clipPath id="clip0_5891_1663"><path fill="#fff" d="M0 0h16v16H0z"/></clipPath></defs></svg>