<svg width="16" height="16" viewBox="0 0 16 16" fill="none" xmlns="http://www.w3.org/2000/svg"><g clip-path="url(#clip0_4961_877)"><path d="M14 0H2a2 2 0 0 0-2 2v12a2 2 0 0 0 2 2h12a2 2 0 0 0 2-2V2a2 2 0 0 0-2-2z" fill="#40B6E0"/><path d="M4.5 7V4.5h7v2" stroke="#fff" stroke-linecap="round" stroke-linejoin="round"/><path d="M2.5 7.5v-5h11v4M13.5 9.5v4h-11v-3" stroke="#fff" stroke-linecap="round" stroke-linejoin="round"/><path d="M2.5 10.5h4l3-1h4M2.5 7.5h4l3-1h4" stroke="#fff" stroke-linejoin="round"/><path d="M12 11.5H9m-6.5-1h4l3-1h4" stroke="#fff"/></g><defs><clipPath id="clip0_4961_877"><path fill="#fff" d="M0 0h16v16H0z"/></clipPath></defs></svg>