<svg width="16" height="16" viewBox="0 0 16 16" fill="none" xmlns="http://www.w3.org/2000/svg"><g clip-path="url(#clip0_4961_881)"><path d="M14 0H2a2 2 0 0 0-2 2v12a2 2 0 0 0 2 2h12a2 2 0 0 0 2-2V2a2 2 0 0 0-2-2z" fill="#DB5860"/><path d="M12 3.5H4a.5.5 0 0 0-.5.5v8a.5.5 0 0 0 .5.5h8a.5.5 0 0 0 .5-.5V4a.5.5 0 0 0-.5-.5z" stroke="#fff" stroke-miterlimit="10"/><path d="M12.5 6.5h2M1.5 6.5h2M12.5 9.5h2M1.5 9.5h2M6.5 3.5v-2M9.5 3.5v-2M9.5 14.5v-2M6.5 14.5v-2M6.5 6.5v3M9.5 8.5v1" stroke="#fff" stroke-linecap="round" stroke-linejoin="round"/></g><defs><clipPath id="clip0_4961_881"><path fill="#fff" d="M0 0h16v16H0z"/></clipPath></defs></svg>