<svg width="16" height="16" viewBox="0 0 16 16" fill="none" xmlns="http://www.w3.org/2000/svg"><g clip-path="url(#clip0_4961_876)"><g clip-path="url(#clip1_4961_876)"><path d="M14 0H2a2 2 0 0 0-2 2v12a2 2 0 0 0 2 2h12a2 2 0 0 0 2-2V2a2 2 0 0 0-2-2z" fill="#9178BA"/><path d="M11.5 3.5h-7v10h7v-10zM5.5 3V1.5h5V3" stroke="#fff" stroke-linecap="round" stroke-linejoin="round"/><path d="M7 11l2.5-2.5h-3L9 6" stroke="#fff" stroke-linecap="round" stroke-linejoin="round"/></g></g><defs><clipPath id="clip0_4961_876"><path fill="#fff" d="M0 0h16v16H0z"/></clipPath><clipPath id="clip1_4961_876"><path fill="#fff" d="M0 0h16v16H0z"/></clipPath></defs></svg>