<svg width="16" height="16" viewBox="0 0 16 16" fill="none" xmlns="http://www.w3.org/2000/svg">
<g clip-path="url(#clip0_4897_326)">
<path fill-rule="evenodd" clip-rule="evenodd" d="M2.04471 0.037416C1.01873 0.197754 0.184231 1.02338 0.0268365 2.03388C0.00512962 2.17335 -0.000707515 3.80337 0.00510356 8.11708L0.0130254 14.0098L0.0849212 14.2386C0.350354 15.0835 0.970159 15.683 1.82095 15.9178L2.07166 15.987H7.98697H13.9023L14.1336 15.9282C15.0145 15.7041 15.677 15.0546 15.9209 14.1758C15.9501 14.0707 15.9739 13.9517 15.9739 13.9112C15.9739 13.8688 15.985 13.8444 16 13.8537C16.0174 13.8644 16.0254 11.8967 16.0242 7.96902C16.0232 4.65374 16.0126 2.09109 16 2.12033C15.981 2.16443 15.9773 2.1599 15.9758 2.09072C15.9728 1.96051 15.8492 1.56499 15.7459 1.35524C15.4377 0.729578 14.8549 0.262066 14.147 0.0725119L13.9283 0.0139493L8.0912 0.00931843C3.51283 0.00570217 2.20893 0.011764 2.04471 0.037416ZM0.0127909 8C0.0127909 11.2481 0.0158397 12.5808 0.01954 10.9614C0.0232404 9.3421 0.0232404 6.68454 0.01954 5.05574C0.0158397 3.42697 0.0127909 4.75187 0.0127909 8ZM6.49652 2.23626C6.32114 2.34303 6.32007 2.34854 6.31124 3.19228L6.30329 3.95448L5.69886 3.9551C5.36646 3.95544 5.0486 3.96634 4.99252 3.97932C4.93644 3.9923 4.85435 4.03908 4.81011 4.08326L4.72964 4.16359L4.7231 8.72245C4.71674 13.1473 4.71799 13.2837 4.76562 13.3614C4.87426 13.5388 4.67306 13.5285 8.00393 13.5284C10.9573 13.5283 11.0113 13.5274 11.0947 13.4766C11.1414 13.4481 11.2029 13.3867 11.2314 13.3401C11.2825 13.2563 11.2832 13.1997 11.2832 8.74147C11.2832 4.3104 11.2823 4.22611 11.2323 4.14437C11.1308 3.9781 11.0838 3.96837 10.3388 3.95939L9.66775 3.95128V3.19712C9.66775 2.36322 9.66261 2.33314 9.5036 2.23636C9.42358 2.18763 9.36271 2.18555 8 2.18555C6.63817 2.18555 6.57639 2.18766 6.49652 2.23626ZM7.06189 3.44716V3.95448H7.98697H8.91205V3.44716V2.93984H7.98697H7.06189V3.44716ZM5.47231 8.74147V12.774H8H10.5277V8.74147V4.70895H8H5.47231V8.74147ZM8.37686 5.85452C8.33334 5.86761 8.2671 5.91079 8.22968 5.95055C8.08901 6.09991 6.46452 8.5874 6.44708 8.68012C6.421 8.819 6.47512 8.96268 6.58506 9.04648L6.67987 9.1187L7.60047 9.13171L8.52106 9.14472L7.86923 10.1305C7.51072 10.6726 7.21029 11.1445 7.20156 11.1792C7.1694 11.3071 7.21026 11.4513 7.30566 11.5466C7.38248 11.6233 7.41884 11.6393 7.53558 11.6479C7.6431 11.6559 7.69352 11.6461 7.76 11.6045C7.82168 11.5658 8.09125 11.1808 8.7219 10.2307C9.53615 9.00387 9.5989 8.90121 9.60972 8.77825C9.62329 8.62416 9.57402 8.50644 9.46645 8.43601C9.40404 8.39517 9.29646 8.38884 8.46418 8.37724L7.53185 8.36423L8.1989 7.35574C8.85138 6.36925 8.86595 6.34436 8.86595 6.21474C8.86595 5.95736 8.62504 5.77993 8.37686 5.85452Z" fill="#9178BA"/>
<path fill-rule="evenodd" clip-rule="evenodd" d="M6.49652 2.23625C6.32115 2.34302 6.32008 2.34854 6.31125 3.19227L6.3033 3.95447L5.69887 3.95509C5.36647 3.95543 5.0486 3.96633 4.99252 3.97932C4.93645 3.9923 4.85436 4.03908 4.81011 4.08325L4.72965 4.16359L4.7231 8.72244C4.71675 13.1473 4.718 13.2837 4.76563 13.3614C4.87427 13.5388 4.67307 13.5285 8.00394 13.5283C10.9573 13.5283 11.0113 13.5274 11.0947 13.4766C11.1414 13.4481 11.2029 13.3867 11.2314 13.3401C11.2826 13.2563 11.2832 13.1997 11.2832 8.74146C11.2832 4.3104 11.2823 4.22611 11.2323 4.14436C11.1308 3.97809 11.0838 3.96836 10.3388 3.95939L9.66776 3.95127V3.19711C9.66776 2.36321 9.66262 2.33314 9.50361 2.23636C9.42359 2.18763 9.36271 2.18555 8 2.18555C6.63818 2.18555 6.57639 2.18765 6.49652 2.23625ZM7.06189 3.44715V3.95447H7.98697H8.91206V3.44715V2.93984H7.98697H7.06189V3.44715ZM5.47232 8.74146V12.774H8H10.5277V8.74146V4.70894H8H5.47232V8.74146ZM8.37686 5.85452C8.33335 5.8676 8.2671 5.91079 8.22968 5.95054C8.08902 6.0999 6.46452 8.58739 6.44709 8.68012C6.42101 8.81899 6.47513 8.96268 6.58507 9.04648L6.67987 9.1187L7.60047 9.13171L8.52107 9.14471L7.86924 10.1304C7.51073 10.6726 7.2103 11.1445 7.20157 11.1792C7.16941 11.3071 7.21027 11.4513 7.30567 11.5466C7.38249 11.6233 7.41884 11.6393 7.53559 11.6479C7.6431 11.6559 7.69353 11.6461 7.76 11.6044C7.82168 11.5658 8.09126 11.1808 8.72191 10.2307C9.53616 9.00386 9.59891 8.9012 9.60972 8.77825C9.6233 8.62415 9.57402 8.50643 9.46645 8.43601C9.40404 8.39516 9.29647 8.38884 8.46419 8.37723L7.53186 8.36423L8.19891 7.35573C8.85139 6.36925 8.86596 6.34435 8.86596 6.21474C8.86596 5.95736 8.62505 5.77993 8.37686 5.85452Z" fill="#FCFCFC"/>
</g>
<defs>
<clipPath id="clip0_4897_326">
<rect width="16" height="16" fill="white"/>
</clipPath>
</defs>
</svg>
