<svg width="16" height="16" viewBox="0 0 16 16" fill="none" xmlns="http://www.w3.org/2000/svg">
<path d="M9 1C10.1046 1 11 1.89543 11 3V8.19336C10.7908 8.16106 10.5774 8.14357 10.3604 8.14355C10.2393 8.14355 10.1189 8.14919 10 8.15918V3C10 2.44772 9.55228 2 9 2H4C3.44772 2 3 2.44772 3 3V13C3 13.5523 3.44772 14 4 14H6.80469C6.99235 14.3584 7.23013 14.6832 7.51758 14.9707C7.52751 14.9806 7.53783 14.9902 7.54785 15H4C2.89543 15 2 14.1046 2 13V3C2 1.89543 2.89543 1 4 1H9ZM7.5 3C7.77614 3 8 3.22386 8 3.5C8 3.77614 7.77614 4 7.5 4H5.5C5.22386 4 5 3.77614 5 3.5C5 3.22386 5.22386 3 5.5 3H7.5Z" fill="#CED0D6"/>
<path d="M13 15V10.92H13.984V11.464H14.048C14.1173 11.336 14.208 11.224 14.32 11.128C14.4373 11.0267 14.5733 10.9467 14.728 10.888C14.8827 10.8293 15.048 10.8 15.224 10.8C15.3307 10.8 15.4267 10.808 15.512 10.824C15.5973 10.84 15.672 10.8613 15.736 10.888V11.936C15.624 11.8933 15.512 11.8587 15.4 11.832C15.2933 11.8 15.1787 11.784 15.056 11.784C14.848 11.784 14.6667 11.8373 14.512 11.944C14.3627 12.0453 14.248 12.1867 14.168 12.368C14.088 12.544 14.048 12.744 14.048 12.968V15H13Z" fill="#3DDC84"/>
<path d="M10.36 15.128C9.93865 15.128 9.54399 15.0533 9.17599 14.904C8.81332 14.7493 8.49599 14.536 8.22399 14.264C7.95199 13.992 7.73865 13.6746 7.58399 13.312C7.43465 12.9493 7.35999 12.5573 7.35999 12.136C7.35999 11.7146 7.43465 11.3226 7.58399 10.96C7.73865 10.5973 7.95199 10.28 8.22399 10.008C8.49599 9.73598 8.81332 9.52532 9.17599 9.37598C9.54399 9.22132 9.93865 9.14398 10.36 9.14398C10.664 9.14398 10.944 9.18132 11.2 9.25598C11.456 9.32532 11.6907 9.42932 11.904 9.56798C12.1227 9.70665 12.3227 9.87732 12.504 10.08L11.744 10.816C11.632 10.6826 11.5067 10.568 11.368 10.472C11.2347 10.376 11.0853 10.3013 10.92 10.248C10.7547 10.1946 10.5707 10.168 10.368 10.168C10.0107 10.168 9.68532 10.2506 9.39199 10.416C9.10399 10.576 8.87465 10.8026 8.70399 11.096C8.53332 11.3893 8.44799 11.736 8.44799 12.136C8.44799 12.5306 8.53332 12.8773 8.70399 13.176C8.87465 13.4693 9.10399 13.6986 9.39199 13.864C9.68532 14.024 10.0107 14.104 10.368 14.104C10.688 14.104 10.9707 14.0373 11.216 13.904C11.4667 13.7706 11.688 13.5866 11.88 13.352L12.648 14.08C12.4613 14.304 12.2507 14.496 12.016 14.656C11.7813 14.8106 11.5253 14.928 11.248 15.008C10.9707 15.088 10.6747 15.128 10.36 15.128Z" fill="#3DDC84"/>
</svg>
