<svg width="20" height="20" viewBox="0 0 20 20" fill="none" xmlns="http://www.w3.org/2000/svg">
<path d="M11 2C12.1046 2 13 2.89543 13 4V10.2373C12.7371 10.199 12.4701 10.1797 12.2002 10.1797C11.9642 10.1797 11.7305 10.1953 11.5 10.2246V4C11.5 3.72386 11.2761 3.5 11 3.5H4C3.72386 3.5 3.5 3.72386 3.5 4V16C3.5 16.2761 3.72386 16.5 4 16.5H7.05371C7.11849 16.828 7.21429 17.1489 7.34277 17.4609L7.35059 17.4785C7.42715 17.658 7.51324 17.8318 7.60742 18H4C2.89543 18 2 17.1046 2 16V4C2 2.89543 2.89543 2 4 2H11ZM8.25 5C8.66421 5 9 5.33579 9 5.75C9 6.16421 8.66421 6.5 8.25 6.5H6.75C6.33579 6.5 6 6.16421 6 5.75C6 5.33579 6.33579 5 6.75 5H8.25Z" fill="#6C707E"/>
<path d="M16 19V13.9H17.23V14.58H17.31C17.3967 14.42 17.51 14.28 17.65 14.16C17.7967 14.0333 17.9667 13.9333 18.16 13.86C18.3533 13.7867 18.56 13.75 18.78 13.75C18.9133 13.75 19.0333 13.76 19.14 13.78C19.2467 13.8 19.34 13.8267 19.42 13.86V15.17C19.28 15.1167 19.14 15.0733 19 15.04C18.8667 15 18.7233 14.98 18.57 14.98C18.31 14.98 18.0833 15.0467 17.89 15.18C17.7033 15.3067 17.56 15.4833 17.46 15.71C17.36 15.93 17.31 16.18 17.31 16.46V19H16Z" fill="#3DDC84"/>
<path d="M12.2 19.16C11.6733 19.16 11.18 19.0667 10.72 18.88C10.2667 18.6867 9.87001 18.42 9.53001 18.08C9.19001 17.74 8.92335 17.3433 8.73001 16.89C8.54335 16.4367 8.45001 15.9467 8.45001 15.42C8.45001 14.8933 8.54335 14.4033 8.73001 13.95C8.92335 13.4967 9.19001 13.1 9.53001 12.76C9.87001 12.42 10.2667 12.1567 10.72 11.97C11.18 11.7767 11.6733 11.68 12.2 11.68C12.58 11.68 12.93 11.7267 13.25 11.82C13.57 11.9067 13.8633 12.0367 14.13 12.21C14.4033 12.3833 14.6533 12.5967 14.88 12.85L13.93 13.77C13.79 13.6033 13.6333 13.46 13.46 13.34C13.2933 13.22 13.1067 13.1267 12.9 13.06C12.6933 12.9933 12.4633 12.96 12.21 12.96C11.7633 12.96 11.3567 13.0633 10.99 13.27C10.63 13.47 10.3433 13.7533 10.13 14.12C9.91668 14.4867 9.81001 14.92 9.81001 15.42C9.81001 15.9133 9.91668 16.3467 10.13 16.72C10.3433 17.0867 10.63 17.3733 10.99 17.58C11.3567 17.78 11.7633 17.88 12.21 17.88C12.61 17.88 12.9633 17.7967 13.27 17.63C13.5833 17.4633 13.86 17.2333 14.1 16.94L15.06 17.85C14.8267 18.13 14.5633 18.37 14.27 18.57C13.9767 18.7633 13.6567 18.91 13.31 19.01C12.9633 19.11 12.5933 19.16 12.2 19.16Z" fill="#3DDC84"/>
</svg>
