<svg width="16" height="16" viewBox="0 0 16 16" fill="none" xmlns="http://www.w3.org/2000/svg"><g clip-path="url(#clip0_4343_1431)"><path fill-rule="evenodd" clip-rule="evenodd" d="M11 2H5a1 1 0 0 0-1 1v10a1 1 0 0 0 1 1h6a1 1 0 0 0 1-1V6h-1v7H5V3h6V2z" fill="#CED0D6"/><path fill-rule="evenodd" clip-rule="evenodd" d="M12.5 0a.5.5 0 0 0 0 1h1.793l-3.147 3.146a.5.5 0 0 0 .708.708L15 1.707V3.5a.5.5 0 0 0 1 0v-3a.5.5 0 0 0-.5-.5h-3z" fill="#57965C"/><rect x="7" y="4" width="2" height="1" rx=".5" fill="#CED0D6"/></g><defs><clipPath id="clip0_4343_1431"><path fill="#fff" d="M0 0h16v16H0z"/></clipPath></defs></svg>