<svg width="16" height="16" viewBox="0 0 16 16" fill="none" xmlns="http://www.w3.org/2000/svg"><path d="M11 11.5a.5.5 0 0 1 .5-.5h2a.5.5 0 0 1 .5.5v2a.5.5 0 0 1-.5.5h-2a.5.5 0 0 1-.5-.5v-2zM7 11.5a.5.5 0 0 1 .5-.5h2a.5.5 0 0 1 .5.5v2a.5.5 0 0 1-.5.5h-2a.5.5 0 0 1-.5-.5v-2zM11 7.5a.5.5 0 0 1 .5-.5h2a.5.5 0 0 1 .5.5v2a.5.5 0 0 1-.5.5h-2a.5.5 0 0 1-.5-.5v-2z" fill="#3574F0"/><path fill-rule="evenodd" clip-rule="evenodd" d="M11.5 2h-8A1.5 1.5 0 0 0 2 3.5v8A1.5 1.5 0 0 0 3.5 13H6v-1H3.5a.5.5 0 0 1-.5-.5v-8a.5.5 0 0 1 .5-.5h8a.5.5 0 0 1 .5.5V6h1V3.5A1.5 1.5 0 0 0 11.5 2z" fill="#6C707E"/></svg>