<svg width="16" height="16" viewBox="0 0 16 16" fill="none" xmlns="http://www.w3.org/2000/svg"><g clip-path="url(#clip0_44_3)"><g clip-path="url(#clip1_44_3)"><path d="M8.577 14.301l5-2.083a1.5 1.5 0 00.923-1.385V4.667a1.5 1.5 0 00-.923-1.385l-5-2.083a1.5 1.5 0 00-1.154 0l-5 2.083A1.5 1.5 0 001.5 4.667v6.166a1.5 1.5 0 00.923 1.385l5 2.083a1.5 1.5 0 001.154 0zm1.615-4.756l-2 .833a.5.5 0 01-.384 0l-2-.833a.5.5 0 01-.308-.462V6.417a.5.5 0 01.308-.462l2-.833a.5.5 0 01.384 0l2 .833a.5.5 0 01.308.462v2.666a.5.5 0 01-.308.462z" fill="#25324D" stroke="#548AF7"/><mask id="a" fill="#fff"><path d="M5.645 5.481L2.231 3.704l-.462.887 3.24 1.687a1 1 0 01.606-.784l.03-.013zM10.99 6.278a1 1 0 00-.605-.784l-.03-.013 3.414-1.777.462.887-3.24 1.687zM7.5 10.792l.115.048a1 1 0 00.77 0l.115-.048v3.855h-1v-3.855z"/></mask><path d="M5.645 5.481L2.231 3.704l-.462.887 3.24 1.687a1 1 0 01.606-.784l.03-.013zM10.99 6.278a1 1 0 00-.605-.784l-.03-.013 3.414-1.777.462.887-3.24 1.687zM7.5 10.792l.115.048a1 1 0 00.77 0l.115-.048v3.855h-1v-3.855z" fill="#548AF7"/><path d="M2.23 3.704l.463-.887-.887-.462-.462.887.887.462zM5.646 5.48l.385.923 1.974-.822-1.897-.988-.462.887zm-3.876-.89l-.887-.462-.462.887.887.462.462-.887zm3.24 1.687l-.461.887 1.256.653L6 6.416l-.99-.138zm.606-.784L6 6.417l-.385-.923zm4.77 0l.384-.923-.384.923zm.605.784l-.99.138.196 1.402 1.256-.653-.462-.887zm-.635-.797l-.462-.887-1.897.988 1.974.822.385-.923zm3.414-1.777l.887-.462-.462-.887-.887.462.462.887zm.462.887l.462.887.887-.462-.462-.887-.887.462zM7.615 10.84L8 9.917l-.385.923zm-.115-.048l.385-.923L6.5 9.292v1.5h1zm.885.048l.384.923-.384-.923zm.115-.048h1v-1.5l-1.385.577.385.923zm0 3.855v1h1v-1h-1zm-1 0h-1v1h1v-1zM1.77 4.591l3.414 1.777.923-1.774-3.414-1.777-.924 1.774zm.886.461l.462-.887-1.774-.923-.462.887 1.774.923zm2.815.339l-3.24-1.687-.924 1.774 3.24 1.687.924-1.774zM6 6.416l-.77-1.845a2 2 0 00-1.21 1.568L6 6.416zm0 0l.03-.012-.77-1.846-.03.013L6 6.417zm4 0l1.98-.277a2 2 0 00-1.21-1.568L10 6.417zm-.03-.012l.03.013.77-1.846-.03-.013-.77 1.846zm.846-.036l3.415-1.777-.924-1.774-3.414 1.777.923 1.774zm2.066-2.203l.462.887 1.774-.923-.462-.887-1.774.923zm.887-.461L10.53 5.39l.923 1.774 3.24-1.687-.923-1.774zM8 9.917l-.115-.048-.77 1.846.116.048L8 9.917zm0 0l-.77 1.846a2 2 0 001.54 0L8 9.917zm.115-.048L8 9.917l.77 1.846.115-.048-.77-1.846zm-.615.923v3.855h2v-3.855h-2zm1 2.855h-1v2h1v-2zm0 1v-3.855h-2v3.855h2z" fill="#548AF7" mask="url(#a)"/></g></g><defs><clipPath id="clip0_44_3"><path fill="#fff" d="M0 0h16v16H0z"/></clipPath><clipPath id="clip1_44_3"><path fill="#fff" d="M0 0h16v16H0z"/></clipPath></defs></svg>