<svg width="16" height="16" viewBox="0 0 16 16" fill="none" xmlns="http://www.w3.org/2000/svg"><path d="M8 9a1 1 0 100-2 1 1 0 000 2z" fill="#CED0D6"/><path fill-rule="evenodd" clip-rule="evenodd" d="M8 11c-3 0-4-3-4-3s1-3 4-3 4 3 4 3-1 3-4 3zm2.902-3.022l.011.022-.01.022c-.116.23-.295.536-.546.838C9.86 9.456 9.119 10 8 10c-1.119 0-1.86-.544-2.357-1.14a4.398 4.398 0 01-.545-.838L5.087 8l.01-.022c.116-.23.295-.536.546-.838C6.14 6.544 6.881 6 8 6c1.119 0 1.86.544 2.357 1.14.251.302.43.608.545.838z" fill="#CED0D6"/><path d="M3 1.5h10a.5.5 0 01.5.5v12a.5.5 0 01-.5.5H3a.5.5 0 01-.5-.5V2a.5.5 0 01.5-.5z" stroke="#CED0D6" stroke-linecap="round"/></svg>