<svg width="16" height="16" viewBox="0 0 16 16" fill="none" xmlns="http://www.w3.org/2000/svg"><g clip-path="url(#clip0_3087_706)" fill="#9AA7B0"><path fill-rule="evenodd" clip-rule="evenodd" d="M10.995 3L9.82 4.175 13.637 8 9.82 11.825 10.995 13l5-5-5-5zM5 3l1.175 1.175L2.358 8l3.817 3.825L5 13 0 8l5-5z"/><path d="M6 8a1 1 0 1 1-2 0 1 1 0 0 1 2 0zM9 8a1 1 0 1 1-2 0 1 1 0 0 1 2 0zM12 8a1 1 0 1 1-2 0 1 1 0 0 1 2 0z"/></g><defs><clipPath id="clip0_3087_706"><path fill="#fff" d="M0 0h16v16H0z"/></clipPath></defs></svg>