<svg width="16" height="16" viewBox="0 0 16 16" xmlns="http://www.w3.org/2000/svg"><rect id="frame" width="16" height="16" fill="none"/><path d="M12.5 4c-.358-.597-.332-.907-1.068-1h-6.86c-.737.093-.713.401-1.072 1C3.5 4 2 7 2 7.287V12.5s0 1 1 1h.5c1 0 1-1 1-1v-1s7.068-.075 7 0v1s0 1 1 1h.5c1 0 1.005-1.068 1.005-1.068V7.287C14 7 12.5 4 12.5 4zm-7.465 6.017a.999.999 0 0 1-1.018-.982A.999.999 0 0 1 5 8.017.999.999 0 0 1 6.017 9a.999.999 0 0 1-.982 1.017zm6 0a.999.999 0 0 1-1.018-.982A.999.999 0 0 1 11 8.017.999.999 0 0 1 12.017 9a.999.999 0 0 1-.982 1.017zM4 7l1-3h6l1 3H4z" fill="#9AA7B0" fill-rule="evenodd"/></svg>