<svg width="32" height="32" viewBox="0 0 32 32" xmlns="http://www.w3.org/2000/svg"><rect id="frame" width="32" height="32" fill="none"/><path d="M22.92 9.01C22.72 8.42 22.16 8 21.5 8h-11c-.66 0-1.21.42-1.42 1.01L7 15v8c0 .55.45 1 1 1h1c.55 0 1-.45 1-1v-1h12v1c0 .55.45 1 1 1h1c.55 0 1-.45 1-1v-8l-2.08-5.99zM10.5 19c-.83 0-1.5-.67-1.5-1.5s.67-1.5 1.5-1.5 1.5.67 1.5 1.5-.67 1.5-1.5 1.5zm11 0c-.83 0-1.5-.67-1.5-1.5s.67-1.5 1.5-1.5 1.5.67 1.5 1.5-.67 1.5-1.5 1.5zM9 14l1.5-4.5h11L23 14H9z" fill="#9AA7B0" fill-rule="evenodd"/></svg>