<svg width="32" height="32" viewBox="0 0 32 32" xmlns="http://www.w3.org/2000/svg"><rect width="32" height="32" fill="none"/><g fill="none" fill-rule="evenodd"><path d="M0 0h32v32H0z"/><path d="M13.14 13.21c.758.061 1.586.152 2.5.28.22.03 1.466.082 1.466.082v2.26s-.273.024-.45.147c-.178.123-.178.38-.178.38-.66 4.296-1.364 5.313-5.828 5.313-4.049 0-5.116-1-5.388-5.705H7.62c.066 1.452.13 2.47.588 3.087.382.514.77.65 1.22.76.772.19 1.524.116 2.106.06.644-.06 1.59-.2 2.064-.663.55-.542.766-1.586.993-3.288-.227-.387-.403-.49-.758-.58a9.033 9.033 0 0 0-.692-.145V13.21zm15.631.526s.264.223.24.67c-.146 6.05-.986 7.264-5.45 7.264-4.462 0-5.166-1.017-5.827-5.313 0 0 0-.257-.178-.38-.177-.122-.45-.146-.45-.146v-2.26s1.245-.052 1.467-.083c5.343-.744 7.772-.248 10.198.248zm-9.121 2.187c.227 1.702.444 2.746.993 3.288.474.464 1.42.603 2.064.664.582.055 1.334.13 2.105-.06.45-.111.84-.247 1.22-.76.502-.677.532-1.836.608-3.519-1.69-.785-4.717-.58-6.232-.193-.355.09-.53.193-.758.58zM3 12.496L3.513 12h4.872l.532.496h2.48v2.48H8.64l-.256.247H3.513L3 14.727v-2.231zm1.539 1.606a.513.513 0 1 0 0-1.025.513.513 0 0 0 0 1.025z" fill="#6E6E6E"/></g></svg>