<svg width="16" height="16" viewBox="0 0 16 16" xmlns="http://www.w3.org/2000/svg"><rect width="16" height="16" fill="none"/><path d="M14.197 7.205L12.024 5.97 9.994 8l2.03 2.03 2.173-1.235c.39-.22.582-.504.582-.795 0-.29-.192-.575-.582-.795zM3.214 1.22l5.978 5.978 1.81-1.81-7.596-4.303c-.05-.028-.1-.05-.15-.07-.12-.05-.212.035-.106.149.021.014.043.035.064.056zm0 13.56l-.057.057c-.106.107-.014.199.107.15.05-.022.1-.043.149-.072l7.59-4.302-1.811-1.81S4.08 13.92 3.214 14.78zM8.389 8L2.27 1.88C2.136 1.747 2 1.83 2 2.017v11.97c0 .184.135.269.27.134L8.39 8z" fill="#AFB1B3" fill-rule="nonzero"/></svg>