<!--
  - Copyright (C) 2025 The Android Open Source Project
  -
  - Licensed under the Apache License, Version 2.0 (the "License");
  - you may not use this file except in compliance with the License.
  - You may obtain a copy of the License at
  -
  -      http://www.apache.org/licenses/LICENSE-2.0
  -
  - Unless required by applicable law or agreed to in writing, software
  - distributed under the License is distributed on an "AS IS" BASIS,
  - WITHOUT WARRANTIES OR CONDITIONS OF ANY KIND, either express or implied.
  - See the License for the specific language governing permissions and
  - limitations under the License.
  -->
<svg width="16" height="16" viewBox="0 0 16 16" fill="none" xmlns="http://www.w3.org/2000/svg"><path d="M2.5 8a.5.5 0 01.5-.5h10a.5.5 0 01.5.5v3.5h-11V8zM3 7.5l.826-3.717A1 1 0 014.802 3h6.396a1 1 0 01.976.783L13 7.5M2.5 11.5v1a1 1 0 001 1h1a1 1 0 001-1v-1M10.5 11.5v1a1 1 0 001 1h1a1 1 0 001-1v-1" stroke="#6C707E"/><circle cx="5" cy="9.5" r="1" fill="#6C707E"/><circle cx="11" cy="9.5" r="1" fill="#6C707E"/></svg>