<svg width="16" height="16" viewBox="0 0 16 16" fill="none" xmlns="http://www.w3.org/2000/svg"><g clip-path="url(#clip0_136_1178)"><path d="M6 5.5h4M10.607 5.5a1.5 1.5 0 00-1.492 1.652l.204 2a1.501 1.501 0 001.493 1.348h1.84a1.5 1.5 0 001.49-1.331l.228-2A1.5 1.5 0 0012.88 5.5h-2.273z" stroke="#CED0D6" stroke-linecap="square"/><rect x="3" y="8" width="2" height="1" rx=".5" fill="#CED0D6"/><path d="M5.393 5.5a1.5 1.5 0 011.492 1.652l-.204 2A1.501 1.501 0 015.187 10.5h-1.84a1.5 1.5 0 01-1.49-1.331l-.227-2A1.5 1.5 0 013.12 5.5h2.273z" stroke="#CED0D6" stroke-linecap="square"/></g><defs><clipPath id="clip0_136_1178"><path fill="#fff" d="M0 0h16v16H0z"/></clipPath></defs></svg>