<svg width="16" height="16" viewBox="0 0 16 16" xmlns="http://www.w3.org/2000/svg"><rect width="16" height="16" fill="none"/><path d="M6.15 6.635a19 19 0 0 1 1.653.203c.119.02.789.052.789.052v1.43s-.147.015-.242.093c-.096.077-.096.24-.096.24-.356 2.718-.734 3.362-3.136 3.362-2.169 0-2.748-.627-2.898-3.565h1.274c.034.83.08 1.423.309 1.793.205.333.414.42.656.492.416.124.82.075 1.134.04.346-.04.855-.13 1.11-.43.296-.352.413-1.029.535-2.132-.122-.25-.217-.317-.408-.376a4.82 4.82 0 0 0-.68-.149V6.635zm8.72.358s.142.142.13.424c-.08 3.828-.531 4.597-2.933 4.597-2.403 0-2.781-.644-3.137-3.362 0 0 0-.163-.096-.24-.095-.078-.242-.093-.242-.093v-1.43s.67-.033.79-.052c2.875-.471 4.182-.157 5.488.156zm-4.909 1.22c.123 1.103.239 1.78.535 2.131.255.3.764.391 1.11.43.314.036.718.085 1.134-.039.242-.071.451-.16.656-.492.27-.439.287-1.19.327-2.28-.91-.51-2.538-.377-3.354-.126-.191.059-.285.125-.408.376zM1 6.17l.276-.27h2.622l.287.27h1.334v1.431H4.036l-.138.134H1.276L1 7.468V6.17z" fill="#6E6E6E" fill-rule="evenodd"/></svg>