<svg width="16" height="16" viewBox="0 0 16 16" fill="none" xmlns="http://www.w3.org/2000/svg"><g clip-path="url(#clip0_5012_259)"><path d="M5.743 14.52c.597.232 1.245.37 1.926.394a5.82 5.82 0 0 0 2.58-.504 8.08 8.08 0 0 1-2.515-1.528 4.272 4.272 0 0 1-1.991 1.638z" fill="#FF9100"/><path d="M7.734 12.882c-1.657-1.484-2.662-3.63-2.577-5.985.003-.077.007-.153.012-.23a4.422 4.422 0 0 0-2.24.023 5.348 5.348 0 0 0-.742 2.532c-.086 2.379 1.4 4.457 3.556 5.298a4.272 4.272 0 0 0 1.99-1.638z" fill="#FFC400"/><path d="M7.734 12.882a4.035 4.035 0 0 0 .645-2.05c.072-1.983-1.305-3.689-3.21-4.164a8.283 8.283 0 0 0-.012.229c-.085 2.355.92 4.501 2.577 5.985z" fill="#FF9100"/><path d="M8.166 1.094a7.815 7.815 0 0 0-2.46 3.23 7.546 7.546 0 0 0-.537 2.344c1.905.475 3.281 2.181 3.21 4.164a4.044 4.044 0 0 1-.646 2.05 8.063 8.063 0 0 0 2.514 1.529c1.885-.844 3.222-2.658 3.3-4.805.05-1.39-.503-2.63-1.282-3.676-.824-1.107-4.099-4.836-4.099-4.836z" fill="#DD2C00"/></g><defs><clipPath id="clip0_5012_259"><path fill="#fff" d="M0 0h16v16H0z"/></clipPath></defs></svg>