<svg width="16" height="16" fill="none" xmlns="http://www.w3.org/2000/svg"><path fill-rule="evenodd" clip-rule="evenodd" d="M9 9H7v2H5v2h2v2h2v-2h2v-2H9V9z" fill="#499C54"/><path fill-rule="evenodd" clip-rule="evenodd" d="M11.827 1.761A10 10 0 0115.07 3.93l-1.414 1.414A7.975 7.975 0 008 3c-2.21 0-4.21.895-5.657 2.343L.93 3.93a10 10 0 0110.897-2.17z" fill="#AFB1B3"/><path fill-rule="evenodd" clip-rule="evenodd" d="M10.296 5.457c.728.301 1.39.743 1.947 1.3l-1.415 1.415A3.987 3.987 0 008 7a3.988 3.988 0 00-2.828 1.172L3.757 6.757a6 6 0 016.54-1.3z" fill="#AFB1B3"/></svg>