<svg width="16" height="16" viewBox="0 0 16 16" fill="none" xmlns="http://www.w3.org/2000/svg"><g clip-path="url(#clip0_5298_563)"><path fill-rule="evenodd" clip-rule="evenodd" d="M14 8c0 .435-.046.86-.134 1.269l.896.549a7 7 0 10-6.412 5.174V13.99A6 6 0 1114 8zM8 3.5a.5.5 0 01.5.5v3.5H12a.5.5 0 010 1H8a.5.5 0 01-.5-.5V4a.5.5 0 01.5-.5z" fill="#CED0D6"/><path d="M14.605 11.49a1 1 0 010 1.706l-3.233 1.978a1 1 0 01-1.522-.854v-3.954a1 1 0 011.522-.853l3.233 1.977z" fill="#43454A" stroke="#CED0D6"/></g><defs><clipPath id="clip0_5298_563"><path fill="#fff" d="M0 0h16v16H0z"/></clipPath></defs></svg>