<svg width="16" height="16" viewBox="0 0 16 16" fill="none" xmlns="http://www.w3.org/2000/svg"><path fill-rule="evenodd" clip-rule="evenodd" d="M1 8c0-3.864 3.129-7 6.993-7a7.004 7.004 0 016.582 9.407l-1.224-.748c.162-.524.249-1.081.249-1.659 0-3.094-2.506-5.6-5.6-5.6A5.598 5.598 0 002.4 8 5.598 5.598 0 009 13.511v1.417A6.997 6.997 0 011 8zm10.65.62h.85V7.5H9.818l1.832 1.12zM9 7.5v1.12H7.333V3.343h1V7.5H9z" fill="#6E6E6E"/><path fill-rule="evenodd" clip-rule="evenodd" d="M10 9l6 3.5-6 3.5V9z" fill="#6E6E6E"/></svg>