<svg width="16" height="16" viewBox="0 0 16 16" fill="none" xmlns="http://www.w3.org/2000/svg"><path fill-rule="evenodd" clip-rule="evenodd" d="M14.97 15a4 4 0 0 0-7.94 0H6.026a5 5 0 0 1 9.95 0H14.97z" fill="#3DDC84"/><path d="M6 15h10v.5a.5.5 0 0 1-.5.5h-9a.5.5 0 0 1-.5-.5V15z" fill="#3DDC84"/><path fill-rule="evenodd" clip-rule="evenodd" d="M9 11.5a.5.5 0 0 1-.7-.1l-.9-1.2a.5.5 0 1 1 .8-.6l.9 1.2a.5.5 0 0 1-.1.7zM13 11.5a.5.5 0 0 0 .7-.1l.9-1.2a.5.5 0 1 0-.8-.6l-.9 1.2a.5.5 0 0 0 .1.7z" fill="#3DDC84"/><path fill-rule="evenodd" clip-rule="evenodd" d="M7.914 1a1.5 1.5 0 0 0-1.06.44L3.439 4.853A1.5 1.5 0 0 0 3 5.914V13.5A1.5 1.5 0 0 0 4.5 15H5v-1h-.5a.5.5 0 0 1-.5-.5V6h2.5A1.5 1.5 0 0 0 8 4.5V2h3.5a.5.5 0 0 1 .5.5V9h1V2.5A1.5 1.5 0 0 0 11.5 1H7.914zM4.707 5L7 2.707V4.5a.5.5 0 0 1-.5.5H4.707z" fill="#CED0D6"/></svg>