<svg width="16" height="16" viewBox="0 0 16 16" fill="none" xmlns="http://www.w3.org/2000/svg">
<g clip-path="url(#clip0_3_830)">
<path fill-rule="evenodd" clip-rule="evenodd" d="M13.9691 14C13.723 12.0268 12.0398 10.5 10 10.5C7.96019 10.5 6.277 12.0268 6.03095 14H5.02469C5.27555 11.4733 7.40733 9.5 10 9.5C12.5927 9.5 14.7245 11.4733 14.9753 14H13.9691Z" fill="#3DDC84"/>
<circle cx="8.5" cy="12.5" r="0.5" fill="#3DDC84"/>
<circle cx="11.5" cy="12.5" r="0.5" fill="#3DDC84"/>
<path d="M5 14H15V14.5C15 14.7761 14.7761 15 14.5 15H5.5C5.22386 15 5 14.7761 5 14.5V14Z" fill="#3DDC84"/>
<path fill-rule="evenodd" clip-rule="evenodd" d="M8.00001 10.5C7.77909 10.6657 7.46569 10.6209 7.30001 10.4L6.40001 9.20001C6.23432 8.9791 6.27909 8.6657 6.50001 8.50001C6.72092 8.33433 7.03432 8.3791 7.20001 8.60001L8.10001 9.80001C8.26569 10.0209 8.22092 10.3343 8.00001 10.5Z" fill="#3DDC84"/>
<path fill-rule="evenodd" clip-rule="evenodd" d="M12 10.5C12.2209 10.6657 12.5343 10.6209 12.7 10.4L13.6 9.20001C13.7657 8.9791 13.7209 8.6657 13.5 8.50001C13.2791 8.33433 12.9657 8.3791 12.8 8.60001L11.9 9.80001C11.7343 10.0209 11.7791 10.3343 12 10.5Z" fill="#3DDC84"/>
<path fill-rule="evenodd" clip-rule="evenodd" d="M6.91421 1C6.51639 1 6.13486 1.15804 5.85355 1.43934L2.43934 4.85355C2.15803 5.13486 2 5.51639 2 5.91421V13.5C2 14.3284 2.67157 15 3.5 15H4V14H3.5C3.22386 14 3 13.7761 3 13.5V6H5.5C6.32843 6 7 5.32843 7 4.5V2H10.5C10.7761 2 11 2.22386 11 2.5V8H12V2.5C12 1.67157 11.3284 1 10.5 1H6.91421ZM3.70711 5L6 2.70711V4.5C6 4.77614 5.77614 5 5.5 5H3.70711Z" fill="#6C707E"/>
</g>
<defs>
<clipPath id="clip0_3_830">
<rect width="16" height="16" fill="white"/>
</clipPath>
</defs>
</svg>
