<svg width="16" height="16" viewBox="0 0 16 16" fill="none" xmlns="http://www.w3.org/2000/svg"><path fill-rule="evenodd" clip-rule="evenodd" d="M13.97 14a4 4 0 0 0-7.94 0H5.026a5 5 0 0 1 9.95 0H13.97z" fill="#3DDC84"/><circle cx="8.5" cy="12.5" r=".5" fill="#3DDC84"/><circle cx="11.5" cy="12.5" r=".5" fill="#3DDC84"/><path d="M5 14h10v.5a.5.5 0 0 1-.5.5h-9a.5.5 0 0 1-.5-.5V14z" fill="#3DDC84"/><path fill-rule="evenodd" clip-rule="evenodd" d="M8 10.5a.5.5 0 0 1-.7-.1l-.9-1.2a.5.5 0 1 1 .8-.6l.9 1.2a.5.5 0 0 1-.1.7zM12 10.5a.5.5 0 0 0 .7-.1l.9-1.2a.5.5 0 0 0-.8-.6l-.9 1.2a.5.5 0 0 0 .1.7z" fill="#3DDC84"/><path fill-rule="evenodd" clip-rule="evenodd" d="M6.914 1a1.5 1.5 0 0 0-1.06.44L2.439 4.853A1.5 1.5 0 0 0 2 5.914V13.5A1.5 1.5 0 0 0 3.5 15H4v-1h-.5a.5.5 0 0 1-.5-.5V6h2.5A1.5 1.5 0 0 0 7 4.5V2h3.5a.5.5 0 0 1 .5.5V8h1V2.5A1.5 1.5 0 0 0 10.5 1H6.914zM3.707 5L6 2.707V4.5a.5.5 0 0 1-.5.5H3.707z" fill="#CED0D6"/></svg>