<svg width="16" height="16" viewBox="0 0 16 16" fill="none" xmlns="http://www.w3.org/2000/svg"><path fill-rule="evenodd" clip-rule="evenodd" d="M12.06 10.354a.5.5 0 0 0-.707.707l1.693 1.692-1.692 1.692a.5.5 0 0 0 .707.708l2.046-2.046a.5.5 0 0 0 .002-.705l-.005-.006-2.043-2.043zM8.4 10.354a.5.5 0 0 1 .707.707l-1.693 1.692 1.693 1.692a.5.5 0 0 1-.708.708l-2.045-2.046a.5.5 0 0 1 .003-.71l2.042-2.043z" fill="#3DDC84"/><path fill-rule="evenodd" clip-rule="evenodd" d="M6.914 1a1.5 1.5 0 0 0-1.06.44L2.439 4.853A1.5 1.5 0 0 0 2 5.914V13.5A1.5 1.5 0 0 0 3.5 15H6l-1-1H3.5a.5.5 0 0 1-.5-.5V6h2.5A1.5 1.5 0 0 0 7 4.5V2h3.5a.5.5 0 0 1 .5.5V9h1V2.5A1.5 1.5 0 0 0 10.5 1H6.914zM3.707 5L6 2.707V4.5a.5.5 0 0 1-.5.5H3.707z" fill="#CED0D6"/></svg>