<svg width="16" height="16" viewBox="0 0 16 16" fill="none" xmlns="http://www.w3.org/2000/svg"><g clip-path="url(#clip0_3_834)"><path fill-rule="evenodd" clip-rule="evenodd" d="M7.914 1a1.5 1.5 0 0 0-1.06.44L3.439 4.853A1.5 1.5 0 0 0 3 5.914V13.5A1.5 1.5 0 0 0 4.5 15H8l-1-1H4.5a.5.5 0 0 1-.5-.5V6h2.5A1.5 1.5 0 0 0 8 4.5V2h3.5a.5.5 0 0 1 .5.5V10h1V2.5A1.5 1.5 0 0 0 11.5 1H7.914zM4.707 5L7 2.707V4.5a.5.5 0 0 1-.5.5H4.707z" fill="#6C707E"/><path d="M13 11l2 2-2 2M10 11l-2 2 2 2" stroke="#3DDC84" stroke-linecap="round" stroke-linejoin="round"/></g><defs><clipPath id="clip0_3_834"><path fill="#fff" d="M0 0h16v16H0z"/></clipPath></defs></svg>