<svg width="16" height="16" viewBox="0 0 16 16" fill="none" xmlns="http://www.w3.org/2000/svg"><g clip-path="url(#clip0_136_68)"><g clip-path="url(#clip1_136_68)"><path d="M12 11.5c.867 0 1.673-.116 2.28-.319.3-.1.58-.23.794-.399.209-.165.426-.425.426-.782 0-.357-.217-.617-.426-.782a2.645 2.645 0 0 0-.795-.4C13.673 8.617 12.867 8.5 12 8.5s-1.673.116-2.28.319c-.3.1-.58.23-.794.399-.209.165-.426.425-.426.782 0 .357.217.617.426.782.215.169.494.3.795.4.606.202 1.412.318 2.279.318z" stroke="#3574F0"/><path d="M8.5 10v4M15.5 10v4" stroke="#3574F0" stroke-linecap="round"/><path fill-rule="evenodd" clip-rule="evenodd" d="M12 16c.906 0 1.768-.12 2.438-.344.33-.11.668-.263.945-.481.266-.21.617-.6.617-1.175 0-.576-.351-.965-.617-1.175A2.49 2.49 0 0 0 15 12.58V14c0 .552-1.343 1-3 1s-3-.448-3-1v-1.42a2.49 2.49 0 0 0-.383.245C8.35 13.035 8 13.425 8 14c0 .576.351.965.617 1.175.277.218.616.37.945.48.67.224 1.532.345 2.438.345z" fill="#3574F0"/><path fill-rule="evenodd" clip-rule="evenodd" d="M12 14c.906 0 1.768-.12 2.438-.344.33-.11.668-.263.945-.481.266-.21.617-.6.617-1.175 0-.576-.351-.965-.617-1.175A2.49 2.49 0 0 0 15 10.58V12c0 .552-1.343 1-3 1s-3-.448-3-1v-1.42a2.49 2.49 0 0 0-.383.245C8.35 11.035 8 11.425 8 12c0 .576.351.965.617 1.175.277.218.616.37.945.48.67.224 1.532.345 2.438.345z" fill="#3574F0"/><path fill-rule="evenodd" clip-rule="evenodd" d="M7.914 1a1.5 1.5 0 0 0-1.06.44L3.439 4.853A1.5 1.5 0 0 0 3 5.914V13.5A1.5 1.5 0 0 0 4.5 15H7v-1H4.5a.5.5 0 0 1-.5-.5V6h2.5A1.5 1.5 0 0 0 8 4.5V2h3.5a.5.5 0 0 1 .5.5V7h1V2.5A1.5 1.5 0 0 0 11.5 1H7.914zM4.707 5L7 2.707V4.5a.5.5 0 0 1-.5.5H4.707z" fill="#6C707E"/></g></g><defs><clipPath id="clip0_136_68"><path fill="#fff" d="M0 0h16v16H0z"/></clipPath><clipPath id="clip1_136_68"><path fill="#fff" d="M0 0h16v16H0z"/></clipPath></defs></svg>