<svg width="16" height="16" viewBox="0 0 16 16" fill="none" xmlns="http://www.w3.org/2000/svg"><path d="M11 10.5c.867 0 1.673-.116 2.28-.319.3-.1.58-.23.794-.399.209-.165.426-.425.426-.782 0-.357-.217-.617-.426-.782a2.645 2.645 0 0 0-.795-.4C12.673 7.617 11.867 7.5 11 7.5s-1.673.116-2.28.319c-.3.1-.58.23-.794.399-.209.165-.426.425-.426.782 0 .357.217.617.426.782.215.169.494.3.795.4.606.202 1.412.318 2.279.318z" stroke="#548AF7"/><path d="M7.5 9v4M14.5 9v4" stroke="#548AF7" stroke-linecap="round"/><path fill-rule="evenodd" clip-rule="evenodd" d="M11 15c.906 0 1.768-.12 2.438-.344.33-.11.668-.263.945-.481.266-.21.617-.6.617-1.175 0-.576-.351-.965-.617-1.175A2.49 2.49 0 0 0 14 11.58V13c0 .552-1.343 1-3 1s-3-.448-3-1v-1.42a2.49 2.49 0 0 0-.383.245C7.35 12.035 7 12.425 7 13c0 .576.351.965.617 1.175.277.218.616.37.945.48.67.224 1.532.345 2.438.345z" fill="#548AF7"/><path fill-rule="evenodd" clip-rule="evenodd" d="M11 13c.906 0 1.768-.12 2.438-.344.33-.11.668-.263.945-.481.266-.21.617-.6.617-1.175 0-.576-.351-.965-.617-1.175A2.49 2.49 0 0 0 14 9.58V11c0 .552-1.343 1-3 1s-3-.448-3-1V9.58a2.488 2.488 0 0 0-.383.245C7.35 10.035 7 10.425 7 11c0 .576.351.965.617 1.175.277.218.616.37.945.48.67.224 1.532.345 2.438.345z" fill="#548AF7"/><path fill-rule="evenodd" clip-rule="evenodd" d="M6.914 1a1.5 1.5 0 0 0-1.06.44L2.439 4.853A1.5 1.5 0 0 0 2 5.914V13.5A1.5 1.5 0 0 0 3.5 15H6v-1H3.5a.5.5 0 0 1-.5-.5V6h2.5A1.5 1.5 0 0 0 7 4.5V2h3.5a.5.5 0 0 1 .5.5V6h1V2.5A1.5 1.5 0 0 0 10.5 1H6.914zM3.707 5L6 2.707V4.5a.5.5 0 0 1-.5.5H3.707z" fill="#CED0D6"/></svg>