<svg width="16" height="16" viewBox="0 0 16 16" fill="none" xmlns="http://www.w3.org/2000/svg"><g clip-path="url(#clip0_3_844)"><rect x="9.5" y="8.5" width="6" height="6" rx="1.5" fill="#EDF3FF" stroke="#3574F0"/><path fill-rule="evenodd" clip-rule="evenodd" d="M1 2.867C1 1.836 1.784 1 2.75 1h3.288a1 1 0 0 1 .698.283L8.5 3H13a2 2 0 0 1 2 2v2.17c-.313-.11-.65-.17-1-.17h-3a3 3 0 0 0-3 3v3H2.75C1.784 13 1 12.164 1 11.133V2.867z" fill="#EBECF0"/><path fill-rule="evenodd" clip-rule="evenodd" d="M7.803 3.717l.29.283H13a1 1 0 0 1 1 1v2c.35 0 .687.06 1 .17V5a2 2 0 0 0-2-2H8.5L6.736 1.283A1 1 0 0 0 6.038 1H2.75C1.784 1 1 1.836 1 2.867v8.266C1 12.164 1.784 13 2.75 13H8v-1H2.75c-.354 0-.75-.326-.75-.867V2.867c0-.54.396-.867.75-.867h3.288l1.765 1.717z" fill="#6C707E"/></g><defs><clipPath id="clip0_3_844"><path fill="#fff" d="M0 0h16v16H0z"/></clipPath></defs></svg>