<svg width="16" height="16" viewBox="0 0 16 16" fill="none" xmlns="http://www.w3.org/2000/svg"><g clip-path="url(#clip0_3_844)" fill-rule="evenodd" clip-rule="evenodd"><path d="M1 3.867C1 2.836 1.784 2 2.75 2h3.288a1 1 0 0 1 .698.283L8.5 4H13a2 2 0 0 1 2 2v2.17c-.313-.11-.65-.17-1-.17h-3a3 3 0 0 0-3 3v3H2.75C1.784 14 1 13.164 1 12.133V3.867z" fill="#EBECF0"/><path d="M7.803 4.717l.29.283H13a1 1 0 0 1 1 1v2c.35 0 .687.06 1 .17V6a2 2 0 0 0-2-2H8.5L6.736 2.283A1 1 0 0 0 6.038 2H2.75C1.784 2 1 2.836 1 3.867v8.266C1 13.164 1.784 14 2.75 14H8v-1H2.75c-.354 0-.75-.326-.75-.867V3.867c0-.54.396-.867.75-.867h3.288l1.765 1.717z" fill="#6C707E"/><path d="M13 9h1a2 2 0 0 1 2 2v1h-1v-1a1 1 0 0 0-1-1h-1V9zm-1 0h-1a2 2 0 0 0-2 2v1h1v-1a1 1 0 0 1 1-1h1V9zm0 6h-1a1 1 0 0 1-1-1v-1H9v1a2 2 0 0 0 2 2h1v-1zm1 1h1a2 2 0 0 0 2-2v-1h-1v1a1 1 0 0 1-1 1h-1v1z" fill="#FFAF0F"/></g><defs><clipPath id="clip0_3_844"><path fill="#fff" d="M0 0h16v16H0z"/></clipPath></defs></svg>