<svg width="16" height="16" viewBox="0 0 16 16" fill="none" xmlns="http://www.w3.org/2000/svg"><path d="M14.894 3.545c-.362-.756-1.556-1.65-2.893-.481m2.893.48c.463.882-.33 2.526-1.93 2.526-2.087 0-4.276-3.457-9.04-1.108-.421.207-.608.7-.464 1.148l.116.36m11.318-2.925s1.336 2.815-2.33 5.557c-1.033.773-1.411 2.291-1.45 3.644a.1.1 0 0 1-.1.098h-1.14a.22.22 0 0 1-.208-.169 1.482 1.482 0 0 0-1.436-1.091c-.678 0-1.26.456-1.434 1.094a.22.22 0 0 1-.208.168H5.512a.22.22 0 0 1-.208-.168 1.487 1.487 0 0 0-2.868 0 .22.22 0 0 1-.208.169H1.036a.1.1 0 0 1-.1-.09c-.293-2.844.53-4.951 2.64-6.287m0 0l.58 1.91c.217.636 1.085.741 1.614.444a9.336 9.336 0 0 0 1.822-1.279" stroke="#6C707E" stroke-linecap="round"/><path fill-rule="evenodd" clip-rule="evenodd" d="M9.26 7.32c-.096-.061-.153-.173-.116-.28a.798.798 0 1 1 1.306.84c-.082.078-.207.072-.302.01l-.889-.57z" fill="#6C707E"/></svg>