<svg width="16" height="16" viewBox="0 0 16 16" fill="none" xmlns="http://www.w3.org/2000/svg">
<g clip-path="url(#clip0_3_846)">
<path fill-rule="evenodd" clip-rule="evenodd" d="M11.712 7.74659L9.43042 10.6148H11.6211V12.6939L13.4477 10.0148H11.712V7.74659ZM11.6424 6.22767C11.996 5.78315 12.712 6.03319 12.712 6.60118V9.01483H14.2046C14.6866 9.01483 14.9719 9.55455 14.7003 9.95284L11.7168 14.3287C11.3842 14.8165 10.6211 14.5811 10.6211 13.9907V11.6148H8.60112C8.0988 11.6148 7.81885 11.0344 8.13156 10.6413L11.6424 6.22767Z" fill="#F2C55C"/>
<path fill-rule="evenodd" clip-rule="evenodd" d="M7.80265 4.71673L8.09379 5H8.5H13C13.5523 5 14 5.44772 14 6V8H15V6C15 4.89543 14.1046 4 13 4L8.5 4L6.73559 2.28327C6.5489 2.10163 6.29871 2 6.03823 2H2.75C1.7835 2 1 2.83574 1 3.86667V12.1333C1 13.1643 1.7835 14 2.75 14H9.5V13H2.75C2.3956 13 2 12.6738 2 12.1333V3.86667C2 3.32624 2.3956 3 2.75 3H6.03823L7.80265 4.71673Z" fill="#CED0D6"/>
</g>
<defs>
<clipPath id="clip0_3_846">
<rect width="16" height="16" fill="white"/>
</clipPath>
</defs>
</svg>
