<svg width="16" height="16" viewBox="0 0 16 16" fill="none" xmlns="http://www.w3.org/2000/svg"><path fill-rule="evenodd" clip-rule="evenodd" d="M1 3.867C1 2.836 1.784 2 2.75 2h3.288a1 1 0 0 1 .698.283L8.5 4H13a2 2 0 0 1 2 2v3.268A1.998 1.998 0 0 0 14 9V8a2 2 0 0 0-3.6-1.2l-3 4A2 2 0 0 0 8.977 14H2.75C1.784 14 1 13.164 1 12.133V3.867z" fill="#EBECF0"/><path fill-rule="evenodd" clip-rule="evenodd" d="M7.803 4.717l.29.283H13a1 1 0 0 1 1 1v3c.358 0 .701.096 1 .268V6a2 2 0 0 0-2-2H8.5L6.736 2.283A1 1 0 0 0 6.038 2H2.75C1.784 2 1 2.836 1 3.867v8.266C1 13.164 1.784 14 2.75 14h6.227a2 2 0 0 1-1.71-1H2.75c-.354 0-.75-.326-.75-.867V3.867c0-.54.396-.867.75-.867h3.288l1.765 1.717z" fill="#6C707E"/><path d="M8.6 11.7a.5.5 0 0 0 .4.8h1.5V15a.5.5 0 0 0 .9.3l3-4a.5.5 0 0 0-.4-.8h-1.5V8a.5.5 0 0 0-.9-.3l-3 4z" fill="#FFFAEB" stroke="#FFAF0F" stroke-linejoin="round"/></svg>