<svg width="16" height="16" viewBox="0 0 16 16" fill="none" xmlns="http://www.w3.org/2000/svg"><path fill-rule="evenodd" clip-rule="evenodd" d="M9 2a1 1 0 0 1 1 1v1h3a1 1 0 0 1 1 1v1.758a4.485 4.485 0 0 0-1-.502V5h-3v1.256a4.484 4.484 0 0 0-1 .502V3H6v3H2v7h5.758c.253.378.561.715.913 1H2a1 1 0 0 1-1-1V6a1 1 0 0 1 1-1h3V3a1 1 0 0 1 1-1h3z" fill="#CED0D6"/><mask id="a" fill="#fff"><path fill-rule="evenodd" clip-rule="evenodd" d="M15 10.5a3.5 3.5 0 1 1-7 0 3.5 3.5 0 0 1 7 0zm-3 2a.5.5 0 1 1-1 0 .5.5 0 0 1 1 0zm-1-2a.5.5 0 0 0 1 0v-2a.5.5 0 0 0-1 0v2z"/></mask><path fill-rule="evenodd" clip-rule="evenodd" d="M15 10.5a3.5 3.5 0 1 1-7 0 3.5 3.5 0 0 1 7 0zm-3 2a.5.5 0 1 1-1 0 .5.5 0 0 1 1 0zm-1-2a.5.5 0 0 0 1 0v-2a.5.5 0 0 0-1 0v2z" fill="#FCC75B"/><path d="M11.5 15a4.5 4.5 0 0 0 4.5-4.5h-2a2.5 2.5 0 0 1-2.5 2.5v2zM7 10.5a4.5 4.5 0 0 0 4.5 4.5v-2A2.5 2.5 0 0 1 9 10.5H7zM11.5 6A4.5 4.5 0 0 0 7 10.5h2A2.5 2.5 0 0 1 11.5 8V6zm4.5 4.5A4.5 4.5 0 0 0 11.5 6v2a2.5 2.5 0 0 1 2.5 2.5h2zM11.5 14a1.5 1.5 0 0 0 1.5-1.5h-2a.5.5 0 0 1 .5-.5v2zM10 12.5a1.5 1.5 0 0 0 1.5 1.5v-2a.5.5 0 0 1 .5.5h-2zm1.5-1.5a1.5 1.5 0 0 0-1.5 1.5h2a.5.5 0 0 1-.5.5v-2zm1.5 1.5a1.5 1.5 0 0 0-1.5-1.5v2a.5.5 0 0 1-.5-.5h2zM11.5 10a.5.5 0 0 1 .5.5h-2a1.5 1.5 0 0 0 1.5 1.5v-2zm-.5.5a.5.5 0 0 1 .5-.5v2a1.5 1.5 0 0 0 1.5-1.5h-2zm0-2v2h2v-2h-2zm.5.5a.5.5 0 0 1-.5-.5h2A1.5 1.5 0 0 0 11.5 7v2zm.5-.5a.5.5 0 0 1-.5.5V7A1.5 1.5 0 0 0 10 8.5h2zm0 2v-2h-2v2h2z" fill="#FCC75B" mask="url(#a)"/><path d="M5.5 5.5v8" stroke="#CED0D6"/></svg>