<svg width="16" height="16" viewBox="0 0 16 16" fill="none" xmlns="http://www.w3.org/2000/svg">
<g clip-path="url(#clip0_3_848)">
<path fill-rule="evenodd" clip-rule="evenodd" d="M2.75 2C1.7835 2 1 2.83574 1 3.86667V12.1333C1 13.1643 1.7835 14 2.75 14H7V10C7 8.89543 7.89543 8 9 8H9.26756C9.61337 7.4022 10.2597 7 11 7H12C13.1046 7 14 7.89543 14 9C14.3643 9 14.7058 9.09739 15 9.26756V6C15 4.89543 14.1046 4 13 4L8.5 4L6.73559 2.28327C6.5489 2.10163 6.29871 2 6.03823 2H2.75Z" fill="#EBECF0"/>
<path fill-rule="evenodd" clip-rule="evenodd" d="M13 5H8.09379L6.03823 3H2.75C2.3956 3 2 3.32624 2 3.86667V12.1333C2 12.6738 2.3956 13 2.75 13H7V14H2.75C1.7835 14 1 13.1643 1 12.1333V3.86667C1 2.83574 1.7835 2 2.75 2H6.03823C6.29871 2 6.5489 2.10163 6.73559 2.28327L8.5 4L13 4C14.1046 4 15 4.89543 15 6V9.26756C14.7058 9.09739 14.3643 9 14 9V6C14 5.44772 13.5523 5 13 5Z" fill="#6C707E"/>
<path d="M8.5 10C8.5 9.72386 8.72386 9.5 9 9.5H10.5V14.5H9C8.72386 14.5 8.5 14.2761 8.5 14V10Z" fill="#F5F8FE" stroke="#3574F0"/>
<path d="M12.5 10.5H14C14.2761 10.5 14.5 10.7239 14.5 11V14C14.5 14.2761 14.2761 14.5 14 14.5H12.5V10.5Z" fill="#F5F8FE" stroke="#3574F0"/>
<path d="M10.5 9C10.5 8.72386 10.7239 8.5 11 8.5H12C12.2761 8.5 12.5 8.72386 12.5 9V14.5H10.5V9Z" fill="#F5F8FE" stroke="#3574F0"/>
</g>
<defs>
<clipPath id="clip0_3_848">
<rect width="16" height="16" fill="white"/>
</clipPath>
</defs>
</svg>
