<svg width="16" height="16" viewBox="0 0 16 16" fill="none" xmlns="http://www.w3.org/2000/svg"><mask id="a" fill="#fff"><path fill-rule="evenodd" clip-rule="evenodd" d="M16 11.5a3.5 3.5 0 1 1-7 0 3.5 3.5 0 0 1 7 0zm-3 2a.5.5 0 1 1-1 0 .5.5 0 0 1 1 0zm-1-2a.5.5 0 0 0 1 0v-2a.5.5 0 0 0-1 0v2z"/></mask><path fill-rule="evenodd" clip-rule="evenodd" d="M16 11.5a3.5 3.5 0 1 1-7 0 3.5 3.5 0 0 1 7 0zm-3 2a.5.5 0 1 1-1 0 .5.5 0 0 1 1 0zm-1-2a.5.5 0 0 0 1 0v-2a.5.5 0 0 0-1 0v2z" fill="#FFAF0F"/><path d="M12.5 16a4.5 4.5 0 0 0 4.5-4.5h-2a2.5 2.5 0 0 1-2.5 2.5v2zM8 11.5a4.5 4.5 0 0 0 4.5 4.5v-2a2.5 2.5 0 0 1-2.5-2.5H8zM12.5 7A4.5 4.5 0 0 0 8 11.5h2A2.5 2.5 0 0 1 12.5 9V7zm4.5 4.5A4.5 4.5 0 0 0 12.5 7v2a2.5 2.5 0 0 1 2.5 2.5h2zM12.5 15a1.5 1.5 0 0 0 1.5-1.5h-2a.5.5 0 0 1 .5-.5v2zM11 13.5a1.5 1.5 0 0 0 1.5 1.5v-2a.5.5 0 0 1 .5.5h-2zm1.5-1.5a1.5 1.5 0 0 0-1.5 1.5h2a.5.5 0 0 1-.5.5v-2zm1.5 1.5a1.5 1.5 0 0 0-1.5-1.5v2a.5.5 0 0 1-.5-.5h2zM12.5 11a.5.5 0 0 1 .5.5h-2a1.5 1.5 0 0 0 1.5 1.5v-2zm-.5.5a.5.5 0 0 1 .5-.5v2a1.5 1.5 0 0 0 1.5-1.5h-2zm0-2v2h2v-2h-2zm.5.5a.5.5 0 0 1-.5-.5h2A1.5 1.5 0 0 0 12.5 8v2zm.5-.5a.5.5 0 0 1-.5.5V8A1.5 1.5 0 0 0 11 9.5h2zm0 2v-2h-2v2h2z" fill="#FFAF0F" mask="url(#a)"/><path fill-rule="evenodd" clip-rule="evenodd" d="M7 3h3v4.758A4.496 4.496 0 0 0 8.256 13H7V3zm7 4.256V7h-3v.256c.47-.166.974-.256 1.5-.256s1.03.09 1.5.256zM6 5v8H3V5h3z" fill="#EBECF0"/><path fill-rule="evenodd" clip-rule="evenodd" d="M14 6h-3V3a1 1 0 0 0-1-1H7a1 1 0 0 0-1 1v1H3a1 1 0 0 0-1 1v8a1 1 0 0 0 1 1h5.758a4.485 4.485 0 0 1-.502-1H7V3h3v4.758a4.485 4.485 0 0 1 1-.502V7h3v.256c.356.126.691.295 1 .502V7a1 1 0 0 0-1-1zm-8 7V5H3v8h3z" fill="#6C707E"/></svg>