<svg width="16" height="16" viewBox="0 0 16 16" fill="none" xmlns="http://www.w3.org/2000/svg"><g clip-path="url(#clip0_3_849)"><path fill-rule="evenodd" clip-rule="evenodd" d="M2.75 2C1.784 2 1 2.836 1 3.867v8.266C1 13.164 1.784 14 2.75 14H7v-4a2 2 0 0 1 2-2h.268A2 2 0 0 1 11 7h1a2 2 0 0 1 2 2c.364 0 .706.097 1 .268V6a2 2 0 0 0-2-2H8.5L6.736 2.283A1 1 0 0 0 6.038 2H2.75z" fill="#43454A"/><path fill-rule="evenodd" clip-rule="evenodd" d="M13 5H8.094L6.038 3H2.75c-.354 0-.75.326-.75.867v8.266c0 .54.396.867.75.867H7v1H2.75C1.784 14 1 13.164 1 12.133V3.867C1 2.836 1.784 2 2.75 2h3.288a1 1 0 0 1 .698.283L8.5 4H13a2 2 0 0 1 2 2v3.268A1.99 1.99 0 0 0 14 9V6a1 1 0 0 0-1-1z" fill="#CED0D6"/><path d="M8.5 10a.5.5 0 0 1 .5-.5h1.5v5H9a.5.5 0 0 1-.5-.5v-4zM12.5 10.5H14a.5.5 0 0 1 .5.5v3a.5.5 0 0 1-.5.5h-1.5v-4zM10.5 9a.5.5 0 0 1 .5-.5h1a.5.5 0 0 1 .5.5v5.5h-2V9z" fill="#25324D" stroke="#548AF7"/></g><defs><clipPath id="clip0_3_849"><path fill="#fff" d="M0 0h16v16H0z"/></clipPath></defs></svg>