<svg width="16" height="16" viewBox="0 0 16 16" fill="none" xmlns="http://www.w3.org/2000/svg"><g clip-path="url(#clip0_3_842)"><g clip-path="url(#clip1_3_842)"><path d="M13.162 3.201c2.062 0 2.42 1.735 2.062 3.298l-1.328 6.013c-.095.432-.54.709-.995.618-.453-.091-.744-.515-.649-.948L13.503 6.5c.57-2.479-2.664-2.173-3.977-.333l-1.415 6.35c-.096.432-.541.71-.995.618a.963.963 0 0 1-.055-.013c-.432-.106-.704-.519-.611-.939l1.255-5.687c.262-1.12-.275-1.67-1.055-1.766-.928-.1-2.2.447-2.91 1.442v-.007l-.002.002-1.42 6.356c-.096.432-.542.708-.996.616-.454-.092-.744-.517-.647-.949L2.503 4c.096-.433.542-.709.996-.617.516.104.728.577.629 1.031.95-.748 2.056-1.276 3.32-1.207 1.235.025 1.839.688 2.036 1.556 1.139-.973 2.1-1.561 3.678-1.561z" fill="#3574F0"/></g></g><defs><clipPath id="clip0_3_842"><path fill="#fff" d="M0 0h16v16H0z"/></clipPath><clipPath id="clip1_3_842"><path fill="#fff" d="M0 0h16v16H0z"/></clipPath></defs></svg>