<svg width="16" height="16" viewBox="0 0 16 16" fill="none" xmlns="http://www.w3.org/2000/svg"><path d="M10.797 6.637a.5.5 0 0 1 .406 0l3 1.334a.5.5 0 0 1 .297.457v3.144a.5.5 0 0 1-.297.457l-3 1.334a.5.5 0 0 1-.406 0l-3-1.334a.5.5 0 0 1-.297-.457V8.428a.5.5 0 0 1 .297-.457l3-1.334z" stroke="#4285F4"/><path fill-rule="evenodd" clip-rule="evenodd" d="M2 4a1 1 0 0 1 2 0H2zm8.5-1H4.732c.17.294.268.636.268 1v8a1 1 0 0 0 1 1h.6c.167.165.365.301.588.4l1.35.6H6a2 2 0 0 1-2-2V5H1.5a.5.5 0 0 1-.5-.5V4a2 2 0 0 1 2-2h7.5A2.5 2.5 0 0 1 13 4.5v1.295l-1-.445V4.5A1.5 1.5 0 0 0 10.5 3zM9 13.111L8.75 13l.25.111z" fill="#6C707E"/><path d="M11 13.5V10m0 0l3.5-1.5M11 10L7.5 8.5" stroke="#4285F4"/></svg>