<svg width="16" height="16" viewBox="0 0 16 16" fill="none" xmlns="http://www.w3.org/2000/svg"><path d="M11.797 8.637a.5.5 0 0 1 .406 0l3 1.334a.5.5 0 0 1 .297.457v3.144a.5.5 0 0 1-.297.457l-3 1.334a.5.5 0 0 1-.406 0l-3-1.334a.5.5 0 0 1-.297-.457v-3.144a.5.5 0 0 1 .297-.457l3-1.334z" stroke="#548AF7"/><path fill-rule="evenodd" clip-rule="evenodd" d="M2 4a1 1 0 0 1 2 0H2zm8.5-1H4.732c.17.294.268.636.268 1v8a1 1 0 0 0 1 1h1v1H6a2 2 0 0 1-2-2V5H1.5a.5.5 0 0 1-.5-.5V4a2 2 0 0 1 2-2h7.5A2.5 2.5 0 0 1 13 4.5V7h-1V4.5A1.5 1.5 0 0 0 10.5 3z" fill="#CED0D6"/><path d="M12 15.5V12m0 0l3.5-1.5M12 12l-3.5-1.5" stroke="#548AF7"/></svg>