<svg width="16" height="16" viewBox="0 0 16 16" fill="none" xmlns="http://www.w3.org/2000/svg"><path d="M9.797 7.637a.5.5 0 0 1 .406 0l3 1.334a.5.5 0 0 1 .297.457v3.144a.5.5 0 0 1-.297.457l-3 1.334a.5.5 0 0 1-.406 0l-3-1.334a.5.5 0 0 1-.297-.457V9.428a.5.5 0 0 1 .297-.457l3-1.334z" stroke="#3574F0"/><path fill-rule="evenodd" clip-rule="evenodd" d="M7.914 1a1.5 1.5 0 0 0-1.06.44L3.439 4.853A1.5 1.5 0 0 0 3 5.914V13.5A1.5 1.5 0 0 0 4.5 15h3.038l-2.25-1H4.5a.5.5 0 0 1-.5-.5V6h2.5A1.5 1.5 0 0 0 8 4.5V2h3.5a.5.5 0 0 1 .5.5v4.295l1 .444V2.5A1.5 1.5 0 0 0 11.5 1H7.914zM4.707 5L7 2.707V4.5a.5.5 0 0 1-.5.5H4.707z" fill="#6C707E"/><path d="M10 14.5V11m0 0l3.5-1.5M10 11L6.5 9.5" stroke="#3574F0"/></svg>