<svg width="16" height="16" viewBox="0 0 16 16" fill="none" xmlns="http://www.w3.org/2000/svg">
<path d="M9.79693 7.63741C9.92621 7.57995 10.0738 7.57995 10.2031 7.63741L13.2031 8.97075C13.3836 9.051 13.5 9.23006 13.5 9.42765V12.5724C13.5 12.7699 13.3836 12.949 13.2031 13.0293L10.2031 14.3626C10.0738 14.42 9.92622 14.42 9.79694 14.3626L6.79693 13.0293C6.61637 12.949 6.5 12.7699 6.5 12.5723V9.42765C6.5 9.23006 6.61637 9.051 6.79693 8.97075L9.79693 7.63741Z" stroke="#4285F4"/>
<path fill-rule="evenodd" clip-rule="evenodd" d="M7.91421 1C7.51639 1 7.13486 1.15804 6.85355 1.43934L3.43934 4.85355C3.15803 5.13486 3 5.51639 3 5.91421V13.5C3 14.3284 3.67157 15 4.5 15H7.53778L5.28778 14H4.5C4.22386 14 4 13.7761 4 13.5V6H6.5C7.32843 6 8 5.32843 8 4.5V2H11.5C11.7761 2 12 2.22386 12 2.5V6.79457L13 7.23902V2.5C13 1.67157 12.3284 1 11.5 1H7.91421ZM4.70711 5L7 2.70711V4.5C7 4.77614 6.77614 5 6.5 5H4.70711Z" fill="#6C707E"/>
<path d="M10 14.5V11M10 11L13.5 9.5M10 11L6.5 9.5" stroke="#4285F4"/>
</svg>
