<svg width="16" height="16" viewBox="0 0 16 16" fill="none" xmlns="http://www.w3.org/2000/svg"><path fill-rule="evenodd" clip-rule="evenodd" d="M5 2h6c.5 0 1 .5 1 1v4.822a4.531 4.531 0 00-1 .215V4H5v7h3.105a4.554 4.554 0 00-.205 1.356c0 .58.108 1.134.306 1.644H5c-.5 0-1-.5-1-1V3c0-.5.5-1 1-1z" fill="#AFB1B3"/><path fill-rule="evenodd" clip-rule="evenodd" d="M15.82 13.495l-.796-.574a2.627 2.627 0 000-1.02l.796-.575a3.523 3.523 0 00-.73-1.272l-.894.405a2.58 2.58 0 00-.88-.513l-.097-.98a3.495 3.495 0 00-1.462 0l-.097.98a2.58 2.58 0 00-.88.513l-.894-.405a3.523 3.523 0 00-.73 1.272l.796.575a2.627 2.627 0 000 1.02l-.796.574c.153.477.405.91.73 1.273l.893-.405c.254.225.553.4.88.512l.098.98a3.5 3.5 0 001.462 0l.097-.98a2.58 2.58 0 00.88-.512l.893.405c.326-.364.578-.796.73-1.273zm-2.093-1.084c0 .688-.555 1.246-1.24 1.246a1.243 1.243 0 01-1.238-1.246c0-.688.555-1.246 1.239-1.246s1.239.558 1.239 1.246z" fill="#AFB1B3"/></svg>