<!--
  - Copyright (C) 2025 The Android Open Source Project
  -
  - Licensed under the Apache License, Version 2.0 (the "License");
  - you may not use this file except in compliance with the License.
  - You may obtain a copy of the License at
  -
  -      http://www.apache.org/licenses/LICENSE-2.0
  -
  - Unless required by applicable law or agreed to in writing, software
  - distributed under the License is distributed on an "AS IS" BASIS,
  - WITHOUT WARRANTIES OR CONDITIONS OF ANY KIND, either express or implied.
  - See the License for the specific language governing permissions and
  - limitations under the License.
  -->
<svg width="16" height="16" viewBox="0 0 16 16" fill="none" xmlns="http://www.w3.org/2000/svg"><path fill="#CED0D6" d="M5 8h4v1H5zM5 6h1v1H5zM4 4h1v1H4zM6 4h1v1H6zM7 6h1v1H7zM8 4h1v1H8zM10 4h1v1h-1zM9 6h1v1H9z"/><path fill-rule="evenodd" clip-rule="evenodd" d="M12 3H3a1 1 0 00-1 1v5a1 1 0 001 1h6v1H3a2 2 0 01-2-2V4a2 2 0 012-2h9a2 2 0 012 2v3h-1V4a1 1 0 00-1-1z" fill="#CED0D6"/><path fill-rule="evenodd" clip-rule="evenodd" d="M11 13V9h1v2h1V9h1v4c0 .356-.452 1-1.5 1s-1.5-.644-1.5-1zm0-5a1 1 0 00-1 1v4c0 1.105 1.12 2 2.5 2s2.5-.895 2.5-2V9a1 1 0 00-1-1h-3z" fill="#CED0D6"/></svg>