<!--
  - Copyright (C) 2025 The Android Open Source Project
  -
  - Licensed under the Apache License, Version 2.0 (the "License");
  - you may not use this file except in compliance with the License.
  - You may obtain a copy of the License at
  -
  -      http://www.apache.org/licenses/LICENSE-2.0
  -
  - Unless required by applicable law or agreed to in writing, software
  - distributed under the License is distributed on an "AS IS" BASIS,
  - WITHOUT WARRANTIES OR CONDITIONS OF ANY KIND, either express or implied.
  - See the License for the specific language governing permissions and
  - limitations under the License.
  -->
<svg width="16" height="16" viewBox="0 0 16 16" fill="none" xmlns="http://www.w3.org/2000/svg"><g clip-path="url(#clip0_5662_415)"><rect x="7" y="4" width="2" height="1" rx=".5" fill="#CED0D6"/><path fill-rule="evenodd" clip-rule="evenodd" d="M11 8V3H5v10h3v1H5a1 1 0 01-1-1V3a1 1 0 011-1h6a1 1 0 011 1v5h-1z" fill="#CED0D6"/><path fill-rule="evenodd" clip-rule="evenodd" d="M11 9.5a.5.5 0 01.5-.5h3a.5.5 0 01.5.5v3a.5.5 0 01-1 0v-1.736L10.764 14H12.5a.5.5 0 010 1h-3a.5.5 0 01-.5-.5v-3a.5.5 0 011 0v1.85L13.35 10H11.5a.5.5 0 01-.5-.5z" fill="#548AF7"/></g><defs><clipPath id="clip0_5662_415"><path fill="#fff" d="M0 0h16v16H0z"/></clipPath></defs></svg>