<!--
  - Copyright (C) 2025 The Android Open Source Project
  -
  - Licensed under the Apache License, Version 2.0 (the "License");
  - you may not use this file except in compliance with the License.
  - You may obtain a copy of the License at
  -
  -      http://www.apache.org/licenses/LICENSE-2.0
  -
  - Unless required by applicable law or agreed to in writing, software
  - distributed under the License is distributed on an "AS IS" BASIS,
  - WITHOUT WARRANTIES OR CONDITIONS OF ANY KIND, either express or implied.
  - See the License for the specific language governing permissions and
  - limitations under the License.
  -->
<svg width="16" height="16" viewBox="0 0 16 16" fill="none" xmlns="http://www.w3.org/2000/svg"><path fill-rule="evenodd" clip-rule="evenodd" d="M10 3h3v5h1V3a1 1 0 00-1-1H3a1 1 0 00-1 1v7a1 1 0 001 1h5v-1H3V3h3a1 1 0 001 1h2a1 1 0 001-1zm-2 9H1.5a.5.5 0 000 1H8v-1z" fill="#CED0D6"/><path fill-rule="evenodd" clip-rule="evenodd" d="M11 9.5a.5.5 0 01.5-.5h3a.5.5 0 01.5.5v3a.5.5 0 01-1 0v-1.736L10.764 14H12.5a.5.5 0 010 1h-3a.5.5 0 01-.5-.5v-3a.5.5 0 011 0v1.85L13.35 10H11.5a.5.5 0 01-.5-.5z" fill="#548AF7"/></svg>