<!--
  - Copyright (C) 2025 The Android Open Source Project
  -
  - Licensed under the Apache License, Version 2.0 (the "License");
  - you may not use this file except in compliance with the License.
  - You may obtain a copy of the License at
  -
  -      http://www.apache.org/licenses/LICENSE-2.0
  -
  - Unless required by applicable law or agreed to in writing, software
  - distributed under the License is distributed on an "AS IS" BASIS,
  - WITHOUT WARRANTIES OR CONDITIONS OF ANY KIND, either express or implied.
  - See the License for the specific language governing permissions and
  - limitations under the License.
  -->
<svg width="16" height="16" viewBox="0 0 16 16" fill="none" xmlns="http://www.w3.org/2000/svg"><path fill-rule="evenodd" clip-rule="evenodd" d="M11.123 5l-.8-2H5.677l-.8 2H3a1 1 0 00-1 1v6a1 1 0 001 1h10a1 1 0 001-1V6a1 1 0 00-1-1h-1.877zM4.2 4H3a2 2 0 00-2 2v6a2 2 0 002 2h10a2 2 0 002-2V6a2 2 0 00-2-2h-1.2l-.549-1.371A1 1 0 0010.323 2H5.677a1 1 0 00-.928.629L4.2 4z" fill="#6C707E"/><circle cx="8" cy="8.75" r="2.5" stroke="#6C707E"/><path fill="#6C707E" d="M12 6h1v1h-1z"/></svg>