<!--
  - Copyright (C) 2025 The Android Open Source Project
  -
  - Licensed under the Apache License, Version 2.0 (the "License");
  - you may not use this file except in compliance with the License.
  - You may obtain a copy of the License at
  -
  -      http://www.apache.org/licenses/LICENSE-2.0
  -
  - Unless required by applicable law or agreed to in writing, software
  - distributed under the License is distributed on an "AS IS" BASIS,
  - WITHOUT WARRANTIES OR CONDITIONS OF ANY KIND, either express or implied.
  - See the License for the specific language governing permissions and
  - limitations under the License.
  -->
<svg width="16" height="16" viewBox="0 0 16 16" fill="none" xmlns="http://www.w3.org/2000/svg"><g clip-path="url(#clip0_2_611)" fill-rule="evenodd" clip-rule="evenodd"><path d="M14 2.5a.5.5 0 01-.5.5H2a.5.5 0 110-1h11.5a.5.5 0 01.5.5zM14 5.5a.5.5 0 01-.5.5H2a.5.5 0 110-1h11.5a.5.5 0 01.5.5zM7 8.5a.5.5 0 01-.5.5H2a.5.5 0 110-1h4.5a.5.5 0 01.5.5zM8 11.5a.5.5 0 01-.5.5H2a.5.5 0 110-1h5.5a.5.5 0 01.5.5z" fill="#6C707E"/><path d="M10.793 7a.5.5 0 11.707.707L10.207 9H12.5a2.5 2.5 0 110 5h-3a.5.5 0 110-1h3a1.5 1.5 0 000-3h-2.293l1.293 1.293a.5.5 0 11-.707.707l-2.5-2.5 2.5-2.5z" fill="#3DDC84"/></g><defs><clipPath id="clip0_2_611"><path fill="#fff" d="M0 0h16v16H0z"/></clipPath></defs></svg>