<svg width="16" height="16" viewBox="0 0 16 16" xmlns="http://www.w3.org/2000/svg"><rect width="16" height="16" fill="none"/><g fill="none" fill-rule="evenodd"><path d="M12.448 14.312h-2.431l-.245.61h.245c.24 0 .412.046.515.139a.467.467 0 0 1 .154.364.462.462 0 0 1-.154.359c-.103.092-.275.139-.515.139H8.669c-.24 0-.413-.047-.515-.14A.467.467 0 0 1 8 15.42c0-.15.054-.272.161-.366.108-.095.285-.139.532-.132l1.573-3.916H9.61c-.24 0-.412-.047-.515-.14a.467.467 0 0 1-.154-.363c0-.15.052-.271.154-.364.103-.093.274-.139.515-.139l2.163.005 1.993 4.917c.234 0 .389.026.463.078a.5.5 0 0 1 .225.425c0 .146-.05.266-.151.359-.101.092-.272.139-.513.139h-1.348c-.24 0-.412-.047-.515-.14a.467.467 0 0 1-.154-.363c0-.147.052-.266.154-.359.103-.093.274-.14.515-.14h.245l-.24-.61zm-.415-1.001l-.805-1.983-.811 1.983h1.616z" fill="#AFB1B3"/><path fill="#499C54" d="M9 1l5.5 4L9 9z"/><path d="M7 15h-.5a5.5 5.5 0 0 1 0-11H10v2H6.5a3.5 3.5 0 0 0 0 7H7v2z" fill="#499C54"/><path d="M0 0h16v16H0z"/></g></svg>