<!--
  - Copyright (C) 2025 The Android Open Source Project
  -
  - Licensed under the Apache License, Version 2.0 (the "License");
  - you may not use this file except in compliance with the License.
  - You may obtain a copy of the License at
  -
  -      http://www.apache.org/licenses/LICENSE-2.0
  -
  - Unless required by applicable law or agreed to in writing, software
  - distributed under the License is distributed on an "AS IS" BASIS,
  - WITHOUT WARRANTIES OR CONDITIONS OF ANY KIND, either express or implied.
  - See the License for the specific language governing permissions and
  - limitations under the License.
  -->
<svg width="20" height="20" viewBox="0 0 20 20" fill="none" xmlns="http://www.w3.org/2000/svg"><path d="M2.5 2h15M2.5 7h15M2.5 12h4M2.5 17h5" stroke="#CED0D6" stroke-width="1.5" stroke-linecap="round"/><path d="M11 16.25a.75.75 0 000 1.5v-1.5zm0 1.5h4v-1.5h-4v1.5zm4-6.5h-4v1.5h4v-1.5zm3.25 3.25A3.25 3.25 0 0015 11.25v1.5c.966 0 1.75.784 1.75 1.75h1.5zM15 17.75a3.25 3.25 0 003.25-3.25h-1.5A1.75 1.75 0 0115 16.25v1.5z" fill="#CED0D6"/><path d="M12.5 9.5L10 12l2.5 2.5" stroke="#CED0D6" stroke-width="1.5" stroke-linecap="round"/></svg>