<svg xmlns="http://www.w3.org/2000/svg" width="16" height="16" fill="none"><g clip-path="url(#a)"><path fill="#59A869" fill-rule="evenodd" d="M8 15a4.363 4.363 0 0 1-3.313-1.615H2v-1.616h1.853a4.192 4.192 0 0 1-.156-1.077v-.538H2V8.538h1.697V7.462c0-.185.033-.36.056-.539H2V5.308h2.307a4.361 4.361 0 0 1 1.76-1.653L4.534 2.143 5.692 1 7.89 3.171c.058-.002.051-.01.109-.01.02 0 .1.008.12.009L10.308 1l1.158 1.143-1.49 1.47a4.36 4.36 0 0 1 1.839 1.695H14v1.615h-1.63c.022.179.055.354.055.539V8H9.8V7H6.2v1.5H8V10H6.2v1.5H8V15Z" clip-rule="evenodd"/><g fill="#6E6E6E"><path d="m9.08 14.49 1.436 1.437 4.31-4.31-1.437-1.437-4.31 4.31Z"/><path fill-rule="evenodd" d="M16 15.095 9.905 9H16v6.095Z" clip-rule="evenodd"/></g></g><defs><clipPath id="a"><path fill="#fff" d="M0 0h16v16H0z"/></clipPath></defs></svg>