<svg width="16" height="16" viewBox="0 0 16 16" fill="none" xmlns="http://www.w3.org/2000/svg"><g clip-path="url(#clip0_2_580)"><path fill="#3592C4" d="M5 11h5v5H5z"/><path fill-rule="evenodd" clip-rule="evenodd" d="M.75 7.321l1.733-1.733.504-.19a.546.546 0 0 1 .154-.468l2.724-2.724.374-.156-.002-.001 3.196-.187-.027.762-1.105.544-1.726 1.683L9.52 7.796l.752.06 4.87 4.871-2.419 2.42L11 13.423V10H7.83l-.04-.479-2.955-2.954-.116.559-.157.343L2.73 9.3.75 7.321z" fill="#AFB1B3"/></g><defs><clipPath id="clip0_2_580"><path fill="#fff" d="M0 0h16v16H0z"/></clipPath></defs></svg>