<!--
  - Copyright (C) 2025 The Android Open Source Project
  -
  - Licensed under the Apache License, Version 2.0 (the "License");
  - you may not use this file except in compliance with the License.
  - You may obtain a copy of the License at
  -
  -      http://www.apache.org/licenses/LICENSE-2.0
  -
  - Unless required by applicable law or agreed to in writing, software
  - distributed under the License is distributed on an "AS IS" BASIS,
  - WITHOUT WARRANTIES OR CONDITIONS OF ANY KIND, either express or implied.
  - See the License for the specific language governing permissions and
  - limitations under the License.
  -->
<svg width="16" height="16" viewBox="0 0 16 16" fill="none" xmlns="http://www.w3.org/2000/svg"><path d="M15.108 11.492a.6.6 0 01.011 1.036l-4.71 2.825a.6.6 0 01-.909-.515V9.332a.6.6 0 01.897-.522l4.71 2.682z" fill="#F2FCF3" stroke="#208A3C" stroke-linecap="round"/><path fill-rule="evenodd" clip-rule="evenodd" d="M11.766 2.417C10.986 2.006 10.201 2 9.6 2H6.696l-.91.364A.5.5 0 015.6 2.4H4.4a.5.5 0 01-.224-.053L3.482 2H2.1v2.2h1.382l.694-.347A.5.5 0 014.4 3.8h1.2a.5.5 0 01.312.11l.738.59h2.116l1.334-1a.5.5 0 01.3-.1h.021c.589 0 1.15 0 1.819.195.337.098.694.244 1.095.454-.483-.87-1.042-1.354-1.569-1.632zM5.424 4.8l.676.54v1.557l-.155.363A5.5 5.5 0 005.5 9.426V14.5a.5.5 0 00.5.5h2.006A2.208 2.208 0 018 14.838V14H6.5V9.426a4.5 4.5 0 01.364-1.772l.196-.457A.5.5 0 007.1 7V5.6h1.2V7a.5.5 0 00.04.197l.196.457c.027.063.053.128.078.193.243-.242.542-.421.868-.523a5.423 5.423 0 00-.027-.064L9.3 6.897V5.35l1.266-.95c.52.002.92.017 1.394.155.526.154 1.175.47 2.153 1.155a.5.5 0 00.763-.56c-.63-1.999-1.603-3.069-2.643-3.617C11.223 1 10.219 1 9.618 1H6.6a.5.5 0 00-.186.036l-.91.364h-.986l-.695-.347A.5.5 0 003.6 1h-2a.5.5 0 00-.5.5v3.2a.5.5 0 00.5.5h2a.5.5 0 00.223-.053l.695-.347h.906z" fill="#6C707E"/></svg>