<svg width="16" height="16" viewBox="0 0 16 16" xmlns="http://www.w3.org/2000/svg"><rect width="16" height="16" fill="none"/><path d="M11.873 11H14v1h-2.537a4.001 4.001 0 0 1-6.927 0H2v-1h2.126A4.012 4.012 0 0 1 4 9.998V9H2V8h2v-.998c0-.346.044-.682.127-1.002H2V5h2.537c.295-.51.699-.948 1.18-1.283L4.5 2.5l1-1 1.602 1.602a4 4 0 0 1 1.797 0L10.5 1.5l1 1-1.216 1.216c.481.336.885.774 1.18 1.284H14v1h-2.126c.082.32.126.656.126 1.002V8h2v1h-2v.998c0 .346-.044.682-.127 1.002z" fill="#59A869" fill-rule="evenodd"/></svg>