<svg width="16" height="16" viewBox="0 0 16 16" xmlns="http://www.w3.org/2000/svg"><rect id="frame" width="16" height="16" fill="none"/><g fill="none" fill-rule="evenodd"><path d="M14.19 7.98l-.673.675c-.239.214-.503.431-.797.651-.34.254-.61.587-.823.968l-.561.562L8 7.5v4.379a1.531 1.531 0 0 0-1.262 1.314.224.224 0 0 1-.22.196H5.505a.223.223 0 0 1-.22-.196 1.531 1.531 0 0 0-3.036 0 .224.224 0 0 1-.23.204H.985a.224.224 0 0 1-.22-.182c-.584-3.04.494-5.44 2.25-6.69l.918 1.583c.336.58 1.076.784 1.662.457l.43-.24h.015c.507-.316.986-.676 1.43-1.076a.22.22 0 0 0-.01-.329.237.237 0 0 0-.308.01 9.977 9.977 0 0 1-1.355 1.01l-.425.237.018-.013-.023.013a.765.765 0 0 1-1.038-.285l-.972-1.677a.766.766 0 0 1 .33-1.078c5.657-2.696 8.15 2.536 10.017.67a1.348 1.348 0 0 0-1.767-2.034.224.224 0 0 1-.293-.02l-.284-.29a.227.227 0 0 1 0-.33 2.352 2.352 0 0 1 3.27.056c.733.734 1.55 2.556-.44 4.792zm-3.41-.527v.002a.452.452 0 1 0-.72-.362l.72.36z" fill="#AFB1B3"/><path d="M11.293 12.293l3.243-3.243 1.414 1.414-3.243 3.243L15 16H9.016L9 10l2.293 2.293z" fill="#3592C4"/></g></svg>