<svg width="16" height="16" viewBox="0 0 16 16" xmlns="http://www.w3.org/2000/svg"><rect width="16" height="16" fill="none"/><g fill="none" fill-rule="evenodd"><path fill="#389FD6" d="M9.016 16H15l-6-6z"/><path d="M12.154 10.018l-.818.818L8 7.5v3.262c-.65-.082-1.291.31-1.703 1.738H5.015c-.262-1.94-1.794-2.015-2.222 0h-1.68S.198 7.028 3.58 5.788c0 0 .307.743.703 1.388.44.715 1.584 1.21 2.92-.836 0 0-1.793 2.025-2.612.638-.516-.873-.34-.55-.872-1.605-.391-.776.064-1.112 1.055-1.445.99-.334 3.178-.883 5.428.773 2.25 1.657 4.046-.735 3.464-1.897-.247-.494-.616-.672-.894-.706a1.255 1.255 0 0 0-.786.14c-.08.045-.309.194-.437 0a4.566 4.566 0 0 1-.258-.522c-.119-.29.512-.732 1.28-.716.626.014 1.512.29 2.008 1.216.951 1.686.11 3.61-.777 5.184-.536.95-1.262 1.634-1.65 2.618z" fill="#6E6E6E"/><path fill="#389FD6" d="M14.536 9.05l1.414 1.414-4.95 4.95L9.586 14z"/></g></svg>