<svg width="16" height="16" viewBox="0 0 16 16" xmlns="http://www.w3.org/2000/svg"><rect width="16" height="16" fill="none"/><g fill="none" fill-rule="evenodd"><g fill="#6E6E6E"><path d="M2 2.5h12v2H2zM2 5.5h12v2H2zM2 8.5h6v2H2zM2 11.5h8v2H2z"/></g><path d="M11.817 13.5c1.21 0 2.183-.87 2.183-1.944 0-1.075-.973-1.945-2.183-1.945h-.939V8.5L9 9.889l1.878 1.389v-.92h.939c.864 0 1.315.506 1.315 1.198 0 .69-.45 1.118-1.315 1.118h-.313v.826h.313z" fill="#59A869" fill-rule="nonzero"/><path d="M0 0h16v16H0z"/></g></svg>