<svg width="16" height="16" viewBox="0 0 16 16" fill="none" xmlns="http://www.w3.org/2000/svg"><mask id="a" style="mask-type:alpha" maskUnits="userSpaceOnUse" x="0" y="3" width="13" height="10"><path fill-rule="evenodd" clip-rule="evenodd" d="M8 3a6.97 6.97 0 0 1 4.303 1.478l-1.456 2.037a4.5 4.5 0 0 0-6.879 5.486H1.29A7 7 0 0 1 8 3z" fill="#389FD6"/></mask><g mask="url(#a)"><path fill-rule="evenodd" clip-rule="evenodd" d="M8 3a6.97 6.97 0 0 1 4.303 1.478l-1.456 2.037a4.5 4.5 0 0 0-6.879 5.486H1.29A7 7 0 0 1 8 3z" fill="#389FD6"/><path fill="#EDA200" d="M1 3h12v5H1z"/></g><path fill-rule="evenodd" clip-rule="evenodd" d="M6.975 11.833c.679.475 1.683.211 2.246-.593.826-1.18 3.033-6.286 3.033-6.286.219-.5.06-.618-.362-.254 0 0-4.3 3.638-5.128 4.82-.563.803-.467 1.838.211 2.313zM13.5 5.669A6.97 6.97 0 0 1 15 10c0 .695-.101 1.366-.29 2h-2.678a4.47 4.47 0 0 0 .468-2c0-.533-.093-1.061-.278-1.561l1.278-2.77z" fill="#6E6E6E"/></svg>