<svg width="16" height="16" viewBox="0 0 16 16" xmlns="http://www.w3.org/2000/svg"><rect width="16" height="16" fill="none"/><g fill="none" fill-rule="evenodd"><path d="M12.302 4.477l-1.455 2.038A4.5 4.5 0 0 0 3.968 12H1.29a7 7 0 0 1 11.012-7.523z" fill="#3592C4"/><path d="M13.5 5.668A6.97 6.97 0 0 1 15 10c0 .695-.101 1.366-.29 2h-2.678c.3-.602.468-1.282.468-2a4.49 4.49 0 0 0-.279-1.563L13.5 5.668zM6.975 11.833c.679.475 1.683.211 2.246-.593.826-1.18 3.033-6.286 3.033-6.286.219-.5.06-.618-.362-.254 0 0-4.3 3.638-5.128 4.82-.563.803-.467 1.838.211 2.313z" fill="#AFB1B3"/></g></svg>