<!--
  - Copyright (C) 2025 The Android Open Source Project
  -
  - Licensed under the Apache License, Version 2.0 (the "License");
  - you may not use this file except in compliance with the License.
  - You may obtain a copy of the License at
  -
  -      http://www.apache.org/licenses/LICENSE-2.0
  -
  - Unless required by applicable law or agreed to in writing, software
  - distributed under the License is distributed on an "AS IS" BASIS,
  - WITHOUT WARRANTIES OR CONDITIONS OF ANY KIND, either express or implied.
  - See the License for the specific language governing permissions and
  - limitations under the License.
  -->
<svg width="16" height="16" viewBox="0 0 16 16" fill="none" xmlns="http://www.w3.org/2000/svg"><path fill-rule="evenodd" clip-rule="evenodd" d="M12 14V8.5a.5.5 0 111 0V14h-1z" fill="#548AF7"/><path fill-rule="evenodd" clip-rule="evenodd" d="M10 12.707a.5.5 0 01.707-.707l1.793 1.793L14.293 12a.5.5 0 11.707.707l-2.5 2.5-2.5-2.5z" fill="#548AF7"/><path fill-rule="evenodd" clip-rule="evenodd" d="M6.195 1.262a2 2 0 011.61 0l4 1.76A2 2 0 0113 4.852V7h-1V4.853a1 1 0 00-.597-.916l-4-1.76a1 1 0 00-.806 0l-4 1.76A1 1 0 002 4.853v5.295a1 1 0 00.597.915l4 1.76a1 1 0 00.806 0l.74-.326.759.759-1.097.482a2 2 0 01-1.61 0l-4-1.76A2 2 0 011 10.148V4.853a2 2 0 011.195-1.831l4-1.76z" fill="#CED0D6"/><path d="M1.5 4L7 6.5 12.5 4M7 6.5v7" stroke="#CED0D6"/></svg>