<!--
  - Copyright (C) 2025 The Android Open Source Project
  -
  - Licensed under the Apache License, Version 2.0 (the "License");
  - you may not use this file except in compliance with the License.
  - You may obtain a copy of the License at
  -
  -      http://www.apache.org/licenses/LICENSE-2.0
  -
  - Unless required by applicable law or agreed to in writing, software
  - distributed under the License is distributed on an "AS IS" BASIS,
  - WITHOUT WARRANTIES OR CONDITIONS OF ANY KIND, either express or implied.
  - See the License for the specific language governing permissions and
  - limitations under the License.
  -->
<svg width="16" height="16" viewBox="0 0 16 16" fill="none" xmlns="http://www.w3.org/2000/svg"><path fill-rule="evenodd" clip-rule="evenodd" d="M3.33 14.214c.187-.568.479-1.175.926-1.703C4.94 11.704 6.058 11 8 11c1.941 0 3.06.704 3.744 1.511.447.528.738 1.135.926 1.703.277-.247.533-.516.767-.805C12.76 11.787 11.274 10 8 10c-3.274 0-4.761 1.786-5.437 3.409.234.288.49.557.766.805zM11 6a3 3 0 11-6 0 3 3 0 016 0zm-1 0a2 2 0 11-4 0 2 2 0 014 0z" fill="#CED0D6"/><circle cx="8" cy="8" r="7.5" stroke="#CED0D6"/></svg>