<svg width="20" height="20" viewBox="0 0 20 20" fill="none" xmlns="http://www.w3.org/2000/svg">
<path d="M12.9807 9.70693C10.0268 12.5202 14.6885 14.7671 15.2018 13.2671C15.715 11.7671 14.6885 11.2671 15.715 11.7671C16.7415 12.2671 18.2302 15.9429 15.2018 18.0933C14.115 18.865 12.8082 19 11.3312 19C9.85424 19 6.41305 18.0933 4.63222 15.8207C1.83994 12.2573 2.48906 6.95452 7.6769 3.93929C7.7884 3.87495 7.92545 3.93929 7.92545 4V6L9.43788 5C10.9503 4 10.4462 3 10.3624 1.26218C10.3361 1.07417 10.5569 0.93752 10.7429 1.02928C12.1128 1.70654 14.1641 2.62517 14.7025 4.09589C15.3082 5.74863 15.0645 7.72205 12.9807 9.70693Z" fill="#45322B" stroke="#C77D55" stroke-width="1.5"/>
</svg>
