<svg width="16" height="16" viewBox="0 0 16 16" fill="none" xmlns="http://www.w3.org/2000/svg">
<path d="M8.85156 1.66797C9.34396 1.88781 9.86942 2.12738 10.3428 2.41211C10.9659 2.78697 11.4002 3.18059 11.5674 3.59473C11.7907 4.14768 11.8528 4.73859 11.6768 5.35547C11.4992 5.97703 11.0666 6.66827 10.2275 7.39355C9.5242 8.00143 9.18559 8.65942 9.22266 9.32031C9.25914 9.96816 9.65027 10.4757 10.0889 10.8115C10.5282 11.1478 11.0793 11.3637 11.5771 11.4062C12.0343 11.4453 12.6922 11.3395 12.9268 10.7178C12.9434 10.6737 12.9575 10.6301 12.9727 10.5889C13.0622 10.8172 13.1464 11.072 13.2002 11.3408C13.2901 11.7905 13.2981 12.2535 13.1611 12.6807C13.0273 13.0977 12.7436 13.5157 12.1875 13.874C11.3872 14.3897 10.397 14.5 9.14062 14.5C8.57783 14.4999 7.58241 14.3385 6.53906 13.957C5.49526 13.5753 4.46363 12.9949 3.77734 12.2002C2.6765 10.9253 2.26955 9.36335 2.625 7.8623C2.95056 6.48798 3.93142 5.1073 5.72168 4.02441V5.77148L6.47949 5.31738L7.77539 4.54004C8.13973 4.32145 8.41738 4.08177 8.61035 3.80273C8.80732 3.51777 8.89552 3.22032 8.9248 2.9209C8.9528 2.63405 8.92689 2.34016 8.89648 2.06445C8.88187 1.93191 8.86606 1.80119 8.85156 1.66797Z" stroke="#CED0D6"/>
</svg>
