<svg width="16" height="16" viewBox="0 0 16 16" fill="none" xmlns="http://www.w3.org/2000/svg"><g clip-path="url(#clip0_2284_715)"><mask id="a" fill="#fff"><path d="M2.5 4a1 1 0 0 1 1-1h10a1 1 0 0 1 1 1v7a1 1 0 0 1-1 1h-10a1 1 0 0 1-1-1V4z"/></mask><path d="M1.5 4a2 2 0 0 1 2-2h10a2 2 0 0 1 2 2h-14zm14 7a2 2 0 0 1-2 2h-10a2 2 0 0 1-2-2h14zm-12 2a2 2 0 0 1-2-2V4a2 2 0 0 1 2-2v11zm10-11a2 2 0 0 1 2 2v7a2 2 0 0 1-2 2V2z" fill="#CED0D6" mask="url(#a)"/><path d="M6.5 4h4a1 1 0 0 1-1 1h-2a1 1 0 0 1-1-1z" fill="#CED0D6"/><rect x="1.5" y="13" width="14" height="1" rx=".5" fill="#CED0D6"/></g><defs><clipPath id="clip0_2284_715"><path fill="#fff" d="M0 0h16v16H0z"/></clipPath></defs></svg>