<svg width="16" height="16" viewBox="0 0 16 16" fill="none" xmlns="http://www.w3.org/2000/svg"><path fill-rule="evenodd" clip-rule="evenodd" d="M6 12.382v.118A1.5 1.5 0 007.5 14h5a1.5 1.5 0 001.5-1.5v-9A1.5 1.5 0 0012.5 2H8.787A.988.988 0 019 2.618V3h3.5a.5.5 0 01.5.5v9a.5.5 0 01-.5.5H8l-.5.25-.053.026A1 1 0 016 12.382z" fill="#CED0D6"/><path d="M8.053 1.724l-1 .5a1 1 0 00-.553.894v9.264a1 1 0 001.447.894L8 13.25l.947-.474a1 1 0 00.553-.894V2.618a1 1 0 00-1.447-.894z" stroke="#CED0D6" stroke-linecap="round"/><path fill-rule="evenodd" clip-rule="evenodd" d="M2.5 5a.5.5 0 01-.5-.5V3a1 1 0 011-1h.5a.5.5 0 010 1H3v1.5a.5.5 0 01-.5.5zm0 6a.5.5 0 00-.5.5V13a1 1 0 001 1h.5a.5.5 0 000-1H3v-1.5a.5.5 0 00-.5-.5zm0-5a.5.5 0 00-.5.5v3a.5.5 0 001 0v-3a.5.5 0 00-.5-.5z" fill="#CED0D6"/></svg>