<svg width="16" height="16" viewBox="0 0 16 16" fill="none" xmlns="http://www.w3.org/2000/svg"><path fill-rule="evenodd" clip-rule="evenodd" d="M11.56 7.56a1.914 1.914 0 1 1 2.708 2.708l-.5.5a.5.5 0 0 1-.707-.707l.5-.5a.914.914 0 0 0-1.293-1.293l-1.5 1.5a.914.914 0 0 0 0 1.293.5.5 0 0 1-.707.707 1.914 1.914 0 0 1 0-2.707l1.5-1.5zm-.5 2.5a.5.5 0 0 1 .708 0c.747.748.747 1.96 0 2.708l-1.5 1.5A1.914 1.914 0 0 1 7.56 11.56l.5-.5a.5.5 0 1 1 .707.707l-.5.5A.914.914 0 1 0 9.56 13.56l1.5-1.5a.914.914 0 0 0 0-1.293.5.5 0 0 1 0-.707z" fill="#4285F4"/><circle cx="6" cy="10.25" r=".75" fill="#CED0D6"/><path fill-rule="evenodd" clip-rule="evenodd" d="M9 8.5V2H3v10h3v1H3a1 1 0 0 1-1-1V2a1 1 0 0 1 1-1h6a1 1 0 0 1 1 1v5.5l-1 1z" fill="#CED0D6"/></svg>