<svg width="16" height="16" viewBox="0 0 16 16" fill="none" xmlns="http://www.w3.org/2000/svg"><circle cx="6" cy="10.25" r=".75" fill="#6C707E"/><path d="M10.071 9.46a.446.446 0 0 1-.63-.63l.604-.605a2.335 2.335 0 0 1 3.302.005c.913.914.915 2.392.005 3.302l-.605.605a.446.446 0 0 1-.63-.632l.604-.604c.56-.56.561-1.473-.006-2.04a1.442 1.442 0 0 0-2.039-.005l-.605.605zM8.809 10.092a.446.446 0 0 1 0 .631l-.605.605c-.56.56-.561 1.473.006 2.04.566.566 1.48.564 2.039.005l.605-.605a.446.446 0 0 1 .63.631l-.604.605c-.91.91-2.388.908-3.302-.006a2.335 2.335 0 0 1-.005-3.301l.605-.605a.446.446 0 0 1 .631 0z" fill="#3574F0"/><path d="M12.117 10.091a.446.446 0 0 0-.631-.631l-2.678 2.678a.446.446 0 1 0 .631.63l2.678-2.677z" fill="#3574F0"/><path fill-rule="evenodd" clip-rule="evenodd" d="M9 2v6.5l1-1V2a1 1 0 0 0-1-1H3a1 1 0 0 0-1 1v10a1 1 0 0 0 1 1h3v-.05a1.485 1.485 0 0 1 0-.928V12H3V2h6z" fill="#6C707E"/></svg>