<svg width="16" height="16" viewBox="0 0 16 16" fill="none" xmlns="http://www.w3.org/2000/svg"><g clip-path="url(#clip0_5509_1540)"><path d="M11.88 15.799c.314.118.657.188 1.016.2.486.015.948-.078 1.361-.256a4.302 4.302 0 0 1-1.327-.774c-.248.37-.615.661-1.05.83z" fill="#FF9100"/><path d="M12.93 14.97c-.874-.752-1.405-1.84-1.36-3.032l.006-.116a2.43 2.43 0 0 0-1.182.012c-.234.38-.375.815-.392 1.282-.045 1.205.74 2.257 1.877 2.683.436-.169.803-.46 1.051-.83z" fill="#FFC400"/><path d="M12.93 14.97c.203-.303.327-.657.34-1.039.039-1.004-.688-1.868-1.694-2.109a4.496 4.496 0 0 0-.006.117c-.045 1.192.486 2.279 1.36 3.03z" fill="#FF9100"/><path d="M13.159 9a3.98 3.98 0 0 0-1.3 1.636c-.156.37-.254.769-.283 1.186 1.006.241 1.733 1.105 1.695 2.11a1.985 1.985 0 0 1-.341 1.037c.383.329.832.594 1.328.774.994-.427 1.7-1.345 1.74-2.433.027-.704-.264-1.332-.676-1.861C14.887 10.889 13.159 9 13.159 9z" fill="#DD2C00"/><path d="M4.5 4l.34-1.696a1 1 0 0 1 .98-.804h2.36a1 1 0 0 1 .98.804L9.5 4" stroke="#6C707E" stroke-linecap="square"/><path fill-rule="evenodd" clip-rule="evenodd" d="M7 12a4 4 0 1 0 0-8 4 4 0 0 0 0 8zm0 1c.658 0 1.286-.127 1.862-.358l-.192.956a.5.5 0 0 1-.49.402H5.82a.5.5 0 0 1-.49-.402l-.192-.956A4.986 4.986 0 0 0 7 13zm2.255 1.546a3.6 3.6 0 0 1-.252-1.467c.023-.63.21-1.235.539-1.769l.21-.342.389-.102c.158-.041.32-.071.483-.09l.131-.01.072-.23.112-.29c.236-.56.58-1.07 1.007-1.51a5 5 0 1 0-7.958 3.256l.36 1.802A1.5 1.5 0 0 0 5.82 15h2.36c.417 0 .8-.172 1.075-.454z" fill="#6C707E"/><circle cx="7" cy="10" r=".5" stroke="#6C707E"/></g><defs><clipPath id="clip0_5509_1540"><path fill="#fff" d="M0 0h16v16H0z"/></clipPath></defs></svg>