<svg width="16" height="16" viewBox="0 0 16 16" fill="none" xmlns="http://www.w3.org/2000/svg"><path d="M5.5 4l.34-1.696a1 1 0 01.98-.804h2.36a1 1 0 01.98.804L10.5 4" stroke="#CED0D6" stroke-linecap="square"/><path fill-rule="evenodd" clip-rule="evenodd" d="M8.223 14l1.559.874c-.185.081-.39.126-.602.126H6.82a1.5 1.5 0 01-1.471-1.206l-.437-2.186.98-.196.438 2.186a.5.5 0 00.49.402h1.403z" fill="#CED0D6"/><path d="M14.221 8.6a.187.187 0 00-.317-.1l-.973.974-.766-1.457a.187.187 0 00-.332 0l-.418.797-1.05-1.958a.188.188 0 00-.35.06L9 13.411l2.713 1.522c.17.096.378.096.549.001l2.736-1.522-.777-4.812z" fill="#F57C00"/><path d="M14.998 13.412L14.222 8.6a.187.187 0 00-.317-.1L9 13.411l2.713 1.521c.17.096.378.096.549.001l2.736-1.522z" fill="#FFCA28"/><path d="M12.412 7.112A4.5 4.5 0 108.037 12.5" stroke="#CED0D6" stroke-linecap="round"/><circle cx="8" cy="10" r="1" fill="#CED0D6"/></svg>