<svg width="16" height="16" viewBox="0 0 16 16" fill="none" xmlns="http://www.w3.org/2000/svg"><path d="M2 6.5l.826-3.717A1 1 0 013.802 2h6.396a1 1 0 01.976.783L12 6.5M1.5 10.5v1a1 1 0 001 1h1a1 1 0 001-1v-1" stroke="#6C707E"/><circle cx="4" cy="8.5" r="1" fill="#6C707E"/><path fill-rule="evenodd" clip-rule="evenodd" d="M13 7a1 1 0 00-1-1h-1.25l.75 1H13zM9.23 6H2a1 1 0 00-1 1v4h7.449l.156-1H2V7h7.074l.156-1z" fill="#6C707E"/><path d="M14.221 8.6a.187.187 0 00-.317-.1l-.973.974-.766-1.457a.187.187 0 00-.332 0l-.418.797-1.05-1.958a.188.188 0 00-.35.06L9 13.411l2.713 1.522c.17.096.378.096.549.001l2.736-1.522-.777-4.812z" fill="#F57C00"/><path d="M14.998 13.412L14.222 8.6a.187.187 0 00-.317-.1L9 13.411l2.713 1.521c.17.096.378.096.549.001l2.736-1.522z" fill="#FFCA28"/></svg>