<svg width="16" height="16" viewBox="0 0 16 16" fill="none" xmlns="http://www.w3.org/2000/svg"><path d="M13.5 7.5V4a.5.5 0 00-.5-.5H2a.5.5 0 00-.5.5v6.059a.5.5 0 00.5.5h5.5M3.369 12.5H6.81" stroke="#CED0D6" stroke-linecap="round"/><path d="M14.221 8.6a.187.187 0 00-.317-.1l-.973.974-.766-1.457a.187.187 0 00-.332 0l-.418.797-1.05-1.958a.188.188 0 00-.35.06L9 13.411l2.713 1.522c.17.096.378.096.549.001l2.736-1.522-.777-4.812z" fill="#F57C00"/><path d="M14.998 13.412L14.222 8.6a.187.187 0 00-.317-.1L9 13.411l2.713 1.521c.17.096.378.096.549.001l2.736-1.522z" fill="#FFCA28"/><path d="M3.486 12.5H7.5" stroke="#CED0D6" stroke-linecap="round"/></svg>