<svg width="16" height="16" viewBox="0 0 16 16" fill="none" xmlns="http://www.w3.org/2000/svg"><g clip-path="url(#clip0_136_1901)"><mask id="a" fill="#fff"><path d="M5 10a1 1 0 0 0 1 1V9a1 1 0 0 0-1 1z"/></mask><path d="M6 11v1h1v-1H6zm0-2h1V8H6v1zm0 1H4a2 2 0 0 0 2 2v-2zm0 0V8a2 2 0 0 0-2 2h2zM5 9v2h2V9H5z" fill="#CED0D6" mask="url(#a)"/><path d="M3.5 4l.34-1.696a1 1 0 0 1 .98-.804h2.36a1 1 0 0 1 .98.804L8.5 4" stroke="#CED0D6" stroke-linecap="square"/><rect x="7.5" y="8.5" width="7" height="4" rx=".75" stroke="#A571E6"/><path d="M7.5 14.5h7" stroke="#A571E6" stroke-linecap="round"/><path fill-rule="evenodd" clip-rule="evenodd" d="M6 12a4 4 0 1 1 3.874-5H10.9A5.002 5.002 0 0 0 1 8c0 1.63.78 3.079 1.988 3.992l.36 1.802A1.5 1.5 0 0 0 4.82 15H6v-1H4.82a.5.5 0 0 1-.49-.402l-.192-.956A4.986 4.986 0 0 0 6 13v-1z" fill="#CED0D6"/></g><defs><clipPath id="clip0_136_1901"><path fill="#fff" d="M0 0h16v16H0z"/></clipPath></defs></svg>