<svg width="16" height="16" viewBox="0 0 16 16" fill="none" xmlns="http://www.w3.org/2000/svg"><g clip-path="url(#clip0_136_1899)"><rect x="7.5" y="8.5" width="7" height="4" rx=".75" stroke="#A571E6"/><path d="M7.5 14.5h7" stroke="#A571E6" stroke-linecap="round"/><path fill-rule="evenodd" clip-rule="evenodd" d="M2 4h11v3h1V4a1 1 0 0 0-1-1H2a1 1 0 0 0-1 1v6a1 1 0 0 0 1 1h4v-1H2V4zM6 12H3.5a.5.5 0 0 0 0 1H6v-1z" fill="#CED0D6"/></g><defs><clipPath id="clip0_136_1899"><path fill="#fff" d="M0 0h16v16H0z"/></clipPath></defs></svg>