<svg width="16" height="16" viewBox="0 0 16 16" fill="none" xmlns="http://www.w3.org/2000/svg"><path d="M2 6.5l.826-3.717A1 1 0 0 1 3.802 2h6.396a1 1 0 0 1 .976.783L12 6.5M1.5 10.5v1a1 1 0 0 0 1 1h1a1 1 0 0 0 1-1v-1" stroke="#6C707E"/><circle cx="4" cy="8.5" r="1" fill="#6C707E"/><rect x="7.5" y="8.5" width="7" height="4" rx=".75" stroke="#834DF0"/><path d="M7.5 14.5h7" stroke="#834DF0" stroke-linecap="round"/><path fill-rule="evenodd" clip-rule="evenodd" d="M2 7h11a1 1 0 0 0-1-1H2a1 1 0 0 0-1 1v4h5v-1H2V7z" fill="#6C707E"/></svg>