<svg width="16" height="16" viewBox="0 0 16 16" xmlns="http://www.w3.org/2000/svg"><rect width="16" height="16" fill="none"/><g fill="none" fill-rule="evenodd"><circle fill-opacity=".6" fill="#F4AF3D" cx="8" cy="8" r="7"/><path d="M7.131 11C6.075 11 5 10.516 5 9.35v-.022c0-1.199.998-1.937 2.439-1.937.726 0 1.055.199 1.561.342v-.198C9 6.512 8.561 6 7.494 6c-.671 0-1.199.16-1.727.402l-.253-.893C6.141 5.223 6.567 5 7.582 5c1.015 0 1.462.406 1.88.824.385.385.54.974.54 1.7V11H9v-.858c-.396.517-.868.858-1.869.858zm.165-.9c1.045 0 1.743-.486 1.704-1.19V8.6c-.4-.2-.832-.482-1.473-.482C6.689 8.118 6 8.58 6 9.295v.022c0 .495.526.783 1.296.783z" fill-opacity=".7" fill="#231F20"/></g></svg>