<svg width="16" height="16" viewBox="0 0 16 16" xmlns="http://www.w3.org/2000/svg"><rect width="16" height="16" fill="none"/><g fill="none" fill-rule="evenodd"><circle fill-opacity=".6" fill="#F4AF3D" cx="8" cy="8" r="7"/><path d="M9.349 11c0-.08-.161-.587-.161-.715a3.03 3.03 0 0 1-.373.285c-.137.09-.289.168-.454.236-.165.068-.396.194-1.14.194-.635 0-.635-.018-.912-.108a2.238 2.238 0 0 1-.704-.362 1.605 1.605 0 0 1-.447-.543A1.49 1.49 0 0 1 5 9.307c0-.318.07-.597.212-.837.14-.24.34-.44.6-.6.258-.158.569-.278.933-.356.364-.08.77-.118 1.22-.118H9.17v-.457c0-.175-.036-.333-.108-.473a1.03 1.03 0 0 0-.304-.357 1.455 1.455 0 0 0-.48-.228c-.189-.054-.4-.08-.635-.08-.22 0-.415.024-.588.074-.173.05-.287.1-.438.2-.152.098-.506.504-.506.644H5c.004-.212.15-.52.313-.719.164-.2.287-.292.507-.455.22-.163.49-.294.806-.395.316-.1.675-.15 1.076-.15.366 0 .706.04 1.02.12.315.081.586.203.815.366.228.163.408.366.54.61.13.243.196.528.196.854V9.65c0 .194.02.399.06.615L10.5 11H9.349zm-1.951-.838a2.319 2.319 0 0 0 1.113-.274c.153-.083.285-.177.396-.282.112-.106.2-.216.263-.33V8.098H8.144c-.645 0-1.146.086-1.504.258-.357.172-.536.442-.536.811 0 .143.026.276.08.397a.84.84 0 0 0 .242.315c.107.087.242.156.405.206.163.05.352.076.567.076z" fill-opacity=".7" fill="#231F20"/></g></svg>