<!--
  - Copyright (C) 2025 The Android Open Source Project
  -
  - Licensed under the Apache License, Version 2.0 (the "License");
  - you may not use this file except in compliance with the License.
  - You may obtain a copy of the License at
  -
  -      http://www.apache.org/licenses/LICENSE-2.0
  -
  - Unless required by applicable law or agreed to in writing, software
  - distributed under the License is distributed on an "AS IS" BASIS,
  - WITHOUT WARRANTIES OR CONDITIONS OF ANY KIND, either express or implied.
  - See the License for the specific language governing permissions and
  - limitations under the License.
  -->
<svg width="16" height="16" viewBox="0 0 16 16" fill="none" xmlns="http://www.w3.org/2000/svg"><path fill-rule="evenodd" clip-rule="evenodd" d="M8 15A7 7 0 108 1a7 7 0 000 14z" fill="#E66D17"/><path d="M8.264 4.712c.48 0 .902.088 1.266.264.368.172.654.424.858.756.204.328.306.718.306 1.17V11h-1.14l-.006-2.298h.288c0 .508-.09.946-.27 1.314a1.909 1.909 0 01-.768.84c-.332.192-.728.288-1.188.288-.392 0-.746-.076-1.062-.228a1.828 1.828 0 01-.744-.63 1.624 1.624 0 01-.264-.912c0-.324.084-.622.252-.894.168-.276.4-.5.696-.672.3-.176.636-.284 1.008-.324l1.626-.174a.447.447 0 00.306-.156c.072-.088.108-.218.108-.39l.072 1.302-1.884.21c-.192.02-.362.074-.51.162a.967.967 0 00-.348.348.935.935 0 00-.126.48c0 .192.05.362.15.51.104.144.246.258.426.342.18.08.388.12.624.12.32 0 .6-.064.84-.192a1.37 1.37 0 00.558-.54c.132-.232.198-.5.198-.804V6.776c0-.224-.054-.42-.162-.588a1.065 1.065 0 00-.456-.39 1.539 1.539 0 00-.672-.138c-.256 0-.486.044-.69.132-.2.084-.364.2-.492.348a.91.91 0 00-.222.474H5.678c.044-.364.182-.69.414-.978.236-.288.542-.514.918-.678.38-.164.798-.246 1.254-.246z" fill="#FFF4EB"/></svg>