<svg width="16" height="16" viewBox="0 0 16 16" xmlns="http://www.w3.org/2000/svg"><rect width="16" height="16" fill="none"/><path d="M7.993 1A6.997 6.997 0 0 0 1 8c0 3.864 3.129 7 6.993 7A7.004 7.004 0 0 0 15 8c0-3.864-3.136-7-7.007-7zm4.851 4.2h-2.065a10.954 10.954 0 0 0-.966-2.492A5.62 5.62 0 0 1 12.844 5.2zM8 2.428A9.86 9.86 0 0 1 9.337 5.2H6.663A9.86 9.86 0 0 1 8 2.428zM2.582 9.4A5.77 5.77 0 0 1 2.4 8c0-.483.07-.952.182-1.4h2.366A11.56 11.56 0 0 0 4.85 8c0 .476.042.938.098 1.4H2.582zm.574 1.4h2.065c.224.875.546 1.715.966 2.492A5.59 5.59 0 0 1 3.156 10.8zm2.065-5.6H3.156a5.59 5.59 0 0 1 3.031-2.492c-.42.777-.742 1.617-.966 2.492zM8 13.572A9.86 9.86 0 0 1 6.663 10.8h2.674A9.86 9.86 0 0 1 8 13.572zM9.638 9.4H6.362A10.299 10.299 0 0 1 6.25 8c0-.476.049-.945.112-1.4h3.276c.063.455.112.924.112 1.4 0 .476-.049.938-.112 1.4zm.175 3.892c.42-.777.742-1.617.966-2.492h2.065a5.62 5.62 0 0 1-3.031 2.492zM11.052 9.4c.056-.462.098-.924.098-1.4 0-.476-.042-.938-.098-1.4h2.366c.112.448.182.917.182 1.4 0 .483-.07.952-.182 1.4h-2.366z" fill="#6E6E6E" fill-rule="evenodd"/></svg>