<svg fill="none" width="40" height="40" viewBox="0 0 40 40" xmlns="http://www.w3.org/2000/svg">
  <g transform="matrix(2.4 0 0 2.4 -2.43 -.371)" clip-rule="evenodd" fill-rule="evenodd">
    <path d="m10.4 12.5c0.444-0.178 0.917-0.269 1.4-0.268 0.492 0 0.962 0.095 1.39 0.267l0.876-1.52 0.541 0.312-0.858 1.48c0.549 0.335 1 0.805 1.32 1.37 0.315 0.561 0.48 1.19 0.48 1.84h-7.5c-3.8e-4 -0.643 0.165-1.27 0.479-1.84s0.768-1.03 1.32-1.37l-0.858-1.49 0.541-0.312zm-0.48 1.61v0.625h0.625v-0.625zm3.12 0v0.625h0.625v-0.625z" fill="#3ddc84"/>
    <path d="m11.4 1 1.37 1.3v9.31c-0.332-0.0737-0.678-0.112-1.03-0.112-0.372 0-0.734 0.0427-1.08 0.124l-0.88-1.52h1.63v-7.8h-6.83v7.8h4.97l-1.56 0.9 0.856 1.48c-0.53 0.408-0.971 0.924-1.29 1.52h-2.98l-1.37-1.3v-10.4l1.37-1.3z" fill="#02303A"/>
  </g>
</svg>
