<svg width="16" height="16" viewBox="0 0 16 16" fill="none" xmlns="http://www.w3.org/2000/svg"><g clip-path="url(#clip0_2_609)"><g clip-path="url(#clip1_2_609)"><path d="M8 15l2.31-6.3h1.28l2.39 6.3h-1.091l-.571-1.602H9.645L9.109 15H8zm3.977-2.546l-.928-2.557-.104-.387-.104.387-.878 2.557h2.014z" fill="#6C707E"/><path fill-rule="evenodd" clip-rule="evenodd" d="M12.793 3.5L11 1.707A.5.5 0 1 1 11.707 1l3 3-3 3A.5.5 0 1 1 11 6.293L12.793 4.5H6a3.5 3.5 0 1 0 0 7h.5a.5.5 0 0 1 0 1H6a4.5 4.5 0 1 1 0-9h6.793z" fill="#3DDC84"/></g></g><defs><clipPath id="clip0_2_609"><path fill="#fff" d="M0 0h16v16H0z"/></clipPath><clipPath id="clip1_2_609"><path fill="#fff" d="M0 0h16v16H0z"/></clipPath></defs></svg>