<svg width="20" height="20" viewBox="0 0 20 20" fill="none" xmlns="http://www.w3.org/2000/svg"><path d="M10 19l3.477-10h1.926L19 19h-1.642l-.86-2.543h-4.023L11.669 19H10zm5.986-4.042L14.588 10.9l-.156-.614-.155.614-1.323 4.058h3.032z" fill="#6C707E"/><path d="M11.5 1.5l3.5 3-3.5 3" stroke="#6C707E" stroke-width="1.5" stroke-linecap="round"/><path d="M8.5 13.75a.75.75 0 0 0 0-1.5v1.5zm0-1.5H6.75v1.5H8.5v-1.5zm-1.75-7h7.75v-1.5H6.75v1.5zm-3.5 3.5a3.5 3.5 0 0 1 3.5-3.5v-1.5a5 5 0 0 0-5 5h1.5zm3.5 3.5a3.5 3.5 0 0 1-3.5-3.5h-1.5a5 5 0 0 0 5 5v-1.5z" fill="#6C707E"/></svg>