<svg width="16" height="16" viewBox="0 0 16 16" fill="none" xmlns="http://www.w3.org/2000/svg"><g clip-path="url(#clip0_2_611)" fill-rule="evenodd" clip-rule="evenodd"><path d="M14 2.5a.5.5 0 0 1-.5.5H2a.5.5 0 1 1 0-1h11.5a.5.5 0 0 1 .5.5zM14 5.5a.5.5 0 0 1-.5.5H2a.5.5 0 1 1 0-1h11.5a.5.5 0 0 1 .5.5zM7 8.5a.5.5 0 0 1-.5.5H2a.5.5 0 1 1 0-1h4.5a.5.5 0 0 1 .5.5zM8 11.5a.5.5 0 0 1-.5.5H2a.5.5 0 1 1 0-1h5.5a.5.5 0 0 1 .5.5z" fill="#6C707E"/><path d="M10.793 7a.5.5 0 1 1 .707.707L10.207 9H12.5a2.5 2.5 0 1 1 0 5h-3a.5.5 0 1 1 0-1h3a1.5 1.5 0 0 0 0-3h-2.293l1.293 1.293a.5.5 0 1 1-.707.707l-2.5-2.5 2.5-2.5z" fill="#3DDC84"/></g><defs><clipPath id="clip0_2_611"><path fill="#fff" d="M0 0h16v16H0z"/></clipPath></defs></svg>