<svg width="16" height="16" viewBox="0 0 16 16" fill="none" xmlns="http://www.w3.org/2000/svg"><path fill-rule="evenodd" clip-rule="evenodd" d="M14 2.5a.5.5 0 0 1-.5.5H2a.5.5 0 1 1 0-1h11.5a.5.5 0 0 1 .5.5zM14 5.5a.5.5 0 0 1-.5.5H2a.5.5 0 1 1 0-1h11.5a.5.5 0 0 1 .5.5zM7 8.5a.5.5 0 0 1-.5.5H2a.5.5 0 1 1 0-1h4.5a.5.5 0 0 1 .5.5zM8 11.5a.5.5 0 0 1-.5.5H2a.5.5 0 1 1 0-1h5.5a.5.5 0 0 1 .5.5z" fill="#CED0D6"/><path fill-rule="evenodd" clip-rule="evenodd" d="M10.793 7a.5.5 0 1 1 .707.707L10.207 9H12.5a2.5 2.5 0 1 1 0 5h-3a.5.5 0 1 1 0-1h3a1.5 1.5 0 0 0 0-3h-2.293l1.293 1.293a.5.5 0 0 1-.707.707l-2.5-2.5 2.5-2.5z" fill="#3DDC84"/></svg>