<svg width="20" height="20" viewBox="0 0 20 20" fill="none" xmlns="http://www.w3.org/2000/svg"><path d="M2.5 2h15M2.5 7h15M2.5 12h4M2.5 17h5" stroke="#CED0D6" stroke-width="1.5" stroke-linecap="round"/><path d="M11 16.25a.75.75 0 0 0 0 1.5v-1.5zm0 1.5h4v-1.5h-4v1.5zm4-6.5h-4v1.5h4v-1.5zm3.25 3.25A3.25 3.25 0 0 0 15 11.25v1.5c.966 0 1.75.784 1.75 1.75h1.5zM15 17.75a3.25 3.25 0 0 0 3.25-3.25h-1.5A1.75 1.75 0 0 1 15 16.25v1.5z" fill="#CED0D6"/><path d="M12.5 9.5L10 12l2.5 2.5" stroke="#CED0D6" stroke-width="1.5" stroke-linecap="round"/></svg>