<svg width="16" height="16" viewBox="0 0 16 16" fill="none" xmlns="http://www.w3.org/2000/svg">
<g id="attach-debugger/dark" clip-path="url(#clip0_41_5)">
<g id="connector">
<g id="connector_2">
<path id="Union" fill-rule="evenodd" clip-rule="evenodd" d="M12 4.99997V3.99997C12 3.44768 11.5523 2.99997 11 2.99997H7C5.13616 2.99997 3.57006 4.27474 3.12602 5.99997H1C0.447715 5.99997 0 6.44768 0 6.99997V8.99997C0 9.55225 0.447715 9.99997 1 9.99997H3.12602C3.57006 11.7252 5.13616 13 7 13H11C11.5523 13 12 12.5523 12 12V11H15.5C15.7761 11 16 10.7761 16 10.5C16 10.2238 15.7761 9.99997 15.5 9.99997H12V5.99997H15.5C15.7761 5.99997 16 5.77611 16 5.49997C16 5.22383 15.7761 4.99997 15.5 4.99997H12ZM11 3.99997H7C5.34315 3.99997 4 5.34312 4 6.99997V8.99997C4 10.6568 5.34315 12 7 12H11V3.99997ZM3 6.99997V8.99997H1V6.99997L3 6.99997Z" fill="#CED0D6"/>
</g>
</g>
</g>
<defs>
<clipPath id="clip0_41_5">
<rect width="16" height="16" fill="white"/>
</clipPath>
</defs>
</svg>
