<svg width="16" height="16" viewBox="0 0 16 16" fill="none" xmlns="http://www.w3.org/2000/svg"><g clip-path="url(#clip0_41_4)"><path fill-rule="evenodd" clip-rule="evenodd" d="M12 5V4a1 1 0 0 0-1-1H7a4.002 4.002 0 0 0-3.874 3H1a1 1 0 0 0-1 1v2a1 1 0 0 0 1 1h2.126c.444 1.725 2.01 3 3.874 3h4a1 1 0 0 0 1-1v-1h3.5a.5.5 0 0 0 0-1H12V6h3.5a.5.5 0 0 0 0-1H12zm-1-1H7a3 3 0 0 0-3 3v2a3 3 0 0 0 3 3h4V4zM3 7v2H1V7h2z" fill="#6C707E"/></g><defs><clipPath id="clip0_41_4"><path fill="#fff" d="M0 0h16v16H0z"/></clipPath></defs></svg>