<svg width="20" height="20" viewBox="0 0 20 20" fill="none" xmlns="http://www.w3.org/2000/svg"><path fill-rule="evenodd" clip-rule="evenodd" d="M8 5.03V5a2 2 0 1 1 4 0v.03a4.04 4.04 0 0 0-.5-.03h-3c-.17 0-.336.01-.5.03zM13.5 5c0 .175-.013.346-.037.514a4.02 4.02 0 0 1 1.428 1.364l2.254-1.212a.75.75 0 0 1 .71 1.322l-2.418 1.3c.041.231.063.469.063.712v1H14V9a2.5 2.5 0 0 0-2.5-2.5h-3A2.5 2.5 0 0 0 6 9v3.5a4 4 0 0 0 5 3.874v1.535a5.5 5.5 0 0 1-5.849-2.811l-2.298 1.236a.75.75 0 1 1-.71-1.322l2.483-1.335A5.522 5.522 0 0 1 4.5 12.5v-.75h-3a.75.75 0 0 1 0-1.5h3V9c0-.243.022-.48.063-.711l-2.42-1.301a.75.75 0 1 1 .71-1.322L5.108 6.88a4.02 4.02 0 0 1 1.43-1.365A3.5 3.5 0 1 1 13.5 5z" fill="#CED0D6"/><path fill-rule="evenodd" clip-rule="evenodd" d="M14.25 12a.75.75 0 0 0 0 1.5h2.19l-4.22 4.22a.75.75 0 1 0 1.06 1.06l4.22-4.22v2.19a.75.75 0 0 0 1.5 0v-4a.747.747 0 0 0-.213-.524l-.013-.013A.748.748 0 0 0 18.25 12h-4z" fill="#CED0D6"/></svg>