<svg width="20" height="20" viewBox="0 0 20 20" fill="none" xmlns="http://www.w3.org/2000/svg">
<path d="M9 4.74997H13.875C14.0131 4.74997 14.125 4.8619 14.125 4.99997V9.99997V15C14.125 15.138 14.0131 15.25 13.875 15.25H9C7.20507 15.25 5.75 13.7949 5.75 12V7.99997C5.75 6.20504 7.20507 4.74997 9 4.74997Z" stroke="#6C707E" stroke-width="1.5"/>
<path d="M2 7.74997H5.75V12.25H2C1.86193 12.25 1.75 12.138 1.75 12V7.99997C1.75 7.8619 1.86193 7.74997 2 7.74997Z" stroke="#6C707E" stroke-width="1.5"/>
<path d="M18.5625 8.49997C18.9767 8.49997 19.3125 8.16418 19.3125 7.74997C19.3125 7.33576 18.9767 6.99997 18.5625 6.99997V8.49997ZM14.1875 8.49997H18.5625V6.99997H14.1875V8.49997Z" fill="#6C707E"/>
<path d="M18.5625 13.0625C18.9767 13.0625 19.3125 12.7267 19.3125 12.3125C19.3125 11.8983 18.9767 11.5625 18.5625 11.5625V13.0625ZM14.1875 13.0625H18.5625V11.5625H14.1875V13.0625Z" fill="#6C707E"/>
</svg>
