<svg width="20" height="20" viewBox="0 0 20 20" fill="none" xmlns="http://www.w3.org/2000/svg">
<path fill-rule="evenodd" clip-rule="evenodd" d="M14.6499 3.00704C13.7053 2.5085 12.7514 2.5 12 2.5H8.39444L7.27854 2.94635C7.18995 2.98179 7.09541 3 7 3H5.5C5.38357 3 5.26873 2.97289 5.16459 2.92082L4.32295 2.5H2.75V5H4.32295L5.16459 4.57918C5.26873 4.52711 5.38357 4.5 5.5 4.5H7C7.1703 4.5 7.33554 4.55796 7.46852 4.66435L8.51309 5.5H10.75L12.55 4.15C12.6798 4.05263 12.8377 4 13 4L13.0318 4C13.7648 3.99994 14.4818 3.99989 15.335 4.24875C15.6546 4.34197 15.9869 4.46788 16.3442 4.63543C15.8046 3.79202 15.2087 3.30193 14.6499 3.00704ZM6.73691 6L7.5 6.61047V8.82295L7.35704 9.10886C6.95783 9.90728 6.75 10.7877 6.75 11.6803V18.25C6.75 18.6642 7.08579 19 7.5 19H9.64314C9.55035 18.6852 9.5 18.3486 9.5 17.9952V17.5H8.25V11.6803C8.25 11.0205 8.40362 10.3698 8.69868 9.77968L8.92082 9.33541C8.97289 9.23127 9 9.11643 9 9V7H10.25V9C10.25 9.11643 10.2771 9.23127 10.3292 9.33541L10.4579 9.59294C10.8198 9.2131 11.263 8.91794 11.75 8.7303V6.625L13.2495 5.5004C13.8766 5.50319 14.3527 5.52475 14.915 5.68875C15.555 5.87542 16.3537 6.26306 17.5699 7.11442C17.8332 7.2987 18.1846 7.29479 18.4437 7.1047C18.7028 6.91461 18.812 6.58058 18.7152 6.27415C17.9188 3.75211 16.6843 2.38466 15.3501 1.68046C14.0603 0.999722 12.7795 0.999894 12.027 0.999995L12 0.999997H8.25C8.15459 0.999997 8.06005 1.0182 7.97146 1.05364L6.85556 1.5H5.67705L4.83541 1.07918C4.73127 1.02711 4.61643 0.999997 4.5 0.999997H2C1.58579 0.999997 1.25 1.33578 1.25 1.75V5.75C1.25 6.16421 1.58579 6.5 2 6.5H4.5C4.61643 6.5 4.73127 6.47289 4.83541 6.42082L5.67705 6H6.73691Z" fill="#CED0D6"/>
<path d="M13.6109 10.9276L18.6412 13.9227C19.4529 14.406 19.4529 15.5942 18.6412 16.0775L13.6109 19.0726C12.7963 19.5577 11.75 18.972 11.75 17.9952V12.005C11.75 11.0282 12.7963 10.4425 13.6109 10.9276Z" stroke="#CED0D6" stroke-width="1.5"/>
</svg>
