<svg width="16" height="16" viewBox="0 0 16 16" fill="none" xmlns="http://www.w3.org/2000/svg"><rect x="9.5" y="9.5" width="6" height="6" rx="1.5" fill="#25324D" stroke="#548AF7"/><path fill-rule="evenodd" clip-rule="evenodd" d="M11.766 2.417C10.986 2.006 10.2 2 9.6 2H6.696l-.91.364A.5.5 0 0 1 5.6 2.4H4.4a.5.5 0 0 1-.224-.053L3.482 2H2.1v2.2h1.382l.694-.347A.5.5 0 0 1 4.4 3.8h1.2a.5.5 0 0 1 .312.11l.738.59h2.116l1.334-1a.5.5 0 0 1 .3-.1h.021c.589 0 1.15 0 1.819.195.337.098.694.244 1.095.454-.483-.87-1.042-1.354-1.569-1.632zM5.424 4.8l.676.54v1.557l-.155.363A5.5 5.5 0 0 0 5.5 9.426V14.5a.5.5 0 0 0 .5.5h2.17c-.11-.313-.17-.65-.17-1H6.5V9.426a4.5 4.5 0 0 1 .364-1.772l.196-.457A.5.5 0 0 0 7.1 7V5.6h1.2V7a.5.5 0 0 0 .04.197l.196.457c.17.395.28.81.332 1.236.26-.262.566-.477.907-.63a5.5 5.5 0 0 0-.32-1L9.3 6.897V5.35l1.266-.95c.52.002.92.017 1.394.155.526.154 1.175.47 2.153 1.155a.5.5 0 0 0 .763-.56c-.63-1.999-1.603-3.069-2.643-3.617C11.223 1 10.219 1 9.618 1H6.6a.5.5 0 0 0-.186.036l-.91.364h-.986l-.695-.347A.5.5 0 0 0 3.6 1h-2a.5.5 0 0 0-.5.5v3.2a.5.5 0 0 0 .5.5h2a.5.5 0 0 0 .223-.053l.695-.347h.906z" fill="#CED0D6"/></svg>