<svg width="20" height="20" viewBox="0 0 20 20" fill="none" xmlns="http://www.w3.org/2000/svg"><path d="M5.875 16.814c.293-2.355 2.597-5.158 6.125-5.158 3.395 0 5.858 2.686 6.157 5.158.033.274-.193.498-.47.498H6.345c-.276 0-.503-.224-.469-.498zM8.5 12.5l-1-2M15.5 12.5l1-2M5.5 5h3" stroke="#6C707E" stroke-width="1.5" stroke-linecap="round"/><path fill-rule="evenodd" clip-rule="evenodd" d="M3.473 1.499a2.41 2.41 0 0 0-2.41 2.41v11.744a2.41 2.41 0 0 0 2.406 2.41v-1.5a.91.91 0 0 1-.906-.91V3.909a.91.91 0 0 1 .91-.91h6.867a.91.91 0 0 1 .91.91V9.5h1.5V3.909a2.41 2.41 0 0 0-2.41-2.41H3.473z" fill="#6C707E"/></svg>