<svg width="20" height="20" viewBox="0 0 20 20" fill="none" xmlns="http://www.w3.org/2000/svg"><g clip-path="url(#clip0_3733_1958)"><path d="M7.5 18.25h11" stroke="#CED0D6" stroke-width="1.5" stroke-linecap="round"/><path fill-rule="evenodd" clip-rule="evenodd" d="M8.276 18.25a4.75 4.75 0 0 1 9.448 0h1.506a6.25 6.25 0 0 0-12.46 0h1.506z" fill="#CED0D6"/><path d="M10.5 13.75l-1-2M15.5 13.75l1-2" stroke="#CED0D6" stroke-width="1.5" stroke-linecap="round"/><path fill-rule="evenodd" clip-rule="evenodd" d="M6.75 5a.75.75 0 0 0 0 1.5h1.5a.75.75 0 0 0 0-1.5h-1.5zm4.75 6V4a.5.5 0 0 0-.5-.5H4a.5.5 0 0 0-.5.5v12a.5.5 0 0 0 .5.5h2V18H4a2 2 0 0 1-2-2V4a2 2 0 0 1 2-2h7a2 2 0 0 1 2 2v7h-1.5z" fill="#CED0D6"/></g><defs><clipPath id="clip0_3733_1958"><path fill="#fff" d="M0 0h20v20H0z"/></clipPath></defs></svg>