<svg width="16" height="16" viewBox="0 0 16 16" fill="none" xmlns="http://www.w3.org/2000/svg"><g clip-path="url(#clip0_2_591)"><g clip-path="url(#clip1_2_591)" fill="#6C707E"><path d="M8.723 10.933a.5.5 0 0 1 .866-.5l.66 1.143a.5.5 0 1 1-.866.5l-.66-1.143zM14.219 10.933a.5.5 0 0 0-.866-.5l-.659 1.141a.5.5 0 0 0 .866.5l.659-1.14z"/><path fill-rule="evenodd" clip-rule="evenodd" d="M7.008 14.94a4.5 4.5 0 0 1 8.93 0c.077.613-.432 1.06-.965 1.06h-7c-.533 0-1.042-.447-.965-1.06zm1 .06h6.93a3.5 3.5 0 0 0-6.93 0z"/><path fill-rule="evenodd" clip-rule="evenodd" d="M4 2h5a1 1 0 0 1 1 1v6h1V3a2 2 0 0 0-2-2H4a2 2 0 0 0-2 2v10a2 2 0 0 0 2 2h2v-1H4a1 1 0 0 1-1-1V3a1 1 0 0 1 1-1z"/><rect x="5" y="3" width="3" height="1" rx=".5"/></g></g><defs><clipPath id="clip0_2_591"><path fill="#fff" d="M0 0h16v16H0z"/></clipPath><clipPath id="clip1_2_591"><path fill="#fff" d="M0 0h16v16H0z"/></clipPath></defs></svg>