<svg width="16" height="16" viewBox="0 0 16 16" fill="none" xmlns="http://www.w3.org/2000/svg"><path fill-rule="evenodd" clip-rule="evenodd" d="M14.5 16a.5.5 0 0 0 0-1h-1.793l3.146-3.146a.5.5 0 0 0-.707-.708L12 14.293V12.5a.5.5 0 1 0-1 0v3a.5.5 0 0 0 .5.5h3z" fill="#548AF7"/><path fill-rule="evenodd" clip-rule="evenodd" d="M13.973 2.108c.653.22 1.136.734 1.368 1.213.067.128.114.264.144.403a4.305 4.305 0 0 1 .115 1.63c-.142 1.195-.804 2.703-2.736 4.148a2.287 2.287 0 0 0-.482.498h-1.16c.248-.505.587-.958 1.043-1.298 1.2-.899 1.81-1.784 2.107-2.542-.386.252-.86.41-1.409.41-.65 0-1.27-.267-1.847-.557-.182-.091-.36-.185-.54-.28-.42-.22-.841-.442-1.317-.635-1.291-.525-2.879-.79-5.114.312a.449.449 0 0 0-.21.546l.117.36.002.008.578 1.902c.039.106.136.197.322.238.197.043.42.01.571-.076l.007-.004a8.837 8.837 0 0 0 1.725-1.21.5.5 0 0 1 .67.743A9.835 9.835 0 0 1 6.01 9.262c-.377.21-.851.272-1.273.178-.431-.095-.876-.372-1.055-.899l-.002-.007-.002-.008-.38-1.246a4.843 4.843 0 0 0-1.482 1.959c-.358.868-.499 1.9-.414 3.108h.617a1.987 1.987 0 0 1 3.7-.001h.66a1.987 1.987 0 0 1 1.85-1.262c.762 0 1.438.428 1.77 1.077v1.183h-.127a.72.72 0 0 1-.69-.539.982.982 0 0 0-.953-.721.987.987 0 0 0-.952.726.72.72 0 0 1-.69.536H5.512a.72.72 0 0 1-.69-.537.987.987 0 0 0-1.904 0 .72.72 0 0 1-.69.538H1.036a.6.6 0 0 1-.597-.539c-.153-1.48-.019-2.805.454-3.95.428-1.04 1.125-1.906 2.091-2.593v-.002c-.214-.663.057-1.424.719-1.75 2.528-1.247 4.417-.957 5.933-.341a16.44 16.44 0 0 1 1.451.7c.168.088.328.172.478.247.569.286 1.004.45 1.398.45a1.54 1.54 0 0 0 1.32-.705c.218-.332.273-.673.226-.915a2.104 2.104 0 0 0-.062-.18l-.005-.012a1.437 1.437 0 0 0-.788-.7c-.325-.11-.775-.097-1.324.383a.5.5 0 1 1-.658-.753c.788-.689 1.604-.813 2.3-.579z" fill="#CED0D6"/><path fill-rule="evenodd" clip-rule="evenodd" d="M9.26 7.32c-.096-.061-.153-.172-.116-.28a.798.798 0 1 1 1.306.84c-.082.078-.207.072-.302.011l-.889-.57z" fill="#CED0D6"/></svg>