<svg width="16" height="16" viewBox="0 0 16 16" fill="none" xmlns="http://www.w3.org/2000/svg"><g clip-path="url(#clip0_2_595)"><g clip-path="url(#clip1_2_595)"><path fill-rule="evenodd" clip-rule="evenodd" d="M13.973 2.108c.653.22 1.136.734 1.368 1.213.067.128.114.264.144.403a4.303 4.303 0 0 1 .115 1.63c-.093.783-.41 1.7-1.16 2.646h-1.348c.671-.652 1.061-1.28 1.28-1.84-.386.252-.86.41-1.409.41-.65 0-1.27-.267-1.847-.557-.182-.091-.36-.185-.54-.28-.42-.22-.841-.442-1.317-.635-1.291-.525-2.879-.79-5.114.312a.449.449 0 0 0-.21.546l.117.36.002.008.578 1.902c.039.106.136.197.322.238.197.043.42.01.571-.076l.007-.004a8.836 8.836 0 0 0 1.725-1.21.5.5 0 0 1 .67.743A9.834 9.834 0 0 1 6.01 9.262c-.377.21-.851.272-1.273.178-.431-.095-.876-.372-1.055-.899l-.002-.007-.002-.008-.38-1.246a4.843 4.843 0 0 0-1.482 1.959c-.358.868-.499 1.9-.414 3.108h.617a1.987 1.987 0 0 1 3.7-.001h.66A1.988 1.988 0 0 1 8 11.096v1.014a.988.988 0 0 0-.722.7.72.72 0 0 1-.69.536H5.512a.72.72 0 0 1-.69-.537.987.987 0 0 0-1.904 0 .72.72 0 0 1-.69.538H1.036a.6.6 0 0 1-.597-.539c-.153-1.48-.019-2.805.454-3.95.428-1.04 1.125-1.906 2.091-2.593v-.002c-.214-.663.057-1.424.719-1.75 2.528-1.247 4.417-.957 5.933-.341.523.212 1.016.471 1.451.7.168.088.328.172.478.247.569.286 1.004.45 1.398.45a1.54 1.54 0 0 0 1.32-.705c.218-.332.273-.673.226-.915a2.193 2.193 0 0 0-.062-.18l-.005-.012a1.437 1.437 0 0 0-.788-.7c-.325-.11-.775-.097-1.324.383a.5.5 0 1 1-.658-.753c.788-.689 1.604-.813 2.3-.579z" fill="#6C707E"/><path fill-rule="evenodd" clip-rule="evenodd" d="M9.26 7.32c-.096-.061-.153-.173-.116-.28a.798.798 0 1 1 1.306.84c-.082.078-.207.072-.302.01l-.889-.57z" fill="#6C707E"/><path d="M14.854 10.354a.5.5 0 0 0-.708-.708l.708.707zm-.708-.708l-4.5 4.5.708.707 4.5-4.5-.708-.707z" fill="#3574F0"/><path d="M13 14.5h-3v-3" stroke="#3574F0" stroke-linecap="round" stroke-linejoin="round"/></g></g><defs><clipPath id="clip0_2_595"><path fill="#fff" d="M0 0h16v16H0z"/></clipPath><clipPath id="clip1_2_595"><path fill="#fff" transform="translate(0 1)" d="M0 0h16v16H0z"/></clipPath></defs></svg>