<svg width="16" height="16" viewBox="0 0 16 16" fill="none" xmlns="http://www.w3.org/2000/svg"><g clip-path="url(#clip0_2_608)"><path clip-rule="evenodd" d="M7.691 1a.31.31 0 0 0-.276.171L3.362 9.279a.5.5 0 0 0 .447.723h2.693a.5.5 0 0 1 .5.5L7 14.692c0 .17.138.309.31.309v0a.309.309 0 0 0 .275-.17l4.053-8.106A.5.5 0 0 0 11.191 6H8.508a.5.5 0 0 1-.5-.5L8.001 1.31A.31.31 0 0 0 7.69 1v0z" stroke="#CED0D6"/></g><defs><clipPath id="clip0_2_608"><path fill="#fff" d="M0 0h16v16H0z"/></clipPath></defs></svg>