<svg width="16" height="16" viewBox="0 0 16 16" fill="none" xmlns="http://www.w3.org/2000/svg"><g clip-path="url(#clip0_2_593)" fill-rule="evenodd" clip-rule="evenodd" fill="#6C707E"><path d="M8 3.5A6.5 6.5 0 0 0 1.5 10c0 .89.27 2.087.64 3h11.72c.37-.913.64-2.11.64-3A6.5 6.5 0 0 0 8 3.5zM.5 10a7.5 7.5 0 1 1 15 0c0 1.16-.377 2.68-.866 3.73a.475.475 0 0 1-.435.27H1.8a.475.475 0 0 1-.435-.27C.877 12.68.5 11.16.5 10z"/><path d="M11.854 6.854a.5.5 0 0 0-.708-.708l-2.13 2.13a2 2 0 1 0 .707.707l2.13-2.13zM9 10a1 1 0 1 1-2 0 1 1 0 0 1 2 0z"/></g><defs><clipPath id="clip0_2_593"><path fill="#fff" d="M0 0h16v16H0z"/></clipPath></defs></svg>