<svg width="16" height="16" viewBox="0 0 16 16" fill="none" xmlns="http://www.w3.org/2000/svg"><path fill-rule="evenodd" clip-rule="evenodd" d="M3.574 10.812a4.5 4.5 0 0 1 .498-3.007L1.453 6.34A7.5 7.5 0 0 0 1.126 13h3.52a4.5 4.5 0 0 1-1.072-2.188z" fill="#89C398"/><path fill-rule="evenodd" clip-rule="evenodd" d="M8 3.5A6.5 6.5 0 0 0 1.5 10c0 .89.27 2.087.64 3h11.72c.37-.913.64-2.11.64-3A6.5 6.5 0 0 0 8 3.5zM.5 10a7.5 7.5 0 1 1 15 0c0 1.16-.377 2.68-.866 3.73a.475.475 0 0 1-.435.27H1.8a.475.475 0 0 1-.435-.27C.877 12.68.5 11.16.5 10z" fill="#6C707E"/><path fill-rule="evenodd" clip-rule="evenodd" d="M3.748 7.066a.5.5 0 1 0-.496.868l2.802 1.601a2 2 0 1 0 .469-.884L3.748 7.067zM9 10a1 1 0 1 1-2 0 1 1 0 0 1 2 0z" fill="#6C707E"/></svg>