<svg width="16" height="16" viewBox="0 0 16 16" fill="none" xmlns="http://www.w3.org/2000/svg"><path fill-rule="evenodd" clip-rule="evenodd" d="M5.543 6.23a4.5 4.5 0 0 1 2.473-.73l.01-3a7.5 7.5 0 0 0-6.9 10.5h3.52a4.5 4.5 0 0 1 .897-6.77z" fill="#FED277"/><path fill-rule="evenodd" clip-rule="evenodd" d="M3.634 11.089a4.5 4.5 0 0 1 .194-2.775L1.046 7.19a7.5 7.5 0 0 0 .08 5.81h3.52a4.5 4.5 0 0 1-1.012-1.911z" fill="#88ADF7"/><path fill-rule="evenodd" clip-rule="evenodd" d="M8 3.5A6.5 6.5 0 0 0 1.5 10c0 .89.27 2.087.64 3h11.72c.37-.913.64-2.11.64-3A6.5 6.5 0 0 0 8 3.5zM.5 10a7.5 7.5 0 1 1 15 0c0 1.16-.377 2.68-.866 3.73a.475.475 0 0 1-.435.27H1.8a.475.475 0 0 1-.435-.27C.877 12.68.5 11.16.5 10z" fill="#6C707E"/><path fill-rule="evenodd" clip-rule="evenodd" d="M8.5 5a.5.5 0 0 0-1 0v3.063a2 2 0 1 0 1 0V5zm.5 5a1 1 0 1 1-2 0 1 1 0 0 1 2 0z" fill="#6C707E"/></svg>