<svg width="16" height="16" viewBox="0 0 16 16" fill="none" xmlns="http://www.w3.org/2000/svg"><g clip-path="url(#clip0_2_594)" fill-rule="evenodd" clip-rule="evenodd" fill="#CED0D6"><path d="M12.157 7.202a.6.6 0 1 0-.752-.935l-2.477 1.99a1.8 1.8 0 1 0 .764.926l2.465-1.98zM8.8 9.8a.8.8 0 1 1-1.6 0 .8.8 0 0 1 1.6 0z"/><path d="M8 3.5A6.5 6.5 0 0 0 1.5 10c0 .89.27 2.087.64 3h11.72c.37-.913.64-2.11.64-3A6.5 6.5 0 0 0 8 3.5zM.5 10a7.5 7.5 0 0 1 15 0c0 1.16-.377 2.68-.866 3.73a.476.476 0 0 1-.435.27H1.8a.476.476 0 0 1-.435-.27C.877 12.68.5 11.16.5 10z"/></g><defs><clipPath id="clip0_2_594"><path fill="#fff" d="M0 0h16v16H0z"/></clipPath></defs></svg>