<svg width="16" height="16" viewBox="0 0 16 16" fill="none" xmlns="http://www.w3.org/2000/svg"><g clip-path="url(#clip0_2_588)"><path d="M14.146 10.417L9.53 7.612c-.17-.103-.455-.185-.724-.011-.25.162-.306.432-.306.61v5.58c0 .185.063.448.306.607.262.17.545.1.723-.007l4.617-2.792c.169-.102.356-.302.354-.596a.698.698 0 0 0-.354-.586z" fill="#F2FCF7" stroke="#3DDC84"/><path fill-rule="evenodd" clip-rule="evenodd" d="M14 2.5a.5.5 0 0 1-.5.5h-11a.5.5 0 1 1 0-1h11a.5.5 0 0 1 .5.5zm0 3a.5.5 0 0 1-.5.5h-11a.5.5 0 0 1 0-1h11a.5.5 0 0 1 .5.5zm-8 3a.5.5 0 0 1-.5.5h-3a.5.5 0 0 1 0-1h3a.5.5 0 0 1 .5.5zm0 3a.5.5 0 0 1-.5.5h-3a.5.5 0 0 1 0-1h3a.5.5 0 0 1 .5.5z" fill="#6C707E"/></g><defs><clipPath id="clip0_2_588"><path fill="#fff" d="M0 0h16v16H0z"/></clipPath></defs></svg>