<svg width="20" height="20" viewBox="0 0 20 20" fill="none" xmlns="http://www.w3.org/2000/svg"><path d="M2 5l7 3 7-3" stroke="#6C707E" stroke-width="1.5"/><path fill-rule="evenodd" clip-rule="evenodd" d="M8.49 2.049a1.25 1.25 0 0 1 1.02 0l5 2.232c.45.201.74.648.74 1.141V7.5h1.5V5.422a2.75 2.75 0 0 0-1.629-2.51l-5-2.233a2.75 2.75 0 0 0-2.242 0l-5 2.232A2.75 2.75 0 0 0 1.25 5.422v6.156a2.75 2.75 0 0 0 1.629 2.51l5 2.233a2.75 2.75 0 0 0 2.242 0l.879-.393v-1.642l-1.49.665a1.25 1.25 0 0 1-1.02 0l-5-2.232a1.25 1.25 0 0 1-.74-1.141V5.422c0-.493.29-.94.74-1.141l5-2.232z" fill="#6C707E"/><path d="M9 8v8" stroke="#6C707E" stroke-width="1.5"/><path d="M16 10v6.5M13 15l3 3 3-3" stroke="#6C707E" stroke-width="1.5" stroke-linecap="round"/></svg>