<svg width="16" height="16" viewBox="0 0 16 16" fill="none" xmlns="http://www.w3.org/2000/svg"><path fill-rule="evenodd" clip-rule="evenodd" d="M12 14V8.5a.5.5 0 1 1 1 0V14h-1z" fill="#548AF7"/><path fill-rule="evenodd" clip-rule="evenodd" d="M10 12.707a.5.5 0 0 1 .707-.707l1.793 1.793L14.293 12a.5.5 0 1 1 .707.707l-2.5 2.5-2.5-2.5z" fill="#548AF7"/><path fill-rule="evenodd" clip-rule="evenodd" d="M6.195 1.262a2 2 0 0 1 1.61 0l4 1.76A2 2 0 0 1 13 4.852V7h-1V4.853a1 1 0 0 0-.597-.916l-4-1.76a1 1 0 0 0-.806 0l-4 1.76A1 1 0 0 0 2 4.853v5.295a1 1 0 0 0 .597.915l4 1.76a1 1 0 0 0 .806 0l.74-.326.759.759-1.097.482a2 2 0 0 1-1.61 0l-4-1.76A2 2 0 0 1 1 10.148V4.853a2 2 0 0 1 1.195-1.831l4-1.76z" fill="#CED0D6"/><path d="M1.5 4L7 6.5 12.5 4M7 6.5v7" stroke="#CED0D6"/></svg>