<svg width="20" height="20" viewBox="0 0 20 20" fill="none" xmlns="http://www.w3.org/2000/svg"><g clip-path="url(#clip0_4176_927)"><circle cx="10" cy="7.5" r="3.25" fill="#EDF3FF" stroke="#3574F0" stroke-width="1.5"/><path fill-rule="evenodd" clip-rule="evenodd" d="M6.869 19.5h6.262a10 10 0 0 0 3.982-2.471C16.141 15.375 14.128 13.5 10 13.5s-6.14 1.875-7.113 3.529c1.1 1.113 2.46 1.97 3.982 2.471z" fill="#EDF3FF"/><path fill-rule="evenodd" clip-rule="evenodd" d="M14.845 18.75A9.954 9.954 0 0 1 10 20a9.954 9.954 0 0 1-4.845-1.25h9.69zm1.706-1.194c.39-.34.755-.709 1.09-1.104a7.436 7.436 0 0 0-1.473-1.707c-1.34-1.143-3.311-1.995-6.168-1.995s-4.828.852-6.168 1.995a7.438 7.438 0 0 0-1.472 1.707c.334.395.698.765 1.09 1.104a5.994 5.994 0 0 1 1.355-1.67c1.043-.888 2.66-1.636 5.195-1.636 2.536 0 4.152.748 5.195 1.636a5.993 5.993 0 0 1 1.356 1.67z" fill="#3574F0"/><circle cx="10" cy="10" r="9.25" stroke="#3574F0" stroke-width="1.5"/></g><defs><clipPath id="clip0_4176_927"><path fill="#fff" d="M0 0h20v20H0z"/></clipPath></defs></svg>