<svg width="16" height="16" viewBox="0 0 16 16" fill="none" xmlns="http://www.w3.org/2000/svg"><path fill-rule="evenodd" clip-rule="evenodd" d="M13.567 13.746A7.974 7.974 0 0 1 8 16a7.973 7.973 0 0 1-5.567-2.255C3.04 12.043 4.498 10 8 10c3.502 0 4.96 2.044 5.567 3.746zM10.999 6a3 3 0 1 1-6 0 3 3 0 0 1 6 0z" fill="#25324D"/><path fill-rule="evenodd" clip-rule="evenodd" d="M3.33 14.214c.187-.568.479-1.175.926-1.703C4.94 11.704 6.058 11 8 11c1.941 0 3.06.704 3.744 1.511.447.528.738 1.135.926 1.703.277-.247.533-.516.767-.805C12.76 11.787 11.274 10 8 10c-3.274 0-4.761 1.786-5.437 3.409.234.288.49.557.766.805zM11 6a3 3 0 1 1-6 0 3 3 0 0 1 6 0zm-1 0a2 2 0 1 1-4 0 2 2 0 0 1 4 0z" fill="#548AF7"/><circle cx="8" cy="8" r="7.5" stroke="#548AF7"/></svg>