<svg width="16" height="16" viewBox="0 0 16 16" fill="none" xmlns="http://www.w3.org/2000/svg"><path fill-rule="evenodd" clip-rule="evenodd" d="M3.33 14.214c.187-.568.479-1.175.926-1.703C4.94 11.704 6.058 11 8 11c1.941 0 3.06.704 3.744 1.511.447.528.738 1.135.926 1.703.277-.247.533-.516.767-.805C12.76 11.787 11.274 10 8 10c-3.274 0-4.761 1.786-5.437 3.409.234.288.49.557.766.805zM11 6a3 3 0 1 1-6 0 3 3 0 0 1 6 0zm-1 0a2 2 0 1 1-4 0 2 2 0 0 1 4 0z" fill="#CED0D6"/><circle cx="8" cy="8" r="7.5" stroke="#CED0D6"/></svg>