<svg xmlns="http://www.w3.org/2000/svg" width="20" height="20" fill="none"><g clip-path="url(#a)"><circle cx="10" cy="7.5" r="3.25" stroke="#6C707E" stroke-width="1.5"/><path fill="#6C707E" fill-rule="evenodd" d="M14.845 18.75A9.954 9.954 0 0 1 10 20a9.954 9.954 0 0 1-4.845-1.25h9.69Zm1.706-1.194c.39-.34.755-.709 1.09-1.104a7.436 7.436 0 0 0-1.473-1.707c-1.34-1.143-3.311-1.995-6.168-1.995s-4.828.852-6.168 1.995a7.438 7.438 0 0 0-1.472 1.707c.334.395.698.765 1.09 1.104a5.994 5.994 0 0 1 1.355-1.67c1.043-.888 2.66-1.636 5.195-1.636 2.536 0 4.152.748 5.195 1.636a5.993 5.993 0 0 1 1.356 1.67Z" clip-rule="evenodd"/><circle cx="10" cy="10" r="9.25" stroke="#6C707E" stroke-width="1.5"/></g><defs><clipPath id="a"><path fill="#fff" d="M0 0h20v20H0z"/></clipPath></defs></svg>