<svg width="20" height="20" viewBox="0 0 20 20" fill="none" xmlns="http://www.w3.org/2000/svg"><g clip-path="url(#clip0_3732_1907)"><circle cx="10" cy="7.5" r="3.25" stroke="#CED0D6" stroke-width="1.5"/><path fill-rule="evenodd" clip-rule="evenodd" d="M14.845 18.75A9.954 9.954 0 0 1 10 20a9.954 9.954 0 0 1-4.845-1.25h9.69zm1.706-1.194a5.992 5.992 0 0 0-1.356-1.67c-1.043-.888-2.659-1.636-5.195-1.636-2.536 0-4.152.748-5.195 1.636a5.994 5.994 0 0 0-1.356 1.67c-.39-.34-.755-.709-1.09-1.104a7.438 7.438 0 0 1 1.473-1.707C5.172 13.602 7.143 12.75 10 12.75s4.828.852 6.168 1.995a7.436 7.436 0 0 1 1.472 1.707c-.334.395-.698.765-1.09 1.104z" fill="#CED0D6"/><circle cx="10" cy="10" r="9.25" stroke="#CED0D6" stroke-width="1.5"/></g><defs><clipPath id="clip0_3732_1907"><path fill="#fff" d="M0 0h20v20H0z"/></clipPath></defs></svg>