<svg width="16" height="16" viewBox="0 0 16 16" xmlns="http://www.w3.org/2000/svg"><rect id="frame" width="16" height="16" fill="none"/><g fill="none" fill-rule="evenodd"><path d="M12.662 11.043a5.046 5.046 0 0 0-1.327 0l-1.103-1.909-2.598 1.5.976 1.69a4.994 4.994 0 0 0-1.498 2.62A7.001 7.001 0 0 1 8 1a7 7 0 0 1 6.786 8.724l-1.022-.59-1.102 1.91zm1.013.245l.455-.788.333.193c-.11.262-.234.517-.374.763a4.967 4.967 0 0 0-.414-.168zm-3.354 0a4.978 4.978 0 0 0-.906.431L9 11l.866-.5.455.789z" fill-opacity=".6" fill="#3DDC84"/><path d="M7 12h1V8h1.5V7H8l-.005-1c-.008-.497.138-.927.437-1.028.488-.164 1.137.05 1.258.092l.295-.838C9.91 4.199 9.455 4 8.811 4c-.644 0-.994.061-1.33.389-.316.31-.465.831-.48 1.611L7 7c0 .018-.333.018-1 0v.972h1V12z" fill-opacity=".7" fill="#231F20"/><g fill="#AFB1B3"><path d="M9 11l.866-.5 1.5 2.598-.866.5zM14.996 11l-.866-.5-1.5 2.598.866.5z"/><path d="M8 16a4 4 0 0 1 8 0H8z"/></g></g></svg>