<svg width="16" height="16" viewBox="0 0 16 16" xmlns="http://www.w3.org/2000/svg"><rect width="16" height="16" fill="none"/><path d="M7.385 12.669a6.848 6.848 0 0 1-1.3-.156c-.373-.087-.663-.186-.871-.299l.507-1.469c.156.095.375.186.657.273.281.087.617.147 1.007.182V8.535a10.621 10.621 0 0 1-.8-.403 3.197 3.197 0 0 1-.708-.533 2.382 2.382 0 0 1-.5-.748c-.126-.29-.189-.634-.189-1.033 0-.745.197-1.324.591-1.736.395-.411.93-.678 1.606-.799V2.1h1.352v1.131a5.17 5.17 0 0 1 1.794.429l-.468 1.443a4.43 4.43 0 0 0-1.326-.364V7.17c.269.121.54.258.813.41.273.151.515.331.727.539.213.208.386.453.52.735.135.281.202.617.202 1.007 0 .797-.201 1.42-.604 1.865-.404.447-.956.735-1.658.865V13.8H7.385v-1.131zm1.898-2.613a.85.85 0 0 0-.319-.682 3.649 3.649 0 0 0-.786-.488V11.2c.381-.043.66-.165.838-.364.178-.2.267-.46.267-.78zM6.904 5.675c0 .26.097.477.293.65.195.173.444.334.747.481V4.7c-.407.017-.682.117-.825.299a1.06 1.06 0 0 0-.215.676z" fill="#9AA7B0" fill-rule="evenodd"/></svg>