<svg width="16" height="16" viewBox="0 0 16 16" fill="none" xmlns="http://www.w3.org/2000/svg"><g clip-path="url(#clip0_626_1791)"><path fill-rule="evenodd" clip-rule="evenodd" d="M11.38 4.433a.5.5 0 11.866.5l-1.122 1.943a5.999 5.999 0 012.855 4.624.47.47 0 01-.479.5.541.541 0 01-.525-.5 5 5 0 00-9.95 0 .541.541 0 01-.525.5.47.47 0 01-.48-.5 5.999 5.999 0 012.853-4.622L3.75 4.933a.5.5 0 01.866-.5l1.152 1.996A5.984 5.984 0 018 6c.787 0 1.54.152 2.229.427l1.151-1.994z" fill="#3DDC84"/><path d="M2.5 11.5h11" stroke="#3DDC84"/><rect x="5" y="9" width="1" height="1" rx=".5" fill="#3DDC84"/><rect x="10" y="9" width="1" height="1" rx=".5" fill="#3DDC84"/></g><defs><clipPath id="clip0_626_1791"><path fill="#fff" d="M0 0h16v16H0z"/></clipPath></defs></svg>