<!--
  - Copyright (C) 2025 The Android Open Source Project
  -
  - Licensed under the Apache License, Version 2.0 (the "License");
  - you may not use this file except in compliance with the License.
  - You may obtain a copy of the License at
  -
  -      http://www.apache.org/licenses/LICENSE-2.0
  -
  - Unless required by applicable law or agreed to in writing, software
  - distributed under the License is distributed on an "AS IS" BASIS,
  - WITHOUT WARRANTIES OR CONDITIONS OF ANY KIND, either express or implied.
  - See the License for the specific language governing permissions and
  - limitations under the License.
  -->
<svg width="16" height="16" viewBox="0 0 16 16" fill="none" xmlns="http://www.w3.org/2000/svg"><g clip-path="url(#clip0_626_1796)"><g clip-path="url(#clip1_626_1796)"><path fill-rule="evenodd" clip-rule="evenodd" d="M1 3.867C1 2.836 1.784 2 2.75 2h3.288a1 1 0 01.698.283L8.5 4H13a2 2 0 012 2v3.268A1.998 1.998 0 0014 9V8a2 2 0 00-3.6-1.2l-3 4A2 2 0 008.977 14H2.75C1.784 14 1 13.164 1 12.133V3.867z" fill="#43454A"/><path fill-rule="evenodd" clip-rule="evenodd" d="M7.803 4.717l.29.283H13a1 1 0 011 1v3c.358 0 .701.096 1 .268V6a2 2 0 00-2-2H8.5L6.736 2.283A1 1 0 006.038 2H2.75C1.784 2 1 2.836 1 3.867v8.266C1 13.164 1.784 14 2.75 14h6.227a2 2 0 01-1.71-1H2.75c-.354 0-.75-.326-.75-.867V3.867c0-.54.396-.867.75-.867h3.288l1.765 1.717z" fill="#CED0D6"/><path d="M8.6 11.7a.5.5 0 00.4.8h1.5V15a.5.5 0 00.9.3l3-4a.5.5 0 00-.4-.8h-1.5V8a.5.5 0 00-.9-.3l-3 4z" fill="#3D3223" stroke="#F2C55C" stroke-linejoin="round"/></g></g><defs><clipPath id="clip0_626_1796"><path fill="#fff" d="M0 0h16v16H0z"/></clipPath><clipPath id="clip1_626_1796"><path fill="#fff" d="M0 0h16v16H0z"/></clipPath></defs></svg>