<!--
  - Copyright (C) 2025 The Android Open Source Project
  -
  - Licensed under the Apache License, Version 2.0 (the "License");
  - you may not use this file except in compliance with the License.
  - You may obtain a copy of the License at
  -
  -      http://www.apache.org/licenses/LICENSE-2.0
  -
  - Unless required by applicable law or agreed to in writing, software
  - distributed under the License is distributed on an "AS IS" BASIS,
  - WITHOUT WARRANTIES OR CONDITIONS OF ANY KIND, either express or implied.
  - See the License for the specific language governing permissions and
  - limitations under the License.
  -->
<svg width="16" height="16" viewBox="0 0 16 16" fill="none" xmlns="http://www.w3.org/2000/svg"><g clip-path="url(#clip0_626_1789)"><path d="M13.5 5.5v8a1 1 0 01-1 1h-4a1 1 0 01-1-1v-8a1 1 0 011-1h4a1 1 0 011 1z" stroke="#6C707E" stroke-linecap="round"/><path fill-rule="evenodd" clip-rule="evenodd" d="M4.5 1A2.5 2.5 0 002 3.5v9A2.5 2.5 0 004.5 15H6v-1H4.5A1.5 1.5 0 013 12.5v-9A1.5 1.5 0 014.5 2h6a1.5 1.5 0 011.415 1h1.035a2.5 2.5 0 00-2.45-2h-6z" fill="#6C707E"/><circle cx="10.5" cy="6.5" r=".5" fill="#6C707E"/></g><defs><clipPath id="clip0_626_1789"><path fill="#fff" d="M0 0h16v16H0z"/></clipPath></defs></svg>