<svg xmlns="http://www.w3.org/2000/svg" width="13" height="13" viewBox="0 0 13 13">
  <g fill="none" fill-rule="evenodd">
    <path fill="#AFB1B3" d="M10.6864614,12 L2,12 L2,1 L3,1 L10,1 L11,1 L11,4.71591676 C10.3577981,3.40367265 9.00943099,2.5 7.44999981,2.5 C5.26847515,2.5 3.5,4.26847515 3.5,6.44999981 C3.5,8.63152447 5.26847515,10.3999996 7.44999981,10.3999996 C7.93781573,10.3999996 8.40497814,10.3115714 8.83633179,10.1498704 L10.6864614,12 Z"/>
    <rect width="1.385" height="3.6" x="10.162" y="8.029" fill="#AFB1B3" transform="rotate(-45 10.854 9.83)"/>
    <path fill="#AFB1B3" d="M7.46153846,9.57692308 C5.74095905,9.57692308 4.34615385,8.18211787 4.34615385,6.46153846 C4.34615385,4.74095905 5.74095905,3.34615385 7.46153846,3.34615385 C9.18211787,3.34615385 10.5769231,4.74095905 10.5769231,6.46153846 C10.5769231,8.18211787 9.18211787,9.57692308 7.46153846,9.57692308 Z M7.46153846,8.33076923 C8.49388611,8.33076923 9.33076923,7.49388611 9.33076923,6.46153846 C9.33076923,5.42919081 8.49388611,4.59230769 7.46153846,4.59230769 C6.42919081,4.59230769 5.59230769,5.42919081 5.59230769,6.46153846 C5.59230769,7.49388611 6.42919081,8.33076923 7.46153846,8.33076923 Z"/>
  </g>
</svg>
