<svg width="16" height="16" viewBox="0 0 16 16" xmlns="http://www.w3.org/2000/svg"><rect width="16" height="16" fill="none"/><g fill="none" fill-rule="evenodd"><path d="M12 8h-1V2H5v11h4v1H5.282c-.446 0-.607-.046-.77-.134a.909.909 0 0 1-.378-.378c-.088-.163-.134-.324-.134-.77V2.282c0-.446.046-.607.134-.77a.909.909 0 0 1 .378-.378c.163-.088.324-.134.77-.134h5.436c.446 0 .607.046.77.134.163.087.291.215.378.378.088.163.134.324.134.77V8z" fill="#6E6E6E"/><g fill="#59A869"><path d="M12 9h2v6h-2z"/><path d="M10 11h6v2h-6z"/></g><path d="M12 8h-1V2H5v11h4v1H5.282c-.446 0-.607-.046-.77-.134a.909.909 0 0 1-.378-.378c-.088-.163-.134-.324-.134-.77V2.282c0-.446.046-.607.134-.77a.909.909 0 0 1 .378-.378c.163-.088.324-.134.77-.134h5.436c.446 0 .607.046.77.134.163.087.291.215.378.378.088.163.134.324.134.77V8z" fill="#6E6E6E"/><g fill="#59A869"><path d="M12 9h2v6h-2z"/><path d="M10 11h6v2h-6z"/></g></g></svg>