<!--
  - Copyright (C) 2025 The Android Open Source Project
  -
  - Licensed under the Apache License, Version 2.0 (the "License");
  - you may not use this file except in compliance with the License.
  - You may obtain a copy of the License at
  -
  -      http://www.apache.org/licenses/LICENSE-2.0
  -
  - Unless required by applicable law or agreed to in writing, software
  - distributed under the License is distributed on an "AS IS" BASIS,
  - WITHOUT WARRANTIES OR CONDITIONS OF ANY KIND, either express or implied.
  - See the License for the specific language governing permissions and
  - limitations under the License.
  -->
<svg width="16" height="16" viewBox="0 0 16 16" fill="none" xmlns="http://www.w3.org/2000/svg"><path fill-rule="evenodd" clip-rule="evenodd" d="M4.109 1.546C4 1.76 4 2.04 4 2.6v9.8c0 .56 0 .84.109 1.054a1 1 0 00.437.437C4.76 14 5.04 14 5.6 14H9v-1H5V2h6v6h1V2.6c0-.56 0-.84-.109-1.054a1 1 0 00-.437-.437C11.24 1 10.96 1 10.4 1H5.6c-.56 0-.84 0-1.054.109a1 1 0 00-.437.437z" fill="#CED0D6"/><path fill="#57965C" d="M12 9h2v6h-2z"/><path fill="#57965C" d="M10 11h6v2h-6z"/></svg>