<svg width="16" height="16" viewBox="0 0 16 16" fill="none" xmlns="http://www.w3.org/2000/svg"><path fill-rule="evenodd" clip-rule="evenodd" d="M3 1h6c.5 0 1 .5 1 1v4H9V3H3v8h3v2H3c-.5 0-1-.5-1-1V2c0-.5.5-1 1-1z" fill="#AFB1B3"/><path fill-rule="evenodd" clip-rule="evenodd" d="M15.646 12.015v3.572l-1.259-1.26a4.047 4.047 0 0 1-6.908-2.34l1.362.12a2.734 2.734 0 0 0 4.616 1.291l-1.383-1.383h3.572zm-3.938-4.559a4.047 4.047 0 0 1 3.795 3.473l-1.353-.117a2.734 2.734 0 0 0-4.67-1.16l1.433 1.434H7.341V7.515L8.55 8.724a4.037 4.037 0 0 1 3.158-1.268z" fill="#3592C4"/></svg>