<svg width="73" height="94" viewBox="0 0 73 94" fill="none" xmlns="http://www.w3.org/2000/svg"><rect x="10.5" y="8.5" width="52" height="77" rx="3.5" fill="#fff" stroke="#3B3F41"/><path d="M10.5 12A3.5 3.5 0 0 1 14 8.5h45a3.5 3.5 0 0 1 3.5 3.5v15.5h-52V12z" fill="#808385" stroke="#3F4244"/><path d="M22.567 54.389H19.74L19.204 56h-1.713l2.911-7.82h1.493L24.823 56h-1.714l-.542-1.611zm-2.39-1.306h1.955l-.983-2.927-.973 2.928zm7.776 1.773c.286 0 .519-.079.698-.236a.828.828 0 0 0 .28-.629h1.455a2.005 2.005 0 0 1-.323 1.085 2.15 2.15 0 0 1-.87.763 2.72 2.72 0 0 1-1.214.268c-.83 0-1.486-.263-1.965-.79-.48-.53-.72-1.26-.72-2.19v-.103c0-.895.238-1.61.714-2.143.476-.533 1.13-.8 1.96-.8.727 0 1.31.208 1.746.623.44.412.665.962.672 1.649H28.93c-.007-.3-.1-.544-.28-.73-.178-.19-.415-.285-.708-.285-.362 0-.636.132-.822.397-.183.262-.274.688-.274 1.279v.16c0 .599.091 1.029.274 1.29.183.261.46.392.832.392zm5.262-6.096v1.428h.993v1.14h-.993v2.9c0 .214.041.368.123.462.083.093.24.14.473.14.172 0 .324-.013.457-.038v1.176c-.305.093-.618.14-.94.14-1.089 0-1.644-.55-1.665-1.65v-3.13h-.849v-1.14h.849V48.76h1.552zM36.796 56H35.24v-5.812h1.557V56zm-1.649-7.315c0-.233.077-.425.231-.575.158-.15.37-.226.64-.226.264 0 .475.075.633.226a.76.76 0 0 1 .236.575c0 .236-.08.43-.241.58-.158.15-.367.225-.629.225-.261 0-.472-.075-.634-.225a.766.766 0 0 1-.236-.58zm5.193 5.419l1.08-3.916h1.621L41.081 56h-1.483l-1.96-5.812h1.622l1.08 3.916zM45.452 56h-1.558v-5.812h1.558V56zm-1.65-7.315c0-.233.078-.425.232-.575.157-.15.37-.226.639-.226.265 0 .476.075.634.226a.76.76 0 0 1 .236.575c0 .236-.08.43-.242.58-.157.15-.367.225-.628.225-.262 0-.473-.075-.634-.225a.766.766 0 0 1-.236-.58zm4.876.075v1.428h.994v1.14h-.994v2.9c0 .214.041.368.124.462.082.093.24.14.473.14.171 0 .324-.013.456-.038v1.176c-.304.093-.618.14-.94.14-1.088 0-1.643-.55-1.665-1.65v-3.13h-.848v-1.14h.848V48.76h1.552zm4.113 5.043l1.075-3.614h1.665l-2.337 6.713-.129.306c-.347.76-.92 1.14-1.719 1.14a2.44 2.44 0 0 1-.687-.103V57.07l.236.005c.294 0 .512-.044.655-.134.147-.09.262-.238.344-.446l.183-.478-2.036-5.828h1.67l1.08 3.615z" fill="#B4B4B4"/></svg>