<svg width="53" height="78" viewBox="0 0 53 78" fill="none" xmlns="http://www.w3.org/2000/svg"><g clip-path="url(#clip0_101_1394)" stroke="#CCC"><rect x=".5" y=".5" width="22" height="35" rx="2.5" fill="#fff"/><rect x=".5" y="42.5" width="22" height="35" rx="2.5" fill="#fff"/><rect x="30.5" y=".5" width="22" height="35" rx="2.5" fill="#fff"/><rect x="30.5" y="42.5" width="22" height="35" rx="2.5" fill="#fff"/><path d="M.5 3A2.5 2.5 0 0 1 3 .5h17A2.5 2.5 0 0 1 22.5 3v5.5H.5V3zM.5 45A2.5 2.5 0 0 1 3 42.5h17a2.5 2.5 0 0 1 2.5 2.5v5.5H.5V45zM30.5 3A2.5 2.5 0 0 1 33 .5h17A2.5 2.5 0 0 1 52.5 3v5.5h-22V3zM30.5 45a2.5 2.5 0 0 1 2.5-2.5h17a2.5 2.5 0 0 1 2.5 2.5v5.5h-22V45z" fill="#D8D8D8"/></g><defs><clipPath id="clip0_101_1394"><path fill="#fff" d="M0 0h53v78H0z"/></clipPath></defs></svg>