<svg width="16" height="16" viewBox="0 0 16 16" fill="none" xmlns="http://www.w3.org/2000/svg"><g clip-path="url(#clip0_3_1566)"><path d="M7.723 9.933a.5.5 0 0 1 .866-.5l.66 1.143a.5.5 0 0 1-.866.5l-.66-1.143zM13.219 9.933a.5.5 0 1 0-.866-.5l-.659 1.141a.5.5 0 0 0 .866.5l.659-1.141z" fill="#3DDC84"/><path fill-rule="evenodd" clip-rule="evenodd" d="M6.008 13.94a4.5 4.5 0 0 1 8.93 0c.077.613-.432 1.06-.965 1.06h-7c-.533 0-1.042-.447-.965-1.06zm1 .06h6.93a3.5 3.5 0 0 0-6.93 0z" fill="#3DDC84"/><path d="M4 2h5a1 1 0 0 1 1 1v6h1V3a2 2 0 0 0-2-2H4a2 2 0 0 0-2 2v10a2 2 0 0 0 2 2h1v-1H4a1 1 0 0 1-1-1V3a1 1 0 0 1 1-1z" fill="#6C707E"/><path d="M5 3.5a.5.5 0 0 1 .5-.5h2a.5.5 0 0 1 0 1h-2a.5.5 0 0 1-.5-.5z" fill="#6C707E"/></g><defs><clipPath id="clip0_3_1566"><path fill="#fff" d="M0 0h16v16H0z"/></clipPath></defs></svg>