<svg width="16" height="16" viewBox="0 0 16 16" fill="none" xmlns="http://www.w3.org/2000/svg"><circle cx="11" cy="11" r="2.5" stroke="#6C707E"/><path d="M13 13l2 2" stroke="#6C707E" stroke-linecap="round"/><path fill-rule="evenodd" clip-rule="evenodd" d="M1.017 3.392H1v9.126h.003c.028.444.274.816.594 1.106.34.307.804.561 1.335.764 1.066.408 2.504.65 4.068.65.963 0 1.878-.093 2.688-.258a3.998 3.998 0 0 1-1.364-.807c-.42.042-.865.064-1.324.064-1.474 0-2.785-.23-3.71-.583-.465-.177-.806-.377-1.022-.572-.217-.196-.268-.348-.268-.448v-1.449c.272.175.588.328.932.46 1.066.407 2.504.648 4.068.648h.151a3.998 3.998 0 0 1-.15-1H7c-1.474 0-2.785-.229-3.71-.583-.465-.177-.806-.376-1.022-.572C2.05 9.742 2 9.59 2 9.49V8.041c.272.175.588.328.932.46 1.066.407 2.504.648 4.068.648.153 0 .306-.002.457-.007.206-.393.476-.747.796-1.05-.4.038-.82.057-1.253.057-1.474 0-2.785-.229-3.71-.583-.465-.177-.806-.376-1.022-.572C2.05 6.8 2 6.646 2 6.547v-1.45c.272.175.588.328.932.46 1.066.407 2.504.648 4.068.648 1.564 0 3.002-.241 4.068-.648.344-.132.66-.285.932-.46v1.45c0 .1-.051.252-.268.447-.022.02-.045.04-.07.06.48.08.932.246 1.338.481V3.392h-.017c-.062-.388-.29-.717-.58-.979-.34-.307-.804-.561-1.335-.764C10.002 1.24 8.564 1 7 1c-1.564 0-3.002.241-4.068.649-.53.203-.995.457-1.335.764-.29.262-.518.591-.58.98zm1.25-.237c-.216.196-.267.348-.267.448 0 .1.051.252.268.447.216.196.557.395 1.021.573.926.353 2.237.582 3.711.582 1.474 0 2.785-.229 3.71-.582.465-.178.806-.377 1.022-.573.217-.195.268-.347.268-.447 0-.1-.051-.252-.268-.448-.216-.195-.557-.395-1.021-.572C9.784 2.229 8.473 2 7 2c-1.474 0-2.785.23-3.71.583-.465.177-.806.377-1.022.572z" fill="#6C707E"/></svg>