<svg width="16" height="16" viewBox="0 0 16 16" fill="none" xmlns="http://www.w3.org/2000/svg"><g clip-path="url(#clip0_1632_906)"><path d="M10.833 8c0 1.97-.364 3.73-.931 4.979-.588 1.293-1.298 1.854-1.902 1.854-.604 0-1.314-.561-1.902-1.854C5.531 11.73 5.167 9.97 5.167 8c0-1.97.364-3.73.931-4.979C6.686 1.728 7.396 1.167 8 1.167c.604 0 1.314.56 1.902 1.854.567 1.249.931 3.009.931 4.979z" stroke="#CED0D6"/><circle cx="8" cy="8" r="6.833" stroke="#CED0D6"/><path fill="#CED0D6" d="M2 5h12v1H2zM2 10h12v1H2z"/></g><defs><clipPath id="clip0_1632_906"><path fill="#fff" d="M0 0h16v16H0z"/></clipPath></defs></svg>