<svg width="16" height="16" viewBox="0 0 16 16" xmlns="http://www.w3.org/2000/svg"><rect width="16" height="16" fill="none"/><g fill="#6E6E6E" fill-rule="evenodd"><path d="M13.108 13.328h-2.89l-.55 1.649H7.916l2.978-8h1.527l2.995 8h-1.753l-.555-1.649zm-2.69-1.087h2.488l-1.25-3.725-1.238 3.725z"/><path d="M11 5H5v8h2v1H5.282c-.446 0-.607-.046-.77-.134a.909.909 0 0 1-.378-.378c-.088-.163-.134-.324-.134-.77V3.282c0-.446.046-.607.134-.77a.909.909 0 0 1 .378-.378c.163-.088.324-.134.77-.134h5.436c.446 0 .607.046.77.134.163.087.291.215.378.378.088.163.134.324.134.77V6h-1V5z"/></g></svg>