<!--
  - Copyright (C) 2025 The Android Open Source Project
  -
  - Licensed under the Apache License, Version 2.0 (the "License");
  - you may not use this file except in compliance with the License.
  - You may obtain a copy of the License at
  -
  -      http://www.apache.org/licenses/LICENSE-2.0
  -
  - Unless required by applicable law or agreed to in writing, software
  - distributed under the License is distributed on an "AS IS" BASIS,
  - WITHOUT WARRANTIES OR CONDITIONS OF ANY KIND, either express or implied.
  - See the License for the specific language governing permissions and
  - limitations under the License.
  -->
<svg width="16" height="16" viewBox="0 0 16 16" fill="none" xmlns="http://www.w3.org/2000/svg"><path fill="#CED0D6" d="M4 3h8v2H4zM10.735 7h1.095l2.66 7h-1.05l-.64-1.78H9.835L9.24 14H8.165l2.57-7zm1.765 4.385L11.39 8.33l-.115-.43-.11.43-1.05 3.055H12.5z"/><path fill-rule="evenodd" clip-rule="evenodd" d="M5 3h6v3h1V3a1 1 0 00-1-1H5a1 1 0 00-1 1v10a1 1 0 001 1h2v-1H5V3z" fill="#CED0D6"/></svg>