<svg width="16" height="16" viewBox="0 0 16 16" xmlns="http://www.w3.org/2000/svg"><rect width="16" height="16" fill="none"/><g fill="#AFB1B3" fill-rule="evenodd"><path d="M7 3H6V2H2v6h2v1H1.99A.998.998 0 0 1 1 8.003V1.997c0-.55.451-.997.99-.997h4.02c.546 0 .99.453.99.997V3z"/><path d="M11 6h-1V5H6v6h2v1H5.99a.998.998 0 0 1-.99-.997V4.997c0-.55.451-.997.99-.997h4.02c.546 0 .99.453.99.997V6z"/><path d="M9 7.997c0-.55.451-.997.99-.997h4.02c.546 0 .99.453.99.997v6.006c0 .55-.451.997-.99.997H9.99a.998.998 0 0 1-.99-.997V7.997zM10 8v6h4V8h-4z"/></g></svg>