<svg width="16" height="16" viewBox="0 0 16 16" xmlns="http://www.w3.org/2000/svg"><rect width="16" height="16" fill="none"/><g fill="#AFB1B3" fill-rule="evenodd"><path d="M5.282 2h5.436c.446 0 .607.046.77.134.163.087.291.215.378.378.088.163.134.324.134.77v9.436c0 .446-.046.607-.134.77a.909.909 0 0 1-.378.378c-.163.088-.324.134-.77.134H5.282c-.446 0-.607-.046-.77-.134a.909.909 0 0 1-.378-.378c-.088-.163-.134-.324-.134-.77V3.282c0-.446.046-.607.134-.77a.909.909 0 0 1 .378-.378c.163-.088.324-.134.77-.134zM5 5v8h6V5H5z"/><path d="M4.3 4.816l.788-.616 6.699 8.574-.788.615z"/><path d="M11.637 4.916l-6.699 8.573-.788-.615L10.849 4.3z"/></g></svg>