<svg width="16" height="16" viewBox="0 0 16 16" fill="none" xmlns="http://www.w3.org/2000/svg">
<path d="M4 12H5V13H4V12Z" fill="#AFB1B3"/>
<path d="M4 10H5V11H4V10Z" fill="#AFB1B3"/>
<path d="M4 8H5V9H4V8Z" fill="#AFB1B3"/>
<path d="M6 13H7V12H6V13Z" fill="#AFB1B3"/>
<path d="M7 4H2V7C2 7.55228 2.44772 8 3 8H6C6.55228 8 7 7.55228 7 7V4Z" fill="#AFB1B3"/>
<rect x="5" y="2" width="1" height="4" fill="#AFB1B3"/>
<path fill-rule="evenodd" clip-rule="evenodd" d="M10 9V7H13C13 6.50368 12.4627 6 12 6H10C9.53726 6 9 6.50368 9 7V9C8.44772 9 8 9.44772 8 10V13C8 13.5523 8.44772 14 9 14H13C13.5523 14 14 13.5523 14 13V10C14 9.44772 13.5523 9 13 9H10Z" fill="#3592C4"/>
<rect x="3" y="2" width="1" height="4" fill="#AFB1B3"/>
</svg>
