<!--
  - Copyright (C) 2025 The Android Open Source Project
  -
  - Licensed under the Apache License, Version 2.0 (the "License");
  - you may not use this file except in compliance with the License.
  - You may obtain a copy of the License at
  -
  -      http://www.apache.org/licenses/LICENSE-2.0
  -
  - Unless required by applicable law or agreed to in writing, software
  - distributed under the License is distributed on an "AS IS" BASIS,
  - WITHOUT WARRANTIES OR CONDITIONS OF ANY KIND, either express or implied.
  - See the License for the specific language governing permissions and
  - limitations under the License.
  -->
<svg width="16" height="16" viewBox="0 0 16 16" fill="none" xmlns="http://www.w3.org/2000/svg"><path fill-rule="evenodd" clip-rule="evenodd" d="M1 4a2 2 0 012-2h10a2 2 0 012 2v8a2 2 0 01-2 2H3a2 2 0 01-2-2V4zm2-1h2v10H3a1 1 0 01-1-1V4a1 1 0 011-1zm3 0v10h7a1 1 0 001-1V4a1 1 0 00-1-1H6z" fill="#6C707E"/><path d="M2 4a1 1 0 011-1h2v10H3a1 1 0 01-1-1V4z" fill="#EBECF0"/></svg>