<!--
  - Copyright (C) 2025 The Android Open Source Project
  -
  - Licensed under the Apache License, Version 2.0 (the "License");
  - you may not use this file except in compliance with the License.
  - You may obtain a copy of the License at
  -
  -      http://www.apache.org/licenses/LICENSE-2.0
  -
  - Unless required by applicable law or agreed to in writing, software
  - distributed under the License is distributed on an "AS IS" BASIS,
  - WITHOUT WARRANTIES OR CONDITIONS OF ANY KIND, either express or implied.
  - See the License for the specific language governing permissions and
  - limitations under the License.
  -->
<svg width="16" height="16" viewBox="0 0 16 16" fill="none" xmlns="http://www.w3.org/2000/svg"><path fill-rule="evenodd" clip-rule="evenodd" d="M3.268 3.155C3.05 3.351 3 3.503 3 3.603c0 .1.051.252.268.447.216.196.557.395 1.021.573.926.353 2.237.582 3.711.582 1.474 0 2.786-.229 3.71-.582.465-.178.806-.377 1.022-.573.217-.195.268-.347.268-.447 0-.1-.051-.252-.268-.448-.216-.195-.557-.395-1.021-.572C10.785 2.229 9.473 2 8 2c-1.474 0-2.785.23-3.71.583-.465.177-.806.377-1.022.572zM2 3.392v9.126h.003c.028.444.274.816.594 1.106.34.307.804.561 1.335.764 1.066.408 2.504.649 4.068.649.118 0 .236-.001.353-.004a3.699 3.699 0 01-.02-.042 1.502 1.502 0 01-1.245-.984c-1.1-.073-2.07-.274-2.799-.553-.464-.177-.805-.377-1.021-.572-.217-.196-.268-.348-.268-.448v-1.45c.272.176.588.329.932.46.85.325 1.935.544 3.132.62.137-.449.477-.809.914-.97-1.465-.003-2.768-.232-3.689-.584-.464-.177-.805-.376-1.021-.572C3.05 9.742 3 9.59 3 9.49V8.041c.272.175.588.328.932.46 1.066.407 2.504.648 4.068.648 1.564 0 3.002-.241 4.068-.649.344-.131.66-.284.932-.459V9h.5c.175 0 .344.03.5.085V3.393h-.017c-.062-.389-.29-.718-.58-.98-.34-.307-.804-.561-1.335-.764C11.002 1.24 9.564 1 8 1c-1.564 0-3.002.241-4.068.649-.53.203-.995.457-1.335.764-.29.262-.518.591-.58.98H2zm1 1.705v1.45c0 .1.051.251.268.447.216.196.557.395 1.021.572.926.354 2.237.583 3.711.583 1.474 0 2.786-.229 3.71-.583.465-.177.806-.376 1.022-.572.217-.196.268-.348.268-.447v-1.45a5.104 5.104 0 01-.932.46c-1.066.407-2.504.648-4.068.648-1.564 0-3.002-.241-4.068-.648A5.105 5.105 0 013 5.097z" fill="#548AF7"/><path fill-rule="evenodd" clip-rule="evenodd" d="M9.05 12a2.5 2.5 0 012.45-2h2a.5.5 0 01.5.5v.5h1.5a.5.5 0 010 1H14v2h1.5a.5.5 0 010 1H14v.5a.5.5 0 01-.5.5h-2a2.5 2.5 0 01-2.45-2H8.5a.5.5 0 01-.5-.5v-1a.5.5 0 01.5-.5h.55zm.95 1.5v-1a1.5 1.5 0 011.5-1.5H13v4h-1.5a1.5 1.5 0 01-1.5-1.5z" fill="#CED0D6"/></svg>