<svg width="16" height="16" viewBox="0 0 16 16" fill="none" xmlns="http://www.w3.org/2000/svg">
<path fill-rule="evenodd" clip-rule="evenodd" d="M14.83 0.0169983L15.962 1.148L9.598 7.512L8.466 6.381L14.83 0.0169983Z" fill="#E05555"/>
<path fill-rule="evenodd" clip-rule="evenodd" d="M9.598 0.0169983L15.962 6.381L14.83 7.512L8.466 1.148L9.598 0.0169983Z" fill="#E05555"/>
<path fill-rule="evenodd" clip-rule="evenodd" d="M8 1C4.134 1 1 1.863 1 2.927C1 3.991 4.134 4.853 8 4.853V1ZM8 6.138C5.106 6.138 2.548 5.598 1 4.773V6.266C1 7.33 4.134 8.193 8 8.193V8V6.138ZM11 8V8.00752C11.019 8.00503 11.0379 8.00253 11.0568 8H11ZM15 8.113V9.699C15 10.712 11.866 11.532 8 11.532C4.134 11.532 1 10.712 1 9.699V8.113C2.548 8.938 5.106 9.477 8 9.477C10.894 9.477 13.452 8.937 15 8.113ZM15 11.453V13.073C15 14.137 11.866 15 8 15C4.134 15 1 14.137 1 13.073V11.453C2.548 12.277 5.106 12.817 8 12.817C10.894 12.817 13.452 12.277 15 11.452V11.453Z" fill="#40B6E0" fill-opacity="0.6"/>
</svg>
