<!--
  - Copyright (C) 2025 The Android Open Source Project
  -
  - Licensed under the Apache License, Version 2.0 (the "License");
  - you may not use this file except in compliance with the License.
  - You may obtain a copy of the License at
  -
  -      http://www.apache.org/licenses/LICENSE-2.0
  -
  - Unless required by applicable law or agreed to in writing, software
  - distributed under the License is distributed on an "AS IS" BASIS,
  - WITHOUT WARRANTIES OR CONDITIONS OF ANY KIND, either express or implied.
  - See the License for the specific language governing permissions and
  - limitations under the License.
  -->
<svg width="16" height="16" viewBox="0 0 16 16" fill="none" xmlns="http://www.w3.org/2000/svg"><path d="M12.5 9.5h-3a1 1 0 00-1 1v3h5v-3a1 1 0 00-1-1z" fill="#FFFAEB" stroke="#C27D04" stroke-linecap="round"/><path d="M4.5 7.5v4a1 1 0 001 1h1M6.5 4.5h-4v2a1 1 0 001 1h2a1 1 0 001-1v-2zM3.5 2.5v2M5.5 2.5v2" stroke="#6C707E" stroke-linecap="round"/><path d="M9.5 9.5V8A1.5 1.5 0 0111 6.5v0A1.5 1.5 0 0112.5 8v1.5" stroke="#C27D04" stroke-linecap="round"/></svg>