<svg width="16" height="16" viewBox="0 0 16 16" fill="none" xmlns="http://www.w3.org/2000/svg">
<path d="M4 7H5V13H4V7Z" fill="#6E6E6E"/>
<path d="M5 13H7V12H5V13Z" fill="#6E6E6E"/>
<path d="M7 4H2V7C2 7.55228 2.44772 8 3 8H6C6.55228 8 7 7.55228 7 7V4Z" fill="#6E6E6E"/>
<rect x="5" y="2" width="1" height="4" fill="#6E6E6E"/>
<path fill-rule="evenodd" clip-rule="evenodd" d="M10 9V7H12V9H10ZM9 9V7C9 6.50368 9.53726 6 10 6H12C12.4627 6 13 6.50368 13 7V9C13.5523 9 14 9.44772 14 10V13C14 13.5523 13.5523 14 13 14H9C8.44772 14 8 13.5523 8 13V10C8 9.44772 8.44772 9 9 9Z" fill="#EDA200"/>
<rect x="3" y="2" width="1" height="4" fill="#6E6E6E"/>
</svg>
