<svg width="16" height="16" viewBox="0 0 16 16" fill="none" xmlns="http://www.w3.org/2000/svg">
<path fill-rule="evenodd" clip-rule="evenodd" d="M15 6.53513V2H1V14H6.48688C6.57598 13.6782 6.74702 13.3743 7 13.1213L7.12132 13H6V11H9.12132L9.12506 10.9963C9.04341 10.6778 9 10.344 9 10H6V8H9.53513C9.88641 7.39274 10.3927 6.88641 11 6.53513V5H14V6.12602C14.3548 6.21733 14.6905 6.35609 15 6.53513ZM6 5H10V7H6V5ZM5 5V7H2V5H5ZM2 10V8H5V10H2ZM2 11H5V13H2V11Z" fill="#AFB1B3"/>
<path d="M10.5355 11L11.9497 12.4142L9.12132 15.2426C8.7308 15.6332 8.09763 15.6332 7.70711 15.2426C7.31658 14.8521 7.31658 14.219 7.70711 13.8284L10.5355 11Z" fill="#3592C4"/>
<path fill-rule="evenodd" clip-rule="evenodd" d="M13 12C14.1046 12 15 11.1046 15 10C15 8.89543 14.1046 8 13 8C11.8954 8 11 8.89543 11 10C11 11.1046 11.8954 12 13 12ZM13 13C14.6569 13 16 11.6569 16 10C16 8.34315 14.6569 7 13 7C11.3431 7 10 8.34315 10 10C10 11.6569 11.3431 13 13 13Z" fill="#3592C4"/>
</svg>
