<!--
  - Copyright (C) 2025 The Android Open Source Project
  -
  - Licensed under the Apache License, Version 2.0 (the "License");
  - you may not use this file except in compliance with the License.
  - You may obtain a copy of the License at
  -
  -      http://www.apache.org/licenses/LICENSE-2.0
  -
  - Unless required by applicable law or agreed to in writing, software
  - distributed under the License is distributed on an "AS IS" BASIS,
  - WITHOUT WARRANTIES OR CONDITIONS OF ANY KIND, either express or implied.
  - See the License for the specific language governing permissions and
  - limitations under the License.
  -->
<svg width="16" height="16" viewBox="0 0 16 16" fill="none" xmlns="http://www.w3.org/2000/svg"><path fill-rule="evenodd" clip-rule="evenodd" d="M1 4a2 2 0 012-2h10a2 2 0 012 2v7c0-1.014-.378-1.94-1-2.646V6h-3v1c-.345 0-.68.044-1 .126V6H6v7h1.535c.218.376.495.714.82 1H3a2 2 0 01-2-2V4zm5-1h4v2H6V3zM5 3H3a1 1 0 00-1 1v1h3V3zM2 6v6a1 1 0 001 1h2V6H2zm12-1V4a1 1 0 00-1-1h-2v2h3z" fill="#CED0D6"/><circle cx="11" cy="11" r="2" fill="#25324D"/><path fill-rule="evenodd" clip-rule="evenodd" d="M12.738 13.445a3 3 0 11.707-.707l1.409 1.408a.5.5 0 01-.708.708l-1.408-1.409zM13 11a2 2 0 11-4 0 2 2 0 014 0z" fill="#548AF7"/></svg>