<svg width="16" height="16" viewBox="0 0 16 16" xmlns="http://www.w3.org/2000/svg"><rect id="frame" width="16" height="16" fill="none"/><g fill="none" fill-rule="evenodd"><path d="M0 0h16v16H0z"/><g fill-rule="nonzero"><path fill-opacity=".8" fill="#9AA7B0" d="M1 2h5v12H1z"/><path d="M10.354 11a4.018 4.018 0 0 1-.819-1H7v1h3.354zM10 13H7v1h3v-1zm5 1v-2.535V14zm0-9.465V2H7v3h3v.354A3.99 3.99 0 0 1 13 4c.729 0 1.412.195 2 .535zM9.126 7H7v1h2c0-.345.044-.68.126-1z" fill="#9AA7B0"/><path d="M14 13h2v2h-2v1h-2v-5.17a3.001 3.001 0 1 1 2 0V13zm-1-4a1 1 0 1 0 0-2 1 1 0 0 0 0 2z" fill="#40B6E0"/></g></g></svg>