<!--
  - Copyright (C) 2025 The Android Open Source Project
  -
  - Licensed under the Apache License, Version 2.0 (the "License");
  - you may not use this file except in compliance with the License.
  - You may obtain a copy of the License at
  -
  -      http://www.apache.org/licenses/LICENSE-2.0
  -
  - Unless required by applicable law or agreed to in writing, software
  - distributed under the License is distributed on an "AS IS" BASIS,
  - WITHOUT WARRANTIES OR CONDITIONS OF ANY KIND, either express or implied.
  - See the License for the specific language governing permissions and
  - limitations under the License.
  -->
<svg width="16" height="16" viewBox="0 0 16 16" fill="none" xmlns="http://www.w3.org/2000/svg"><path d="M1.5 13V8a.5.5 0 01.5-.5h5a.5.5 0 01.5.5v5a.5.5 0 01-.5.5H2a.5.5 0 01-.5-.5zM14 13.5h-3a.5.5 0 01-.5-.5v-3a.5.5 0 01.5-.5h3a.5.5 0 01.5.5v3a.5.5 0 01-.5.5zM14 6.5h-3a.5.5 0 01-.5-.5V3a.5.5 0 01.5-.5h3a.5.5 0 01.5.5v3a.5.5 0 01-.5.5z" fill="#43454A" stroke="#CED0D6" stroke-linejoin="round"/><path d="M8 11.5h2M4.5 7V5.5a1 1 0 011-1H10" stroke="#CED0D6"/></svg>