<!--
  - Copyright (C) 2025 The Android Open Source Project
  -
  - Licensed under the Apache License, Version 2.0 (the "License");
  - you may not use this file except in compliance with the License.
  - You may obtain a copy of the License at
  -
  -      http://www.apache.org/licenses/LICENSE-2.0
  -
  - Unless required by applicable law or agreed to in writing, software
  - distributed under the License is distributed on an "AS IS" BASIS,
  - WITHOUT WARRANTIES OR CONDITIONS OF ANY KIND, either express or implied.
  - See the License for the specific language governing permissions and
  - limitations under the License.
  -->
<svg width="16" height="16" viewBox="0 0 16 16" fill="none" xmlns="http://www.w3.org/2000/svg"><circle cx="11" cy="12" r="1.5" fill="#EDF3FF" stroke="#3574F0"/><path d="M11 15.5c-1.9 0-3.86-1.512-4.479-3.5C7.14 10.012 9.1 8.5 11 8.5s3.86 1.512 4.479 3.5C14.86 13.988 12.9 15.5 11 15.5z" stroke="#3574F0"/><path fill-rule="evenodd" clip-rule="evenodd" d="M6 3h4v2H6V3zM5 3H3a1 1 0 00-1 1v1h3V3zM2 6v6a1 1 0 001 1h2v1H3a2 2 0 01-2-2V4a2 2 0 012-2h10a2 2 0 012 2v4.587a6.736 6.736 0 00-1-.732V6h-3v1a5.336 5.336 0 00-1 .103V6H6v3.79a6.366 6.366 0 00-.926 1.942L5 12V6H2zm12-1V4a1 1 0 00-1-1h-2v2h3z" fill="#6C707E"/></svg>