<svg width="16" height="16" viewBox="0 0 16 16" fill="none" xmlns="http://www.w3.org/2000/svg">
<path fill-rule="evenodd" clip-rule="evenodd" d="M11 9V8H14V9H15V8V7V2H1V14H7V13H6V11H7V10H6V8H10V9H11ZM5 8V10H2V8H5ZM2 13V11H5V13H2ZM14 7H11V5H14V7ZM10 7V5H6V7H10ZM5 7V5H2V7H5Z" fill="#9AA7B0"/>
<path fill-rule="evenodd" clip-rule="evenodd" d="M16 13C16 13.5 14.2091 16 12 16C9.79086 16 8 13.5 8 13C8 12.5 9.79086 10 12 10C14.2091 10 16 12.5 16 13ZM14 13C14 14.1046 13.1046 15 12 15C10.8954 15 10 14.1046 10 13C10 11.8954 10.8954 11 12 11C13.1046 11 14 11.8954 14 13ZM12 14C12.5523 14 13 13.5523 13 13C13 12.4477 12.5523 12 12 12C11.4477 12 11 12.4477 11 13C11 13.5523 11.4477 14 12 14Z" fill="#40B6E0"/>
</svg>
