<svg width="16" height="16" viewBox="0 0 16 16" fill="none" xmlns="http://www.w3.org/2000/svg"><path d="M2.5 5.5v-1a1 1 0 0 1 1-1h9a1 1 0 0 1 1 1v7a1 1 0 0 1-1 1h-3" stroke="#CED0D6" stroke-linecap="round"/><mask id="a" fill="#fff"><path fill-rule="evenodd" clip-rule="evenodd" d="M8 13a6 6 0 0 0-6-6v1a5 5 0 0 1 5 5h1zm-2 0a4 4 0 0 0-4-4v1a3 3 0 0 1 3 3h1zm-2 0a2 2 0 0 0-2-2v2h2z"/></mask><path fill-rule="evenodd" clip-rule="evenodd" d="M8 13a6 6 0 0 0-6-6v1a5 5 0 0 1 5 5h1zm-2 0a4 4 0 0 0-4-4v1a3 3 0 0 1 3 3h1zm-2 0a2 2 0 0 0-2-2v2h2z" fill="#CED0D6"/><path d="M8 13v1h1v-1H8zM2 7V6H1v1h1zm0 1H1v1h1V8zm5 5H6v1h1v-1zm-1 0v1h1v-1H6zM2 9V8H1v1h1zm0 1H1v1h1v-1zm3 3H4v1h1v-1zm-1 0v1h1v-1H4zm-2-2v-1H1v1h1zm0 2H1v1h1v-1zm7 0a7 7 0 0 0-7-7v2a5 5 0 0 1 5 5h2zM3 8V7H1v1h2zm5 5a6 6 0 0 0-6-6v2a4 4 0 0 1 4 4h2zm0-1H7v2h1v-2zm-1 1a5 5 0 0 0-5-5v2a3 3 0 0 1 3 3h2zm-4-3V9H1v1h2zm3 3a4 4 0 0 0-4-4v2a2 2 0 0 1 2 2h2zm0-1H5v2h1v-2zm-1 1a3 3 0 0 0-3-3v2a1 1 0 0 1 1 1h2zm-2 0v-2H1v2h2zm1-1H2v2h2v-2z" fill="#CED0D6" mask="url(#a)"/></svg>