<svg xmlns="http://www.w3.org/2000/svg" width="16" height="16" viewBox="0 0 16 16">
  <g fill="none" fill-rule="evenodd">
    <path fill="#A4C639" d="M12.1234274,7.10304507 C12.193458,7.03301444 12.2874991,7 12.392545,7 C12.5916321,7 12.8357389,7.11505032 13.0488321,7.31613826 C13.3449616,7.59826164 13.4640136,8.04145547 13.2629257,8.24154297 L11.9613565,9.5431122 C13.3169493,10.7356337 13.8329269,11.9481026 14,14 L2,14 C2.16407175,12.1011696 2.66729183,10.7616451 4.02088381,9.5431122 L2.71231152,8.24154297 C2.51122358,8.04145547 2.65828789,7.55024064 2.92540471,7.31613826 C3.21453116,7.06502844 3.65072192,6.90295756 3.85080943,7.10304507 L5.34146135,8.58269217 C6.14181137,8.1835176 7.04320558,7.95341696 8.00162473,7.95341696 C8.95304082,7.95341696 9.8534346,8.1835176 10.6437802,8.58269217 L12.1234274,7.10304507 Z M5,11 L5,12 L6,12 L6,11 L5,11 Z M10,11 L10,12 L11,12 L11,11 L10,11 Z"/>
    <path fill="#62B543" d="M13.5620756,6.43792444 C13.1225811,6.04398453 12.5507147,5.87848835 12,5.9414359 L12,0 L16,4 L13.5620756,6.43792444 Z"/>
    <polygon fill="#F26522" points="9 2 13 6 5 6" transform="rotate(-90 9 4)"/>
  </g>
</svg>
