<svg xmlns="http://www.w3.org/2000/svg" width="13" height="13" viewBox="0 0 13 13">
  <path fill="#6E6E6E" fill-rule="evenodd" d="M7.5,10.5 L5.5,10.5 L5.5,13 L4,13 L4,10.5 L3,10.5 L3,5 L10,5 L10,10.5 L9,10.5 L9,13 L7.5,13 L7.5,10.5 Z M9,1.90043597 C9.61859351,2.4415233 10,3.18258354 10,4 L3,4 C3,3.18258354 3.38140649,2.4415233 4,1.90043597 L4,0 L5,0 L5,1.28869907 C5.45462769,1.10358188 5.96320135,1 6.5,1 C7.03679865,1 7.54537231,1.10358188 8,1.28869907 L8,0 L9,0 L9,1.90043597 Z M7,2 L7,3 L8,3 L8,2 L7,2 Z M5,2 L5,3 L6,3 L6,2 L5,2 Z M1,5 L2,5 L2,9 L1,9 L1,5 Z M11,5 L12,5 L12,9 L11,9 L11,5 Z"/>
</svg>
