<svg xmlns="http://www.w3.org/2000/svg" width="16" height="16" viewBox="0 0 16 16">
  <path fill="#A4C639" fill-rule="evenodd" d="M9,12.5 L7,12.5 L7,14.4970707 C7,15.0509732 6.55613518,15.5 6,15.5 C5.44771525,15.5 5,15.0621186 5,14.4970707 L5,12.5 L4,12.5 L4,5.5 L12,5.5 L12,12.5 L11,12.5 L11,14.4970707 C11,15.0509732 10.5561352,15.5 10,15.5 C9.44771525,15.5 9,15.0621186 9,14.4970707 L9,12.5 Z M11,2.6175411 C11.6223634,3.18583005 12,3.98555353 12,5 L4,5 C4,3.98555353 4.37763659,3.18583005 5,2.6175411 L5,0.5 L6,0.5 L6,1.98239228 C6.58834673,1.72952773 7.27142571,1.60000002 8,1.60000002 C8.72857429,1.60000002 9.41165327,1.72952773 10,1.98239228 L10,0.5 L11,0.5 L11,2.6175411 Z M10,3 L9,3 L9,4 L10,4 L10,3.5 L10,3 Z M6,3.5 L6,4 L7,4 L7,3 L6,3 L6,3.5 Z M1.60000002,6.359375 C1.60000002,5.88475529 1.97728513,5.5 2.45000005,5.5 C2.9194421,5.5 3.30000007,5.87803727 3.30000007,6.359375 L3.30000007,10.140625 C3.30000007,10.6152447 2.92271496,11 2.45000005,11 C1.980558,11 1.60000002,10.6219627 1.60000002,10.140625 L1.60000002,6.359375 Z M12.6999998,6.359375 C12.6999998,5.88475529 13.0772849,5.5 13.5499998,5.5 C14.0194419,5.5 14.3999999,5.87803727 14.3999999,6.359375 L14.3999999,10.140625 C14.3999999,10.6152447 14.0227147,11 13.5499998,11 C13.0805578,11 12.6999998,10.6219627 12.6999998,10.140625 L12.6999998,6.359375 Z"/>
</svg>
