<svg width="16" height="16" viewBox="0 0 16 16" fill="none" xmlns="http://www.w3.org/2000/svg"><path d="M2.5 8.5h11" stroke="#CED0D6"/><path d="M2.75 10.5h10.5" stroke="#CED0D6" stroke-linecap="round"/><rect x="5" y="6" width="1" height="1" rx=".5" fill="#CED0D6"/><rect x="10" y="6" width="1" height="1" rx=".5" fill="#CED0D6"/><mask id="a" fill="#fff"><path fill-rule="evenodd" clip-rule="evenodd" d="M13.316 10a.547.547 0 0 0-.516.404 5.002 5.002 0 0 1-9.6 0A.547.547 0 0 0 2.684 10c-.314 0-.555.284-.472.587a6.003 6.003 0 0 0 11.576 0c.083-.303-.158-.587-.472-.587z"/></mask><path fill-rule="evenodd" clip-rule="evenodd" d="M13.316 10a.547.547 0 0 0-.516.404 5.002 5.002 0 0 1-9.6 0A.547.547 0 0 0 2.684 10c-.314 0-.555.284-.472.587a6.003 6.003 0 0 0 11.576 0c.083-.303-.158-.587-.472-.587z" fill="#6C707E"/><path d="M13.788 10.587l-.965-.264.965.264zm-.988-.183l-.96-.28.96.28zM8 15a6.002 6.002 0 0 0 5.76-4.316l-1.92-.56A4.002 4.002 0 0 1 8 13v2zm-5.76-4.316A6.002 6.002 0 0 0 8 15v-2a4.002 4.002 0 0 1-3.84-2.877l-1.92.56zm-.992.167A7.003 7.003 0 0 0 8 16v-2a5.003 5.003 0 0 1-4.823-3.677l-1.93.528zM8 16a7.003 7.003 0 0 0 6.752-5.149l-1.929-.528A5.003 5.003 0 0 1 8 14v2zm6.752-5.149C15.03 9.841 14.215 9 13.316 9v2a.528.528 0 0 1-.493-.677l1.93.528zM2.684 9c-.899 0-1.713.84-1.436 1.851l1.929-.528a.528.528 0 0 1-.493.677V9zm1.476 1.123C3.98 9.513 3.419 9 2.684 9v2a.454.454 0 0 1-.444-.316l1.92-.56zm9.6.56a.454.454 0 0 1-.444.317V9c-.735 0-1.298.513-1.476 1.123l1.92.56z" fill="#CED0D6" mask="url(#a)"/><path fill-rule="evenodd" clip-rule="evenodd" d="M11.38 1.433a.5.5 0 1 1 .866.5l-1.122 1.943A5.999 5.999 0 0 1 13.979 8.5a.47.47 0 0 1-.479.5.541.541 0 0 1-.525-.5 5 5 0 0 0-9.95 0A.541.541 0 0 1 2.5 9a.47.47 0 0 1-.48-.5 5.999 5.999 0 0 1 2.853-4.622L3.75 1.933a.5.5 0 0 1 .866-.5l1.152 1.996A5.984 5.984 0 0 1 8 3c.787 0 1.54.152 2.229.427l1.151-1.994z" fill="#CED0D6"/></svg>