<svg width="16" height="16" viewBox="0 0 16 16" fill="none" xmlns="http://www.w3.org/2000/svg"><path fill-rule="evenodd" clip-rule="evenodd" d="M11.38 1.433a.5.5 0 1 1 .866.5l-1.122 1.943A5.999 5.999 0 0 1 13.979 8.5a.47.47 0 0 1-.479.5.541.541 0 0 1-.525-.5 5 5 0 0 0-9.95 0A.541.541 0 0 1 2.5 9a.47.47 0 0 1-.48-.5 5.999 5.999 0 0 1 2.853-4.622L3.75 1.933a.5.5 0 0 1 .866-.5l1.152 1.996A5.984 5.984 0 0 1 8 3c.787 0 1.54.152 2.229.427l1.151-1.994z" fill="#6C707E"/><path d="M2.5 8.5h11" stroke="#6C707E"/><path d="M2.75 10.5h10.5" stroke="#6C707E" stroke-linecap="round"/><rect x="5" y="6" width="1" height="1" rx=".5" fill="#6C707E"/><rect x="10" y="6" width="1" height="1" rx=".5" fill="#6C707E"/><path fill-rule="evenodd" clip-rule="evenodd" d="M13.316 10a.547.547 0 0 0-.516.404 5.002 5.002 0 0 1-9.6 0A.547.547 0 0 0 2.684 10c-.314 0-.555.284-.472.587a6.003 6.003 0 0 0 11.576 0c.083-.303-.158-.587-.472-.587z" fill="#6C707E"/></svg>