<svg xmlns="http://www.w3.org/2000/svg" width="16" height="16" fill="none"><rect width="4" height="1" x="1" y="1" fill="#6C707E" rx=".5"/><rect width="1" height="4" x="1" y="1" fill="#6C707E" rx=".5"/><rect width="4" height="1" x="1" y="14" fill="#6C707E" rx=".5"/><rect width="4" height="1" x="11" y="14" fill="#6C707E" rx=".5"/><rect width="1" height="4" x="1" y="11" fill="#6C707E" rx=".5"/><rect width="1" height="4" x="14" y="11" fill="#6C707E" rx=".5"/><rect width="4" height="1" x="11" y="1" fill="#6C707E" rx=".5"/><rect width="1" height="4" x="14" y="1" fill="#6C707E" rx=".5"/><circle cx="8" cy="8" r="1.5" stroke="#6C707E"/><path stroke="#6C707E" d="M3.77 6.462c.181-.499.449-.957.785-1.357l1.184.048a1 1 0 0 0 .926-.535l.551-1.05a4.53 4.53 0 0 1 1.568 0l.551 1.05a1 1 0 0 0 .926.535l1.184-.048c.336.4.604.858.785 1.357l-.634 1.004a1 1 0 0 0 0 1.068l.634 1.004c-.181.499-.449.957-.784 1.357l-1.185-.048a1 1 0 0 0-.926.535l-.551 1.05a4.53 4.53 0 0 1-1.568 0l-.551-1.05a1 1 0 0 0-.926-.535l-1.185.048a4.495 4.495 0 0 1-.785-1.357l.635-1.004a1 1 0 0 0 0-1.068l-.635-1.004Z"/></svg>