<svg width="16" height="16" viewBox="0 0 16 16" fill="none" xmlns="http://www.w3.org/2000/svg"><rect x="1" y="1" width="4" height="1" rx=".5" fill="#6C707E"/><rect x="1" y="1" width="1" height="4" rx=".5" fill="#6C707E"/><rect x="1" y="14" width="4" height="1" rx=".5" fill="#6C707E"/><rect x="11" y="14" width="4" height="1" rx=".5" fill="#6C707E"/><rect x="1" y="11" width="1" height="4" rx=".5" fill="#6C707E"/><rect x="14" y="11" width="1" height="4" rx=".5" fill="#6C707E"/><rect x="11" y="1" width="4" height="1" rx=".5" fill="#6C707E"/><rect x="14" y="1" width="1" height="4" rx=".5" fill="#6C707E"/><circle cx="8" cy="8" r="1.5" stroke="#6C707E"/><mask id="a" fill="#fff"><path fill-rule="evenodd" clip-rule="evenodd" d="M4.185 4.768a.474.474 0 0 1 .382-.163l1.192.048a.5.5 0 0 0 .463-.267l.555-1.057a.473.473 0 0 1 .333-.25 5.03 5.03 0 0 1 1.78 0c.144.026.265.12.333.25l.555 1.057a.5.5 0 0 0 .463.267l1.192-.048a.474.474 0 0 1 .382.163c.384.452.688.973.892 1.542.05.138.028.29-.05.413l-.638 1.01a.5.5 0 0 0 0 .534l.638 1.01c.078.123.1.275.05.413a4.995 4.995 0 0 1-.892 1.542.474.474 0 0 1-.382.163l-1.192-.048a.5.5 0 0 0-.463.267l-.555 1.057a.473.473 0 0 1-.333.25 5.03 5.03 0 0 1-1.78 0 .474.474 0 0 1-.333-.25l-.555-1.057a.5.5 0 0 0-.463-.267l-1.192.048a.474.474 0 0 1-.382-.163 4.994 4.994 0 0 1-.892-1.543.473.473 0 0 1 .05-.412l.638-1.01a.5.5 0 0 0 0-.534l-.638-1.01a.473.473 0 0 1-.05-.412c.204-.57.508-1.09.892-1.543z"/></mask><path d="M3.293 6.31l-.942-.337.942.338zm.688 1.957l-.845-.534.845.534zm0-.534l-.845.534.845-.534zm-.638 1.544l-.845-.534.845.534zm1.224 2.118l-.04-1 .04 1zm-.382-.163l-.763.647.763-.647zm1.574.115l.04.999-.04-1zm1.35 1.574l-.176.984.177-.984zm-.332-.25l-.885.465.885-.465zm2.446 0l-.886-.465.886.465zm-.333.25l.177.984-.177-.984zm2.925-1.69l-.762-.646.762.647zm-.382.164l.04-1-.04 1zm1.224-2.118l.845-.534-.845.534zm.05.413l-.94-.338.94.338zm-.688-1.957l-.846-.534.846.534zm0 .534l.845-.534-.845.534zm.688-1.957l-.94.338.94-.338zm-.05.413l.845.534-.845-.534zm-1.224-2.118l-.04-.999.04 1zm.382.163l.763-.647-.763.647zm-2.592-1.44l-.885.466.885-.465zM7.11 3.08l-.177-.984.177.984zM5.76 4.653l-.04 1 .04-1zm.462-.267l-.886-.465.886.465zm4.019 6.96l-.04 1 .04-1zm-.463.268l-.885-.465.885.465zm-5.21-7.009l-.04 1 .04-1zm-.383.163l-.763-.647.763.647zm.342.837l1.192.047.08-1.998-1.192-.048-.08 1.999zm2.58-.754l.555-1.057-1.77-.93-.556 1.057 1.771.93zm.18-.788C7.516 4.022 7.755 4 8 4V2c-.363 0-.72.032-1.067.095l.353 1.968zM8 4c.244 0 .483.022.713.063l.354-1.968A6.03 6.03 0 0 0 8 2v2zm.338-.206l.555 1.057 1.77-.93-.555-1.057-1.77.93zm1.943 1.858l1.192-.047-.08-1.999-1.192.048.08 1.998zm.771-.237c.308.362.551.779.714 1.233l1.883-.676a5.996 5.996 0 0 0-1.071-1.85l-1.526 1.293zm.76.774l-.639 1.01 1.691 1.068.638-1.01-1.69-1.068zM11.173 8.8l.639 1.01 1.69-1.068-.638-1.01-1.69 1.068zm.593.55a3.996 3.996 0 0 1-.713 1.234l1.525 1.294a5.995 5.995 0 0 0 1.07-1.851l-1.882-.676zm-.293 1.044l-1.192-.047-.08 1.998 1.192.048.08-1.999zm-2.58.754l-.556 1.057 1.771.93.555-1.057-1.77-.93zm-.18.788c-.23.041-.469.063-.713.063v2c.363 0 .72-.032 1.067-.095l-.354-1.968zM8 12c-.244 0-.483-.022-.713-.063l-.354 1.968C7.28 13.968 7.637 14 8 14v-2zm-.338.206l-.555-1.057-1.77.93.555 1.057 1.77-.93zM5.72 10.348l-1.192.047.08 1.999 1.192-.048-.08-1.998zm-.771.237a3.995 3.995 0 0 1-.714-1.233l-1.883.675c.246.684.611 1.31 1.071 1.852l1.526-1.294zm-.76-.774l.638-1.01-1.69-1.068-.639 1.01L4.189 9.81zM4.826 7.2l-.638-1.01-1.69 1.068.638 1.01L4.826 7.2zm-.592-.55c.163-.455.406-.872.714-1.234L3.422 4.12a5.995 5.995 0 0 0-1.07 1.852l1.882.675zm-.046-.46a.527.527 0 0 1 .046.46L2.35 5.972c-.161.45-.082.922.147 1.284l1.69-1.068zM4.826 8.8a1.5 1.5 0 0 0 0-1.602l-1.69 1.068a.5.5 0 0 1 0-.534L4.826 8.8zm-.592.55a.527.527 0 0 1-.046.46l-1.69-1.068a1.473 1.473 0 0 0-.147 1.284l1.883-.675zm.293 1.044c.137-.005.3.048.42.19L3.423 11.88c.31.364.757.532 1.185.515l-.08-1.999zm2.58.754a1.5 1.5 0 0 0-1.388-.801l.08 1.998a.5.5 0 0 1-.463-.267l1.771-.93zm.18.788a.527.527 0 0 1 .375.27l-1.77.93c.2.379.569.683 1.04.768l.355-1.968zm1.05.27a.527.527 0 0 1 .376-.27l.354 1.968c.472-.085.842-.389 1.041-.769l-1.77-.93zm2.716-1.622a.527.527 0 0 1 .42-.19l-.08 1.999c.428.017.876-.15 1.185-.515l-1.525-1.294zm.759-.774a.527.527 0 0 1-.046-.46l1.883.676c.161-.45.082-.922-.146-1.284L11.811 9.81zM11.173 7.2a1.5 1.5 0 0 0 0 1.602l1.691-1.068a.5.5 0 0 1 0 .534L11.174 7.2zm.593-.55a.527.527 0 0 1 .046-.46l1.69 1.068c.23-.362.308-.834.146-1.285l-1.882.676zm-.293-1.044a.527.527 0 0 1-.42-.19l1.525-1.294a1.474 1.474 0 0 0-1.185-.515l.08 1.999zm-2.76-1.542a.527.527 0 0 1-.375-.27l1.77-.93c-.2-.379-.57-.683-1.04-.768l-.355 1.968zm-1.05-.27a.527.527 0 0 1-.377.27l-.353-1.968c-.472.085-.842.39-1.041.769l1.77.93zm-1.944 1.86a1.5 1.5 0 0 0 1.388-.802l-1.77-.93a.5.5 0 0 1 .462-.267l-.08 1.998zm3.174-.802a1.5 1.5 0 0 0 1.388.801l-.08-1.998a.5.5 0 0 1 .462.267l-1.77.93zm1.388 5.497a1.5 1.5 0 0 0-1.388.801l1.77.93a.5.5 0 0 1-.462.267l.08-1.998zM4.607 3.606a1.474 1.474 0 0 0-1.185.515l1.526 1.294a.527.527 0 0 1-.42.19l.08-1.999z" fill="#6C707E" mask="url(#a)"/></svg>