<svg width="12" height="12" viewBox="0 0 12 12" xmlns="http://www.w3.org/2000/svg"><rect width="12" height="12" fill="none"/><g fill="none" fill-rule="evenodd"><path d="M4.25 4.95L8.844.356a.502.502 0 0 1 .709-.003l.885.885a.506.506 0 0 1-.003.709L5.84 6.541 4.25 4.95zM3.256 10.311a1.952 1.952 0 0 1-1.953-1.955c0-.853-.756-1.303-1.303-1.303.6-.795 1.622-1.303 2.605-1.303A2.605 2.605 0 0 1 5.21 8.356a1.952 1.952 0 0 1-1.954 1.955z" fill="#389FD6"/><path fill="#6E6E6E" d="M7 8.75l1 1 3-3 1 1-4 4-2-2z"/></g></svg>