<svg width="16" height="16" viewBox="0 0 16 16" fill="none" xmlns="http://www.w3.org/2000/svg">
<path fill-rule="evenodd" clip-rule="evenodd" d="M2 8C2 11.3137 4.68629 14 8 14C9.09286 14 10.1175 13.7078 11 13.1973V12.4649C10.5769 12.2201 10.2027 11.9 9.89591 11.523C9.33168 11.8273 8.68601 12 8 12C7.25823 12 6.56362 11.7981 5.96813 11.4462L9.05027 8.3641C9.35488 6.45718 11.0073 5 13 5C13.0671 5 13.1338 5.00166 13.2002 5.00493C12.1634 3.20881 10.2229 2 8 2C4.68629 2 2 4.68629 2 8ZM10.0321 4.55388L4.55388 10.0321C4.20195 9.43653 4 8.74185 4 8C4 5.79086 5.79086 4 8 4C8.74185 4 9.43653 4.20195 10.0321 4.55388Z" fill="#6E6E6E"/>
<path fill-rule="evenodd" clip-rule="evenodd" d="M10 8.99995C10 7.69373 10.8348 6.58249 12 6.17065V8.99994H14V6.17065C15.1652 6.58249 16 7.69373 16 8.99995C16 10.3062 15.1652 11.4174 14 11.8292V15C14 15.5522 13.5523 16 13 16C12.4477 16 12 15.5522 12 15V11.8292C10.8348 11.4174 10 10.3062 10 8.99995Z" fill="#389FD6"/>
</svg>
