<svg width="16" height="16" viewBox="0 0 16 16" fill="none" xmlns="http://www.w3.org/2000/svg">
<path fill-rule="evenodd" clip-rule="evenodd" d="M4.76525 3.76525C3.05362 4.62235 1.69959 6.13846 1 8C2.1 10.927 4.818 13 8 13C9.67087 13 11.2138 12.4284 12.4617 11.4617L10.9238 9.92379C10.2976 10.8732 9.22156 11.5 8 11.5C7.07182 11.4997 6.18174 11.1309 5.52542 10.4746C4.8691 9.81826 4.50027 8.92818 4.5 8C4.5 6.77844 5.12685 5.7024 6.07621 5.07621L4.76525 3.76525ZM7.53117 4.53117L6.22185 3.22185C6.79187 3.07685 7.38734 3 8 3C11.182 3 13.9 5.073 15 8C14.65 8.93142 14.1361 9.77636 13.4955 10.4955L11.4688 8.46883C11.4894 8.31546 11.5 8.15896 11.5 8C11.5 6.068 9.932 4.5 8 4.5C7.84104 4.5 7.68454 4.51061 7.53117 4.53117ZM7.17617 6.17617C6.48173 6.48931 6 7.18694 6 8C6 9.107 6.893 10 8 10C8.81306 10 9.51068 9.51827 9.82383 8.82383L7.17617 6.17617Z" fill="#AFB1B3"/>
<path fill-rule="evenodd" clip-rule="evenodd" d="M2 1L1 2L14 15L15 14L2 1Z" fill="#AFB1B3"/>
</svg>
