<svg width="16" height="16" viewBox="0 0 16 16" fill="none" xmlns="http://www.w3.org/2000/svg">
<path fill-rule="evenodd" clip-rule="evenodd" d="M4.76525 3.76525C3.05362 4.62235 1.69959 6.13846 1 8C2.1 10.927 4.818 13 8 13C9.02331 13 9.99864 12.7856 10.8876 12.3974C10.3671 12.0731 9.92664 11.6325 9.60241 11.112C9.1222 11.36 8.57735 11.5 8 11.5C7.07182 11.4997 6.18174 11.1309 5.52542 10.4746C4.8691 9.81826 4.50027 8.92818 4.5 8C4.5 6.77844 5.12685 5.7024 6.07621 5.07621L4.76525 3.76525ZM7.53117 4.53117L6.22185 3.22185C6.79187 3.07685 7.38734 3 8 3C9.92183 3 11.6744 3.75619 13.0035 5L13 5C12.1331 5 11.3307 5.27574 10.6756 5.7443C10.0334 4.98348 9.07282 4.5 8 4.5C7.84104 4.5 7.68454 4.51061 7.53117 4.53117ZM7.17617 6.17617L9.10135 8.10135C9.03503 8.39021 9 8.69101 9 9C9 9.23783 9.02076 9.47081 9.06056 9.69722C8.75338 9.88918 8.38997 10 8 10C6.893 10 6 9.107 6 8C6 7.18694 6.48173 6.48931 7.17617 6.17617Z" fill="#AFB1B3"/>
<path fill-rule="evenodd" clip-rule="evenodd" d="M2 1L1 2L9.17552 10.1755C9.06141 9.80383 9 9.40909 9 9C9 8.69101 9.03503 8.39021 9.10135 8.10135L2 1Z" fill="#AFB1B3"/>
<path fill-rule="evenodd" clip-rule="evenodd" d="M14 11.8292C15.1652 11.4174 16 10.3062 16 8.99995C16 7.69373 15.1652 6.58249 14 6.17065V8.99995H12V6.17065C10.8348 6.58249 10 7.69373 10 8.99995C10 10.3062 10.8348 11.4174 12 11.8292V15C12 15.5523 12.4477 16 13 16C13.5523 16 14 15.5523 14 15V11.8292Z" fill="#3592C4"/>
</svg>
