<svg width="16" height="16" viewBox="0 0 16 16" fill="none" xmlns="http://www.w3.org/2000/svg">
<path fill-rule="evenodd" clip-rule="evenodd" d="M1 8C2.1 5.073 4.818 3 8 3C9.92183 3 11.6744 3.75619 13.0035 5C13.0023 5 13.0012 5 13 5C12.1331 5 11.3307 5.27574 10.6756 5.7443C10.0334 4.98348 9.07282 4.5 8 4.5C6.068 4.5 4.5 6.068 4.5 8C4.50027 8.92818 4.8691 9.81826 5.52542 10.4746C6.18174 11.1309 7.07182 11.4997 8 11.5C8.57735 11.5 9.1222 11.36 9.60241 11.112C9.92664 11.6325 10.3671 12.0731 10.8876 12.3974C9.99864 12.7856 9.02331 13 8 13C4.818 13 2.1 10.927 1 8ZM9.63186 6.8414C9.23195 7.46411 9 8.20497 9 9C9 9.23783 9.02076 9.47081 9.06056 9.69722C8.75338 9.88918 8.38997 10 8 10C6.893 10 6 9.107 6 8C6 6.893 6.893 6 8 6C8.67468 6 9.26988 6.33171 9.63186 6.8414Z" fill="#6E6E6E"/>
<path fill-rule="evenodd" clip-rule="evenodd" d="M14 11.8292C15.1652 11.4174 16 10.3062 16 8.99995C16 7.69373 15.1652 6.58249 14 6.17065V8.99995H12V6.17065C10.8348 6.58249 10 7.69373 10 8.99995C10 10.3062 10.8348 11.4174 12 11.8292V15C12 15.5523 12.4477 16 13 16C13.5523 16 14 15.5523 14 15V11.8292Z" fill="#389FD6"/>
</svg>
