<svg width="16" height="16" viewBox="0 0 16 16" fill="none" xmlns="http://www.w3.org/2000/svg">
<path fill-rule="evenodd" clip-rule="evenodd" d="M8 3C4.818 3 2.1 5.073 1 8C2.1 10.927 4.818 13 8 13C11.182 13 13.9 10.927 15 8C13.9 5.073 11.182 3 8 3ZM8 11.5C7.07182 11.4997 6.18174 11.1309 5.52542 10.4746C4.8691 9.81826 4.50027 8.92818 4.5 8C4.5 6.068 6.068 4.5 8 4.5C9.932 4.5 11.5 6.068 11.5 8C11.5 9.932 9.932 11.5 8 11.5ZM8 6C6.893 6 6 6.893 6 8C6 9.107 6.893 10 8 10C9.107 10 10 9.107 10 8C10 6.893 9.107 6 8 6Z" fill="#6E6E6E"/>
</svg>
