<svg width="16" height="16" viewBox="0 0 16 16" fill="none" xmlns="http://www.w3.org/2000/svg"><g clip-path="url(#clip0_2626_705)" fill="#6E6E6E"><path d="M11 2a1 1 0 1 0-2 0v3a1 1 0 1 0 2 0V2z"/><path d="M13.033 4.096a1 1 0 1 0-1.147-1.639L9.43 4.178a1 1 0 1 0 1.147 1.639l2.457-1.721zM7 2a1 1 0 0 0-2 0v3a1 1 0 1 0 2 0V2z"/><path d="M4.12 2.46a1 1 0 1 0-1.146 1.638l2.457 1.72A1 1 0 1 0 6.578 4.18L4.121 2.46zM2.33 5.723a1 1 0 0 0-.939 1.766l2.65 1.408a1 1 0 0 0 .938-1.766L2.33 5.723z"/><path d="M1.384 8.48a1 1 0 1 0 .908 1.782l2.673-1.361a1 1 0 1 0-.908-1.782L1.384 8.48zM13.634 5.723a1 1 0 1 1 .938 1.765l-2.648 1.409a1 1 0 1 1-.94-1.766l2.65-1.408z"/><path d="M14.58 8.48a1 1 0 0 1-.908 1.782L10.999 8.9a1 1 0 0 1 .907-1.782L14.58 8.48zM7 11a1 1 0 1 0-2 0v3a1 1 0 1 0 2 0v-3z"/><path d="M6.573 11.822a1 1 0 1 0-1.147-1.639l-2.458 1.721a1 1 0 0 0 1.147 1.638l2.458-1.72zM11 11a1 1 0 1 0-2 0v3a1 1 0 1 0 2 0v-3z"/><path d="M10.58 10.181a1 1 0 0 0-1.146 1.639l2.457 1.72a1 1 0 1 0 1.147-1.638l-2.457-1.72zM9.002 6.498h-2a.5.5 0 0 0-.5.5v2a.5.5 0 0 0 .5.5h2a.5.5 0 0 0 .5-.5v-2a.5.5 0 0 0-.5-.5z"/></g><defs><clipPath id="clip0_2626_705"><path fill="#fff" d="M0 0h16v16H0z"/></clipPath></defs></svg>