<!--
  - Copyright (C) 2025 The Android Open Source Project
  -
  - Licensed under the Apache License, Version 2.0 (the "License");
  - you may not use this file except in compliance with the License.
  - You may obtain a copy of the License at
  -
  -      http://www.apache.org/licenses/LICENSE-2.0
  -
  - Unless required by applicable law or agreed to in writing, software
  - distributed under the License is distributed on an "AS IS" BASIS,
  - WITHOUT WARRANTIES OR CONDITIONS OF ANY KIND, either express or implied.
  - See the License for the specific language governing permissions and
  - limitations under the License.
  -->
<svg width="16" height="16" viewBox="0 0 16 16" fill="none" xmlns="http://www.w3.org/2000/svg"><path fill-rule="evenodd" clip-rule="evenodd" d="M2 5a2 2 0 012-2h7a2 2 0 012 2v3h-1V5a1 1 0 00-1-1H4a1 1 0 00-1 1v5a1 1 0 001 1h5v1H4a2 2 0 01-2-2V5z" fill="#6C707E"/><path fill-rule="evenodd" clip-rule="evenodd" d="M10 7l5 5h-3l-2 2V7z" fill="#6C707E"/><path fill="#6C707E" d="M10.906 10.537l.913-.408 2.041 4.564-.912.408z"/></svg>