<!--
  - Copyright (C) 2025 The Android Open Source Project
  -
  - Licensed under the Apache License, Version 2.0 (the "License");
  - you may not use this file except in compliance with the License.
  - You may obtain a copy of the License at
  -
  -      http://www.apache.org/licenses/LICENSE-2.0
  -
  - Unless required by applicable law or agreed to in writing, software
  - distributed under the License is distributed on an "AS IS" BASIS,
  - WITHOUT WARRANTIES OR CONDITIONS OF ANY KIND, either express or implied.
  - See the License for the specific language governing permissions and
  - limitations under the License.
  -->
<svg width="16" height="16" viewBox="0 0 16 16" fill="none" xmlns="http://www.w3.org/2000/svg"><rect x="3" y="8" width="2" height="1" rx=".5" transform="rotate(-90 3 8)" fill="#6C707E"/><path fill-rule="evenodd" clip-rule="evenodd" d="M15.807 6.189a.634.634 0 010 .911L8.74 14l-3.547-3.463a.634.634 0 010-.911.671.671 0 01.934 0l2.613 2.551 6.133-5.988a.671.671 0 01.934 0z" fill="#208A3C"/><path fill-rule="evenodd" clip-rule="evenodd" d="M2 3h12v2h1V3a1 1 0 00-1-1H2a1 1 0 00-1 1v8a1 1 0 001 1h2v-1H2V3z" fill="#6C707E"/></svg>