<svg width="16" height="16" viewBox="0 0 16 16" fill="none" xmlns="http://www.w3.org/2000/svg"><rect x="3" y="8" width="2" height="1" rx=".5" transform="rotate(-90 3 8)" fill="#6C707E"/><path fill-rule="evenodd" clip-rule="evenodd" d="M15.807 6.189a.634.634 0 010 .911L8.74 14l-3.547-3.463a.634.634 0 010-.911.671.671 0 01.934 0l2.613 2.551 6.133-5.988a.671.671 0 01.934 0z" fill="#208A3C"/><path fill-rule="evenodd" clip-rule="evenodd" d="M2 3h12v2h1V3a1 1 0 00-1-1H2a1 1 0 00-1 1v8a1 1 0 001 1h2v-1H2V3z" fill="#6C707E"/></svg>