<svg width="16" height="16" viewBox="0 0 16 16" fill="none" xmlns="http://www.w3.org/2000/svg"><path fill-rule="evenodd" clip-rule="evenodd" d="M11 7V3H5v10h2v1H5a1 1 0 01-1-1V3a1 1 0 011-1h6a1 1 0 011 1v4h-1z" fill="#CED0D6"/><rect x="7" y="4" width="2" height="1" rx=".5" fill="#CED0D6"/><path d="M11.998 13a1 1 0 100-2 1 1 0 000 2z" fill="#CED0D6"/><path fill-rule="evenodd" clip-rule="evenodd" d="M13.12 15.676a.5.5 0 01-.469.324h-1.307a.5.5 0 01-.468-.324l-.25-.666a.5.5 0 00-.55-.317l-.7.116a.5.5 0 01-.515-.243l-.654-1.132a.5.5 0 01.047-.568l.451-.548a.5.5 0 000-.636l-.451-.548a.5.5 0 01-.047-.568l.653-1.132a.5.5 0 01.516-.243l.7.116a.5.5 0 00.55-.317l.25-.666A.5.5 0 0111.344 8h1.307a.5.5 0 01.469.324l.249.666a.5.5 0 00.55.317l.701-.116a.5.5 0 01.515.243l.654 1.132a.5.5 0 01-.047.568l-.452.548a.5.5 0 000 .636l.452.548a.5.5 0 01.047.568l-.654 1.132a.5.5 0 01-.515.243l-.7-.116a.5.5 0 00-.551.317l-.25.666zM11.69 15h.615l.128-.34a1.5 1.5 0 011.65-.954l.36.06.306-.532-.23-.281a1.5 1.5 0 010-1.906l.23-.281-.307-.532-.359.06a1.5 1.5 0 01-1.65-.953L12.305 9h-.614l-.128.34a1.5 1.5 0 01-1.65.954l-.36-.06-.307.532.232.281a1.5 1.5 0 010 1.906l-.232.281.307.532.36-.06a1.5 1.5 0 011.65.953l.128.341z" fill="#CED0D6"/><path fill-rule="evenodd" clip-rule="evenodd" d="M12.309 15h-.614l-.128-.34a1.5 1.5 0 00-1.65-.954l-.36.06-.307-.532.231-.281a1.5 1.5 0 000-1.906l-.231-.281.307-.532.36.06a1.5 1.5 0 001.65-.953L11.695 9h.614l.127.34a1.5 1.5 0 001.651.954l.36-.06.306.532-.231.281a1.5 1.5 0 000 1.906l.231.281-.307.532-.359-.06a1.5 1.5 0 00-1.65.953l-.128.341zm.693-3a1 1 0 11-2 0 1 1 0 012 0z" fill="#43454A"/></svg>