<svg width="16" height="16" viewBox="0 0 16 16" fill="none" xmlns="http://www.w3.org/2000/svg"><g clip-path="url(#clip0_5662_415)"><rect x="7" y="4" width="2" height="1" rx=".5" fill="#CED0D6"/><path fill-rule="evenodd" clip-rule="evenodd" d="M11 8V3H5v10h3v1H5a1 1 0 01-1-1V3a1 1 0 011-1h6a1 1 0 011 1v5h-1z" fill="#CED0D6"/><path fill-rule="evenodd" clip-rule="evenodd" d="M11 9.5a.5.5 0 01.5-.5h3a.5.5 0 01.5.5v3a.5.5 0 01-1 0v-1.736L10.764 14H12.5a.5.5 0 010 1h-3a.5.5 0 01-.5-.5v-3a.5.5 0 011 0v1.85L13.35 10H11.5a.5.5 0 01-.5-.5z" fill="#548AF7"/></g><defs><clipPath id="clip0_5662_415"><path fill="#fff" d="M0 0h16v16H0z"/></clipPath></defs></svg>