<svg width="16" height="16" viewBox="0 0 16 16" fill="none" xmlns="http://www.w3.org/2000/svg"><path fill-rule="evenodd" clip-rule="evenodd" d="M4.033 2h7.949a1 1 0 011 1v5h1V3a2 2 0 00-2-2H4.033a2 2 0 00-2 2v10a2 2 0 002 2H8v-1H4.033a1 1 0 01-1-1v-2H8v-1H3.033V3a1 1 0 011-1zM8 12h-.5a.5.5 0 000 1H8v-1z" fill="#6C707E"/><path fill-rule="evenodd" clip-rule="evenodd" d="M11 9.5a.5.5 0 01.5-.5h3a.5.5 0 01.5.5v3a.5.5 0 01-1 0v-1.736L10.764 14H12.5a.5.5 0 010 1h-3a.5.5 0 01-.5-.5v-3a.5.5 0 011 0v1.85L13.35 10H11.5a.5.5 0 01-.5-.5z" fill="#3574F0"/></svg>