<svg width="16" height="16" viewBox="0 0 16 16" fill="none" xmlns="http://www.w3.org/2000/svg"><path fill-rule="evenodd" clip-rule="evenodd" d="M2 3.5A1.5 1.5 0 013.5 2h9A1.5 1.5 0 0114 3.5V8h-1V3.5a.5.5 0 00-.5-.5h-4v1.5a.5.5 0 01-1 0V3h-4a.5.5 0 00-.5.5v9a.5.5 0 00.5.5H8v1H3.5A1.5 1.5 0 012 12.5v-9zm5.5 3a.5.5 0 011 0v2a.5.5 0 01-1 0v-2z" fill="#CED0D6"/><path fill-rule="evenodd" clip-rule="evenodd" d="M11 9.5a.5.5 0 01.5-.5h3a.5.5 0 01.5.5v3a.5.5 0 01-1 0v-1.736L10.764 14H12.5a.5.5 0 010 1h-3a.5.5 0 01-.5-.5v-3a.5.5 0 011 0v1.85L13.35 10H11.5a.5.5 0 01-.5-.5z" fill="#548AF7"/></svg>