<svg width="16" height="16" viewBox="0 0 16 16" fill="none" xmlns="http://www.w3.org/2000/svg"><path d="M4.752 2.566a.5.5 0 0 1 .496.868l-.496-.868zM1.5 8.5H2h-.5zm4.121 4.515a.5.5 0 0 1-.242.97l.242-.97zM2.5 3a.5.5 0 0 1 0-1v1zm3-.5V2H6v.5h-.5zm.5 3a.5.5 0 0 1-1 0h1zM5 3l.248.434a.427.427 0 0 0-.029.017 7.037 7.037 0 0 0-.47.318c-.309.23-.722.568-1.133 1.01C2.787 5.666 2 6.925 2 8.5H1c0-1.925.963-3.416 1.884-4.404A9.364 9.364 0 0 1 4.58 2.672a5.314 5.314 0 0 1 .168-.103l.003-.002h.001L5 3zM2 8.5c0 1.804.891 2.918 1.8 3.6a5.946 5.946 0 0 0 1.791.907l.026.007.005.001-.122.485-.122.485h-.002l-.004-.002-.012-.003-.041-.011a6.336 6.336 0 0 1-.636-.226A6.948 6.948 0 0 1 3.2 12.9C2.109 12.082 1 10.696 1 8.5h1zM2.5 2h3v1h-3V2zm3.5.5v3H5v-3h1z" fill="#3574F0"/><path d="M14.5 3v10a.5.5 0 0 1-.5.5H8a.5.5 0 0 1-.5-.5V3a.5.5 0 0 1 .5-.5h6a.5.5 0 0 1 .5.5z" stroke="#6C707E" stroke-linecap="round"/><rect x="10" y="4" width="2" height="1" rx=".5" fill="#6C707E"/></svg>