<svg width="16" height="16" viewBox="0 0 16 16" fill="none" xmlns="http://www.w3.org/2000/svg"><path d="M4.252 2.566a.5.5 0 0 1 .496.868l-.496-.868zM1 8.5h.5H1zm4.121 4.515a.5.5 0 0 1-.242.97l.242-.97zM2 3a.5.5 0 0 1 0-1v1zm3-.5V2h.5v.5H5zm.5 3a.5.5 0 0 1-1 0h1zM4.5 3l.248.434a.427.427 0 0 0-.029.017 7.037 7.037 0 0 0-.47.318c-.309.23-.722.568-1.133 1.01C2.287 5.666 1.5 6.925 1.5 8.5h-1c0-1.925.963-3.416 1.884-4.404A9.364 9.364 0 0 1 4.08 2.672a5.314 5.314 0 0 1 .168-.103l.003-.002h.001L4.5 3zm-3 5.5c0 1.804.891 2.918 1.8 3.6a5.946 5.946 0 0 0 1.791.907l.026.007.005.001L5 13.5l-.122.485h-.002l-.004-.002-.012-.003-.041-.011a6.336 6.336 0 0 1-.636-.226A6.948 6.948 0 0 1 2.7 12.9C1.609 12.082.5 10.696.5 8.5h1zM2 2h3v1H2V2zm3.5.5v3h-1v-3h1z" fill="#4285F4"/><path d="M7 3v10a.5.5 0 0 0 .5.5h6a.5.5 0 0 0 .5-.5V3a.5.5 0 0 0-.5-.5h-6A.5.5 0 0 0 7 3z" stroke="#CED0D6" stroke-linecap="round"/><circle cx=".75" cy=".75" r=".75" transform="matrix(-1 0 0 1 11.25 10.5)" fill="#CED0D6"/></svg>