<svg width="22" height="22" viewBox="0 0 22 22" fill="none" xmlns="http://www.w3.org/2000/svg"><path d="M5.75 8.25h10.5v9.25c0 .69-.56 1.25-1.25 1.25H7c-.69 0-1.25-.56-1.25-1.25V8.25z" stroke="#6C707E" stroke-width="1.5"/><mask id="a" fill="#fff"><path d="M4 6a1 1 0 0 1 1-1h12a1 1 0 0 1 1 1v3H4V6z"/></mask><path d="M4 6a1 1 0 0 1 1-1h12a1 1 0 0 1 1 1v3H4V6z" stroke="#6C707E" stroke-width="3" mask="url(#a)"/><path d="M7.75 4.5c0-.69.56-1.25 1.25-1.25h4c.69 0 1.25.56 1.25 1.25v1.25h-6.5V4.5z" stroke="#6C707E" stroke-width="1.5"/><path d="M9 11v5M13 11v5" stroke="#6C707E" stroke-width="1.5" stroke-linecap="round"/></svg>