<svg width="22" height="22" viewBox="0 0 22 22" fill="none" xmlns="http://www.w3.org/2000/svg"><path d="M16.002 3.988a.75.75 0 0 0-.754 1.297l.754-1.297zM20 11.636h-.75.75zm-5.185 5.637a.75.75 0 1 0 .37 1.454l-.37-1.454zM18.75 4.75a.75.75 0 0 0 0-1.5v1.5zM15 4v-.75h-.75V4H15zm-.75 3.818a.75.75 0 0 0 1.5 0h-1.5zm1.375-3.182c-.377.649-.377.649-.378.648a.813.813 0 0 1 .034.02l.121.078c.108.07.265.178.456.321.383.288.893.715 1.402 1.27 1.023 1.117 1.99 2.694 1.99 4.663h1.5c0-2.484-1.22-4.407-2.385-5.677a11.903 11.903 0 0 0-2.141-1.832A6.883 6.883 0 0 0 16.023 4l-.014-.008-.004-.002-.002-.001-.378.647zm3.625 7c0 2.257-1.092 3.645-2.205 4.495a7.27 7.27 0 0 1-2.063 1.092 4.314 4.314 0 0 1-.164.05h-.005.001L15 18a78.618 78.618 0 0 0 .187.726h.002l.005-.002.016-.004a3.801 3.801 0 0 0 .238-.072 8.77 8.77 0 0 0 2.507-1.325c1.387-1.059 2.795-2.852 2.795-5.687h-1.5zm-.5-8.386H15v1.5h3.75v-1.5zm-4.5.75v3.818h1.5V4h-1.5z" fill="#CED0D6"/><circle cx="7.5" cy="14.46" r="1" fill="#CED0D6"/><mask id="a" fill="#fff"><rect x="2" y="3" width="11" height="16" rx="1"/></mask><rect x="2" y="3" width="11" height="16" rx="1" stroke="#CED0D6" stroke-width="3" mask="url(#a)"/></svg>