<svg width="22" height="22" viewBox="0 0 22 22" fill="none" xmlns="http://www.w3.org/2000/svg"><path d="M15.752 3.738a.75.75 0 0 0-.754 1.297l.754-1.297zm3.998 7.648H19h.75zm-5.185 5.637a.75.75 0 1 0 .37 1.454l-.37-1.454zM18.5 4.5a.75.75 0 0 0 0-1.5v1.5zm-3.75-.75V3H14v.75h.75zM14 7.568a.75.75 0 0 0 1.5 0H14zm1.375-3.182c-.377.649-.377.649-.378.648a.813.813 0 0 1 .034.02l.121.078c.108.07.265.178.456.321.383.288.893.715 1.402 1.27C18.033 7.84 19 9.417 19 11.386h1.5c0-2.484-1.22-4.407-2.385-5.677a11.903 11.903 0 0 0-2.141-1.832 6.883 6.883 0 0 0-.201-.127l-.014-.008-.004-.002-.002-.001-.378.647zm3.625 7c0 2.257-1.092 3.645-2.205 4.495a7.27 7.27 0 0 1-2.063 1.092 4.314 4.314 0 0 1-.164.05h-.005.001l.186.727a78.618 78.618 0 0 0 .187.726h.002l.005-.002.016-.004a3.801 3.801 0 0 0 .238-.072 8.77 8.77 0 0 0 2.507-1.325c1.387-1.059 2.795-2.852 2.795-5.687H19zM18.5 3h-3.75v1.5h3.75V3zm-4.5.75v3.818h1.5V3.75H14z" fill="#6C707E"/><rect x="1.75" y="3.75" width="9.5" height="14.5" rx="1.25" stroke="#6C707E" stroke-width="1.5"/><rect x="5" y="6" width="3" height="1.5" rx=".75" fill="#6C707E"/></svg>