<svg width="16" height="16" fill="none" xmlns="http://www.w3.org/2000/svg"><g clip-path="url(#clip0)" fill-rule="evenodd" clip-rule="evenodd" fill="#6E6E6E"><path d="M11.045 2.687c2.198 1.038 3.771 3.16 4.014 5.677h1.008C15.724 4.24 12.262 1 8.033 1l-.443.02 2.561 2.55.894-.883zM.707 5.95a1 1 0 0 0 0 1.414l7.778 7.778a1 1 0 0 0 1.414 0l4.243-4.242a1 1 0 0 0 0-1.415L6.364 1.707a1 1 0 0 0-1.414 0L.707 5.95zM6.364 3.12L2.121 7.364l6.364 6.364 4.243-4.243-6.364-6.364z"/></g><defs><clipPath id="clip0"><path d="M0 0h16v16H0V0z" fill="#fff"/></clipPath></defs></svg>