<svg width="16" height="16" fill="none" xmlns="http://www.w3.org/2000/svg"><rect x="-.707" width="6" height="12" rx=".5" transform="scale(-1 1) rotate(-45 -.757 20.607)" stroke="#6E6E6E"/><mask id="a" fill="#fff"><path fill-rule="evenodd" clip-rule="evenodd" d="M2.079 8.005A6 6 0 0 1 9 1.084L8.083 2h-.088a5 5 0 0 0-4.999 5.088l-.917.917z"/></mask><path fill-rule="evenodd" clip-rule="evenodd" d="M2.079 8.005A6 6 0 0 1 9 1.084L8.083 2h-.088a5 5 0 0 0-4.999 5.088l-.917.917z" fill="#6E6E6E"/><path d="M2.079 8.005l.707.707-1.37 1.37-.323-1.911.986-.166zM9 1.084l.166-.986 1.912.322-1.37 1.37L9 1.085zM8.083 2l.707.707-.3.3L8.066 3l.017-1zM2.996 7.088l1-.017.007.424-.3.3-.707-.707zM1.093 8.17A7.04 7.04 0 0 1 .995 7h2c0 .286.024.567.07.839l-1.972.332zM.995 7a7 7 0 0 1 7-7v2a5 5 0 0 0-5 5h-2zm7-7c.399 0 .79.033 1.171.098L8.834 2.07A5.04 5.04 0 0 0 7.995 2V0zm1.712 1.79l-.917.918-1.414-1.414.917-.917L9.707 1.79zM7.995 1H8.1l-.034 2h-.07V1zm-6 6a6 6 0 0 1 6-6v2a4 4 0 0 0-4 4h-2zm.001.105V7h2v.07l-2 .035zm1.707.69l-.917.917-1.414-1.414.917-.917 1.414 1.414z" fill="#6E6E6E" mask="url(#a)"/><mask id="b" fill="#fff"><path fill-rule="evenodd" clip-rule="evenodd" d="M4.546 2.09A5.973 5.973 0 0 1 7.996 1c.342 0 .677.029 1.004.084l-2.73 2.73L4.546 2.09z"/></mask><path fill-rule="evenodd" clip-rule="evenodd" d="M4.546 2.09A5.973 5.973 0 0 1 7.996 1c.342 0 .677.029 1.004.084l-2.73 2.73L4.546 2.09z" fill="#6E6E6E"/><path d="M4.546 2.09l-.707.707-.84-.84.972-.685.575.818zM9 1.084l.166-.986 1.912.322-1.37 1.37L9 1.085zm-2.73 2.73l.707.707-.707.707-.707-.707.707-.707zm-2.3-2.542A6.972 6.972 0 0 1 7.996 0v2c-1.07 0-2.06.336-2.873.908L3.97 1.272zM7.996 0c.399 0 .79.033 1.171.098L8.834 2.07A5.04 5.04 0 0 0 7.995 2V0zm1.712 1.79l-2.73 2.73-1.414-1.413 2.73-2.73L9.707 1.79zM5.563 4.52L3.839 2.798l1.414-1.414 1.724 1.724L5.563 4.52z" fill="#6E6E6E" mask="url(#b)"/></svg>