<svg width="16" height="16" fill="none" xmlns="http://www.w3.org/2000/svg"><g clip-path="url(#clip0)" fill-rule="evenodd" clip-rule="evenodd" fill="#AFB1B3"><path d="M4.955 2.687C2.757 3.725 1.184 5.847.942 8.364H-.067C.276 4.24 3.738 1 7.967 1l.443.02L5.85 3.57l-.894-.883zM15.293 5.95a1 1 0 0 1 0 1.414l-7.778 7.778a1 1 0 0 1-1.414 0L1.858 10.9a1 1 0 0 1 0-1.415l7.778-7.778a1 1 0 0 1 1.414 0l4.243 4.243zM9.636 3.12l4.243 4.243-6.364 6.364-4.243-4.243 6.364-6.364z"/></g><defs><clipPath id="clip0"><path d="M16 0H0v16h16V0z" fill="#fff"/></clipPath></defs></svg>