<svg width="16" height="16" fill="none" xmlns="http://www.w3.org/2000/svg"><rect x=".707" y="6" width="6" height="12" rx=".5" transform="rotate(-45 .707 6)" stroke="#6E6E6E"/><mask id="a" fill="#fff"><path fill-rule="evenodd" clip-rule="evenodd" d="M13.921 8.005A6 6 0 0 0 7 1.084L7.917 2h.088a5 5 0 0 1 4.999 5.088l.917.917z"/></mask><path fill-rule="evenodd" clip-rule="evenodd" d="M13.921 8.005A6 6 0 0 0 7 1.084L7.917 2h.088a5 5 0 0 1 4.999 5.088l.917.917z" fill="#6E6E6E"/><path d="M13.921 8.005l-.707.707 1.37 1.37.323-1.911-.986-.166zM7 1.084L6.834.098 4.922.42l1.37 1.37L7 1.085zM7.917 2l-.707.707.3.3L7.934 3l-.017-1zm5.087 5.087l-1-.017-.007.424.3.3.707-.707zm1.903 1.083c.064-.381.098-.773.098-1.171h-2c0 .286-.024.567-.07.839l1.972.332zM15.005 7a7 7 0 0 0-7-7v2a5 5 0 0 1 5 5h2zm-7-7c-.399 0-.79.033-1.171.098l.332 1.972A5.04 5.04 0 0 1 8.005 2V0zM6.293 1.79l.917.918 1.414-1.414-.917-.917L6.293 1.79zM8.005 1H7.9l.034 2h.07V1zm6 6a6 6 0 0 0-6-6v2a4 4 0 0 1 4 4h2zm-.001.105V7h-2v.07l2 .035zm-1.707.69l.917.917 1.414-1.414-.917-.917-1.414 1.414z" fill="#6E6E6E" mask="url(#a)"/><mask id="b" fill="#fff"><path fill-rule="evenodd" clip-rule="evenodd" d="M11.454 2.09A5.973 5.973 0 0 0 8.004 1 6.04 6.04 0 0 0 7 1.084l2.73 2.73 1.724-1.724z"/></mask><path fill-rule="evenodd" clip-rule="evenodd" d="M11.454 2.09A5.973 5.973 0 0 0 8.004 1 6.04 6.04 0 0 0 7 1.084l2.73 2.73 1.724-1.724z" fill="#6E6E6E"/><path d="M11.454 2.09l.707.707.84-.84-.972-.685-.575.818zM7 1.084L6.834.098 4.922.42l1.37 1.37L7 1.085zm2.73 2.73l-.707.707.707.707.707-.707-.707-.707zm2.3-2.542A6.973 6.973 0 0 0 8.004 0v2c1.07 0 2.06.336 2.873.908l1.151-1.636zM8.004 0c-.399 0-.79.033-1.171.098l.332 1.972a5.04 5.04 0 0 1 .84-.07V0zM6.293 1.79l2.73 2.73 1.414-1.413-2.73-2.73L6.293 1.79zm4.144 2.73l1.724-1.723-1.414-1.414-1.724 1.724 1.414 1.414z" fill="#6E6E6E" mask="url(#b)"/></svg>