<svg width="16" height="16" viewBox="0 0 16 16" fill="none" xmlns="http://www.w3.org/2000/svg">
<path fill-rule="evenodd" clip-rule="evenodd" d="M8 11H7V7H11V8H8V11Z" fill="#AFB1B3"/>
<path fill-rule="evenodd" clip-rule="evenodd" d="M5.32149 1.5325C6.17049 1.18017 7.08079 0.999195 8 1C9.38447 1 10.7378 1.41055 11.889 2.17972C13.0401 2.94889 13.9373 4.04214 14.4672 5.32122C14.997 6.6003 15.1356 8.00777 14.8655 9.36563C14.5954 10.7235 13.9287 11.9708 12.9497 12.9497C11.9708 13.9287 10.7235 14.5954 9.36563 14.8655C8.00776 15.1356 6.6003 14.997 5.32122 14.4672C4.04213 13.9373 2.94888 13.0401 2.17971 11.889C1.5972 11.0172 1.22038 10.0294 1.07179 9H3.10102C3.23003 9.632 3.48077 10.2363 3.84265 10.7779C4.39206 11.6001 5.17295 12.241 6.08658 12.6194C7.00021 12.9978 8.00555 13.0969 8.97545 12.9039C9.94536 12.711 10.8363 12.2348 11.5355 11.5355C12.2348 10.8363 12.711 9.94536 12.9039 8.97545C13.0969 8.00555 12.9978 7.00022 12.6194 6.08659C12.241 5.17296 11.6001 4.39206 10.7779 3.84265C9.95561 3.29325 8.98891 3 8 3C7.3444 3.00062 6.69548 3.13181 6.09112 3.38591C5.48676 3.64002 4.93907 4.01195 4.48 4.48L7 7L4 7L1 7V1L3.053 3.053C3.70154 2.40158 4.47249 1.88484 5.32149 1.5325Z" fill="#AFB1B3"/>
</svg>
