<!--
  - Copyright (C) 2025 The Android Open Source Project
  -
  - Licensed under the Apache License, Version 2.0 (the "License");
  - you may not use this file except in compliance with the License.
  - You may obtain a copy of the License at
  -
  -      http://www.apache.org/licenses/LICENSE-2.0
  -
  - Unless required by applicable law or agreed to in writing, software
  - distributed under the License is distributed on an "AS IS" BASIS,
  - WITHOUT WARRANTIES OR CONDITIONS OF ANY KIND, either express or implied.
  - See the License for the specific language governing permissions and
  - limitations under the License.
  -->
<svg width="16" height="16" viewBox="0 0 16 16" fill="none" xmlns="http://www.w3.org/2000/svg"><path d="M7.558 11.234v-.496a2.724 2.724 0 014.21-2.283" stroke="#3574F0" stroke-linecap="round"/><path d="M6.302 9.894l.983 1.53 1.53-.984M13.025 10.477v.496a2.724 2.724 0 01-4.21 2.283" stroke="#3574F0" stroke-linecap="round"/><path d="M14.281 11.817l-.983-1.53-1.53.984" stroke="#3574F0" stroke-linecap="round"/><path fill-rule="evenodd" clip-rule="evenodd" d="M4 3h4a1 1 0 011 1v2h1V4a2 2 0 00-2-2H4a2 2 0 00-2 2v8a2 2 0 002 2h2v-1H4a1 1 0 01-1-1V4a1 1 0 011-1z" fill="#6C707E"/></svg>