<!--
  - Copyright (C) 2025 The Android Open Source Project
  -
  - Licensed under the Apache License, Version 2.0 (the "License");
  - you may not use this file except in compliance with the License.
  - You may obtain a copy of the License at
  -
  -      http://www.apache.org/licenses/LICENSE-2.0
  -
  - Unless required by applicable law or agreed to in writing, software
  - distributed under the License is distributed on an "AS IS" BASIS,
  - WITHOUT WARRANTIES OR CONDITIONS OF ANY KIND, either express or implied.
  - See the License for the specific language governing permissions and
  - limitations under the License.
  -->
<svg width="16" height="16" viewBox="0 0 16 16" fill="none" xmlns="http://www.w3.org/2000/svg"><mask id="a" fill="#fff"><path d="M4 4a2 2 0 012-2h4a2 2 0 012 2v8a2 2 0 01-2 2H6a2 2 0 01-2-2V4z"/></mask><path d="M6 3h4V1H6v2zm5 1v8h2V4h-2zm-1 9H6v2h4v-2zm-5-1V4H3v8h2zm1 1a1 1 0 01-1-1H3a3 3 0 003 3v-2zm5-1a1 1 0 01-1 1v2a3 3 0 003-3h-2zm-1-9a1 1 0 011 1h2a3 3 0 00-3-3v2zM6 1a3 3 0 00-3 3h2a1 1 0 011-1V1z" fill="#6C707E" mask="url(#a)"/></svg>