<!--
  - Copyright (C) 2025 The Android Open Source Project
  -
  - Licensed under the Apache License, Version 2.0 (the "License");
  - you may not use this file except in compliance with the License.
  - You may obtain a copy of the License at
  -
  -      http://www.apache.org/licenses/LICENSE-2.0
  -
  - Unless required by applicable law or agreed to in writing, software
  - distributed under the License is distributed on an "AS IS" BASIS,
  - WITHOUT WARRANTIES OR CONDITIONS OF ANY KIND, either express or implied.
  - See the License for the specific language governing permissions and
  - limitations under the License.
  -->
<svg width="16" height="16" viewBox="0 0 16 16" fill="none" xmlns="http://www.w3.org/2000/svg"><path fill-rule="evenodd" clip-rule="evenodd" d="M8 6.5a.5.5 0 01.5-.5h5a.5.5 0 010 1h-5a.5.5 0 01-.5-.5zM10 8.5c0-.276.18-.5.4-.5h3.2c.22 0 .4.224.4.5s-.18.5-.4.5h-3.2c-.22 0-.4-.224-.4-.5zM10 10.5c0-.276.18-.5.4-.5h3.2c.22 0 .4.224.4.5s-.18.5-.4.5h-3.2c-.22 0-.4-.224-.4-.5z" fill="#CED0D6"/><path fill-rule="evenodd" clip-rule="evenodd" d="M5.66 7.604a.5.5 0 01.708-.708l2.236 2.236.353.354-.353.353-2.236 2.236a.5.5 0 01-.707-.707l1.366-1.366H5a3.001 3.001 0 010-6.002h.034v1h-.034a2.001 2.001 0 100 4.002h2.058L5.661 7.604z" fill="#548AF7"/></svg>