<!--
  - Copyright (C) 2025 The Android Open Source Project
  -
  - Licensed under the Apache License, Version 2.0 (the "License");
  - you may not use this file except in compliance with the License.
  - You may obtain a copy of the License at
  -
  -      http://www.apache.org/licenses/LICENSE-2.0
  -
  - Unless required by applicable law or agreed to in writing, software
  - distributed under the License is distributed on an "AS IS" BASIS,
  - WITHOUT WARRANTIES OR CONDITIONS OF ANY KIND, either express or implied.
  - See the License for the specific language governing permissions and
  - limitations under the License.
  -->
<svg width="16" height="16" viewBox="0 0 16 16" fill="none" xmlns="http://www.w3.org/2000/svg"><path fill-rule="evenodd" clip-rule="evenodd" d="M7.84 6.604a.5.5 0 10-.708-.708L4.896 8.132l-.353.354.353.353 2.236 2.236a.5.5 0 10.707-.707L6.471 9h4.548a2.001 2.001 0 010 4.002h-.035v1h.035a3.001 3.001 0 000-6.002H6.443l1.396-1.396z" fill="#548AF7"/><path fill-rule="evenodd" clip-rule="evenodd" d="M4 3h4a1 1 0 011 1v3h1V4a2 2 0 00-2-2H4a2 2 0 00-2 2v8a2 2 0 002 2h4a2 2 0 002-2v-2H9v2a1 1 0 01-1 1H4a1 1 0 01-1-1V4a1 1 0 011-1z" fill="#CED0D6"/></svg>