<svg width="16" height="16" viewBox="0 0 16 16" fill="none" xmlns="http://www.w3.org/2000/svg"><rect x="11" y="8" width="3" height="3" rx="1" fill="#CED0D6"/><rect x="11" y="12" width="3" height="3" rx="1" fill="#CED0D6"/><rect x="7" y="5" width="1" height="9" rx=".5" fill="#CED0D6"/><rect x="7" y="9" width="5" height="1" rx=".5" fill="#CED0D6"/><rect x="11" y="4" width="3" height="3" rx="1" fill="#CED0D6"/><rect x="7" y="5" width="5" height="1" rx=".5" fill="#CED0D6"/><rect x="7" y="13" width="5" height="1" rx=".5" fill="#CED0D6"/><path fill-rule="evenodd" clip-rule="evenodd" d="M4 2h4a1 1 0 011 1v1h1V3a2 2 0 00-2-2H4a2 2 0 00-2 2v8a2 2 0 002 2h2v-1H4a1 1 0 01-1-1V3a1 1 0 011-1z" fill="#CED0D6"/></svg>