<svg width="16" height="16" viewBox="0 0 16 16" xmlns="http://www.w3.org/2000/svg"><rect width="16" height="16" fill="none"/><g fill="none" fill-rule="evenodd"><path d="M15 8h-1.4a5.603 5.603 0 0 0-3.5-5.187V3.1c0 .77-.63 1.4-1.4 1.4H7.3v1.4c0 .385-.315.7-.7.7H5.2V8h4.2c.385 0 .7.315.7.7V10H9v4h2v.326A7.003 7.003 0 0 1 1 8c0-3.864 3.136-7 7-7s7 3.136 7 7zm-7.7 5.551V12.2c-.77 0-1.4-.63-1.4-1.4v-.7L2.547 6.747A5.683 5.683 0 0 0 2.4 8a5.592 5.592 0 0 0 4.9 5.551z" fill="#6E6E6E"/><path fill="#59A869" d="M14 11h2v2h-2v2h-2v-2h-2v-2h2V9h2z"/></g></svg>