<svg width="16" height="16" viewBox="0 0 16 16" xmlns="http://www.w3.org/2000/svg"><rect width="16" height="16" fill="none"/><g fill="none" fill-rule="evenodd"><path fill="#FFF" d="M8 13l4 3H4zM0 11h1v1H0zM3 11h2v1H3zM7 11h2v1H7zM11 11h2v1h-2zM15 11h1v1h-1zM6.087 8.882c-.063-.121-.117-.32-.164-.594A2.209 2.209 0 0 1 4.26 9c-.636 0-1.155-.182-1.557-.547A1.756 1.756 0 0 1 2.1 7.099c0-.68.25-1.2.752-1.563s1.219-.545 2.152-.545h.872v-.418c0-.33-.092-.593-.275-.791-.184-.199-.463-.298-.837-.298-.324 0-.59.082-.796.245a.758.758 0 0 0-.31.62H2.234c0-.349.115-.675.345-.98.23-.304.544-.542.94-.715a3.285 3.285 0 0 1 1.326-.259c.741 0 1.333.188 1.774.562.44.375.667.902.679 1.581v2.873c0 .573.08 1.03.24 1.371v.1H6.087zm-1.563-1.03c.28 0 .545-.069.793-.206.248-.137.434-.322.56-.553V5.892h-.768c-.527 0-.923.092-1.188.277a.898.898 0 0 0-.398.782c0 .275.09.494.272.657.181.163.424.244.729.244zm9.823-2.09c0 .99-.22 1.776-.658 2.36-.44.586-1.043.878-1.812.878-.742 0-1.32-.269-1.733-.806l-.07.688H8.786V0h1.422v3.125c.41-.486.962-.73 1.657-.73.773 0 1.38.289 1.82.866.442.576.662 1.383.662 2.419v.082zm-1.422-.123c0-.69-.121-1.209-.363-1.554-.242-.346-.593-.518-1.054-.518-.617 0-1.05.27-1.3.812v2.625c.254.554.691.83 1.312.83.445 0 .788-.166 1.03-.5.242-.333.367-.838.375-1.513V5.64z"/><path d="M0 0h16v16H0z"/></g></svg>