<svg width="16" height="16" viewBox="0 0 16 16" xmlns="http://www.w3.org/2000/svg"><rect width="16" height="16" fill="none"/><g fill="none" fill-rule="evenodd"><path fill="#AFB1B3" d="M8 13l4 3H4zM0 11h1v1H0zM3 11h2v1H3zM7 11h2v1H7zM15 11h1v1h-1zM5 4.991V5h1l1.299 1.299V7.41c0 .573.08 1.03.24 1.371v.1H6.087c-.063-.121-.117-.32-.164-.594A2.209 2.209 0 0 1 4.26 9c-.636 0-1.155-.182-1.557-.547A1.756 1.756 0 0 1 2.1 7.099c0-.68.25-1.2.752-1.563C3.353 5.173 4.07 4.992 5 4.99zm-.496-1.487a1.136 1.136 0 0 0-.536.225.758.758 0 0 0-.31.62H2.234c0-.349.115-.675.345-.98a2.303 2.303 0 0 1 1.035-.754l.889.889zm7.494 5.494L8.786 5.786V0h1.422v3.125c.41-.486.962-.73 1.657-.73.773 0 1.38.289 1.82.866.442.576.662 1.383.662 2.419v.082c0 .99-.22 1.776-.658 2.36-.416.555-.98.846-1.691.876zm-2.116-.116H8.786V7.786l1.096 1.096zm-5.358-1.03c.28 0 .545-.069.793-.206.248-.137.434-.322.56-.553V5.892h-.768c-.527 0-.923.092-1.188.277a.898.898 0 0 0-.398.782c0 .275.09.494.272.657.181.163.424.244.729.244zm8.4-2.213c0-.69-.12-1.209-.362-1.554-.242-.346-.593-.518-1.054-.518-.617 0-1.05.27-1.3.812v2.625c.254.554.691.83 1.312.83.445 0 .788-.166 1.03-.5.242-.333.367-.838.375-1.513V5.64z"/><path d="M0 0h16v16H0z"/><path fill="#AFB1B3" d="M2 1L1 2l13 13 1-1z"/></g></svg>