<svg width="16" height="16" viewBox="0 0 16 16" xmlns="http://www.w3.org/2000/svg"><rect width="16" height="16" fill="none"/><g fill="none" fill-rule="evenodd"><path d="M2.016 12.22h2.068A2.246 2.246 0 0 0 6.327 9.98V5.99a3.748 3.748 0 0 1 3.756-3.741H12v1.5h-1.917a2.248 2.248 0 0 0-2.256 2.241V9.98a3.746 3.746 0 0 1-3.743 3.741H2.016v-1.5z" fill="#6E6E6E"/><circle fill="#6E6E6E" transform="matrix(-1 0 0 1 4 0)" cx="2" cy="13" r="2"/><circle fill="#6E6E6E" transform="matrix(-1 0 0 1 24 0)" cx="12" cy="3" r="2"/><path d="M14 12l2 2-1 1-2-2-2 2-1-1 2-2-2-2 1-1 2 2 2-2 1 1-2 2z" fill="#DB5860"/></g></svg>