<svg width="16" height="16" viewBox="0 0 16 16" xmlns="http://www.w3.org/2000/svg"><rect width="16" height="16" fill="none"/><g fill="none" fill-rule="evenodd"><path d="M10 10H1V4h9z"/><path d="M9.347 6.264c-.46 0-.83.323-.85.721L8.5 7c0 .825-.674 1.5-1.5 1.5H4c-.825 0-1.5-.675-1.5-1.5S3.175 5.5 4 5.5h1.034A4.013 4.013 0 0 1 6.12 4H4C2.35 4 1 5.35 1 7s1.35 3 3 3h3c1.65 0 3-1.35 3-3 0-.256-.041-.5-.103-.736h-.55z" fill="#AFB1B3"/><path d="M14 9.159V7h-.578c0-.825-.675-1.5-1.5-1.5h-3a1.5 1.5 0 0 0-1.484 1.347c-.025.393-.391.71-.846.71H5.98A2.923 2.923 0 0 1 5.92 7c0-1.65 1.35-3 3-3h3c1.65 0 3 1.35 3 3 0 .845-.353 1.612-.921 2.159z" fill="#AFB1B3"/><path fill="#AFB1B3" d="M11 8h2v6h-2z"/><path fill="#AFB1B3" d="M9 10h6v2H9z"/></g></svg>