<!--
  - Copyright (C) 2025 The Android Open Source Project
  -
  - Licensed under the Apache License, Version 2.0 (the "License");
  - you may not use this file except in compliance with the License.
  - You may obtain a copy of the License at
  -
  -      http://www.apache.org/licenses/LICENSE-2.0
  -
  - Unless required by applicable law or agreed to in writing, software
  - distributed under the License is distributed on an "AS IS" BASIS,
  - WITHOUT WARRANTIES OR CONDITIONS OF ANY KIND, either express or implied.
  - See the License for the specific language governing permissions and
  - limitations under the License.
  -->
<svg width="16" height="16" viewBox="0 0 16 16" fill="none" xmlns="http://www.w3.org/2000/svg"><rect x="12" y="9" width="1" height="5" rx=".5" fill="#57965C"/><path d="M10 11.5a.5.5 0 01.5-.5h4a.5.5 0 010 1h-4a.5.5 0 01-.5-.5z" fill="#57965C"/><path clip-rule="evenodd" d="M3 14a2 2 0 110-4 2 2 0 010 4zM13 6a2 2 0 110-4 2 2 0 010 4z" stroke="#CED0D6"/><path d="M11 4h-1a2 2 0 00-2 2v4a2 2 0 01-2 2H5" stroke="#CED0D6"/></svg>