<svg width="16" height="16" viewBox="0 0 16 16" xmlns="http://www.w3.org/2000/svg"><rect width="16" height="16" fill="none"/><g fill="none" fill-rule="evenodd"><circle fill="#AFB1B3" transform="matrix(-1 0 0 1 4 0)" cx="2" cy="13" r="2"/><circle fill="#AFB1B3" transform="matrix(-1 0 0 1 24 0)" cx="12" cy="3" r="2"/><path d="M2.016 12.22h2.068A2.246 2.246 0 0 0 6.327 9.98V5.99a3.748 3.748 0 0 1 3.756-3.741H12v1.5h-1.917a2.248 2.248 0 0 0-2.256 2.241V9.98a3.746 3.746 0 0 1-3.743 3.741H2.016v-1.5z" fill="#AFB1B3"/><g fill="#499C54"><path d="M12 9h2v6h-2z"/><path d="M10 11h6v2h-6z"/></g></g></svg>