<svg width="16" height="16" viewBox="0 0 16 16" xmlns="http://www.w3.org/2000/svg"><rect width="16" height="16" fill="none"/><g fill="none" fill-rule="evenodd"><path d="M10.427 7.321L3.57 14.177-1 9.607 5.855 2.75z"/><path d="M7.083 4.973c-.35.35-.386.878-.097 1.196l.013.01a1.62 1.62 0 0 1 0 2.285L4.713 10.75a1.62 1.62 0 0 1-2.285 0 1.62 1.62 0 0 1 0-2.286l.788-.787A4.323 4.323 0 0 1 2.9 5.706L1.285 7.322a3.242 3.242 0 0 0 0 4.57 3.242 3.242 0 0 0 4.571 0l2.285-2.285a3.242 3.242 0 0 0 0-4.57 3.103 3.103 0 0 0-.639-.483l-.419.419z" fill="#FFF"/><path d="M7.32 1.286L5.035 3.572a3.242 3.242 0 0 0 0 4.57c.145.146.305.269.47.38l.465-.466c.346-.346.383-.866.103-1.185a1.615 1.615 0 0 1 .105-2.157L8.463 2.43a1.62 1.62 0 0 1 2.285 0 1.62 1.62 0 0 1 0 2.285l-.878.879c.263.627.359 1.302.314 1.971l1.707-1.707a3.242 3.242 0 0 0 0-4.57 3.242 3.242 0 0 0-4.57 0M8.828 12.536L7.414 13.95l1.414 1.414 1.415-1.414 1.414 1.414v-4.243H7.414l1.414 1.415z" fill="#FFF"/><path d="M12.646 8.44l1.415-1.415 1.414 1.414-1.414 1.415 1.414 1.414h-4.243V7.025l1.414 1.414z" fill="#FFF"/></g></svg>