<svg width="16" height="16" viewBox="0 0 16 16" xmlns="http://www.w3.org/2000/svg"><rect width="16" height="16" fill="none"/><g fill="none" fill-rule="evenodd"><path d="M12.243 8.536l-2.829 2.828 1.414 1.414 2.829-2.828 1.414 1.414V7.121h-4.243l1.415 1.415z" fill="#6E6E6E"/><path d="M8.536 12.243l2.828-2.829 1.414 1.414-2.828 2.829 1.414 1.414H7.121v-4.243l1.415 1.415z" fill="#6E6E6E"/><path d="M10.427 7.321L3.57 14.177-1 9.607 5.855 2.75z"/><path d="M7.083 4.973c-.35.35-.386.878-.097 1.196l.013.01a1.62 1.62 0 0 1 0 2.285L4.713 10.75a1.62 1.62 0 0 1-2.285 0 1.62 1.62 0 0 1 0-2.286l.788-.787A4.323 4.323 0 0 1 2.9 5.706L1.285 7.322a3.242 3.242 0 0 0 0 4.57 3.242 3.242 0 0 0 4.571 0l2.285-2.285a3.242 3.242 0 0 0 0-4.57 3.103 3.103 0 0 0-.639-.483l-.419.419z" fill="#6E6E6E"/><path d="M7.32 1.286L5.035 3.572a3.242 3.242 0 0 0 0 4.57c.145.146.305.269.47.38l.465-.466c.346-.346.383-.866.103-1.185a1.615 1.615 0 0 1 .105-2.157L8.463 2.43a1.62 1.62 0 0 1 2.285 0 1.62 1.62 0 0 1 0 2.285l-.878.879c.263.627.359 1.302.314 1.971l1.707-1.707a3.242 3.242 0 0 0 0-4.57 3.242 3.242 0 0 0-4.57 0" fill="#6E6E6E"/></g></svg>