<!--
  - Copyright (C) 2025 The Android Open Source Project
  -
  - Licensed under the Apache License, Version 2.0 (the "License");
  - you may not use this file except in compliance with the License.
  - You may obtain a copy of the License at
  -
  -      http://www.apache.org/licenses/LICENSE-2.0
  -
  - Unless required by applicable law or agreed to in writing, software
  - distributed under the License is distributed on an "AS IS" BASIS,
  - WITHOUT WARRANTIES OR CONDITIONS OF ANY KIND, either express or implied.
  - See the License for the specific language governing permissions and
  - limitations under the License.
  -->
<svg width="16" height="16" viewBox="0 0 16 16" fill="none" xmlns="http://www.w3.org/2000/svg"><g clip-path="url(#clip0_189_31)" fill-rule="evenodd" clip-rule="evenodd" fill="#6C707E"><path d="M1.728 7.762a3.128 3.128 0 004.423 4.423l1.878-1.878a3.101 3.101 0 00.324-4.004c-.162-.224-.483-.222-.678-.027-.195.196-.189.51-.045.746.494.809.391 1.879-.309 2.578l-1.877 1.878a2.128 2.128 0 01-3.01-3.01L3.52 7.386a.5.5 0 00-.707-.707L1.728 7.762zm9.359-.513l.61-.61a3.128 3.128 0 10-4.424-4.423L5.43 4.06a3.15 3.15 0 00-.324 4.072c.162.224.483.222.678.027.195-.195.189-.51.044-.745a2.15 2.15 0 01.31-2.647L7.98 2.923a2.128 2.128 0 113.01 3.01l-.61.61a.5.5 0 00.707.706zM11.59 14.06a.5.5 0 11-1 0v-1.248l-1.602 1.602a.5.5 0 11-.707-.707l1.602-1.602H8.629a.5.5 0 110-1h2.961v2.956zM11.591 8.151a.5.5 0 111 0v1.248l1.602-1.601a.5.5 0 11.707.707l-1.602 1.602h1.254a.5.5 0 010 1h-2.96V8.15z"/></g><defs><clipPath id="clip0_189_31"><path fill="#fff" d="M0 0h16v16H0z"/></clipPath></defs></svg>