<svg width="16" height="16" viewBox="0 0 16 16" fill="none" xmlns="http://www.w3.org/2000/svg"><mask id="a" fill="#fff"><path d="M2 4a1 1 0 011-1h10a1 1 0 011 1v7a1 1 0 01-1 1H3a1 1 0 01-1-1V4z"/></mask><path d="M3 4h10V2H3v2zm10 0v7h2V4h-2zm0 7H3v2h10v-2zM3 11V4H1v7h2zm0 0H1a2 2 0 002 2v-2zm10 0v2a2 2 0 002-2h-2zm0-7h2a2 2 0 00-2-2v2zM3 2a2 2 0 00-2 2h2V2z" fill="#CED0D6" mask="url(#a)"/><path d="M6 4h4a1 1 0 01-1 1H7a1 1 0 01-1-1z" fill="#CED0D6"/><path d="M6 4h4a1 1 0 01-1 1H7a1 1 0 01-1-1z" fill="#CED0D6"/><rect x="1" y="13" width="14" height="1" rx=".5" fill="#CED0D6"/></svg>