<!--
  - Copyright (C) 2025 The Android Open Source Project
  -
  - Licensed under the Apache License, Version 2.0 (the "License");
  - you may not use this file except in compliance with the License.
  - You may obtain a copy of the License at
  -
  -      http://www.apache.org/licenses/LICENSE-2.0
  -
  - Unless required by applicable law or agreed to in writing, software
  - distributed under the License is distributed on an "AS IS" BASIS,
  - WITHOUT WARRANTIES OR CONDITIONS OF ANY KIND, either express or implied.
  - See the License for the specific language governing permissions and
  - limitations under the License.
  -->
<svg width="16" height="16" viewBox="0 0 16 16" fill="none" xmlns="http://www.w3.org/2000/svg"><path d="M2 12.5h5M4 14.5l-2.256-1.805a.25.25 0 010-.39L4 10.5M14 12.5H9M12 14.5l2.256-1.805a.25.25 0 000-.39L12 10.5" stroke="#548AF7" stroke-linecap="round"/><path d="M4 1.5H2a.5.5 0 00-.5.5v6a.5.5 0 00.5.5h2a.5.5 0 00.5-.5V2a.5.5 0 00-.5-.5zM9 1.5H7a.5.5 0 00-.5.5v6a.5.5 0 00.5.5h2a.5.5 0 00.5-.5V2a.5.5 0 00-.5-.5zM14 1.5h-2a.5.5 0 00-.5.5v6a.5.5 0 00.5.5h2a.5.5 0 00.5-.5V2a.5.5 0 00-.5-.5z" stroke="#CED0D6" stroke-linecap="round"/></svg>