<!--
  - Copyright (C) 2025 The Android Open Source Project
  -
  - Licensed under the Apache License, Version 2.0 (the "License");
  - you may not use this file except in compliance with the License.
  - You may obtain a copy of the License at
  -
  -      http://www.apache.org/licenses/LICENSE-2.0
  -
  - Unless required by applicable law or agreed to in writing, software
  - distributed under the License is distributed on an "AS IS" BASIS,
  - WITHOUT WARRANTIES OR CONDITIONS OF ANY KIND, either express or implied.
  - See the License for the specific language governing permissions and
  - limitations under the License.
  -->
<svg width="16" height="16" viewBox="0 0 16 16" fill="none" xmlns="http://www.w3.org/2000/svg"><path d="M3.5 2.5H2a.5.5 0 00-.5.5v10a.5.5 0 00.5.5h1.5M12.5 2.5H14a.5.5 0 01.5.5v10a.5.5 0 01-.5.5h-1.5" stroke="#CED0D6" stroke-linecap="round"/><path d="M4.5 5a.5.5 0 01.5-.5h6a.5.5 0 01.5.5v6a.5.5 0 01-.5.5H5a.5.5 0 01-.5-.5V5z" stroke="#CED0D6"/></svg>