<svg width="16" height="16" viewBox="0 0 16 16" xmlns="http://www.w3.org/2000/svg"><rect width="16" height="16" fill="none"/><g fill="#AFB1B3" fill-rule="evenodd"><path d="M8 3C4.364 3 1.258 5.262 0 8.455c1.258 3.192 4.364 5.454 8 5.454s6.742-2.262 8-5.454C14.742 5.262 11.636 3 8 3zm0 9.09a3.638 3.638 0 0 1-3.636-3.635A3.638 3.638 0 0 1 8 4.818a3.638 3.638 0 0 1 3.636 3.637A3.638 3.638 0 0 1 8 12.09z"/><path d="M8 6.273a2.179 2.179 0 0 0-2.182 2.182c0 1.207.975 2.181 2.182 2.181a2.179 2.179 0 0 0 2.182-2.181A2.179 2.179 0 0 0 8 6.273z"/></g></svg>