<!--
  - Copyright (C) 2025 The Android Open Source Project
  -
  - Licensed under the Apache License, Version 2.0 (the "License");
  - you may not use this file except in compliance with the License.
  - You may obtain a copy of the License at
  -
  -      http://www.apache.org/licenses/LICENSE-2.0
  -
  - Unless required by applicable law or agreed to in writing, software
  - distributed under the License is distributed on an "AS IS" BASIS,
  - WITHOUT WARRANTIES OR CONDITIONS OF ANY KIND, either express or implied.
  - See the License for the specific language governing permissions and
  - limitations under the License.
  -->
<svg width="16" height="16" viewBox="0 0 16 16" fill="none" xmlns="http://www.w3.org/2000/svg"><path fill-rule="evenodd" clip-rule="evenodd" d="M7.5 1.5a.5.5 0 011 0V3h-1V1.5zm0 5.5h1v2h-1V7zm0 6v1.5a.5.5 0 001 0V13h-1z" fill="#3574F0"/><path d="M4.5 4.5a1 1 0 011-1h5a1 1 0 011 1v1a1 1 0 01-1 1h-5a1 1 0 01-1-1v-1zM2.5 10.5a1 1 0 011-1h9a1 1 0 011 1v1a1 1 0 01-1 1h-9a1 1 0 01-1-1v-1z" stroke="#6C707E"/></svg>