<!--
  - Copyright (C) 2025 The Android Open Source Project
  -
  - Licensed under the Apache License, Version 2.0 (the "License");
  - you may not use this file except in compliance with the License.
  - You may obtain a copy of the License at
  -
  -      http://www.apache.org/licenses/LICENSE-2.0
  -
  - Unless required by applicable law or agreed to in writing, software
  - distributed under the License is distributed on an "AS IS" BASIS,
  - WITHOUT WARRANTIES OR CONDITIONS OF ANY KIND, either express or implied.
  - See the License for the specific language governing permissions and
  - limitations under the License.
  -->
<svg width="16" height="16" viewBox="0 0 16 16" fill="none" xmlns="http://www.w3.org/2000/svg"><path d="M4.5 4a.5.5 0 01.5-.5h6a.5.5 0 01.5.5v2a.5.5 0 01-.5.5H5a.5.5 0 01-.5-.5V4zM2.5 10a.5.5 0 01.5-.5h10a.5.5 0 01.5.5v2a.5.5 0 01-.5.5H3a.5.5 0 01-.5-.5v-2z" stroke="#6C707E"/><path fill-rule="evenodd" clip-rule="evenodd" d="M7.5 1.5a.5.5 0 011 0v1.88h-1V1.5zm0 4.938h1V9.47h-1V6.438zm0 6.09V14.5a.5.5 0 001 0v-1.972h-1z" fill="#6C707E"/></svg>