<svg width="16" height="16" viewBox="0 0 16 16" xmlns="http://www.w3.org/2000/svg"><rect width="16" height="16" fill="none"/><g fill="none" fill-rule="evenodd"><path fill="#389FD6" d="M13.51 10.318l-.72.719-1.438-1.44.719-.718z"/><path fill="#3592C4" d="M13.51 10.317l-.72.72-1.438-1.439.719-.72z"/><path fill="#389FD6" d="M12.071 3.122l.719.72 1.439-1.44-.72-.718z"/><path fill="#3592C4" d="M13.51 1.683l.718.72L12.79 3.84l-.72-.719zM9 3h1V1H9z"/><path fill="#389FD6" d="M4.877 3.123l.719-.72 1.439 1.439-.72.719z"/><path fill="#3592C4" d="M4.877 3.122l.719-.719 1.439 1.438-.72.72z"/><path d="M1 13l2 2 9-9-2-2-9 9zm7-6l2-2 1 1-2 2-1-1z" fill="#AFB1B3"/><path fill="#3592C4" d="M13 7h2V6h-2z"/></g></svg>