<svg width="16" height="16" viewBox="0 0 16 16" xmlns="http://www.w3.org/2000/svg"><rect width="16" height="16" fill="none"/><g fill="none" fill-rule="evenodd"><path d="M5 10V1h6v9z"/><path d="M8.736 9.347c0-.46-.323-.83-.721-.85L8 8.5c-.825 0-1.5-.674-1.5-1.5V4c0-.825.675-1.5 1.5-1.5s1.5.675 1.5 1.5v1.034c.585.239 1.09.618 1.5 1.087V4c0-1.65-1.35-3-3-3S5 2.35 5 4v3c0 1.65 1.35 3 3 3 .256 0 .5-.041.736-.103v-.55z" fill="#6E6E6E"/><path d="M11 11.922v-3c0-1.65-1.35-3-3-3-.191 0-.376.024-.557.059v.61c0 .456.317.822.71.847A1.5 1.5 0 0 1 9.5 8.922v3c0 .825-.675 1.5-1.5 1.5s-1.5-.675-1.5-1.5v-1.153A4.024 4.024 0 0 1 5 9.68v2.24c0 1.65 1.35 3 3 3s3-1.35 3-3" fill="#6E6E6E"/></g></svg>