<svg width="16" height="16" viewBox="0 0 16 16" fill="none" xmlns="http://www.w3.org/2000/svg"><circle cx="8" cy="8" r="6.5" stroke="#CED0D6"/><path d="M10.7 8c0 1.873-.375 3.548-.931 4.738-.28.595-.594 1.05-.912 1.347-.318.298-.608.415-.857.415s-.54-.117-.857-.415c-.318-.298-.633-.752-.911-1.347C5.675 11.548 5.3 9.873 5.3 8c0-1.873.375-3.548.932-4.738.278-.595.593-1.05.911-1.347.318-.298.608-.415.857-.415s.54.117.857.415c.318.298.633.752.912 1.347.556 1.19.931 2.865.931 4.738zM14 6.51H1.956M14 10.466H2" stroke="#CED0D6"/></svg>