<!--
  - Copyright (C) 2025 The Android Open Source Project
  -
  - Licensed under the Apache License, Version 2.0 (the "License");
  - you may not use this file except in compliance with the License.
  - You may obtain a copy of the License at
  -
  -      http://www.apache.org/licenses/LICENSE-2.0
  -
  - Unless required by applicable law or agreed to in writing, software
  - distributed under the License is distributed on an "AS IS" BASIS,
  - WITHOUT WARRANTIES OR CONDITIONS OF ANY KIND, either express or implied.
  - See the License for the specific language governing permissions and
  - limitations under the License.
  -->
<svg width="16" height="16" viewBox="0 0 16 16" fill="none" xmlns="http://www.w3.org/2000/svg"><path fill-rule="evenodd" clip-rule="evenodd" d="M2 1.5a.5.5 0 00-1 0v13a.5.5 0 001 0v-13z" fill="#6C707E"/><path d="M10.5 4a.5.5 0 00-.5-.5H5a.5.5 0 00-.5.5v2a.5.5 0 00.5.5h5a.5.5 0 00.5-.5V4zM14.5 10a.5.5 0 00-.5-.5H5a.5.5 0 00-.5.5v2a.5.5 0 00.5.5h9a.5.5 0 00.5-.5v-2z" stroke="#6C707E"/></svg>