<!--
  - Copyright (C) 2025 The Android Open Source Project
  -
  - Licensed under the Apache License, Version 2.0 (the "License");
  - you may not use this file except in compliance with the License.
  - You may obtain a copy of the License at
  -
  -      http://www.apache.org/licenses/LICENSE-2.0
  -
  - Unless required by applicable law or agreed to in writing, software
  - distributed under the License is distributed on an "AS IS" BASIS,
  - WITHOUT WARRANTIES OR CONDITIONS OF ANY KIND, either express or implied.
  - See the License for the specific language governing permissions and
  - limitations under the License.
  -->
<svg width="16" height="16" viewBox="0 0 16 16" fill="none" xmlns="http://www.w3.org/2000/svg"><path fill-rule="evenodd" clip-rule="evenodd" d="M4.262 4.148a3.25 3.25 0 00-3.25 3.25v.5a3.25 3.25 0 003.25 3.25h2.5a3.25 3.25 0 003.25-3.25v-.226a.5.5 0 00-1 0v.226a2.25 2.25 0 01-2.25 2.25h-2.5a2.25 2.25 0 01-2.25-2.25v-.5a2.25 2.25 0 012.25-2.25h.79a.5.5 0 000-1h-.79zm10.25 3.508c.276 0 .503-.225.464-.498a3.5 3.5 0 00-3.464-3.002h-2a3.5 3.5 0 00-3.465 3.002c-.04.273.189.498.465.498s.494-.226.549-.497a2.5 2.5 0 012.45-2.003h2a2.5 2.5 0 012.451 2.003c.055.271.274.497.55.497zM12.898 13.705a.5.5 0 11-.707-.707l.883-.883h-2.586a.5.5 0 110-1h2.586l-.886-.886a.5.5 0 11.707-.707l1.74 1.74a.5.5 0 010 .707l-1.737 1.736z" fill="#6C707E"/></svg>