<svg width="16" height="16" viewBox="0 0 16 16" xmlns="http://www.w3.org/2000/svg"><rect width="16" height="16" fill="none"/><g fill="none" fill-rule="evenodd"><path d="M10.799 13A3.011 3.011 0 0 1 8 14.922c-1.65 0-3-1.35-3-3V9.68c.41.469.916.849 1.5 1.088v1.153c0 .825.675 1.5 1.5 1.5.403 0 .77-.161 1.04-.422H10.8zM9.5 10V8.922a1.5 1.5 0 0 0-1.347-1.484c-.393-.025-.71-.391-.71-.846V5.98c.181-.035.366-.06.557-.06a3.01 3.01 0 0 1 2.974 2.605L9.5 10z" fill="#6E6E6E"/><path d="M5 10V1h6v9z"/><path d="M8.736 9.347c0-.46-.323-.83-.721-.85L8 8.5c-.825 0-1.5-.674-1.5-1.5V4c0-.825.675-1.5 1.5-1.5s1.5.675 1.5 1.5v1.034c.585.239 1.09.618 1.5 1.087V4c0-1.65-1.35-3-3-3S5 2.35 5 4v3c0 1.65 1.35 3 3 3 .256 0 .5-.041.736-.103v-.55zM14 12v3h-2v-3h-2l3-3 3 3h-2z" fill="#6E6E6E"/></g></svg>