<svg width="16" height="16" viewBox="0 0 16 16" xmlns="http://www.w3.org/2000/svg"><rect width="16" height="16" fill="none"/><g fill="none" fill-rule="evenodd"><path d="M10 10H1V4h9z"/><path d="M9.347 6.264h.55c.062.236.103.48.103.736 0 1.65-1.35 3-3 3H4c-1.65 0-3-1.35-3-3s1.35-3 3-3h2.12c-.468.41-.847.915-1.086 1.5H4c-.825 0-1.5.675-1.5 1.5S3.175 8.5 4 8.5h3c.826 0 1.5-.675 1.498-1.515.019-.398.39-.72.849-.72z" fill="#AFB1B3"/><path d="M14.51 8.51l-1.136-1.136A1.504 1.504 0 0 0 11.922 5.5h-3a1.5 1.5 0 0 0-1.484 1.347c-.025.393-.391.71-.846.71H5.98A2.923 2.923 0 0 1 5.92 7c0-1.65 1.35-3 3-3h3c1.65 0 3 1.35 3 3 0 .55-.15 1.067-.41 1.51zM10 10h-.32c.284-.248.535-.53.742-.845L10 10z" fill="#AFB1B3"/><path d="M15 11l-3 3V8l3 3zm-3 1H9v-2h3v2z" fill="#AFB1B3"/></g></svg>