<svg width="16" height="16" viewBox="0 0 16 16" xmlns="http://www.w3.org/2000/svg"><rect width="16" height="16" fill="none"/><g fill="none" fill-rule="evenodd"><path d="M10.985 9.733l-1.5 1.696v-2.5c0-.768-.594-1.399-1.347-1.476-.393-.025-.71-.39-.71-.842v-.608c.181-.035.366-.059.557-.059 1.65 0 3 1.344 3 2.985v.804zM10.126 14c-.545.554-1.305.9-2.141.9-1.65 0-3-1.344-3-2.986v-2.23c.41.467.916.845 1.5 1.083v1.147A1.5 1.5 0 0 0 8.98 13.03V14h1.146z" fill="#AFB1B3"/><path d="M5 10V1h6v9z"/><path d="M8.736 9.347c0-.46-.323-.83-.721-.85A1.504 1.504 0 0 1 6.5 7V4c0-.825.675-1.5 1.5-1.5s1.5.675 1.5 1.5v1.034c.585.239 1.09.618 1.5 1.087V4c0-1.65-1.35-3-3-3S5 2.35 5 4v3c0 1.65 1.35 3 3 3 .256 0 .5-.041.736-.103v-.55zM13 15l-3-3h6l-3 3zm-1-3V9h2v3h-2z" fill="#AFB1B3"/></g></svg>