<svg width="16" height="16" viewBox="0 0 16 16" xmlns="http://www.w3.org/2000/svg"><rect width="16" height="16" fill="none"/><g fill="none" fill-rule="evenodd"><path d="M10 10H1V4h9z"/><path d="M9.347 6.264h.55c.062.236.103.48.103.736 0 1.65-1.35 3-3 3H4c-1.65 0-3-1.35-3-3s1.35-3 3-3h2.12c-.468.41-.847.915-1.086 1.5H4c-.825 0-1.5.675-1.5 1.5S3.175 8.5 4 8.5h3c.826 0 1.5-.675 1.498-1.515.019-.398.39-.72.849-.72z" fill="#AFB1B3"/><path d="M14.347 8.76l-1.199-.899A1.49 1.49 0 0 0 13.422 7c0-.825-.675-1.5-1.5-1.5h-3a1.5 1.5 0 0 0-1.484 1.347c-.025.393-.391.71-.846.71H5.98A2.923 2.923 0 0 1 5.92 7c0-1.65 1.35-3 3-3h3c1.65 0 3 1.35 3 3a2.98 2.98 0 0 1-.574 1.76z" fill="#AFB1B3"/><path d="M9 11l3 3V8l-3 3zm3 1h3v-2h-3v2z" fill="#AFB1B3"/></g></svg>