<!--
  - Copyright (C) 2025 The Android Open Source Project
  -
  - Licensed under the Apache License, Version 2.0 (the "License");
  - you may not use this file except in compliance with the License.
  - You may obtain a copy of the License at
  -
  -      http://www.apache.org/licenses/LICENSE-2.0
  -
  - Unless required by applicable law or agreed to in writing, software
  - distributed under the License is distributed on an "AS IS" BASIS,
  - WITHOUT WARRANTIES OR CONDITIONS OF ANY KIND, either express or implied.
  - See the License for the specific language governing permissions and
  - limitations under the License.
  -->
<svg width="16" height="16" viewBox="0 0 16 16" fill="none" xmlns="http://www.w3.org/2000/svg"><path d="M2 3.5h5M4 1.5L1.744 3.305a.25.25 0 000 .39L4 5.5M14 3.5H9M12 1.5l2.256 1.805a.25.25 0 010 .39L12 5.5M4 14.5H2a.5.5 0 01-.5-.5V8a.5.5 0 01.5-.5h2a.5.5 0 01.5.5v6a.5.5 0 01-.5.5zM9 14.5H7a.5.5 0 01-.5-.5V8a.5.5 0 01.5-.5h2a.5.5 0 01.5.5v6a.5.5 0 01-.5.5zM14 14.5h-2a.5.5 0 01-.5-.5V8a.5.5 0 01.5-.5h2a.5.5 0 01.5.5v6a.5.5 0 01-.5.5z" stroke="#6C707E" stroke-linecap="round"/></svg>