<svg width="16" height="16" viewBox="0 0 16 16" xmlns="http://www.w3.org/2000/svg"><rect width="16" height="16" fill="none"/><g fill="#6E6E6E" fill-rule="evenodd"><path d="M4.5 8C3.12 8 2 6.657 2 5s1.12-3 2.5-3S7 3.343 7 5 5.88 8 4.5 8zm0-1.25c.552 0 1-.784 1-1.75s-.448-1.75-1-1.75-1 .784-1 1.75.448 1.75 1 1.75zM3.5 13.5l1 1L12 3l-1-1zM11.5 14C10.12 14 9 12.657 9 11s1.12-3 2.5-3S14 9.343 14 11s-1.12 3-2.5 3zm0-1.25c.552 0 1-.784 1-1.75s-.448-1.75-1-1.75-1 .784-1 1.75.448 1.75 1 1.75z"/></g></svg>