<svg width="16" height="16" viewBox="0 0 16 16" xmlns="http://www.w3.org/2000/svg"><rect width="16" height="16" fill="none"/><g fill="none" fill-rule="evenodd"><path d="M10 10H1V4h9z"/><path d="M9.827 8H9v1.231a2.987 2.987 0 0 1-2 .77H4c-1.65 0-3-1.35-3-3s1.35-3 3-3h2.12c-.468.41-.847.914-1.086 1.5H4c-.825 0-1.5.674-1.5 1.5 0 .824.675 1.5 1.5 1.5h3c.826 0 1.5-.676 1.5-1.5l-.002-.016c.019-.398.39-.72.849-.72h.55c.062.235.103.48.103.735 0 .35-.061.687-.173 1z" fill="#6E6E6E"/><path d="M14.75 8h-1.712c.238-.266.384-.617.384-1 0-.825-.675-1.5-1.5-1.5h-3a1.5 1.5 0 0 0-1.484 1.347c-.025.393-.391.71-.846.71H5.98A2.923 2.923 0 0 1 5.92 7c0-1.65 1.35-3 3-3h3c1.65 0 3 1.35 3 3 0 .35-.06.687-.171 1z" fill="#6E6E6E"/><path d="M14 12l2 2-1 1-2-2-2 2-1-1 2-2-2-2 1-1 2 2 2-2 1 1-2 2z" fill="#DB5860"/></g></svg>