<svg width="16" height="16" viewBox="0 0 16 16" xmlns="http://www.w3.org/2000/svg"><rect width="16" height="16" fill="none"/><g fill="none" fill-rule="evenodd"><path d="M10 10V1H4v9z"/><path d="M6.264 9.347c0-.46.323-.83.721-.85L7 8.5c.825 0 1.5-.674 1.5-1.5V4c0-.825-.675-1.5-1.5-1.5S5.5 3.175 5.5 4v1.034A4.013 4.013 0 0 0 4 6.12V4c0-1.65 1.35-3 3-3s3 1.35 3 3v3c0 1.65-1.35 3-3 3-.256 0-.5-.041-.736-.103v-.55z" fill="#6E6E6E"/><path d="M8.04 13H9v1.153a2.987 2.987 0 0 1-2 .769c-1.65 0-3-1.35-3-3v-3c0-1.65 1.35-3 3-3 .191 0 .376.024.557.059v.61c0 .456-.317.822-.71.847A1.5 1.5 0 0 0 5.5 8.922v3c0 .825.675 1.5 1.5 1.5.403 0 .77-.161 1.04-.422z" fill="#6E6E6E"/><path d="M14 12l2 2-1 1-2-2-2 2-1-1 2-2-2-2 1-1 2 2 2-2 1 1-2 2z" fill="#DB5860"/></g></svg>