<!--
  - Copyright (C) 2025 The Android Open Source Project
  -
  - Licensed under the Apache License, Version 2.0 (the "License");
  - you may not use this file except in compliance with the License.
  - You may obtain a copy of the License at
  -
  -      http://www.apache.org/licenses/LICENSE-2.0
  -
  - Unless required by applicable law or agreed to in writing, software
  - distributed under the License is distributed on an "AS IS" BASIS,
  - WITHOUT WARRANTIES OR CONDITIONS OF ANY KIND, either express or implied.
  - See the License for the specific language governing permissions and
  - limitations under the License.
  -->
<svg width="16" height="16" viewBox="0 0 16 16" fill="none" xmlns="http://www.w3.org/2000/svg"><path fill-rule="evenodd" clip-rule="evenodd" d="M14 1.5a.5.5 0 011 0v13a.5.5 0 01-1 0v-13z" fill="#548AF7"/><path d="M5.5 4.5a1 1 0 011-1h4a1 1 0 011 1v1a1 1 0 01-1 1h-4a1 1 0 01-1-1v-1zM1.5 10.5a1 1 0 011-1h8a1 1 0 011 1v1a1 1 0 01-1 1h-8a1 1 0 01-1-1v-1z" stroke="#CED0D6"/></svg>