<!--
  - Copyright (C) 2025 The Android Open Source Project
  -
  - Licensed under the Apache License, Version 2.0 (the "License");
  - you may not use this file except in compliance with the License.
  - You may obtain a copy of the License at
  -
  -      http://www.apache.org/licenses/LICENSE-2.0
  -
  - Unless required by applicable law or agreed to in writing, software
  - distributed under the License is distributed on an "AS IS" BASIS,
  - WITHOUT WARRANTIES OR CONDITIONS OF ANY KIND, either express or implied.
  - See the License for the specific language governing permissions and
  - limitations under the License.
  -->
<svg width="16" height="16" viewBox="0 0 16 16" fill="none" xmlns="http://www.w3.org/2000/svg"><g clip-path="url(#clip0_189_35)"><rect x="8.166" y="14.113" width="10.806" height="6" rx=".5" transform="rotate(-120 8.166 14.113)" stroke="#CED0D6"/><path fill-rule="evenodd" clip-rule="evenodd" d="M13.406 2.007v-.001A7.554 7.554 0 0010.4.41l-.41-.09 1.707 2.968.163-.093.835-.482a6.5 6.5 0 012.073 6.641.5.5 0 00.966.259 7.5 7.5 0 00-2.327-7.606zM2.622 13.693a7.554 7.554 0 003.007 1.596l.41.09-1.708-2.967-.162.093-.835.482a6.504 6.504 0 01-2.2-6.07l.014-.074a.5.5 0 10-.983-.184l-.014.077v.005a7.504 7.504 0 002.47 6.952z" fill="#CED0D6"/></g><defs><clipPath id="clip0_189_35"><path fill="#fff" d="M0 0h16v16H0z"/></clipPath></defs></svg>