<svg width="16" height="16" viewBox="0 0 16 16" xmlns="http://www.w3.org/2000/svg"><rect width="16" height="16" fill="none"/><g fill="none" fill-rule="evenodd"><path d="M11.045 1.687c2.198 1.038 3.771 3.16 4.013 5.677h1.009C15.724 3.24 12.262 0 8.033 0L7.59.02l2.561 2.55.894-.883zm-4.201-.515a1.005 1.005 0 0 0-1.426 0L1.143 5.429a.995.995 0 0 0 0 1.42l8.08 8.046a1.005 1.005 0 0 0 1.425 0l4.276-4.257a.995.995 0 0 0 0-1.42l-8.08-8.046zm3.092 13.014l-8.08-8.047L6.13 1.88l8.08 8.047-4.275 4.258zm-4.914.194a7.022 7.022 0 0 1-4.014-5.677H0c.343 4.124 3.805 7.364 8.033 7.364l.444-.02-2.561-2.55-.894.883z" fill="#6E6E6E"/><path d="M0 0h16v16H0z"/></g></svg>