<svg width="16" height="16" viewBox="0 0 16 16" xmlns="http://www.w3.org/2000/svg"><rect width="16" height="16" fill="none"/><g fill="none" fill-rule="evenodd"><path d="M11.26 1.604A6.682 6.682 0 0 1 15.049 7H16c-.324-3.92-3.59-7-7.581-7L8 .02l2.417 2.424.844-.84zM6.842 1.29a.976.976 0 0 0-1.388 0L1.29 5.453a.976.976 0 0 0 0 1.388l7.869 7.87a.976.976 0 0 0 1.388 0l4.163-4.164a.976.976 0 0 0 0-1.388l-7.869-7.87zM9.848 14L2 6.152 6.152 2 14 9.848 9.848 14zm-5.109.396A6.673 6.673 0 0 1 .952 9H0c.324 3.92 3.59 7 7.581 7L8 15.98l-2.417-2.424-.844.84z" fill="#AFB1B3"/><path d="M0 0h16v16H0z"/></g></svg>