<svg width="16" height="16" viewBox="0 0 16 16" xmlns="http://www.w3.org/2000/svg"><rect width="16" height="16" fill="none"/><g fill="#AFB1B3" fill-rule="evenodd"><path d="M2 1L1 2l13 13 1-1z"/><path d="M14.23 11.23l-2.598-2.598a3.638 3.638 0 0 0-3.81-3.81L6.191 3.191A8.613 8.613 0 0 1 8 3c3.636 0 6.742 2.262 8 5.455a8.631 8.631 0 0 1-1.77 2.775zm-1.056.944A8.545 8.545 0 0 1 8 13.91c-3.636 0-6.742-2.262-8-5.454A8.64 8.64 0 0 1 4.67 3.67l1.59 1.59a3.637 3.637 0 1 0 4.934 4.934l1.98 1.98zM10.09 9.09A2.18 2.18 0 0 1 8 10.636a2.179 2.179 0 0 1-2.182-2.181c0-.987.651-1.818 1.548-2.09l2.723 2.724z"/></g></svg>