<!--
  - Copyright (C) 2025 The Android Open Source Project
  -
  - Licensed under the Apache License, Version 2.0 (the "License");
  - you may not use this file except in compliance with the License.
  - You may obtain a copy of the License at
  -
  -      http://www.apache.org/licenses/LICENSE-2.0
  -
  - Unless required by applicable law or agreed to in writing, software
  - distributed under the License is distributed on an "AS IS" BASIS,
  - WITHOUT WARRANTIES OR CONDITIONS OF ANY KIND, either express or implied.
  - See the License for the specific language governing permissions and
  - limitations under the License.
  -->
<svg width="16" height="16" viewBox="0 0 16 16" fill="none" xmlns="http://www.w3.org/2000/svg"><path fill-rule="evenodd" clip-rule="evenodd" d="M10 2.282v2.67a1 1 0 01-.445.831l-1 .667a1 1 0 01-1.11 0l-1-.667A1 1 0 016 4.951V2.322c-.714.47-1.5 1.34-1.5 2.897 0 1.34.55 2.195 1.242 2.728.395.304.843.508 1.276.63v1.03L7 9.603V13.5a.5.5 0 00.5.5h1a.5.5 0 00.5-.5V9.603h-.002V8.572c.428-.122.87-.325 1.26-.625C10.95 7.414 11.5 6.56 11.5 5.22c0-1.576-.803-2.49-1.5-2.937zM9 1.7c0-.415.414-.776.868-.602C10.88 1.486 12.5 2.73 12.5 5.219c0 1.66-.7 2.804-1.633 3.521a4.586 4.586 0 01-.867.523V13.5A1.5 1.5 0 018.5 15h-1A1.5 1.5 0 016 13.5V9.263a4.582 4.582 0 01-.867-.523C4.2 8.023 3.5 6.878 3.5 5.22c0-2.49 1.62-3.639 2.587-4.086.45-.207.913.142.913.589v3.23l1 .666 1-.667V1.7z" fill="#CED0D6"/></svg>