<svg width="16" height="16" viewBox="0 0 16 16" fill="none" xmlns="http://www.w3.org/2000/svg">
<path fill-rule="evenodd" clip-rule="evenodd" d="M2 1L1 2L14 15L15 14L2 1Z" fill="#AFB1B3"/>
<path fill-rule="evenodd" clip-rule="evenodd" d="M4.3261 3.32607C4.11627 3.81971 4 4.36401 4 4.9359C4 6.64145 5.03408 8.10161 6.5 8.70449V13.5C6.5 14.3284 7.17158 15 8.00002 15C8.82844 14.9999 9.5 14.3284 9.5 13.5V8.70449C9.54799 8.68475 9.59552 8.6641 9.64257 8.64254L4.3261 3.32607ZM10.8191 7.81905C11.5484 7.08288 12 6.06297 12 4.9359C12 3.04225 10.7252 1.45113 9 1V4.99995L7.99998 4.99996L10.8191 7.81905ZM7 3.99997L5.11788 2.11786C5.62363 1.58407 6.27167 1.19045 7 1V3.99997Z" fill="#AFB1B3"/>
</svg>
