<svg width="16" height="16" viewBox="0 0 16 16" fill="none" xmlns="http://www.w3.org/2000/svg">
<path fill-rule="evenodd" clip-rule="evenodd" d="M2 1L1 2L14 15L15 14L2 1Z" fill="#6E6E6E"/>
<path fill-rule="evenodd" clip-rule="evenodd" d="M4.3261 3.3261C4.11627 3.81974 4 4.36404 4 4.93594C4 6.64148 5.03408 8.10164 6.5 8.70452V13.5C6.5 14.3284 7.17158 15 8.00002 15C8.82844 15 9.5 14.3284 9.5 13.5V8.70452C9.54799 8.68478 9.59552 8.66413 9.64257 8.64257L4.3261 3.3261ZM10.8191 7.81908C11.5484 7.08291 12 6.063 12 4.93594C12 3.04228 10.7252 1.45116 9 1.00003V4.99998L7.99998 4.99999L10.8191 7.81908ZM7 4L5.11788 2.11789C5.62363 1.5841 6.27167 1.19048 7 1.00003V4Z" fill="#6E6E6E"/>
</svg>
