<svg width="16" height="16" viewBox="0 0 16 16" xmlns="http://www.w3.org/2000/svg"><rect width="16" height="16" fill="none"/><g fill="#AFB1B3" fill-rule="evenodd"><path d="M3 7c0-1.105.887-2 2-2h6c1.105 0 2 .887 2 2v6c0 1.105-.887 2-2 2H5c-1.105 0-2-.887-2-2V7zm1-.003v6.006c0 .544.446.997.997.997h6.006c.544 0 .997-.446.997-.997V6.997c0-.544-.446-.997-.997-.997H4.997C4.453 6 4 6.446 4 6.997z"/><path d="M5.041 3.5A3 3 0 0 1 11 4v2h-1c-2.616-.75-3.26-.782-3.5-.843V5H5v1h1v-.75h2.022c.625 0 1.245-.03 1.478-.093v-.95C9.5 3.266 8.828 2.5 8 2.5c-.607 0-1.13.41-1.365 1H5.04z"/><circle cx="8" cy="10" r="1.5"/></g></svg>