<!--
  - Copyright (C) 2025 The Android Open Source Project
  -
  - Licensed under the Apache License, Version 2.0 (the "License");
  - you may not use this file except in compliance with the License.
  - You may obtain a copy of the License at
  -
  -      http://www.apache.org/licenses/LICENSE-2.0
  -
  - Unless required by applicable law or agreed to in writing, software
  - distributed under the License is distributed on an "AS IS" BASIS,
  - WITHOUT WARRANTIES OR CONDITIONS OF ANY KIND, either express or implied.
  - See the License for the specific language governing permissions and
  - limitations under the License.
  -->
<svg width="16" height="16" viewBox="0 0 16 16" fill="none" xmlns="http://www.w3.org/2000/svg"><path fill-rule="evenodd" clip-rule="evenodd" d="M2 1a1 1 0 00-1 1v4a1 1 0 001 1h4a1 1 0 001-1V2a1 1 0 00-1-1H2zm4 1H2v4h4V2zM10 1a1 1 0 00-1 1v4a1 1 0 001 1h4a1 1 0 001-1V2a1 1 0 00-1-1h-4zm4 1h-4v4h4V2zM2 9a1 1 0 00-1 1v4a1 1 0 001 1h4a1 1 0 001-1v-4a1 1 0 00-1-1H2zm4 1H2v4h4v-4zM10 9a1 1 0 00-1 1v4a1 1 0 001 1h4a1 1 0 001-1v-4a1 1 0 00-1-1h-4zm4 1h-4v4h4v-4z" fill="#6C707E"/></svg>