<svg width="16" height="16" viewBox="0 0 16 16" fill="none" xmlns="http://www.w3.org/2000/svg"><g clip-path="url(#clip0_4376_1793)"><path fill-rule="evenodd" clip-rule="evenodd" d="M3 7.5H1.5a.5.5 0 000 1H3v-1zm4 1v-1h2v1H7zm7.5-1H13v1h1.5a.5.5 0 000-1z" fill="#548AF7"/><path d="M10.5 4.5a1 1 0 00-1 1v5a1 1 0 001 1h1a1 1 0 001-1v-5a1 1 0 00-1-1h-1zM4.5 2.5a1 1 0 00-1 1v9a1 1 0 001 1h1a1 1 0 001-1v-9a1 1 0 00-1-1h-1z" stroke="#CED0D6"/></g><defs><clipPath id="clip0_4376_1793"><path fill="#fff" d="M0 0h16v16H0z"/></clipPath></defs></svg>