<!--
  - Copyright (C) 2025 The Android Open Source Project
  -
  - Licensed under the Apache License, Version 2.0 (the "License");
  - you may not use this file except in compliance with the License.
  - You may obtain a copy of the License at
  -
  -      http://www.apache.org/licenses/LICENSE-2.0
  -
  - Unless required by applicable law or agreed to in writing, software
  - distributed under the License is distributed on an "AS IS" BASIS,
  - WITHOUT WARRANTIES OR CONDITIONS OF ANY KIND, either express or implied.
  - See the License for the specific language governing permissions and
  - limitations under the License.
  -->
<svg width="16" height="16" viewBox="0 0 16 16" fill="none" xmlns="http://www.w3.org/2000/svg"><path fill-rule="evenodd" clip-rule="evenodd" d="M3 7.5H1.5a.5.5 0 000 1H3v-1zm4 1v-1h2v1H7zm7.5-1H13v1h1.5a.5.5 0 000-1z" fill="#3574F0"/><path d="M10.5 4.5a1 1 0 00-1 1v5a1 1 0 001 1h1a1 1 0 001-1v-5a1 1 0 00-1-1h-1zM4.5 2.5a1 1 0 00-1 1v9a1 1 0 001 1h1a1 1 0 001-1v-9a1 1 0 00-1-1h-1z" stroke="#6C707E"/></svg>