<!--
  - Copyright (C) 2025 The Android Open Source Project
  -
  - Licensed under the Apache License, Version 2.0 (the "License");
  - you may not use this file except in compliance with the License.
  - You may obtain a copy of the License at
  -
  -      http://www.apache.org/licenses/LICENSE-2.0
  -
  - Unless required by applicable law or agreed to in writing, software
  - distributed under the License is distributed on an "AS IS" BASIS,
  - WITHOUT WARRANTIES OR CONDITIONS OF ANY KIND, either express or implied.
  - See the License for the specific language governing permissions and
  - limitations under the License.
  -->
<svg width="20" height="20" viewBox="0 0 20 20" fill="none" xmlns="http://www.w3.org/2000/svg"><path fill-rule="evenodd" clip-rule="evenodd" d="M17.74 2.146c.876.295 1.521.98 1.832 1.621.09.175.154.358.195.546a5.676 5.676 0 01.15 2.145c-.13 1.094-.589 2.379-1.698 3.692a5.954 5.954 0 00-1.539-.534c.642-.66 1.06-1.297 1.33-1.88a3.434 3.434 0 01-1.61.388c-.876 0-1.708-.365-2.464-.745-.23-.116-.453-.234-.677-.351-.561-.295-1.12-.59-1.753-.842-1.672-.668-3.74-.988-6.684.527-.07.037-.127.137-.089.256l.223.693.004.011.748 2.46c.036.096.128.194.342.241.231.051.494.01.668-.088l.01-.005a11.341 11.341 0 002.214-1.554.75.75 0 111.004 1.114 12.84 12.84 0 01-2.5 1.757 2.501 2.501 0 01-1.72.24c-.583-.128-1.195-.506-1.44-1.23l-.005-.012-.003-.011-.447-1.468a6.145 6.145 0 00-1.775 2.408c-.444 1.082-.626 2.368-.532 3.875h.634a2.676 2.676 0 014.931 0h.716a2.679 2.679 0 011.934-1.582 6.003 6.003 0 00-.239 1.734c-.18.156-.312.366-.371.607a.965.965 0 01-.934.74H6.699a.965.965 0 01-.933-.74 1.176 1.176 0 00-2.284 0 .965.965 0 01-.934.741H.926a.85.85 0 01-.845-.761c-.203-1.935-.032-3.676.588-5.184.553-1.347 1.45-2.472 2.687-3.368l-.05-.158c-.25-.773.066-1.656.83-2.05 3.376-1.738 5.902-1.395 7.927-.586.71.284 1.376.634 1.958.94.208.11.405.213.59.306.748.377 1.3.585 1.79.585.754 0 1.305-.38 1.624-.868.27-.413.33-.825.278-1.107a2.754 2.754 0 00-.075-.215l-.006-.013a1.76 1.76 0 00-.96-.853c-.383-.13-.928-.123-1.615.477a.75.75 0 11-.987-1.13c1.046-.913 2.14-1.085 3.08-.769z" fill="#6C707E"/><path fill-rule="evenodd" clip-rule="evenodd" d="M11.557 8.963c-.095-.06-.152-.172-.12-.28a1.034 1.034 0 111.668 1.071c-.086.074-.21.069-.306.008l-1.242-.799zM15.5 20a4.5 4.5 0 100-9 4.5 4.5 0 000 9zm.53-7.53a.75.75 0 00-1.06 0l-2 2a.75.75 0 101.06 1.06l.72-.72V18a.75.75 0 001.5 0v-3.19l.72.72a.75.75 0 101.06-1.06l-2-2z" fill="#6C707E"/></svg>