<!--
  - Copyright (C) 2025 The Android Open Source Project
  -
  - Licensed under the Apache License, Version 2.0 (the "License");
  - you may not use this file except in compliance with the License.
  - You may obtain a copy of the License at
  -
  -      http://www.apache.org/licenses/LICENSE-2.0
  -
  - Unless required by applicable law or agreed to in writing, software
  - distributed under the License is distributed on an "AS IS" BASIS,
  - WITHOUT WARRANTIES OR CONDITIONS OF ANY KIND, either express or implied.
  - See the License for the specific language governing permissions and
  - limitations under the License.
  -->
<svg width="16" height="16" viewBox="0 0 16 16" fill="none" xmlns="http://www.w3.org/2000/svg"><path d="M11.086 2.5H4.914a1 1 0 00-.707.293L1.642 5.358a1 1 0 00-.065 1.343l5.651 6.862a1 1 0 001.544 0l5.65-6.862a1 1 0 00-.064-1.343l-2.565-2.565a1 1 0 00-.707-.293zM1.5 6.5h13" stroke="#CED0D6" stroke-linecap="round"/><path d="M7 2.5L5.207 6.085a1 1 0 00-.024.841L8 13.5M9 2.5l1.793 3.585a1 1 0 01.024.841L8 13.5" stroke="#CED0D6" stroke-linecap="round"/></svg>