<svg width="16" height="16" viewBox="0 0 16 16" fill="none" xmlns="http://www.w3.org/2000/svg"><g clip-path="url(#clip0_4792_1396)" fill="#6C707E"><path fill-rule="evenodd" clip-rule="evenodd" d="M4 1a2 2 0 00-2 2v10a2 2 0 002 2h3.384a3.612 3.612 0 01-.33-1H4a1 1 0 01-1-1V3a1 1 0 011-1h5a1 1 0 011 1v5.905c.014-.02.03-.039.045-.058l.103-.114.677-.677c.057-.057.115-.112.175-.164V3a2 2 0 00-2-2H4z"/><path d="M11.562 10.148a.5.5 0 11-.707-.708l.677-.677a2.615 2.615 0 013.699.006 2.615 2.615 0 01.006 3.699l-.677.677a.5.5 0 11-.708-.707l.678-.677a1.615 1.615 0 00-.006-2.285 1.615 1.615 0 00-2.285-.006l-.677.678zM10.148 10.855a.5.5 0 010 .707l-.678.677a1.615 1.615 0 00.006 2.285 1.615 1.615 0 002.285.006l.677-.678a.5.5 0 01.707.707l-.677.678a2.615 2.615 0 01-3.699-.006 2.615 2.615 0 01-.006-3.699l.677-.677a.5.5 0 01.708 0z"/><path d="M13.854 10.854a.5.5 0 00-.708-.708l-3 3a.5.5 0 00.708.708l3-3z"/></g><defs><clipPath id="clip0_4792_1396"><path fill="#fff" d="M0 0h16v16H0z"/></clipPath></defs></svg>