<svg width="13" height="13" viewBox="0 0 13 13" fill="none" xmlns="http://www.w3.org/2000/svg"><g clip-path="url(#clip0_4407_798)" fill="#AFB1B3"><path fill-rule="evenodd" clip-rule="evenodd" d="M5.5 3H3.714C1.663 3 0 4.79 0 7s1.663 4 3.714 4H5.5V9.5H3.821C2.54 9.5 1.5 8.38 1.5 7s1.04-2.5 2.321-2.5H5.5V3zm2 6.5h1.679C10.46 9.5 11.5 8.38 11.5 7s-1.04-2.5-2.321-2.5H7.5V3h1.786C11.337 3 13 4.79 13 7s-1.663 4-3.714 4H7.5V9.5z"/><path d="M4 6h5v2H4z"/></g><defs><clipPath id="clip0_4407_798"><path fill="#fff" d="M0 0h13v13H0z"/></clipPath></defs></svg>