<svg width="20" height="20" viewBox="0 0 20 20" fill="none" xmlns="http://www.w3.org/2000/svg"><rect x="11.25" y="11.25" width="8" height="8" rx="1.25" stroke="#CED0D6" stroke-width="1.5"/><path fill-rule="evenodd" clip-rule="evenodd" d="M14.65 3.007C13.705 2.509 12.75 2.5 12 2.5H8.394l-1.115.446A.75.75 0 017 3H5.5a.75.75 0 01-.335-.08l-.842-.42H2.75V5h1.573l.842-.42A.75.75 0 015.5 4.5H7a.75.75 0 01.469.164l1.044.836h2.237l1.8-1.35A.75.75 0 0113 4h.032c.733 0 1.45 0 2.303.249.32.093.652.219 1.01.386-.54-.843-1.136-1.333-1.695-1.628zM6.737 6l.763.61v2.213l-.143.286a5.75 5.75 0 00-.607 2.571v6.57c0 .414.336.75.75.75h1.768A1.99 1.99 0 019 18v-.5h-.75v-5.82c0-.66.154-1.31.449-1.9l.222-.445A.75.75 0 009 9V7h1.25v2c0 .047.004.094.013.14.228-.09.477-.14.737-.14h.838l-.088-.177V6.625l1.5-1.125c.627.003 1.103.025 1.665.189.64.186 1.439.574 2.655 1.425a.75.75 0 001.145-.84c-.796-2.522-2.03-3.89-3.365-4.594C14.06 1 12.78 1 12.027 1H8.25a.75.75 0 00-.279.054L6.856 1.5H5.677l-.842-.42A.75.75 0 004.5 1H2a.75.75 0 00-.75.75v4c0 .414.336.75.75.75h2.5a.75.75 0 00.335-.08L5.677 6h1.06z" fill="#CED0D6"/><path fill="#CED0D6" d="M14.5 12H16v7h-1.5z"/><path fill="#CED0D6" d="M12 14.5h7V16h-7z"/></svg>