<svg width="13" height="13" viewBox="0 0 13 13" xmlns="http://www.w3.org/2000/svg"><rect width="13" height="13" fill="none"/><path d="M2.36 5.799L.878 4.316A.755.755 0 0 1 .88 3.26a.746.746 0 0 1 1.057-.003L3.723 5.04a7.162 7.162 0 0 1 1.03-.331c.08-.021.156-.046.238-.064a7.306 7.306 0 0 1 1.506-.157c.731 0 1.432.115 2.086.315.198.061.394.127.583.203l1.786-1.786a.749.749 0 1 1 1.06 1.06l-1.46 1.462c.12.085.237.173.35.263C12.192 7.046 13 9.137 13 10.79H0v-.659c.01-1.068.364-2.06.958-2.907.378-.54.85-1.023 1.402-1.425z" fill="#6E6E6E" fill-rule="evenodd"/></svg>