<svg width="16" height="16" viewBox="0 0 16 16" fill="none" xmlns="http://www.w3.org/2000/svg"><rect x="8.5" y="8.5" width="7" height="7" rx="1" stroke="#CED0D6"/><path fill="#CED0D6" d="M11.5 9h1v6h-1z"/><path fill="#CED0D6" d="M9 11.5h6v1H9z"/><path fill-rule="evenodd" clip-rule="evenodd" d="M11.766 2.417C10.986 2.006 10.201 2 9.6 2H6.696l-.91.364A.5.5 0 015.6 2.4H4.4a.5.5 0 01-.224-.053L3.482 2H2.1v2.2h1.382l.694-.347A.5.5 0 014.4 3.8h1.2a.5.5 0 01.312.11l.738.59h2.116l1.334-1a.5.5 0 01.3-.1h.021c.589 0 1.15 0 1.819.195.337.098.694.244 1.095.454-.483-.87-1.042-1.354-1.569-1.632zM5.424 4.8l.676.54v1.557l-.155.363A5.5 5.5 0 005.5 9.426V14.5a.5.5 0 00.5.5h1v-1h-.5V9.426a4.5 4.5 0 01.364-1.772l.196-.457A.5.5 0 007.1 7V5.6h1.2V7a.5.5 0 00.015.12C8.528 7.043 8.759 7 9 7h.344L9.3 6.897V5.35l1.266-.95c.52.002.92.017 1.394.155.526.154 1.175.47 2.153 1.155a.5.5 0 00.763-.56c-.63-1.999-1.603-3.069-2.643-3.617C11.223 1 10.219 1 9.618 1H6.6a.5.5 0 00-.186.036l-.91.364h-.986l-.695-.347A.5.5 0 003.6 1h-2a.5.5 0 00-.5.5v3.2a.5.5 0 00.5.5h2a.5.5 0 00.223-.053l.695-.347h.906z" fill="#CED0D6"/></svg>