<svg width="13" height="13" viewBox="0 0 13 13" xmlns="http://www.w3.org/2000/svg"><rect id="frame" width="13" height="13" fill="none"/><g fill="none" fill-rule="evenodd"><path d="M0 0h13v13H0z"/><path d="M1 3.507c1.217.702 3.226 1.16 5.5 1.16s4.283-.458 5.5-1.16v1.27c0 .904-2.462 1.637-5.5 1.637S1 5.68 1 4.776V3.507zm11 2.839v1.349c0 .86-2.462 1.557-5.5 1.557S1 8.555 1 7.695v-1.35c1.217.702 3.226 1.16 5.5 1.16s4.283-.458 5.5-1.16v.001zm0 2.838v1.378c0 .905-2.462 1.638-5.5 1.638S1 11.467 1 10.562V9.184c1.217.702 3.226 1.16 5.5 1.16s4.283-.458 5.5-1.16zM6.5 3.575c-3.038 0-5.5-.733-5.5-1.637C1 1.033 3.462.3 6.5.3s5.5.733 5.5 1.638c0 .904-2.462 1.637-5.5 1.637z" fill="#6E6E6E"/></g></svg>