<svg width="13" height="13" viewBox="0 0 13 13" xmlns="http://www.w3.org/2000/svg"><rect width="13" height="13" fill="none"/><path d="M10.187 8.318H11.5V6.955h-1.313v-.91c0-.155-.027-.303-.046-.454h1.313V4.227H9.68a3.652 3.652 0 0 0-1.532-1.43l1.24-1.242-.964-.964L6.6 2.414c-.017 0-.032-.005-.05-.005-.048 0-.093.013-.141.014L4.576.591l-.965.964L4.89 2.832c-.612.319-1.12.801-1.467 1.395H1.5v1.364H2.96c-.019.15-.046.299-.046.454v.91H1.546v1.363h1.368v.455c0 .315.054.616.13.909H1.546v1.364h2.192c.668.823 1.675 1.363 2.812 1.363 1.138 0 2.145-.54 2.812-1.363H11.5V9.682h-1.443c.076-.293.13-.594.13-.91v-.454z" fill="#AFB1B3" fill-rule="evenodd"/></svg>