<!--
  - Copyright (C) 2025 The Android Open Source Project
  -
  - Licensed under the Apache License, Version 2.0 (the "License");
  - you may not use this file except in compliance with the License.
  - You may obtain a copy of the License at
  -
  -      http://www.apache.org/licenses/LICENSE-2.0
  -
  - Unless required by applicable law or agreed to in writing, software
  - distributed under the License is distributed on an "AS IS" BASIS,
  - WITHOUT WARRANTIES OR CONDITIONS OF ANY KIND, either express or implied.
  - See the License for the specific language governing permissions and
  - limitations under the License.
  -->
<svg width="16" height="16" viewBox="0 0 16 16" fill="none" xmlns="http://www.w3.org/2000/svg"><path fill-rule="evenodd" clip-rule="evenodd" d="M4 1a2 2 0 00-2 2v10a2 2 0 002 2h5c.293 0 .571-.063.822-.176A3.994 3.994 0 018.354 14H4a1 1 0 01-1-1V3a1 1 0 011-1h5a1 1 0 011 1v4.126c.32-.082.655-.126 1-.126V3a2 2 0 00-2-2H4zm1.5 2a.5.5 0 000 1h2a.5.5 0 000-1h-2z" fill="#6C707E"/><circle cx="11" cy="11" r="2.5" stroke="#6C707E"/><path d="M13 13l2 2" stroke="#6C707E" stroke-linecap="round"/></svg>