<!--
  - Copyright (C) 2025 The Android Open Source Project
  -
  - Licensed under the Apache License, Version 2.0 (the "License");
  - you may not use this file except in compliance with the License.
  - You may obtain a copy of the License at
  -
  -      http://www.apache.org/licenses/LICENSE-2.0
  -
  - Unless required by applicable law or agreed to in writing, software
  - distributed under the License is distributed on an "AS IS" BASIS,
  - WITHOUT WARRANTIES OR CONDITIONS OF ANY KIND, either express or implied.
  - See the License for the specific language governing permissions and
  - limitations under the License.
  -->
<svg width="20" height="20" viewBox="0 0 20 20" fill="none" xmlns="http://www.w3.org/2000/svg"><path fill-rule="evenodd" clip-rule="evenodd" d="M6.75 5a.75.75 0 000 1.5h1.5a.75.75 0 000-1.5h-1.5zm4.75 4.1V4a.5.5 0 00-.5-.5H4a.5.5 0 00-.5.5v12a.5.5 0 00.5.5h5.1c.288.563.67 1.07 1.125 1.5H4a2 2 0 01-2-2V4a2 2 0 012-2h7a2 2 0 012 2v4.59a5.46 5.46 0 00-1.5.51z" fill="#6C707E"/><circle cx="14" cy="14" r="3.25" stroke="#6C707E" stroke-width="1.5"/><path d="M16.5 16.5L19 19" stroke="#6C707E" stroke-width="1.5" stroke-linecap="round"/></svg>