<!--
  - Copyright (C) 2025 The Android Open Source Project
  -
  - Licensed under the Apache License, Version 2.0 (the "License");
  - you may not use this file except in compliance with the License.
  - You may obtain a copy of the License at
  -
  -      http://www.apache.org/licenses/LICENSE-2.0
  -
  - Unless required by applicable law or agreed to in writing, software
  - distributed under the License is distributed on an "AS IS" BASIS,
  - WITHOUT WARRANTIES OR CONDITIONS OF ANY KIND, either express or implied.
  - See the License for the specific language governing permissions and
  - limitations under the License.
  -->
<svg width="20" height="20" viewBox="0 0 20 20" fill="none" xmlns="http://www.w3.org/2000/svg"><g clip-path="url(#clip0_3754_1885)"><path fill-rule="evenodd" clip-rule="evenodd" d="M8.5 11.5v3h8v-3h-8zM8 10a1 1 0 00-1 1v4a1 1 0 001 1h9a1 1 0 001-1v-4a1 1 0 00-1-1H8z" fill="#6C707E"/><path d="M7.75 18.25h9.5" stroke="#6C707E" stroke-width="1.5" stroke-linecap="round"/><path fill-rule="evenodd" clip-rule="evenodd" d="M6.75 5a.75.75 0 000 1.5h1.5a.75.75 0 000-1.5h-1.5zm4.75 3.5V4a.5.5 0 00-.5-.5H4a.5.5 0 00-.5.5v12a.5.5 0 00.5.5h1.5V18H4a2 2 0 01-2-2V4a2 2 0 012-2h7a2 2 0 012 2v4.5h-1.5z" fill="#6C707E"/></g><defs><clipPath id="clip0_3754_1885"><path fill="#fff" d="M0 0h20v20H0z"/></clipPath></defs></svg>