<!--
  - Copyright (C) 2025 The Android Open Source Project
  -
  - Licensed under the Apache License, Version 2.0 (the "License");
  - you may not use this file except in compliance with the License.
  - You may obtain a copy of the License at
  -
  -      http://www.apache.org/licenses/LICENSE-2.0
  -
  - Unless required by applicable law or agreed to in writing, software
  - distributed under the License is distributed on an "AS IS" BASIS,
  - WITHOUT WARRANTIES OR CONDITIONS OF ANY KIND, either express or implied.
  - See the License for the specific language governing permissions and
  - limitations under the License.
  -->
<svg width="16" height="16" viewBox="0 0 16 16" fill="none" xmlns="http://www.w3.org/2000/svg"><mask id="a" fill="#fff"><rect x="7" y="9" width="8" height="5" rx=".5"/></mask><rect x="7" y="9" width="8" height="5" rx=".5" stroke="#CED0D6" stroke-width="2" mask="url(#a)"/><path d="M7.5 15.5h7" stroke="#CED0D6" stroke-linecap="round"/><path fill-rule="evenodd" clip-rule="evenodd" d="M4 1a2 2 0 00-2 2v10a2 2 0 002 2h2v-1H4a1 1 0 01-1-1V3a1 1 0 011-1h5a1 1 0 011 1v5h1V3a2 2 0 00-2-2H4zm1.5 2a.5.5 0 000 1h2a.5.5 0 000-1h-2z" fill="#CED0D6"/></svg>