<svg width="13" height="13" viewBox="0 0 13 13" xmlns="http://www.w3.org/2000/svg"><rect width="13" height="13" fill="none"/><path d="M12.61 2.11c-.46-.845-1.284-1.098-1.865-1.11-.713-.014-1.299.39-1.188.654.024.057.158.354.24.476.118.177.331.041.406 0 .222-.12.46-.16.73-.127.257.03.6.193.83.644.54 1.06-1.129 3.245-3.218 1.732-2.089-1.512-4.12-1.01-5.04-.706-.92.305-1.342.611-.979 1.32.494.963.33.668.81 1.465.76 1.266 2.425-.583 2.425-.583-1.24 1.868-2.304 1.416-2.712.764-.367-.589-.653-1.267-.653-1.267C-.745 6.503.105 11.499.105 11.499h1.56c.398-1.84 1.82-1.771 2.063 0h1.19c1.054-3.592 3.722 0 3.722 0h1.552c-.435-2.45.873-3.22 1.697-4.656.824-1.436 1.604-3.194.72-4.733z" fill="#6E6E6E" fill-rule="evenodd"/></svg>