<svg width="16" height="16" viewBox="0 0 16 16" xmlns="http://www.w3.org/2000/svg"><rect width="16" height="16" fill="none"/><g fill="#6E6E6E" fill-rule="evenodd"><path d="M4.5 7h-2V6h2V3.8A1.8 1.8 0 0 1 6.3 2h3.4a1.8 1.8 0 0 1 1.8 1.8V6h2v1h-2v2.5a3.5 3.5 0 0 1-7 0V7z"/><rect x="3.5" y="8" width="2" height="2" rx=".45"/><path d="M3.833 12H6a2 2 0 0 1 2 2H3.833v-2zM8.833 12H11a2 2 0 0 1 2 2H8.833v-2z"/><path d="M6 11h3v3H6zM10.5 8h1.55a.45.45 0 0 1 .45.45v1.1a.45.45 0 0 1-.45.45H10.5V8z"/></g></svg>