<!--
  - Copyright (C) 2025 The Android Open Source Project
  -
  - Licensed under the Apache License, Version 2.0 (the "License");
  - you may not use this file except in compliance with the License.
  - You may obtain a copy of the License at
  -
  -      http://www.apache.org/licenses/LICENSE-2.0
  -
  - Unless required by applicable law or agreed to in writing, software
  - distributed under the License is distributed on an "AS IS" BASIS,
  - WITHOUT WARRANTIES OR CONDITIONS OF ANY KIND, either express or implied.
  - See the License for the specific language governing permissions and
  - limitations under the License.
  -->
<svg width="20" height="20" viewBox="0 0 20 20" fill="none" xmlns="http://www.w3.org/2000/svg"><path d="M14.625 7.563L17.4 4.836a.5.5 0 01.851.357v8.557a3 3 0 01-3 3h-5.5a3 3 0 01-3-3V5.193a.5.5 0 01.85-.357l2.775 2.727a1 1 0 00.7.287h2.85a1 1 0 00.7-.287z" stroke="#CED0D6" stroke-width="1.5" stroke-linecap="round"/><circle cx="10" cy="11" r="1" fill="#CED0D6"/><circle cx="15" cy="11" r="1" fill="#CED0D6"/><path d="M1.75 7.75H6M2.75 11.25H6M2.75 14.75H6.5" stroke="#CED0D6" stroke-width="1.5" stroke-linecap="round"/><path d="M12.665 14.606a.25.25 0 01-.33 0l-1.334-1.168a.25.25 0 01.164-.438h2.67a.25.25 0 01.164.438l-1.334 1.168z" fill="#CED0D6"/></svg>