<!--
  - Copyright (C) 2025 The Android Open Source Project
  -
  - Licensed under the Apache License, Version 2.0 (the "License");
  - you may not use this file except in compliance with the License.
  - You may obtain a copy of the License at
  -
  -      http://www.apache.org/licenses/LICENSE-2.0
  -
  - Unless required by applicable law or agreed to in writing, software
  - distributed under the License is distributed on an "AS IS" BASIS,
  - WITHOUT WARRANTIES OR CONDITIONS OF ANY KIND, either express or implied.
  - See the License for the specific language governing permissions and
  - limitations under the License.
  -->
<svg width="20" height="20" viewBox="0 0 20 20" fill="none" xmlns="http://www.w3.org/2000/svg"><path d="M12.25 7.6h2.531M9.5 17V6a1 1 0 011-1h6a1 1 0 011 1v11a1 1 0 01-1 1h-6a1 1 0 01-1-1z" stroke="#6C707E" stroke-width="1.5" stroke-linecap="round"/><path fill-rule="evenodd" clip-rule="evenodd" d="M3.5.25A1.75 1.75 0 001.75 2v15c0 .966.784 1.75 1.75 1.75h4v-1.5h-4a.25.25 0 01-.25-.25V2a.25.25 0 01.25-.25h11a.25.25 0 01.25.25v1h1.5V2A1.75 1.75 0 0014.5.25h-11z" fill="#6C707E"/></svg>