<svg width="13" height="13" viewBox="0 0 13 13" xmlns="http://www.w3.org/2000/svg"><rect width="13" height="13" fill="none"/><path d="M2 8h9a1 1 0 0 1 1 1v2a1 1 0 0 1-1 1H2a1 1 0 0 1-1-1V9a1 1 0 0 1 1-1zm8 3a1 1 0 1 0 0-2 1 1 0 0 0 0 2zM9.5 1h1.194a.75.75 0 0 1 .75.756L11.4 7.2h-1.25L8.75 4V1.75A.75.75 0 0 1 9.5 1zM1.652 5.58l.696-1.16a.75.75 0 0 1 1.055-.24L8 7.203H3l-1.064-.58a.75.75 0 0 1-.284-1.045zm3.43-3.367l1.177-.544a.75.75 0 0 1 1 .377L9.55 7.203H9L5.7 5l-.961-1.744a.75.75 0 0 1 .342-1.043z" fill="#AFB1B3" fill-rule="evenodd"/></svg>