<!--
  - Copyright (C) 2025 The Android Open Source Project
  -
  - Licensed under the Apache License, Version 2.0 (the "License");
  - you may not use this file except in compliance with the License.
  - You may obtain a copy of the License at
  -
  -      http://www.apache.org/licenses/LICENSE-2.0
  -
  - Unless required by applicable law or agreed to in writing, software
  - distributed under the License is distributed on an "AS IS" BASIS,
  - WITHOUT WARRANTIES OR CONDITIONS OF ANY KIND, either express or implied.
  - See the License for the specific language governing permissions and
  - limitations under the License.
  -->
<svg width="20" height="20" viewBox="0 0 20 20" fill="none" xmlns="http://www.w3.org/2000/svg"><path fill-rule="evenodd" clip-rule="evenodd" d="M7.25 3.5H4a.5.5 0 00-.5.5v3.25a.5.5 0 00.5.5h3.25a.5.5 0 00.5-.5V4a.5.5 0 00-.5-.5zM4 2a2 2 0 00-2 2v3.25a2 2 0 002 2h3.25a2 2 0 002-2V4a2 2 0 00-2-2H4zm3.25 10.25H4a.5.5 0 00-.5.5V16a.5.5 0 00.5.5h3.25a.5.5 0 00.5-.5v-3.25a.5.5 0 00-.5-.5zM4 10.75a2 2 0 00-2 2V16a2 2 0 002 2h3.25a2 2 0 002-2v-3.25a2 2 0 00-2-2H4zm8.75 1.5H16a.5.5 0 01.5.5V16a.5.5 0 01-.5.5h-3.25a.5.5 0 01-.5-.5v-3.25a.5.5 0 01.5-.5zm-2 .5a2 2 0 012-2H16a2 2 0 012 2V16a2 2 0 01-2 2h-3.25a2 2 0 01-2-2v-3.25z" fill="#CED0D6"/></svg>