<!--
  - Copyright (C) 2025 The Android Open Source Project
  -
  - Licensed under the Apache License, Version 2.0 (the "License");
  - you may not use this file except in compliance with the License.
  - You may obtain a copy of the License at
  -
  -      http://www.apache.org/licenses/LICENSE-2.0
  -
  - Unless required by applicable law or agreed to in writing, software
  - distributed under the License is distributed on an "AS IS" BASIS,
  - WITHOUT WARRANTIES OR CONDITIONS OF ANY KIND, either express or implied.
  - See the License for the specific language governing permissions and
  - limitations under the License.
  -->
<svg width="20" height="20" viewBox="0 0 20 20" fill="none" xmlns="http://www.w3.org/2000/svg"><g clip-path="url(#clip0_3754_1890)"><circle cx="9" cy="5.5" r="3.25" stroke="#6C707E" stroke-width="1.5"/><path fill-rule="evenodd" clip-rule="evenodd" d="M3.5 12.5v4h4v-4h-4zM3 11a1 1 0 00-1 1v5a1 1 0 001 1h5a1 1 0 001-1v-5a1 1 0 00-1-1H3z" fill="#6C707E"/><path d="M17.13 15.25h-5.26a.5.5 0 01-.431-.752l2.63-4.508a.5.5 0 01.863 0l2.63 4.508a.5.5 0 01-.433.752z" stroke="#6C707E" stroke-width="1.5"/></g><defs><clipPath id="clip0_3754_1890"><path fill="#fff" d="M0 0h20v20H0z"/></clipPath></defs></svg>