<svg width="16" height="16" viewBox="0 0 16 16" fill="none" xmlns="http://www.w3.org/2000/svg"><path fill-rule="evenodd" clip-rule="evenodd" d="M11.503 12.872a6 6 0 1 1 2.308-3.37h1.027a7 7 0 1 0-2.927 4.304.998.998 0 0 1-.408-.806v-.128zm2-.545a7.01 7.01 0 0 0 .559-.824h-.56v.824z" fill="#CED0D6"/><path d="M10 10.503h5M12.503 8v5" stroke="#57965C" stroke-linecap="round"/><path fill-rule="evenodd" clip-rule="evenodd" d="M10.115 9.503a13.173 13.173 0 0 0 .049-2.493H5.837a13.329 13.329 0 0 0 .11 2.956h3.209a.995.995 0 0 0-.042 1H6.146c.145.587.33 1.113.538 1.56.262.558.543.953.801 1.194.258.242.432.28.515.28.083 0 .257-.038.515-.28.258-.241.54-.636.8-1.194.149-.317.285-.674.403-1.064a1 1 0 0 0 .282.04h.747C10.169 13.594 9.11 15 8 15c-1.202 0-2.345-1.65-2.881-4.034H2v-1h2.937a14.053 14.053 0 0 1-.103-2.956H1.956v-1H4.94C5.356 3.113 6.64 1 8 1s2.645 2.113 3.06 5.01H14v1h-1.354a1.01 1.01 0 0 0-.286 0h-1.194a14.332 14.332 0 0 1-.045 2.493h-1.006zM5.95 6.01c.153-.986.414-1.853.733-2.536.262-.558.543-.953.801-1.195C7.743 2.038 7.917 2 8 2c.083 0 .257.038.515.28.258.241.54.636.8 1.194.32.683.58 1.55.734 2.536H5.951z" fill="#CED0D6"/></svg>