<svg width="16" height="16" viewBox="0 0 16 16" fill="none" xmlns="http://www.w3.org/2000/svg"><g clip-path="url(#clip0_4293_1116)"><path d="M1.32 8.525l.32-.384-.32.384zm0-.769L1 7.372l.32.384zM6.45 12.8l.32-.384-.32.384zm.41-3.158h-.5v-.5h.5v.5zm7.5 0v-.5.5zm0-3v-.5.5zm-7.5 0v.5h-.5v-.5h.5zm0-2.967h.5-.5zm-.41-.192l-.32-.384.32.384zM1 8.91a1 1 0 0 1 0-1.537l.64.769-.64.768zm5.13 4.274L1 8.909l.64-.768 5.13 4.274-.64.768zm1.23-.576a.75.75 0 0 1-1.23.576l.64-.768a.25.25 0 0 0-.41.192h1zm0-2.966v2.966h-1V9.64h1zm-.5-.5h7.5v1h-7.5v-1zm7.5 0h1a1 1 0 0 1-1 1v-1zm0 0v-2h1v2h-1zm0-2v-1a1 1 0 0 1 1 1h-1zm0 0h-7.5v-1h7.5v1zm-7-3.467v2.967h-1V3.674h1zm-1.23-.576a.75.75 0 0 1 1.23.576h-1a.25.25 0 0 0 .41.192l-.64-.768zM1 7.372l5.13-4.274.64.768-5.13 4.275L1 7.372z" fill="#CED0D6"/></g><defs><clipPath id="clip0_4293_1116"><path fill="#fff" d="M0 0h16v16H0z"/></clipPath></defs></svg>