<svg width="16" height="16" viewBox="0 0 16 16" fill="none" xmlns="http://www.w3.org/2000/svg"><path d="M8.384 1.46L8 1.782l.384-.32zm-.768 0l-.384-.32.384.32zm5.042 5.13l-.384.32.384-.32zM9.5 7v-.5H9V7h.5zm-3 0H7v-.5h-.5V7zm-3.158-.41l-.384-.32.384.32zm5.426-5.45a1 1 0 0 0-1.536 0L8 1.782l.768-.64zm4.274 5.13L8.768 1.14 8 1.782l4.274 5.13.768-.641zm-.576 1.23a.75.75 0 0 0 .576-1.23l-.768.64a.25.25 0 0 1 .192-.41v1zM9.5 7.5h2.966v-1H9.5v1zM9 7v7.5h1V7H9zm0 7.5v1a1 1 0 0 0 1-1H9zm0 0H7v1h2v-1zm-2 0H6a1 1 0 0 0 1 1v-1zm0 0V7H6v7.5h1zm-3.466-7H6.5v-1H3.534v1zm-.576-1.23a.75.75 0 0 0 .576 1.23v-1a.25.25 0 0 1 .192.41l-.768-.64zm4.274-5.13L2.958 6.27l.768.64L8 1.781l-.768-.64z" fill="#CED0D6"/></svg>