<svg width="16" height="16" viewBox="0 0 16 16" fill="none" xmlns="http://www.w3.org/2000/svg"><path d="M8.384 14.82l.384.32-.384-.32zm-.768 0L8 14.5l-.384.32zm5.042-5.129l-.384-.32.384.32zM9.5 9.281v.5H9v-.5h.5zm-3 0H7v.5h-.5v-.5zm-3.158.41l-.384.32.384-.32zm5.426 5.45a1 1 0 0 1-1.536 0L8 14.5l.768.64zm4.274-5.13l-4.274 5.13L8 14.5l4.274-5.129.768.64zm-.576-1.23a.75.75 0 0 1 .576 1.23l-.768-.64a.25.25 0 0 0 .192.41v-1zm-2.966 0h2.966v1H9.5v-1zm-.5.5v-7.5h1v7.5H9zm0-7.5v-1a1 1 0 0 1 1 1H9zm0 0H7v-1h2v1zm-2 0H6a1 1 0 0 1 1-1v1zm0 0v7.5H6v-7.5h1zm-3.466 7H6.5v1H3.534v-1zm-.576 1.23a.75.75 0 0 1 .576-1.23v1a.25.25 0 0 0 .192-.41l-.768.64zm4.274 5.13l-4.274-5.13.768-.64L8 14.5l-.768.64z" fill="#6C707E"/></svg>