<svg width="16" height="16" viewBox="0 0 16 16" fill="none" xmlns="http://www.w3.org/2000/svg"><path d="M3.5 7.5V9c0 2 1.5 4.5 4.5 4.5" stroke="#6C707E" stroke-linecap="round"/><circle cx="12.5" cy="4" r="1.5" stroke="#4285F4"/><path fill-rule="evenodd" clip-rule="evenodd" d="M11.536 10.87C10.936 12.04 9.753 13 8 13a.5.5 0 0 0 0 1c2.064 0 3.484-1.065 4.27-2.398l-.734-.733zm1.249-.45C12.928 9.943 13 9.459 13 9V7.5a.5.5 0 0 0-1 0V9c0 .193-.015.39-.046.59l.83.83z" fill="#6C707E"/><path fill-rule="evenodd" clip-rule="evenodd" d="M2.795 2.128a2 2 0 1 0 2.577 2.577l-.889-.889a1 1 0 1 1-.8-.8l-.888-.888z" fill="#4285F4"/><path d="M2 2l12 12" stroke="#6C707E" stroke-linecap="round"/></svg>