<svg width="16" height="16" viewBox="0 0 16 16" fill="none" xmlns="http://www.w3.org/2000/svg"><g clip-path="url(#clip0_173_1027)" fill="#6C707E"><path fill-rule="evenodd" clip-rule="evenodd" d="M7.7 13.225a.5.5 0 0 1 .6 0l3.1 2.325a.25.25 0 0 1-.15.45h-6.5a.25.25 0 0 1-.15-.45l3.1-2.325zM2.759 1.759L.126 9h1.542l.66-2.022h3.378L6.42 9h1.5L6.68 5.68 4.46 3.46l.844 2.348H2.7l1.034-3.074-.975-.975zM8.92 7.92L10 9H8.92V7.92zm3.37 1.22c.048.002.097.003.146.003.552 0 1.044-.134 1.476-.402a2.743 2.743 0 0 0 1.008-1.14c.244-.488.366-1.046.366-1.674 0-.628-.122-1.186-.366-1.674a2.703 2.703 0 0 0-1.008-1.134 2.712 2.712 0 0 0-1.476-.408c-.508 0-.956.112-1.344.336-.302.176-.552.41-.75.699V.6H8.92v5.05l.954.988.468.485L12.29 9.14zm-1.948-2.952c.026.275.094.524.204.747.148.292.354.52.618.684.268.164.572.246.912.246.34 0 .64-.082.9-.246a1.64 1.64 0 0 0 .612-.684 2.2 2.2 0 0 0 .222-1.008 2.2 2.2 0 0 0-.222-1.008 1.64 1.64 0 0 0-.612-.684 1.65 1.65 0 0 0-.9-.246c-.34 0-.644.082-.912.246a1.68 1.68 0 0 0-.618.684c-.11.223-.178.472-.204.747v.522z"/><path d="M0 11h.5a.5.5 0 0 1 0 1H0v-1z"/><path fill-rule="evenodd" clip-rule="evenodd" d="M3 11.5a.5.5 0 0 1 .5-.5h1a.5.5 0 0 1 0 1h-1a.5.5 0 0 1-.5-.5zM7 11.5a.5.5 0 0 1 .5-.5h1a.5.5 0 0 1 0 1h-1a.5.5 0 0 1-.5-.5z"/><path d="M15 11.5a.5.5 0 0 1 .5-.5h.5v1h-.5a.5.5 0 0 1-.5-.5z"/><path fill-rule="evenodd" clip-rule="evenodd" d="M2.5 1.5a.707.707 0 0 0-1 1l12 12a.707.707 0 0 0 1-1l-12-12z"/></g><defs><clipPath id="clip0_173_1027"><path fill="#fff" d="M0 0h16v16H0z"/></clipPath></defs></svg>