<svg width="16" height="16" viewBox="0 0 16 16" fill="none" xmlns="http://www.w3.org/2000/svg"><rect width="1" height="14" rx=".5" transform="matrix(1 0 0 -1 14 15)" fill="#CED0D6"/><path fill-rule="evenodd" clip-rule="evenodd" d="M1 14.5a.5.5 0 0 0 1 0v-13a.5.5 0 0 0-1 0v13zM7 12.5A1.5 1.5 0 0 1 5.5 11V5A1.5 1.5 0 0 1 7 3.5h2A1.5 1.5 0 0 1 10.5 5v5.379l-.44-.44a1.494 1.494 0 0 0-.56-.354V5a.5.5 0 0 0-.5-.5H7a.5.5 0 0 0-.5.5v6a.5.5 0 0 0 .5.5h.585c.073.205.19.397.354.56l.44.44H7zm3.354-.853c-.148.309-.398.559-.707.707l-.311-.311-.543-.543H9a.5.5 0 0 0 .5-.5v-.207l.543.543.31.31z" fill="#CED0D6"/><path d="M9 11l3.5 3.5M12.5 11L9 14.5" stroke="#E35252" stroke-linecap="round"/></svg>