<svg width="16" height="16" viewBox="0 0 16 16" fill="none" xmlns="http://www.w3.org/2000/svg"><g clip-path="url(#clip0_173_1128)"><rect x="13.914" y="9.379" width="1" height="5" rx=".5" transform="rotate(45 13.914 9.379)" fill="#E35252"/><path d="M10.732 9.732a.5.5 0 0 1 .707 0l2.829 2.829a.5.5 0 1 1-.707.707l-2.829-2.829a.5.5 0 0 1 0-.707z" fill="#E35252"/><path clip-rule="evenodd" d="M3 14a2 2 0 1 1 0-4 2 2 0 0 1 0 4zM13 6a2 2 0 1 1 0-4 2 2 0 0 1 0 4z" stroke="#6C707E"/><path d="M11 4h-1a2 2 0 0 0-2 2v4a2 2 0 0 1-2 2H5" stroke="#6C707E"/></g><defs><clipPath id="clip0_173_1128"><path fill="#fff" d="M0 0h16v16H0z"/></clipPath></defs></svg>