<svg width="16" height="16" viewBox="0 0 16 16" fill="none" xmlns="http://www.w3.org/2000/svg"><rect x="13.914" y="9.379" width="1" height="5" rx=".5" transform="rotate(45 13.914 9.379)" fill="#DB5C5C"/><path d="M10.732 9.732a.5.5 0 0 1 .707 0l2.829 2.829a.5.5 0 1 1-.707.707l-2.829-2.829a.5.5 0 0 1 0-.707z" fill="#DB5C5C"/><path clip-rule="evenodd" d="M3 14a2 2 0 1 1 0-4 2 2 0 0 1 0 4zM13 6a2 2 0 1 1 0-4 2 2 0 0 1 0 4z" stroke="#CED0D6"/><path d="M11 4h-1a2 2 0 0 0-2 2v4a2 2 0 0 1-2 2H5" stroke="#CED0D6"/></svg>