<svg width="16" height="16" viewBox="0 0 16 16" fill="none" xmlns="http://www.w3.org/2000/svg"><path fill-rule="evenodd" clip-rule="evenodd" d="M3.76 4.265a3.25 3.25 0 0 1 3.25-3.25h.5a3.25 3.25 0 0 1 3.25 3.25v2.5a3.25 3.25 0 0 1-3.25 3.25h-.227a.5.5 0 1 1 0-1h.227a2.25 2.25 0 0 0 2.25-2.25v-2.5a2.25 2.25 0 0 0-2.25-2.25h-.5a2.25 2.25 0 0 0-2.25 2.25v.79a.5.5 0 1 1-1 0v-.79zm3.507 10.25c0 .277-.225.504-.498.465a3.5 3.5 0 0 1-3.002-3.465v-2A3.5 3.5 0 0 1 6.77 6.051c.273-.04.498.188.498.464 0 .277-.226.495-.496.55a2.5 2.5 0 0 0-2.004 2.45v2a2.5 2.5 0 0 0 2.004 2.451c.27.055.496.273.496.55z" fill="#CED0D6"/><path d="M8.24 12.496h4M10.24 10.495v4.001" stroke="#CED0D6" stroke-linecap="round"/></svg>