<svg width="16" height="16" viewBox="0 0 16 16" fill="none" xmlns="http://www.w3.org/2000/svg"><path fill-rule="evenodd" clip-rule="evenodd" d="M4.29 3.636a3.25 3.25 0 0 0-3.25 3.25v.5a3.25 3.25 0 0 0 3.25 3.25h2.5a3.25 3.25 0 0 0 3.25-3.25V7.16a.5.5 0 1 0-1 0v.226a2.25 2.25 0 0 1-2.25 2.25h-2.5a2.25 2.25 0 0 1-2.25-2.25v-.5a2.25 2.25 0 0 1 2.25-2.25h.79a.5.5 0 0 0 0-1h-.79zm10.25 3.508c.277 0 .504-.225.465-.498a3.5 3.5 0 0 0-3.464-3.002h-2a3.5 3.5 0 0 0-3.465 3.002c-.04.273.189.498.465.498s.494-.226.549-.497a2.5 2.5 0 0 1 2.45-2.003h2a2.5 2.5 0 0 1 2.451 2.003c.055.271.274.497.55.497z" fill="#6C707E"/><path d="M12.51 8.51v4.01M10.505 10.515h4.01" stroke="#6C707E" stroke-linecap="round"/></svg>