<svg width="16" height="16" viewBox="0 0 16 16" fill="none" xmlns="http://www.w3.org/2000/svg"><g clip-path="url(#clip0_189_143)" fill-rule="evenodd" clip-rule="evenodd" fill="#fff"><path d="M8.958 10.96a.5.5 0 0 0-.5.5v2.456a.5.5 0 0 0 .5.5h2.46a.5.5 0 1 0 0-1h-1.96V11.46a.5.5 0 0 0-.5-.5z"/><path d="M15.473 10.346a.5.5 0 0 1-1 0V9.108l-4.547 4.547a.5.5 0 1 1-.707-.707l4.557-4.557h-1.264a.5.5 0 1 1 0-1h2.46a.5.5 0 0 1 .5.5v2.455zM1.583 8.097a3.128 3.128 0 1 0 4.423 4.424l1.877-1.878a3.101 3.101 0 0 0 .324-4.004c-.161-.224-.482-.222-.677-.027-.195.195-.189.51-.045.745.494.81.39 1.88-.309 2.579L5.3 11.813a2.128 2.128 0 0 1-3.01-3.009L3.375 7.72a.5.5 0 1 0-.707-.707L1.583 8.097zm9.359-.512l.61-.61a3.128 3.128 0 0 0-4.424-4.423L5.284 4.395a3.15 3.15 0 0 0-.324 4.073c.162.223.483.222.678.026.195-.195.189-.51.044-.744a2.15 2.15 0 0 1 .31-2.647l1.843-1.844a2.128 2.128 0 0 1 3.01 3.01l-.61.609a.5.5 0 1 0 .707.707z"/></g><defs><clipPath id="clip0_189_143"><path fill="#fff" d="M0 0h16v16H0z"/></clipPath></defs></svg>