<svg width="16" height="16" viewBox="0 0 16 16" fill="none" xmlns="http://www.w3.org/2000/svg"><g clip-path="url(#clip0_189_145)" fill-rule="evenodd" clip-rule="evenodd" fill="#fff"><path d="M1.728 7.762a3.128 3.128 0 0 0 4.423 4.423l1.878-1.878a3.101 3.101 0 0 0 .324-4.004c-.162-.224-.483-.222-.678-.027-.195.196-.189.51-.045.746.494.809.391 1.879-.309 2.578l-1.877 1.878a2.128 2.128 0 0 1-3.01-3.01L3.52 7.386a.5.5 0 0 0-.707-.707L1.728 7.762zm9.359-.513l.61-.61a3.128 3.128 0 1 0-4.424-4.423L5.43 4.06a3.15 3.15 0 0 0-.324 4.072c.162.224.483.222.678.027.195-.195.189-.51.044-.745a2.15 2.15 0 0 1 .31-2.647L7.98 2.923a2.128 2.128 0 1 1 3.01 3.01l-.61.61a.5.5 0 0 0 .707.706zM11.59 14.06a.5.5 0 1 1-1 0v-1.248l-1.602 1.602a.5.5 0 1 1-.707-.707l1.602-1.602H8.629a.5.5 0 1 1 0-1h2.961v2.956zM11.591 8.151a.5.5 0 1 1 1 0v1.248l1.602-1.601a.5.5 0 1 1 .707.707l-1.602 1.602h1.254a.5.5 0 0 1 0 1h-2.96V8.15z"/></g><defs><clipPath id="clip0_189_145"><path fill="#fff" d="M0 0h16v16H0z"/></clipPath></defs></svg>