<svg width="16" height="16" viewBox="0 0 16 16" fill="none" xmlns="http://www.w3.org/2000/svg"><path d="M14 11.5a.5.5 0 0 1 .5.5v2a.5.5 0 0 1-.5.5H8a.5.5 0 0 1-.5-.5v-2a.5.5 0 0 1 .5-.5h6zM14 6.5a.5.5 0 0 1 .5.5v2a.5.5 0 0 1-.5.5H8a.5.5 0 0 1-.5-.5V7a.5.5 0 0 1 .5-.5h6zM14 1.5a.5.5 0 0 1 .5.5v2a.5.5 0 0 1-.5.5H8a.5.5 0 0 1-.5-.5V2a.5.5 0 0 1 .5-.5h6z" stroke="#6C707E"/><path d="M3.5 13.5V9M5.5 12l-1.805 2.256a.25.25 0 0 1-.39 0L1.5 12M3.5 1.5V7M5.5 4L3.695 1.744a.25.25 0 0 0-.39 0L1.5 4" stroke="#4285F4" stroke-linecap="round"/></svg>