<svg width="16" height="16" viewBox="0 0 16 16" fill="none" xmlns="http://www.w3.org/2000/svg"><path d="M14 12.5H9M12 14.5l2.256-1.805a.25.25 0 0 0 0-.39L12 10.5M2 12.5h5M4 14.5l-2.256-1.805a.25.25 0 0 1 0-.39L4 10.5M12 1.5h2a.5.5 0 0 1 .5.5v6a.5.5 0 0 1-.5.5h-2a.5.5 0 0 1-.5-.5V2a.5.5 0 0 1 .5-.5zM7 1.5h2a.5.5 0 0 1 .5.5v6a.5.5 0 0 1-.5.5H7a.5.5 0 0 1-.5-.5V2a.5.5 0 0 1 .5-.5zM2 1.5h2a.5.5 0 0 1 .5.5v6a.5.5 0 0 1-.5.5H2a.5.5 0 0 1-.5-.5V2a.5.5 0 0 1 .5-.5z" stroke="#CED0D6" stroke-linecap="round"/></svg>