<svg width="16" height="16" viewBox="0 0 16 16" fill="none" xmlns="http://www.w3.org/2000/svg"><path d="M1.5 10V3a.5.5 0 0 1 .5-.5h7a.5.5 0 0 1 .5.5v1a.5.5 0 0 0 .5.5h4a.5.5 0 0 1 .5.5v7a.5.5 0 0 1-.5.5H7.524a.01.01 0 0 1-.007-.017l1.898-1.898a.05.05 0 0 0-.036-.085H2a.5.5 0 0 1-.5-.5zM9.5 3.5v7M7.5 10.5v2" stroke="#6C707E" stroke-linecap="round"/><path fill="#6C707E" d="M7.5 10.5h1v1h-1z"/><path d="M2.5 10.5V14a.5.5 0 0 0 .5.5h1a.5.5 0 0 0 .5-.5v-3.5" stroke="#6C707E" stroke-linecap="round"/></svg>