<svg width="16" height="16" viewBox="0 0 16 16" fill="none" xmlns="http://www.w3.org/2000/svg"><path d="M1.843 12.036l6.364-6.364a.5.5 0 0 1 .707 0l1.414 1.414a.5.5 0 0 1 0 .707l-6.364 6.364a.5.5 0 0 1-.707 0l-1.414-1.414a.5.5 0 0 1 0-.707z" stroke="#CED0D6" stroke-linecap="round"/><path d="M11.39 9.56l1.413 1.415M12.571 7.44h2M6.44 4.61L5.024 3.198M8.56 3.429v-2M11.036 4.964L12.45 3.55" stroke="#4285F4" stroke-linecap="round"/><path d="M6.44 7.44l2.12 2.12" stroke="#CED0D6" stroke-linecap="round"/></svg>