<svg width="16" height="16" viewBox="0 0 16 16" fill="none" xmlns="http://www.w3.org/2000/svg"><path fill-rule="evenodd" clip-rule="evenodd" d="M11.128 4.079a3.128 3.128 0 1 0-6.256 0v2.655a3.101 3.101 0 0 0 2.603 3.06c.272.045.498-.183.498-.46 0-.276-.227-.493-.496-.558a2.101 2.101 0 0 1-1.605-2.042V4.079a2.128 2.128 0 0 1 4.256 0v1.533a.5.5 0 0 0 1 0V4.079zm-6.256 6.98v.862a3.128 3.128 0 0 0 6.256 0V9.314a3.15 3.15 0 0 0-2.65-3.11c-.273-.043-.499.185-.499.462 0 .276.227.494.496.557a2.15 2.15 0 0 1 1.653 2.09v2.608a2.128 2.128 0 1 1-4.256 0v-.862a.5.5 0 1 0-1 0z" fill="#6C707E"/></svg>