<svg width="16" height="16" viewBox="0 0 16 16" fill="none" xmlns="http://www.w3.org/2000/svg"><path fill-rule="evenodd" clip-rule="evenodd" d="M4.079 4.872a3.128 3.128 0 1 0 0 6.256h2.655a3.101 3.101 0 0 0 3.06-2.603c.045-.272-.183-.498-.46-.498-.276 0-.493.227-.558.496a2.101 2.101 0 0 1-2.042 1.605H4.079a2.128 2.128 0 0 1 0-4.256h1.533a.5.5 0 1 0 0-1H4.079zm6.98 6.256h.862a3.128 3.128 0 0 0 0-6.256H9.314a3.15 3.15 0 0 0-3.11 2.65c-.043.273.185.499.462.499.276 0 .494-.227.557-.496a2.15 2.15 0 0 1 2.09-1.653h2.608a2.128 2.128 0 1 1 0 4.256h-.862a.5.5 0 1 0 0 1z" fill="#6C707E"/></svg>