<svg width="16" height="16" viewBox="0 0 16 16" fill="none" xmlns="http://www.w3.org/2000/svg"><path fill-rule="evenodd" clip-rule="evenodd" d="M4.258 4.258a3.25 3.25 0 0 1 3.25-3.25h.5a3.25 3.25 0 0 1 3.25 3.25v2.5a3.25 3.25 0 0 1-3.25 3.25H7.78a.5.5 0 1 1 0-1h.227a2.25 2.25 0 0 0 2.25-2.25v-2.5a2.25 2.25 0 0 0-2.25-2.25h-.5a2.25 2.25 0 0 0-2.25 2.25v.79a.5.5 0 1 1-1 0v-.79zm3.508 10.25c0 .276-.226.504-.499.465a3.5 3.5 0 0 1-3.001-3.465v-2a3.5 3.5 0 0 1 3.001-3.465c.273-.039.499.189.499.465s-.226.495-.497.55a2.5 2.5 0 0 0-2.003 2.45v2a2.5 2.5 0 0 0 2.003 2.45c.27.055.497.274.497.55zM9.412 13.11a.5.5 0 0 1 .707-.708l.883.883V10.7a.5.5 0 1 1 1 0v2.586l.887-.886a.5.5 0 0 1 .707.707l-1.74 1.74a.5.5 0 0 1-.708 0L9.412 13.11z" fill="#6C707E"/></svg>