<svg width="16" height="16" viewBox="0 0 16 16" fill="none" xmlns="http://www.w3.org/2000/svg"><path d="M2 3.5h5M4 1.5L1.744 3.305a.25.25 0 0 0 0 .39L4 5.5M14 3.5H9M12 1.5l2.256 1.805a.25.25 0 0 1 0 .39L12 5.5M4 14.5H2a.5.5 0 0 1-.5-.5V8a.5.5 0 0 1 .5-.5h2a.5.5 0 0 1 .5.5v6a.5.5 0 0 1-.5.5zM9 14.5H7a.5.5 0 0 1-.5-.5V8a.5.5 0 0 1 .5-.5h2a.5.5 0 0 1 .5.5v6a.5.5 0 0 1-.5.5zM14 14.5h-2a.5.5 0 0 1-.5-.5V8a.5.5 0 0 1 .5-.5h2a.5.5 0 0 1 .5.5v6a.5.5 0 0 1-.5.5z" stroke="#6C707E" stroke-linecap="round"/></svg>