<svg width="16" height="16" viewBox="0 0 16 16" fill="none" xmlns="http://www.w3.org/2000/svg"><path fill-rule="evenodd" clip-rule="evenodd" d="M5.196 6a.5.5 0 0 1 .5.5v3.42a.55.55 0 0 1-.796.491l-1.644-.895a.559.559 0 0 0-.645.895l3.06 2.857A2.5 2.5 0 0 0 7.44 14h2.757a2.5 2.5 0 0 0 2.5-2.5V8a.5.5 0 1 1 1 0v3.5a3.5 3.5 0 0 1-3.5 3.5H7.44a3.5 3.5 0 0 1-2.475-1.025l-3.06-2.857a1.559 1.559 0 0 1 1.8-2.496l.992.569V6.5a.5.5 0 0 1 .5-.5zM7.802 2.167a.62.62 0 0 0-.106.333v3a.5.5 0 0 1-1 0v-3c0-.247.07-.606.295-.917C7.233 1.246 7.633 1 8.196 1c.563 0 .963.246 1.206.583.224.311.294.67.294.917v3a.5.5 0 0 1-1 0v-3a.62.62 0 0 0-.105-.333C8.533 2.087 8.433 2 8.196 2c-.237 0-.337.088-.394.167z" fill="#CED0D6"/><path fill-rule="evenodd" clip-rule="evenodd" d="M9.802 3.667A.62.62 0 0 0 9.696 4v3a.5.5 0 0 1-1 0V4c0-.247.07-.606.295-.917.242-.337.642-.583 1.205-.583.563 0 .963.246 1.206.583.225.311.294.67.294.917v3a.5.5 0 0 1-1 0V4a.619.619 0 0 0-.105-.333c-.058-.08-.158-.167-.395-.167-.237 0-.337.088-.394.167z" fill="#CED0D6"/><path fill-rule="evenodd" clip-rule="evenodd" d="M11.802 5.317a.62.62 0 0 0-.106.333v2.5a.5.5 0 0 1-1 0v-2.5c0-.247.07-.606.295-.917.242-.337.642-.583 1.205-.583.563 0 .963.246 1.206.583.225.311.294.67.294.917v3a.5.5 0 0 1-1 0v-3a.62.62 0 0 0-.105-.333c-.058-.08-.158-.167-.395-.167-.237 0-.337.088-.394.167zM5.802 3.667A.62.62 0 0 0 5.696 4v3a.5.5 0 0 1-1 0V4c0-.247.07-.606.295-.917.242-.337.642-.583 1.205-.583.563 0 .963.246 1.206.583.224.311.294.67.294.917v3a.5.5 0 0 1-1 0V4a.62.62 0 0 0-.105-.333c-.058-.08-.158-.167-.395-.167-.237 0-.337.088-.394.167z" fill="#CED0D6"/></svg>