<svg width="16" height="16" viewBox="0 0 16 16" fill="none" xmlns="http://www.w3.org/2000/svg"><circle cx="7.8" cy="13.35" r=".85" fill="#6C707E"/><path d="M7.98 8.751c.224-.237.518-.515.88-.833.372-.328.667-.61.886-.847V7.07c.22-.232.404-.51.552-.837V6.23a2.54 2.54 0 0 0 .229-1.097c0-.499-.105-.938-.311-1.32a2.205 2.205 0 0 0-.873-.892h-.001a2.537 2.537 0 0 0-1.3-.329c-.51 0-.96.114-1.355.338-.389.225-.693.54-.912.949-.102.192-.18.4-.234.62a3 3 0 0 0-.058.317c-.04.302-.276.55-.58.55h-.124a.53.53 0 0 1-.53-.55c.01-.108.025-.213.042-.317.074-.429.212-.826.415-1.191a3.385 3.385 0 0 1 1.36-1.331c.58-.32 1.243-.478 1.986-.478.724 0 1.367.152 1.929.458.566.3 1.008.722 1.321 1.264.314.543.47 1.165.47 1.865 0 .549-.09 1.038-.274 1.464a3.68 3.68 0 0 1-.674 1.064 11.95 11.95 0 0 1-1.015.967c-.335.29-.595.532-.782.725a2.561 2.561 0 0 0-.448.64v.002a1.684 1.684 0 0 0-.18.78.48.48 0 0 1-.48.48h-.2a.528.528 0 0 1-.527-.527c0-.405.075-.772.228-1.097.15-.32.336-.597.56-.834z" fill="#6C707E"/></svg>