<svg width="16" height="16" viewBox="0 0 16 16" fill="none" xmlns="http://www.w3.org/2000/svg"><path fill-rule="evenodd" clip-rule="evenodd" d="M4.281 4.008a3.25 3.25 0 0 0-3.25 3.25v.5a3.25 3.25 0 0 0 3.25 3.25h2.5a3.25 3.25 0 0 0 3.25-3.25V7.53a.5.5 0 1 0-1 0v.227a2.25 2.25 0 0 1-2.25 2.25h-2.5a2.25 2.25 0 0 1-2.25-2.25v-.5a2.25 2.25 0 0 1 2.25-2.25h.79a.5.5 0 0 0 0-1h-.79zm10.25 3.508c.276 0 .504-.226.465-.499a3.5 3.5 0 0 0-3.465-3.001h-2a3.5 3.5 0 0 0-3.465 3.001c-.038.273.19.499.465.499.276 0 .495-.226.55-.497a2.5 2.5 0 0 1 2.45-2.003h2a2.5 2.5 0 0 1 2.45 2.003c.056.27.274.497.55.497z" fill="#CED0D6"/><path d="M14.508 9.492l-3.04 3.04M11.469 9.492l3.039 3.04" stroke="#DB5860" stroke-linecap="round"/></svg>