<svg width="16" height="16" viewBox="0 0 16 16" fill="none" xmlns="http://www.w3.org/2000/svg"><path fill-rule="evenodd" clip-rule="evenodd" d="M3.738 4.265a3.25 3.25 0 0 1 3.25-3.25h.5a3.25 3.25 0 0 1 3.25 3.25v2.5a3.25 3.25 0 0 1-3.25 3.25h-.226a.5.5 0 1 1 0-1h.226a2.25 2.25 0 0 0 2.25-2.25v-2.5a2.25 2.25 0 0 0-2.25-2.25h-.5a2.25 2.25 0 0 0-2.25 2.25v.79a.5.5 0 0 1-1 0v-.79zm3.508 10.25c0 .277-.225.504-.498.465a3.5 3.5 0 0 1-3.002-3.465v-2a3.5 3.5 0 0 1 3.002-3.464c.273-.04.498.188.498.464 0 .277-.226.495-.497.55a2.5 2.5 0 0 0-2.003 2.45v2a2.5 2.5 0 0 0 2.003 2.451c.271.055.497.273.497.55z" fill="#CED0D6"/><path d="M9.223 14.492l3.039-3.04M9.223 11.453l3.039 3.039" stroke="#DB5860" stroke-linecap="round"/></svg>