<svg width="16" height="16" viewBox="0 0 16 16" fill="none" xmlns="http://www.w3.org/2000/svg"><g clip-path="url(#clip0_189_35)"><rect x="8.166" y="14.113" width="10.806" height="6" rx=".5" transform="rotate(-120 8.166 14.113)" stroke="#CED0D6"/><path fill-rule="evenodd" clip-rule="evenodd" d="M13.406 2.007v-.001A7.554 7.554 0 0 0 10.4.41l-.41-.09 1.707 2.968.163-.093.835-.482a6.5 6.5 0 0 1 2.073 6.641.5.5 0 0 0 .966.259 7.5 7.5 0 0 0-2.327-7.606zM2.622 13.693a7.554 7.554 0 0 0 3.007 1.596l.41.09-1.708-2.967-.162.093-.835.482a6.504 6.504 0 0 1-2.2-6.07l.014-.074a.5.5 0 1 0-.983-.184l-.014.077v.005a7.504 7.504 0 0 0 2.47 6.952z" fill="#CED0D6"/></g><defs><clipPath id="clip0_189_35"><path fill="#fff" d="M0 0h16v16H0z"/></clipPath></defs></svg>