<svg width="16" height="16" viewBox="0 0 16 16" fill="none" xmlns="http://www.w3.org/2000/svg"><path d="M6.5 9v4.5a1 1 0 0 0 1 1h1a1 1 0 0 0 1-1v-4" stroke="#6C707E"/><path d="M2 2l12 12" stroke="#6C707E" stroke-linecap="round"/><path fill-rule="evenodd" clip-rule="evenodd" d="M3.917 3.232c-.254.54-.417 1.196-.417 1.987 0 1.66.7 2.804 1.633 3.521A4.863 4.863 0 0 0 8 9.72c.58 0 1.285-.13 1.965-.44l-.77-.77A3.782 3.782 0 0 1 8 8.72a3.865 3.865 0 0 1-2.258-.772C5.05 7.414 4.5 6.56 4.5 5.22c0-.465.07-.868.187-1.217l-.77-.77zM6 3.618V2.322a3.43 3.43 0 0 0-.695.6l-.707-.707a4.686 4.686 0 0 1 1.49-1.081c.45-.208.912.141.912.588v2.896l-1-1zm.13 1.827a1 1 0 0 0 .315.338l.07.047-.384-.385zm4.168 2.47c.674-.534 1.202-1.382 1.202-2.696 0-1.576-.803-2.49-1.5-2.937v2.67a1 1 0 0 1-.445.831l-.834.556-.72-.721L9 4.95V1.7c0-.415.414-.776.868-.602C10.88 1.486 12.5 2.73 12.5 5.219c0 1.574-.63 2.685-1.491 3.407l-.71-.71z" fill="#6C707E"/></svg>