<svg width="16" height="16" viewBox="0 0 16 16" fill="none" xmlns="http://www.w3.org/2000/svg"><path fill-rule="evenodd" clip-rule="evenodd" d="M10 2.282v2.67a1 1 0 0 1-.445.831l-1 .667a1 1 0 0 1-1.11 0l-1-.667A1 1 0 0 1 6 4.951V2.322c-.714.47-1.5 1.34-1.5 2.897 0 1.34.55 2.195 1.242 2.728.395.304.843.508 1.276.63v1.03A5.599 5.599 0 0 1 7 9.603V13.5a.5.5 0 0 0 .5.5h1a.5.5 0 0 0 .5-.5V9.603h-.002V8.572c.428-.122.87-.325 1.26-.625C10.95 7.414 11.5 6.56 11.5 5.22c0-1.576-.803-2.49-1.5-2.937zM9 1.7c0-.415.414-.776.868-.602C10.88 1.486 12.5 2.73 12.5 5.219c0 1.66-.7 2.804-1.633 3.521a4.587 4.587 0 0 1-.867.523V13.5A1.5 1.5 0 0 1 8.5 15h-1A1.5 1.5 0 0 1 6 13.5V9.263a4.583 4.583 0 0 1-.867-.523C4.2 8.023 3.5 6.878 3.5 5.22c0-2.49 1.62-3.639 2.587-4.086.45-.207.913.142.913.589v3.23l1 .666 1-.667V1.7z" fill="#6C707E"/></svg>