<svg width="16" height="16" viewBox="0 0 16 16" fill="none" xmlns="http://www.w3.org/2000/svg"><rect x="4.25" y="8.75" width="1.5" height="1.5" rx=".75" transform="rotate(-90 4.25 8.75)" fill="#CED0D6"/><rect x="1" y="8.75" width="1.5" height="1.5" rx=".75" transform="rotate(-90 1 8.75)" fill="#CED0D6"/><rect x="7.25" y="8.75" width="1.5" height="1.5" rx=".75" transform="rotate(-90 7.25 8.75)" fill="#CED0D6"/><rect x="10.25" y="8.75" width="1.5" height="1.5" rx=".75" transform="rotate(-90 10.25 8.75)" fill="#CED0D6"/><rect x="13.5" y="8.75" width="1.5" height="1.5" rx=".75" transform="rotate(-90 13.5 8.75)" fill="#CED0D6"/><path d="M8 11v4M6 12.5l1.805-2.256a.25.25 0 0 1 .39 0L10 12.5M8 5V1M6 3.5l1.805 2.256c.1.125.29.125.39 0L10 3.5" stroke="#CED0D6" stroke-linecap="round"/></svg>