<svg width="12" height="12" viewBox="0 0 12 12" fill="none" xmlns="http://www.w3.org/2000/svg"><g clip-path="url(#clip0_197_990)"><path d="M4.707 4.95L8.95.707l1.515 1.515-4.243 4.243L4.707 4.95zM1.802 7.705c0-.806.65-1.455 1.454-1.455.805 0 1.454.649 1.454 1.455A2.105 2.105 0 0 1 2.605 9.81a2.86 2.86 0 0 1-1.672-.577c.476-.286.87-.796.87-1.53z" stroke="#548AF7"/><path d="M6.5 9.5l1.43 1.43a.1.1 0 0 0 .14 0L11.5 7.5" stroke="#CED0D6" stroke-linecap="round"/></g><defs><clipPath id="clip0_197_990"><path fill="#fff" d="M0 0h12v12H0z"/></clipPath></defs></svg>