<svg width="16" height="16" viewBox="0 0 16 16" fill="none" xmlns="http://www.w3.org/2000/svg"><mask id="a" fill="#fff"><path fill-rule="evenodd" clip-rule="evenodd" d="M13 12a3 3 0 0 0 1-5.83V9h-2V6.17A3.001 3.001 0 0 0 13 12z"/></mask><path fill-rule="evenodd" clip-rule="evenodd" d="M13 12a3 3 0 0 0 1-5.83V9h-2V6.17A3.001 3.001 0 0 0 13 12z" fill="#4285F4"/><path d="M14 6.17l.333-.942L13 4.757V6.17h1zM14 9v1h1V9h-1zm-2 0h-1v1h1V9zm0-2.83h1V4.758l-1.333.47.333.944zM15 9a2 2 0 0 1-2 2v2a4 4 0 0 0 4-4h-2zm-1.333-1.887A2.001 2.001 0 0 1 15 9h2a4.001 4.001 0 0 0-2.667-3.772l-.666 1.885zM13 6.171V9h2V6.17h-2zM14 8h-2v2h2V8zm-1 1V6.17h-2V9h2zm-2 0c0-.87.555-1.611 1.333-1.887l-.666-1.885A4.001 4.001 0 0 0 9 9h2zm2 2a2 2 0 0 1-2-2H9a4 4 0 0 0 4 4v-2z" fill="#4285F4" mask="url(#a)"/><path d="M12 10.5v4.25c0 .138.112.25.25.25h1.5a.25.25 0 0 0 .25-.25V10.5" stroke="#4285F4" stroke-linecap="round"/><path fill-rule="evenodd" clip-rule="evenodd" d="M12.078 5.107a4.012 4.012 0 0 1 1.122-.102 6 6 0 1 0-2.7 8.451v-1.125A4.977 4.977 0 0 1 8 13a4.98 4.98 0 0 1-3.165-1.129.572.572 0 0 0 .019-.017l4.5-4.5c.4-.886 1.114-1.6 2-2l.5-.5a.572.572 0 0 0 .017-.019c.072.088.141.179.207.272zm-7.932 6.04a.523.523 0 0 0-.017.018 5 5 0 0 1 7.036-7.036.523.523 0 0 0-.019.017l-7 7z" fill="#6C707E"/></svg>