<svg width="16" height="16" viewBox="0 0 16 16" fill="none" xmlns="http://www.w3.org/2000/svg"><g clip-path="url(#clip0_271_495)"><path fill-rule="evenodd" clip-rule="evenodd" d="M14.44 8.71V7.522c.302.295.569.762.569 1.456 0 .78-.317 1.263-.707 1.563-.247.19-.532.313-.802.38v1.021c.462-.079.97-.269 1.412-.608.629-.484 1.097-1.256 1.097-2.356 0-1.589-.998-2.426-1.683-2.723-.468-.203-.885.182-.885.59V8.71L13 9.004l-.44-.294V6.867c0-.442-.467-.807-.926-.578-.649.324-1.643 1.101-1.643 2.689 0 1.1.468 1.872 1.097 2.356.442.34.953.53 1.416.609v-1.02a2.2 2.2 0 0 1-.806-.382c-.39-.3-.707-.782-.707-1.563 0-.687.262-1.137.568-1.432V8.71a1 1 0 0 0 .446.832l.44.294a1 1 0 0 0 1.11 0l.44-.294a1 1 0 0 0 .446-.832z" fill="#3574F0"/><path d="M12 11.291v3.459c0 .138.112.25.25.25h1.5a.25.25 0 0 0 .25-.25v-3.459" stroke="#3574F0" stroke-linecap="round"/><path fill-rule="evenodd" clip-rule="evenodd" d="M12.078 5.107a4.012 4.012 0 0 1 1.122-.102 6 6 0 1 0-2.7 8.451v-1.125A4.977 4.977 0 0 1 8 13a4.98 4.98 0 0 1-3.165-1.129.572.572 0 0 0 .019-.017l4.5-4.5c.4-.886 1.114-1.6 2-2l.5-.5a.572.572 0 0 0 .017-.019c.072.088.141.179.207.272zm-7.932 6.04a.523.523 0 0 0-.017.018 5 5 0 0 1 7.036-7.036.523.523 0 0 0-.019.017l-7 7z" fill="#6C707E"/></g><defs><clipPath id="clip0_271_495"><path fill="#fff" d="M0 0h16v16H0z"/></clipPath></defs></svg>