<svg width="16" height="16" viewBox="0 0 16 16" fill="none" xmlns="http://www.w3.org/2000/svg"><g clip-path="url(#clip0_271_493)"><path fill-rule="evenodd" clip-rule="evenodd" d="M1.646 1.646a.5.5 0 0 1 .708 0l6.7 6.7a4.028 4.028 0 0 0 .311 2.326 3 3 0 0 1-3.81-4.41L3.999 4.706a8.498 8.498 0 0 0-.365.24C2.445 5.773 1.533 6.858 1.066 8c.467 1.142 1.379 2.227 2.568 3.054C4.928 11.954 6.482 12.5 8 12.5c.813 0 1.636-.156 2.424-.44l.076.063v.968c-.81.263-1.655.409-2.5.409-3.5 0-7-2.5-8-5.5.524-1.573 1.736-3.009 3.275-4.018L1.646 2.354a.5.5 0 0 1 0-.708zm12.558 3.538C12.613 3.585 10.306 2.5 8 2.5a8.16 8.16 0 0 0-2.681.47l.797.797A7.003 7.003 0 0 1 8 3.5c1.518 0 3.072.545 4.366 1.446l.123.086a4.038 4.038 0 0 1 1.714.152zm-3.916.876a2.993 2.993 0 0 0-2.88-1.001l.978.978a2 2 0 0 1 1.245.805c.185-.288.406-.551.657-.782zM6 8c0-.37.101-.718.277-1.016l2.739 2.74A2 2 0 0 1 6 8z" fill="#6C707E"/><path fill-rule="evenodd" clip-rule="evenodd" d="M14.44 8.71V7.522c.302.295.569.762.569 1.456 0 .78-.317 1.263-.707 1.563-.247.19-.532.313-.802.38v1.021c.462-.079.97-.269 1.412-.608.629-.484 1.097-1.256 1.097-2.356 0-1.589-.998-2.426-1.683-2.723-.468-.203-.885.182-.885.59V8.71L13 9.004l-.44-.294V6.867c0-.442-.467-.807-.926-.578-.649.324-1.643 1.101-1.643 2.689 0 1.1.468 1.872 1.097 2.356.442.34.953.53 1.416.609v-1.02a2.2 2.2 0 0 1-.806-.382c-.39-.3-.707-.782-.707-1.563 0-.687.262-1.137.568-1.432V8.71a1 1 0 0 0 .446.832l.44.294a1 1 0 0 0 1.11 0l.44-.294a1 1 0 0 0 .446-.832z" fill="#3574F0"/><path d="M12 11.291v3.459c0 .138.112.25.25.25h1.5a.25.25 0 0 0 .25-.25v-3.459" stroke="#3574F0" stroke-linecap="round"/></g><defs><clipPath id="clip0_271_493"><path fill="#fff" d="M0 0h16v16H0z"/></clipPath></defs></svg>