<svg width="16" height="16" viewBox="0 0 16 16" fill="none" xmlns="http://www.w3.org/2000/svg"><mask id="a" fill="#fff"><path fill-rule="evenodd" clip-rule="evenodd" d="M13 12a3 3 0 0 0 1-5.83V9h-2V6.17A3.001 3.001 0 0 0 13 12z"/></mask><path fill-rule="evenodd" clip-rule="evenodd" d="M13 12a3 3 0 0 0 1-5.83V9h-2V6.17A3.001 3.001 0 0 0 13 12z" fill="#4285F4"/><path d="M14 6.17l.333-.942L13 4.757V6.17h1zM14 9v1h1V9h-1zm-2 0h-1v1h1V9zm0-2.83h1V4.758l-1.333.47.333.944zM15 9a2 2 0 0 1-2 2v2a4 4 0 0 0 4-4h-2zm-1.333-1.887A2.001 2.001 0 0 1 15 9h2a4.001 4.001 0 0 0-2.667-3.772l-.666 1.885zM13 6.171V9h2V6.17h-2zM14 8h-2v2h2V8zm-1 1V6.17h-2V9h2zm-2 0c0-.87.555-1.611 1.333-1.887l-.666-1.885A4.001 4.001 0 0 0 9 9h2zm2 2a2 2 0 0 1-2-2H9a4 4 0 0 0 4 4v-2z" fill="#4285F4" mask="url(#a)"/><path d="M12 10.5v4.25c0 .138.112.25.25.25h1.5a.25.25 0 0 0 .25-.25V10.5" stroke="#4285F4" stroke-linecap="round"/><path fill-rule="evenodd" clip-rule="evenodd" d="M1.646 1.646a.5.5 0 0 1 .708 0l6.7 6.7a4.028 4.028 0 0 0 .311 2.326 3 3 0 0 1-3.81-4.41L3.999 4.706a8.498 8.498 0 0 0-.365.24C2.445 5.773 1.533 6.858 1.066 8c.467 1.142 1.379 2.227 2.568 3.054C4.928 11.954 6.482 12.5 8 12.5c.813 0 1.636-.156 2.424-.44l.076.063v.968c-.81.263-1.655.409-2.5.409-3.5 0-7-2.5-8-5.5.524-1.573 1.736-3.009 3.275-4.018L1.646 2.354a.5.5 0 0 1 0-.708zm12.558 3.538C12.613 3.585 10.306 2.5 8 2.5a8.16 8.16 0 0 0-2.681.47l.797.797A7.003 7.003 0 0 1 8 3.5c1.518 0 3.072.545 4.366 1.446l.123.086a4.038 4.038 0 0 1 1.714.152zm-3.916.876a2.993 2.993 0 0 0-2.88-1.001l.978.978a2 2 0 0 1 1.245.805c.185-.288.406-.551.657-.782zM6 8c0-.37.101-.718.277-1.016l2.739 2.74A2 2 0 0 1 6 8z" fill="#6C707E"/></svg>