<svg width="16" height="16" viewBox="0 0 16 16" fill="none" xmlns="http://www.w3.org/2000/svg"><path d="M11.07 7.756l-.32.384.32-.384zm0 .769l.32.384-.32-.384zM5.941 3.482l-.32.384.32-.384zm-.41.192h.5-.5zm0 2.966h.5v.5h-.5v-.5zm-3.5 0v-.5.5zm-.5.5h-.5.5zm0 2h.5-.5zm.5.5v.5-.5zm3.5 0v-.5h.5v.5h-.5zm.41 3.159l.32.384-.32-.384zm5.45-5.427a1 1 0 0 1 0 1.537l-.641-.769.64-.768zM6.26 3.098l5.13 4.274-.641.768-5.129-4.274.64-.768zm-1.23.576a.75.75 0 0 1 1.23-.576l-.64.768a.25.25 0 0 0 .41-.192h-1zm0 2.966V3.674h1V6.64h-1zm.5.5h-3.5v-1h3.5v1zm-3.5 0h-1a1 1 0 0 1 1-1v1zm0 0v2h-1v-2h1zm0 2v1a1 1 0 0 1-1-1h1zm0 0h3.5v1h-3.5v-1zm3 3.467V9.64h1v2.967h-1zm1.23.576a.75.75 0 0 1-1.23-.576h1a.25.25 0 0 0-.41-.192l.64.768zm5.13-4.274l-5.13 4.274-.64-.768L10.75 8.14l.64.769z" fill="#CED0D6"/></svg>