<svg width="12" height="12" viewBox="0 0 12 12" fill="none" xmlns="http://www.w3.org/2000/svg"><g clip-path="url(#clip0_197_985)"><path d="M4.038 5.946L1.475 8.509a1 1 0 0 0 0 1.414l.37.37a1 1 0 0 0 1.414 0L5.822 7.73" stroke="#6C707E"/><path fill-rule="evenodd" clip-rule="evenodd" d="M8.518 5.74l1.545-1.544c.103.653-.011 1.57-.86 2.418-.779.78-1.59.954-2.294.862a3.106 3.106 0 0 1-1.145-.399l-.725.726a4.143 4.143 0 0 0 1.74.664c1.004.131 2.126-.14 3.131-1.145 1.532-1.532 1.276-3.302.885-4.144-.187-.402-.69-.44-.961-.167L7.906 4.939l-.897-.18-.18-.897 1.918-1.917a.597.597 0 0 0-.209-.981c-.843-.32-2.556-.642-4.092.894-1.004 1.004-1.276 2.127-1.145 3.13.086.664.346 1.263.664 1.74l.725-.725a3.106 3.106 0 0 1-.398-1.144c-.092-.705.083-1.515.861-2.294.839-.838 1.724-.94 2.395-.836l-1.52 1.52a.75.75 0 0 0-.206.678l.239 1.192a.75.75 0 0 0 .588.588l1.192.239a.75.75 0 0 0 .677-.206z" fill="#6C707E"/></g><defs><clipPath id="clip0_197_985"><path fill="#fff" d="M0 0h12v12H0z"/></clipPath></defs></svg>