<svg width="12" height="12" viewBox="0 0 12 12" fill="none" xmlns="http://www.w3.org/2000/svg"><g clip-path="url(#clip0_197_988)" stroke="#CED0D6"><path d="M6.313 3.829L6.55 5.02a.25.25 0 0 0 .196.196l1.192.238a.25.25 0 0 0 .226-.068l2.022-2.023a.094.094 0 0 1 .154.024c.327.705.562 2.234-.784 3.58-1.784 1.784-3.865.892-4.757 0-.892-.892-1.784-2.973 0-4.757 1.34-1.34 2.812-1.064 3.56-.78.067.025.083.11.033.16L6.381 3.603a.25.25 0 0 0-.068.226z"/><path d="M4.038 5.946L1.475 8.509a1 1 0 0 0 0 1.414l.37.37a1 1 0 0 0 1.414 0L5.822 7.73"/></g><defs><clipPath id="clip0_197_988"><path fill="#fff" d="M0 0h12v12H0z"/></clipPath></defs></svg>