<svg width="16" height="16" viewBox="0 0 16 16" fill="none" xmlns="http://www.w3.org/2000/svg"><path fill-rule="evenodd" clip-rule="evenodd" d="M3.634 11.054C2.445 10.227 1.533 9.142 1.066 8c.467-1.142 1.379-2.227 2.568-3.054C4.928 4.046 6.482 3.5 8 3.5c1.518 0 3.072.545 4.366 1.446l.123.086a4.038 4.038 0 0 1 1.714.152C12.614 3.585 10.306 2.5 8 2.5 4.5 2.5 1 5 0 8c1 3 4.5 5.5 8 5.5.828 0 1.655-.14 2.45-.393v-1.025l-.026-.022A7.192 7.192 0 0 1 8 12.5c-1.518 0-3.072-.546-4.366-1.446zM8 5c.917 0 1.738.411 2.288 1.06-.25.231-.472.494-.657.782a2 2 0 1 0-.57 2.854c.06.342.163.67.304.976A3 3 0 1 1 8 5z" fill="#6C707E"/><mask id="a" fill="#fff"><path fill-rule="evenodd" clip-rule="evenodd" d="M13 12a3 3 0 0 0 1-5.83V9h-2V6.17A3.001 3.001 0 0 0 13 12z"/></mask><path fill-rule="evenodd" clip-rule="evenodd" d="M13 12a3 3 0 0 0 1-5.83V9h-2V6.17A3.001 3.001 0 0 0 13 12z" fill="#4285F4"/><path d="M14 6.17l.333-.942L13 4.757V6.17h1zM14 9v1h1V9h-1zm-2 0h-1v1h1V9zm0-2.83h1V4.758l-1.333.47.333.944zM15 9a2 2 0 0 1-2 2v2a4 4 0 0 0 4-4h-2zm-1.333-1.887A2.001 2.001 0 0 1 15 9h2a4.001 4.001 0 0 0-2.667-3.772l-.666 1.885zM13 6.171V9h2V6.17h-2zM14 8h-2v2h2V8zm-1 1V6.17h-2V9h2zm-2 0c0-.87.555-1.611 1.333-1.887l-.666-1.885A4.001 4.001 0 0 0 9 9h2zm2 2a2 2 0 0 1-2-2H9a4 4 0 0 0 4 4v-2z" fill="#4285F4" mask="url(#a)"/><path d="M12 10.5v4.25c0 .138.112.25.25.25h1.5a.25.25 0 0 0 .25-.25V10.5" stroke="#4285F4" stroke-linecap="round"/></svg>