<svg width="16" height="16" viewBox="0 0 16 16" fill="none" xmlns="http://www.w3.org/2000/svg"><g clip-path="url(#clip0_271_491)"><g clip-path="url(#clip1_271_491)"><path fill-rule="evenodd" clip-rule="evenodd" d="M3.634 11.054C2.445 10.227 1.533 9.142 1.066 8c.467-1.142 1.379-2.227 2.568-3.054C4.928 4.046 6.482 3.5 8 3.5c1.518 0 3.072.545 4.366 1.446l.123.086a4.038 4.038 0 0 1 1.714.152C12.614 3.585 10.306 2.5 8 2.5 4.5 2.5 1 5 0 8c1 3 4.5 5.5 8 5.5.828 0 1.655-.14 2.45-.393v-1.025l-.026-.022A7.192 7.192 0 0 1 8 12.5c-1.518 0-3.072-.546-4.366-1.446zM8 5c.917 0 1.738.411 2.288 1.06-.25.231-.472.494-.657.782a2 2 0 1 0-.57 2.854c.06.342.163.67.304.976A3 3 0 1 1 8 5z" fill="#6C707E"/><path fill-rule="evenodd" clip-rule="evenodd" d="M14.44 8.71V7.522c.302.295.569.762.569 1.456 0 .78-.317 1.263-.707 1.563-.247.19-.532.313-.802.38v1.021c.462-.079.97-.269 1.412-.608.629-.484 1.097-1.256 1.097-2.356 0-1.589-.998-2.426-1.683-2.723-.468-.203-.885.182-.885.59V8.71L13 9.004l-.44-.294V6.867c0-.442-.467-.807-.926-.578-.649.324-1.643 1.101-1.643 2.689 0 1.1.468 1.872 1.097 2.356.442.34.953.53 1.416.609v-1.02a2.2 2.2 0 0 1-.806-.382c-.39-.3-.707-.782-.707-1.563 0-.687.262-1.137.568-1.432V8.71a1 1 0 0 0 .446.832l.44.294a1 1 0 0 0 1.11 0l.44-.294a1 1 0 0 0 .446-.832z" fill="#3574F0"/><path d="M12 11.291v3.459c0 .138.112.25.25.25h1.5a.25.25 0 0 0 .25-.25v-3.459" stroke="#3574F0" stroke-linecap="round"/></g></g><defs><clipPath id="clip0_271_491"><path fill="#fff" d="M0 0h16v16H0z"/></clipPath><clipPath id="clip1_271_491"><path fill="#fff" d="M0 0h16v16H0z"/></clipPath></defs></svg>