<svg width="16" height="16" viewBox="0 0 16 16" xmlns="http://www.w3.org/2000/svg"><rect width="16" height="16" fill="none"/><path d="M1 5c.29-1.162.464-1.744 2-2h10c1.536.256 1.71.838 2 2v6c-.29 1.162-.464 1.744-2 2H3c-1.536-.256-1.71-.838-2-2V5zm5.752 4.645l.374 1.128h1.182L6.288 5.3h-1.03L3.25 10.773h1.182l.37-1.128h1.95zm-1.65-.913l.672-2.048.678 2.048h-1.35zm3.473-.023c0 .672.143 1.196.428 1.573.285.377.664.566 1.136.566.42 0 .763-.17 1.03-.507l.052.432h.967V5h-1.075v2.075a1.22 1.22 0 0 0-.967-.444c-.487 0-.87.188-1.15.564-.28.376-.421.88-.421 1.514zm1.07.08c0-.85.259-1.275.775-1.275.329 0 .56.142.693.425v1.605c-.136.283-.369.424-.7.424a.638.638 0 0 1-.57-.304c-.132-.203-.197-.495-.197-.876z" fill="#6E6E6E" fill-rule="evenodd"/></svg>