<!--
  - Copyright (C) 2025 The Android Open Source Project
  -
  - Licensed under the Apache License, Version 2.0 (the "License");
  - you may not use this file except in compliance with the License.
  - You may obtain a copy of the License at
  -
  -      http://www.apache.org/licenses/LICENSE-2.0
  -
  - Unless required by applicable law or agreed to in writing, software
  - distributed under the License is distributed on an "AS IS" BASIS,
  - WITHOUT WARRANTIES OR CONDITIONS OF ANY KIND, either express or implied.
  - See the License for the specific language governing permissions and
  - limitations under the License.
  -->
<svg width="16" height="16" viewBox="0 0 16 16" fill="none" xmlns="http://www.w3.org/2000/svg"><path d="M11 1.5V3M5 1.5V3M1.5 6.5h13" stroke="#6C707E" stroke-linecap="round" stroke-linejoin="round"/><path fill-rule="evenodd" clip-rule="evenodd" d="M14.824 10.458a.6.6 0 010 .849l-3.797 3.796a.6.6 0 01-.848 0l-2.006-2.005a.6.6 0 11.849-.849l1.581 1.582 3.373-3.373a.6.6 0 01.848 0z" fill="#3574F0"/><path fill-rule="evenodd" clip-rule="evenodd" d="M3 4h10a1 1 0 011 1v4.333c.33-.085.681-.063 1 .066V5a2 2 0 00-2-2H3a2 2 0 00-2 2v8a2 2 0 002 2h5.661l-1-1H3a1 1 0 01-1-1V5a1 1 0 011-1zm9.545 11H13a2 2 0 002-2v-.455L12.545 15z" fill="#6C707E"/></svg>