<svg width="16" height="16" viewBox="0 0 16 16" fill="none" xmlns="http://www.w3.org/2000/svg"><path d="M11 1.5V3M5 1.5V3M1.5 6.5h13" stroke="#CED0D6" stroke-linecap="round" stroke-linejoin="round"/><path fill-rule="evenodd" clip-rule="evenodd" d="M14.824 10.458a.6.6 0 010 .849l-3.797 3.796a.6.6 0 01-.848 0l-2.006-2.005a.6.6 0 11.849-.849l1.581 1.582 3.373-3.373a.6.6 0 01.848 0z" fill="#548AF7"/><path fill-rule="evenodd" clip-rule="evenodd" d="M3 4h10a1 1 0 011 1v4.333c.33-.085.681-.063 1 .066V5a2 2 0 00-2-2H3a2 2 0 00-2 2v8a2 2 0 002 2h5.661l-1-1H3a1 1 0 01-1-1V5a1 1 0 011-1zm9.545 11H13a2 2 0 002-2v-.455L12.545 15z" fill="#CED0D6"/></svg>