<!--
  - Copyright (C) 2025 The Android Open Source Project
  -
  - Licensed under the Apache License, Version 2.0 (the "License");
  - you may not use this file except in compliance with the License.
  - You may obtain a copy of the License at
  -
  -      http://www.apache.org/licenses/LICENSE-2.0
  -
  - Unless required by applicable law or agreed to in writing, software
  - distributed under the License is distributed on an "AS IS" BASIS,
  - WITHOUT WARRANTIES OR CONDITIONS OF ANY KIND, either express or implied.
  - See the License for the specific language governing permissions and
  - limitations under the License.
  -->
<svg width="16" height="16" viewBox="0 0 16 16" fill="none" xmlns="http://www.w3.org/2000/svg"><mask id="a" fill="#fff"><rect x="1" y="3" width="4" height="4" rx=".5"/></mask><rect x="1" y="3" width="4" height="4" rx=".5" stroke="#CED0D6" stroke-width="2" mask="url(#a)"/><mask id="b" fill="#fff"><rect x="1" y="8" width="4" height="4" rx=".5"/></mask><rect x="1" y="8" width="4" height="4" rx=".5" stroke="#CED0D6" stroke-width="2" mask="url(#b)"/><mask id="c" fill="#fff"><rect x="6" y="3" width="4" height="4" rx=".5"/></mask><rect x="6" y="3" width="4" height="4" rx=".5" stroke="#CED0D6" stroke-width="2" mask="url(#c)"/><mask id="d" fill="#fff"><rect x="6" y="8" width="4" height="4" rx=".5"/></mask><rect x="6" y="8" width="4" height="4" rx=".5" stroke="#CED0D6" stroke-width="2" mask="url(#d)"/><mask id="e" fill="#fff"><rect x="11" y="3" width="4" height="4" rx=".5"/></mask><rect x="11" y="3" width="4" height="4" rx=".5" stroke="#CED0D6" stroke-width="2" mask="url(#e)"/><mask id="f" fill="#fff"><rect x="11" y="8" width="4" height="4" rx=".5"/></mask><rect x="11" y="8" width="4" height="4" rx=".5" stroke="#CED0D6" stroke-width="2" mask="url(#f)"/></svg>