<svg width="16" height="16" viewBox="0 0 16 16" fill="none" xmlns="http://www.w3.org/2000/svg"><mask id="a" fill="#fff"><rect x="1" y="8" width="4" height="4" rx=".5" transform="rotate(-90 1 8)"/></mask><rect x="1" y="8" width="4" height="4" rx=".5" transform="rotate(-90 1 8)" stroke="#6C707E" stroke-width="2" mask="url(#a)"/><mask id="b" fill="#fff"><rect x="6" y="8" width="4" height="4" rx=".5" transform="rotate(-90 6 8)"/></mask><rect x="6" y="8" width="4" height="4" rx=".5" transform="rotate(-90 6 8)" stroke="#6C707E" stroke-width="2" mask="url(#b)"/><mask id="c" fill="#fff"><rect x="11" y="8" width="4" height="4" rx=".5" transform="rotate(-90 11 8)"/></mask><rect x="11" y="8" width="4" height="4" rx=".5" transform="rotate(-90 11 8)" stroke="#6C707E" stroke-width="2" mask="url(#c)"/><mask id="d" fill="#fff"><rect x="1" y="13" width="4" height="4" rx=".5" transform="rotate(-90 1 13)"/></mask><rect x="1" y="13" width="4" height="4" rx=".5" transform="rotate(-90 1 13)" stroke="#6C707E" stroke-width="2" mask="url(#d)"/><mask id="e" fill="#fff"><rect x="6" y="13" width="4" height="4" rx=".5" transform="rotate(-90 6 13)"/></mask><rect x="6" y="13" width="4" height="4" rx=".5" transform="rotate(-90 6 13)" stroke="#6C707E" stroke-width="2" mask="url(#e)"/><mask id="f" fill="#fff"><rect x="11" y="13" width="4" height="4" rx=".5" transform="rotate(-90 11 13)"/></mask><rect x="11" y="13" width="4" height="4" rx=".5" transform="rotate(-90 11 13)" stroke="#6C707E" stroke-width="2" mask="url(#f)"/></svg>