<!--
  - Copyright (C) 2025 The Android Open Source Project
  -
  - Licensed under the Apache License, Version 2.0 (the "License");
  - you may not use this file except in compliance with the License.
  - You may obtain a copy of the License at
  -
  -      http://www.apache.org/licenses/LICENSE-2.0
  -
  - Unless required by applicable law or agreed to in writing, software
  - distributed under the License is distributed on an "AS IS" BASIS,
  - WITHOUT WARRANTIES OR CONDITIONS OF ANY KIND, either express or implied.
  - See the License for the specific language governing permissions and
  - limitations under the License.
  -->
<svg width="16" height="16" viewBox="0 0 16 16" fill="none" xmlns="http://www.w3.org/2000/svg"><path clip-rule="evenodd" d="M5 4.273C5 6.248 7.235 8.335 7.847 8.87a.23.23 0 00.306 0C8.765 8.335 11 6.248 11 4.273 11 2.42 9.656 1 8 1S5 2.42 5 4.273z" stroke="#CED0D6"/><path fill-rule="evenodd" clip-rule="evenodd" d="M2 14h12v-2H2v2zm-1-2.5a.5.5 0 01.5-.5h13a.5.5 0 01.5.5v3a.5.5 0 01-.5.5h-13a.5.5 0 01-.5-.5v-3z" fill="#CED0D6"/><path d="M2 11h6v4H2v-4z" fill="#CED0D6"/></svg>