<!--
  - Copyright (C) 2025 The Android Open Source Project
  -
  - Licensed under the Apache License, Version 2.0 (the "License");
  - you may not use this file except in compliance with the License.
  - You may obtain a copy of the License at
  -
  -      http://www.apache.org/licenses/LICENSE-2.0
  -
  - Unless required by applicable law or agreed to in writing, software
  - distributed under the License is distributed on an "AS IS" BASIS,
  - WITHOUT WARRANTIES OR CONDITIONS OF ANY KIND, either express or implied.
  - See the License for the specific language governing permissions and
  - limitations under the License.
  -->
<svg width="16" height="16" viewBox="0 0 16 16" fill="none" xmlns="http://www.w3.org/2000/svg"><path fill-rule="evenodd" clip-rule="evenodd" d="M2 3a.5.5 0 01.5.5v9a.5.5 0 01-1 0v-9A.5.5 0 012 3zm3.75 5a.75.75 0 11-1.5 0 .75.75 0 011.5 0zm3 0a.75.75 0 11-1.5 0 .75.75 0 011.5 0zm2.25.75a.75.75 0 100-1.5.75.75 0 000 1.5zm3.5-5.25a.5.5 0 00-1 0v9a.5.5 0 001 0v-9z" fill="#6C707E"/></svg>