<!--
  - Copyright (C) 2025 The Android Open Source Project
  -
  - Licensed under the Apache License, Version 2.0 (the "License");
  - you may not use this file except in compliance with the License.
  - You may obtain a copy of the License at
  -
  -      http://www.apache.org/licenses/LICENSE-2.0
  -
  - Unless required by applicable law or agreed to in writing, software
  - distributed under the License is distributed on an "AS IS" BASIS,
  - WITHOUT WARRANTIES OR CONDITIONS OF ANY KIND, either express or implied.
  - See the License for the specific language governing permissions and
  - limitations under the License.
  -->
<svg width="16" height="16" viewBox="0 0 16 16" fill="none" xmlns="http://www.w3.org/2000/svg"><path fill-rule="evenodd" clip-rule="evenodd" d="M3 3.5A1.5 1.5 0 001.5 5v6A1.5 1.5 0 003 12.5h10a1.5 1.5 0 001.5-1.5V5A1.5 1.5 0 0013 3.5H3zm4 1H3a.5.5 0 00-.5.5v6a.5.5 0 00.5.5h10a.5.5 0 00.5-.5V8a.5.5 0 00-.5-.5H9A1.5 1.5 0 017.5 6V4.5H7zm1.5 0V6a.5.5 0 00.5.5h4c.175 0 .344.03.5.085V5a.5.5 0 00-.5-.5H8.5z" fill="#6C707E"/></svg>