<!--
  - Copyright (C) 2025 The Android Open Source Project
  -
  - Licensed under the Apache License, Version 2.0 (the "License");
  - you may not use this file except in compliance with the License.
  - You may obtain a copy of the License at
  -
  -      http://www.apache.org/licenses/LICENSE-2.0
  -
  - Unless required by applicable law or agreed to in writing, software
  - distributed under the License is distributed on an "AS IS" BASIS,
  - WITHOUT WARRANTIES OR CONDITIONS OF ANY KIND, either express or implied.
  - See the License for the specific language governing permissions and
  - limitations under the License.
  -->
<svg width="16" height="16" viewBox="0 0 16 16" fill="none" xmlns="http://www.w3.org/2000/svg"><path fill-rule="evenodd" clip-rule="evenodd" d="M14 12V4h-3v8h3zm1-8a1 1 0 00-1-1h-3a1 1 0 00-1 1v8a1 1 0 001 1h3a1 1 0 001-1V4zM5 12V4H2v8h3zm1-8a1 1 0 00-1-1H2a1 1 0 00-1 1v8a1 1 0 001 1h3a1 1 0 001-1V4zm2.5-2.5a.5.5 0 00-1 0v13a.5.5 0 001 0v-13z" fill="#CED0D6"/></svg>