<svg width="16" height="16" viewBox="0 0 16 16" xmlns="http://www.w3.org/2000/svg"><rect width="16" height="16" fill="none"/><g fill="#AFB1B3" fill-rule="evenodd"><path d="M8 4.85h6.23C13.11 2.54 10.73 1 8 1c-2.17 0-4.13.98-5.39 2.52l2.31 3.99C5.13 6.04 6.46 4.85 8 4.85zm0 6.3c-1.19 0-2.17-.63-2.73-1.61L2.12 4.15A7.281 7.281 0 0 0 1 8c0 3.5 2.52 6.37 5.88 6.93l2.31-3.99c-.42.14-.77.21-1.19.21zM11.15 8c0 .56-.14 1.12-.42 1.54L7.58 15H8c3.85 0 7-3.15 7-7 0-.84-.14-1.68-.42-2.45H9.96c.7.56 1.19 1.47 1.19 2.45z"/><circle cx="8" cy="8" r="2.45"/></g></svg>