<!--
  - Copyright (C) 2025 The Android Open Source Project
  -
  - Licensed under the Apache License, Version 2.0 (the "License");
  - you may not use this file except in compliance with the License.
  - You may obtain a copy of the License at
  -
  -      http://www.apache.org/licenses/LICENSE-2.0
  -
  - Unless required by applicable law or agreed to in writing, software
  - distributed under the License is distributed on an "AS IS" BASIS,
  - WITHOUT WARRANTIES OR CONDITIONS OF ANY KIND, either express or implied.
  - See the License for the specific language governing permissions and
  - limitations under the License.
  -->
<svg width="16" height="16" viewBox="0 0 16 16" fill="none" xmlns="http://www.w3.org/2000/svg"><path d="M7.5 13.5a1 1 0 01-1-1v-9a1 1 0 011-1h1a1 1 0 011 1v9a1 1 0 01-1 1h-1zM2.5 11.5a1 1 0 01-1-1v-7a1 1 0 011-1h1a1 1 0 011 1v7a1 1 0 01-1 1h-1zM12.5 11.5a1 1 0 01-1-1v-7a1 1 0 011-1h1a1 1 0 011 1v7a1 1 0 01-1 1h-1z" fill="#43454A" stroke="#CED0D6"/></svg>