<!--
  - Copyright (C) 2025 The Android Open Source Project
  -
  - Licensed under the Apache License, Version 2.0 (the "License");
  - you may not use this file except in compliance with the License.
  - You may obtain a copy of the License at
  -
  -      http://www.apache.org/licenses/LICENSE-2.0
  -
  - Unless required by applicable law or agreed to in writing, software
  - distributed under the License is distributed on an "AS IS" BASIS,
  - WITHOUT WARRANTIES OR CONDITIONS OF ANY KIND, either express or implied.
  - See the License for the specific language governing permissions and
  - limitations under the License.
  -->
<svg width="16" height="16" viewBox="0 0 16 16" fill="none" xmlns="http://www.w3.org/2000/svg"><path fill-rule="evenodd" clip-rule="evenodd" d="M9 15A6 6 0 109 3a6 6 0 000 12zm0-9.9a.9.9 0 01.9.9v3a.9.9 0 01-1.8 0V6a.9.9 0 01.9-.9zm1 6.9a1 1 0 11-2 0 1 1 0 012 0z" fill="#E55765"/><path fill-rule="evenodd" clip-rule="evenodd" d="M7.915 2.084a5 5 0 00-5.832 5.832 7.053 7.053 0 00.094 2.653 6 6 0 018.393-8.393 7.023 7.023 0 00-2.655-.092z" fill="#E55765"/></svg>