<svg width="16" height="16" viewBox="0 0 16 16" fill="none" xmlns="http://www.w3.org/2000/svg">
<path fill-rule="evenodd" clip-rule="evenodd" d="M8 14C11.3137 14 14 11.3137 14 8C14 4.68629 11.3137 2 8 2C4.68629 2 2 4.68629 2 8C2 11.3137 4.68629 14 8 14ZM8.46429 10.9429V12.1H7.30714V10.9429H8.46429ZM9.14121 8.14836L9.66193 7.61607C9.99171 7.28629 10.2 6.82343 10.2 6.31429C10.2 5.03564 9.16436 4 7.88571 4C6.60707 4 5.57143 5.03564 5.57143 6.31429H6.72857C6.72857 5.67786 7.24929 5.15714 7.88571 5.15714C8.52214 5.15714 9.04286 5.67786 9.04286 6.31429C9.04286 6.6325 8.91557 6.92179 8.7015 7.13007L7.98407 7.85907C7.5675 8.28143 7.30714 8.86 7.30714 9.49643V9.78571H8.46429C8.46429 8.91786 8.72464 8.57071 9.14121 8.14836Z" fill="#3592C4"/>
</svg>
