<!--
  - Copyright (C) 2025 The Android Open Source Project
  -
  - Licensed under the Apache License, Version 2.0 (the "License");
  - you may not use this file except in compliance with the License.
  - You may obtain a copy of the License at
  -
  -      http://www.apache.org/licenses/LICENSE-2.0
  -
  - Unless required by applicable law or agreed to in writing, software
  - distributed under the License is distributed on an "AS IS" BASIS,
  - WITHOUT WARRANTIES OR CONDITIONS OF ANY KIND, either express or implied.
  - See the License for the specific language governing permissions and
  - limitations under the License.
  -->
<svg width="16" height="16" viewBox="0 0 16 16" fill="none" xmlns="http://www.w3.org/2000/svg"><g clip-path="url(#clip0_142_1792)"><path fill-rule="evenodd" clip-rule="evenodd" d="M5 5a3 3 0 016 0v1a2 2 0 012 2v4a2 2 0 01-2 2H5a2 2 0 01-2-2V8a2 2 0 012-2V5zm5 0v1H6V5a2 2 0 114 0zM5 7a1 1 0 00-1 1v4a1 1 0 001 1h6a1 1 0 001-1V8a1 1 0 00-1-1H5zm3 1.5a.5.5 0 00-.5.5v2a.5.5 0 001 0V9a.5.5 0 00-.5-.5z" fill="#6C707E"/></g><defs><clipPath id="clip0_142_1792"><path fill="#fff" d="M0 0h16v16H0z"/></clipPath></defs></svg>