<!--
  - Copyright (C) 2025 The Android Open Source Project
  -
  - Licensed under the Apache License, Version 2.0 (the "License");
  - you may not use this file except in compliance with the License.
  - You may obtain a copy of the License at
  -
  -      http://www.apache.org/licenses/LICENSE-2.0
  -
  - Unless required by applicable law or agreed to in writing, software
  - distributed under the License is distributed on an "AS IS" BASIS,
  - WITHOUT WARRANTIES OR CONDITIONS OF ANY KIND, either express or implied.
  - See the License for the specific language governing permissions and
  - limitations under the License.
  -->
<svg width="16" height="16" viewBox="0 0 16 16" fill="none" xmlns="http://www.w3.org/2000/svg"><path fill-rule="evenodd" clip-rule="evenodd" d="M6 2h7a1 1 0 011 1v10a1 1 0 01-1 1H6a1 1 0 01-1-1v-3H4v3a2 2 0 002 2h7a2 2 0 002-2V3a2 2 0 00-2-2H6a2 2 0 00-2 2v3h1V3a1 1 0 011-1z" fill="#6C707E"/><path d="M2.5 8H11m0 0L8.5 5.5M11 8l-2.5 2.5" stroke="#3574F0" stroke-linecap="round" stroke-linejoin="round"/></svg>