<!--
  - Copyright (C) 2025 The Android Open Source Project
  -
  - Licensed under the Apache License, Version 2.0 (the "License");
  - you may not use this file except in compliance with the License.
  - You may obtain a copy of the License at
  -
  -      http://www.apache.org/licenses/LICENSE-2.0
  -
  - Unless required by applicable law or agreed to in writing, software
  - distributed under the License is distributed on an "AS IS" BASIS,
  - WITHOUT WARRANTIES OR CONDITIONS OF ANY KIND, either express or implied.
  - See the License for the specific language governing permissions and
  - limitations under the License.
  -->
<svg width="16" height="16" viewBox="0 0 16 16" fill="none" xmlns="http://www.w3.org/2000/svg"><path d="M4.5 8H13m0 0l-2.5-2.5M13 8l-2.5 2.5" stroke="#DB5C5C" stroke-linecap="round" stroke-linejoin="round"/><path fill-rule="evenodd" clip-rule="evenodd" d="M3 2h7a1 1 0 011 1v1h1V3a2 2 0 00-2-2H3a2 2 0 00-2 2v10a2 2 0 002 2h7a2 2 0 002-2v-1h-1v1a1 1 0 01-1 1H3a1 1 0 01-1-1V3a1 1 0 011-1z" fill="#CED0D6"/></svg>