<svg width="16" height="16" viewBox="0 0 16 16" fill="none" xmlns="http://www.w3.org/2000/svg"><g clip-path="url(#clip0_510_730)"><path fill-rule="evenodd" clip-rule="evenodd" d="M8.5 5V2.02a6.001 6.001 0 015.48 5.48H11a.5.5 0 000 1h2.98a6.002 6.002 0 01-5.48 5.48V11a.5.5 0 00-1 0v2.98A6.001 6.001 0 012.02 8.5H5a.5.5 0 000-1H2.02A6.001 6.001 0 017.5 2.02V5a.5.5 0 001 0zM1 8a7 7 0 1114 0A7 7 0 011 8z" fill="#CED0D6"/></g><defs><clipPath id="clip0_510_730"><path fill="#fff" d="M0 0h16v16H0z"/></clipPath></defs></svg>