<svg width="14" height="24" viewBox="0 0 14 24" xmlns="http://www.w3.org/2000/svg"><rect id="frame" width="14" height="24" fill="none"/><g fill="none" fill-rule="evenodd"><path d="M5.5 0A4.5 4.5 0 0 1 10 4.5v15a4.5 4.5 0 1 1-9 0v-15A4.5 4.5 0 0 1 5.5 0zm0 2A2.5 2.5 0 0 0 3 4.5v15a2.5 2.5 0 1 0 5 0v-15A2.5 2.5 0 0 0 5.5 2z" fill="#97C3F3"/><path d="M5.5 2A2.5 2.5 0 0 1 8 4.5v15a2.5 2.5 0 1 1-5 0v-15A2.5 2.5 0 0 1 5.5 2zm0 1A1.5 1.5 0 0 0 4 4.5v15a1.5 1.5 0 0 0 3 0v-15A1.5 1.5 0 0 0 5.5 3z" fill="#C4C4C4"/></g></svg>