<!--
  - Copyright (C) 2025 The Android Open Source Project
  -
  - Licensed under the Apache License, Version 2.0 (the "License");
  - you may not use this file except in compliance with the License.
  - You may obtain a copy of the License at
  -
  -      http://www.apache.org/licenses/LICENSE-2.0
  -
  - Unless required by applicable law or agreed to in writing, software
  - distributed under the License is distributed on an "AS IS" BASIS,
  - WITHOUT WARRANTIES OR CONDITIONS OF ANY KIND, either express or implied.
  - See the License for the specific language governing permissions and
  - limitations under the License.
  -->
<svg width="14" height="24" viewBox="0 0 14 24" fill="none" xmlns="http://www.w3.org/2000/svg"><g clip-path="url(#clip0_7818_3614)" fill-rule="evenodd" clip-rule="evenodd"><path d="M5.5 0A4.5 4.5 0 001 4.5v15a4.5 4.5 0 109 0v-15A4.5 4.5 0 005.5 0zm0 1.2A3.5 3.5 0 002 4.7v14.6a3.5 3.5 0 107 0V4.7a3.5 3.5 0 00-3.5-3.5z" fill="#3574F0"/><path d="M5.5 2A2.5 2.5 0 003 4.5v15a2.5 2.5 0 005 0v-15A2.5 2.5 0 005.5 2zm0 1.25A1.5 1.5 0 004 4.75v14.5a1.5 1.5 0 003 0V4.75a1.5 1.5 0 00-1.5-1.5z" fill="#CED0D6"/></g><defs><clipPath id="clip0_7818_3614"><path fill="#fff" d="M0 0h14v24H0z"/></clipPath></defs></svg>