<svg width="15" height="20" viewBox="0 0 15 20" xmlns="http://www.w3.org/2000/svg"><rect width="15" height="20" fill="none"/><g fill="none" fill-rule="evenodd"><path d="M6.316 4h.368c.594 0 .967.093 1.293.267.326.174.582.43.756.756.174.326.267.699.267 1.293v7.368c0 .594-.093.967-.267 1.293-.174.326-.43.582-.756.756-.326.174-.699.267-1.293.267h-.368c-.594 0-.967-.093-1.293-.267a1.817 1.817 0 0 1-.756-.756C4.093 14.65 4 14.278 4 13.684V6.316c0-.594.093-.967.267-1.293.174-.326.43-.582.756-.756C5.35 4.093 5.722 4 6.316 4z" fill="#6E6E6E"/><path d="M5.764 2h1.472c1.239 0 1.74.14 2.23.4.488.262.872.646 1.133 1.135.262.489.401.99.401 2.229v8.472c0 1.239-.14 1.74-.4 2.23a2.726 2.726 0 0 1-1.135 1.133c-.489.262-.99.401-2.229.401H5.764c-1.239 0-1.74-.14-2.23-.4a2.726 2.726 0 0 1-1.133-1.135c-.262-.489-.401-.99-.401-2.229V5.764c0-1.239.14-1.74.4-2.23a2.726 2.726 0 0 1 1.135-1.133C4.024 2.139 4.525 2 5.764 2zm.552 2c-.594 0-.967.093-1.293.267-.326.174-.582.43-.756.756C4.093 5.35 4 5.722 4 6.316v7.368c0 .594.093.967.267 1.293.174.326.43.582.756.756.326.174.699.267 1.293.267h.368c.594 0 .967-.093 1.293-.267.326-.174.582-.43.756-.756.174-.326.267-.699.267-1.293V6.316c0-.594-.093-.967-.267-1.293a1.817 1.817 0 0 0-.756-.756C7.65 4.093 7.278 4 6.684 4h-.368z" fill="#97C3F3"/></g></svg>