<svg width="15" height="20" viewBox="0 0 15 20" xmlns="http://www.w3.org/2000/svg"><rect width="15" height="20" fill="none"/><path d="M6.316 5c-.41 0-.632.048-.821.149a.818.818 0 0 0-.346.346c-.101.189-.149.41-.149.821v7.368c0 .41.048.632.149.821a.818.818 0 0 0 .346.346c.189.101.41.149.821.149h.368c.41 0 .632-.048.821-.149a.818.818 0 0 0 .346-.346c.101-.189.149-.41.149-.821V6.316c0-.41-.048-.632-.149-.821a.818.818 0 0 0-.346-.346C7.316 5.048 7.095 5 6.684 5h-.368zm0-1h.368c.594 0 .967.093 1.293.267.326.174.582.43.756.756.174.326.267.699.267 1.293v7.368c0 .594-.093.967-.267 1.293-.174.326-.43.582-.756.756-.326.174-.699.267-1.293.267h-.368c-.594 0-.967-.093-1.293-.267a1.817 1.817 0 0 1-.756-.756C4.093 14.65 4 14.278 4 13.684V6.316c0-.594.093-.967.267-1.293.174-.326.43-.582.756-.756C5.35 4.093 5.722 4 6.316 4z" fill="#6E6E6E" fill-rule="nonzero"/></svg>