<svg width="14" height="20" viewBox="0 0 14 20" fill="none" xmlns="http://www.w3.org/2000/svg"><g clip-path="url(#clip0_7818_3618)"><path fill-rule="evenodd" clip-rule="evenodd" d="M5.5 0A4.5 4.5 0 001 4.5v11a4.5 4.5 0 109 0v-11A4.5 4.5 0 005.5 0zm0 1A3.5 3.5 0 002 4.5v11a3.5 3.5 0 107 0v-11A3.5 3.5 0 005.5 1z" fill="#3574F0"/><path d="M3 4.5a2.5 2.5 0 015 0v11a2.5 2.5 0 01-5 0v-11z" fill="#CED0D6"/></g><defs><clipPath id="clip0_7818_3618"><path fill="#fff" d="M0 0h14v20H0z"/></clipPath></defs></svg>