<svg width="15" height="20" viewBox="0 0 15 20" xmlns="http://www.w3.org/2000/svg"><rect width="15" height="20" fill="none"/><path d="M8.316 4h.368c.594 0 .967.093 1.293.267.326.174.582.43.756.756.174.326.267.699.267 1.293v7.368c0 .594-.093.967-.267 1.293-.174.326-.43.582-.756.756-.326.174-.699.267-1.293.267h-.368c-.594 0-.967-.093-1.293-.267a1.817 1.817 0 0 1-.756-.756C6.093 14.65 6 14.278 6 13.684V6.316c0-.594.093-.967.267-1.293.174-.326.43-.582.756-.756C7.35 4.093 7.722 4 8.316 4z" fill="#AFB1B3" fill-rule="evenodd"/></svg>