<svg width="16" height="16" viewBox="0 0 16 16" fill="none" xmlns="http://www.w3.org/2000/svg"><path fill-rule="evenodd" clip-rule="evenodd" d="M14 10.341l-1.222-1.61a4.89 4.89 0 0 0 0-1.542L14 5.579a6.454 6.454 0 0 0-.934-1.62l-2.002.252a4.834 4.834 0 0 0-1.348-.781l-.784-1.862a6.502 6.502 0 0 0-1.864 0L6.284 3.43a4.833 4.833 0 0 0-1.348.78l-2.002-.25A6.453 6.453 0 0 0 2 5.58l1.222 1.609a4.884 4.884 0 0 0 0 1.543L2 10.342c.233.586.55 1.131.934 1.62l2.002-.252c.4.328.855.594 1.348.781l.784 1.861a6.507 6.507 0 0 0 1.864 0l.784-1.861a4.835 4.835 0 0 0 1.348-.781l2.002.251a6.455 6.455 0 0 0 .934-1.62zm-3.85-2.38A2.152 2.152 0 1 1 8 5.806c1.188 0 2.15.964 2.15 2.153z" fill="#AFB1B3"/></svg>