<svg width="16" height="16" viewBox="0 0 16 16" fill="none" xmlns="http://www.w3.org/2000/svg"><path fill-rule="evenodd" clip-rule="evenodd" d="M8.24 12.01L15 5.25l-1.844-1.844L8.24 8.323 5.782 5.865 3.938 7.708 8.24 12.01zM4.442 14.823l-.676-.676 2.588-2.588.676.676-2.588 2.588z" fill="#499C54"/><path fill-rule="evenodd" clip-rule="evenodd" d="M5.677 12.235l.677-.676 2.588 2.588-.677.676-2.588-2.588z" fill="#499C54"/><path fill-rule="evenodd" clip-rule="evenodd" d="M5.677 12.235l.677-.676 2.588 2.588-.677.676-2.588-2.588z" fill="#499C54"/><path fill-rule="evenodd" clip-rule="evenodd" d="M8.265 14.823l-.675-.676 2.588-2.588.676.676-2.588 2.588z" fill="#499C54"/><path fill-rule="evenodd" clip-rule="evenodd" d="M9.502 12.235l.676-.676 2.588 2.588-.676.676-2.588-2.588z" fill="#499C54"/><path fill-rule="evenodd" clip-rule="evenodd" d="M12.09 14.823l-.676-.676 2.588-2.588.676.676-2.588 2.588zM3.322 4.866L4.62 6.127l-.667.687-.623-.604-.977.977 3.51 3.51-.676.678L1 7.187l2.322-2.321zM7.603 6.133L10.725 3l.678.676-3.121 3.132-.679-.675z" fill="#499C54"/></svg>