<!--
  - Copyright (C) 2025 The Android Open Source Project
  -
  - Licensed under the Apache License, Version 2.0 (the "License");
  - you may not use this file except in compliance with the License.
  - You may obtain a copy of the License at
  -
  -      http://www.apache.org/licenses/LICENSE-2.0
  -
  - Unless required by applicable law or agreed to in writing, software
  - distributed under the License is distributed on an "AS IS" BASIS,
  - WITHOUT WARRANTIES OR CONDITIONS OF ANY KIND, either express or implied.
  - See the License for the specific language governing permissions and
  - limitations under the License.
  -->
<svg width="16" height="16" viewBox="0 0 16 16" fill="none" xmlns="http://www.w3.org/2000/svg"><path fill-rule="evenodd" clip-rule="evenodd" d="M7.648 9.657a.5.5 0 00.708 0l6.053-6.053a.5.5 0 000-.708L13.272 1.76a.5.5 0 00-.707 0L8.179 6.146a.25.25 0 01-.354 0L5.897 4.218a.5.5 0 00-.707 0L4.054 5.355a.5.5 0 000 .707l3.594 3.595z" fill="#55A76A"/><path d="M2 14.5l2.394-2.394a.15.15 0 01.212 0l2.288 2.288a.15.15 0 00.212 0l2.288-2.288a.15.15 0 01.212 0L12 14.5M12 14.5l2.5-2.5" stroke="#55A76A" stroke-linecap="round"/><path fill-rule="evenodd" clip-rule="evenodd" d="M7.155 5.97a.5.5 0 01-.707 0l-.385-.386a.5.5 0 01.707 0l.385.386zM3.72 4.49l-.272-.272a.5.5 0 00-.707 0L1.604 5.355a.5.5 0 000 .707l3.57 3.57a.5.5 0 00.73-.024l.231-.264-3.281-3.282a.5.5 0 010-.707l.865-.866z" fill="#55A76A"/></svg>