<!--
  - Copyright (C) 2025 The Android Open Source Project
  -
  - Licensed under the Apache License, Version 2.0 (the "License");
  - you may not use this file except in compliance with the License.
  - You may obtain a copy of the License at
  -
  -      http://www.apache.org/licenses/LICENSE-2.0
  -
  - Unless required by applicable law or agreed to in writing, software
  - distributed under the License is distributed on an "AS IS" BASIS,
  - WITHOUT WARRANTIES OR CONDITIONS OF ANY KIND, either express or implied.
  - See the License for the specific language governing permissions and
  - limitations under the License.
  -->
<svg width="16" height="16" viewBox="0 0 16 16" fill="none" xmlns="http://www.w3.org/2000/svg"><path fill-rule="evenodd" clip-rule="evenodd" d="M7.648 9.657a.5.5 0 00.708 0l6.053-6.053a.5.5 0 000-.708L13.272 1.76a.5.5 0 00-.707 0L8.179 6.146a.25.25 0 01-.354 0L5.897 4.218a.5.5 0 00-.707 0L4.054 5.355a.5.5 0 000 .707l3.594 3.595z" fill="#57965C"/><path d="M2 14.5l2.394-2.394a.15.15 0 01.212 0l2.288 2.288a.15.15 0 00.212 0l2.288-2.288a.15.15 0 01.212 0L12 14.5M12 14.5l2.5-2.5" stroke="#57965C" stroke-linecap="round"/><path fill-rule="evenodd" clip-rule="evenodd" d="M6.728 6.11l-.087-.087a.498.498 0 00-.28-.14l.087.086a.498.498 0 00.28.141zm-3.01-1.62l-.27-.272a.5.5 0 00-.708 0L1.604 5.355a.5.5 0 000 .707l3.605 3.606a.5.5 0 00.696.01l.292-.273-3.343-3.343a.5.5 0 010-.707l.865-.865z" fill="#57965C"/></svg>