<svg width="16" height="16" viewBox="0 0 16 16" xmlns="http://www.w3.org/2000/svg"><rect width="16" height="16" fill="none"/><g fill="none" fill-rule="evenodd"><path d="M3.151 4.5h-.776V1.508l-.927.288v-.631l1.62-.58h.083V4.5zm.795 5h-2.68v-.532L2.53 7.62c.095-.104.175-.199.24-.285.065-.085.118-.164.159-.236a.903.903 0 0 0 .086-.2.672.672 0 0 0 .025-.179c0-.173-.044-.31-.132-.41-.087-.098-.213-.148-.376-.148a.567.567 0 0 0-.243.05.497.497 0 0 0-.177.137.614.614 0 0 0-.109.208.882.882 0 0 0-.037.263h-.779c0-.176.031-.341.094-.497a1.19 1.19 0 0 1 .271-.408 1.3 1.3 0 0 1 .429-.277 1.49 1.49 0 0 1 .565-.102c.206 0 .388.026.546.077.159.05.292.124.4.219a.914.914 0 0 1 .244.349c.055.138.083.292.083.464 0 .131-.02.257-.062.379-.041.122-.1.243-.175.365a2.975 2.975 0 0 1-.272.37 8.273 8.273 0 0 1-.356.387l-.69.728h1.681V9.5zm-1.89 2.701h.413c.197 0 .343-.05.438-.148a.541.541 0 0 0 .142-.392.605.605 0 0 0-.032-.2.412.412 0 0 0-.263-.262.66.66 0 0 0-.234-.037c-.072 0-.14.01-.203.03a.526.526 0 0 0-.166.088.4.4 0 0 0-.154.322H1.22c0-.16.034-.307.1-.439.068-.131.16-.243.275-.335.115-.093.25-.164.407-.215.155-.051.322-.077.5-.077.196 0 .376.024.538.071.162.048.3.118.417.212.117.094.207.21.272.35.064.138.096.299.096.482a.826.826 0 0 1-.154.482 1.064 1.064 0 0 1-.44.358c.22.079.385.197.493.355a.962.962 0 0 1 .163.558 1.042 1.042 0 0 1-.397.85 1.31 1.31 0 0 1-.44.223 1.894 1.894 0 0 1-1.038.01 1.282 1.282 0 0 1-.425-.207 1.065 1.065 0 0 1-.301-.35 1.037 1.037 0 0 1-.114-.502h.776a.467.467 0 0 0 .162.359.57.57 0 0 0 .182.103.762.762 0 0 0 .475 0 .474.474 0 0 0 .303-.278.723.723 0 0 0-.004-.486.447.447 0 0 0-.127-.18.537.537 0 0 0-.203-.104.988.988 0 0 0-.267-.034h-.414v-.607z" fill="#40B6E0"/><path d="M6 1h8v4H6V1zm1 1v2h6V2H7zM6 11h8v4H6v-4zm1 1v2h6v-2H7zM6 6h8v4H6V6zm1 1v2h6V7H7z" fill="#9AA7B0"/></g></svg>