<svg width="16" height="16" viewBox="0 0 16 16" xmlns="http://www.w3.org/2000/svg"><rect width="16" height="16" fill="none"/><g fill="none" fill-rule="evenodd"><path d="M14.93 9H9v5.93A7 7 0 1 1 14.93 9z" fill-opacity=".6" fill="#40B6E0" fill-rule="nonzero"/><path d="M9 10.923a3.123 3.123 0 0 1-.744.077h-.254A2.994 2.994 0 0 1 5 8.016V7.96A3.03 3.03 0 0 1 8.1 5h.181a3.133 3.133 0 0 1 2.303.919l-.51.554a2.617 2.617 0 0 0-1.824-.712h-.02a2.145 2.145 0 0 0-2.065 2.223V8A2.124 2.124 0 0 0 8.19 10.21c.277.008.55-.03.809-.11v.824z" fill-opacity=".7" fill="#231F20" fill-rule="nonzero"/><path d="M10 14h6v1h-6v-1zm0-2h6v1h-6v-1zm0-2h6v1h-6v-1z" fill="#E4B573"/></g></svg>