<!--
  - Copyright (C) 2025 The Android Open Source Project
  -
  - Licensed under the Apache License, Version 2.0 (the "License");
  - you may not use this file except in compliance with the License.
  - You may obtain a copy of the License at
  -
  -      http://www.apache.org/licenses/LICENSE-2.0
  -
  - Unless required by applicable law or agreed to in writing, software
  - distributed under the License is distributed on an "AS IS" BASIS,
  - WITHOUT WARRANTIES OR CONDITIONS OF ANY KIND, either express or implied.
  - See the License for the specific language governing permissions and
  - limitations under the License.
  -->
<svg width="16" height="16" viewBox="0 0 16 16" fill="none" xmlns="http://www.w3.org/2000/svg"><path fill-rule="evenodd" clip-rule="evenodd" d="M14.93 9A7 7 0 109 14.93V9h5.93z" fill="#FFF4EB"/><path fill-rule="evenodd" clip-rule="evenodd" d="M9 13.917A6 6 0 1113.917 9h1.012A7 7 0 109 14.93v-1.013z" fill="#E66D17"/><path d="M7.257 12h1.017V7.327H9.83V6.43H8.274v-.95c0-.36.246-.606.6-.606H9.88V4H8.777c-.903 0-1.52.571-1.52 1.406V6.43H6.12v.897h1.137V12z" fill="#E66D17"/><path d="M10.5 10.5h5M10.5 12.5h5M10.5 14.5h5" stroke="#FFAF0F" stroke-linecap="round"/></svg>