<svg width="16" height="16" viewBox="0 0 16 16" xmlns="http://www.w3.org/2000/svg"><rect width="16" height="16" fill="none"/><g fill="none" fill-rule="evenodd"><path d="M14.93 9H9v5.93A7 7 0 1 1 14.93 9z" fill-opacity=".6" fill="#F4AF3D" fill-rule="nonzero"/><path d="M9.645 7.55H8.209v4.718H7.137V7.551H6v-.44l1.137-.398V6.15a3.475 3.475 0 0 1 .132-1.04c.071-.247.202-.473.38-.659.171-.167.382-.287.613-.348.267-.072.543-.107.82-.103.214-.002.427.02.636.067.175.04.348.09.518.15l-.275.826a3.68 3.68 0 0 0-.396-.114 1.97 1.97 0 0 0-.448-.05 1.304 1.304 0 0 0-.404.056.583.583 0 0 0-.281.196.957.957 0 0 0-.167.384c-.042.205-.06.414-.056.624v.609h1.436v.803z" fill-opacity=".7" fill="#231F20" fill-rule="nonzero"/><path d="M10 14h6v1h-6v-1zm0-2h6v1h-6v-1zm0-2h6v1h-6v-1z" fill="#E4B573"/></g></svg>