<svg width="16" height="16" viewBox="0 0 16 16" xmlns="http://www.w3.org/2000/svg"><rect width="16" height="16" fill="none"/><g fill="none" fill-rule="evenodd"><path d="M14.93 9H9v5.93A7 7 0 1 1 14.93 9z" fill-opacity=".5" fill="#F98B9E" fill-rule="nonzero"/><path d="M11.024 9l-.002-.794a1.697 1.697 0 0 0-.268-1.042.98.98 0 0 0-.829-.347 1.575 1.575 0 0 0-.662.125 1.108 1.108 0 0 0-.446.37c-.124.181-.21.387-.253.603a3.857 3.857 0 0 0-.079.831L8.49 11h-.978l-.005-2.794a1.71 1.71 0 0 0-.266-1.042.972.972 0 0 0-.826-.347 1.531 1.531 0 0 0-.69.139c-.184.092-.338.235-.445.411-.12.206-.202.433-.24.668-.05.3-.074.605-.07.91L5 11h-.999V6h1l-.077.908h.054a1.67 1.67 0 0 1 .69-.68c.142-.074.293-.13.45-.165.158-.036.32-.054.483-.053.37-.014.736.067 1.066.235.29.164.513.425.629.737h.043c.087-.16.2-.307.333-.433.128-.12.271-.221.427-.302.155-.08.319-.14.489-.179.171-.039.347-.059.523-.058a1.829 1.829 0 0 1 1.409.51c.356.466.525 1.049.475 1.633l.001.847h-.972z" fill-opacity=".7" fill="#231F20" fill-rule="nonzero"/><path d="M10 14h6v1h-6v-1zm0-2h6v1h-6v-1zm0-2h6v1h-6v-1z" fill="#E4B573"/></g></svg>