<!--
  - Copyright (C) 2025 The Android Open Source Project
  -
  - Licensed under the Apache License, Version 2.0 (the "License");
  - you may not use this file except in compliance with the License.
  - You may obtain a copy of the License at
  -
  -      http://www.apache.org/licenses/LICENSE-2.0
  -
  - Unless required by applicable law or agreed to in writing, software
  - distributed under the License is distributed on an "AS IS" BASIS,
  - WITHOUT WARRANTIES OR CONDITIONS OF ANY KIND, either express or implied.
  - See the License for the specific language governing permissions and
  - limitations under the License.
  -->
<svg width="16" height="16" viewBox="0 0 16 16" fill="none" xmlns="http://www.w3.org/2000/svg"><path d="M14 2.4A1.6 1.6 0 0112.4 4H3.6A1.6 1.6 0 012 2.4c0-.22.18-.4.4-.4h11.2c.22 0 .4.18.4.4z" fill="#548AF7"/><path d="M10.5 10.5h5M10.5 12.5h5M10.5 14.5h5" stroke="#F2C55C" stroke-linecap="round"/><path fill-rule="evenodd" clip-rule="evenodd" d="M3.5 5.5A.5.5 0 014 5h8a.5.5 0 010 1H4a.5.5 0 01-.5-.5zm0 2A.5.5 0 014 7h8c.864 0 1.622.29 2.166.834.321.321.554.717.69 1.166h-1.07a1.717 1.717 0 00-.327-.459C13.128 8.21 12.636 8 12 8H4a.5.5 0 01-.5-.5zM9 9H4a.5.5 0 000 1h5V9zm0 2H4a.5.5 0 000 1h5v-1z" fill="#CED0D6"/><path fill-rule="evenodd" clip-rule="evenodd" d="M3.6 13A1.6 1.6 0 002 14.6c0 .22.18.4.4.4H9v-2H3.6z" fill="#548AF7"/></svg>