<svg width="16" height="16" viewBox="0 0 16 16" xmlns="http://www.w3.org/2000/svg"><rect width="16" height="16" fill="none"/><g fill="none" fill-rule="evenodd"><path d="M12.845 9H9v1H3.597A.604.604 0 0 1 3 9.4c0-.332.268-.6.596-.6h8.807c.175 0 .332.078.441.2zM9 10.8V12H3.597A.604.604 0 0 1 3 11.4c0-.331.268-.6.596-.6H9zM14.959 9h-.952a1.179 1.179 0 0 0-1.018-1H3.599a.6.6 0 1 1 0-1.2h8.777l.015.003c.291-.01.583.013.869.069.447.123.856.358 1.187.683.312.327.452.908.512 1.445zM3.001 5.4c0-.331.268-.6.596-.6h8.807c.33 0 .596.278.596.6 0 .331-.267.6-.596.6H3.597A.604.604 0 0 1 3 5.4z" fill-opacity=".7" fill="#9AA7B0" fill-rule="nonzero"/><path d="M13.991 1.829a.328.328 0 0 0-.237-.322c-.268-.1-.547-.169-.83-.207a26.942 26.942 0 0 0-3.096-.26c-.6-.023-1.202-.02-1.728-.04l-.1.002L7.9 1c-.526.02-1.127.017-1.728.04-1.036.027-2.07.114-3.095.26a3.831 3.831 0 0 0-.831.207.328.328 0 0 0-.237.322c-.013.233-.011.468.004.701A2.347 2.347 0 0 0 3.982 4C4.649 3.985 6.34 3.979 8 3.979c1.66 0 3.351.006 4.018.021a2.347 2.347 0 0 0 1.969-1.47c.015-.233.017-.468.004-.701zm-5.976.61h-.03c-1.417 0-2.565-.218-2.565-.487.27-.28.652-.423 1.04-.39l.02-.004h.01a11.284 11.284 0 0 1 1.455-.092l.04-.002h.07c.142.001.284.003.426.01.344.01.688.038 1.029.083h.01l.02.005c.388-.033.77.11 1.04.39 0 .27-1.148.487-2.565.487zM9 15H2.206a.266.266 0 0 1-.182-.25 4.404 4.404 0 0 1 .005-.617 2.38 2.38 0 0 1 2-1.29l3.987.018.984-.005V15z" fill="#40B6E0" fill-rule="nonzero"/><path d="M10 14h6v1h-6v-1zm0-2h6v1h-6v-1zm0-2h6v1h-6v-1z" fill="#E4B573"/></g></svg>