<svg width="24" height="24" viewBox="0 0 24 24" fill="none" xmlns="http://www.w3.org/2000/svg"><g clip-path="url(#clip0_3_1668)" fill-rule="evenodd" clip-rule="evenodd" fill="#6E6E6E"><path d="M15.5 11a1.5 1.5 0 1 0 0-3 1.5 1.5 0 0 0 0 3zM8.5 11a1.5 1.5 0 1 0 0-3 1.5 1.5 0 0 0 0 3z"/><path d="M11.99 2C6.47 2 2 6.48 2 12s4.47 10 9.99 10C17.52 22 22 17.52 22 12S17.52 2 11.99 2zM12 20c-4.42 0-8-3.58-8-8s3.58-8 8-8 8 3.58 8 8-3.58 8-8 8zm0-4c-.73 0-1.38-.18-1.96-.52-.12.14-.86.98-1.01 1.15a5.49 5.49 0 0 0 5.95-.01c-.97-1.09-.01-.02-1.01-1.15-.59.35-1.24.53-1.97.53z"/></g><defs><clipPath id="clip0_3_1668"><path fill="#fff" d="M0 0h24v24H0z"/></clipPath></defs></svg>