<svg width="16" height="16" viewBox="0 0 16 16" fill="none" xmlns="http://www.w3.org/2000/svg"><g opacity=".2" clip-path="url(#clip0_3_1570)"><path d="M14.5 8a6.5 6.5 0 1 1-13 0 6.5 6.5 0 0 1 13 0z" fill="#FFE866" stroke="#EB8F00"/><path fill-rule="evenodd" clip-rule="evenodd" d="M5 8c.552 0 1-.672 1-1.5S5.552 5 5 5s-1 .672-1 1.5S4.448 8 5 8zM11 8c.552 0 1-.672 1-1.5S11.552 5 11 5s-1 .672-1 1.5.448 1.5 1 1.5z" fill="#242424"/><path d="M4.43 10.581c.248-.253.524-.48.821-.677A3.976 3.976 0 0 0 8 11c1.07 0 2.035-.42 2.749-1.096.297.196.573.424.822.677A4.985 4.985 0 0 1 8 12.081a4.985 4.985 0 0 1-3.57-1.5z" fill="#242424"/></g><defs><clipPath id="clip0_3_1570"><path fill="#fff" d="M0 0h16v16H0z"/></clipPath></defs></svg>