<svg width="16" height="16" viewBox="0 0 16 16" fill="none" xmlns="http://www.w3.org/2000/svg"><g opacity=".2" clip-path="url(#clip0_3_1664)"><path fill-rule="evenodd" clip-rule="evenodd" d="M8 15A7 7 0 1 0 8 1a7 7 0 0 0 0 14z" fill="#CED0D6"/><path fill-rule="evenodd" clip-rule="evenodd" d="M5 8c.552 0 1-.672 1-1.5S5.552 5 5 5s-1 .672-1 1.5S4.448 8 5 8zM11 8c.552 0 1-.672 1-1.5S11.552 5 11 5s-1 .672-1 1.5.448 1.5 1 1.5z" fill="#242424"/><path d="M4.43 11.5A4.985 4.985 0 0 1 8 10c1.399 0 2.663.574 3.57 1.5-.234.24-.493.456-.772.644A3.977 3.977 0 0 0 8 11c-1.096 0-2.08.439-2.798 1.144a5.026 5.026 0 0 1-.773-.644z" fill="#242424"/></g><defs><clipPath id="clip0_3_1664"><path fill="#fff" d="M0 0h16v16H0z"/></clipPath></defs></svg>