<svg width="24" height="24" viewBox="0 0 24 24" xmlns="http://www.w3.org/2000/svg"><rect id="frame" width="24" height="24" fill="none"/><g fill="#3DDC84" fill-rule="evenodd"><rect x="2" y="8" width="3" height="8" rx="1.5"/><rect x="19" y="8" width="3" height="8" rx="1.5"/><rect x="8" y="14" width="3" height="9" rx="1.5"/><rect x="13" y="14" width="3" height="9" rx="1.5"/><path d="M6 8h12v9a1 1 0 0 1-1 1H7a1 1 0 0 1-1-1V8zM6.024 7C6.3 4.197 8.87 2 12 2s5.7 2.197 5.976 5H6.024zm8.226-1.5a.75.75 0 1 0 0-1.5.75.75 0 0 0 0 1.5zm-4.5 0a.75.75 0 1 0 0-1.5.75.75 0 0 0 0 1.5z"/><path d="M14 3.5l2.028-2.266A.67.67 0 0 1 17 1.207a.757.757 0 0 1 .035 1.033L15.5 4 14 3.5zM9.707 2.707l-1.5-1.5a.707.707 0 0 0-1 1l1.268 1.268 1.232-.768z"/></g></svg>