<svg width="16" height="16" viewBox="0 0 16 16" xmlns="http://www.w3.org/2000/svg"><rect id="frame" width="16" height="16" fill="none"/><path d="M12.123 4.103a.37.37 0 0 1 .27-.103c.199 0 .443.115.656.316.296.282.415.725.214.926L11.96 6.543C13.317 7.736 13.833 8.948 14 11H2c.164-1.899.667-3.238 2.02-4.457L2.713 5.242c-.2-.2-.054-.692.213-.926.29-.251.726-.413.926-.213l1.49 1.48c.8-.4 1.702-.63 2.66-.63.952 0 1.852.23 2.643.63l1.48-1.48zM10 9h1V8h-1v1zM5 9h1V8H5v1z" fill="#3DDC84" fill-rule="evenodd"/></svg>