<svg width="16" height="16" viewBox="0 0 16 16" xmlns="http://www.w3.org/2000/svg"><rect id="frame" width="16" height="16" fill="none"/><g fill="none" fill-rule="evenodd"><path d="M13 9.68l-.535.49a6.626 6.626 0 0 0-3.583-.198c-.07.016-.12.03-.195.052l-.049.015c-.154.04-.307.083-.456.132l-.867-.788a1.464 1.464 0 0 0-1.985.007 1.375 1.375 0 0 0 .01 2.051l.32.294c-.26.267-.496.557-.704.868A5.576 5.576 0 0 0 4.044 15H3V6h5V1h5v8.68zM7 1v4H3l4-4z" fill-opacity=".8" fill="#9AA7B0"/><path d="M13.472 11.757l1.156-1.056a.38.38 0 0 0 0-.578.466.466 0 0 0-.316-.123c-.037 0-.152-.011-.315.123l-1.316 1.204a5.582 5.582 0 0 0-.636-.243 5.624 5.624 0 0 0-2.948-.136c-.067.016-.13.038-.196.055a5.568 5.568 0 0 0-.934.324l-1.324-1.204a.466.466 0 0 0-.632 0 .378.378 0 0 0 0 .578l1.165 1.065a5.113 5.113 0 0 0-1.39 1.393A4.53 4.53 0 0 0 5 15.652V16h10.672c0-1.417-.664-2.994-1.723-3.885a5.324 5.324 0 0 0-.477-.358z" fill="#3DDC84"/></g></svg>