<svg width="16" height="16" viewBox="0 0 16 16" xmlns="http://www.w3.org/2000/svg"><rect id="frame" width="16" height="16" fill="none"/><g fill="none" fill-rule="evenodd"><path d="M12.662 11.043a5.046 5.046 0 0 0-1.327 0l-1.103-1.909-2.598 1.5.976 1.69A4.993 4.993 0 0 0 7.1 15H3V6h5V1h5v9.457l-.338.586zm-2.34.246a4.978 4.978 0 0 0-.907.43L9 11l.866-.5.455.789zM7 1v4H3l4-4z" fill-opacity=".8" fill="#9AA7B0"/><path fill="#3DDC84" d="M9 11l.866-.5 1.5 2.598-.866.5zM14.996 11l-.866-.5-1.5 2.598.866.5z"/><path d="M8 16a4 4 0 1 1 8 0H8z" fill="#3DDC84"/></g></svg>