<svg width="16" height="16" viewBox="0 0 16 16" xmlns="http://www.w3.org/2000/svg"><rect id="frame" width="16" height="16" fill="none"/><g fill="none" fill-rule="evenodd"><path d="M0 0h16v16H0z"/><g fill-rule="nonzero"><path fill-opacity=".8" fill="#9AA7B0" d="M7 1L3 5h4z"/><path d="M7.02 8.4H7v6.57H3V6h5V1h5v6.422a22.435 22.435 0 0 0-1-.022c-2.607 0-4.748.44-4.98 1z" fill-opacity=".8" fill="#9AA7B0"/><path d="M8 10.156c.885.472 2.347.78 4 .78s3.115-.308 4-.78v.853c0 .608-1.79 1.101-4 1.101s-4-.493-4-1.1v-.854zm8 1.908v.907c0 .578-1.79 1.047-4 1.047s-4-.469-4-1.047v-.907c.885.472 2.347.78 4 .78s3.115-.308 4-.78zm0 1.909v.926C16 15.507 14.21 16 12 16s-4-.493-4-1.1v-.927c.885.471 2.347.78 4 .78s3.115-.309 4-.78zm-4-3.771c-2.21 0-4-.493-4-1.101S9.79 8 12 8s4 .493 4 1.1c0 .609-1.79 1.102-4 1.102z" fill-opacity=".7" fill="#40B6E0"/></g></g></svg>