<!--
  - Copyright (C) 2025 The Android Open Source Project
  -
  - Licensed under the Apache License, Version 2.0 (the "License");
  - you may not use this file except in compliance with the License.
  - You may obtain a copy of the License at
  -
  -      http://www.apache.org/licenses/LICENSE-2.0
  -
  - Unless required by applicable law or agreed to in writing, software
  - distributed under the License is distributed on an "AS IS" BASIS,
  - WITHOUT WARRANTIES OR CONDITIONS OF ANY KIND, either express or implied.
  - See the License for the specific language governing permissions and
  - limitations under the License.
  -->
<svg width="16" height="16" viewBox="0 0 16 16" fill="none" xmlns="http://www.w3.org/2000/svg"><g clip-path="url(#clip0_3_844)" fill-rule="evenodd" clip-rule="evenodd"><path d="M1 3.867C1 2.836 1.784 2 2.75 2h3.288a1 1 0 01.698.283L8.5 4H13a2 2 0 012 2v2.17c-.313-.11-.65-.17-1-.17h-3a3 3 0 00-3 3v3H2.75C1.784 14 1 13.164 1 12.133V3.867z" fill="#EBECF0"/><path d="M7.803 4.717l.29.283H13a1 1 0 011 1v2c.35 0 .687.06 1 .17V6a2 2 0 00-2-2H8.5L6.736 2.283A1 1 0 006.038 2H2.75C1.784 2 1 2.836 1 3.867v8.266C1 13.164 1.784 14 2.75 14H8v-1H2.75c-.354 0-.75-.326-.75-.867V3.867c0-.54.396-.867.75-.867h3.288l1.765 1.717z" fill="#6C707E"/><path d="M13 9h1a2 2 0 012 2v1h-1v-1a1 1 0 00-1-1h-1V9zm-1 0h-1a2 2 0 00-2 2v1h1v-1a1 1 0 011-1h1V9zm0 6h-1a1 1 0 01-1-1v-1H9v1a2 2 0 002 2h1v-1zm1 1h1a2 2 0 002-2v-1h-1v1a1 1 0 01-1 1h-1v1z" fill="#FFAF0F"/></g><defs><clipPath id="clip0_3_844"><path fill="#fff" d="M0 0h16v16H0z"/></clipPath></defs></svg>