<svg width="16" height="16" viewBox="0 0 16 16" xmlns="http://www.w3.org/2000/svg"><rect width="16" height="16" fill="none"/><path d="M15.52 2.375c-.567-1.047-1.58-1.36-2.295-1.375-.878-.018-1.599.482-1.462.81.029.07.193.438.294.59.147.219.408.05.5 0 .274-.15.566-.198.898-.158.318.038.739.239 1.022.797.665 1.314-1.389 4.018-3.96 2.145-2.57-1.872-5.071-1.252-6.203-.874-1.132.377-1.652.756-1.205 1.634.608 1.192.406.827.996 1.814.936 1.568 2.985-.722 2.985-.722-1.526 2.312-2.835 1.754-3.337.945-.452-.728-.804-1.568-.804-1.568C-.917 7.814.13 14 .13 14h1.92c.49-2.278 2.24-2.194 2.54 0h1.465c1.296-4.448 4.58 0 4.58 0h1.91c-.535-3.034 1.074-3.987 2.088-5.765 1.015-1.779 1.975-3.955.887-5.86z" fill="#9AA7B0" fill-rule="evenodd" fill-opacity=".7"/></svg>