<!--
  - Copyright (C) 2025 The Android Open Source Project
  -
  - Licensed under the Apache License, Version 2.0 (the "License");
  - you may not use this file except in compliance with the License.
  - You may obtain a copy of the License at
  -
  -      http://www.apache.org/licenses/LICENSE-2.0
  -
  - Unless required by applicable law or agreed to in writing, software
  - distributed under the License is distributed on an "AS IS" BASIS,
  - WITHOUT WARRANTIES OR CONDITIONS OF ANY KIND, either express or implied.
  - See the License for the specific language governing permissions and
  - limitations under the License.
  -->
<svg width="16" height="16" viewBox="0 0 16 16" fill="none" xmlns="http://www.w3.org/2000/svg"><path fill-rule="evenodd" clip-rule="evenodd" d="M11 6h3a1 1 0 011 1v6a1 1 0 01-1 1H3a1 1 0 01-1-1V5a1 1 0 011-1h3V3a1 1 0 011-1h3a1 1 0 011 1v3zm-1-3H7v10h3V3zm1 4v6h3V7h-3zM6 5v8H3V5h3z" fill="#CED0D6"/><path d="M7 3h3v10H7V3zM11 13V7h3v6h-3zM6 13V5H3v8h3z" fill="#43454A"/></svg>