<!--
  - Copyright (C) 2025 The Android Open Source Project
  -
  - Licensed under the Apache License, Version 2.0 (the "License");
  - you may not use this file except in compliance with the License.
  - You may obtain a copy of the License at
  -
  -      http://www.apache.org/licenses/LICENSE-2.0
  -
  - Unless required by applicable law or agreed to in writing, software
  - distributed under the License is distributed on an "AS IS" BASIS,
  - WITHOUT WARRANTIES OR CONDITIONS OF ANY KIND, either express or implied.
  - See the License for the specific language governing permissions and
  - limitations under the License.
  -->
<svg width="16" height="16" viewBox="0 0 16 16" fill="none" xmlns="http://www.w3.org/2000/svg"><mask id="a" fill="#fff"><path fill-rule="evenodd" clip-rule="evenodd" d="M16 11.5a3.5 3.5 0 11-7 0 3.5 3.5 0 017 0zm-3 2a.5.5 0 11-1 0 .5.5 0 011 0zm-1-2a.5.5 0 001 0v-2a.5.5 0 00-1 0v2z"/></mask><path fill-rule="evenodd" clip-rule="evenodd" d="M16 11.5a3.5 3.5 0 11-7 0 3.5 3.5 0 017 0zm-3 2a.5.5 0 11-1 0 .5.5 0 011 0zm-1-2a.5.5 0 001 0v-2a.5.5 0 00-1 0v2z" fill="#F2C55C"/><path d="M12.5 16a4.5 4.5 0 004.5-4.5h-2a2.5 2.5 0 01-2.5 2.5v2zM8 11.5a4.5 4.5 0 004.5 4.5v-2a2.5 2.5 0 01-2.5-2.5H8zM12.5 7A4.5 4.5 0 008 11.5h2A2.5 2.5 0 0112.5 9V7zm4.5 4.5A4.5 4.5 0 0012.5 7v2a2.5 2.5 0 012.5 2.5h2zM12.5 15a1.5 1.5 0 001.5-1.5h-2a.5.5 0 01.5-.5v2zM11 13.5a1.5 1.5 0 001.5 1.5v-2a.5.5 0 01.5.5h-2zm1.5-1.5a1.5 1.5 0 00-1.5 1.5h2a.5.5 0 01-.5.5v-2zm1.5 1.5a1.5 1.5 0 00-1.5-1.5v2a.5.5 0 01-.5-.5h2zM12.5 11a.5.5 0 01.5.5h-2a1.5 1.5 0 001.5 1.5v-2zm-.5.5a.5.5 0 01.5-.5v2a1.5 1.5 0 001.5-1.5h-2zm0-2v2h2v-2h-2zm.5.5a.5.5 0 01-.5-.5h2A1.5 1.5 0 0012.5 8v2zm.5-.5a.5.5 0 01-.5.5V8A1.5 1.5 0 0011 9.5h2zm0 2v-2h-2v2h2z" fill="#F2C55C" mask="url(#a)"/><path fill-rule="evenodd" clip-rule="evenodd" d="M7 3h3v4.758A4.496 4.496 0 008.256 13H7V3zm7 4.256V7h-3v.256c.47-.166.974-.256 1.5-.256s1.03.09 1.5.256zM6 5v8H3V5h3z" fill="#43454A"/><path fill-rule="evenodd" clip-rule="evenodd" d="M14 6h-3V3a1 1 0 00-1-1H7a1 1 0 00-1 1v1H3a1 1 0 00-1 1v8a1 1 0 001 1h5.758a4.485 4.485 0 01-.502-1H7V3h3v4.758a4.485 4.485 0 011-.502V7h3v.256c.356.126.691.295 1 .502V7a1 1 0 00-1-1zm-8 7V5H3v8h3z" fill="#CED0D6"/></svg>