<svg width="16" height="16" viewBox="0 0 16 16" xmlns="http://www.w3.org/2000/svg"><rect width="16" height="16" fill="none"/><path d="M2.8 4L1 12.993h2.471l1.123-6.022s.974-.849 1.723-.772c.749.077.749.856.749.856L6.017 13H8.49l1.197-6.029s.824-.849 1.648-.772c.824.077.674.933.674.933l-1.123 5.861h2.546l1.273-6.864C14.854 5.04 14.21 4.1 13.356 4c-.856-.1-1.723.115-2.471.585-.75.47-1.199 1.08-1.199 1.08S9.3 4.1 8.114 4c-1.186-.1-1.722.192-2.247.5a3.11 3.11 0 0 0-.823.702L5.25 4H2.8z" fill="#FF6800" fill-rule="evenodd"/></svg>