<svg width="16" height="16" viewBox="0 0 16 16" xmlns="http://www.w3.org/2000/svg"><rect width="16" height="16" fill="none"/><g fill="none" fill-rule="evenodd"><circle fill-opacity=".6" fill="#40B6E0" cx="8" cy="8" r="7"/><path d="M5.992 8.57H4.583v2.426H3.79V5h1.985c.675 0 1.194.154 1.558.461.364.308.546.755.546 1.343 0 .373-.101.698-.303.976a1.807 1.807 0 0 1-.842.621l1.408 2.545v.05h-.848L5.992 8.57zm-1.409-.646h1.215c.393 0 .705-.102.937-.305.232-.203.348-.475.348-.815 0-.37-.11-.655-.331-.853-.221-.197-.54-.298-.958-.3h-1.21v2.273zm6.877 1.89a.56.56 0 0 0-.232-.48c-.155-.114-.426-.212-.811-.294-.386-.083-.692-.181-.919-.297a1.306 1.306 0 0 1-.502-.412.985.985 0 0 1-.163-.568c0-.365.155-.674.463-.926.31-.253.704-.38 1.184-.38.506 0 .915.131 1.23.392.314.26.471.594.471 1h-.766a.688.688 0 0 0-.265-.539.995.995 0 0 0-.67-.226c-.277 0-.494.06-.65.18a.57.57 0 0 0-.235.474c0 .184.073.323.218.416.146.094.409.183.789.268.38.085.688.187.924.305.236.118.411.26.525.426.114.166.171.369.171.607 0 .398-.159.718-.477.958-.319.24-.732.36-1.24.36-.357 0-.673-.063-.947-.19a1.54 1.54 0 0 1-.645-.528 1.275 1.275 0 0 1-.232-.736h.762a.789.789 0 0 0 .306.608c.191.15.443.224.756.224.288 0 .52-.058.694-.175a.538.538 0 0 0 .261-.467z" fill-opacity=".7" fill="#231F20"/></g></svg>