<!--
  - Copyright (C) 2025 The Android Open Source Project
  -
  - Licensed under the Apache License, Version 2.0 (the "License");
  - you may not use this file except in compliance with the License.
  - You may obtain a copy of the License at
  -
  -      http://www.apache.org/licenses/LICENSE-2.0
  -
  - Unless required by applicable law or agreed to in writing, software
  - distributed under the License is distributed on an "AS IS" BASIS,
  - WITHOUT WARRANTIES OR CONDITIONS OF ANY KIND, either express or implied.
  - See the License for the specific language governing permissions and
  - limitations under the License.
  -->
<svg width="16" height="16" viewBox="0 0 16 16" fill="none" xmlns="http://www.w3.org/2000/svg"><g clip-path="url(#clip0_3_840)"><path d="M11.797 8.637a.5.5 0 01.406 0l3 1.334a.5.5 0 01.297.457v3.144a.5.5 0 01-.297.457l-3 1.334a.5.5 0 01-.406 0l-3-1.334a.5.5 0 01-.297-.457v-3.144a.5.5 0 01.297-.457l3-1.334z" stroke="#3574F0"/><path fill-rule="evenodd" clip-rule="evenodd" d="M2 4a1 1 0 012 0H2zm8.5-1H4.732c.17.294.268.636.268 1v8a1 1 0 001 1h1v1H6a2 2 0 01-2-2V5H1.5a.5.5 0 01-.5-.5V4a2 2 0 012-2h7.5A2.5 2.5 0 0113 4.5V7h-1V4.5A1.5 1.5 0 0010.5 3z" fill="#6C707E"/><path d="M12 15.5V12m0 0l3.5-1.5M12 12l-3.5-1.5" stroke="#3574F0"/></g><defs><clipPath id="clip0_3_840"><path fill="#fff" d="M0 0h16v16H0z"/></clipPath></defs></svg>