<svg width="16" height="16" viewBox="0 0 16 16" xmlns="http://www.w3.org/2000/svg"><rect width="16" height="16" fill="none"/><g fill="none" fill-rule="evenodd"><path d="M13 6.356L11.5 5.5 6 8.637V15H2V5h5V0h6v6.356zM6 0v4H2l4-4z" fill-opacity=".7" fill="#9AA7B0"/><path d="M8 13.134l3.5 1.75 3.5-1.75V9.753l-3.5-1.87L8 9.754v3.38zm3.5 2.868L7 13.752V9.153l4.5-2.403L16 9.153v4.599l-4.5 2.25z" fill="#8065AF"/><path fill="#8065AF" d="M11 12.002l-4-2V9.5h1.233l3.267 1.634L14.767 9.5H16v.502l-4 2V15h-1z"/></g></svg>