<svg width="16" height="16" viewBox="0 0 16 16" xmlns="http://www.w3.org/2000/svg"><rect width="16" height="16" fill="none"/><g fill="#B39DDB" fill-rule="evenodd"><path d="M4 10.473l4.454 2.473L13 10.473V5.527L8.454 3.054 4 5.527v4.946zM8.449 14L3 10.975v-5.95L8.449 2 14 5.02v5.96L8.449 14z"/><path d="M4 10.473l4.454 2.473L13 10.473V5.527L8.454 3.054 4 5.527v4.946zM8.449 14L3 10.975v-5.95L8.449 2 14 5.02v5.96L8.449 14z"/><path d="M8 8.75L3 5.976V5h1v.473l4.454 2.473L13 5.473V5h1v.98L9 8.7V13H8z"/></g></svg>