<!--
  - Copyright (C) 2025 The Android Open Source Project
  -
  - Licensed under the Apache License, Version 2.0 (the "License");
  - you may not use this file except in compliance with the License.
  - You may obtain a copy of the License at
  -
  -      http://www.apache.org/licenses/LICENSE-2.0
  -
  - Unless required by applicable law or agreed to in writing, software
  - distributed under the License is distributed on an "AS IS" BASIS,
  - WITHOUT WARRANTIES OR CONDITIONS OF ANY KIND, either express or implied.
  - See the License for the specific language governing permissions and
  - limitations under the License.
  -->
<svg width="16" height="16" viewBox="0 0 16 16" fill="none" xmlns="http://www.w3.org/2000/svg"><g clip-path="url(#clip0_3_855)"><path d="M11.797 8.637a.5.5 0 01.406 0l3 1.334a.5.5 0 01.297.457v3.144a.5.5 0 01-.297.457l-3 1.334a.5.5 0 01-.406 0l-3-1.334a.5.5 0 01-.297-.457v-3.144a.5.5 0 01.297-.457l3-1.334z" stroke="#548AF7"/><path fill-rule="evenodd" clip-rule="evenodd" d="M7.914 1a1.5 1.5 0 00-1.06.44L3.439 4.853A1.5 1.5 0 003 5.914V13.5A1.5 1.5 0 004.5 15H7v-1H4.5a.5.5 0 01-.5-.5V6h2.5A1.5 1.5 0 008 4.5V2h3.5a.5.5 0 01.5.5V7h1V2.5A1.5 1.5 0 0011.5 1H7.914zM4.707 5L7 2.707V4.5a.5.5 0 01-.5.5H4.707z" fill="#CED0D6"/><path d="M12 15.5V12m0 0l3.5-1.5M12 12l-3.5-1.5" stroke="#548AF7"/></g><defs><clipPath id="clip0_3_855"><path fill="#fff" d="M0 0h16v16H0z"/></clipPath></defs></svg>