<svg width="16" height="16" viewBox="0 0 16 16" xmlns="http://www.w3.org/2000/svg"><rect id="frame" width="16" height="16" fill="none"/><g fill="none" fill-rule="evenodd"><path d="M0 0h16v16H0z"/><g fill-rule="nonzero"><path fill-opacity=".7" fill="#F4AF3D" d="M1 16h15V9H1z"/><path d="M11.113 14.458l-.545.607-.58-.518c-.407.29-.91.456-1.47.456C7.035 15.003 6 13.878 6 12.519c0-1.373 1.049-2.512 2.532-2.512 1.484 0 2.519 1.125 2.519 2.484 0 .566-.18 1.077-.49 1.497l.552.47zm-2.581-.342c.298 0 .557-.071.784-.201l-.784-.676.562-.635.796.728c.143-.247.17-.49.17-.814v-.013c0-.884-.64-1.611-1.541-1.611-.9 0-1.519.714-1.519 1.598v.013c0 .884.631 1.611 1.532 1.611zM12 10h1v4h2.5v1H12z" fill-opacity=".7" fill="#231F20"/><path fill-opacity=".8" fill="#9AA7B0" d="M7 1L3 5h4z"/><path fill-opacity=".8" fill="#9AA7B0" d="M8 1v5H3v2h10V1z"/><path d="M2.973 11.502c0-.369.311-.502.872-.502H5v-1H3.86C2.778 10 2 10.46 2 11.45c0 .865.42 1.24 1.471 1.466.77.165 1.025.313 1.025.632 0 .32-.358.452-1.025.452H2.3v1h1.171C5.5 15 5.5 14 5.5 13.548c0-.632-.48-1.127-1.341-1.401-.862-.274-1.186-.277-1.186-.645z" fill-opacity=".7" fill="#231F20"/></g></g></svg>