<svg width="16" height="16" viewBox="0 0 16 16" fill="none" xmlns="http://www.w3.org/2000/svg"><g clip-path="url(#clip0_141_643)"><path fill-rule="evenodd" clip-rule="evenodd" d="M5 5h7v2h1V5a1 1 0 0 0-1-1H5a1 1 0 0 0-1 1v7a1 1 0 0 0 1 1h3v-1H5V5z" fill="#CED0D6"/><path d="M2.5 10.5v-7a1 1 0 0 1 1-1h7" stroke="#CED0D6" stroke-linecap="round"/><path fill-rule="evenodd" clip-rule="evenodd" d="M12.146 8.146a.5.5 0 0 1 .708 0l3 3a.5.5 0 0 1-.708.708L13 9.707V15.5a.5.5 0 0 1-1 0V9.707l-2.146 2.147a.5.5 0 0 1-.708-.708l3-3z" fill="#548AF7"/></g><defs><clipPath id="clip0_141_643"><path fill="#fff" d="M0 0h16v16H0z"/></clipPath></defs></svg>