<svg fill="none" version="1.1" viewBox="0 0 40 40" xmlns="http://www.w3.org/2000/svg">
  <path d="m18.2 37h-4.4c-0.85 0-1.5-0.69-1.5-1.5v-31c0-0.85 0.69-1.5 1.5-1.5h12c0.85 0 1.5 0.69 1.5 1.5v22" fill="none" stroke="#CBCBCB" stroke-width="3.1"/>
  <path d="m3.1 9.1h9.2m-9.2 11h9.2m-9.2 11h9.2m15-22h9.2m-9.2 11h9.2" stroke="#CBCBCB" stroke-linecap="round" stroke-width="3.1"/>
  <path d="m25 30c1.1-0.43 2.2-0.65 3.4-0.64 1.2 0 2.3 0.23 3.3 0.64l2.1-3.6 1.3 0.75-2.1 3.6c1.3 0.8 2.4 1.9 3.2 3.3 0.76 1.4 1.2 2.9 1.2 4.4h-18c-9.1e-4 -1.5 0.4-3 1.2-4.4s1.8-2.5 3.2-3.3l-2.1-3.6 1.3-0.75zm-1.2 3.9v1.5h1.5v-1.5zm7.5 0v1.5h1.5v-1.5z" clip-rule="evenodd" fill="#3ddc84" fill-rule="evenodd" stroke-width="2.4"/>
</svg>
