<svg width="16" height="16" viewBox="0 0 16 16" fill="none" xmlns="http://www.w3.org/2000/svg"><path d="M11.707 9.586a.5.5 0 010-.707l1.344-1.344A3.243 3.243 0 008.465 2.95L7.12 4.293a.5.5 0 01-.707-.707l1.344-1.344a4.243 4.243 0 016 6l-1.344 1.344a.5.5 0 01-.707 0z" fill="#6C707E"/><path d="M10.646 4.646a.5.5 0 01.708.708l-6 6a.5.5 0 01-.708-.708l6-6z" fill="#6C707E"/><path d="M4.293 6.414a.5.5 0 010 .707l-1.34 1.34a3.243 3.243 0 104.586 4.586l1.34-1.34a.5.5 0 11.707.707l-1.34 1.34a4.243 4.243 0 11-6-6l1.34-1.34a.5.5 0 01.707 0z" fill="#6C707E"/></svg>