<svg width="16" height="16" viewBox="0 0 16 16" fill="none" xmlns="http://www.w3.org/2000/svg"><path fill-rule="evenodd" clip-rule="evenodd" d="M16 12.5a3.5 3.5 0 11-7 0 3.5 3.5 0 017 0zm-1 0a2.5 2.5 0 01-3.879 2.086l3.465-3.465c.262.396.414.87.414 1.379zm-4.586 1.379l3.465-3.465a2.5 2.5 0 00-3.465 3.465z" fill="#6C707E"/><path d="M8 1a7 7 0 016.96 7.735 4.48 4.48 0 00-.966-.48A5.988 5.988 0 0013.657 6h-2.782c.08.635.125 1.306.125 2.001 0 .086-.003.172-.004.258-.363.128-.705.3-1.018.513A14.757 14.757 0 009.867 6H6.133A14.757 14.757 0 006 7.999c0 .705.048 1.376.134 2h2.622a4.48 4.48 0 00-.501 1H6.312c.13.586.295 1.11.486 1.556.24.559.5.948.737 1.182.233.23.389.262.465.262a.466.466 0 00.228-.078c.123.37.293.72.502 1.04A7 7 0 118 1zM2.805 11a6.012 6.012 0 003.485 2.751c-.428-.695-.775-1.643-1-2.751H2.804zm-.462-5a5.988 5.988 0 000 4h2.782A15.849 15.849 0 015 8c0-.695.044-1.366.125-2H2.343zM6.29 2.248A6.012 6.012 0 002.805 5h2.484c.226-1.109.573-2.057 1.001-2.752zM8 2c-.076 0-.232.032-.465.262-.237.234-.497.623-.737 1.182-.191.446-.355.97-.486 1.556h3.375a8.867 8.867 0 00-.485-1.556c-.24-.559-.5-.948-.737-1.182C8.232 2.032 8.076 2 8 2zm1.709.248c.428.695.776 1.643 1.002 2.752h2.484A6.012 6.012 0 009.71 2.248z" fill="#6C707E"/></svg>