<svg width="50" height="50" viewBox="0 0 50 50" fill="none" xmlns="http://www.w3.org/2000/svg"><path d="M19.551 6.218l.418.004.359-.212 3.895-2.298a1.53 1.53 0 0 1 1.554 0l3.895 2.298.36.212.416-.004 4.523-.043a1.53 1.53 0 0 1 1.346.778l2.225 3.938.205.363.363.205 3.937 2.224c.485.274.783.79.777 1.346l-.042 4.522-.004.418.212.359 2.298 3.895a1.53 1.53 0 0 1 0 1.554l-2.298 3.895-.212.36.004.416.043 4.523a1.53 1.53 0 0 1-.778 1.346l-3.938 2.225-.363.205-.205.363-2.224 3.937a1.53 1.53 0 0 1-1.346.777l-4.522-.042-.418-.004-.359.212-3.895 2.298a1.53 1.53 0 0 1-1.554 0l-3.895-2.298-.36-.212-.416.004-4.523.043a1.53 1.53 0 0 1-1.346-.778l-2.225-3.938-.205-.363-.363-.205-3.937-2.224a1.53 1.53 0 0 1-.777-1.346l.042-4.522.004-.418-.212-.359-2.298-3.895a1.53 1.53 0 0 1 0-1.554l2.298-3.895.212-.36-.004-.416-.043-4.523a1.53 1.53 0 0 1 .778-1.346l3.938-2.225.363-.205.205-.363 2.224-3.937a1.53 1.53 0 0 1 1.346-.777l4.522.042z" stroke="#9AA7B0" stroke-opacity=".8" stroke-width="3"/><path d="M20.168 20.54a4.348 4.348 0 0 1 .36-1.7c.24-.507.567-.94.98-1.3.427-.36.933-.64 1.52-.84.587-.2 1.233-.3 1.94-.3.68 0 1.293.1 1.84.3.56.187 1.04.46 1.44.82.4.36.706.793.92 1.3.213.507.32 1.073.32 1.7 0 1.04-.28 2.033-.84 2.98-.56.933-1.453 1.92-2.68 2.96l-2.24 1.88c-.107.093-.22.18-.34.26a7.69 7.69 0 0 0-.34.2c-.12.067-.24.127-.36.18v.08l.6-.04h.6c.213-.013.413-.02.6-.02h5.16v2h-9.38v-2.36l4.26-3.54c.48-.413.893-.807 1.24-1.18.346-.373.627-.74.84-1.1.226-.36.386-.72.48-1.08.107-.36.16-.74.16-1.14 0-.693-.207-1.24-.62-1.64-.413-.413-.974-.62-1.68-.62-.76 0-1.373.2-1.84.6-.467.4-.7.933-.7 1.6h-2.24z" fill="#9AA7B0" fill-opacity=".8"/></svg>