<svg width="50" height="50" viewBox="0 0 50 50" fill="none" xmlns="http://www.w3.org/2000/svg"><path d="M19.551 6.218l.418.004.359-.212 3.895-2.298a1.53 1.53 0 0 1 1.554 0l3.895 2.298.36.212.416-.004 4.523-.043a1.53 1.53 0 0 1 1.346.778l2.225 3.938.205.363.363.205 3.937 2.224c.485.274.783.79.777 1.346l-.042 4.522-.004.418.212.359 2.298 3.895a1.53 1.53 0 0 1 0 1.554l-2.298 3.895-.212.36.004.416.043 4.523a1.53 1.53 0 0 1-.778 1.346l-3.938 2.225-.363.205-.205.363-2.224 3.937a1.53 1.53 0 0 1-1.346.777l-4.522-.042-.418-.004-.359.212-3.895 2.298a1.53 1.53 0 0 1-1.554 0l-3.895-2.298-.36-.212-.416.004-4.523.043a1.53 1.53 0 0 1-1.346-.778l-2.225-3.938-.205-.363-.363-.205-3.937-2.224a1.53 1.53 0 0 1-.777-1.346l.042-4.522.004-.418-.212-.359-2.298-3.895a1.53 1.53 0 0 1 0-1.554l2.298-3.895.212-.36-.004-.416-.043-4.523a1.53 1.53 0 0 1 .778-1.346l3.938-2.225.363-.205.205-.363 2.224-3.937a1.53 1.53 0 0 1 1.346-.777l4.522.042z" stroke="#9AA7B0" stroke-opacity=".8" stroke-width="3"/><path d="M20.668 29.06h3.86v-9.24c0-.347.007-.653.02-.92.027-.28.04-.427.04-.44h-.04c-.08.08-.167.16-.26.24l-.26.22a5.828 5.828 0 0 1-.3.2L20.908 21v-2.16l3.2-2.24h2.62v12.46h3.18V31h-9.24v-1.94z" fill="#9AA7B0" fill-opacity=".8"/></svg>