<svg width="16" height="16" viewBox="0 0 16 16" fill="none" xmlns="http://www.w3.org/2000/svg"><g clip-path="url(#clip0_142_1476)"><path fill-rule="evenodd" clip-rule="evenodd" d="M7 2h2a1 1 0 0 1 1 1H6a1 1 0 0 1 1-1zM5 3a2 2 0 0 1 2-2h2a2 2 0 0 1 2 2h2a1 1 0 0 1 1 1v2h-1v7a2 2 0 0 1-2 2H5a2 2 0 0 1-2-2V6H2V4a1 1 0 0 1 1-1h2zm6 1H3v1h10V4h-2zM4 6h8v7a1 1 0 0 1-1 1H5a1 1 0 0 1-1-1V6zm2.5 1a.5.5 0 0 0-.5.5v4a.5.5 0 0 0 1 0v-4a.5.5 0 0 0-.5-.5zm2.5.5a.5.5 0 0 1 1 0v4a.5.5 0 0 1-1 0v-4z" fill="#CED0D6"/></g><defs><clipPath id="clip0_142_1476"><path fill="#fff" d="M0 0h16v16H0z"/></clipPath></defs></svg>