<svg width="16" height="16" viewBox="0 0 16 16" fill="none" xmlns="http://www.w3.org/2000/svg"><g clip-path="url(#clip0_142_1494)"><path fill-rule="evenodd" clip-rule="evenodd" d="M13.462 2.809a.5.5 0 0 0-.106-.16l-.005-.005A.498.498 0 0 0 13 2.5H9a.5.5 0 0 0 0 1h2.793L7.146 8.146a.5.5 0 1 0 .708.708L12.5 4.207V7a.5.5 0 0 0 1 0V3v-.003a.501.501 0 0 0-.038-.188z" fill="#6C707E"/><path d="M3 4v8a1 1 0 0 0 1 1h8" stroke="#6C707E" stroke-linecap="round"/></g><defs><clipPath id="clip0_142_1494"><path fill="#fff" d="M0 0h16v16H0z"/></clipPath></defs></svg>