<svg width="16" height="16" viewBox="0 0 16 16" fill="none" xmlns="http://www.w3.org/2000/svg"><g clip-path="url(#clip0_142_1472)"><path fill-rule="evenodd" clip-rule="evenodd" d="M7.038 8.691A.498.498 0 0 0 7.5 9h4a.5.5 0 0 0 0-1H8.707l4.647-4.646a.5.5 0 0 0-.708-.708L8 7.293V4.5a.5.5 0 0 0-1 0v4.003a.5.5 0 0 0 .038.188z" fill="#CED0D6"/><path d="M3 4v8a1 1 0 0 0 1 1h8" stroke="#CED0D6" stroke-linecap="round"/></g><defs><clipPath id="clip0_142_1472"><path fill="#fff" d="M0 0h16v16H0z"/></clipPath></defs></svg>