<svg width="16" height="16" viewBox="0 0 16 16" fill="none" xmlns="http://www.w3.org/2000/svg"><g clip-path="url(#clip0_142_1487)" fill="#CED0D6"><path d="M11.707 9.586a.5.5 0 0 1 0-.707l1.344-1.344A3.243 3.243 0 0 0 8.465 2.95L7.12 4.293a.5.5 0 0 1-.707-.707l1.344-1.344a4.243 4.243 0 0 1 6 6l-1.344 1.344a.5.5 0 0 1-.707 0z"/><path d="M10.646 4.646a.5.5 0 0 1 .708.708l-6 6a.5.5 0 0 1-.708-.708l6-6z"/><path d="M4.293 6.414a.5.5 0 0 1 0 .707l-1.34 1.34a3.243 3.243 0 1 0 4.586 4.586l1.34-1.34a.5.5 0 1 1 .707.707l-1.34 1.34a4.243 4.243 0 1 1-6-6l1.34-1.34a.5.5 0 0 1 .707 0z"/></g><defs><clipPath id="clip0_142_1487"><path fill="#fff" d="M0 0h16v16H0z"/></clipPath></defs></svg>