<svg width="16" height="16" viewBox="0 0 16 16" fill="none" xmlns="http://www.w3.org/2000/svg"><g clip-path="url(#clip0_142_1774)"><path fill-rule="evenodd" clip-rule="evenodd" d="M5 5a3 3 0 0 1 6 0v1a2 2 0 0 1 2 2v4a2 2 0 0 1-2 2H5a2 2 0 0 1-2-2V8a2 2 0 0 1 2-2V5zm5 0v1H6V5a2 2 0 1 1 4 0zM5 7a1 1 0 0 0-1 1v4a1 1 0 0 0 1 1h6a1 1 0 0 0 1-1V8a1 1 0 0 0-1-1H5zm3 1.5a.5.5 0 0 0-.5.5v2a.5.5 0 0 0 1 0V9a.5.5 0 0 0-.5-.5z" fill="#CED0D6"/></g><defs><clipPath id="clip0_142_1774"><path fill="#fff" d="M0 0h16v16H0z"/></clipPath></defs></svg>