<svg width="16" height="16" viewBox="0 0 16 16" fill="none" xmlns="http://www.w3.org/2000/svg"><path fill-rule="evenodd" clip-rule="evenodd" d="M7.648 9.657a.5.5 0 0 0 .708 0l6.053-6.053a.5.5 0 0 0 0-.708L13.272 1.76a.5.5 0 0 0-.707 0L8.179 6.146a.25.25 0 0 1-.354 0L5.897 4.218a.5.5 0 0 0-.707 0L4.054 5.355a.5.5 0 0 0 0 .707l3.594 3.595z" fill="#5FB865"/><path d="M2 14.5l2.394-2.394a.15.15 0 0 1 .212 0l2.288 2.288a.15.15 0 0 0 .212 0l2.288-2.288a.15.15 0 0 1 .212 0L12 14.5M12 14.5l2.5-2.5" stroke="#5FB865" stroke-linecap="round"/><path fill-rule="evenodd" clip-rule="evenodd" d="M7.155 5.97a.5.5 0 0 1-.707 0l-.385-.386a.5.5 0 0 1 .707 0l.385.386zM3.72 4.49l-.272-.272a.5.5 0 0 0-.707 0L1.604 5.355a.5.5 0 0 0 0 .707l3.57 3.57a.5.5 0 0 0 .73-.024l.231-.264-3.281-3.282a.5.5 0 0 1 0-.707l.865-.866z" fill="#5FB865"/></svg>