<svg width="16" height="16" viewBox="0 0 16 16" fill="none" xmlns="http://www.w3.org/2000/svg"><path fill-rule="evenodd" clip-rule="evenodd" d="M7.648 9.657a.5.5 0 0 0 .708 0l6.053-6.053a.5.5 0 0 0 0-.708L13.272 1.76a.5.5 0 0 0-.707 0L8.179 6.146a.25.25 0 0 1-.354 0L5.897 4.218a.5.5 0 0 0-.707 0L4.054 5.355a.5.5 0 0 0 0 .707l3.594 3.595z" fill="#5FB865"/><path d="M2 14.5l2.394-2.394a.15.15 0 0 1 .212 0l2.288 2.288a.15.15 0 0 0 .212 0l2.288-2.288a.15.15 0 0 1 .212 0L12 14.5M12 14.5l2.5-2.5" stroke="#5FB865" stroke-linecap="round"/><path fill-rule="evenodd" clip-rule="evenodd" d="M5.906 9.657a.5.5 0 0 1-.708 0L1.604 6.062a.5.5 0 0 1 0-.707L2.74 4.218a.5.5 0 0 1 .707 0l.272.272-.865.865a.5.5 0 0 0 0 .707l3.323 3.323-.271.272zm5.188-7.626l-.272-.271a.5.5 0 0 0-.707 0L6.177 5.698l.271.271a.5.5 0 0 0 .708 0l3.938-3.938z" fill="#5FB865"/></svg>