<svg width="16" height="16" viewBox="0 0 16 16" fill="none" xmlns="http://www.w3.org/2000/svg"><g clip-path="url(#clip0_142_1793)" stroke="#6C707E"><circle cx="8" cy="8" r="2.5"/><path d="M3.348 11.464C2.033 10.55 1.014 9.32.53 8c.484-1.319 1.503-2.55 2.818-3.465C4.714 3.585 6.366 3 8 3c1.634 0 3.286.585 4.652 1.535C13.967 5.45 14.986 6.681 15.47 8c-.484 1.319-1.503 2.55-2.818 3.464C11.286 12.414 9.634 13 8 13c-1.634 0-3.286-.585-4.652-1.536z"/></g><defs><clipPath id="clip0_142_1793"><path fill="#fff" d="M0 0h16v16H0z"/></clipPath></defs></svg>