<svg width="16" height="16" viewBox="0 0 16 16" fill="none" xmlns="http://www.w3.org/2000/svg"><path fill-rule="evenodd" clip-rule="evenodd" d="M10.366 4.5a1 1 0 0 0-1.732 0l-4.6 7.969a1 1 0 0 0 .865 1.5h9.202a1 1 0 0 0 .866-1.5L10.366 4.5zM9.5 5.756a.9.9 0 0 1 .9.9V9.5a.9.9 0 0 1-1.8 0V6.656a.9.9 0 0 1 .9-.9zm.894 6.263a.894.894 0 1 1-1.788 0 .894.894 0 0 1 1.788 0zM8 3.598L7.366 2.5a1 1 0 0 0-1.732 0L.871 10.75a1 1 0 0 0 .866 1.5h1.268l.577-1H1.737L6.5 3l.923 1.598.577-1z" fill="#E0CEA8"/></svg>