<svg width="16" height="16" viewBox="0 0 16 16" fill="none" xmlns="http://www.w3.org/2000/svg"><g clip-path="url(#clip0_142_1484)"><path d="M3.34 6.096H1.366V4.872h1.11c.248 0 .464-.052.648-.156.188-.104.33-.252.426-.444.1-.192.15-.416.15-.672h1.11V12H3.34V6.096zm5.272 3.282v1.602H7.016V9.378h1.596zm0-4.74V6.24H7.016V4.638h1.596zm3.274 1.458H9.912V4.872h1.11c.248 0 .464-.052.648-.156.188-.104.33-.252.426-.444.1-.192.15-.416.15-.672h1.11V12h-1.47V6.096z" fill="#CED0D6"/></g><defs><clipPath id="clip0_142_1484"><path fill="#fff" d="M0 0h16v16H0z"/></clipPath></defs></svg>