<svg width="16" height="16" viewBox="0 0 16 16" xmlns="http://www.w3.org/2000/svg"><rect width="16" height="16" fill="none"/><path d="M12.91 3H3.09C2.49 3 2 3.5 2 4.111v1.667h1.09V4.11h9.82v7.778H9.09V13h3.82c.6 0 1.09-.5 1.09-1.111V4.11C14 3.5 13.51 3 12.91 3zM2 11.333V13h1.636c0-.922-.73-1.667-1.636-1.667zm0-2.222v1.111c1.505 0 2.727 1.245 2.727 2.778h1.091c0-2.15-1.707-3.889-3.818-3.889zM2 6.89V8c2.71 0 4.91 2.239 4.91 5H8c0-3.378-2.69-6.111-6-6.111z" fill="#9AA7B0" fill-rule="evenodd"/></svg>