<svg width="16" height="16" viewBox="0 0 16 16" fill="none" xmlns="http://www.w3.org/2000/svg">
<path d="M12.25 16H13.75V14.5H12.25V16ZM13 7C11.3425 7 10 8.3425 10 10H11.5C11.5 9.175 12.175 8.5 13 8.5C13.825 8.5 14.5 9.175 14.5 10C14.5 11.5 12.25 11.3125 12.25 13.75H13.75C13.75 12.0625 16 11.875 16 10C16 8.3425 14.6575 7 13 7Z" fill="#F0A732"/>
<path fill-rule="evenodd" clip-rule="evenodd" d="M8.45128 12.1856C8.37606 12.2581 8.28033 12.2996 8.1641 12.3102C7.5171 12.3486 6.84787 12.169 6.15641 11.7714C5.46495 11.3739 5.02906 10.7127 4.84872 9.78776C4.81966 9.65143 4.84551 9.5398 4.92627 9.45285C5.00704 9.36592 5.10811 9.32245 5.22947 9.32245C5.33033 9.32245 5.4173 9.35347 5.49037 9.41551C5.56345 9.47755 5.6111 9.56285 5.63333 9.67143C5.76666 10.3825 6.1017 10.8814 6.63845 11.1684C7.1752 11.4553 7.67136 11.5829 8.12692 11.551C8.25443 11.5404 8.35917 11.57 8.44113 11.6398C8.52311 11.7096 8.5641 11.8042 8.5641 11.9235C8.5641 12.0258 8.5265 12.1132 8.45128 12.1856ZM4.42885 12.5949C5.38141 13.5316 6.5714 14 7.99882 14C8.34662 14 8.68034 13.9722 9 13.9166L9 5L11.1031 5C10.3171 4.06168 9.2828 3.06168 8 2C6.32223 3.38857 5.06945 4.67163 4.24167 5.84919C3.41389 7.02674 3 8.10939 3 9.09714C3 10.4923 3.47628 11.6582 4.42885 12.5949Z" fill="#F0A732"/>
</svg>
