<svg width="16" height="16" viewBox="0 0 16 16" fill="none" xmlns="http://www.w3.org/2000/svg">
<path d="M8.1641 12.3102C8.28033 12.2996 8.37606 12.2581 8.45128 12.1856C8.5265 12.1132 8.5641 12.0258 8.5641 11.9235C8.5641 11.8042 8.52311 11.7096 8.44113 11.6398C8.35917 11.57 8.25443 11.5404 8.12692 11.551C7.67136 11.5829 7.1752 11.4553 6.63845 11.1684C6.1017 10.8814 5.76666 10.3825 5.63333 9.67143C5.6111 9.56285 5.56345 9.47755 5.49037 9.41551C5.4173 9.35347 5.33033 9.32245 5.22947 9.32245C5.10811 9.32245 5.00704 9.36592 4.92627 9.45285C4.84551 9.5398 4.81966 9.65143 4.84872 9.78776C5.02906 10.7127 5.46495 11.3739 6.15641 11.7714C6.84787 12.169 7.5171 12.3486 8.1641 12.3102ZM7.99882 14C6.5714 14 5.38141 13.5316 4.42885 12.5949C3.47628 11.6582 3 10.4923 3 9.09714C3 8.10939 3.41389 7.02674 4.24167 5.84919C5.06945 4.67163 6.32223 3.38857 8 2C9.67777 3.38857 10.9305 4.67163 11.7583 5.84919C12.5861 7.02674 13 8.10939 13 9.09714C13 10.4923 12.5233 11.6582 11.57 12.5949C10.6166 13.5316 9.42623 14 7.99882 14Z" fill="#DB5860"/>
</svg>
