<svg width="16" height="16" viewBox="0 0 16 16" fill="none" xmlns="http://www.w3.org/2000/svg">
<path fill-rule="evenodd" clip-rule="evenodd" d="M7.73056 5.87929L12.2268 10.5474C12.3429 10.282 12.4371 9.97433 12.5094 9.62435C12.5817 9.27437 12.6178 8.91767 12.6178 8.55424C12.6178 7.90285 12.5012 7.27836 12.2682 6.68076C12.0351 6.08314 11.6746 5.53324 11.1867 5.03104L7.73056 1.5L5.59398 3.68444L6.28068 4.3974L7.73056 5.87929ZM10.8058 12.4157L12.8133 14.5L13.5 13.787L2.18671 2.04124L1.5 2.75419L3.99875 5.34847C3.59273 5.842 3.29866 6.35808 3.11654 6.89671C2.9344 7.43535 2.84334 7.98786 2.84334 8.55424C2.84334 9.96284 3.31869 11.1472 4.2694 12.1074C5.22012 13.0676 6.37384 13.5476 7.73056 13.5476C8.25354 13.5476 8.78383 13.4583 9.32143 13.2796C9.85902 13.1009 10.3538 12.813 10.8058 12.4157ZM7.66383 11.81C7.78006 11.7994 7.87579 11.7579 7.95101 11.6854C8.02623 11.613 8.06383 11.5256 8.06383 11.4233C8.06383 11.304 8.02284 11.2094 7.94086 11.1396C7.8589 11.0698 7.75416 11.0402 7.62665 11.0508C7.17109 11.0827 6.67493 10.9551 6.13818 10.6682C5.60143 10.3813 5.26639 9.88227 5.13305 9.17125C5.11083 9.06267 5.06318 8.97736 4.9901 8.91533C4.91703 8.85329 4.83006 8.82227 4.7292 8.82227C4.60784 8.82227 4.50677 8.86573 4.426 8.95267C4.34524 9.03962 4.31939 9.15125 4.34845 9.28758C4.52879 10.2125 4.96468 10.8737 5.65614 11.2713C6.3476 11.6688 7.01683 11.8484 7.66383 11.81Z" fill="#6E6E6E"/>
</svg>
