<svg width="16" height="16" viewBox="0 0 16 16" fill="none" xmlns="http://www.w3.org/2000/svg"><path fill-rule="evenodd" clip-rule="evenodd" d="M7.999 14c-1.428 0-2.618-.468-3.57-1.405C3.476 11.658 3 10.492 3 9.097c0-.988.414-2.07 1.242-3.248C5.069 4.672 6.322 3.39 8 2c1.283 1.062 2.317 2.062 3.103 3H9v8.917c-.32.055-.653.083-1.001.083z" fill="#3D3223"/><path d="M8.078 11.434c-.53.032-1.08-.116-1.646-.444-.567-.329-.925-.875-1.073-1.638" stroke="#D6AE58" stroke-linecap="round" stroke-linejoin="round"/><path fill-rule="evenodd" clip-rule="evenodd" d="M5.06 6.424c.655-.932 1.627-1.97 2.94-3.113.68.591 1.267 1.154 1.767 1.689h1.336C10.317 4.062 9.283 3.062 8 2 6.322 3.389 5.07 4.672 4.242 5.85 3.414 7.026 3 8.11 3 9.096c0 1.395.476 2.561 1.429 3.498C5.38 13.532 6.57 14 7.999 14c.348 0 .681-.028 1.001-.083v-1.019A4.708 4.708 0 017.999 13c-1.185 0-2.117-.379-2.869-1.118l-.698.71.698-.71C4.378 11.142 4 10.237 4 9.097c0-.707.299-1.59 1.06-2.673z" fill="#D6AE58"/><circle cx="12.533" cy="14.901" r=".602" fill="#D6AE58"/><path d="M12.658 11.639c.16-.168.368-.365.625-.59.263-.233.472-.433.627-.601v-.001a2.13 2.13 0 00.392-.593v-.001c.107-.227.162-.486.162-.778 0-.353-.075-.664-.22-.936a1.562 1.562 0 00-.62-.631 1.798 1.798 0 00-.92-.233c-.362 0-.682.08-.962.24-.275.159-.49.382-.646.671a1.876 1.876 0 00-.207.664c-.028.214-.195.39-.411.39h-.088a.376.376 0 01-.375-.39 2.641 2.641 0 01.324-1.069 2.4 2.4 0 01.964-.942c.41-.227.88-.339 1.407-.339.513 0 .969.108 1.366.325.402.212.715.511.937.895.223.385.333.826.333 1.322 0 .389-.064.735-.194 1.037-.129.298-.288.55-.478.754-.182.2-.422.429-.72.686a9.104 9.104 0 00-.554.514c-.124.129-.23.28-.317.454a1.193 1.193 0 00-.127.554.34.34 0 01-.34.34h-.142a.374.374 0 01-.373-.374c0-.287.053-.547.161-.777.106-.227.238-.424.396-.591z" fill="#D6AE58"/></svg>