<!--
  - Copyright (C) 2025 The Android Open Source Project
  -
  - Licensed under the Apache License, Version 2.0 (the "License");
  - you may not use this file except in compliance with the License.
  - You may obtain a copy of the License at
  -
  -      http://www.apache.org/licenses/LICENSE-2.0
  -
  - Unless required by applicable law or agreed to in writing, software
  - distributed under the License is distributed on an "AS IS" BASIS,
  - WITHOUT WARRANTIES OR CONDITIONS OF ANY KIND, either express or implied.
  - See the License for the specific language governing permissions and
  - limitations under the License.
  -->
<svg width="16" height="16" viewBox="0 0 16 16" fill="none" xmlns="http://www.w3.org/2000/svg"><path d="M8.078 11.434c-.53.032-1.08-.116-1.646-.444-.567-.329-.925-.875-1.073-1.638" stroke="#CED0D6" stroke-linecap="round" stroke-linejoin="round"/><path fill="#CED0D6" d="M2 3.402l.707-.707L14.02 14.009l-.708.707z"/><path fill-rule="evenodd" clip-rule="evenodd" d="M4.953 4.934c-.264.312-.502.617-.711.915C3.414 7.027 3 8.11 3 9.097c0 1.395.476 2.561 1.429 3.498C5.38 13.532 6.57 14 7.999 14c1.427 0 2.618-.468 3.571-1.405.18-.177.343-.362.49-.555l-.717-.716a3.952 3.952 0 01-.474.558C10.116 12.622 9.184 13 8 13s-2.117-.379-2.869-1.118l-.698.71.698-.71C4.378 11.142 4 10.237 4 9.097c0-.707.299-1.59 1.06-2.673.177-.252.378-.513.603-.78l-.71-.71zm6.859 5.444c.125-.39.188-.816.188-1.28 0-.708-.299-1.591-1.06-2.674-.655-.932-1.627-1.97-2.94-3.113a24.312 24.312 0 00-1.67 1.586l-.707-.708A27.46 27.46 0 018 2c1.678 1.389 2.93 2.672 3.758 3.85C12.586 7.026 13 8.11 13 9.096c0 .751-.138 1.436-.415 2.055l-.773-.774z" fill="#CED0D6"/></svg>