<!--
  - Copyright (C) 2025 The Android Open Source Project
  -
  - Licensed under the Apache License, Version 2.0 (the "License");
  - you may not use this file except in compliance with the License.
  - You may obtain a copy of the License at
  -
  -      http://www.apache.org/licenses/LICENSE-2.0
  -
  - Unless required by applicable law or agreed to in writing, software
  - distributed under the License is distributed on an "AS IS" BASIS,
  - WITHOUT WARRANTIES OR CONDITIONS OF ANY KIND, either express or implied.
  - See the License for the specific language governing permissions and
  - limitations under the License.
  -->
<svg width="16" height="16" viewBox="0 0 16 16" fill="none" xmlns="http://www.w3.org/2000/svg"><path d="M4.78 12.238l-.351.357.35-.357C3.927 11.4 3.5 10.365 3.5 9.098c0-.848.356-1.831 1.15-2.961l-.408-.288.409.288C5.39 5.083 6.503 3.92 8 2.652c1.497 1.269 2.608 2.43 3.35 3.485l.408-.288-.409.288c.795 1.13 1.151 2.113 1.151 2.96 0 1.268-.427 2.303-1.28 3.141-.854.838-1.915 1.262-3.221 1.262s-2.367-.424-3.22-1.262z" fill="#FFF7F7" stroke="#DB3B4B"/><path d="M8.078 11.434c-.53.032-1.08-.116-1.646-.444-.567-.329-.925-.875-1.073-1.638" stroke="#DB3B4B" stroke-linecap="round" stroke-linejoin="round"/></svg>