<svg width="171" height="97" viewBox="0 0 171 97" xmlns="http://www.w3.org/2000/svg"><rect width="171" height="97" fill="none"/><g fill-rule="nonzero" fill="none"><path d="M85.286 27c-27.81 0-50.258 22.618-50.258 50.526 0 1.058-.063 2.369 0 3.158h21.928c-.118-.79 0-2.092 0-3.158 0-15.694 12.687-28.42 28.33-28.42a28.166 28.166 0 0 1 14.85 4.215l15.809-15.868C107.45 30.9 96.825 27 85.286 27z" fill="#389FD6"/><path d="M115.809 38L100 53.868c8.085 5.006 13.48 13.974 13.48 24.206 0 1.065.119 2.368 0 3.158h22.031c.063-.79 0-2.1 0-3.158 0-16.327-7.723-30.837-19.702-40.074z" opacity=".3" fill="#6E6E6E"/><path d="M116.215 39.503A1.58 1.58 0 0 0 114.94 37c-.37 0-.7.134-.968.347l-34.3 26.503A9.445 9.445 0 0 0 76 71.342c0 5.234 4.224 9.474 9.438 9.474 3.422 0 6.402-1.832 8.062-4.563l.008.008 22.707-36.758z" fill="#6E6E6E"/></g></svg>