<svg width="171" height="97" viewBox="0 0 171 97" xmlns="http://www.w3.org/2000/svg"><rect width="171" height="97" fill="none"/><g fill="none" fill-rule="evenodd"><path d="M114 7H37c-4.238 0-8 3.738-8 8v51c0 4.42 3.762 8.2 8 8h30v9h-8v8h33v-8h-8v-9h8v-8H37V15h77v21h8V15c0-4.262-3.805-8-8-8z" fill="#AFB1B3" fill-rule="nonzero"/><path d="M130 67.142a13.901 13.901 0 0 0-4 1.205V53h-21v29h13.035a13.957 13.957 0 0 0 4.167 9H105c-2.136 0-4-1.882-4-4V49c0-2.118 1.864-4 4-4h21c2.136.042 4 1.882 4 4v18.142z" fill="#AFB1B3"/><path d="M132 71c-5.53 0-10 4.47-10 10s4.47 10 10 10 10-4.47 10-10-4.47-10-10-10zm5 14l-1 1-4-4-4 4-1-1 4-4-4-4 1-1 4 4 4-4 1 1-4 4 4 4z" fill="#C75450" fill-rule="nonzero"/><text font-family="Roboto-Medium, Roboto" font-size="12" font-weight="400" fill="#BDBDBD"><tspan x="64" y="46">FPO</tspan></text></g></svg>