<svg width="171" height="97" viewBox="0 0 171 97" fill="none" xmlns="http://www.w3.org/2000/svg">
<g clip-path="url(#clip0_651_703)">
<path d="M85.68 27C58.07 27 40.1 46.93 36.18 68.28C34.94 75.01 40.2 81.2 47.04 81.2C52.41 81.2 56.94 77.31 57.9 72.03C60.23 59.21 71.15 49.05 85.68 49.05C93.78 49.05 100.75 52.21 105.74 57.22L121.35 41.61C112.76 32.85 100.64 27 85.68 27Z" fill="#2983FB"/>
<path d="M135.18 68.28C133.39 58.49 128.63 49.01 121.36 41.61L105.75 57.22C109.72 61.2 112.43 66.36 113.46 72.03C114.42 77.32 118.95 81.2 124.32 81.2C131.17 81.2 136.42 75.01 135.18 68.28Z" fill="#98C2FE"/>
<path d="M119.04 41.44L79.8 66.51C78.8 67.06 77.85 67.75 77 68.6C72.2 73.4 72.2 81.18 77 85.97C81.8 90.76 89.58 90.77 94.37 85.97C95.21 85.13 96.45 83.2 96.45 83.2L121.53 43.92C122.58 42.29 120.67 40.38 119.04 41.43V41.44Z" fill="#F1F3F4"/>
</g>
<defs>
<clipPath id="clip0_651_703">
<rect width="99.36" height="62.57" fill="white" transform="translate(36 27)"/>
</clipPath>
</defs>
</svg>
