<svg width="16" height="16" viewBox="0 0 16 16" fill="none" xmlns="http://www.w3.org/2000/svg"><path d="M5.499 14.52a5.499 5.499 0 004.362-.11 7.78 7.78 0 01-2.435-1.529A4.17 4.17 0 015.5 14.52z" fill="#FF9100"/><path d="M7.426 12.882a7.761 7.761 0 01-2.483-6.214 4.154 4.154 0 00-2.169.022A5.505 5.505 0 005.5 14.52a4.165 4.165 0 001.927-1.638z" fill="#FFC400"/><path d="M7.426 12.882a4.153 4.153 0 00-2.483-6.214 7.761 7.761 0 002.483 6.214z" fill="#FF9100"/><path d="M7.845 1.094a7.758 7.758 0 00-2.903 5.574 4.153 4.153 0 012.484 6.214 7.768 7.768 0 002.434 1.529 5.5 5.5 0 003.194-4.805c.049-1.39-.486-2.63-1.24-3.676-.798-1.107-3.969-4.836-3.969-4.836z" fill="#DD2C00"/></svg>