<svg width="117" height="32" viewBox="0 0 117 32" fill="none" xmlns="http://www.w3.org/2000/svg"><path d="M110.571 25.233c-1.131 0-2.154-.263-3.067-.79a5.617 5.617 0 01-2.115-2.184c-.511-.945-.767-1.998-.767-3.16 0-1.115.241-2.137.721-3.067a5.627 5.627 0 012.068-2.23c.883-.558 1.889-.837 3.02-.837 1.162 0 2.169.256 3.021.767a4.98 4.98 0 011.975 2.138c.449.898.674 1.936.674 3.113 0 .14-.008.279-.024.418-.015.14-.023.217-.023.233h-8.876c.078 1.053.457 1.866 1.139 2.44.681.572 1.456.859 2.323.859 1.332 0 2.355-.62 3.067-1.859l2.184 1.046a6.032 6.032 0 01-2.137 2.277c-.899.558-1.96.836-3.183.836zm2.927-7.551a2.808 2.808 0 00-.372-1.139c-.216-.387-.557-.712-1.022-.975-.449-.28-1.015-.419-1.696-.419-.759 0-1.417.233-1.975.697-.542.465-.914 1.077-1.115 1.836h6.18zM99.013 25.233c-1.317 0-2.409-.302-3.276-.906-.852-.62-1.456-1.394-1.813-2.323l2.278-.976c.263.635.642 1.115 1.138 1.44a3.056 3.056 0 001.673.488c.635 0 1.154-.116 1.557-.348.402-.248.604-.566.604-.953 0-.372-.163-.674-.488-.906-.325-.248-.86-.465-1.603-.65l-1.58-.372a5.235 5.235 0 01-2.254-1.116c-.62-.557-.93-1.278-.93-2.16 0-1.07.442-1.914 1.325-2.533.883-.635 1.967-.953 3.253-.953 1.069 0 2.014.225 2.835.674.836.45 1.44 1.1 1.812 1.952l-2.254.952a2.17 2.17 0 00-.999-1.068 3.139 3.139 0 00-1.464-.349c-.511 0-.96.116-1.347.349-.388.216-.581.51-.581.883 0 .325.131.588.395.79.278.2.712.371 1.3.51l1.72.419c1.162.294 2.029.743 2.602 1.348.574.588.86 1.3.86 2.137 0 .682-.209 1.301-.627 1.859-.403.558-.968 1-1.696 1.324-.713.326-1.526.488-2.44.488zM86.785 25.233c-.82 0-1.564-.162-2.23-.488a4.108 4.108 0 01-1.557-1.394c-.372-.604-.557-1.285-.557-2.044 0-1.209.449-2.161 1.347-2.858.914-.697 2.068-1.046 3.462-1.046 1.224 0 2.27.21 3.137.627v-.488c0-.697-.279-1.27-.837-1.719-.542-.465-1.2-.697-1.974-.697-1.178 0-2.123.48-2.835 1.44l-1.952-1.347a5.412 5.412 0 012.022-1.673c.82-.387 1.742-.58 2.764-.58 1.689 0 2.99.425 3.904 1.277.93.837 1.394 2.022 1.394 3.555v7.064h-2.486v-1.418h-.14c-.371.527-.844.96-1.417 1.301-.573.326-1.254.488-2.044.488zm.419-2.114c.573 0 1.1-.14 1.58-.418a3.275 3.275 0 001.161-1.139c.295-.48.442-.991.442-1.533a5.387 5.387 0 00-2.626-.674c-.852 0-1.518.186-1.998.558-.48.371-.72.844-.72 1.417 0 .527.209.96.627 1.301.434.325.945.488 1.534.488zM76.062 25.233c-.836 0-1.587-.178-2.254-.534-.65-.356-1.138-.806-1.463-1.348h-.14v1.51H69.79V8.226h2.556v4.996l-.14 1.603h.14c.325-.527.813-.968 1.463-1.324.667-.357 1.418-.535 2.254-.535.992 0 1.906.264 2.742.79.852.527 1.526 1.263 2.022 2.207.51.93.766 1.976.766 3.137 0 1.162-.255 2.207-.766 3.137a5.794 5.794 0 01-2.022 2.207c-.836.527-1.75.79-2.742.79zm-.441-2.346c.604 0 1.162-.155 1.673-.465.526-.31.945-.751 1.254-1.325.326-.588.488-1.254.488-1.998 0-.743-.162-1.402-.488-1.975-.31-.588-.728-1.038-1.254-1.347a3.168 3.168 0 00-1.673-.465c-.604 0-1.17.155-1.696.465-.511.31-.93.75-1.255 1.324-.31.573-.465 1.24-.465 1.998 0 .76.155 1.425.465 1.998.325.574.743 1.015 1.255 1.325.526.31 1.092.465 1.696.465zM62.736 25.233c-1.13 0-2.153-.263-3.067-.79a5.621 5.621 0 01-2.114-2.184c-.511-.945-.767-1.998-.767-3.16 0-1.115.24-2.137.72-3.067a5.632 5.632 0 012.068-2.23c.883-.558 1.89-.837 3.02-.837 1.163 0 2.17.256 3.022.767a4.972 4.972 0 011.974 2.138c.45.898.674 1.936.674 3.113 0 .14-.008.279-.023.418-.015.14-.023.217-.023.233h-8.876c.078 1.053.457 1.866 1.139 2.44.681.572 1.456.859 2.323.859 1.332 0 2.355-.62 3.067-1.859l2.184 1.046a6.035 6.035 0 01-2.138 2.277c-.898.558-1.959.836-3.183.836zm2.928-7.551a2.808 2.808 0 00-.372-1.139c-.217-.387-.558-.712-1.022-.975-.45-.28-1.015-.419-1.696-.419-.76 0-1.418.233-1.975.697-.542.465-.914 1.077-1.116 1.836h6.18zM49.695 13.337h2.416v1.72h.14c.248-.59.697-1.077 1.348-1.464.65-.403 1.316-.604 1.998-.604.557 0 1.014.077 1.37.232v2.672a3.894 3.894 0 00-1.765-.395c-.837 0-1.541.325-2.115.976-.557.635-.836 1.417-.836 2.346v6.042h-2.556V13.337zM46.047 11.385c-.48 0-.89-.162-1.231-.488a1.72 1.72 0 01-.488-1.231c0-.48.162-.883.488-1.208.34-.341.75-.512 1.231-.512.48 0 .883.17 1.208.512.341.325.511.728.511 1.208s-.17.89-.51 1.231a1.641 1.641 0 01-1.209.488zm-1.278 1.952h2.556v11.525h-2.556V13.337zM33.127 8.225h10.108v2.486H35.73v4.787h6.761v2.463H35.73v6.9h-2.602V8.226z" fill="#fff"/><path d="M8.007 29.872c1.278.514 2.665.82 4.12.87 1.97.069 3.844-.338 5.519-1.112a17.19 17.19 0 01-5.38-3.378 9.211 9.211 0 01-4.259 3.62z" fill="#FF9100"/><path d="M12.266 26.253a17.148 17.148 0 01-5.487-13.73 9.18 9.18 0 00-4.792.05 12.102 12.102 0 00-1.588 5.594c-.184 5.256 2.997 9.848 7.608 11.705a9.202 9.202 0 004.259-3.62z" fill="#FFC400"/><path d="M12.266 26.253a9.121 9.121 0 001.382-4.53c.152-4.38-2.793-8.149-6.868-9.2a17.148 17.148 0 005.486 13.73z" fill="#FF9100"/><path d="M13.192.209a17.141 17.141 0 00-6.414 12.315c4.075 1.051 7.02 4.82 6.867 9.2a9.14 9.14 0 01-1.381 4.53 17.164 17.164 0 005.38 3.377A12.154 12.154 0 0024.7 19.015c.107-3.072-1.074-5.811-2.742-8.123C20.197 8.448 13.192.21 13.192.21z" fill="#DD2C00"/></svg>