<svg width="72" height="72" viewBox="0 0 72 72" fill="none" xmlns="http://www.w3.org/2000/svg"><path d="M31.473 10.844a7.21 7.21 0 014.063-1.252 7.21 7.21 0 014.063 1.252L63.572 27.2H7.5l23.973-16.358z" fill="#AECBFA"/><g clip-path="url(#clip0_3100_172)"><path d="M7.5 27.208h56.072v29.285c0 .931-.185 1.852-.545 2.712-.36.86-.887 1.64-1.551 2.299a7.162 7.162 0 01-2.323 1.535c-.868.356-1.8.54-2.74.54H14.659c-.94 0-1.87-.184-2.74-.54a7.162 7.162 0 01-2.321-1.535 7.08 7.08 0 01-1.552-2.3 7.022 7.022 0 01-.545-2.71V27.207z" fill="#356AC3"/><path d="M24.441 43.185L10.152 61.342M46.87 43.185l14.05 18.157" stroke="#AECBFA" stroke-width="3" stroke-linecap="round"/><path d="M8.258 27.958l15.897 15.453h23.002l15.657-15.453" fill="#AECBFA"/><path d="M8.258 27.958l15.897 15.453h23.002l15.657-15.453" stroke="#AECBFA" stroke-width="3" stroke-linecap="round"/></g><path d="M24.277 42.872L8.38 27.522h54.312l-15.896 15.35H24.277z" fill="#AECBFA" stroke="#AECBFA" stroke-width=".709"/><mask id="a" style="mask-type:alpha" maskUnits="userSpaceOnUse" x="8" y="7" width="55" height="35"><path d="M8.455 26.11l27.2-18.857L62.856 26.11 46.72 41.97H24.59L8.456 26.11z" fill="#174EA6"/></mask><g mask="url(#a)"><path d="M54.742 42.138a18.696 18.696 0 00-1.98-5.91 19.296 19.296 0 00-7.012-7.393l.022-.038 1.176-1.983 1.152-1.939.826-1.39a1.712 1.712 0 00-.012-1.774 1.756 1.756 0 00-.62-.603 1.835 1.835 0 00-1.372-.187c-.457.118-.847.41-1.088.811l-.826 1.392-1.15 1.938-1.178 1.984-.129.218a19.913 19.913 0 00-7.14-1.314h-.2a19.92 19.92 0 00-6.901 1.3l-.12-.203-1.178-1.984-1.151-1.938-.826-1.392a1.787 1.787 0 00-1.362-.86 1.808 1.808 0 00-.98.174 1.785 1.785 0 00-.736.665 1.707 1.707 0 00-.012 1.773l.826 1.392 1.15 1.937c.392.663.786 1.323 1.177 1.985l.01.016a19.611 19.611 0 00-3.483 2.691 19.35 19.35 0 00-2.142 2.465 18.836 18.836 0 00-3.362 7.938l-.038.23c-.043.278-.08.556-.111.836H54.85c-.032-.28-.069-.559-.112-.835l.003-.002z" fill="#2A8642"/><path d="M45.524 37.73c.778-.505.89-1.675.252-2.611-.638-.938-1.786-1.288-2.564-.783-.778.507-.891 1.676-.252 2.613.638.938 1.786 1.288 2.564.782zm-17.629-.776c.639-.938.525-2.108-.252-2.614-.778-.505-1.926-.155-2.564.782-.64.938-.526 2.108.252 2.613.777.506 1.925.156 2.564-.781z" fill="#121212"/></g><defs><clipPath id="clip0_3100_172"><path d="M7.5 27.208h56.072v28.87a7.5 7.5 0 01-7.5 7.5H15a7.5 7.5 0 01-7.5-7.5v-28.87z" fill="#fff"/></clipPath></defs></svg>