<svg width="72" height="72" viewBox="0 0 72 72" fill="none" xmlns="http://www.w3.org/2000/svg"><path d="M31.473 10.85a7.21 7.21 0 014.063-1.252A7.21 7.21 0 0139.6 10.85l23.973 16.357H7.5l23.973-16.358z" fill="#174EA6"/><g clip-path="url(#clip0_3100_171)"><path d="M7.5 27.21h56.072v29.286c0 .93-.185 1.852-.545 2.712-.36.86-.887 1.64-1.551 2.298a7.166 7.166 0 01-2.323 1.536c-.868.356-1.8.54-2.74.54H14.659c-.94 0-1.87-.184-2.74-.54a7.164 7.164 0 01-2.321-1.536 7.08 7.08 0 01-1.552-2.298 7.023 7.023 0 01-.545-2.712V27.211z" fill="#4285F4"/><path d="M24.441 43.188L10.152 61.344M46.87 43.188l14.05 18.157" stroke="#174EA6" stroke-width="3" stroke-linecap="round"/><path d="M8.258 27.96l15.897 15.454h23.002L62.814 27.96" fill="#174EA6"/><path d="M8.258 27.96l15.897 15.454h23.002L62.814 27.96" stroke="#174EA6" stroke-width="3" stroke-linecap="round"/></g><path d="M24.277 42.878L8.38 27.528h54.312l-15.896 15.35h-22.52z" fill="#174EA6" stroke="#174EA6" stroke-width=".709"/><mask id="a" style="mask-type:alpha" maskUnits="userSpaceOnUse" x="8" y="7" width="55" height="35"><path d="M8.455 26.121l27.2-18.855L62.856 26.12 46.72 41.982H24.59L8.456 26.122z" fill="#174EA6"/></mask><g mask="url(#a)"><path d="M54.742 42.142a18.696 18.696 0 00-1.98-5.91 19.296 19.296 0 00-7.012-7.393l.022-.038 1.176-1.984L48.1 24.88l.826-1.39a1.712 1.712 0 00-.012-1.774 1.757 1.757 0 00-.62-.603 1.835 1.835 0 00-1.372-.187c-.457.118-.847.41-1.088.811l-.826 1.392-1.15 1.937c-.392.663-.785 1.323-1.178 1.985l-.129.217a19.913 19.913 0 00-7.14-1.314l-.2.001c-2.36.021-4.698.461-6.901 1.3l-.12-.203-1.178-1.984-1.151-1.938-.826-1.392a1.787 1.787 0 00-1.362-.86 1.808 1.808 0 00-.98.174 1.785 1.785 0 00-.736.665 1.709 1.709 0 00-.012 1.773l.826 1.392 1.15 1.937c.392.662.786 1.323 1.177 1.985l.01.016a19.611 19.611 0 00-3.483 2.691 19.35 19.35 0 00-2.142 2.465 18.836 18.836 0 00-3.362 7.938l-.038.23c-.043.278-.08.556-.112.836h38.88a19.14 19.14 0 00-.112-.835l.003-.002z" fill="#34A853"/><path d="M45.524 37.735c.778-.505.89-1.675.252-2.612-.638-.938-1.786-1.288-2.564-.782s-.891 1.675-.252 2.613c.638.937 1.786 1.288 2.564.781zm-17.629-.777c.639-.937.525-2.107-.252-2.614-.778-.505-1.926-.155-2.564.783-.64.937-.526 2.107.252 2.613.777.505 1.925.155 2.564-.782z" fill="#202124"/></g><defs><clipPath id="clip0_3100_171"><path d="M7.5 27.21h56.072v28.871a7.5 7.5 0 01-7.5 7.5H15a7.5 7.5 0 01-7.5-7.5v-28.87z" fill="#fff"/></clipPath></defs></svg>