<svg width="72" height="72" viewBox="0 0 72 72" fill="none" xmlns="http://www.w3.org/2000/svg"><g clip-path="url(#clip0_3114_308)"><path d="M7.5 26.016h56.072V55.3c0 .93-.185 1.852-.545 2.711a7.08 7.08 0 01-1.552 2.299 7.164 7.164 0 01-2.322 1.536c-.868.356-1.8.54-2.74.54H14.659c-.94 0-1.87-.184-2.74-.54a7.165 7.165 0 01-2.321-1.536 7.08 7.08 0 01-1.552-2.299 7.023 7.023 0 01-.545-2.711V26.016z" fill="#4285F4"/><path d="M23.262 41.065a1.5 1.5 0 012.358 1.855L11.33 61.077a1.5 1.5 0 01-2.357-1.855l14.29-18.157zm22.69-.26a1.5 1.5 0 012.103.27L62.106 59.23a1.5 1.5 0 01-2.372 1.836L45.684 42.91a1.5 1.5 0 01.268-2.104z" fill="#174EA6"/><path d="M61.76 25.698a1.5 1.5 0 012.108 2.135L47.772 43.719H23.546L7.212 27.84a1.5 1.5 0 012.092-2.15l15.46 15.028h21.778l15.219-15.02z" fill="#174EA6"/></g><path d="M35.536 8.438A7.21 7.21 0 0139.6 9.688l23.97 16.324-16.527 15.96-.103.1H24.134l-.103-.1L7.508 26.012 31.473 9.689a7.212 7.212 0 014.063-1.252z" fill="#174EA6"/><path fill-rule="evenodd" clip-rule="evenodd" d="M23.798 19.603a1.768 1.768 0 011.362.86l.826 1.392 1.152 1.938 1.297 2.186a19.92 19.92 0 016.902-1.298l.2-.001a19.917 19.917 0 017.14 1.314l.13-.218 1.176-1.984 1.977-3.33c.24-.401.631-.693 1.087-.81a1.836 1.836 0 011.372.187c.264.153.473.361.62.602a1.715 1.715 0 01.012 1.774l-3.154 5.312-.022.038a19.298 19.298 0 016.842 7.091l-6.116 6.014H24.472l-6.117-6.013a19.358 19.358 0 016.879-7.111l-.01-.017-1.177-1.984-1.976-3.33a1.717 1.717 0 01.011-1.773c.177-.286.432-.516.736-.665a1.81 1.81 0 01.98-.174z" fill="#34A853"/><path d="M45.633 36.67c.778-.505.89-1.675.252-2.612s-1.786-1.288-2.564-.782c-.779.506-.892 1.675-.253 2.613.638.937 1.787 1.288 2.565.781zm-17.63-.777c.64-.937.526-2.107-.252-2.613-.778-.506-1.926-.156-2.564.782-.638.937-.526 2.107.253 2.613.777.505 1.925.155 2.564-.782z" fill="#121212"/><defs><clipPath id="clip0_3114_308"><path d="M7.5 26.016h56.072v28.87a7.5 7.5 0 01-7.5 7.5H15a7.5 7.5 0 01-7.5-7.5v-28.87z" fill="#fff"/></clipPath></defs></svg>