<svg width="16" height="16" viewBox="0 0 16 16" fill="none" xmlns="http://www.w3.org/2000/svg"><g clip-path="url(#clip0_2741_128)"><path d="M7.81 7.686l-5.757 6.15v.004a1.556 1.556 0 002.291.945l.019-.011 6.48-3.764L7.81 7.686z" fill="#EA4335"/><path d="M13.635 6.639l-.006-.004-2.797-1.633L7.68 7.826l3.163 3.183 2.783-1.616a1.57 1.57 0 00.009-2.754z" fill="#FBBC04"/><path d="M2.053 2.163A1.53 1.53 0 002 2.566v10.868c.005.157.018.275.053.402l5.955-5.992-5.955-5.681z" fill="#4285F4"/><path d="M7.853 8l2.98-2.998L4.36 1.224a1.558 1.558 0 00-2.307.937v.002L7.853 8z" fill="#34A853"/></g><defs><clipPath id="clip0_2741_128"><path fill="#fff" d="M0 0h16v16H0z"/></clipPath></defs></svg>