<svg width="16" height="16" viewBox="0 0 16 16" fill="none" xmlns="http://www.w3.org/2000/svg"><path d="M7.576 7.677l-5.922 6.326.001.004a1.601 1.601 0 0 0 2.356.971l.02-.01 6.665-3.872-3.12-3.42z" fill="#EA4335"/><path d="M13.567 6.6l-.005-.004-2.878-1.68-3.242 2.905 3.254 3.274 2.862-1.662a1.615 1.615 0 0 0 .01-2.833z" fill="#FBBC04"/><path d="M1.654 1.996a1.574 1.574 0 0 0-.054.414v11.18c.006.16.018.282.054.413L7.78 7.84 1.654 1.996z" fill="#4285F4"/><path d="M7.62 8l3.065-3.084L4.027 1.03A1.593 1.593 0 0 0 3.2.8c-.74 0-1.364.507-1.546 1.194v.002L7.62 8z" fill="#34A853"/></svg>