<svg width="300" height="97" viewBox="0 0 300 97" fill="none" xmlns="http://www.w3.org/2000/svg">
<path d="M62.9386 49.9427V47.0119H72.7202C72.8206 47.528 72.8781 48.1424 72.8781 48.8086C72.8781 51.0066 72.2787 53.7279 70.3481 55.6651C68.4701 57.6282 66.0716 58.6735 62.8876 58.6735C56.994 58.6747 52.0376 53.8603 52.0376 47.9455C52.0376 42.0303 56.994 37.215 62.8876 37.215C66.1487 37.215 68.4701 38.4977 70.2177 40.1724L68.1566 42.2401C66.9036 41.0622 65.2094 40.1461 62.8876 40.1461C58.5836 40.1461 55.2177 43.6268 55.2177 47.9443C55.2177 52.2629 58.5836 55.7437 62.8876 55.7437C65.6784 55.7437 67.2692 54.6177 68.287 53.5975C69.1157 52.7664 69.6608 51.5736 69.873 49.9427H62.9386ZM87.7837 51.766C87.7837 55.7425 84.6794 58.6747 80.8708 58.6747C77.0625 58.6747 73.9594 55.7437 73.9594 51.766C73.9594 47.762 77.0634 44.8565 80.8708 44.8565C84.6794 44.8565 87.7837 47.7608 87.7837 51.766ZM84.7579 51.766C84.7579 49.2788 82.9585 47.5789 80.8708 47.5789C78.7846 47.5789 76.984 49.2788 76.984 51.766C76.984 54.2257 78.7846 55.9523 80.8708 55.9523C82.9573 55.9523 84.7579 54.2269 84.7579 51.766ZM102.863 51.766C102.863 55.7425 99.7588 58.6747 95.9506 58.6747C92.142 58.6747 89.0389 55.7437 89.0389 51.766C89.0389 47.762 92.1432 44.8565 95.9517 44.8565C99.76 44.8565 102.863 47.7608 102.863 51.766ZM99.8374 51.766C99.8374 49.2788 98.0368 47.5789 95.9506 47.5789C93.864 47.5789 92.0634 49.2788 92.0634 51.766C92.0634 54.2257 93.8628 55.9523 95.9506 55.9523C98.0368 55.9523 99.8374 54.2269 99.8374 51.766ZM117.317 45.2748V57.68C117.317 62.7836 114.316 64.8764 110.77 64.8764C107.43 64.8764 105.421 62.6257 104.666 60.7942L107.3 59.6946C107.77 60.8206 108.917 62.1555 110.77 62.1555C113.039 62.1555 114.447 60.7424 114.447 58.0984V57.1049H114.343C113.665 57.9417 112.36 58.6747 110.716 58.6747C107.273 58.6747 104.117 55.6651 104.117 51.7927C104.117 47.8924 107.273 44.8577 110.716 44.8577C112.36 44.8577 113.665 45.5895 114.343 46.402H114.447V45.276H117.317V45.2748ZM114.656 51.7915C114.656 49.3574 113.039 47.5777 110.978 47.5777C108.892 47.5777 107.143 49.3574 107.143 51.7915C107.143 54.1993 108.892 55.9523 110.978 55.9523C113.039 55.9523 114.656 54.1993 114.656 51.7915ZM122.442 38.0161V58.2552H119.416V38.0161H122.442ZM134.126 54.0426L136.473 55.6121C135.717 56.7372 133.891 58.6747 130.735 58.6747C126.822 58.6747 123.9 55.6388 123.9 51.7648C123.9 47.656 126.848 44.8565 130.396 44.8565C133.97 44.8565 135.717 47.709 136.291 49.2537L136.604 50.0374L127.396 53.8592C128.1 55.2468 129.196 55.9535 130.735 55.9535C132.274 55.9535 133.344 55.1928 134.126 54.0426ZM126.9 51.5563L133.056 48.9908C132.718 48.1274 131.7 47.5259 130.5 47.5259C128.961 47.5259 126.823 48.8859 126.9 51.5563Z" fill="white"/>
<path d="M187.671 45.3728L184.218 54.1519H184.114L180.53 45.3728H177.283L182.658 57.6408L179.593 64.4664H182.738L191.02 45.3728H187.671ZM163.392 38.0805H160.38V58.3268H163.392V38.0796V38.0805ZM152.096 38.0805H144.879V58.3268H147.897V50.6643H152.104C155.441 50.6643 158.725 48.2407 158.725 44.3772C158.725 40.5138 155.435 38.0805 152.096 38.0805ZM152.176 47.8361H147.897V40.9091H152.182C153.1 40.9091 153.979 41.2756 154.628 41.9257C155.278 42.5769 155.643 43.4595 155.643 44.3793C155.643 45.2994 155.278 46.1817 154.628 46.8333C154.308 47.1551 153.926 47.4108 153.507 47.5852C153.087 47.7596 152.637 47.8495 152.182 47.8498L152.176 47.8361ZM170.794 44.9293C168.612 44.9293 166.351 45.8928 165.417 48.0297L168.093 49.1512C168.666 48.0309 169.73 47.6733 170.846 47.6733C172.402 47.6733 173.987 48.6129 174.014 50.2807V50.4869C173.052 49.9702 171.977 49.6993 170.885 49.6975C168.003 49.6975 165.067 51.2856 165.067 54.2556C165.067 56.9643 167.424 58.7083 170.077 58.7083C172.106 58.7083 173.221 57.7975 173.908 56.7303H174.014V58.2908H176.924V50.5319C176.924 46.9358 174.247 44.9305 170.794 44.9305V44.9293ZM170.431 56.0263C169.444 56.0263 168.072 55.5306 168.072 54.3066C168.072 52.7449 169.785 52.1455 171.267 52.1455C172.229 52.12 173.18 52.3534 174.02 52.8219C173.909 53.7003 173.484 54.5086 172.824 55.0984C172.164 55.6867 171.314 56.0164 170.431 56.0263Z" fill="white"/>
<path d="M206.592 58.5507C203.752 58.5507 201.376 57.5952 199.463 55.684C197.57 53.7719 196.623 51.3875 196.623 48.5302C196.623 45.6728 197.57 43.2962 199.463 41.4027C201.357 39.4732 203.733 38.5097 206.592 38.5097C209.485 38.5097 211.835 39.5539 213.639 41.6449L211.871 43.3586C210.495 41.6976 208.736 40.8668 206.592 40.8668C204.466 40.8668 202.689 41.5813 201.259 43.0106C199.847 44.4213 199.142 46.2609 199.142 48.5302C199.142 50.7995 199.849 52.6379 201.259 54.0498C202.689 55.479 204.466 56.1935 206.592 56.1935C208.825 56.1935 210.763 55.2555 212.407 53.379L214.202 55.1218C213.291 56.2109 212.146 57.0809 210.853 57.6665C209.511 58.2603 208.059 58.5615 206.592 58.5507ZM215.381 51.5581C215.381 49.5387 216.015 47.8696 217.283 46.5465C218.571 45.2245 220.188 44.5642 222.133 44.5642C224.079 44.5642 225.69 45.2245 226.958 46.5465C228.244 47.8687 228.887 49.5387 228.887 51.5581C228.887 53.5933 228.244 55.2647 226.958 56.5681C225.69 57.8901 224.081 58.5507 222.133 58.5507C220.185 58.5507 218.571 57.8901 217.284 56.5681C216.016 55.2462 215.382 53.5762 215.382 51.5581H215.381ZM217.847 51.5581C217.847 52.9687 218.257 54.1121 219.08 54.9869C219.901 55.863 220.92 56.3008 222.135 56.3008C223.348 56.3008 224.367 55.863 225.189 54.9869C226.011 54.1109 226.421 52.9687 226.421 51.5581C226.421 50.1632 226.011 49.0304 225.188 48.1544C224.349 47.2613 223.331 46.8153 222.133 46.8153C220.936 46.8153 219.919 47.2613 219.079 48.1544C218.257 49.0304 217.846 50.1644 217.846 51.5581H217.847ZM230.864 44.9928H233.222V46.8141H233.33C233.705 46.1721 234.277 45.636 235.045 45.2074C235.79 44.7893 236.629 44.5681 237.483 44.5642C239.091 44.5642 240.324 45.0288 241.182 45.9576C242.058 46.868 242.495 48.1729 242.495 49.8695V58.1218H240.029V50.0308C239.975 47.887 238.895 46.8153 236.787 46.8153C235.804 46.8153 234.982 47.2175 234.321 48.0207C233.66 48.8068 233.33 49.753 233.33 50.8607V58.1218H230.864V44.9928ZM255.307 54.4786C255.307 55.6208 254.807 56.5855 253.806 57.3716C252.806 58.1575 251.547 58.5507 250.027 58.5507C248.705 58.5507 247.545 58.2117 246.544 57.5329C245.565 56.8642 244.817 55.9097 244.4 54.8002L246.597 53.8618C246.92 54.648 247.383 55.2635 247.992 55.7107C248.588 56.13 249.299 56.3548 250.027 56.3539C250.814 56.3539 251.466 56.1842 251.984 55.8444C252.52 55.5054 252.788 55.1032 252.788 54.6387C252.788 53.7998 252.145 53.183 250.859 52.7901L248.607 52.2276C246.053 51.5844 244.776 50.3524 244.776 48.5302C244.776 47.3326 245.258 46.3771 246.222 45.6626C247.204 44.9308 248.455 44.5642 249.975 44.5642C251.135 44.5642 252.181 44.8409 253.11 45.3941C254.056 45.9486 254.718 46.6894 255.092 47.6185L252.896 48.529C252.643 47.9727 252.207 47.5196 251.662 47.2439C251.092 46.9178 250.444 46.7509 249.787 46.7611C249.143 46.7611 248.562 46.9223 248.045 47.2439C247.545 47.5654 247.294 47.9584 247.294 48.4229C247.294 49.1721 248 49.7092 249.412 50.0308L251.395 50.5391C254.002 51.1822 255.307 52.4949 255.307 54.4786ZM256.833 51.5581C256.833 49.5387 257.467 47.8696 258.735 46.5465C260.021 45.2245 261.64 44.5642 263.586 44.5642C265.531 44.5642 267.141 45.2245 268.409 46.5465C269.696 47.8687 270.339 49.5387 270.339 51.5581C270.339 53.5933 269.696 55.2647 268.409 56.5681C267.141 57.8901 265.534 58.5507 263.586 58.5507C261.637 58.5507 260.021 57.8901 258.736 56.5681C257.468 55.2462 256.833 53.5762 256.833 51.5581ZM259.299 51.5581C259.299 52.9687 259.709 54.1121 260.532 54.9869C261.353 55.863 262.371 56.3008 263.587 56.3008C264.803 56.3008 265.819 55.863 266.641 54.9869C267.462 54.1109 267.874 52.9687 267.874 51.5581C267.874 50.1632 267.462 49.0304 266.64 48.1544C265.801 47.2613 264.783 46.8153 263.586 46.8153C262.388 46.8153 261.371 47.2613 260.531 48.1544C259.709 49.0304 259.297 50.1644 259.297 51.5581H259.299ZM274.913 38.9374V58.123H272.447V38.9374H274.913ZM283.682 58.5507C281.752 58.5507 280.161 57.8901 278.912 56.5681C277.661 55.2462 277.035 53.5762 277.035 51.5581C277.035 49.5573 277.643 47.8951 278.858 46.5743C280.073 45.2338 281.626 44.5642 283.52 44.5642C285.468 44.5642 287.013 45.1981 288.156 46.4658C289.317 47.7165 289.899 49.4763 289.899 51.7448L289.87 52.0133H279.554C279.591 53.2996 280.02 54.3357 280.84 55.1218C281.229 55.5036 281.69 55.8042 282.196 56.0065C282.702 56.2088 283.244 56.3083 283.789 56.2996C285.361 56.2996 286.594 55.5147 287.488 53.9428L289.684 55.0145C289.121 56.094 288.267 56.9943 287.219 57.6135C286.182 58.2384 285.004 58.5507 283.68 58.5507H283.682ZM279.742 49.9765H287.271C287.245 49.545 287.132 49.1233 286.939 48.7364C286.746 48.3498 286.477 48.0057 286.147 47.7258C285.486 47.1183 284.591 46.8153 283.467 46.8153C282.538 46.8153 281.734 47.1009 281.054 47.6727C280.394 48.2443 279.956 49.0118 279.742 49.9765Z" fill="white"/>
<path d="M4.77707 33.2365V61.9412C4.77707 65.0841 8.22132 67.0484 10.9763 65.4761L36.1397 51.1232C38.8945 49.5522 38.8945 45.6243 36.1397 44.0521L10.9763 29.7004C8.22015 28.1272 4.77707 30.0923 4.77707 33.2365Z" fill="#2F80ED"/>
<path d="M29.9715 40.5345L16.75 48.1471L14.2256 43.6753C14.0855 43.4263 13.8974 43.2078 13.6722 43.0322C13.4471 42.8565 13.1893 42.7271 12.9138 42.6518C12.3568 42.4954 11.7604 42.5658 11.2551 42.8475L4.77698 46.4436V50.8534L11.6655 47.0281L14.2014 51.523C14.485 52.0244 14.9691 52.399 15.5293 52.5512C16.0938 52.7029 16.6954 52.6253 17.203 52.3355L33.8526 42.7474L29.9715 40.5345Z" fill="#CCF6FF"/>
</svg>
