<svg width="300" height="97" viewBox="0 0 300 97" fill="none" xmlns="http://www.w3.org/2000/svg">
<path d="M62.9386 49.7706V46.8396H72.7202C72.8206 47.356 72.8781 47.9703 72.8781 48.6366C72.8781 50.8346 72.2787 53.5556 70.3481 55.4931C68.4701 57.4559 66.0716 58.5012 62.8876 58.5012C56.994 58.5024 52.0376 53.6883 52.0376 47.7731C52.0376 41.8583 56.994 37.043 62.8876 37.043C66.1487 37.043 68.4701 38.3257 70.2177 40.0004L68.1566 42.068C66.9036 40.8902 65.2094 39.9737 62.8876 39.9737C58.5836 39.9737 55.2177 43.4545 55.2177 47.7722C55.2177 52.0909 58.5836 55.5716 62.8876 55.5716C65.6784 55.5716 67.2692 54.4454 68.287 53.4255C69.1157 52.5944 69.6608 51.4016 69.873 49.7706H62.9386ZM87.7837 51.594C87.7837 55.5704 84.6794 58.5024 80.8708 58.5024C77.0625 58.5024 73.9594 55.5716 73.9594 51.594C73.9594 47.59 77.0634 44.6844 80.8708 44.6844C84.6794 44.6844 87.7837 47.5888 87.7837 51.594ZM84.7579 51.594C84.7579 49.1068 82.9585 47.4066 80.8708 47.4066C78.7846 47.4066 76.984 49.1068 76.984 51.594C76.984 54.0537 78.7846 55.7802 80.8708 55.7802C82.9573 55.7802 84.7579 54.0549 84.7579 51.594ZM102.863 51.594C102.863 55.5704 99.7588 58.5024 95.9506 58.5024C92.142 58.5024 89.0389 55.5716 89.0389 51.594C89.0389 47.59 92.1432 44.6844 95.9517 44.6844C99.76 44.6844 102.863 47.5888 102.863 51.594ZM99.8374 51.594C99.8374 49.1068 98.0368 47.4066 95.9506 47.4066C93.864 47.4066 92.0634 49.1068 92.0634 51.594C92.0634 54.0537 93.8628 55.7802 95.9506 55.7802C98.0368 55.7802 99.8374 54.0549 99.8374 51.594ZM117.317 45.1028V57.5077C117.317 62.6113 114.316 64.7044 110.77 64.7044C107.43 64.7044 105.421 62.4537 104.666 60.6222L107.3 59.5226C107.77 60.6486 108.917 61.9831 110.77 61.9831C113.039 61.9831 114.447 60.5703 114.447 57.9261V56.9326H114.343C113.665 57.7693 112.36 58.5024 110.716 58.5024C107.273 58.5024 104.117 55.4931 104.117 51.6204C104.117 47.7201 107.273 44.6856 110.716 44.6856C112.36 44.6856 113.665 45.4175 114.343 46.23H114.447V45.104H117.317V45.1028ZM114.656 51.6195C114.656 49.185 113.039 47.4057 110.978 47.4057C108.892 47.4057 107.143 49.185 107.143 51.6195C107.143 54.027 108.892 55.7802 110.978 55.7802C113.039 55.7802 114.656 54.027 114.656 51.6195ZM122.442 37.8438V58.0828H119.416V37.8438H122.442ZM134.126 53.8702L136.473 55.4401C135.717 56.5651 133.891 58.5024 130.735 58.5024C126.822 58.5024 123.9 55.4667 123.9 51.5928C123.9 47.4839 126.848 44.6844 130.396 44.6844C133.97 44.6844 135.717 47.537 136.291 49.0813L136.604 49.865L127.396 53.6871C128.1 55.0747 129.196 55.7814 130.735 55.7814C132.274 55.7814 133.344 55.0205 134.126 53.8702ZM126.9 51.3842L133.056 48.8185C132.718 47.9554 131.7 47.3539 130.5 47.3539C128.961 47.3539 126.823 48.7139 126.9 51.3842Z" fill="#5F6368"/>
<path d="M187.671 45.2008L184.218 53.9799H184.114L180.53 45.2008H177.283L182.658 57.4687L179.593 64.2944H182.738L191.02 45.2008H187.671ZM163.392 37.9085H160.38V58.1544H163.392V37.9073V37.9085ZM152.096 37.9085H144.879V58.1544H147.897V50.4923H152.104C155.441 50.4923 158.725 48.0683 158.725 44.2049C158.725 40.3418 155.435 37.9085 152.096 37.9085ZM152.176 47.664H147.897V40.7371H152.182C153.1 40.7371 153.979 41.1036 154.628 41.7536C155.278 42.4049 155.643 43.2875 155.643 44.2073C155.643 45.1274 155.278 46.0097 154.628 46.6612C154.308 46.9831 153.926 47.2388 153.507 47.4132C153.087 47.5876 152.637 47.6775 152.182 47.6778L152.176 47.664ZM170.794 44.7572C168.612 44.7572 166.351 45.7208 165.417 47.8576L168.093 48.9791C168.666 47.8585 169.73 47.5013 170.846 47.5013C172.402 47.5013 173.987 48.4409 174.014 50.1084V50.3149C173.052 49.7982 171.977 49.527 170.885 49.5252C168.003 49.5252 165.067 51.1136 165.067 54.0836C165.067 56.7923 167.424 58.536 170.077 58.536C172.106 58.536 173.221 57.6255 173.908 56.5582H174.014V58.1188H176.924V50.3598C176.924 46.7637 174.247 44.7581 170.794 44.7581V44.7572ZM170.431 55.8539C169.444 55.8539 168.072 55.3585 168.072 54.1343C168.072 52.5728 169.785 51.9734 171.267 51.9734C172.229 51.9476 173.18 52.1814 174.02 52.6498C173.909 53.5283 173.484 54.3366 172.824 54.9261C172.164 55.5147 171.314 55.8443 170.431 55.8539Z" fill="#5F6368"/>
<path d="M206.592 58.3783C203.752 58.3783 201.376 57.4229 199.463 55.5117C197.57 53.5996 196.623 51.2149 196.623 48.3578C196.623 45.5005 197.57 43.1239 199.463 41.2304C201.357 39.3009 203.733 38.3373 206.592 38.3373C209.485 38.3373 211.835 39.3815 213.639 41.4722L211.871 43.1862C210.495 41.5253 208.736 40.6945 206.592 40.6945C204.466 40.6945 202.689 41.409 201.259 42.8382C199.847 44.2489 199.142 46.0885 199.142 48.3578C199.142 50.6272 199.849 52.4655 201.259 53.8774C202.689 55.3067 204.466 56.0212 206.592 56.0212C208.825 56.0212 210.763 55.0831 212.407 53.2067L214.202 54.9494C213.291 56.0385 212.146 56.9083 210.853 57.4942C209.511 58.0879 208.059 58.3891 206.592 58.3783ZM215.381 51.3857C215.381 49.3663 216.015 47.6973 217.283 46.3741C218.571 45.0521 220.188 44.3919 222.133 44.3919C224.079 44.3919 225.69 45.0521 226.957 46.3741C228.244 47.6961 228.887 49.3663 228.887 51.3857C228.887 53.421 228.244 55.0921 226.957 56.3958C225.69 57.7178 224.081 58.3783 222.133 58.3783C220.185 58.3783 218.571 57.7178 217.284 56.3958C216.016 55.0738 215.382 53.4036 215.382 51.3857H215.381ZM217.847 51.3857C217.847 52.7964 218.257 53.9397 219.08 54.8146C219.901 55.6903 220.92 56.1285 222.135 56.1285C223.348 56.1285 224.367 55.6903 225.189 54.8146C226.011 53.9385 226.421 52.7964 226.421 51.3857C226.421 49.9909 226.011 48.858 225.188 47.982C224.349 47.0889 223.331 46.6426 222.133 46.6426C220.936 46.6426 219.919 47.0889 219.079 47.982C218.257 48.858 217.846 49.9921 217.846 51.3857H217.847ZM230.864 44.8205H233.222V46.6417H233.33C233.705 45.9995 234.277 45.4636 235.045 45.035C235.79 44.617 236.629 44.3958 237.483 44.3919C239.091 44.3919 240.324 44.8564 241.182 45.7852C242.058 46.6957 242.495 48.0006 242.495 49.6972V57.9494H240.029V49.8584C239.975 47.7147 238.895 46.6426 236.787 46.6426C235.804 46.6426 234.982 47.0451 234.321 47.8483C233.66 48.6345 233.33 49.5806 233.33 50.6883V57.9494H230.864V44.8205ZM255.307 54.3063C255.307 55.4484 254.807 56.4132 253.806 57.199C252.806 57.9851 251.547 58.3783 250.027 58.3783C248.705 58.3783 247.545 58.0393 246.544 57.3605C245.565 56.6916 244.817 55.7373 244.4 54.6279L246.597 53.6895C246.92 54.4756 247.383 55.0912 247.992 55.5383C248.588 55.9576 249.299 56.1824 250.027 56.1815C250.813 56.1815 251.466 56.0119 251.984 55.672C252.52 55.3331 252.788 54.9309 252.788 54.4663C252.788 53.6275 252.145 53.0107 250.858 52.6178L248.607 52.0552C246.053 51.4121 244.776 50.18 244.776 48.3578C244.776 47.1602 245.258 46.2048 246.222 45.4903C247.204 44.7584 248.455 44.3919 249.974 44.3919C251.135 44.3919 252.181 44.6685 253.11 45.2218C254.056 45.7759 254.718 46.5171 255.092 47.4461L252.896 48.3566C252.643 47.8004 252.207 47.3472 251.662 47.0715C251.092 46.7454 250.444 46.5785 249.787 46.5887C249.143 46.5887 248.562 46.7499 248.045 47.0715C247.545 47.3931 247.294 47.786 247.294 48.2505C247.294 48.9998 248 49.5368 249.412 49.8584L251.395 50.3667C254.002 51.0099 255.307 52.3226 255.307 54.3063ZM256.833 51.3857C256.833 49.3663 257.467 47.6973 258.735 46.3741C260.021 45.0521 261.64 44.3919 263.586 44.3919C265.531 44.3919 267.141 45.0521 268.409 46.3741C269.696 47.6961 270.339 49.3663 270.339 51.3857C270.339 53.421 269.696 55.0921 268.409 56.3958C267.141 57.7178 265.534 58.3783 263.586 58.3783C261.637 58.3783 260.021 57.7178 258.736 56.3958C257.468 55.0738 256.833 53.4036 256.833 51.3857ZM259.299 51.3857C259.299 52.7964 259.709 53.9397 260.532 54.8146C261.353 55.6903 262.371 56.1285 263.587 56.1285C264.803 56.1285 265.819 55.6903 266.641 54.8146C267.462 53.9385 267.874 52.7964 267.874 51.3857C267.874 49.9909 267.462 48.858 266.64 47.982C265.801 47.0889 264.783 46.6426 263.586 46.6426C262.388 46.6426 261.371 47.0889 260.531 47.982C259.709 48.858 259.297 49.9921 259.297 51.3857H259.299ZM274.913 38.765V57.9506H272.447V38.765H274.913ZM283.682 58.3783C281.752 58.3783 280.161 57.7178 278.912 56.3958C277.661 55.0738 277.035 53.4036 277.035 51.3857C277.035 49.3846 277.643 47.7228 278.858 46.402C280.072 45.0614 281.626 44.3919 283.52 44.3919C285.468 44.3919 287.013 45.0258 288.156 46.2935C289.317 47.5441 289.899 49.304 289.899 51.5724L289.87 51.8409H279.554C279.591 53.1273 280.02 54.1633 280.84 54.9494C281.229 55.3313 281.69 55.6319 282.196 55.8342C282.702 56.0364 283.244 56.136 283.789 56.1273C285.361 56.1273 286.594 55.3423 287.488 53.7701L289.684 54.8421C289.121 55.9217 288.267 56.822 287.219 57.4411C286.182 58.0657 285.004 58.3783 283.68 58.3783H283.682ZM279.742 49.8042H287.271C287.245 49.3726 287.132 48.9509 286.939 48.564C286.746 48.1771 286.477 47.8334 286.147 47.5534C285.486 46.9459 284.591 46.6426 283.467 46.6426C282.538 46.6426 281.734 46.9286 281.054 47.5004C280.394 48.0719 279.956 48.8394 279.742 49.8042ZM4.77699 61.7691V33.0644C4.77699 29.9201 8.22009 27.955 10.9762 29.5283L36.1394 43.88C38.8945 45.4522 38.8945 49.3801 36.1394 50.9511L10.9762 65.3041C8.22123 66.876 4.77699 64.9121 4.77699 61.7691Z" fill="#2F80ED"/>
<path d="M29.9715 40.3624L16.75 47.9751L14.2256 43.503C14.0855 43.2542 13.8974 43.0358 13.6722 42.8601C13.4471 42.6842 13.1893 42.555 12.9139 42.4795C12.3568 42.3234 11.7605 42.3938 11.2551 42.6755L4.77699 46.2716V50.6814L11.6655 46.856L14.2014 51.3509C14.485 51.8523 14.9691 52.227 15.5293 52.3789C16.0938 52.5309 16.6954 52.4532 17.203 52.1634L33.8527 42.5754L29.9715 40.3624Z" fill="#CCF6FF"/>
</svg>
