<svg width="64" height="64" viewBox="0 0 64 64" fill="none" xmlns="http://www.w3.org/2000/svg">
<g clip-path="url(#clip0_1092_1681)">
<ellipse opacity="0.2" cx="32" cy="32.2774" rx="31.25" ry="31.2149" fill="black"/>
<ellipse cx="32" cy="31.7774" rx="31.25" ry="31.2149" fill="white"/>
<path d="M44.1853 29.4284C43.9769 29.0031 44.1555 28.4929 44.5807 28.2845C45.006 28.0761 45.5162 28.2547 45.7246 28.68C45.933 29.1052 45.7544 29.6155 45.3291 29.8238C44.9039 30.0322 44.3936 29.8536 44.1853 29.4284ZM48.3228 37.933C48.1144 37.5078 48.293 36.9975 48.7183 36.7892C49.1435 36.5808 49.6538 36.7594 49.8621 37.1846C50.0705 37.6099 49.8919 38.1201 49.4667 38.3285C49.0414 38.5369 48.5311 38.3583 48.3228 37.933ZM48.6842 26.8982C45.9627 24.9549 42.412 24.4532 39.125 25.7246L48.1102 44.201C51.1378 42.4022 52.9323 39.2938 53.0854 35.9557L56.4958 36.1981C56.6914 36.2108 56.8615 36.0663 56.8742 35.8664C56.887 35.6708 56.7424 35.5007 56.5425 35.4879L53.0896 35.2413C53.0556 33.787 52.7069 32.303 52.0138 30.8742C51.3207 29.4496 50.3682 28.259 49.2455 27.332L51.1846 24.4617C51.2952 24.3001 51.2526 24.079 51.091 23.9684C50.9295 23.8578 50.7083 23.9004 50.5978 24.0619L48.6842 26.894" fill="#3DDC84"/>
<path d="M40.4006 33.855C37.8662 35.0797 35.1405 35.7005 32.2999 35.7005C25.9002 35.7005 20.0873 32.4518 16.6982 27.2809C16.4303 26.8727 15.8775 26.7749 15.482 27.0641L12.2205 29.4666C11.8505 29.7388 11.7655 30.2575 12.0249 30.6403C16.477 37.2866 24.0164 41.4497 32.2999 41.4497C36.0122 41.4497 39.5799 40.6375 42.901 39.0344L40.4006 33.855V33.855Z" fill="#4285F4"/>
<path d="M32.2702 13.4141H34.0349V9.51472C34.0349 8.54093 33.244 7.75 32.2702 7.75C31.2964 7.75 30.5055 8.54093 30.5055 9.51472V13.4141H32.2702Z" fill="#4285F4"/>
<path d="M27.6776 21.0258L15.5458 45.9954C15.2821 46.5355 15.1418 47.1223 15.129 47.7219L15.0567 50.9919C15.0397 51.8381 16.0178 52.3144 16.6726 51.7786L19.1985 49.7034C19.662 49.325 20.0362 48.8487 20.2999 48.3087L32.2574 23.692L27.6819 21.03L27.6776 21.0258Z" fill="#4285F4"/>
<path d="M49.4155 47.7176C49.4027 47.118 49.2582 46.5312 48.9988 45.9912L36.8669 21.0215L32.2914 23.692L44.2489 48.3002C44.5126 48.8402 44.8868 49.3122 45.3503 49.695L47.8762 51.7701C48.531 52.3059 49.5133 51.8296 49.492 50.9834L49.4198 47.7134L49.4155 47.7176Z" fill="#4285F4"/>
<path d="M32.2701 13.1037C29.3488 13.1037 26.976 15.4807 26.976 18.3978C26.976 21.3149 29.353 23.692 32.2701 23.692C35.1872 23.692 37.5642 21.3149 37.5642 18.3978C37.5642 15.4807 35.1872 13.1037 32.2701 13.1037V13.1037ZM32.2701 21.3107C30.667 21.3107 29.3573 20.0052 29.3573 18.3978C29.3573 16.7904 30.6627 15.485 32.2701 15.485C33.8775 15.485 35.1829 16.7904 35.1829 18.3978C35.1829 20.0052 33.8775 21.3107 32.2701 21.3107Z" fill="#073042"/>
</g>
<defs>
<clipPath id="clip0_1092_1681">
<rect width="64" height="64" fill="white"/>
</clipPath>
</defs>
</svg>
