<svg width="16" height="16" viewBox="0 0 16 16" fill="none" xmlns="http://www.w3.org/2000/svg"><path fill-rule="evenodd" clip-rule="evenodd" d="M8 15A7 7 0 1 0 8 1a7 7 0 0 0 0 14z" fill="#F4AF3D" fill-opacity=".6"/><path d="M8.264 4.712c.48 0 .902.088 1.266.264.368.172.654.424.858.756.204.328.306.718.306 1.17V11h-1.14l-.006-2.298h.288c0 .508-.09.946-.27 1.314a1.909 1.909 0 0 1-.768.84c-.332.192-.728.288-1.188.288-.392 0-.746-.076-1.062-.228a1.828 1.828 0 0 1-.744-.63 1.624 1.624 0 0 1-.264-.912c0-.324.084-.622.252-.894.168-.276.4-.5.696-.672.3-.176.636-.284 1.008-.324l1.626-.174a.447.447 0 0 0 .306-.156c.072-.088.108-.218.108-.39l.072 1.302-1.884.21c-.192.02-.362.074-.51.162a.967.967 0 0 0-.348.348.935.935 0 0 0-.126.48c0 .192.05.362.15.51.104.144.246.258.426.342.18.08.388.12.624.12.32 0 .6-.064.84-.192a1.37 1.37 0 0 0 .558-.54c.132-.232.198-.5.198-.804V6.776c0-.224-.054-.42-.162-.588a1.065 1.065 0 0 0-.456-.39 1.539 1.539 0 0 0-.672-.138c-.256 0-.486.044-.69.132-.2.084-.364.2-.492.348a.91.91 0 0 0-.222.474H5.678c.044-.364.182-.69.414-.978.236-.288.542-.514.918-.678.38-.164.798-.246 1.254-.246z" fill="#231F20" fill-opacity=".7"/></svg>