<svg width="16" height="16" viewBox="0 0 16 16" fill="none" xmlns="http://www.w3.org/2000/svg">
<g clip-path="url(#clip0_5783_504)">
<path fill-rule="evenodd" clip-rule="evenodd" d="M2.12917 0.0236248C1.23635 0.141221 0.480472 0.739608 0.166881 1.57707C0.126825 1.68401 0.0757783 1.84767 0.0534144 1.94076C0.0148925 2.10107 0.0123424 2.41297 0.00532411 7.85331C-2.4271e-05 11.9893 0.00496303 13.6591 0.0231746 13.8198C0.14199 14.8691 0.878915 15.6892 1.92815 15.9399L2.13258 15.9887H7.98872C13.576 15.9887 13.8537 15.9868 14.0367 15.9475C14.8955 15.7628 15.5801 15.1632 15.8576 14.3529C15.8992 14.2312 15.9443 14.0468 15.9577 13.9431C15.9711 13.8394 15.9912 13.737 16.0023 13.7154C16.0285 13.6648 16.0294 2.24981 16.0032 2.26599C15.9926 2.27256 15.978 2.20969 15.9707 2.12628C15.954 1.93295 15.8625 1.61566 15.7617 1.40152C15.4397 0.717131 14.8499 0.248212 14.0635 0.0511566C13.9245 0.0163357 13.4532 0.0130409 8.09027 0.00933991C4.88801 0.00715091 2.20552 0.0135599 2.12917 0.0236248ZM0.0111013 8C0.0111013 11.1526 0.013719 12.4457 0.0169235 10.8735C0.0201281 9.30126 0.0201281 6.72185 0.0169235 5.14144C0.013719 3.56105 0.0111013 4.84739 0.0111013 8ZM11.4639 2.6175C10.496 2.67227 9.69232 2.95849 8.93653 3.5176C8.84344 3.58648 8.53599 3.8713 8.25329 4.15056L7.73928 4.6583L6.91868 4.57263C6.04768 4.48169 5.96969 4.48095 5.66862 4.56061C5.47222 4.61258 5.31773 4.68723 5.13399 4.81898C4.94459 4.95476 2.81825 7.09436 2.74642 7.22144C2.59518 7.48899 2.57444 7.86994 2.69605 8.14668C2.75735 8.28615 2.88135 8.41442 5.21101 10.7486C7.56333 13.1054 7.66822 13.2072 7.82955 13.2874C7.99415 13.3692 8.00291 13.3709 8.25832 13.3709C8.50769 13.3709 8.52642 13.3676 8.68829 13.2932C8.85159 13.2182 8.89631 13.1769 9.9594 12.1197C10.5654 11.5171 11.1077 10.963 11.1645 10.8886C11.291 10.7227 11.4064 10.4801 11.4563 10.2752C11.5107 10.0517 11.5004 9.7308 11.4133 8.943L11.3378 8.26117L11.7862 7.81465C12.4204 7.18294 12.6382 6.90114 12.9092 6.36152C13.2149 5.75296 13.3415 5.23193 13.3829 4.41171C13.4018 4.03784 13.4 3.92726 13.3723 3.76855C13.2817 3.24944 12.8829 2.8069 12.3667 2.65275C12.211 2.60624 11.8866 2.59358 11.4639 2.6175ZM11.5205 3.36176C10.6466 3.41061 9.88123 3.70455 9.25247 4.23278C9.15938 4.31099 8.04992 5.40897 6.787 6.67274L4.49081 8.97049L5.76052 10.2401L7.03025 11.5096L9.41156 9.12295C11.1785 7.35203 11.8265 6.68856 11.9231 6.55142C12.4086 5.86227 12.6239 5.17391 12.6414 4.25388C12.649 3.8567 12.6215 3.74348 12.4775 3.57994C12.2907 3.36765 12.1182 3.32834 11.5205 3.36176ZM5.93613 5.25899C5.67747 5.31281 5.64692 5.33876 4.50604 6.47436C3.91242 7.06523 3.41229 7.57608 3.39462 7.60959C3.37695 7.64312 3.36248 7.70827 3.36248 7.7544C3.36248 7.83178 3.38563 7.86166 3.66093 8.13969L3.95936 8.44107L5.50014 6.90042C6.34755 6.05307 7.0409 5.35408 7.0409 5.34713C7.0409 5.34018 6.86574 5.31683 6.65162 5.29523C6.08255 5.23786 6.04635 5.23604 5.93613 5.25899ZM9.09903 10.5004L7.55893 12.0406L7.86031 12.3391C8.15506 12.6309 8.1639 12.6375 8.26085 12.6375H8.36001L9.47362 11.5261C10.664 10.3381 10.6888 10.3089 10.7385 10.0408C10.7559 9.94651 10.7504 9.81134 10.7144 9.45557C10.6887 9.20113 10.6613 8.98557 10.6534 8.97656C10.6456 8.96754 9.94609 9.65328 9.09903 10.5004ZM2.85782 10.4131C2.7416 10.4556 2.65252 10.5445 2.621 10.6497C2.58654 10.7647 2.58545 12.4632 2.61973 12.6503C2.68922 13.0296 2.99778 13.3234 3.39083 13.3846C3.47204 13.3973 3.91995 13.4039 4.43507 13.4001C5.29794 13.3938 5.34052 13.3915 5.41601 13.3472C5.64798 13.2109 5.66499 12.8554 5.44641 12.7121C5.38974 12.6749 5.30002 12.6704 4.41914 12.6601L3.45394 12.6488L3.40258 12.5974L3.3512 12.5461L3.33991 11.5779C3.32897 10.638 3.32725 10.6079 3.28113 10.5461C3.18287 10.4143 3.00644 10.3589 2.85782 10.4131Z" fill="#E66D17"/>
<path fill-rule="evenodd" clip-rule="evenodd" d="M11.4639 2.61748C10.496 2.67225 9.69231 2.95847 8.93652 3.51759C8.84343 3.58646 8.53598 3.87128 8.25328 4.15055L7.73927 4.65828L6.91867 4.57262C6.04768 4.48167 5.96968 4.48093 5.66862 4.56059C5.47222 4.61256 5.31772 4.68721 5.13398 4.81896C4.94458 4.95474 2.81825 7.09434 2.74642 7.22142C2.59517 7.48897 2.57443 7.86993 2.69605 8.14667C2.75734 8.28613 2.88135 8.4144 5.211 10.7486C7.56332 13.1054 7.66821 13.2071 7.82954 13.2874C7.99415 13.3692 8.0029 13.3709 8.25832 13.3709C8.50768 13.3709 8.52641 13.3675 8.68828 13.2932C8.85158 13.2182 8.89631 13.1769 9.95939 12.1197C10.5654 11.517 11.1077 10.963 11.1645 10.8886C11.291 10.7227 11.4064 10.4801 11.4563 10.2752C11.5107 10.0517 11.5004 9.73078 11.4132 8.94299L11.3378 8.26115L11.7861 7.81464C12.4204 7.18292 12.6382 6.90113 12.9092 6.3615C13.2149 5.75294 13.3415 5.23191 13.3829 4.41169C13.4018 4.03783 13.4 3.92725 13.3723 3.76853C13.2817 3.24942 12.8829 2.80689 12.3667 2.65273C12.211 2.60622 11.8866 2.59356 11.4639 2.61748ZM11.5204 3.36174C10.6466 3.4106 9.88122 3.70453 9.25246 4.23276C9.15937 4.31098 8.04991 5.40895 6.78699 6.67273L4.4908 8.97047L5.76051 10.24L7.03024 11.5096L9.41156 9.12294C11.1785 7.35201 11.8265 6.68854 11.9231 6.5514C12.4086 5.86225 12.6239 5.17389 12.6414 4.25386C12.649 3.85668 12.6215 3.74346 12.4775 3.57992C12.2907 3.36763 12.1182 3.32832 11.5204 3.36174ZM5.93613 5.25897C5.67746 5.31279 5.64691 5.33874 4.50603 6.47434C3.91241 7.06521 3.41228 7.57606 3.39461 7.60957C3.37694 7.64311 3.36247 7.70826 3.36247 7.75438C3.36247 7.83177 3.38563 7.86164 3.66092 8.13967L3.95935 8.44105L5.50013 6.9004C6.34755 6.05306 7.04089 5.35407 7.04089 5.34712C7.04089 5.34017 6.86573 5.31681 6.65161 5.29521C6.08254 5.23785 6.04634 5.23602 5.93613 5.25897ZM9.09903 10.5004L7.55892 12.0406L7.8603 12.3391C8.15505 12.6309 8.1639 12.6375 8.26084 12.6375H8.36L9.47362 11.5261C10.664 10.3381 10.6888 10.3089 10.7385 10.0408C10.7559 9.9465 10.7504 9.81132 10.7144 9.45555C10.6887 9.20111 10.6613 8.98555 10.6534 8.97654C10.6456 8.96752 9.94608 9.65326 9.09903 10.5004ZM2.85781 10.4131C2.74159 10.4555 2.65252 10.5445 2.62099 10.6497C2.58653 10.7647 2.58545 12.4632 2.61973 12.6503C2.68921 13.0296 2.99777 13.3234 3.39082 13.3846C3.47204 13.3973 3.91995 13.4039 4.43506 13.4001C5.29793 13.3938 5.34052 13.3915 5.416 13.3471C5.64797 13.2109 5.66498 12.8554 5.4464 12.7121C5.38973 12.6749 5.30001 12.6704 4.41913 12.6601L3.45394 12.6488L3.40258 12.5974L3.35119 12.546L3.33991 11.5779C3.32896 10.6379 3.32725 10.6078 3.28112 10.546C3.18286 10.4143 3.00643 10.3589 2.85781 10.4131Z" fill="white"/>
</g>
<defs>
<clipPath id="clip0_5783_504">
<rect width="16" height="16" fill="white"/>
</clipPath>
</defs>
</svg>
