<svg width="16" height="16" viewBox="0 0 16 16" fill="none" xmlns="http://www.w3.org/2000/svg"><g clip-path="url(#clip0_5891_1657)"><path d="M14 0H2a2 2 0 0 0-2 2v12a2 2 0 0 0 2 2h12a2 2 0 0 0 2-2V2a2 2 0 0 0-2-2z" fill="#C77D55"/><path d="M8.187 13.164a.712.712 0 0 0 1-.01l1.946-1.945c.3-.3.45-.71.4-1.13l-.376-1.723-3.889 3.889.92.919zM2.5 11.5v2h2M2.797 7.773a.672.672 0 0 1 .01-.967l1.962-1.961c.3-.3.71-.45 1.13-.4l1.723.375-3.89 3.89-.935-.937z" stroke="#fff" stroke-linecap="round" stroke-linejoin="round"/><path d="M11.832 2.47c-1.12.04-2.275.415-3.075 1.205-1.676 1.676-3.355 3.35-5.03 5.03l3.541 3.54c1.673-1.673 3.352-3.341 5.015-5.025.79-.8 1.15-1.96 1.19-3.09l.02-.49c.02-.67-.52-1.22-1.19-1.19l-.47.02z" stroke="#fff" stroke-linecap="round" stroke-linejoin="round"/></g><defs><clipPath id="clip0_5891_1657"><path fill="#fff" d="M0 0h16v16H0z"/></clipPath></defs></svg>