<svg width="16" height="16" viewBox="0 0 16 16" fill="none" xmlns="http://www.w3.org/2000/svg">
<g clip-path="url(#clip0_5783_505)">
<path fill-rule="evenodd" clip-rule="evenodd" d="M2.03418 0.0428174C1.07081 0.205946 0.257151 0.979768 0.0595669 1.9208C0.00990357 2.15735 0.0012699 3.05276 0.000675844 8.02337C4.21811e-05 13.6546 0.00253723 13.8587 0.0766362 14.1483C0.306498 15.0471 0.952874 15.6935 1.85173 15.9234C2.14131 15.9975 2.34539 16 7.97664 15.9993C14.4151 15.9985 14.077 16.0116 14.6365 15.7425C14.9782 15.5781 15.3684 15.2334 15.5892 14.9008C15.7583 14.6459 15.9588 14.1061 15.9605 13.901C15.9613 13.7968 15.9711 13.7772 16 13.8218C16.0249 13.8603 16.0376 11.8036 16.0362 7.9802C16.035 4.6524 16.0192 2.11375 16 2.15842C15.9709 2.22606 15.9655 2.21985 15.9632 2.11612C15.9617 2.04927 15.932 1.89779 15.8972 1.77949C15.6662 0.99355 15.0457 0.370501 14.2178 0.0930748C14.0104 0.0235699 13.7192 0.0197679 8.11881 0.0142234C4.88416 0.0110154 2.14606 0.0238867 2.03418 0.0428174ZM3.05961 3.01981C2.0562 4.02127 1.73058 4.36983 1.69988 4.47525C1.67319 4.56694 1.66353 6.21862 1.67137 9.35553L1.68317 14.0972L1.79299 14.207L1.90277 14.3168L7.8722 14.3282C11.1554 14.3345 13.9015 14.3289 13.9747 14.3157C14.048 14.3025 14.1504 14.2492 14.2025 14.1972L14.297 14.1026V8.00001V1.89739L14.1998 1.8002L14.1026 1.70298H9.24079H4.37897L3.05961 3.01981ZM0.0192897 8.01981C0.0192897 11.2654 0.023963 12.5872 0.0297055 10.9573C0.0354085 9.32737 0.0354085 6.67193 0.0297055 5.05632C0.023963 3.44068 0.0192897 4.77426 0.0192897 8.01981ZM5.42575 3.8046C5.42575 5.18048 5.41767 5.26218 5.27077 5.37498C5.22416 5.41074 4.84681 5.42357 3.81188 5.42448L2.41584 5.42575V9.50496V13.5842H7.9802H13.5446V8.01981V2.45545H9.48515H5.42575V3.8046ZM3.56436 3.58416L2.4758 4.67327H3.57454H4.67327V3.58416C4.67327 2.98515 4.66868 2.49505 4.66309 2.49505C4.65751 2.49505 4.16305 2.98515 3.56436 3.58416ZM10.2474 3.42048C9.92891 3.53925 9.65644 3.8261 9.56103 4.14313C9.43121 4.57438 9.52868 4.97937 9.83624 5.28694C10.0981 5.54888 10.3512 5.64191 10.7281 5.61486C11.338 5.57105 11.76 5.11359 11.7611 4.49505C11.7619 4.04448 11.5428 3.67715 11.1538 3.47707C10.9459 3.3701 10.4634 3.33997 10.2474 3.42048ZM10.3881 4.07529C10.1471 4.22662 10.0744 4.50804 10.2162 4.74064C10.3676 4.98892 10.6604 5.05759 10.8946 4.89981C11.0584 4.78939 11.1274 4.66096 11.1281 4.46476C11.1295 4.11977 10.6876 3.88721 10.3881 4.07529ZM11.7012 5.28535C11.4044 5.58206 11.8037 6.0385 12.1333 5.77929C12.2175 5.71307 12.2376 5.66393 12.2376 5.52476C12.2376 5.38559 12.2175 5.33644 12.1333 5.27022C11.992 5.15909 11.8214 5.16507 11.7012 5.28535ZM12.206 5.98131C12.0901 6.08927 12.0608 6.22809 12.1255 6.36306C12.2796 6.68456 12.7525 6.5886 12.7525 6.23585C12.7525 5.95117 12.4097 5.79153 12.206 5.98131ZM11.6901 6.70551C11.4906 6.91783 11.6385 7.24753 11.9332 7.24753C12.1312 7.24753 12.2376 7.1368 12.2376 6.9307C12.2376 6.72226 12.1316 6.61387 11.9277 6.61387C11.8205 6.61387 11.751 6.64068 11.6901 6.70551ZM5.14535 6.89212C4.46709 7.0046 4.07327 7.67604 4.27481 8.37624C4.3562 8.65886 4.69957 8.99917 4.99062 9.08559C5.416 9.21193 5.79814 9.12907 6.10222 8.84464C6.36971 8.59446 6.472 8.36682 6.47283 8.01981C6.47466 7.28812 5.86749 6.77236 5.14535 6.89212ZM10.4499 6.89446C9.68123 7.01343 9.26776 7.87731 9.652 8.56139C10.0965 9.35268 11.2456 9.3202 11.669 8.50444C11.7674 8.31482 11.7867 7.8562 11.7065 7.61466C11.5383 7.10828 11.0131 6.80725 10.4499 6.89446ZM5.23596 7.5166C5.1057 7.53684 4.88745 7.77066 4.85707 7.92254C4.83945 8.01062 4.85343 8.09692 4.90072 8.19185C5.10448 8.60096 5.59169 8.59545 5.79719 8.18171C5.85976 8.05573 5.8646 8.00848 5.82757 7.88484C5.75149 7.63098 5.50151 7.47537 5.23596 7.5166ZM10.3448 7.62298C10.1011 7.82804 10.0823 8.13557 10.3001 8.35339C10.4495 8.50282 10.6338 8.54068 10.8244 8.46104C11.1907 8.30801 11.2268 7.7688 10.8836 7.57834C10.727 7.49145 10.4765 7.5122 10.3448 7.62298ZM6.77517 7.78753C6.59212 8.02024 6.736 8.32476 7.02899 8.32476C7.28745 8.32476 7.43133 8.08214 7.31089 7.84927C7.24214 7.71628 7.1781 7.68317 6.98974 7.68317C6.89378 7.68317 6.83462 7.71193 6.77517 7.78753ZM7.79153 7.73268C7.69636 7.80496 7.64408 7.97593 7.67771 8.10515C7.73727 8.33422 8.12495 8.40345 8.26733 8.21042C8.3505 8.09763 8.3284 7.86626 8.22519 7.76927C8.1219 7.67228 7.89616 7.65323 7.79153 7.73268ZM8.73089 7.7804C8.5246 7.98666 8.67331 8.32476 8.9703 8.32476C9.08971 8.32476 9.14709 8.30024 9.21648 8.21957C9.40693 7.99818 9.26238 7.68317 8.9703 7.68317C8.87212 7.68317 8.79798 7.71327 8.73089 7.7804ZM3.89026 8.77898C3.82329 8.80595 3.72277 9.0046 3.72277 9.10999C3.72277 9.22975 3.93173 9.42575 4.05941 9.42575C4.20887 9.42575 4.39604 9.22824 4.39604 9.07054C4.39604 8.84004 4.12575 8.68424 3.89026 8.77898ZM3.32674 9.54456C3.27394 9.59735 3.24753 9.67656 3.24753 9.78218C3.24753 9.9928 3.35323 10.099 3.56281 10.099C3.76741 10.099 3.88119 9.98309 3.88119 9.7747C3.88119 9.57141 3.77256 9.46535 3.56436 9.46535C3.45874 9.46535 3.37953 9.49177 3.32674 9.54456ZM3.83854 10.2544C3.70951 10.3834 3.69477 10.4844 3.78072 10.6506C3.8802 10.843 4.13858 10.8749 4.29881 10.7147C4.51145 10.5021 4.34476 10.1386 4.0347 10.1386C3.9905 10.1386 3.90222 10.1907 3.83854 10.2544ZM4.98456 10.4359C4.74753 10.512 4.42998 10.7984 4.31565 11.0392C4.19018 11.3034 4.18963 11.7061 4.3143 11.9898C4.41695 12.2235 4.64171 12.4468 4.88567 12.5575C5.13204 12.6694 5.58487 12.6607 5.84159 12.5391C6.69485 12.1351 6.68416 10.871 5.8242 10.4845C5.59561 10.3818 5.22087 10.3601 4.98456 10.4359ZM10.2655 10.4488C9.98808 10.5479 9.79664 10.7086 9.65295 10.9629C9.33192 11.5312 9.56658 12.2635 10.1584 12.5403C10.4492 12.6763 10.8784 12.6717 11.1636 12.5296C11.4144 12.4046 11.6488 12.1256 11.7216 11.8655C11.7858 11.6363 11.758 11.1929 11.6686 11.02C11.4044 10.5092 10.7931 10.2602 10.2655 10.4488ZM5.15133 11.0777C4.96258 11.1762 4.86048 11.3296 4.86048 11.5148C4.86048 11.8004 5.07466 12 5.38115 12C5.58095 12 5.76333 11.8543 5.82618 11.6445C5.86483 11.5155 5.86052 11.4706 5.79719 11.3431C5.65802 11.0629 5.39042 10.9529 5.15133 11.0777ZM10.4183 11.0823C10.2728 11.1603 10.1386 11.3684 10.1386 11.5162C10.1386 11.6434 10.2359 11.8189 10.361 11.9173C10.4816 12.0122 10.7392 12.0265 10.8836 11.9464C11.2228 11.7582 11.1911 11.2169 10.8321 11.0669C10.6535 10.9923 10.581 10.995 10.4183 11.0823ZM6.9307 11.1973C6.7962 11.2442 6.69307 11.3815 6.69307 11.5137C6.69307 11.8526 7.15652 11.974 7.31089 11.6755C7.38064 11.5406 7.35596 11.3642 7.25517 11.2768C7.17569 11.2078 7.01406 11.1682 6.9307 11.1973ZM7.86 11.206C7.6962 11.2724 7.6246 11.4585 7.69034 11.6471C7.80424 11.9739 8.31683 11.8777 8.31683 11.5295C8.31683 11.3511 8.26064 11.2633 8.11374 11.2121C7.9703 11.1621 7.96848 11.162 7.86 11.206ZM8.84582 11.2086C8.63073 11.2929 8.56868 11.5822 8.73089 11.7444C8.92713 11.9406 9.24848 11.8359 9.2924 11.5614C9.3105 11.4484 9.29628 11.3992 9.22186 11.3178C9.11612 11.202 8.9705 11.1597 8.84582 11.2086Z" fill="#E55765"/>
<path fill-rule="evenodd" clip-rule="evenodd" d="M3.05961 3.01977C2.0562 4.02124 1.73058 4.36979 1.69989 4.47522C1.67319 4.5669 1.66353 6.21859 1.67137 9.3555L1.68317 14.0972L1.793 14.207L1.90278 14.3168L7.8722 14.3282C11.1554 14.3345 13.9015 14.3288 13.9747 14.3157C14.048 14.3025 14.1504 14.2492 14.2025 14.1972L14.297 14.1026V7.99997V1.89736L14.1998 1.80017L14.1026 1.70294H9.2408H4.37898L3.05961 3.01977ZM5.42575 3.80457C5.42575 5.18045 5.41767 5.26215 5.27078 5.37494C5.22416 5.4107 4.84682 5.42354 3.81189 5.42445L2.41585 5.42571V9.50492V13.5841H7.9802H13.5446V8.01977V2.45542H9.48515H5.42575V3.80457ZM3.56436 3.58413L2.47581 4.67324H3.57454H4.67327V3.58413C4.67327 2.98512 4.66868 2.49502 4.66309 2.49502C4.65751 2.49502 4.16305 2.98512 3.56436 3.58413ZM10.2474 3.42045C9.92892 3.53922 9.65644 3.82607 9.56103 4.1431C9.43121 4.57435 9.52868 4.97934 9.83624 5.2869C10.0981 5.54884 10.3512 5.64187 10.7281 5.61482C11.338 5.57102 11.76 5.11356 11.7611 4.49502C11.7619 4.04445 11.5428 3.67712 11.1538 3.47704C10.9459 3.37007 10.4634 3.33993 10.2474 3.42045ZM10.3881 4.07526C10.1471 4.22659 10.0744 4.50801 10.2162 4.74061C10.3676 4.98888 10.6604 5.05756 10.8946 4.89977C11.0584 4.78936 11.1274 4.66092 11.1281 4.46472C11.1295 4.11973 10.6876 3.88718 10.3881 4.07526ZM11.7012 5.28532C11.4044 5.58203 11.8037 6.03847 12.1333 5.77926C12.2175 5.71304 12.2376 5.66389 12.2376 5.52472C12.2376 5.38556 12.2175 5.33641 12.1333 5.27019C11.992 5.15906 11.8214 5.16504 11.7012 5.28532ZM12.206 5.98128C12.0901 6.08924 12.0608 6.22805 12.1255 6.36302C12.2796 6.68453 12.7525 6.58857 12.7525 6.23581C12.7525 5.95114 12.4097 5.7915 12.206 5.98128ZM11.6901 6.70548C11.4906 6.91779 11.6385 7.2475 11.9332 7.2475C12.1313 7.2475 12.2376 7.13676 12.2376 6.93066C12.2376 6.72223 12.1316 6.61383 11.9277 6.61383C11.8205 6.61383 11.751 6.64064 11.6901 6.70548ZM5.14535 6.89209C4.46709 7.00457 4.07327 7.67601 4.27482 8.37621C4.3562 8.65882 4.69957 8.99914 4.99062 9.08556C5.41601 9.21189 5.79814 9.12904 6.10222 8.8446C6.36971 8.59443 6.472 8.36678 6.47284 8.01977C6.47466 7.28809 5.86749 6.77233 5.14535 6.89209ZM10.4499 6.89443C9.68123 7.0134 9.26777 7.87728 9.652 8.56136C10.0965 9.35264 11.2456 9.32017 11.669 8.50441C11.7674 8.31478 11.7867 7.85617 11.7065 7.61462C11.5383 7.10825 11.0131 6.80722 10.4499 6.89443ZM5.23597 7.51657C5.10571 7.5368 4.88745 7.77063 4.85707 7.92251C4.83945 8.01059 4.85343 8.09688 4.90072 8.19181C5.10448 8.60092 5.59169 8.59542 5.79719 8.18167C5.85977 8.05569 5.8646 8.00845 5.82757 7.8848C5.75149 7.63094 5.50151 7.47534 5.23597 7.51657ZM10.3448 7.62294C10.1011 7.82801 10.0823 8.13554 10.3001 8.35336C10.4495 8.50278 10.6338 8.54065 10.8244 8.461C11.1907 8.30797 11.2268 7.76876 10.8836 7.57831C10.727 7.49142 10.4765 7.51217 10.3448 7.62294ZM6.77517 7.7875C6.59212 8.02021 6.736 8.32472 7.029 8.32472C7.28745 8.32472 7.43133 8.08211 7.3109 7.84924C7.24214 7.71625 7.1781 7.68314 6.98975 7.68314C6.89379 7.68314 6.83462 7.71189 6.77517 7.7875ZM7.79153 7.73264C7.69636 7.80492 7.64408 7.97589 7.67771 8.10512C7.73727 8.33419 8.12496 8.40342 8.26733 8.21039C8.3505 8.0976 8.3284 7.86623 8.22519 7.76924C8.12191 7.67225 7.89616 7.6532 7.79153 7.73264ZM8.7309 7.78037C8.5246 7.98663 8.67331 8.32472 8.9703 8.32472C9.08971 8.32472 9.14709 8.30021 9.21648 8.21954C9.40694 7.99815 9.26238 7.68314 8.9703 7.68314C8.87212 7.68314 8.79799 7.71324 8.7309 7.78037ZM3.89026 8.77894C3.82329 8.80591 3.72278 9.00457 3.72278 9.10995C3.72278 9.22971 3.93173 9.42571 4.05941 9.42571C4.20888 9.42571 4.39604 9.22821 4.39604 9.07051C4.39604 8.84001 4.12575 8.68421 3.89026 8.77894ZM3.32674 9.54453C3.27395 9.59732 3.24753 9.67653 3.24753 9.78215C3.24753 9.99276 3.35323 10.099 3.56282 10.099C3.76741 10.099 3.88119 9.98306 3.88119 9.77466C3.88119 9.57138 3.77256 9.46532 3.56436 9.46532C3.45874 9.46532 3.37953 9.49173 3.32674 9.54453ZM3.83854 10.2543C3.70951 10.3834 3.69478 10.4844 3.78072 10.6506C3.8802 10.8429 4.13858 10.8749 4.29882 10.7146C4.51145 10.502 4.34476 10.1386 4.0347 10.1386C3.9905 10.1386 3.90222 10.1907 3.83854 10.2543ZM4.98456 10.4359C4.74753 10.512 4.42999 10.7983 4.31565 11.0391C4.19018 11.3034 4.18963 11.7061 4.3143 11.9898C4.41696 12.2234 4.64171 12.4467 4.88567 12.5575C5.13204 12.6694 5.58488 12.6606 5.84159 12.5391C6.69486 12.135 6.68416 10.8709 5.8242 10.4845C5.59561 10.3818 5.22088 10.3601 4.98456 10.4359ZM10.2655 10.4487C9.98808 10.5479 9.79664 10.7086 9.65296 10.9629C9.33193 11.5311 9.56658 12.2634 10.1584 12.5402C10.4492 12.6762 10.8784 12.6717 11.1636 12.5296C11.4144 12.4046 11.6488 12.1256 11.7216 11.8654C11.7858 11.6362 11.758 11.1928 11.6686 11.02C11.4044 10.5091 10.7931 10.2602 10.2655 10.4487ZM5.15133 11.0776C4.96258 11.1761 4.86048 11.3296 4.86048 11.5147C4.86048 11.8004 5.07466 12 5.38115 12C5.58096 12 5.76333 11.8543 5.82618 11.6445C5.86484 11.5155 5.86052 11.4705 5.79719 11.343C5.65802 11.0628 5.39042 10.9529 5.15133 11.0776ZM10.4183 11.0822C10.2728 11.1603 10.1386 11.3684 10.1386 11.5162C10.1386 11.6434 10.2359 11.8189 10.361 11.9173C10.4816 12.0122 10.7392 12.0265 10.8836 11.9464C11.2228 11.7582 11.1911 11.2169 10.8321 11.0669C10.6535 10.9922 10.581 10.9949 10.4183 11.0822ZM6.9307 11.1972C6.7962 11.2442 6.69307 11.3815 6.69307 11.5136C6.69307 11.8526 7.15652 11.974 7.3109 11.6755C7.38064 11.5406 7.35597 11.3642 7.25517 11.2767C7.17569 11.2077 7.01406 11.1682 6.9307 11.1972ZM7.86 11.206C7.6962 11.2724 7.6246 11.4585 7.69034 11.6471C7.80424 11.9739 8.31684 11.8776 8.31684 11.5295C8.31684 11.3511 8.26064 11.2633 8.11375 11.2121C7.9703 11.162 7.96848 11.162 7.86 11.206ZM8.84583 11.2085C8.63074 11.2929 8.56868 11.5822 8.7309 11.7443C8.92713 11.9406 9.24848 11.8359 9.2924 11.5614C9.3105 11.4483 9.29628 11.3992 9.22187 11.3178C9.11612 11.202 8.9705 11.1597 8.84583 11.2085Z" fill="white"/>
</g>
<defs>
<clipPath id="clip0_5783_505">
<rect width="16" height="16" fill="white"/>
</clipPath>
</defs>
</svg>
