<svg width="17" height="16" viewBox="0 0 17 16" fill="none" xmlns="http://www.w3.org/2000/svg"><g clip-path="url(#clip0_5891_1649)"><path d="M14.042 0h-12a2 2 0 0 0-2 2v12a2 2 0 0 0 2 2h12a2 2 0 0 0 2-2V2a2 2 0 0 0-2-2z" fill="#57965C"/></g><g filter="url(#filter0_d_5891_1649)"><path d="M4.542 3.5l1.5-1.5v1.5l1-.5-.5 2" fill="#F86932"/><path d="M12.322 5.855c.212-.41.316-1.71.289-2.243L6.93 5.987 5.625 7.863l.889 1.158 5.808-3.166z" fill="#F5BD14"/><path d="M3.987 3C1.936 3 1.042 4.9 1.042 6.034 1.042 9.774 4.139 14 9.126 14c3.486 0 5.444-2.078 5.444-2.078-1.695.203-3.238-.342-3.832-.673 2.202-1.128 3.946-3.3 4.304-6.332L6.257 7.95C7.78 6.155 6.61 3 3.987 3z" fill="#FFCC32"/><circle cx="4.542" cy="4.5" r=".5" fill="#444"/></g><defs><filter id="filter0_d_5891_1649" x="0" y="1.375" width="16.083" height="14.083" filterUnits="userSpaceOnUse" color-interpolation-filters="sRGB"><feFlood flood-opacity="0" result="BackgroundImageFix"/><feColorMatrix in="SourceAlpha" values="0 0 0 0 0 0 0 0 0 0 0 0 0 0 0 0 0 0 127 0" result="hardAlpha"/><feOffset dy=".417"/><feGaussianBlur stdDeviation=".521"/><feComposite in2="hardAlpha" operator="out"/><feColorMatrix values="0 0 0 0 0 0 0 0 0 0 0 0 0 0 0 0 0 0 0.25 0"/><feBlend in2="BackgroundImageFix" result="effect1_dropShadow_5891_1649"/><feBlend in="SourceGraphic" in2="effect1_dropShadow_5891_1649" result="shape"/></filter><clipPath id="clip0_5891_1649"><path fill="#fff" transform="translate(.042)" d="M0 0h16v16H0z"/></clipPath></defs></svg>