<svg width="16" height="16" viewBox="0 0 16 16" fill="none" xmlns="http://www.w3.org/2000/svg">
<g clip-path="url(#clip0_5783_513)">
<path fill-rule="evenodd" clip-rule="evenodd" d="M1.82457 0.0661398C1.12422 0.257858 0.574715 0.710219 0.261978 1.3525C-0.016689 1.92488 1.27627e-05 1.50104 1.27627e-05 8C1.27627e-05 14.4949 -0.0168293 14.0672 0.261837 14.6461C0.535662 15.215 1.06264 15.6821 1.65914 15.8846L1.94738 15.9824L7.89475 15.9922C14.5791 16.0033 14.09 16.0218 14.6604 15.7357C15.3351 15.3972 15.8176 14.7521 15.9436 14.0202C15.9663 13.8887 15.9961 13.7924 16.0099 13.8063C16.0238 13.8202 16.0333 11.1902 16.031 7.96191C16.0288 4.7336 16.0185 2.12395 16.0082 2.16263C15.9967 2.20543 15.9723 2.13657 15.9459 1.98681C15.8853 1.64321 15.7765 1.37533 15.5753 1.07372C15.2722 0.619564 14.8634 0.304733 14.333 0.116883L14.0526 0.0175771L8.05265 0.0106496C2.40226 0.00410898 2.03935 0.00734414 1.82457 0.0661398ZM3.07833 2.98021C2.36654 3.691 1.7617 4.31525 1.73422 4.36747C1.69166 4.44831 1.68422 5.17471 1.68422 9.24891C1.68422 12.7049 1.6951 14.0568 1.72342 14.1122C1.74496 14.1544 1.79629 14.2163 1.83745 14.2498C1.9077 14.3068 2.28352 14.3106 7.97205 14.3113C12.4303 14.3119 14.055 14.3015 14.1195 14.272C14.3278 14.1769 14.3158 14.5612 14.3158 8C14.3158 1.43876 14.3278 1.82308 14.1195 1.72796C14.0553 1.69863 12.739 1.68791 9.20212 1.68791H4.37243L3.07833 2.98021ZM0.0171356 8C0.0171356 11.2299 0.0212759 12.546 0.0263286 10.9247C0.0313812 9.30338 0.0313812 6.66074 0.0263286 5.05216C0.0212759 3.44358 0.0171356 4.7701 0.0171356 8ZM5.40352 3.81809V5.20981L5.30096 5.31259L5.1984 5.41538H3.80973H2.42107V9.4945V13.5736H8.00001H13.579V8V2.42637H9.49124H5.40352V3.81809ZM3.56142 3.58681L2.47412 4.67692H3.5704H4.66668V3.58681C4.66668 2.98725 4.66264 2.4967 4.6577 2.4967C4.65275 2.4967 4.15942 2.98725 3.56142 3.58681ZM6.86443 4.80478C6.77208 4.89737 6.77194 4.89828 6.77194 5.47052V6.04349L6.20759 6.05471L5.64321 6.06593L5.54093 6.18078L5.43861 6.29563V6.84012V7.38461H4.89138C4.29773 7.38461 4.18665 7.41313 4.10826 7.58547C4.03043 7.75669 4.09857 8.00903 4.2437 8.08685C4.28194 8.10739 4.55538 8.12307 4.87489 8.12307H5.43861V8.63296V9.14285H4.893C4.29647 9.14285 4.18738 9.16972 4.11212 9.33527C4.05882 9.45244 4.05882 9.57172 4.11212 9.68889C4.18738 9.85445 4.29647 9.88131 4.893 9.88131H5.43861V10.4258V10.9703L5.54093 11.0851L5.64321 11.2L6.20759 11.2112L6.77194 11.2224V11.7954C6.77194 12.362 6.77296 12.3694 6.86096 12.4577C6.97749 12.5744 7.087 12.5989 7.25166 12.5451C7.47075 12.4733 7.50868 12.354 7.50872 11.7363L7.50879 11.2176H8.00001H8.49124V11.7468C8.49124 12.3438 8.52307 12.4569 8.71286 12.535C8.87279 12.6007 9.03717 12.5648 9.14065 12.4416C9.2258 12.3402 9.22808 12.3229 9.22808 11.7799V11.2224L9.79244 11.2112L10.3568 11.2L10.4591 11.0851L10.5614 10.9703V10.4258V9.88131H11.1263H11.6912L11.8105 9.76175C11.9435 9.62855 11.9654 9.48965 11.8798 9.32378C11.7989 9.16694 11.6956 9.14285 11.1036 9.14285H10.5614V8.63296V8.12307H11.107C11.7036 8.12307 11.8126 8.09621 11.8879 7.93065C11.9636 7.76429 11.9399 7.63379 11.8105 7.50417L11.6912 7.38461H11.1263H10.5614V6.84012V6.29563L10.4591 6.18078L10.3568 6.06593L9.79244 6.05404L9.22808 6.04216V5.48532C9.22808 4.93756 9.22661 4.92669 9.13724 4.82028C9.06072 4.72914 9.02166 4.71208 8.88931 4.71208C8.54296 4.71208 8.49124 4.81691 8.49124 5.51912V6.04835H8.00001H7.50879L7.50858 5.56483C7.50829 4.8423 7.44893 4.71208 7.1198 4.71208C6.99065 4.71208 6.9378 4.73125 6.86443 4.80478ZM6.17545 8.63296V10.4791H8.00001H9.82458V8.63296V6.78681H8.00001H6.17545V8.63296Z" fill="#57965C"/>
<path fill-rule="evenodd" clip-rule="evenodd" d="M3.07831 2.98023C2.36652 3.69102 1.76168 4.31527 1.7342 4.36749C1.69164 4.44833 1.6842 5.17473 1.6842 9.24893C1.6842 12.705 1.69508 14.0568 1.7234 14.1122C1.74494 14.1545 1.79627 14.2163 1.83743 14.2498C1.90768 14.3068 2.2835 14.3106 7.97203 14.3113C12.4302 14.3119 14.0549 14.3015 14.1195 14.2721C14.3278 14.1769 14.3158 14.5612 14.3158 8.00002C14.3158 1.43878 14.3278 1.8231 14.1195 1.72798C14.0553 1.69865 12.739 1.68793 9.2021 1.68793H4.37241L3.07831 2.98023ZM5.4035 3.81811V5.20983L5.30094 5.31261L5.19838 5.4154H3.80971H2.42105V9.49452V13.5736H7.99999H13.5789V8.00002V2.42639H9.49122H5.4035V3.81811ZM3.5614 3.58683L2.4741 4.67694H3.57038H4.66666V3.58683C4.66666 2.98727 4.66263 2.49672 4.65768 2.49672C4.65273 2.49672 4.1594 2.98727 3.5614 3.58683ZM6.86441 4.8048C6.77206 4.89739 6.77192 4.8983 6.77192 5.47054V6.04351L6.20757 6.05473L5.64319 6.06595L5.54091 6.1808L5.43859 6.29565V6.84014V7.38463H4.89136C4.29771 7.38463 4.18663 7.41315 4.10824 7.58549C4.03041 7.75671 4.09856 8.00905 4.24368 8.08687C4.28192 8.10741 4.55536 8.12309 4.87487 8.12309H5.43859V8.63298V9.14287H4.89298C4.29645 9.14287 4.18736 9.16974 4.1121 9.33529C4.0588 9.45246 4.0588 9.57174 4.1121 9.68891C4.18736 9.85447 4.29645 9.88133 4.89298 9.88133H5.43859V10.4258V10.9703L5.54091 11.0852L5.64319 11.2L6.20757 11.2112L6.77192 11.2225V11.7954C6.77192 12.362 6.77294 12.3695 6.86094 12.4577C6.97747 12.5744 7.08698 12.5989 7.25164 12.5451C7.47073 12.4734 7.50866 12.3541 7.5087 11.7363L7.50877 11.2176H7.99999H8.49122V11.7468C8.49122 12.3439 8.52305 12.4569 8.71284 12.535C8.87277 12.6007 9.03715 12.5648 9.14062 12.4417C9.22578 12.3402 9.22806 12.3229 9.22806 11.78V11.2225L9.79242 11.2112L10.3568 11.2L10.4591 11.0852L10.5614 10.9703V10.4258V9.88133H11.1263H11.6912L11.8105 9.76177C11.9434 9.62857 11.9654 9.48967 11.8798 9.3238C11.7989 9.16696 11.6955 9.14287 11.1036 9.14287H10.5614V8.63298V8.12309H11.107C11.7035 8.12309 11.8126 8.09623 11.8879 7.93067C11.9635 7.76431 11.9399 7.63381 11.8105 7.50419L11.6912 7.38463H11.1263H10.5614V6.84014V6.29565L10.4591 6.1808L10.3567 6.06595L9.79242 6.05406L9.22806 6.04218V5.48534C9.22806 4.93758 9.22659 4.92671 9.13722 4.82031C9.0607 4.72916 9.02164 4.7121 8.88929 4.7121C8.54294 4.7121 8.49122 4.81693 8.49122 5.51914V6.04837H7.99999H7.50877L7.50855 5.56485C7.50827 4.84232 7.44891 4.7121 7.11978 4.7121C6.99063 4.7121 6.93778 4.73127 6.86441 4.8048ZM6.17543 8.63298V10.4791H7.99999H9.82456V8.63298V6.78683H7.99999H6.17543V8.63298Z" fill="white"/>
</g>
<defs>
<clipPath id="clip0_5783_513">
<rect width="16" height="16" fill="white"/>
</clipPath>
</defs>
</svg>
