<svg width="16" height="16" viewBox="0 0 16 16" fill="none" xmlns="http://www.w3.org/2000/svg">
<g clip-path="url(#clip0_5783_508)">
<path fill-rule="evenodd" clip-rule="evenodd" d="M2.02036 0.0290542C0.994379 0.189392 0.159878 1.01502 0.00248343 2.02552C-0.0192234 2.16499 -0.0250605 3.79501 -0.0192495 8.10872L-0.0113276 14.0014L0.0605681 14.2303C0.326001 15.0751 0.945806 15.6746 1.79659 15.9094L2.0473 15.9786H7.96261H13.8779L14.1092 15.9198C14.9902 15.6958 15.6526 15.0462 15.8966 14.1675C15.9257 14.0624 15.9496 13.9433 15.9496 13.9028C15.9496 13.8604 15.9606 13.836 15.9756 13.8453C15.993 13.856 16.0011 11.8883 15.9999 7.96066C15.9988 4.64538 15.9882 2.08273 15.9756 2.11197C15.9567 2.15607 15.953 2.15154 15.9514 2.08236C15.9485 1.95215 15.8249 1.55662 15.7215 1.34688C15.4133 0.721217 14.8306 0.253705 14.1227 0.0641501L13.904 0.0055875L8.06685 0.000956609C3.48848 -0.00265965 2.18458 0.00340214 2.02036 0.0290542ZM-0.0115622 7.99164C-0.0115622 11.2398 -0.00851331 12.5724 -0.00481298 10.9531C-0.00111266 9.33374 -0.00111266 6.67618 -0.00481298 5.04738C-0.00851331 3.41861 -0.0115622 4.74351 -0.0115622 7.99164Z" fill="#834DF0"/>
<path fill-rule="evenodd" clip-rule="evenodd" d="M5.50893 4.21231C5.58562 4.24403 5.6812 4.35155 5.71721 4.4466C5.73794 4.50127 5.74711 5.89282 5.74711 8.97989C5.74711 13.8194 5.7559 13.5516 5.5926 13.68C5.51616 13.7401 5.50349 13.7407 4.33204 13.7407C3.17447 13.7407 3.14709 13.7395 3.07432 13.6822C2.90617 13.55 2.91698 13.8737 2.91698 8.97112C2.91698 4.67399 2.9192 4.47479 2.96818 4.38347C3.07415 4.18586 3.07752 4.18536 4.3316 4.18735C4.94831 4.18833 5.4781 4.19956 5.50893 4.21231ZM4.99054 8.96316V12.9842H4.33204H3.67355V8.96316V4.94215H4.33204H4.99054V8.96316ZM9.12913 6.73426C9.17836 6.7643 9.24141 6.82359 9.26924 6.86602C9.3171 6.93909 9.32018 7.11417 9.32724 10.1702C9.33312 12.715 9.32721 13.42 9.29922 13.505C9.27705 13.5722 9.22804 13.6366 9.16853 13.6767L9.07331 13.7407H7.90016H6.72703L6.62234 13.6448L6.51768 13.5489L6.51059 10.2473C6.50356 6.97491 6.50398 6.94484 6.56025 6.8529C6.66423 6.6829 6.69147 6.67945 7.92484 6.67956C8.98034 6.67965 9.04434 6.68256 9.12913 6.73426ZM8.57723 10.2101V12.9842H7.91874H7.26024V10.2101V7.43602H7.91874H8.57723V10.2101ZM12.7141 9.22707C12.9043 9.34305 12.8925 9.19608 12.8925 11.4506C12.8925 13.69 12.8985 13.6087 12.7253 13.6982C12.6556 13.7342 12.4643 13.7407 11.4755 13.7407H10.3079L10.1991 13.632L10.0904 13.5232L10.0905 11.4814C10.0906 9.48282 10.0918 9.43756 10.1471 9.34677C10.2508 9.1768 10.2781 9.17332 11.5115 9.17343C12.5595 9.17352 12.6315 9.17674 12.7141 9.22707ZM12.1359 11.457V12.9842H11.4914H10.8469V11.457V9.92989H11.4914H12.1359V11.457Z" fill="white"/>
<path d="M11.7313 2.33023C11.7644 2.30394 11.8168 2.2773 11.8476 2.27099C12.0044 2.23896 12.1137 2.27124 12.2326 2.3847C12.3169 2.46515 12.3531 2.59576 12.3257 2.72059C12.3159 2.76503 12.0128 3.24834 11.652 3.79461L10.9961 4.78781L11.9263 4.80182C12.5793 4.81166 12.874 4.82592 12.9155 4.84971C13.0417 4.92212 13.1139 5.11608 13.0704 5.26579C13.0567 5.31293 12.6494 5.9497 12.1653 6.68086C11.5226 7.6515 11.2642 8.01967 11.2077 8.04525C11.087 8.09995 10.9288 8.0881 10.8224 8.01639C10.7047 7.93707 10.6577 7.84723 10.6572 7.70051C10.6567 7.56741 10.7009 7.49335 11.4641 6.35038C11.7444 5.93062 11.9737 5.58069 11.9737 5.57279C11.9737 5.56486 11.5824 5.55839 11.1042 5.55839C10.167 5.55839 10.1192 5.552 9.98721 5.40881C9.94223 5.36 9.91601 5.29191 9.90757 5.20205C9.89524 5.0704 9.90118 5.05858 10.2428 4.53562C11.0387 3.31741 11.6747 2.37501 11.7313 2.33023Z" fill="white"/>
</g>
<defs>
<clipPath id="clip0_5783_508">
<rect width="16" height="16" fill="white"/>
</clipPath>
</defs>
</svg>
