<svg width="16" height="16" viewBox="0 0 16 16" fill="none" xmlns="http://www.w3.org/2000/svg"><g clip-path="url(#clip0_5891_1668)"><path d="M14 0H2a2 2 0 0 0-2 2v12a2 2 0 0 0 2 2h12a2 2 0 0 0 2-2V2a2 2 0 0 0-2-2z" fill="#E55765"/><path d="M9.5 6.5l-3 3m0 1h3m4 3.99h-11c-.55 0-1-.45-1-1V5.5l4-4h8c.55 0 1 .45 1 1v10.99c0 .55-.45 1-1 1z" stroke="#fff" stroke-linecap="round" stroke-linejoin="round"/><path d="M10.5 11.5a1 1 0 1 0 0-2 1 1 0 0 0 0 2zM5.5 11.5a1 1 0 1 0 0-2 1 1 0 0 0 0 2z" stroke="#fff" stroke-linecap="round" stroke-linejoin="round"/><circle cx="10.5" cy="5.5" r="1" stroke="#fff"/><path d="M1.5 5.5h4v-4" stroke="#fff" stroke-linejoin="round"/></g><defs><clipPath id="clip0_5891_1668"><path fill="#fff" d="M0 0h16v16H0z"/></clipPath></defs></svg>