<svg width="16" height="16" viewBox="0 0 16 16" fill="none" xmlns="http://www.w3.org/2000/svg">
<g clip-path="url(#clip0_5783_512)">
<path fill-rule="evenodd" clip-rule="evenodd" d="M2.01435 0.0242611C1.81885 0.0570198 1.53502 0.156501 1.31479 0.269461C0.67044 0.599949 0.208691 1.21125 0.0519 1.9414C0.0130365 2.1224 0.0111646 2.39904 0.0111646 7.98882C0.0111646 12.904 0.0161562 13.8717 0.0421841 14.0028C0.250853 15.0535 1.06683 15.8258 2.12816 15.9769C2.34683 16.008 13.6077 16.0081 13.8556 15.977C14.7777 15.8612 15.5714 15.2129 15.8626 14.3375C15.9271 14.1438 15.9773 13.8808 15.9807 13.7192C15.9832 13.5992 15.986 13.5901 16 13.6569C16.009 13.6998 16.0162 11.1392 16.016 7.96651C16.0158 4.79385 16.0086 2.24322 16 2.29845L15.9844 2.39887L15.9811 2.27301C15.9793 2.20381 15.9626 2.06713 15.944 1.9693C15.7594 0.994548 14.9867 0.219028 14.0165 0.0347269C13.8535 0.00377573 13.1932 0.000272237 7.98086 0.00259302C4.76187 0.00402119 2.07695 0.0137729 2.01435 0.0242611ZM2.44013 1.75659C2.37061 1.77351 2.25408 1.87015 2.21727 1.94145C2.18788 1.99835 2.18387 2.60649 2.18387 7.00254V11.999L2.23418 12.0748C2.31918 12.2028 2.44684 12.251 2.70113 12.251H2.91924L2.91973 13.0934C2.92029 14.0358 2.92419 14.0623 3.0782 14.1723L3.15323 14.2259L5.24972 14.2318L7.34621 14.2378L7.42188 14.1867C7.53297 14.1117 7.59035 14.0123 7.6076 13.8648C7.65168 13.4881 8.0439 13.3465 8.28417 13.6205C8.35742 13.704 8.36593 13.7268 8.38957 13.9024C8.39701 13.9576 8.42683 14.0389 8.45584 14.083C8.5633 14.2463 8.42676 14.2371 10.7285 14.2371C12.7381 14.2371 12.7952 14.2359 12.8789 14.1931C12.9262 14.169 12.9885 14.1112 13.0173 14.0648C13.0696 13.9806 13.0697 13.979 13.0764 13.1182L13.0832 12.2559L13.3216 12.2477C13.5992 12.2381 13.6981 12.1945 13.7723 12.0488C13.8156 11.9639 13.8162 11.8929 13.8158 6.99111L13.8154 2.01951L13.7656 1.93025C13.7327 1.87142 13.6818 1.82387 13.6164 1.79078L13.517 1.74057L8.00087 1.74316C4.96697 1.74458 2.46465 1.75063 2.44013 1.75659ZM0.0109863 7.98882C0.0109863 11.1615 0.0135713 12.4594 0.0167356 10.8731C0.0199 9.28672 0.0199 6.69091 0.0167356 5.10458C0.0135713 3.51824 0.0109863 4.81616 0.0109863 7.98882ZM2.94153 6.9958V11.4923H8.00002H13.0585V6.9958V2.49928H8.00002H2.94153V6.9958ZM5.37941 3.23339C5.33161 3.26896 5.05471 3.53757 4.76406 3.83032C4.19641 4.40212 4.15209 4.46255 4.17941 4.62764C4.19251 4.70675 4.23031 4.75586 4.44909 4.97819L4.70353 5.23676L4.46092 5.70344C4.32749 5.96013 4.20564 6.20899 4.19013 6.25645C4.1428 6.40145 4.16878 6.70762 4.24096 6.85532C4.31242 7.0016 4.48334 7.1693 4.63028 7.23727C4.7327 7.28465 4.76134 7.28605 5.74933 7.29212L6.76325 7.29833L7.28693 7.81974C7.57495 8.10651 7.83251 8.35225 7.85928 8.36582C7.9526 8.41313 8.09749 8.39585 8.19167 8.32621C8.23947 8.29084 8.52842 8.00967 8.83381 7.70138L9.38901 7.14085H10.2554H11.1218L11.1765 7.19563C11.2066 7.22576 11.2312 7.2744 11.2312 7.30375C11.2312 7.33311 11.1331 7.55964 11.0132 7.80713L10.7951 8.25716L10.708 8.16781C10.5868 8.0435 10.4654 7.99962 10.3376 8.0339C10.2525 8.05671 10.1702 8.12921 9.7149 8.58239L9.19022 9.10458H7.9877H6.78518L6.26168 8.57969C5.84468 8.16159 5.72118 8.05019 5.65462 8.03212C5.48033 7.98479 5.45411 8.00411 4.79835 8.66326C4.28136 9.18291 4.19057 9.28398 4.17776 9.35418C4.14641 9.52578 4.17738 9.56727 4.81032 10.2017C5.62659 11.0199 5.51842 11.0154 6.27398 10.263L6.80978 9.72941H8.00118H9.19258L9.70494 10.2449C9.98674 10.5285 10.2496 10.7745 10.289 10.7916C10.3808 10.8316 10.4819 10.8314 10.5582 10.791C10.5913 10.7735 10.8867 10.4894 11.2145 10.1596L11.8106 9.56015V9.44248C11.8106 9.37774 11.7995 9.30288 11.7859 9.27605C11.7723 9.24925 11.6501 9.11485 11.5144 8.97739L11.2676 8.72748L11.538 8.17174C11.6867 7.86607 11.8202 7.56885 11.8347 7.51123C11.9257 7.14917 11.7349 6.74817 11.3908 6.57844C11.2872 6.52731 11.2839 6.52716 10.1727 6.521L9.05852 6.51482L8.62398 6.08264C8.38498 5.84496 8.16753 5.63937 8.14077 5.62578C8.07262 5.59121 7.92009 5.59503 7.84849 5.63308C7.8154 5.65068 7.56279 5.89169 7.28711 6.16864L6.78592 6.67223H5.84321H4.9005L4.84582 6.61744C4.81573 6.58732 4.79111 6.53693 4.79111 6.50547C4.79111 6.45046 4.93386 6.14503 5.09691 5.85121L5.17482 5.71082L5.2925 5.82229C5.42371 5.94654 5.48216 5.96894 5.63109 5.95214C5.72992 5.94098 5.74919 5.92447 6.25945 5.41383L6.78587 4.88701H7.9996H9.21333L9.74977 5.42258L10.2862 5.95814H10.4037C10.4682 5.95814 10.543 5.94703 10.5697 5.93346C10.6391 5.89831 11.7402 4.79882 11.7787 4.72634C11.7962 4.69318 11.8106 4.61323 11.8106 4.54862V4.43118L11.191 3.80959C10.6148 3.23147 10.565 3.18711 10.4793 3.17559C10.4286 3.16879 10.3589 3.17019 10.3245 3.17869C10.2835 3.18882 10.0773 3.37821 9.72646 3.72818L9.19104 4.26219H7.99924H6.80747L6.29511 3.74744C6.0133 3.46435 5.75568 3.21833 5.72258 3.20072C5.62017 3.14629 5.47835 3.15979 5.37941 3.23339ZM5.25899 4.25112L4.93633 4.5748L5.25371 4.89259L5.57105 5.21038L5.89426 4.88672L6.21749 4.56306L5.89957 4.24525L5.58164 3.92746L5.25899 4.25112ZM10.1 4.24574L9.78275 4.564L10.1006 4.88172L10.4184 5.19942L10.7357 4.88114L11.0529 4.56288L10.7351 4.24516L10.4173 3.92746L10.1 4.24574ZM7.67104 6.6781L7.35378 6.99636L7.67162 7.31408L7.98944 7.63178L8.312 7.30821L8.63454 6.98464L8.32314 6.67223C8.15189 6.5004 8.00648 6.35981 8.00002 6.35981C7.99358 6.35981 7.84553 6.50303 7.67104 6.6781ZM5.24782 9.1047L4.93636 9.4172L5.25371 9.73499L5.57105 10.0528L5.8884 9.73499L6.20575 9.4172L5.89428 9.1047C5.72296 8.9328 5.57752 8.79217 5.57105 8.79217C5.56459 8.79217 5.41914 8.9328 5.24782 9.1047ZM10.1 9.11045L9.78275 9.42871L10.1006 9.74644L10.4184 10.0641L10.741 9.74057L11.0635 9.417L10.7521 9.10458C10.5809 8.93276 10.4355 8.79217 10.429 8.79217C10.4226 8.79217 10.2745 8.93539 10.1 9.11045ZM3.6769 12.8647V13.4784H3.95545H4.23401V13.2604C4.23401 13.0118 4.26745 12.9206 4.38917 12.8373C4.54217 12.7327 4.72223 12.7446 4.85885 12.8682C4.96461 12.9638 4.99138 13.0498 4.99153 13.2943L4.99167 13.4784H5.26723H5.54282L5.55336 13.2608C5.56544 13.012 5.59701 12.9317 5.71971 12.838C5.78888 12.7851 5.82282 12.7754 5.93874 12.7754C6.05466 12.7754 6.0886 12.7851 6.15777 12.838C6.28365 12.9341 6.30643 12.9979 6.30643 13.2541V13.4784H6.60662H6.90679L6.96602 13.353C6.99857 13.2841 7.08891 13.1601 7.16675 13.0774C7.3951 12.835 7.66523 12.7191 7.99913 12.7202C8.20825 12.7209 8.32613 12.7475 8.51193 12.836C8.7038 12.9275 8.92713 13.1499 9.01562 13.3378L9.0808 13.4761L9.37607 13.4772L9.67133 13.4784L9.67147 13.2943C9.67162 13.0498 9.69838 12.9638 9.80414 12.8682C9.94077 12.7446 10.1208 12.7327 10.2738 12.8373C10.3955 12.9206 10.429 13.0118 10.429 13.2604V13.4784H10.7187H11.0084L11.0087 13.2608C11.0092 12.9954 11.0528 12.8975 11.2069 12.8162C11.3312 12.7505 11.443 12.7503 11.5664 12.8157C11.716 12.8949 11.766 13.0088 11.766 13.2699V13.4784H12.0446H12.3231V12.8647V12.251H8.00002H3.6769V12.8647Z" fill="#57965C"/>
<path fill-rule="evenodd" clip-rule="evenodd" d="M2.44011 1.75662C2.37058 1.77354 2.25406 1.87018 2.21724 1.94148C2.18785 1.99839 2.18384 2.60652 2.18384 7.00257V11.999L2.23416 12.0748C2.31915 12.2029 2.44681 12.2511 2.7011 12.2511H2.91921L2.9197 13.0935C2.92026 14.0358 2.92416 14.0624 3.07817 14.1724L3.1532 14.226L5.24969 14.2319L7.34618 14.2378L7.42185 14.1867C7.53294 14.1117 7.59032 14.0123 7.60757 13.8649C7.65165 13.4881 8.04387 13.3465 8.28414 13.6205C8.35739 13.7041 8.3659 13.7268 8.38954 13.9024C8.39699 13.9576 8.4268 14.0389 8.45582 14.083C8.56327 14.2464 8.42673 14.2371 10.7285 14.2371C12.738 14.2371 12.7951 14.236 12.8789 14.1932C12.9262 14.169 12.9884 14.1113 13.0172 14.0649C13.0695 13.9806 13.0697 13.979 13.0764 13.1182L13.0832 12.2559L13.3215 12.2477C13.5992 12.2381 13.6981 12.1945 13.7723 12.0489C13.8155 11.964 13.8161 11.8929 13.8158 6.99114L13.8154 2.01954L13.7655 1.93028C13.7327 1.87146 13.6818 1.8239 13.6164 1.79081L13.517 1.7406L8.00084 1.74319C4.96695 1.74462 2.46462 1.75066 2.44011 1.75662ZM2.9415 6.99583V11.4923H7.99999H13.0585V6.99583V2.49932H7.99999H2.9415V6.99583ZM5.37938 3.23342C5.33158 3.26899 5.05468 3.5376 4.76403 3.83035C4.19638 4.40216 4.15206 4.46259 4.17938 4.62767C4.19248 4.70678 4.23028 4.7559 4.44906 4.97822L4.7035 5.23679L4.4609 5.70347C4.32746 5.96016 4.20561 6.20902 4.1901 6.25648C4.14277 6.40149 4.16875 6.70765 4.24093 6.85536C4.31239 7.00163 4.48331 7.16933 4.63026 7.2373C4.73267 7.28468 4.76131 7.28608 5.7493 7.29215L6.76323 7.29836L7.2869 7.81978C7.57492 8.10655 7.83248 8.35228 7.85925 8.36585C7.95257 8.41316 8.09746 8.39589 8.19164 8.32624C8.23944 8.29087 8.52839 8.0097 8.83378 7.70142L9.38899 7.14088H10.2554H11.1218L11.1765 7.19566C11.2066 7.22579 11.2312 7.27444 11.2312 7.30378C11.2312 7.33315 11.1331 7.55967 11.0131 7.80717L10.7951 8.2572L10.708 8.16785C10.5867 8.04353 10.4654 7.99966 10.3376 8.03393C10.2525 8.05674 10.1702 8.12924 9.71487 8.58242L9.19019 9.10462H7.98767H6.78515L6.26165 8.57972C5.84465 8.16162 5.72115 8.05022 5.65459 8.03215C5.48031 7.98482 5.45408 8.00414 4.79832 8.66329C4.28133 9.18294 4.19055 9.28401 4.17773 9.35421C4.14638 9.52582 4.17735 9.5673 4.81029 10.2017C5.62656 11.02 5.51839 11.0154 6.27395 10.263L6.80975 9.72944H8.00115H9.19255L9.70491 10.2449C9.98671 10.5285 10.2495 10.7745 10.289 10.7917C10.3808 10.8317 10.4819 10.8314 10.5582 10.791C10.5913 10.7735 10.8866 10.4894 11.2145 10.1597L11.8106 9.56018V9.44251C11.8106 9.37778 11.7995 9.30291 11.7859 9.27609C11.7723 9.24929 11.6501 9.11488 11.5144 8.97742L11.2676 8.72751L11.5379 8.17177C11.6866 7.8661 11.8202 7.56888 11.8346 7.51127C11.9257 7.1492 11.7349 6.7482 11.3908 6.57847C11.2872 6.52735 11.2839 6.52719 10.1727 6.52103L9.05849 6.51485L8.62395 6.08267C8.38495 5.84499 8.1675 5.6394 8.14074 5.62581C8.0726 5.59124 7.92006 5.59506 7.84846 5.63311C7.81537 5.65071 7.56276 5.89172 7.28708 6.16867L6.78589 6.67226H5.84318H4.90047L4.84579 6.61748C4.8157 6.58735 4.79108 6.53696 4.79108 6.5055C4.79108 6.45049 4.93383 6.14506 5.09689 5.85124L5.17479 5.71085L5.29247 5.82232C5.42368 5.94657 5.48213 5.96897 5.63106 5.95217C5.72989 5.94101 5.74916 5.9245 6.25943 5.41386L6.78584 4.88704H7.99957H9.2133L9.74974 5.42261L10.2862 5.95817H10.4036C10.4682 5.95817 10.5429 5.94706 10.5697 5.93349C10.6391 5.89835 11.7402 4.79885 11.7786 4.72637C11.7962 4.69321 11.8106 4.61326 11.8106 4.54866V4.43121L11.191 3.80962C10.6147 3.2315 10.5649 3.18714 10.4792 3.17562C10.4286 3.16882 10.3589 3.17022 10.3245 3.17873C10.2834 3.18886 10.0773 3.37825 9.72643 3.72822L9.19101 4.26222H7.99921H6.80744L6.29508 3.74747C6.01328 3.46438 5.75565 3.21836 5.72256 3.20075C5.62014 3.14632 5.47832 3.15983 5.37938 3.23342ZM5.25896 4.25115L4.93631 4.57483L5.25368 4.89262L5.57102 5.21041L5.89423 4.88675L6.21746 4.56309L5.89954 4.24528L5.58161 3.92749L5.25896 4.25115ZM10.1 4.24577L9.78272 4.56403L10.1006 4.88176L10.4184 5.19946L10.7357 4.88118L11.0529 4.56292L10.7351 4.24519L10.4173 3.92749L10.1 4.24577ZM7.67101 6.67813L7.35375 6.99639L7.67159 7.31411L7.98941 7.63181L8.31197 7.30824L8.63451 6.98467L8.32311 6.67226C8.15186 6.50043 8.00646 6.35985 7.99999 6.35985C7.99355 6.35985 7.8455 6.50307 7.67101 6.67813ZM5.24779 9.10473L4.93633 9.41723L5.25368 9.73502L5.57102 10.0528L5.88837 9.73502L6.20572 9.41723L5.89426 9.10473C5.72294 8.93284 5.57749 8.7922 5.57102 8.7922C5.56456 8.7922 5.41911 8.93284 5.24779 9.10473ZM10.1 9.11049L9.78272 9.42875L10.1006 9.74647L10.4184 10.0642L10.7409 9.7406L11.0635 9.41703L10.7521 9.10462C10.5808 8.93279 10.4354 8.7922 10.429 8.7922C10.4225 8.7922 10.2745 8.93542 10.1 9.11049ZM3.67687 12.8647V13.4784H3.95543H4.23398V13.2605C4.23398 13.0118 4.26743 12.9206 4.38914 12.8374C4.54214 12.7328 4.7222 12.7446 4.85882 12.8682C4.96458 12.9639 4.99135 13.0498 4.9915 13.2943L4.99164 13.4784H5.2672H5.54279L5.55333 13.2608C5.56541 13.012 5.59699 12.9317 5.71968 12.838C5.78885 12.7852 5.82279 12.7755 5.93871 12.7755C6.05463 12.7755 6.08857 12.7852 6.15774 12.838C6.28363 12.9342 6.3064 12.9979 6.3064 13.2541V13.4784H6.60659H6.90676L6.96599 13.3531C6.99855 13.2841 7.08888 13.1601 7.16672 13.0775C7.39507 12.8351 7.6652 12.7191 7.9991 12.7202C8.20822 12.7209 8.3261 12.7475 8.5119 12.8361C8.70377 12.9275 8.9271 13.15 9.01559 13.3378L9.08077 13.4762L9.37604 13.4773L9.6713 13.4784L9.67144 13.2943C9.67159 13.0498 9.69836 12.9639 9.80412 12.8682C9.94074 12.7446 10.1208 12.7328 10.2738 12.8374C10.3955 12.9206 10.429 13.0118 10.429 13.2605V13.4784H10.7187H11.0084L11.0087 13.2608C11.0092 12.9955 11.0528 12.8976 11.2068 12.8162C11.3312 12.7505 11.443 12.7504 11.5663 12.8157C11.7159 12.8949 11.766 13.0088 11.766 13.2699V13.4784H12.0446H12.3231V12.8647V12.2511H7.99999H3.67687V12.8647Z" fill="white"/>
</g>
<defs>
<clipPath id="clip0_5783_512">
<rect width="16" height="16" fill="white"/>
</clipPath>
</defs>
</svg>
