<svg width="16" height="16" viewBox="0 0 16 16" fill="none" xmlns="http://www.w3.org/2000/svg">
<g clip-path="url(#clip0_5783_503)">
<path fill-rule="evenodd" clip-rule="evenodd" d="M2.09294 0.0320394C1.99449 0.0462494 1.80241 0.095048 1.66609 0.140487C0.89652 0.397093 0.311817 1.02646 0.0878174 1.83932L0.0141238 2.10672L0.00577953 7.76593C0.000106552 11.6124 0.00685354 13.5299 0.0267916 13.7523C0.119845 14.79 0.77378 15.5941 1.78183 15.9103L2.02409 15.9862L7.88893 15.9936C13.0439 16 13.7832 15.9958 13.9972 15.9589C14.8619 15.8096 15.5905 15.1874 15.873 14.3569C16.0197 13.9255 16.0138 14.1931 16.0138 7.98624C16.0138 2.52708 16.0111 2.20449 15.964 1.98621C15.7589 1.03486 15.1031 0.336948 14.1687 0.0755231L13.9484 0.0138914L8.11015 0.0100635C4.60381 0.00777779 2.20045 0.0165626 2.09294 0.0320394ZM0.0134904 8.00001C0.0134904 11.0899 0.0167124 12.3498 0.0206504 10.7999C0.0245885 9.24997 0.0245885 6.72191 0.0206504 5.18197C0.0167124 3.64206 0.0134904 4.91017 0.0134904 8.00001ZM2.45356 2.52184C2.40724 2.56081 2.35615 2.63828 2.34007 2.69396C2.31978 2.76424 2.3133 4.40425 2.31892 8.05996L2.32702 13.3247L2.38405 13.4025C2.41542 13.4452 2.48358 13.5019 2.53551 13.5284C2.62446 13.5737 2.94251 13.5765 8.01377 13.5765C13.085 13.5765 13.4031 13.5737 13.492 13.5284C13.687 13.4289 13.7539 13.2068 13.6494 13.0056C13.5527 12.8194 13.9798 12.8331 8.24922 12.8331H3.0568L3.0566 7.75905C3.05644 2.78988 3.05534 2.68336 3.0032 2.60427C2.92935 2.49224 2.84632 2.45308 2.68026 2.45192C2.5665 2.45115 2.52081 2.46525 2.45356 2.52184ZM9.66609 2.81483C9.47489 2.88816 9.21925 3.13802 9.0804 3.38728C8.74894 3.98236 8.57154 4.74521 8.24784 6.96731C7.94335 9.0575 7.80822 9.67299 7.53872 10.1969C7.33667 10.5898 7.17279 10.6207 6.97071 10.3041C6.76139 9.97627 6.59795 9.36747 6.34847 7.98624C6.07152 6.45294 5.84818 5.822 5.46211 5.48217C5.23538 5.2826 4.83998 5.19577 4.65514 5.30496C4.49173 5.40148 4.43613 5.65509 4.54075 5.82666C4.59739 5.91957 4.74682 6.00345 4.85571 6.00345C4.9573 6.00345 5.10631 6.19295 5.2041 6.44652C5.37514 6.89006 5.41042 7.04439 5.74179 8.79864C5.97799 10.0491 6.19974 10.6372 6.56534 10.983C6.79267 11.198 6.9237 11.2496 7.24268 11.2494C7.47293 11.2493 7.5208 11.2405 7.64199 11.1761C8.15958 10.9007 8.45598 10.226 8.74076 8.67471C8.7783 8.47024 8.89076 7.74148 8.9907 7.05524C9.24029 5.34109 9.35198 4.76881 9.54803 4.19967C9.76074 3.58214 9.98179 3.37271 10.2144 3.5684C10.4573 3.77279 10.617 4.39037 10.7546 5.65754C10.8722 6.74094 10.9336 7.24394 10.9901 7.58693C11.1546 8.58488 11.3898 9.29411 11.7226 9.79562C11.8396 9.97178 12.1244 10.2868 12.2066 10.3308C12.2861 10.3733 12.4852 10.365 12.5817 10.3151C12.798 10.2032 12.8104 9.82096 12.6021 9.68447C12.498 9.61626 12.2955 9.31595 12.1599 9.02864C11.8731 8.42124 11.7172 7.65101 11.539 5.96215C11.4315 4.94349 11.3646 4.48599 11.2664 4.09731C11.0754 3.34071 10.7814 2.92451 10.347 2.7955C10.1459 2.73576 9.85041 2.74416 9.66609 2.81483Z" fill="#E66D17"/>
<path fill-rule="evenodd" clip-rule="evenodd" d="M2.45356 2.52185C2.40724 2.56082 2.35616 2.63829 2.34007 2.69397C2.31978 2.76425 2.3133 4.40426 2.31892 8.05997L2.32702 13.3247L2.38405 13.4025C2.41542 13.4453 2.48358 13.5019 2.53551 13.5284C2.62446 13.5737 2.94251 13.5765 8.01377 13.5765C13.085 13.5765 13.4031 13.5737 13.492 13.5284C13.687 13.429 13.7539 13.2069 13.6494 13.0057C13.5527 12.8194 13.9798 12.8331 8.24922 12.8331H3.0568L3.0566 7.75906C3.05644 2.78989 3.05534 2.68337 3.00321 2.60428C2.92935 2.49225 2.84632 2.45309 2.68026 2.45193C2.5665 2.45116 2.52081 2.46526 2.45356 2.52185ZM9.66609 2.81484C9.47489 2.88817 9.21925 3.13803 9.0804 3.38729C8.74894 3.98237 8.57154 4.74522 8.24785 6.96732C7.94335 9.05751 7.80822 9.673 7.53872 10.197C7.33667 10.5898 7.17279 10.6207 6.97071 10.3042C6.76139 9.97628 6.59795 9.36749 6.34847 7.98625C6.07151 6.45295 5.84818 5.82201 5.46211 5.48218C5.23538 5.28261 4.83998 5.19578 4.65514 5.30497C4.49173 5.4015 4.43613 5.6551 4.54075 5.82667C4.59739 5.91958 4.74682 6.00347 4.85571 6.00347C4.9573 6.00347 5.10631 6.19296 5.2041 6.44654C5.37514 6.89007 5.41042 7.0444 5.74179 8.79865C5.97799 10.0492 6.19974 10.6372 6.56534 10.983C6.79267 11.198 6.9237 11.2496 7.24268 11.2494C7.47293 11.2493 7.5208 11.2406 7.64199 11.1761C8.15958 10.9008 8.45598 10.226 8.74076 8.67472C8.7783 8.47025 8.89076 7.74149 8.9907 7.05525C9.24029 5.3411 9.35198 4.76882 9.54803 4.19968C9.76074 3.58215 9.98179 3.37272 10.2144 3.56841C10.4573 3.7728 10.617 4.39038 10.7546 5.65755C10.8722 6.74095 10.9336 7.24395 10.9901 7.58694C11.1546 8.58489 11.3898 9.29412 11.7226 9.79563C11.8396 9.9718 12.1244 10.2868 12.2066 10.3308C12.2861 10.3733 12.4852 10.365 12.5817 10.3151C12.798 10.2032 12.8104 9.82097 12.6021 9.68448C12.498 9.61627 12.2955 9.31596 12.1599 9.02865C11.8731 8.42125 11.7172 7.65102 11.539 5.96216C11.4315 4.9435 11.3646 4.486 11.2664 4.09732C11.0754 3.34072 10.7814 2.92453 10.347 2.79551C10.1459 2.73578 9.85041 2.74417 9.66609 2.81484Z" fill="white"/>
</g>
<defs>
<clipPath id="clip0_5783_503">
<rect width="16" height="16" fill="white"/>
</clipPath>
</defs>
</svg>
