<svg width="16" height="16" viewBox="0 0 16 16" fill="none" xmlns="http://www.w3.org/2000/svg">
<g clip-path="url(#clip0_5783_522)">
<path fill-rule="evenodd" clip-rule="evenodd" d="M1.88555 0.0571768C1.19506 0.208534 0.563859 0.719328 0.246857 1.38335C-0.0143598 1.9305 -0.00256415 1.59579 0.00899789 8.12752L0.0194699 14.0341L0.123762 14.3196C0.402185 15.0818 0.946224 15.6216 1.6904 15.8739L2.00487 15.9805H8.00001H13.9951L14.3096 15.8739C15.0513 15.6224 15.6056 15.0758 15.8653 14.3396C15.9171 14.193 15.9598 14.0258 15.9603 13.9682C15.9607 13.9106 15.9786 13.8526 16 13.8394C16.0257 13.8235 16.0389 11.819 16.0389 7.95226C16.0389 4.72758 16.0266 2.10156 16.0115 2.11666C15.9964 2.13177 15.9618 2.03397 15.9346 1.89932C15.8673 1.56597 15.6181 1.07791 15.3785 0.810033C15.1302 0.532505 14.716 0.254549 14.3524 0.121605L14.073 0.0194542L8.09733 0.0124469C3.25081 0.00676316 2.07705 0.0152109 1.88555 0.0571768ZM0.0189638 7.99999C0.0189638 11.2331 0.0235575 12.5615 0.0292023 10.952C0.0348081 9.34243 0.0348081 6.69718 0.0292023 5.07362C0.0235575 3.45003 0.0189638 4.7669 0.0189638 7.99999ZM3.10599 2.24053C3.03596 2.27853 2.98636 2.34965 2.95899 2.45126C2.93124 2.55438 2.92123 3.50921 2.92843 5.36731L2.93918 8.13001L3.03167 8.22843C3.22025 8.42915 3.15901 8.44791 5.85258 7.36412L8.3638 6.35366L8.37657 6.85169C8.38735 7.27392 8.40047 7.36209 8.46276 7.4308C8.63393 7.61961 8.65706 7.61358 10.8327 6.81221C12.201 6.30823 12.898 6.03269 12.9635 5.96994L13.0608 5.87662L13.0728 4.23271C13.0858 2.43623 13.0765 2.33716 12.8861 2.23867C12.7166 2.15104 3.26759 2.15283 3.10599 2.24053ZM3.65937 5.17702V7.43438L3.86375 7.35322C3.97618 7.30856 4.14696 7.24083 4.24331 7.20268L4.4185 7.13326L4.43796 5.50337C4.44867 4.60694 4.47269 3.8498 4.49137 3.82084C4.59399 3.66173 4.64534 3.65936 8.00001 3.65936C11.435 3.65936 11.4185 3.65846 11.52 3.84816C11.5466 3.89792 11.562 4.25591 11.562 4.82467C11.562 5.31853 11.5752 5.7225 11.5912 5.72234C11.6073 5.72219 11.7781 5.66259 11.9708 5.58991L12.3212 5.45778L12.3315 4.18872L12.3417 2.9197H8.00055H3.65937V5.17702ZM5.17762 5.60583C5.17762 6.26958 5.18521 6.81264 5.19452 6.81264C5.20382 6.81264 5.9965 6.4963 6.95607 6.10965C8.84376 5.34901 8.86428 5.34352 9.02996 5.55413C9.10058 5.64394 9.1095 5.7107 9.1095 6.15061V6.64591L9.96594 6.33066L10.8224 6.01537V5.20719V4.39902H8.00001H5.17762V5.60583ZM10.1411 8.39271C8.83504 8.87205 7.73579 9.27442 7.6983 9.2868C7.63574 9.30755 7.63018 9.26765 7.63018 8.79765V8.28596L7.51639 8.17217C7.43545 8.09124 7.36456 8.05838 7.27086 8.05838C7.10066 8.05838 3.17447 9.77665 3.0365 9.9115L2.93918 10.0066V11.7956V13.5846L3.04713 13.6925L3.15504 13.8005H8.00001H12.845L12.9529 13.6925L13.0608 13.5846V10.6494V7.71429L12.9665 7.61385C12.791 7.4271 12.7147 7.44813 10.1411 8.39271ZM10.6931 8.98779L9.14293 9.55717L10.2586 9.57663L11.3743 9.5961L11.4682 9.70533C11.6025 9.86156 11.5947 10.0561 11.4483 10.2025L11.3345 10.3163H8.00001H4.66554L4.54533 10.196L4.42508 10.0758L4.0422 10.2412L3.65937 10.4066V11.7434V13.0803H8.00001H12.3406V10.7445C12.3406 8.8993 12.3304 8.40976 12.292 8.41358C12.2652 8.41622 11.5457 8.6746 10.6931 8.98779ZM6.23183 9.27789L5.59261 9.55717L6.22759 9.56787C6.57682 9.57379 6.86969 9.57153 6.87833 9.56285C6.88701 9.55417 6.88892 9.42368 6.88258 9.27283L6.87105 8.99857L6.23183 9.27789ZM4.68302 11.3326C4.52256 11.379 4.43796 11.5021 4.43796 11.6893C4.43796 11.7954 4.46541 11.8655 4.53353 11.9336L4.62907 12.0292H8.00001H11.3709L11.4665 11.9336C11.5707 11.8295 11.5954 11.6192 11.52 11.4783C11.4183 11.2884 11.4358 11.2893 8.01098 11.293C6.17165 11.2951 4.75465 11.3119 4.68302 11.3326Z" fill="#548AF7"/>
<path fill-rule="evenodd" clip-rule="evenodd" d="M3.10599 2.24052C3.03596 2.27852 2.98636 2.34964 2.95899 2.45125C2.93124 2.55437 2.92123 3.50919 2.92843 5.3673L2.93918 8.13L3.03167 8.22841C3.22025 8.42913 3.15901 8.4479 5.85258 7.3641L8.3638 6.35365L8.37657 6.85167C8.38735 7.2739 8.40047 7.36208 8.46276 7.43079C8.63393 7.6196 8.65706 7.61356 10.8327 6.8122C12.201 6.30822 12.898 6.03268 12.9635 5.96992L13.0608 5.87661L13.0728 4.2327C13.0858 2.43622 13.0765 2.33714 12.8861 2.23865C12.7166 2.15102 3.26759 2.15281 3.10599 2.24052ZM3.65937 5.17701V7.43437L3.86375 7.3532C3.97618 7.30855 4.14696 7.24081 4.24331 7.20266L4.4185 7.13325L4.43796 5.50335C4.44867 4.60693 4.47269 3.84979 4.49137 3.82082C4.59399 3.66172 4.64534 3.65934 8.00001 3.65934C11.435 3.65934 11.4185 3.65845 11.52 3.84815C11.5466 3.8979 11.562 4.2559 11.562 4.82466C11.562 5.31852 11.5752 5.72249 11.5912 5.72233C11.6073 5.72218 11.7781 5.66257 11.9708 5.58989L12.3212 5.45777L12.3315 4.18871L12.3417 2.91968H8.00055H3.65937V5.17701ZM5.17762 5.60582C5.17762 6.26956 5.18521 6.81263 5.19452 6.81263C5.20382 6.81263 5.9965 6.49629 6.95607 6.10964C8.84376 5.349 8.86428 5.34351 9.02996 5.55412C9.10058 5.64393 9.10949 5.71069 9.10949 6.15059V6.64589L9.96594 6.33064L10.8224 6.01535V5.20718V4.399H8.00001H5.17762V5.60582ZM10.1411 8.3927C8.83504 8.87203 7.73579 9.27441 7.6983 9.28679C7.63574 9.30754 7.63018 9.26764 7.63018 8.79764V8.28595L7.51639 8.17216C7.43545 8.09123 7.36456 8.05837 7.27086 8.05837C7.10066 8.05837 3.17447 9.77664 3.0365 9.91149L2.93918 10.0066V11.7956V13.5846L3.04713 13.6925L3.15504 13.8005H8.00001H12.845L12.9529 13.6925L13.0608 13.5846V10.6494V7.71427L12.9665 7.61383C12.791 7.42709 12.7147 7.44811 10.1411 8.3927ZM10.6931 8.98777L9.14293 9.55715L10.2586 9.57662L11.3743 9.59608L11.4682 9.70532C11.6025 9.86154 11.5947 10.0561 11.4483 10.2025L11.3345 10.3163H8.00001H4.66554L4.54533 10.196L4.42508 10.0758L4.04221 10.2412L3.65937 10.4066V11.7434V13.0803H8.00001H12.3406V10.7445C12.3406 8.89929 12.3304 8.40975 12.292 8.41356C12.2652 8.41621 11.5457 8.67458 10.6931 8.98777ZM6.23183 9.27787L5.59261 9.55715L6.22759 9.56786C6.57682 9.57378 6.86969 9.57152 6.87833 9.56284C6.88701 9.55416 6.88892 9.42366 6.88258 9.27281L6.87105 8.99856L6.23183 9.27787ZM4.68302 11.3326C4.52256 11.379 4.43796 11.5021 4.43796 11.6892C4.43796 11.7954 4.46541 11.8655 4.53353 11.9336L4.62907 12.0292H8.00001H11.3709L11.4665 11.9336C11.5707 11.8295 11.5954 11.6192 11.52 11.4783C11.4183 11.2883 11.4358 11.2893 8.01098 11.293C6.17165 11.295 4.75465 11.3119 4.68302 11.3326Z" fill="white"/>
</g>
<defs>
<clipPath id="clip0_5783_522">
<rect width="16" height="16" fill="white"/>
</clipPath>
</defs>
</svg>
