<svg width="16" height="16" viewBox="0 0 16 16" fill="none" xmlns="http://www.w3.org/2000/svg">
<g clip-path="url(#clip0_5783_507)">
<path fill-rule="evenodd" clip-rule="evenodd" d="M1.93083 0.042872C0.956436 0.248526 0.200896 1.02866 0.0309812 2.00449C-0.0157389 2.2729 -0.0157389 13.7272 0.0309812 13.9956C0.205264 14.9965 1.00191 15.7944 2.00122 15.969C2.2692 16.0158 13.7051 16.0158 13.9731 15.969C14.9095 15.8054 15.694 15.0725 15.9039 14.1651C15.9326 14.0409 15.9649 13.9101 15.9757 13.8744C16.0036 13.7823 16.0022 2.11364 15.9743 2.11364C15.9627 2.11364 15.9532 2.09108 15.9532 2.0635C15.9532 1.95492 15.8449 1.59487 15.7553 1.40534C15.4426 0.744082 14.8702 0.26256 14.1654 0.0676434L13.959 0.0105972L8.03989 0.00668704C2.30111 0.00290368 2.11496 0.00400276 1.93083 0.042872ZM0.0103856 8.00003C0.0103856 11.2317 0.0128334 12.5506 0.0158088 10.9309C0.0187842 9.31125 0.0187842 6.66713 0.0158088 5.05512C0.0128334 3.44311 0.0103856 4.76832 0.0103856 8.00003ZM6.27791 2.20913C6.19173 2.25578 6.14281 2.30257 6.10162 2.37779C6.07195 2.43192 6.06587 2.53513 6.06017 3.08061L6.05351 3.71998L5.01562 3.72031C3.97797 3.72067 3.97771 3.72067 3.89375 3.76831C3.84667 3.79503 3.78889 3.8529 3.76222 3.90006C3.71465 3.98416 3.71465 3.98441 3.71429 5.02373L3.71396 6.06329L3.07562 6.06997C2.51571 6.07582 2.42898 6.08119 2.36979 6.11361C2.12571 6.2473 2.10958 6.60181 2.34048 6.75765C2.41094 6.80523 2.42019 6.80584 3.06291 6.80584H3.71396V8.00003V9.19422H3.06929C2.35266 9.19422 2.35023 9.19464 2.24318 9.33521C2.19209 9.40228 2.18405 9.432 2.18405 9.55353C2.18405 9.67506 2.19209 9.70478 2.24318 9.77184C2.35715 9.92151 2.36308 9.92263 3.07562 9.93009L3.71396 9.93677L3.71429 10.9763C3.71465 12.0156 3.71465 12.0159 3.76222 12.1C3.78889 12.1472 3.84667 12.205 3.89375 12.2317C3.97771 12.2794 3.97797 12.2794 5.01562 12.2797L6.05351 12.2801L6.06017 12.9194C6.06762 13.6331 6.06874 13.6391 6.21817 13.7532C6.28512 13.8044 6.31479 13.8124 6.43613 13.8124C6.55747 13.8124 6.58714 13.8044 6.65409 13.7532C6.79445 13.646 6.79487 13.6436 6.79487 12.9258V12.2801H7.98714H9.17941V12.9322C9.17941 13.5759 9.18002 13.5852 9.22752 13.6558C9.38311 13.887 9.73705 13.8709 9.87052 13.6264C9.90292 13.5671 9.90821 13.4805 9.91385 12.9194L9.92026 12.2801L10.9584 12.2797C11.9963 12.2794 11.9966 12.2794 12.0805 12.2317C12.1276 12.205 12.1854 12.1472 12.2121 12.1C12.2596 12.0159 12.2596 12.0157 12.26 10.9749L12.2603 9.93398L12.8459 9.93347C13.451 9.93294 13.5599 9.92231 13.6501 9.85482C13.7601 9.7726 13.7902 9.70818 13.7902 9.55562C13.7902 9.43181 13.7824 9.40255 13.7311 9.33521C13.624 9.19464 13.6216 9.19422 12.905 9.19422H12.2603V8.00003V6.80584H12.905C13.6197 6.80584 13.6243 6.80508 13.729 6.66759C13.796 6.57962 13.8184 6.42653 13.7808 6.31267C13.75 6.21912 13.6377 6.1178 13.5323 6.08848C13.4854 6.07544 13.2075 6.06627 12.857 6.06621L12.2614 6.06608L12.2556 5.00399L12.2498 3.9419L12.2005 3.87273C12.1734 3.83468 12.1144 3.78476 12.0695 3.76176C11.9913 3.72182 11.9421 3.71998 10.9528 3.71998H9.91798L9.91748 3.13345C9.91695 2.52733 9.90633 2.41833 9.83895 2.32793C9.75687 2.21782 9.69255 2.18761 9.54023 2.18761C9.41662 2.18761 9.38741 2.19547 9.32018 2.24683C9.17983 2.35406 9.17941 2.35649 9.17941 3.07427V3.71998H7.98714H6.79487V3.07427C6.79487 2.35757 6.79426 2.35391 6.65566 2.24802C6.56013 2.17506 6.37593 2.15608 6.27791 2.20913ZM4.45253 8.00003V11.5403H7.98714H11.5217V8.00003V4.45974H7.98714H4.45253V8.00003ZM6.32353 6.09193C6.21291 6.12129 6.11029 6.22933 6.0805 6.3478C6.04789 6.47747 6.04629 9.48363 6.07874 9.63518C6.12238 9.83899 6.31055 9.95655 6.51959 9.91058C6.63008 9.8863 6.68919 9.84314 6.75093 9.7417C6.79425 9.67052 6.79472 9.65249 6.79478 8.00669C6.79482 7.08761 6.78647 6.32149 6.77611 6.29418C6.74469 6.21139 6.62761 6.11376 6.53035 6.08924C6.42649 6.06304 6.43271 6.06295 6.32353 6.09193ZM7.84997 7.09475C7.76888 7.12812 7.69392 7.2002 7.65805 7.27931C7.62133 7.36032 7.61874 7.43984 7.61831 8.50307C7.61791 9.51012 7.62175 9.6479 7.65206 9.70782C7.72731 9.85666 7.82609 9.91889 7.98714 9.91889C8.11753 9.91889 8.20894 9.87401 8.28675 9.77186L8.34587 9.69423L8.35182 8.54067C8.35849 7.25033 8.35948 7.26027 8.21485 7.14979C8.15572 7.10462 8.1136 7.09171 8.01098 7.08729C7.93983 7.08422 7.86738 7.08758 7.84997 7.09475ZM9.36869 8.12156C9.31699 8.14773 9.25326 8.20143 9.22706 8.24094C9.18008 8.31174 9.17941 8.32231 9.17941 8.98839C9.17941 9.63499 9.18131 9.66741 9.22359 9.74278C9.37916 10.02 9.81614 9.96099 9.89378 9.65226C9.92298 9.53601 9.92625 8.48398 9.89779 8.36097C9.88721 8.31538 9.86077 8.25356 9.83902 8.22358C9.7862 8.15088 9.63158 8.074 9.53814 8.074C9.49664 8.074 9.42039 8.09539 9.36869 8.12156Z" fill="#E55765"/>
<path fill-rule="evenodd" clip-rule="evenodd" d="M6.28801 2.20911C6.20169 2.25575 6.15269 2.30255 6.11144 2.37777C6.08172 2.4319 6.07563 2.53511 6.06992 3.08059L6.06325 3.71996L5.02369 3.72029C3.98437 3.72065 3.98411 3.72065 3.90001 3.76829C3.85286 3.79501 3.79499 3.85288 3.76827 3.90003C3.72063 3.98414 3.72063 3.98439 3.72027 5.02371L3.71993 6.06327L3.08057 6.06995C2.51976 6.0758 2.4329 6.08117 2.37361 6.11359C2.12913 6.24728 2.11298 6.60179 2.34425 6.75763C2.41482 6.80521 2.42408 6.80582 3.06784 6.80582H3.71993V8.00001V9.1942H3.07423C2.35645 9.1942 2.35402 9.19462 2.24679 9.33519C2.19562 9.40226 2.18757 9.43198 2.18757 9.55351C2.18757 9.67504 2.19562 9.70476 2.24679 9.77182C2.36095 9.92149 2.36689 9.92261 3.08057 9.93007L3.71993 9.93675L3.72027 10.9763C3.72063 12.0156 3.72063 12.0159 3.76827 12.1C3.79499 12.1471 3.85286 12.205 3.90001 12.2317C3.98411 12.2794 3.98437 12.2794 5.02369 12.2797L6.06325 12.2801L6.06992 12.9194C6.07739 13.6331 6.07851 13.639 6.22817 13.7532C6.29524 13.8044 6.32495 13.8124 6.44649 13.8124C6.56802 13.8124 6.59773 13.8044 6.6648 13.7532C6.80538 13.646 6.8058 13.6435 6.8058 12.9258V12.2801H7.99999H9.19417V12.9322C9.19417 13.5759 9.19479 13.5852 9.24236 13.6557C9.3982 13.887 9.75272 13.8709 9.8864 13.6264C9.91884 13.5671 9.92415 13.4805 9.92979 12.9194L9.93622 12.2801L10.976 12.2797C12.0156 12.2794 12.0159 12.2794 12.1 12.2317C12.1471 12.205 12.205 12.1471 12.2317 12.1C12.2793 12.0159 12.2793 12.0157 12.2797 10.9749L12.28 9.93396L12.8666 9.93345C13.4727 9.93292 13.5817 9.92229 13.6721 9.8548C13.7822 9.77258 13.8124 9.70816 13.8124 9.5556C13.8124 9.43179 13.8045 9.40253 13.7532 9.33519C13.646 9.19462 13.6435 9.1942 12.9257 9.1942H12.28V8.00001V6.80582H12.9257C13.6416 6.80582 13.6462 6.80506 13.7511 6.66757C13.8182 6.5796 13.8406 6.42651 13.803 6.31265C13.7721 6.2191 13.6596 6.11778 13.5541 6.08846C13.5071 6.07542 13.2287 6.06625 12.8777 6.06619L12.2812 6.06606L12.2753 5.00397L12.2695 3.94188L12.2201 3.87271C12.193 3.83466 12.1339 3.78474 12.0889 3.76174C12.0106 3.72179 11.9613 3.71996 10.9704 3.71996H9.93394L9.93343 3.13343C9.9329 2.52731 9.92227 2.41831 9.85478 2.32791C9.77256 2.21779 9.70814 2.18759 9.55558 2.18759C9.43176 2.18759 9.40251 2.19545 9.33517 2.24681C9.1946 2.35404 9.19417 2.35647 9.19417 3.07425V3.71996H7.99999H6.8058V3.07425C6.8058 2.35755 6.80519 2.35389 6.66636 2.248C6.57068 2.17504 6.38618 2.15606 6.28801 2.20911ZM4.4597 8.00001V11.5403H7.99999H11.5403V8.00001V4.45972H7.99999H4.4597V8.00001ZM6.3337 6.09191C6.22291 6.12127 6.12012 6.22931 6.09028 6.34778C6.05762 6.47745 6.05602 9.48361 6.08852 9.63516C6.13223 9.83897 6.3207 9.95653 6.53008 9.91056C6.64075 9.88628 6.69995 9.84312 6.76179 9.74168C6.80519 9.6705 6.80565 9.65247 6.80571 8.00667C6.80576 7.08759 6.79739 6.32147 6.78701 6.29416C6.75554 6.21137 6.63827 6.11374 6.54086 6.08922C6.43683 6.06302 6.44306 6.06293 6.3337 6.09191ZM7.8626 7.09473C7.78138 7.1281 7.7063 7.20018 7.67037 7.27929C7.63359 7.3603 7.63099 7.43982 7.63057 8.50305C7.63017 9.5101 7.63402 9.64788 7.66437 9.7078C7.73974 9.85664 7.83868 9.91887 7.99999 9.91887C8.13059 9.91887 8.22215 9.87399 8.30008 9.77184L8.3593 9.69421L8.36526 8.54065C8.37194 7.25031 8.37293 7.26025 8.22806 7.14977C8.16884 7.1046 8.12665 7.09169 8.02387 7.08727C7.9526 7.0842 7.88004 7.08756 7.8626 7.09473ZM9.38376 8.12154C9.33198 8.14771 9.26815 8.20141 9.2419 8.24092C9.19485 8.31172 9.19417 8.32229 9.19417 8.98837C9.19417 9.63497 9.19608 9.66739 9.23843 9.74276C9.39425 10.02 9.83193 9.96097 9.90969 9.65224C9.93894 9.53599 9.94222 8.48396 9.91371 8.36095C9.90312 8.31536 9.87664 8.25354 9.85484 8.22356C9.80194 8.15086 9.64708 8.07398 9.55349 8.07398C9.51191 8.07398 9.43555 8.09537 9.38376 8.12154Z" fill="white"/>
</g>
<defs>
<clipPath id="clip0_5783_507">
<rect width="16" height="16" fill="white"/>
</clipPath>
</defs>
</svg>
