<svg width="16" height="16" viewBox="0 0 16 16" fill="none" xmlns="http://www.w3.org/2000/svg"><path d="M12.5 9.5h-3a1 1 0 0 0-1 1v3h5v-3a1 1 0 0 0-1-1z" stroke="#4285F4" stroke-linecap="round"/><path d="M6.5 4.5h-4v2a1 1 0 0 0 1 1h2a1 1 0 0 0 1-1v-2zM3.5 2.5v2M5.5 2.5v2" stroke="#6C707E" stroke-linecap="round"/><path fill-rule="evenodd" clip-rule="evenodd" d="M10 8a1 1 0 1 1 2 0h1a2 2 0 1 0-4 0v1.5a.5.5 0 0 0 1 0V8z" fill="#4285F4"/><circle cx="6.5" cy="12.5" r=".5" fill="#6C707E"/><circle cx="4.5" cy="12.5" r=".5" fill="#6C707E"/><circle cx="4.5" cy="10.5" r=".5" fill="#D9D9D9"/><circle cx="4.5" cy="10.5" r=".5" fill="#6C707E"/><path d="M4.5 7.5v1" stroke="#6C707E" stroke-linecap="round"/></svg>