<svg width="16" height="16" viewBox="0 0 16 16" fill="none" xmlns="http://www.w3.org/2000/svg"><g clip-path="url(#clip0_337_77)" fill-rule="evenodd" clip-rule="evenodd"><path d="M10.146.146a.5.5 0 0 1 .708 0L13 2.293 15.146.146a.5.5 0 0 1 .708.708L13.707 3l2.147 2.146a.5.5 0 0 1-.708.708L13 3.707l-2.146 2.147a.5.5 0 0 1-.708-.708L12.293 3 10.146.854a.5.5 0 0 1 0-.708z" fill="#DB3B4B"/><path d="M9 1.033C8.674 1.011 8.34 1 8 1c-1.564 0-3.002.241-4.068.649-.53.203-.995.457-1.335.764-.29.262-.518.591-.58.98H2v9.125h.003c.028.444.274.816.594 1.106.34.307.804.561 1.335.764 1.066.408 2.504.649 4.068.649 1.564 0 3.002-.241 4.068-.649.53-.203.995-.457 1.335-.764.32-.29.566-.662.594-1.106H14V7h-1.274c-.217.194-.556.39-1.016.566-.925.354-2.236.583-3.71.583-1.474 0-2.785-.229-3.71-.583-.465-.177-.806-.376-1.022-.572C3.05 6.798 3 6.646 3 6.547v-1.45c.272.175.588.328.932.46 1.066.407 2.504.648 4.068.648.34 0 .674-.01 1-.033V5.17c-.323.023-.657.035-1 .035-1.474 0-2.785-.229-3.71-.582-.465-.178-.806-.377-1.022-.573C3.05 3.855 3 3.703 3 3.603c0-.1.051-.252.268-.448.216-.195.557-.395 1.021-.572C5.215 2.229 6.526 2 8 2c.343 0 .677.012 1 .036V1.033zM3 9.49V8.041c.272.175.588.328.932.46 1.066.407 2.504.648 4.068.648 1.564 0 3.002-.241 4.068-.649.344-.131.66-.284.932-.459v1.45c0 .1-.051.251-.268.447-.216.196-.557.395-1.021.572-.925.354-2.237.583-3.711.583-1.474 0-2.785-.23-3.71-.583-.465-.177-.806-.376-1.022-.572C3.05 9.742 3 9.59 3 9.49zm0 2.944v-1.45c.272.176.588.329.932.46 1.066.408 2.504.65 4.068.65 1.564 0 3.002-.242 4.068-.65.344-.131.66-.284.932-.46v1.45c0 .1-.051.252-.268.448-.216.196-.557.395-1.021.572-.925.354-2.237.583-3.711.583-1.474 0-2.785-.23-3.71-.583-.465-.177-.806-.377-1.022-.572-.217-.196-.268-.348-.268-.448z" fill="#3574F0"/></g><defs><clipPath id="clip0_337_77"><path fill="#fff" d="M0 0h16v16H0z"/></clipPath></defs></svg>