<svg width="16" height="16" viewBox="0 0 16 16" fill="none" xmlns="http://www.w3.org/2000/svg"><g opacity=".25" fill-rule="evenodd" clip-rule="evenodd"><path d="M14.83.017l1.132 1.131-6.364 6.364-1.132-1.131L14.83.017z" fill="#E05555"/><path d="M9.598.017l6.364 6.364-1.132 1.131-6.364-6.364L9.598.017z" fill="#E05555"/><path d="M8 1c-3.866 0-7 .863-7 1.927s3.134 1.926 7 1.926V1zm0 5.138c-2.894 0-5.452-.54-7-1.365v1.493C1 7.33 4.134 8.193 8 8.193V6.138zM11 8v.008L11.057 8H11zm4 .113v1.586c0 1.013-3.134 1.833-7 1.833s-7-.82-7-1.833V8.113c1.548.825 4.106 1.364 7 1.364s5.452-.54 7-1.364zm0 3.34v1.62C15 14.137 11.866 15 8 15s-7-.863-7-1.927v-1.62c1.548.824 4.106 1.364 7 1.364s5.452-.54 7-1.365v.001z" fill="#40B6E0" fill-opacity=".6"/></g></svg>