<svg width="16" height="16" viewBox="0 0 16 16" fill="none" xmlns="http://www.w3.org/2000/svg"><g opacity=".25" clip-path="url(#clip0_136_1318)"><path fill-rule="evenodd" clip-rule="evenodd" d="M1 4.773c1.548.825 4.106 1.365 7 1.365s5.452-.54 7-1.365v1.493c0 1.064-3.134 1.927-7 1.927S1 7.33 1 6.266V4.773zm14 3.34v1.586c0 1.013-3.134 1.833-7 1.833s-7-.82-7-1.833V8.113c1.548.825 4.106 1.364 7 1.364s5.452-.54 7-1.364zm0 3.34v1.62C15 14.137 11.866 15 8 15s-7-.863-7-1.927v-1.62c1.548.824 4.106 1.364 7 1.364s5.452-.54 7-1.365v.001zm-7-6.6c-3.866 0-7-.862-7-1.926S4.134 1 8 1s7 .863 7 1.927-3.134 1.926-7 1.926z" fill="#40B6E0" fill-opacity=".6"/></g><defs><clipPath id="clip0_136_1318"><path fill="#fff" d="M0 0h16v16H0z"/></clipPath></defs></svg>