<svg width="16" height="16" viewBox="0 0 16 16" fill="none" xmlns="http://www.w3.org/2000/svg"><g opacity=".25"><path fill-rule="evenodd" clip-rule="evenodd" d="M15 6.535V2H1v12h5.487c.089-.322.26-.626.513-.879L7.121 13H6v-2h3.121l.004-.004A4.007 4.007 0 0 1 9 10H6V8h3.535A4.02 4.02 0 0 1 11 6.535V5h3v1.126c.355.091.69.23 1 .41zM6 5h4v2H6V5zM5 5v2H2V5h3zm-3 5V8h3v2H2zm0 1h3v2H2v-2z" fill="#6E6E6E"/><path d="M10.536 11l1.414 1.414-2.829 2.829a1 1 0 1 1-1.414-1.415L10.536 11z" fill="#389FD6"/><path fill-rule="evenodd" clip-rule="evenodd" d="M13 12a2 2 0 1 0 0-4 2 2 0 0 0 0 4zm0 1a3 3 0 1 0 0-6 3 3 0 0 0 0 6z" fill="#389FD6"/></g></svg>