<svg width="16" height="16" viewBox="0 0 16 16" fill="none" xmlns="http://www.w3.org/2000/svg"><path fill-rule="evenodd" clip-rule="evenodd" d="M1 4a2 2 0 0 1 2-2h10a2 2 0 0 1 2 2v7c0-1.014-.378-1.94-1-2.646V6h-3v1c-.345 0-.68.044-1 .126V6H6v7h1.535c.218.376.495.714.82 1H3a2 2 0 0 1-2-2V4zm5-1h4v2H6V3zM5 3H3a1 1 0 0 0-1 1v1h3V3zM2 6v6a1 1 0 0 0 1 1h2V6H2zm12-1V4a1 1 0 0 0-1-1h-2v2h3z" fill="#CED0D6"/><circle cx="11" cy="11" r="2" fill="#25324D"/><path fill-rule="evenodd" clip-rule="evenodd" d="M12.738 13.445a3 3 0 1 1 .707-.707l1.409 1.408a.5.5 0 0 1-.708.708l-1.408-1.409zM13 11a2 2 0 1 1-4 0 2 2 0 0 1 4 0z" fill="#548AF7"/></svg>