<svg width="16" height="16" viewBox="0 0 16 16" fill="none" xmlns="http://www.w3.org/2000/svg"><g opacity=".25" clip-path="url(#clip0_136_1324)"><path d="M1 2h5v12H1V2z" fill="#9AA7B0" fill-opacity=".8"/><path fill-rule="evenodd" clip-rule="evenodd" d="M15 4.535V2H7v3h3v.354A3.99 3.99 0 0 1 13 4c.729 0 1.412.195 2 .535zM10.354 11a4.017 4.017 0 0 1-.819-1H7v1h3.354zM10 13H7v1h3v-1zM7 7h2.126C9.044 7.32 9 7.655 9 8H7V7z" fill="#9AA7B0"/><path fill-rule="evenodd" clip-rule="evenodd" d="M16 13h-2v-2.17a3.001 3.001 0 1 0-2 0V16h2v-1h2v-2zm-2-5a1 1 0 1 1-2 0 1 1 0 0 1 2 0z" fill="#40B6E0"/></g><defs><clipPath id="clip0_136_1324"><path fill="#fff" d="M0 0h16v16H0z"/></clipPath></defs></svg>