<svg width="16" height="16" viewBox="0 0 16 16" fill="none" xmlns="http://www.w3.org/2000/svg"><path d="M2 4a1 1 0 0 1 1-1h2v10H3a1 1 0 0 1-1-1V4z" fill="#43454A"/><path fill-rule="evenodd" clip-rule="evenodd" d="M14 11.95a2.5 2.5 0 1 0-1 0V16h1v-1h2v-1h-2v-2.05zm1-2.45a1.5 1.5 0 1 1-3 0 1.5 1.5 0 0 1 3 0z" fill="#548AF7"/><path fill-rule="evenodd" clip-rule="evenodd" d="M1 4a2 2 0 0 1 2-2h10a2 2 0 0 1 2 2v2.337a3.476 3.476 0 0 0-1-.302V4a1 1 0 0 0-1-1H6v10h6v1H3a2 2 0 0 1-2-2V4zm2-1h2v10H3a1 1 0 0 1-1-1V4a1 1 0 0 1 1-1z" fill="#CED0D6"/></svg>