<svg width="16" height="16" viewBox="0 0 16 16" fill="none" xmlns="http://www.w3.org/2000/svg"><circle cx="11" cy="12" r="1.5" fill="#25324D" stroke="#548AF7"/><path d="M11 15.5c-1.9 0-3.86-1.512-4.479-3.5C7.14 10.012 9.1 8.5 11 8.5s3.86 1.512 4.479 3.5C14.86 13.988 12.9 15.5 11 15.5z" stroke="#548AF7"/><path fill-rule="evenodd" clip-rule="evenodd" d="M6 3h4v2H6V3zM5 3H3a1 1 0 0 0-1 1v1h3V3zM2 6v6a1 1 0 0 0 1 1h2v1H3a2 2 0 0 1-2-2V4a2 2 0 0 1 2-2h10a2 2 0 0 1 2 2v4.587a6.736 6.736 0 0 0-1-.732V6h-3v1a5.336 5.336 0 0 0-1 .103V6H6v3.79a6.366 6.366 0 0 0-.926 1.942L5 12V6H2zm12-1V4a1 1 0 0 0-1-1h-2v2h3z" fill="#CED0D6"/></svg>