<svg width="48" height="48" viewBox="0 0 48 48" fill="none" xmlns="http://www.w3.org/2000/svg">
<g clip-path="url(#clip0_4897_297)">
<path fill-rule="evenodd" clip-rule="evenodd" d="M6.38752 0.0708745C3.70906 0.423664 1.44142 2.21882 0.500644 4.73121C0.380474 5.05204 0.227335 5.54301 0.160243 5.82228C0.0446775 6.30322 0.0370273 7.23892 0.0159723 23.5599C-7.28127e-05 35.968 0.0148891 40.9772 0.0695238 41.4595C0.42597 44.6074 2.63675 47.0677 5.78444 47.8196L6.39774 47.9661H23.9661C40.728 47.9661 41.561 47.9605 42.11 47.8424C44.6864 47.2884 46.7403 45.4896 47.5727 43.0586C47.6977 42.6935 47.8328 42.1403 47.8731 41.8293C47.9133 41.5182 47.9735 41.2109 48.007 41.1462C48.0854 40.9943 48.0881 6.74944 48.0097 6.79798C47.9777 6.81768 47.9339 6.62907 47.9122 6.37885C47.862 5.79885 47.5874 4.84698 47.2851 4.20456C46.319 2.15139 44.5498 0.744635 42.1904 0.15347C41.7734 0.049007 40.3595 0.0391227 24.2708 0.0280197C14.664 0.0214527 6.61655 0.0406798 6.38752 0.0708745ZM0.0333038 24C0.0333038 33.4578 0.0411571 37.337 0.0507706 32.6204C0.0603842 27.9038 0.0603842 20.1655 0.0507706 15.4243C0.0411571 10.6831 0.0333038 14.5422 0.0333038 24ZM34.3918 7.85249C31.4879 8.0168 29.077 8.87545 26.8096 10.5528C26.5303 10.7594 25.608 11.6139 24.7599 12.4517L23.2178 13.9749L20.756 13.7179C18.143 13.4451 17.9091 13.4428 17.0059 13.6818C16.4167 13.8377 15.9532 14.0617 15.402 14.4569C14.8338 14.8643 8.45477 21.2831 8.23927 21.6643C7.78554 22.467 7.72332 23.6098 8.08816 24.4401C8.27204 24.8584 8.64406 25.2433 15.633 32.2458C22.69 39.3163 23.0047 39.6215 23.4886 39.8621C23.9825 40.1077 24.0087 40.1128 24.775 40.1128C25.5231 40.1128 25.5793 40.1027 26.0649 39.8796C26.5548 39.6546 26.6889 39.5308 29.8782 36.3591C31.6963 34.5512 33.3232 32.8891 33.4936 32.6657C33.873 32.168 34.2192 31.4404 34.3689 30.8255C34.5322 30.1551 34.5011 29.1924 34.2398 26.829L34.0135 24.7835L35.3585 23.444C37.2612 21.5488 37.9146 20.7034 38.7277 19.0846C39.6447 17.2589 40.0245 15.6958 40.1487 13.2351C40.2054 12.1135 40.1999 11.7818 40.1168 11.3057C39.8451 9.74832 38.6487 8.42071 37.1001 7.95824C36.6329 7.81871 35.6599 7.78073 34.3918 7.85249ZM34.5614 10.0853C31.9398 10.2318 29.6437 11.1137 27.7574 12.6983C27.4781 12.933 24.1497 16.2269 20.361 20.0182L13.4724 26.9115L17.2816 30.7202L21.0907 34.5289L28.2347 27.3689C33.5354 22.0561 35.4794 20.0657 35.7693 19.6543C37.2259 17.5868 37.8716 15.5217 37.9243 12.7616C37.9471 11.5701 37.8645 11.2304 37.4325 10.7398C36.8721 10.1029 36.3546 9.98501 34.5614 10.0853ZM17.8084 15.777C17.0324 15.9384 16.9407 16.0163 13.5181 19.4231C11.7372 21.1957 10.2369 22.7282 10.1838 22.8288C10.1308 22.9294 10.0874 23.1248 10.0874 23.2632C10.0874 23.4953 10.1569 23.585 10.9828 24.4191L11.8781 25.3232L16.5004 20.7013C19.0427 18.1592 21.1227 16.0623 21.1227 16.0414C21.1227 16.0206 20.5972 15.9505 19.9549 15.8857C18.2476 15.7136 18.1391 15.7081 17.8084 15.777ZM27.2971 31.5012L22.6768 36.1219L23.5809 37.0172C24.4652 37.8928 24.4917 37.9125 24.7826 37.9125H25.08L28.4209 34.5783C31.992 31.0142 32.0664 30.9268 32.2154 30.1225C32.2678 29.8395 32.2512 29.434 32.1433 28.3667C32.0662 27.6034 31.9838 26.9567 31.9603 26.9297C31.9367 26.9026 29.8383 28.9598 27.2971 31.5012ZM8.57345 31.2394C8.22478 31.3667 7.95757 31.6336 7.86299 31.9492C7.75961 32.2942 7.75636 37.3896 7.8592 37.9509C8.06765 39.0887 8.99333 39.9703 10.1725 40.1539C10.4161 40.1918 11.7599 40.2118 13.3052 40.2004C15.8938 40.1814 16.0216 40.1745 16.248 40.0415C16.9439 39.6326 16.995 38.5663 16.3392 38.1362C16.1692 38.0248 15.9 38.0111 13.2574 37.9802L10.3618 37.9464L10.2077 37.7922L10.0536 37.6382L10.0197 34.7336C9.98691 31.9139 9.98176 31.8236 9.84338 31.6382C9.54861 31.2428 9.01932 31.0767 8.57345 31.2394Z" fill="#F4AF3D"/>
<path fill-rule="evenodd" clip-rule="evenodd" d="M34.3918 7.8525C31.4879 8.01681 29.077 8.87547 26.8096 10.5528C26.5303 10.7594 25.608 11.6139 24.7599 12.4517L23.2179 13.9749L20.756 13.7179C18.1431 13.4451 17.9091 13.4428 17.0059 13.6818C16.4167 13.8377 15.9532 14.0617 15.402 14.4569C14.8338 14.8643 8.45478 21.2831 8.23928 21.6643C7.78555 22.467 7.72334 23.6098 8.08818 24.4401C8.27205 24.8585 8.64407 25.2433 15.633 32.2458C22.69 39.3163 23.0047 39.6215 23.4887 39.8621C23.9825 40.1077 24.0087 40.1128 24.775 40.1128C25.5231 40.1128 25.5793 40.1027 26.0649 39.8796C26.5548 39.6546 26.689 39.5308 29.8782 36.3592C31.6963 34.5512 33.3232 32.8891 33.4936 32.6657C33.873 32.1681 34.2192 31.4404 34.369 30.8255C34.5322 30.1551 34.5011 29.1924 34.2398 26.829L34.0135 24.7835L35.3585 23.444C37.2612 21.5488 37.9146 20.7034 38.7277 19.0846C39.6448 17.2589 40.0245 15.6958 40.1487 13.2351C40.2054 12.1135 40.1999 11.7818 40.1168 11.3057C39.8452 9.74833 38.6487 8.42072 37.1001 7.95825C36.6329 7.81872 35.6599 7.78074 34.3918 7.8525ZM34.5614 10.0853C31.9398 10.2319 29.6437 11.1137 27.7574 12.6983C27.4781 12.933 24.1498 16.2269 20.361 20.0182L13.4724 26.9115L17.2816 30.7202L21.0908 34.5289L28.2347 27.3689C33.5354 22.0561 35.4794 20.0657 35.7693 19.6543C37.2259 17.5868 37.8716 15.5217 37.9243 12.7616C37.9471 11.5701 37.8645 11.2304 37.4326 10.7398C36.8721 10.103 36.3546 9.98502 34.5614 10.0853ZM17.8084 15.777C17.0324 15.9384 16.9408 16.0163 13.5181 19.4231C11.7373 21.1957 10.2369 22.7282 10.1839 22.8288C10.1308 22.9294 10.0875 23.1248 10.0875 23.2632C10.0875 23.4954 10.1569 23.585 10.9828 24.4191L11.8781 25.3232L16.5004 20.7013C19.0427 18.1592 21.1227 16.0623 21.1227 16.0414C21.1227 16.0206 20.5972 15.9505 19.9549 15.8857C18.2477 15.7136 18.1391 15.7081 17.8084 15.777ZM27.2971 31.5012L22.6768 36.1219L23.5809 37.0172C24.4652 37.8928 24.4917 37.9126 24.7826 37.9126H25.08L28.4209 34.5783C31.992 31.0142 32.0664 30.9268 32.2155 30.1225C32.2679 29.8396 32.2512 29.434 32.1434 28.3667C32.0662 27.6034 31.9838 26.9567 31.9603 26.9297C31.9367 26.9026 29.8383 28.9598 27.2971 31.5012ZM8.57346 31.2394C8.2248 31.3667 7.95758 31.6336 7.863 31.9492C7.75962 32.2943 7.75637 37.3896 7.85921 37.9509C8.06766 39.0887 8.99334 39.9703 10.1725 40.1539C10.4161 40.1918 11.7599 40.2118 13.3052 40.2004C15.8938 40.1814 16.0216 40.1745 16.248 40.0415C16.9439 39.6326 16.995 38.5663 16.3392 38.1362C16.1692 38.0248 15.9001 38.0111 13.2574 37.9803L10.3618 37.9464L10.2078 37.7923L10.0536 37.6382L10.0198 34.7337C9.98692 31.9139 9.98177 31.8236 9.84339 31.6382C9.54862 31.2429 9.01934 31.0767 8.57346 31.2394Z" fill="white"/>
</g>
<defs>
<clipPath id="clip0_4897_297">
<rect width="48" height="48" fill="white"/>
</clipPath>
</defs>
</svg>
