<svg width="48" height="48" viewBox="0 0 48 48" fill="none" xmlns="http://www.w3.org/2000/svg">
<g clip-path="url(#clip0_4897_298)">
<path fill-rule="evenodd" clip-rule="evenodd" d="M6.10254 0.128452C3.21244 0.617838 0.771453 2.9393 0.178701 5.76239C0.0297107 6.47206 0.00380971 9.15827 0.00202753 24.0701C0.000126543 40.9639 0.00761168 41.5761 0.229909 42.4448C0.919493 45.1414 2.85862 47.0805 5.55518 47.7701C6.42393 47.9924 7.03617 47.9999 23.9299 47.998C43.2453 47.9956 42.231 48.0348 43.9095 47.2275C44.9345 46.7344 46.1051 45.7002 46.7675 44.7023C47.2749 43.9377 47.8763 42.3183 47.8814 41.703C47.8839 41.3904 47.9134 41.3315 48 41.4654C48.0746 41.5808 48.1129 35.4107 48.1086 23.9406C48.1049 13.9572 48.0576 6.34124 48 6.47526C47.9128 6.67819 47.8966 6.65954 47.8895 6.34837C47.885 6.14782 47.7959 5.69336 47.6916 5.33847C46.9985 2.98065 45.1372 1.1115 42.6535 0.279225C42.0313 0.0707097 41.1575 0.0593037 24.3564 0.0426701C14.6525 0.0330463 6.43819 0.0716602 6.10254 0.128452ZM9.17882 9.05942C6.1686 12.0638 5.19173 13.1095 5.09965 13.4258C5.01957 13.7008 4.99058 18.6559 5.01411 28.0666L5.04951 42.2917L5.37898 42.621L5.70832 42.9505L23.6166 42.9847C33.4661 43.0036 41.7045 42.9866 41.9242 42.9472C42.1439 42.9076 42.4513 42.7477 42.6074 42.5916L42.8911 42.3079V24V5.69218L42.5994 5.40061L42.3078 5.10893H27.7224H13.1369L9.17882 9.05942ZM0.0578691 24.0594C0.0578691 33.7961 0.0718889 37.7616 0.0891166 32.8719C0.106226 27.9821 0.106226 20.0158 0.0891166 15.169C0.0718889 10.322 0.0578691 14.3228 0.0578691 24.0594ZM16.2772 11.4138C16.2772 15.5414 16.253 15.7866 15.8123 16.1249C15.6725 16.2322 14.5404 16.2707 11.4357 16.2734L7.24753 16.2772V28.5149V40.7525H23.9406H40.6337V24.0594V7.36635H28.4555H16.2772V11.4138ZM10.6931 10.7525L7.42741 14.0198H10.7236H14.0198V10.7525C14.0198 8.95546 14.006 7.48517 13.9893 7.48517C13.9725 7.48517 12.4892 8.95546 10.6931 10.7525ZM30.7423 10.2614C29.7867 10.6178 28.9693 11.4783 28.6831 12.4294C28.2936 13.7231 28.586 14.9381 29.5087 15.8608C30.2944 16.6466 31.0535 16.9257 32.1842 16.8446C34.0141 16.7132 35.2801 15.3408 35.2833 13.4852C35.2857 12.1334 34.6283 11.0315 33.4615 10.4312C32.8377 10.1103 31.3901 10.0199 30.7423 10.2614ZM31.1642 12.2259C30.4413 12.6799 30.2231 13.5241 30.6487 14.2219C31.1027 14.9667 31.9812 15.1728 32.6837 14.6994C33.1753 14.3682 33.3821 13.9829 33.3844 13.3943C33.3884 12.3593 32.0627 11.6616 31.1642 12.2259ZM35.1036 15.8561C34.2133 16.7462 35.4112 18.1155 36.3998 17.3379C36.6524 17.1392 36.7129 16.9918 36.7129 16.5743C36.7129 16.1568 36.6524 16.0093 36.3998 15.8107C35.9761 15.4773 35.4643 15.4952 35.1036 15.8561ZM36.6179 17.9439C36.2703 18.2678 36.1825 18.6843 36.3765 19.0892C36.8388 20.0537 38.2574 19.7658 38.2574 18.7075C38.2574 17.8535 37.229 17.3746 36.6179 17.9439ZM35.0702 20.1165C34.4719 20.7535 34.9156 21.7426 35.7997 21.7426C36.3937 21.7426 36.7129 21.4104 36.7129 20.7921C36.7129 20.1668 36.3948 19.8416 35.7831 19.8416C35.4616 19.8416 35.2529 19.922 35.0702 20.1165ZM15.436 20.6764C13.4013 21.0138 12.2198 23.0281 12.8244 25.1287C13.0686 25.9766 14.0987 26.9975 14.9719 27.2568C16.248 27.6358 17.3944 27.3872 18.3067 26.5339C19.1091 25.7834 19.416 25.1005 19.4185 24.0594C19.424 21.8644 17.6025 20.3171 15.436 20.6764ZM31.3496 20.6834C29.0437 21.0403 27.8033 23.6319 28.956 25.6842C30.2894 28.058 33.7368 27.9606 35.0071 25.5133C35.3022 24.9445 35.3602 23.5686 35.1196 22.844C34.615 21.3248 33.0392 20.4218 31.3496 20.6834ZM15.7079 22.5498C15.3171 22.6105 14.6623 23.312 14.5712 23.7676C14.5183 24.0319 14.5603 24.2907 14.7021 24.5755C15.3134 25.8029 16.7751 25.7864 17.3916 24.5451C17.5793 24.1672 17.5938 24.0254 17.4827 23.6545C17.2545 22.8929 16.5045 22.4261 15.7079 22.5498ZM31.0344 22.8689C30.3032 23.4841 30.2468 24.4067 30.9002 25.0602C31.3485 25.5085 31.9015 25.622 32.4732 25.3831C33.5721 24.924 33.6804 23.3064 32.6507 22.735C32.1809 22.4744 31.4294 22.5366 31.0344 22.8689ZM20.3255 23.3626C19.7764 24.0607 20.208 24.9743 21.087 24.9743C21.8623 24.9743 22.294 24.2464 21.9327 23.5478C21.7264 23.1488 21.5343 23.0495 20.9692 23.0495C20.6814 23.0495 20.5038 23.1358 20.3255 23.3626ZM23.3746 23.198C23.0891 23.4149 22.9322 23.9278 23.0331 24.3155C23.2118 25.0027 24.3749 25.2104 24.802 24.6313C25.0515 24.2929 24.9852 23.5988 24.6756 23.3078C24.3657 23.0168 23.6885 22.9597 23.3746 23.198ZM26.1927 23.3412C25.5738 23.96 26.0199 24.9743 26.9109 24.9743C27.2691 24.9743 27.4413 24.9007 27.6494 24.6587C28.2208 23.9946 27.7871 23.0495 26.9109 23.0495C26.6164 23.0495 26.3939 23.1398 26.1927 23.3412ZM11.6708 26.3369C11.4699 26.4178 11.1683 27.0138 11.1683 27.33C11.1683 27.6892 11.7952 28.2772 12.1782 28.2772C12.6266 28.2772 13.1881 27.6847 13.1881 27.2116C13.1881 26.5201 12.3772 26.0527 11.6708 26.3369ZM9.98021 28.6337C9.82183 28.7921 9.74258 29.0297 9.74258 29.3466C9.74258 29.9784 10.0597 30.297 10.6884 30.297C11.3022 30.297 11.6436 29.9493 11.6436 29.3241C11.6436 28.7142 11.3177 28.3961 10.6931 28.3961C10.3762 28.3961 10.1386 28.4753 9.98021 28.6337ZM11.5156 30.7631C11.1285 31.1502 11.0843 31.4533 11.3421 31.9519C11.6406 32.5289 12.4157 32.6248 12.8964 32.144C13.5343 31.5062 13.0343 30.4159 12.1041 30.4159C11.9715 30.4159 11.7067 30.5721 11.5156 30.7631ZM14.9537 31.3078C14.2426 31.536 13.2899 32.3951 12.9469 33.1175C12.5705 33.9102 12.5689 35.1183 12.9429 35.9694C13.2509 36.6704 13.9251 37.3403 14.657 37.6726C15.3961 38.0082 16.7546 37.982 17.5248 37.6174C20.0846 36.4052 20.0525 32.6129 17.4726 31.4536C16.7868 31.1454 15.6626 31.0804 14.9537 31.3078ZM30.7966 31.3463C29.9642 31.6438 29.3899 32.1258 28.9589 32.8887C27.9958 34.5935 28.6997 36.7904 30.4753 37.6208C31.3476 38.0288 32.6353 38.0151 33.4909 37.5888C34.2431 37.2139 34.9464 36.3769 35.1649 35.5964C35.3574 34.9088 35.2739 33.5786 35.0058 33.0601C34.2132 31.5275 32.3792 30.7806 30.7966 31.3463ZM15.454 33.233C14.8877 33.5285 14.5814 33.9888 14.5814 34.5443C14.5814 35.4013 15.224 36 16.1435 36C16.7429 36 17.29 35.5629 17.4785 34.9336C17.5945 34.5465 17.5816 34.4117 17.3916 34.0292C16.9741 33.1886 16.1713 32.8587 15.454 33.233ZM31.2549 33.2468C30.8183 33.481 30.4158 34.1053 30.4158 34.5486C30.4158 34.9302 30.7078 35.4568 31.083 35.7519C31.4449 36.0366 32.2175 36.0796 32.6507 35.8393C33.6683 35.2746 33.5733 33.6507 32.4962 33.2008C31.9604 32.9768 31.7431 32.9849 31.2549 33.2468ZM20.7921 33.5918C20.3886 33.7326 20.0792 34.1445 20.0792 34.541C20.0792 35.5579 21.4696 35.9221 21.9327 35.0265C22.1419 34.6219 22.0679 34.0926 21.7655 33.8303C21.5271 33.6233 21.0422 33.5046 20.7921 33.5918ZM23.58 33.6181C23.0886 33.8172 22.8738 34.3756 23.071 34.9413C23.4127 35.9217 24.9505 35.633 24.9505 34.5885C24.9505 34.0534 24.7819 33.7899 24.3412 33.6363C23.9109 33.4862 23.9054 33.4861 23.58 33.6181ZM26.5375 33.6257C25.8922 33.8787 25.706 34.7466 26.1927 35.2331C26.7814 35.8219 27.7454 35.5078 27.8772 34.6842C27.9315 34.3451 27.8888 34.1976 27.6656 33.9534C27.3484 33.606 26.9115 33.4791 26.5375 33.6257Z" fill="#C75450"/>
<path fill-rule="evenodd" clip-rule="evenodd" d="M9.1788 9.05938C6.16858 12.0638 5.19171 13.1094 5.09963 13.4257C5.01955 13.7008 4.99056 18.6558 5.01408 28.0665L5.04949 42.2917L5.37896 42.621L5.7083 42.9505L23.6166 42.9847C33.4661 43.0036 41.7045 42.9866 41.9242 42.9471C42.1439 42.9076 42.4512 42.7477 42.6074 42.5915L42.8911 42.3078V24V5.69213L42.5994 5.40057L42.3078 5.10889H27.7224H13.1369L9.1788 9.05938ZM16.2772 11.4138C16.2772 15.5414 16.253 15.7865 15.8123 16.1249C15.6725 16.2322 14.5404 16.2707 11.4356 16.2734L7.24751 16.2772V28.5148V40.7524H23.9406H40.6336V24.0594V7.36631H28.4554H16.2772V11.4138ZM10.6931 10.7525L7.42739 14.0198H10.7236H14.0198V10.7525C14.0198 8.95542 14.006 7.48512 13.9893 7.48512C13.9725 7.48512 12.4891 8.95542 10.6931 10.7525ZM30.7423 10.2614C29.7867 10.6177 28.9693 11.4783 28.6831 12.4294C28.2936 13.7231 28.586 14.9381 29.5087 15.8608C30.2944 16.6466 31.0535 16.9257 32.1842 16.8445C34.014 16.7131 35.2801 15.3407 35.2833 13.4851C35.2857 12.1334 34.6283 11.0314 33.4615 10.4312C32.8377 10.1103 31.3901 10.0199 30.7423 10.2614ZM31.1642 12.2258C30.4413 12.6798 30.2231 13.5241 30.6487 14.2219C31.1027 14.9667 31.9812 15.1727 32.6837 14.6994C33.1752 14.3681 33.3821 13.9828 33.3843 13.3942C33.3884 12.3593 32.0627 11.6616 31.1642 12.2258ZM35.1035 15.856C34.2133 16.7462 35.4112 18.1155 36.3998 17.3378C36.6524 17.1392 36.7129 16.9917 36.7129 16.5742C36.7129 16.1567 36.6524 16.0093 36.3998 15.8106C35.9761 15.4772 35.4643 15.4952 35.1035 15.856ZM36.6179 17.9439C36.2703 18.2678 36.1825 18.6842 36.3765 19.0891C36.8388 20.0536 38.2574 19.7658 38.2574 18.7075C38.2574 17.8535 37.229 17.3745 36.6179 17.9439ZM35.0702 20.1165C34.4718 20.7534 34.9156 21.7425 35.7997 21.7425C36.3937 21.7425 36.7129 21.4104 36.7129 20.7921C36.7129 20.1667 36.3948 19.8416 35.783 19.8416C35.4615 19.8416 35.2529 19.922 35.0702 20.1165ZM15.436 20.6763C13.4013 21.0138 12.2198 23.0281 12.8244 25.1287C13.0686 25.9765 14.0987 26.9975 14.9718 27.2567C16.248 27.6357 17.3944 27.3872 18.3066 26.5339C19.1091 25.7833 19.416 25.1004 19.4185 24.0594C19.4239 21.8643 17.6024 20.317 15.436 20.6763ZM31.3496 20.6833C29.0437 21.0403 27.8033 23.6319 28.956 25.6841C30.2894 28.058 33.7367 27.9606 35.0071 25.5133C35.3022 24.9444 35.3602 23.5686 35.1196 22.8439C34.615 21.3248 33.0392 20.4217 31.3496 20.6833ZM15.7079 22.5498C15.3171 22.6105 14.6623 23.3119 14.5712 23.7676C14.5183 24.0318 14.5603 24.2907 14.7021 24.5755C15.3134 25.8028 16.775 25.7863 17.3915 24.5451C17.5793 24.1671 17.5938 24.0254 17.4827 23.6545C17.2544 22.8929 16.5045 22.4261 15.7079 22.5498ZM31.0344 22.8689C30.3032 23.4841 30.2468 24.4067 30.9002 25.0601C31.3485 25.5084 31.9015 25.622 32.4732 25.3831C33.5721 24.924 33.6804 23.3064 32.6507 22.735C32.1809 22.4743 31.4294 22.5366 31.0344 22.8689ZM20.3255 23.3625C19.7763 24.0607 20.208 24.9742 21.087 24.9742C21.8623 24.9742 22.294 24.2464 21.9327 23.5478C21.7264 23.1488 21.5343 23.0495 20.9692 23.0495C20.6813 23.0495 20.5038 23.1357 20.3255 23.3625ZM23.3746 23.198C23.0891 23.4148 22.9322 23.9277 23.0331 24.3154C23.2118 25.0026 24.3748 25.2103 24.802 24.6312C25.0515 24.2928 24.9852 23.5987 24.6756 23.3078C24.3657 23.0168 23.6885 22.9597 23.3746 23.198ZM26.1927 23.3412C25.5738 23.9599 26.0199 24.9742 26.9109 24.9742C27.2691 24.9742 27.4413 24.9007 27.6494 24.6587C28.2208 23.9945 27.7871 23.0495 26.9109 23.0495C26.6163 23.0495 26.3939 23.1398 26.1927 23.3412ZM11.6708 26.3369C11.4698 26.4178 11.1683 27.0138 11.1683 27.3299C11.1683 27.6892 11.7952 28.2772 12.1782 28.2772C12.6266 28.2772 13.1881 27.6847 13.1881 27.2116C13.1881 26.5201 12.3772 26.0527 11.6708 26.3369ZM9.98018 28.6336C9.82181 28.792 9.74256 29.0296 9.74256 29.3465C9.74256 29.9784 10.0597 30.297 10.6884 30.297C11.3022 30.297 11.6435 29.9492 11.6435 29.3241C11.6435 28.7142 11.3176 28.396 10.6931 28.396C10.3762 28.396 10.1386 28.4753 9.98018 28.6336ZM11.5156 30.7631C11.1285 31.1502 11.0843 31.4533 11.3421 31.9518C11.6406 32.5289 12.4157 32.6248 12.8964 32.1439C13.5343 31.5062 13.0342 30.4158 12.1041 30.4158C11.9715 30.4158 11.7066 30.5721 11.5156 30.7631ZM14.9536 31.3077C14.2426 31.536 13.2899 32.3951 12.9469 33.1175C12.5705 33.9102 12.5689 35.1183 12.9429 35.9693C13.2508 36.6703 13.9251 37.3403 14.657 37.6726C15.3961 38.0081 16.7546 37.982 17.5247 37.6174C20.0845 36.4051 20.0525 32.6129 17.4726 31.4535C16.7868 31.1453 15.6626 31.0803 14.9536 31.3077ZM30.7966 31.3462C29.9642 31.6437 29.3899 32.1258 28.9588 32.8886C27.9957 34.5935 28.6997 36.7903 30.4752 37.6208C31.3475 38.0288 32.6352 38.015 33.4909 37.5887C34.2431 37.2139 34.9464 36.3768 35.1649 35.5964C35.3573 34.9088 35.2739 33.5786 35.0058 33.0601C34.2132 31.5274 32.3792 30.7806 30.7966 31.3462ZM15.454 33.233C14.8877 33.5285 14.5814 33.9887 14.5814 34.5443C14.5814 35.4013 15.2239 36 16.1434 36C16.7428 36 17.29 35.5629 17.4785 34.9335C17.5945 34.5464 17.5815 34.4117 17.3915 34.0291C16.974 33.1885 16.1712 32.8587 15.454 33.233ZM31.2549 33.2467C30.8182 33.4809 30.4158 34.1053 30.4158 34.5486C30.4158 34.9302 30.7077 35.4568 31.083 35.7519C31.4449 36.0366 32.2175 36.0796 32.6507 35.8392C33.6683 35.2745 33.5733 33.6507 32.4962 33.2008C31.9604 32.9768 31.7431 32.9849 31.2549 33.2467ZM20.7921 33.5918C20.3886 33.7326 20.0792 34.1445 20.0792 34.541C20.0792 35.5579 21.4695 35.922 21.9327 35.0264C22.1419 34.6219 22.0679 34.0926 21.7655 33.8302C21.527 33.6233 21.0422 33.5046 20.7921 33.5918ZM23.58 33.618C23.0886 33.8172 22.8738 34.3756 23.071 34.9412C23.4127 35.9217 24.9505 35.633 24.9505 34.5885C24.9505 34.0534 24.7819 33.7898 24.3412 33.6362C23.9109 33.4862 23.9054 33.486 23.58 33.618ZM26.5375 33.6256C25.8922 33.8787 25.706 34.7465 26.1927 35.233C26.7814 35.8219 27.7454 35.5077 27.8772 34.6841C27.9315 34.345 27.8888 34.1976 27.6656 33.9533C27.3483 33.6059 26.9115 33.479 26.5375 33.6256Z" fill="white"/>
</g>
<defs>
<clipPath id="clip0_4897_298">
<rect width="48" height="48" fill="white"/>
</clipPath>
</defs>
</svg>
