<!--
  - Copyright (C) 2025 The Android Open Source Project
  -
  - Licensed under the Apache License, Version 2.0 (the "License");
  - you may not use this file except in compliance with the License.
  - You may obtain a copy of the License at
  -
  -      http://www.apache.org/licenses/LICENSE-2.0
  -
  - Unless required by applicable law or agreed to in writing, software
  - distributed under the License is distributed on an "AS IS" BASIS,
  - WITHOUT WARRANTIES OR CONDITIONS OF ANY KIND, either express or implied.
  - See the License for the specific language governing permissions and
  - limitations under the License.
  -->
<svg width="48" height="48" viewBox="0 0 48 48" fill="none" xmlns="http://www.w3.org/2000/svg"><rect width="48" height="48" rx="7.5" fill="#57965C"/><g filter="url(#filter0_d_5891_1625)"><path fill-rule="evenodd" clip-rule="evenodd" d="M10.843 22.73l24.974-10.288.015.015c-.126 7.658-5.018 16.88-16.395 19.789-1.398-2.373-5.466-7.585-8.674-9.236.028-.091.055-.185.08-.28z" fill="#F5BD14"/><path d="M21.34 10.394l-1.875 5.246-.239-.308a17.767 17.767 0 00-3.803-3.636L18.74 8l-.17 4.035 2.772-1.641z" fill="#F86932"/><path d="M13.502 26.497a7.62 7.62 0 100-15.24 7.62 7.62 0 000 15.24z" fill="#FFCC32"/><path d="M13.283 16.303l2.589-.85m-.962 2.064l-.97-2.96" stroke="#151C1F" stroke-width=".984" stroke-linecap="round"/><path fill-rule="evenodd" clip-rule="evenodd" d="M5.881 18.963c.074 9.105 6.17 17.408 15.384 19.877 7.041 1.887 14.21-.088 19.258-4.627a20.713 20.713 0 01-6.726-.667 20.678 20.678 0 01-12.597-9.67L5.88 18.963z" fill="#FFCC32"/><path fill-rule="evenodd" clip-rule="evenodd" d="M41.706 15.854l-25.46 8.701c-.034.096-.068.19-.103.282 3.086 1.87 6.784 7.35 8.015 9.813 2.436-.446 4.604-1.192 6.515-2.164a6.987 6.987 0 01-1.949-1.225l-.15-.134a.433.433 0 11.575-.648l.151.134a6.123 6.123 0 002.4 1.315c.256-.149.508-.302.755-.459a6.988 6.988 0 01-1.185-.658l-.166-.114a.433.433 0 01.492-.714l.166.115c.489.337 1.02.598 1.572.78.241-.172.477-.347.708-.526a7.087 7.087 0 01-.391-.25l-.166-.116a.433.433 0 11.492-.713l.166.115c.2.138.408.263.621.376 4.432-3.777 6.71-8.987 7.117-13.723a18.016 18.016 0 00-.175-.187z" fill="#FFCC32"/></g><defs><filter id="filter0_d_5891_1625" x="2.131" y="5.75" width="43.5" height="39.052" filterUnits="userSpaceOnUse" color-interpolation-filters="sRGB"><feFlood flood-opacity="0" result="BackgroundImageFix"/><feColorMatrix in="SourceAlpha" values="0 0 0 0 0 0 0 0 0 0 0 0 0 0 0 0 0 0 127 0" result="hardAlpha"/><feOffset dy="1.5"/><feGaussianBlur stdDeviation="1.875"/><feComposite in2="hardAlpha" operator="out"/><feColorMatrix values="0 0 0 0 0 0 0 0 0 0 0 0 0 0 0 0 0 0 0.25 0"/><feBlend in2="BackgroundImageFix" result="effect1_dropShadow_5891_1625"/><feBlend in="SourceGraphic" in2="effect1_dropShadow_5891_1625" result="shape"/></filter></defs></svg>