<svg width="48" height="48" viewBox="0 0 48 48" fill="none" xmlns="http://www.w3.org/2000/svg"><rect width="48" height="48" rx="7.5" fill="#62B543"/><g filter="url(#filter0_d_4961_862)"><path fill-rule="evenodd" clip-rule="evenodd" d="M10.843 22.73l24.974-10.288.015.015c-.126 7.658-5.018 16.88-16.395 19.789-1.398-2.373-5.466-7.585-8.674-9.236.028-.091.055-.185.08-.28z" fill="#F5BD14"/><path d="M21.34 10.394l-1.875 5.246-.239-.308a17.767 17.767 0 0 0-3.803-3.636L18.74 8l-.17 4.035 2.772-1.641z" fill="#F86932"/><path d="M13.502 26.497a7.62 7.62 0 1 0 0-15.24 7.62 7.62 0 0 0 0 15.24z" fill="#FFCC32"/><path d="M13.283 16.303l2.589-.85m-.962 2.064l-.97-2.96" stroke="#151C1F" stroke-width=".984" stroke-linecap="round"/><path fill-rule="evenodd" clip-rule="evenodd" d="M5.881 18.963c.074 9.105 6.17 17.408 15.384 19.877 7.041 1.887 14.21-.088 19.258-4.627a20.713 20.713 0 0 1-6.726-.667 20.678 20.678 0 0 1-12.597-9.67L5.88 18.963z" fill="#FFCC32"/><path fill-rule="evenodd" clip-rule="evenodd" d="M41.706 15.854l-25.46 8.701c-.034.096-.068.19-.103.282 3.086 1.87 6.784 7.35 8.015 9.813 2.436-.446 4.604-1.192 6.515-2.164a6.987 6.987 0 0 1-1.949-1.225l-.15-.134a.433.433 0 1 1 .575-.648l.151.134a6.123 6.123 0 0 0 2.4 1.315c.256-.149.508-.302.755-.459a6.988 6.988 0 0 1-1.185-.658l-.166-.114a.433.433 0 0 1 .492-.714l.166.115c.489.337 1.02.598 1.572.78.241-.172.477-.347.708-.526a7.087 7.087 0 0 1-.391-.25l-.166-.116a.433.433 0 1 1 .492-.713l.166.115c.2.138.408.263.621.376 4.432-3.777 6.71-8.987 7.117-13.723a18.016 18.016 0 0 0-.175-.187z" fill="#FFCC32"/></g><defs><filter id="filter0_d_4961_862" x="2.131" y="5.75" width="43.5" height="39.052" filterUnits="userSpaceOnUse" color-interpolation-filters="sRGB"><feFlood flood-opacity="0" result="BackgroundImageFix"/><feColorMatrix in="SourceAlpha" values="0 0 0 0 0 0 0 0 0 0 0 0 0 0 0 0 0 0 127 0" result="hardAlpha"/><feOffset dy="1.5"/><feGaussianBlur stdDeviation="1.875"/><feComposite in2="hardAlpha" operator="out"/><feColorMatrix values="0 0 0 0 0 0 0 0 0 0 0 0 0 0 0 0 0 0 0.25 0"/><feBlend in2="BackgroundImageFix" result="effect1_dropShadow_4961_862"/><feBlend in="SourceGraphic" in2="effect1_dropShadow_4961_862" result="shape"/></filter></defs></svg>