<svg width="48" height="48" viewBox="0 0 48 48" fill="none" xmlns="http://www.w3.org/2000/svg">
<g clip-path="url(#clip0_4897_283)">
<path fill-rule="evenodd" clip-rule="evenodd" d="M5.72679 0.145136C4.35009 0.439518 3.14065 1.11694 2.08579 2.18439C1.28386 2.99602 0.711973 3.93408 0.325787 5.07104L0.0437326 5.90164L0.0169785 23.5628C-0.00295592 36.6786 0.0163665 41.3928 0.0919075 41.8798C0.523383 44.6598 2.58397 46.9439 5.39586 47.759L6.07652 47.9563H24H41.9235L42.6155 47.7559C43.9092 47.3813 44.983 46.7485 45.9055 45.8174C46.8905 44.8233 47.7194 43.2435 47.8762 42.0617C47.9089 41.8153 47.9698 41.5925 48.0116 41.5667C48.1111 41.5051 48.1114 6.29508 48.0119 6.29508C47.9704 6.29508 47.9134 6.12782 47.8854 5.9235C47.8573 5.71908 47.7371 5.26444 47.6182 4.91296C46.8267 2.57425 44.8231 0.759256 42.3885 0.175562C41.6739 0.00428323 41.354 0.00131056 24 0.0077805C8.66607 0.0133761 6.2582 0.0314745 5.72679 0.145136ZM0.0428583 24C0.0428583 33.7137 0.0530878 37.6745 0.0655905 32.8018C0.0780933 27.9291 0.0780933 19.9816 0.0655905 15.1405C0.0530878 10.2996 0.0428583 14.2863 0.0428583 24ZM6.40614 9.30999C6.25077 9.37749 6.04399 9.56284 5.9466 9.72179C5.77199 10.0069 5.76981 10.1135 5.79184 17.3401L5.81422 24.6692L6.14078 24.9685L6.46743 25.2678H9.53313C12.898 25.2678 12.9806 25.2561 13.2444 24.7461C13.3307 24.5791 13.3771 24.2438 13.3771 23.7858V23.082L16.765 23.0814C18.7006 23.0812 20.2842 23.0444 20.459 22.9956C20.686 22.9323 21.1824 22.4922 22.3817 21.2912L23.9983 19.672L25.6176 21.2897C26.8012 22.4721 27.3188 22.9308 27.5413 22.9946C27.7206 23.046 29.2396 23.082 31.2344 23.082H34.623V23.7858C34.623 24.2438 34.6693 24.5791 34.7556 24.7461C35.0194 25.2561 35.102 25.2678 38.4669 25.2678H41.5326L41.8593 24.9685L42.1858 24.6692L42.2082 17.3401C42.2302 10.1109 42.2281 10.007 42.0533 9.72153C41.7355 9.2028 41.5847 9.18033 38.4262 9.18033C35.3341 9.18033 35.175 9.20157 34.8125 9.66243C34.6504 9.86841 34.623 10.0157 34.623 10.6785V11.4536H24H13.3771V10.6785C13.3771 9.80162 13.2423 9.5235 12.7094 9.3009C12.287 9.12437 6.81488 9.13224 6.40614 9.30999ZM8.04373 17.224V22.9945H9.57379H11.1038V17.224V11.4536H9.57379H8.04373V17.224ZM36.8962 17.224V22.9945H38.4262H39.9563V17.224V11.4536H38.4262H36.8962V17.224ZM13.3771 17.2678V20.8087H16.4596H19.5421L22.077 18.2675C23.4713 16.8698 24.7183 15.6698 24.8481 15.6008C25.1523 15.4393 25.733 15.4402 26.0472 15.6027C26.4854 15.8293 26.7172 16.616 26.4816 17.0768C26.4279 17.1818 26.2224 17.4355 26.0249 17.6407L25.6659 18.0136L27.0614 19.4111L28.457 20.8087H31.54H34.623V17.2678V13.7268H24H13.3771V17.2678ZM23.388 24.5561C23.1951 24.6751 22.589 25.6294 21.0973 28.1623C19.9817 30.0567 18.9897 31.7861 18.8928 32.0055C18.5911 32.689 18.448 33.4053 18.4494 34.226C18.452 35.8424 18.9443 37.0446 20.0637 38.1689C21.2152 39.3254 22.3742 39.808 24 39.808C25.6238 39.808 26.7811 39.326 27.9377 38.168C28.7409 37.3637 29.1219 36.7134 29.3792 35.7075C29.5902 34.8825 29.6071 33.6492 29.4174 32.9145C29.211 32.1152 28.9382 31.5986 26.8565 28.0656C25.4815 25.7319 24.8443 24.7301 24.6461 24.5902C24.3007 24.3462 23.752 24.3313 23.388 24.5561ZM22.51 30.3078C21.698 31.688 20.9592 33.0367 20.8682 33.3048C20.6403 33.9768 20.695 34.9293 20.9994 35.5864C21.6304 36.9482 23.1233 37.7583 24.5278 37.501C26.0951 37.214 27.1781 35.9851 27.2617 34.399C27.2932 33.8018 27.2667 33.6146 27.0887 33.1749C26.9173 32.7517 24.253 28.1034 24.0458 27.8664C24.0131 27.829 23.322 28.9277 22.51 30.3078Z" fill="#62B543"/>
<path fill-rule="evenodd" clip-rule="evenodd" d="M6.40613 9.30996C6.25077 9.37746 6.04399 9.56281 5.94659 9.72176C5.77199 10.0069 5.76981 10.1135 5.79184 17.34L5.81422 24.6692L6.14078 24.9685L6.46742 25.2677H9.53313C12.898 25.2677 12.9806 25.2561 13.2444 24.746C13.3307 24.579 13.3771 24.2438 13.3771 23.7858V23.0819L16.765 23.0814C18.7006 23.0812 20.2842 23.0443 20.459 22.9956C20.686 22.9323 21.1824 22.4922 22.3817 21.2912L23.9983 19.672L25.6176 21.2897C26.8012 22.4721 27.3188 22.9308 27.5413 22.9946C27.7206 23.046 29.2396 23.0819 31.2344 23.0819H34.623V23.7858C34.623 24.2438 34.6693 24.579 34.7556 24.746C35.0194 25.2561 35.102 25.2677 38.4669 25.2677H41.5326L41.8592 24.9685L42.1858 24.6692L42.2082 17.34C42.2302 10.1108 42.2281 10.007 42.0533 9.7215C41.7355 9.20277 41.5847 9.1803 38.4262 9.1803C35.3341 9.1803 35.175 9.20155 34.8125 9.6624C34.6504 9.86839 34.623 10.0157 34.623 10.6784V11.4535H24H13.3771V10.6784C13.3771 9.80159 13.2423 9.52347 12.7094 9.30087C12.287 9.12434 6.81488 9.13221 6.40613 9.30996ZM8.04373 17.224V22.9945H9.57378H11.1038V17.224V11.4535H9.57378H8.04373V17.224ZM36.8962 17.224V22.9945H38.4262H39.9563V17.224V11.4535H38.4262H36.8962V17.224ZM13.3771 17.2677V20.8087H16.4596H19.5421L22.077 18.2674C23.4713 16.8697 24.7183 15.6697 24.8481 15.6008C25.1523 15.4393 25.733 15.4401 26.0472 15.6027C26.4854 15.8293 26.7172 16.6159 26.4816 17.0768C26.4279 17.1818 26.2224 17.4355 26.0249 17.6406L25.6659 18.0135L27.0614 19.4111L28.457 20.8087H31.5399H34.623V17.2677V13.7267H24H13.3771V17.2677ZM23.388 24.556C23.1951 24.6751 22.589 25.6293 21.0973 28.1622C19.9817 30.0566 18.9897 31.786 18.8928 32.0055C18.5911 32.689 18.448 33.4053 18.4494 34.226C18.452 35.8424 18.9443 37.0446 20.0637 38.1689C21.2152 39.3253 22.3742 39.808 24 39.808C25.6238 39.808 26.7811 39.326 27.9377 38.168C28.7409 37.3636 29.1219 36.7133 29.3792 35.7074C29.5902 34.8825 29.6071 33.6492 29.4174 32.9145C29.211 32.1152 28.9382 31.5986 26.8565 28.0655C25.4815 25.7319 24.8443 24.7301 24.6461 24.5901C24.3007 24.3462 23.752 24.3312 23.388 24.556ZM22.51 30.3078C21.698 31.688 20.9592 33.0366 20.8682 33.3048C20.6403 33.9768 20.695 34.9293 20.9994 35.5864C21.6304 36.9482 23.1233 37.7583 24.5278 37.501C26.0951 37.214 27.1781 35.985 27.2617 34.3989C27.2932 33.8018 27.2667 33.6146 27.0887 33.1749C26.9173 32.7516 24.253 28.1034 24.0458 27.8664C24.0131 27.829 23.322 28.9276 22.51 30.3078Z" fill="white"/>
</g>
<defs>
<clipPath id="clip0_4897_283">
<rect width="48" height="48" fill="white"/>
</clipPath>
</defs>
</svg>
