<svg width="48" height="48" viewBox="0 0 48 48" fill="none" xmlns="http://www.w3.org/2000/svg">
<g clip-path="url(#clip0_4897_282)">
<path fill-rule="evenodd" clip-rule="evenodd" d="M5.47366 0.198419C3.37261 0.773575 1.72408 2.13066 0.785872 4.05751C-0.050128 5.77465 -2.27472e-05 4.50312 -2.27472e-05 24C-2.27472e-05 43.4847 -0.0505491 42.2016 0.785451 43.9384C1.60692 45.645 3.18787 47.0463 4.97735 47.6537L5.84208 47.9472L23.6842 47.9767C43.7374 48.0098 42.27 48.0654 43.981 47.207C46.0051 46.1915 47.4528 44.2562 47.8308 42.0606C47.8988 41.6661 47.9883 41.3772 48.0298 41.4189C48.0712 41.4605 48.0998 33.5705 48.093 23.8857C48.0863 14.2008 48.0555 6.37185 48.0244 6.4879C47.99 6.61628 47.9169 6.40972 47.8377 5.96042C47.6558 4.92964 47.3296 4.12598 46.7258 3.22115C45.8164 1.85869 44.5902 0.914199 42.9989 0.350648L42.1579 0.0527313L24.1579 0.0319489C7.20672 0.0123269 6.11798 0.0220324 5.47366 0.198419ZM9.23493 8.94064C7.09956 11.073 5.28503 12.9457 5.20261 13.1024C5.07492 13.3449 5.05261 15.5241 5.05261 27.7467C5.05261 38.1148 5.08524 42.1702 5.17019 42.3366C5.23482 42.4633 5.38882 42.649 5.51229 42.7493C5.72303 42.9204 6.8505 42.9317 23.9161 42.9339C37.2907 42.9356 42.1648 42.9045 42.3584 42.8161C42.9835 42.5307 42.9473 43.6837 42.9473 24C42.9473 4.31629 42.9835 5.46924 42.3584 5.18388C42.1658 5.0959 38.2169 5.06372 27.6063 5.06372H13.1172L9.23493 8.94064ZM0.0513457 24C0.0513457 33.6897 0.0637667 37.638 0.0789246 32.7741C0.0940825 27.9101 0.0940825 19.9822 0.0789246 15.1565C0.0637667 10.3307 0.0513457 14.3103 0.0513457 24ZM16.2105 11.4543V15.6294L15.9028 15.9378L15.5951 16.2461H11.4291H7.26314V28.4835V40.7209H24H40.7368V24V7.2791H28.4737H16.2105V11.4543ZM10.6842 10.7604L7.42229 14.0308H10.7111H14V10.7604C14 8.96174 13.9879 7.49009 13.973 7.49009C13.9582 7.49009 12.4782 8.96174 10.6842 10.7604ZM20.5932 14.4143C20.3162 14.6921 20.3158 14.6948 20.3158 16.4116V18.1305L18.6227 18.1641L16.9296 18.1978L16.6227 18.5423L16.3158 18.8869V20.5204V22.1538H14.6741C12.8931 22.1538 12.5599 22.2394 12.3247 22.7564C12.0912 23.2701 12.2957 24.0271 12.731 24.2606C12.8458 24.3222 13.6661 24.3692 14.6246 24.3692H16.3158V25.8989V27.4286H14.6789C12.8893 27.4286 12.5621 27.5091 12.3363 28.0058C12.1764 28.3573 12.1764 28.7152 12.3363 29.0667C12.5621 29.5633 12.8893 29.6439 14.6789 29.6439H16.3158V31.2774V32.9109L16.6227 33.2554L16.9296 33.6L18.6227 33.6336L20.3158 33.6673V35.3862C20.3158 37.0859 20.3188 37.1083 20.5828 37.373C20.9324 37.7232 21.2609 37.7968 21.7549 37.6351C22.4122 37.42 22.526 37.0621 22.5261 35.2088L22.5263 33.6527H24H25.4737V35.2404C25.4737 37.0315 25.5691 37.3708 26.1385 37.6049C26.6183 37.8021 27.1115 37.6944 27.4219 37.3249C27.6773 37.0205 27.6842 36.9686 27.6842 35.3398V33.6673L29.3772 33.6336L31.0704 33.6L31.3772 33.2554L31.6842 32.9109V31.2774V29.6439H33.3789H35.0737L35.4316 29.2853C35.8303 28.8856 35.8962 28.4689 35.6395 27.9713C35.3967 27.5008 35.0866 27.4286 33.3108 27.4286H31.6842V25.8989V24.3692H33.321C35.1106 24.3692 35.4379 24.2886 35.6637 23.7919C35.8906 23.2929 35.8196 22.9014 35.4316 22.5125L35.0737 22.1538H33.3789H31.6842V20.5204V18.8869L31.3772 18.5423L31.0702 18.1978L29.3772 18.1621L27.6842 18.1265V16.456C27.6842 14.8127 27.6798 14.7801 27.4117 14.4609C27.1821 14.1874 27.0649 14.1362 26.6679 14.1362C25.6288 14.1362 25.4737 14.4507 25.4737 16.5573V18.145H24H22.5263L22.5257 16.6945C22.5248 14.5269 22.3467 14.1362 21.3593 14.1362C20.9719 14.1362 20.8133 14.1937 20.5932 14.4143ZM18.5263 25.8989V31.4373H24H29.4737V25.8989V20.3604H24H18.5263V25.8989Z" fill="#62B543"/>
<path fill-rule="evenodd" clip-rule="evenodd" d="M9.23493 8.94064C7.09956 11.073 5.28503 12.9457 5.20261 13.1024C5.07493 13.3449 5.05261 15.5241 5.05261 27.7467C5.05261 38.1148 5.08524 42.1703 5.17019 42.3366C5.23482 42.4633 5.38882 42.649 5.5123 42.7493C5.72303 42.9204 6.85051 42.9317 23.9161 42.9339C37.2907 42.9356 42.1648 42.9045 42.3584 42.8161C42.9835 42.5307 42.9473 43.6837 42.9473 24C42.9473 4.31629 42.9835 5.46924 42.3584 5.18388C42.1658 5.0959 38.2169 5.06372 27.6063 5.06372H13.1172L9.23493 8.94064ZM16.2105 11.4543V15.6294L15.9028 15.9378L15.5951 16.2461H11.4291H7.26314V28.4835V40.7209H24H40.7368V24V7.27911H28.4737H16.2105V11.4543ZM10.6842 10.7604L7.4223 14.0308H10.7111H14V10.7604C14 8.96174 13.9879 7.49009 13.973 7.49009C13.9582 7.49009 12.4782 8.96174 10.6842 10.7604ZM20.5932 14.4143C20.3162 14.6921 20.3158 14.6948 20.3158 16.4116V18.1305L18.6227 18.1641L16.9296 18.1978L16.6227 18.5423L16.3158 18.8869V20.5204V22.1538H14.6741C12.8931 22.1538 12.5599 22.2394 12.3247 22.7564C12.0912 23.2701 12.2957 24.0271 12.731 24.2606C12.8458 24.3222 13.6661 24.3692 14.6246 24.3692H16.3158V25.8989V27.4286H14.6789C12.8893 27.4286 12.5621 27.5092 12.3363 28.0058C12.1764 28.3573 12.1764 28.7152 12.3363 29.0667C12.5621 29.5633 12.8893 29.6439 14.6789 29.6439H16.3158V31.2774V32.9109L16.6227 33.2554L16.9296 33.6L18.6227 33.6336L20.3158 33.6673V35.3862C20.3158 37.0859 20.3188 37.1083 20.5828 37.373C20.9324 37.7232 21.2609 37.7968 21.7549 37.6352C22.4122 37.42 22.526 37.0621 22.5261 35.2088L22.5263 33.6527H24H25.4737V35.2404C25.4737 37.0315 25.5691 37.3708 26.1385 37.6049C26.6183 37.8021 27.1115 37.6944 27.4219 37.3249C27.6773 37.0205 27.6842 36.9686 27.6842 35.3398V33.6673L29.3772 33.6336L31.0704 33.6L31.3772 33.2554L31.6842 32.9109V31.2774V29.6439H33.3789H35.0737L35.4316 29.2853C35.8303 28.8856 35.8962 28.4689 35.6395 27.9713C35.3967 27.5008 35.0866 27.4286 33.3108 27.4286H31.6842V25.8989V24.3692H33.321C35.1106 24.3692 35.4379 24.2886 35.6637 23.792C35.8906 23.2929 35.8196 22.9014 35.4316 22.5125L35.0737 22.1538H33.3789H31.6842V20.5204V18.8869L31.3772 18.5423L31.0702 18.1978L29.3772 18.1621L27.6842 18.1265V16.456C27.6842 14.8127 27.6798 14.7801 27.4117 14.4609C27.1821 14.1874 27.0649 14.1362 26.6679 14.1362C25.6288 14.1362 25.4737 14.4507 25.4737 16.5573V18.145H24H22.5263L22.5257 16.6945C22.5248 14.5269 22.3467 14.1362 21.3594 14.1362C20.9719 14.1362 20.8133 14.1937 20.5932 14.4143ZM18.5263 25.8989V31.4373H24H29.4737V25.8989V20.3604H24H18.5263V25.8989Z" fill="white"/>
</g>
<defs>
<clipPath id="clip0_4897_282">
<rect width="48" height="48" fill="white"/>
</clipPath>
</defs>
</svg>
