<svg width="48" height="48" viewBox="0 0 48 48" fill="none" xmlns="http://www.w3.org/2000/svg"><g clip-path="url(#clip0_4961_863)"><rect width="48" height="48" rx="6.75" fill="#62B543"/><path d="M41.25 42.375c.621 0 1.125-.504 1.125-1.125V6.75c0-.621-.504-1.125-1.125-1.125H13.5c-.298 0-.585.119-.796.33l-6.75 6.75c-.21.21-.329.497-.329.795v27.75c0 .621.504 1.125 1.125 1.125h34.5z" stroke="#fff" stroke-width="2.25" stroke-linecap="round" stroke-linejoin="round"/><path d="M31.125 20.25c0-.621-.504-1.125-1.125-1.125H18c-.621 0-1.125.504-1.125 1.125v12c0 .621.504 1.125 1.125 1.125h12c.621 0 1.125-.504 1.125-1.125v-12zM31.358 22.875h4.267M31.358 28.875h4.267M12.375 22.875h3.75M12.375 28.875h3.75M20.625 18.75v-4.125M27.375 18.75v-4.125M20.625 37.875V33.75M27.375 37.875V33.75M14.625 6v8.625h-8.25" stroke="#fff" stroke-width="2.25" stroke-linecap="round" stroke-linejoin="round"/></g><defs><clipPath id="clip0_4961_863"><path fill="#fff" d="M0 0h48v48H0z"/></clipPath></defs></svg>