<!--
  - Copyright (C) 2025 The Android Open Source Project
  -
  - Licensed under the Apache License, Version 2.0 (the "License");
  - you may not use this file except in compliance with the License.
  - You may obtain a copy of the License at
  -
  -      http://www.apache.org/licenses/LICENSE-2.0
  -
  - Unless required by applicable law or agreed to in writing, software
  - distributed under the License is distributed on an "AS IS" BASIS,
  - WITHOUT WARRANTIES OR CONDITIONS OF ANY KIND, either express or implied.
  - See the License for the specific language governing permissions and
  - limitations under the License.
  -->
<svg width="48" height="48" viewBox="0 0 48 48" fill="none" xmlns="http://www.w3.org/2000/svg"><g clip-path="url(#clip0_5891_1631)"><rect width="48" height="48" rx="6.75" fill="#A571E6"/><path d="M37.29 7.86l-5.04 7.612H36M34.5 23.093l5.04-7.62h-3.75M21.375 39c0 .621.504 1.125 1.125 1.125h3.75c.621 0 1.125-.504 1.125-1.125V21c0-.621-.504-1.125-1.125-1.125H22.5c-.621 0-1.125.504-1.125 1.125v18zM33.375 39c0 .621.504 1.125 1.125 1.125h3.75c.621 0 1.125-.504 1.125-1.125V28.5c0-.621-.504-1.125-1.125-1.125H34.5c-.621 0-1.125.504-1.125 1.125V39zM8.625 39c0 .621.504 1.125 1.125 1.125h4.5c.621 0 1.125-.504 1.125-1.125V12c0-.621-.504-1.125-1.125-1.125h-4.5c-.621 0-1.125.504-1.125 1.125v27z" stroke="#fff" stroke-width="2.25" stroke-linecap="round" stroke-linejoin="round"/></g><defs><clipPath id="clip0_5891_1631"><path fill="#fff" d="M0 0h48v48H0z"/></clipPath></defs></svg>