<svg width="48" height="48" viewBox="0 0 48 48" fill="none" xmlns="http://www.w3.org/2000/svg">
<g clip-path="url(#clip0_4897_293)">
<path fill-rule="evenodd" clip-rule="evenodd" d="M6.04305 0.0728443C5.45656 0.17112 4.60506 0.469564 3.94436 0.808443C2.01132 1.79991 0.626073 3.63382 0.1557 5.82428C0.0391094 6.36727 0.0334938 7.1972 0.0334938 23.9665C0.0334938 38.712 0.0484687 41.6151 0.126552 42.0084C0.752558 45.1607 3.20049 47.4774 6.38447 47.9307C7.04049 48.0241 40.8231 48.0244 41.5668 47.931C44.3332 47.5837 46.7142 45.6388 47.5879 43.0126C47.7813 42.4313 47.9319 41.6424 47.942 41.1576C47.9495 40.7977 47.9579 40.7705 48.0001 40.9707C48.0271 41.0996 48.0487 33.4176 48.0481 23.8996C48.0474 14.3816 48.0258 6.72971 48.0001 6.8954L47.9533 7.19666L47.9432 6.81909C47.9378 6.61149 47.8877 6.20145 47.8321 5.90796C47.2782 2.98371 44.9601 0.657146 42.0495 0.104242C41.5606 0.0113882 39.5795 0.000877745 23.9426 0.00784009C14.2856 0.0121246 6.23084 0.0413798 6.04305 0.0728443ZM7.3204 5.26983C7.11182 5.32058 6.76225 5.61052 6.65181 5.82441C6.56363 5.99512 6.5516 7.81952 6.5516 21.0077V35.9969L6.70255 36.2244C6.95753 36.6086 7.34052 36.7531 8.10338 36.7531H8.75773L8.7592 39.2803C8.76087 42.1074 8.77257 42.1871 9.23458 42.5171L9.45968 42.6778L15.7491 42.6956L22.0386 42.7133L22.2656 42.5601C22.5989 42.3352 22.7711 42.0368 22.8228 41.5945C22.955 40.4643 24.1317 40.0394 24.8525 40.8615C25.0722 41.1122 25.0978 41.1805 25.1687 41.7071C25.191 41.8728 25.2805 42.1166 25.3675 42.249C25.6899 42.7391 25.2803 42.7113 32.1855 42.7113C38.2141 42.7113 38.3855 42.7078 38.6367 42.5795C38.7786 42.507 38.9654 42.3338 39.0518 42.1945C39.2087 41.9419 39.209 41.9369 39.2293 39.3546L39.2496 36.7677L39.9647 36.743C40.7977 36.7142 41.0943 36.5834 41.3169 36.1466C41.4467 35.8918 41.4485 35.6787 41.4475 20.9734L41.4463 6.05858L41.2967 5.7908C41.1982 5.61433 41.0455 5.47167 40.8491 5.37239L40.5511 5.22177L24.0026 5.22953C14.9009 5.23381 7.39394 5.25196 7.3204 5.26983ZM0.032959 23.9665C0.032959 33.4845 0.0407139 37.3782 0.0502069 32.6193C0.0596999 27.8602 0.0596999 20.0728 0.0502069 15.3138C0.0407139 10.5548 0.032959 14.4485 0.032959 23.9665ZM8.82458 20.9875V34.477H24.0001H39.1756V20.9875V7.49792H24.0001H8.82458V20.9875ZM16.1382 9.70022C15.9948 9.80694 15.1641 10.6128 14.2922 11.491C12.5892 13.2064 12.4563 13.3877 12.5382 13.883C12.5775 14.1203 12.6909 14.2677 13.3473 14.9346L14.1106 15.7103L13.3828 17.1104C12.9825 17.8804 12.6169 18.627 12.5704 18.7694C12.4284 19.2044 12.5063 20.1229 12.7229 20.566C12.9373 21.0049 13.45 21.508 13.8909 21.7119C14.1981 21.854 14.284 21.8582 17.248 21.8764L20.2898 21.895L21.8608 23.4593C22.7249 24.3196 23.4975 25.0568 23.5778 25.0975C23.8578 25.2394 24.2925 25.1876 24.575 24.9787C24.7184 24.8726 25.5853 24.0291 26.5014 23.1042L28.167 21.4226H30.7663H33.3655L33.5295 21.587C33.6198 21.6773 33.6937 21.8233 33.6937 21.9113C33.6937 21.9994 33.3993 22.679 33.0395 23.4215L32.3854 24.7716L32.124 24.5035C31.7603 24.1306 31.3963 23.9989 31.0128 24.1018C30.7576 24.1702 30.5107 24.3877 29.1447 25.7472L27.5707 27.3138H23.9631H20.3555L18.785 25.7391C17.534 24.4848 17.1635 24.1506 16.9639 24.0964C16.441 23.9544 16.3623 24.0124 14.3951 25.9898C12.8441 27.5488 12.5717 27.852 12.5333 28.0626C12.4392 28.5774 12.5321 28.7019 14.431 30.6052C16.8798 33.0598 16.5553 33.0462 18.8219 30.789L20.4293 29.1883H24.0035H27.5777L29.1148 30.7348C29.9602 31.5854 30.7487 32.3235 30.867 32.375C31.1425 32.4949 31.4458 32.4942 31.6747 32.3731C31.774 32.3205 32.66 31.4683 33.6435 30.479L35.4318 28.6805V28.3275C35.4318 28.1333 35.3985 27.9087 35.3577 27.8282C35.3169 27.7478 34.9504 27.3446 34.5432 26.9322L33.8028 26.1825L34.6139 24.5153C35.06 23.5983 35.4606 22.7066 35.504 22.5338C35.7771 21.4476 35.2047 20.2446 34.1725 19.7354C33.8617 19.582 33.8517 19.5815 30.5182 19.5631L27.1756 19.5445L25.8719 18.248C25.1549 17.5349 24.5026 16.9182 24.4223 16.8774C24.2179 16.7737 23.7603 16.7851 23.5455 16.8993C23.4462 16.9521 22.6884 17.6751 21.8613 18.506L20.3577 20.0167H17.5296H14.7015L14.5374 19.8524C14.4472 19.762 14.3733 19.6109 14.3733 19.5165C14.3733 19.3514 14.8016 18.4352 15.2907 17.5537L15.5245 17.1325L15.8775 17.4669C16.2711 17.8397 16.4465 17.9069 16.8933 17.8565C17.1897 17.823 17.2476 17.7735 18.7784 16.2415L20.3576 14.6611H23.9988H27.64L29.2493 16.2678L30.8587 17.8745H31.211C31.4046 17.8745 31.6289 17.8411 31.7092 17.8004C31.9173 17.695 35.2207 14.3965 35.336 14.1791C35.3887 14.0796 35.4318 13.8397 35.4318 13.6459V13.2936L33.5731 11.4288C31.8443 9.69447 31.6949 9.56138 31.4378 9.52684C31.2858 9.50642 31.0768 9.51063 30.9734 9.53614C30.8504 9.56653 30.232 10.1347 29.1794 11.1846L27.5731 12.7866H23.9977H20.4224L18.8853 11.2424C18.0399 10.3931 17.267 9.65504 17.1678 9.60222C16.8605 9.43894 16.4351 9.47944 16.1382 9.70022ZM15.777 12.7534L14.809 13.7245L15.7611 14.6778L16.7132 15.6312L17.6828 14.6602L18.6525 13.6892L17.6987 12.7358L16.7449 11.7824L15.777 12.7534ZM30.3 12.7373L29.3483 13.6921L30.3018 14.6452L31.2552 15.5983L32.2071 14.6435L33.1588 13.6887L32.2053 12.7355L31.2519 11.7824L30.3 12.7373ZM23.0131 20.0343L22.0613 20.9891L23.0149 21.9423L23.9683 22.8954L24.936 21.9247L25.9036 20.954L24.9694 20.0167C24.4557 19.5013 24.0195 19.0795 24.0001 19.0795C23.9807 19.0795 23.5366 19.5092 23.0131 20.0343ZM15.7435 27.3141L14.8091 28.2517L15.7611 29.205L16.7132 30.1584L17.6652 29.205L18.6172 28.2517L17.6829 27.3141C17.1689 26.7985 16.7325 26.3766 16.7132 26.3766C16.6938 26.3766 16.2574 26.7985 15.7435 27.3141ZM30.3 27.3314L29.3483 28.2862L30.3018 29.2394L31.2552 30.1925L32.2229 29.2218L33.1905 28.2511L32.2563 27.3138C31.7426 26.7983 31.3064 26.3766 31.287 26.3766C31.2677 26.3766 30.8235 26.8062 30.3 27.3314ZM11.0307 38.5941V40.4352H11.8664H12.702V39.7814C12.702 39.0354 12.8024 38.7617 13.1675 38.5121C13.6265 38.1983 14.1667 38.2337 14.5766 38.6045C14.8938 38.8916 14.9741 39.1495 14.9746 39.8829L14.975 40.4352H15.8017H16.6285L16.6601 39.7824C16.6963 39.0359 16.791 38.7951 17.1591 38.5139C17.3666 38.3554 17.4685 38.3264 17.8162 38.3264C18.164 38.3264 18.2658 38.3554 18.4733 38.5139C18.851 38.8024 18.9193 38.9936 18.9193 39.7623V40.4352H19.8199H20.7204L20.898 40.0591C20.9957 39.8523 21.2667 39.4803 21.5003 39.2324C22.1853 38.5052 22.9957 38.1574 23.9974 38.1606C24.6247 38.1627 24.9784 38.2425 25.5358 38.5082C26.1114 38.7825 26.7814 39.4498 27.0469 40.0134L27.2424 40.4285L28.1282 40.4318L29.014 40.4352L29.0144 39.8829C29.0149 39.1495 29.0951 38.8916 29.4124 38.6045C29.8223 38.2337 30.3625 38.1983 30.8215 38.5121C31.1866 38.7617 31.287 39.0354 31.287 39.7814V40.4352H32.1561H33.0251L33.0262 39.7824C33.0276 38.9863 33.1584 38.6927 33.6206 38.4485C33.9936 38.2515 34.329 38.251 34.6991 38.4471C35.1479 38.6847 35.2981 39.0264 35.2981 39.8097V40.4352H36.1338H36.9694V38.5941V36.7531H24.0001H11.0307V38.5941Z" fill="#62B543"/>
<path fill-rule="evenodd" clip-rule="evenodd" d="M7.32032 5.26981C7.11174 5.32055 6.76217 5.61049 6.65173 5.82438C6.56355 5.9951 6.55151 7.8195 6.55151 21.0076V35.9969L6.70247 36.2244C6.95744 36.6086 7.34044 36.7531 8.10329 36.7531H8.75764L8.75911 39.2803C8.76078 42.1074 8.77248 42.187 9.2345 42.5171L9.45959 42.6778L15.7491 42.6955L22.0385 42.7133L22.2656 42.5601C22.5988 42.3352 22.771 42.0368 22.8227 41.5945C22.9549 40.4643 24.1316 40.0394 24.8524 40.8615C25.0722 41.1122 25.0977 41.1804 25.1686 41.7071C25.191 41.8728 25.2804 42.1166 25.3674 42.249C25.6898 42.7391 25.2802 42.7113 32.1854 42.7113C38.2141 42.7113 38.3854 42.7078 38.6366 42.5795C38.7785 42.507 38.9653 42.3338 39.0517 42.1945C39.2086 41.9419 39.209 41.9369 39.2292 39.3546L39.2495 36.7677L39.9646 36.743C40.7976 36.7142 41.0943 36.5834 41.3168 36.1465C41.4466 35.8918 41.4484 35.6787 41.4474 20.9734L41.4462 6.05856L41.2966 5.79078C41.1981 5.61431 41.0454 5.47165 40.849 5.37237L40.551 5.22174L24.0025 5.22951C14.9008 5.23379 7.39385 5.25193 7.32032 5.26981ZM8.82449 20.9874V34.477H24H39.1755V20.9874V7.49789H24H8.82449V20.9874ZM16.1381 9.7002C15.9947 9.80691 15.164 10.6127 14.2921 11.491C12.5892 13.2064 12.4562 13.3877 12.5381 13.883C12.5775 14.1203 12.6908 14.2676 13.3472 14.9346L14.1105 15.7103L13.3827 17.1103C12.9824 17.8804 12.6168 18.627 12.5703 18.7694C12.4283 19.2044 12.5063 20.1229 12.7228 20.566C12.9372 21.0048 13.4499 21.5079 13.8908 21.7118C14.198 21.854 14.2839 21.8582 17.2479 21.8764L20.2897 21.895L21.8607 23.4593C22.7248 24.3196 23.4974 25.0568 23.5777 25.0975C23.8577 25.2394 24.2924 25.1876 24.5749 24.9787C24.7183 24.8726 25.5852 24.029 26.5013 23.1042L28.167 21.4226H30.7662H33.3654L33.5295 21.5869C33.6197 21.6773 33.6936 21.8232 33.6936 21.9113C33.6936 21.9994 33.3992 22.6789 33.0394 23.4214L32.3853 24.7715L32.1239 24.5035C31.7602 24.1305 31.3963 23.9989 31.0127 24.1017C30.7575 24.1702 30.5106 24.3877 29.1446 25.7472L27.5706 27.3138H23.963H20.3555L18.785 25.7391C17.534 24.4848 17.1635 24.1506 16.9638 24.0964C16.4409 23.9544 16.3622 24.0124 14.395 25.9898C12.844 27.5488 12.5716 27.852 12.5332 28.0626C12.4391 28.5774 12.5321 28.7018 14.4309 30.6052C16.8797 33.0598 16.5552 33.0462 18.8219 30.7889L20.4293 29.1883H24.0035H27.5777L29.1147 30.7348C29.9601 31.5854 30.7486 32.3235 30.8669 32.3749C31.1424 32.4949 31.4457 32.4942 31.6746 32.3731C31.7739 32.3205 32.6599 31.4682 33.6434 30.479L35.4317 28.6805V28.3275C35.4317 28.1333 35.3984 27.9087 35.3576 27.8282C35.3168 27.7478 34.9503 27.3446 34.5431 26.9322L33.8027 26.1825L34.6138 24.5153C35.0599 23.5982 35.4605 22.7066 35.5039 22.5337C35.777 21.4475 35.2046 20.2445 34.1724 19.7353C33.8616 19.582 33.8516 19.5815 30.5181 19.563L27.1755 19.5445L25.8718 18.248C25.1549 17.5349 24.5025 16.9181 24.4222 16.8774C24.2178 16.7737 23.7602 16.7851 23.5454 16.8993C23.4461 16.9521 22.6883 17.6751 21.8612 18.506L20.3577 20.0167H17.5295H14.7014L14.5374 19.8524C14.4471 19.762 14.3732 19.6108 14.3732 19.5164C14.3732 19.3514 14.8015 18.4351 15.2907 17.5537L15.5244 17.1325L15.8774 17.4669C16.271 17.8396 16.4464 17.9069 16.8932 17.8565C17.1897 17.823 17.2475 17.7734 18.7783 16.2415L20.3575 14.6611H23.9987H27.6399L29.2492 16.2678L30.8586 17.8745H31.2109C31.4045 17.8745 31.6288 17.8411 31.7091 17.8004C31.9172 17.695 35.2206 14.3965 35.3359 14.1791C35.3886 14.0796 35.4317 13.8397 35.4317 13.6459V13.2936L33.573 11.4288C31.8442 9.69444 31.6948 9.56136 31.4377 9.52681C31.2857 9.50639 31.0767 9.51061 30.9733 9.53612C30.8503 9.56651 30.2319 10.1347 29.1793 11.1846L27.573 12.7866H23.9976H20.4223L18.8852 11.2424C18.0398 10.3931 17.2669 9.65501 17.1677 9.60219C16.8604 9.43891 16.435 9.47941 16.1381 9.7002ZM15.7769 12.7534L14.8089 13.7244L15.761 14.6778L16.7131 15.6312L17.6827 14.6602L18.6524 13.6892L17.6986 12.7358L16.7448 11.7824L15.7769 12.7534ZM30.2999 12.7373L29.3482 13.692L30.3017 14.6452L31.2551 15.5983L32.207 14.6435L33.1588 13.6887L32.2052 12.7355L31.2518 11.7824L30.2999 12.7373ZM23.013 20.0343L22.0613 20.9891L23.0148 21.9423L23.9682 22.8954L24.9359 21.9247L25.9035 20.954L24.9693 20.0167C24.4556 19.5012 24.0194 19.0795 24 19.0795C23.9807 19.0795 23.5365 19.5091 23.013 20.0343ZM15.7434 27.3141L14.809 28.2516L15.761 29.205L16.7131 30.1584L17.6651 29.205L18.6172 28.2516L17.6828 27.3141C17.1688 26.7984 16.7325 26.3766 16.7131 26.3766C16.6937 26.3766 16.2573 26.7984 15.7434 27.3141ZM30.2999 27.3314L29.3482 28.2862L30.3017 29.2393L31.2551 30.1925L32.2228 29.2217L33.1904 28.251L32.2562 27.3138C31.7425 26.7983 31.3063 26.3766 31.2869 26.3766C31.2676 26.3766 30.8234 26.8062 30.2999 27.3314ZM11.0306 38.5941V40.4351H11.8663H12.7019V39.7813C12.7019 39.0354 12.8023 38.7617 13.1674 38.512C13.6264 38.1983 14.1666 38.2337 14.5765 38.6045C14.8938 38.8916 14.974 39.1494 14.9745 39.8828L14.9749 40.4351H15.8016H16.6284L16.66 39.7824C16.6962 39.0359 16.791 38.795 17.159 38.5139C17.3666 38.3554 17.4684 38.3263 17.8161 38.3263C18.1639 38.3263 18.2657 38.3554 18.4732 38.5139C18.8509 38.8024 18.9192 38.9936 18.9192 39.7623V40.4351H19.8198H20.7203L20.898 40.0591C20.9956 39.8523 21.2667 39.4803 21.5002 39.2324C22.1852 38.5052 22.9956 38.1574 23.9973 38.1606C24.6246 38.1627 24.9783 38.2425 25.5357 38.5082C26.1113 38.7824 26.7813 39.4498 27.0468 40.0134L27.2423 40.4284L28.1281 40.4318L29.0139 40.4351L29.0143 39.8828C29.0148 39.1494 29.0951 38.8916 29.4123 38.6045C29.8222 38.2337 30.3624 38.1983 30.8214 38.512C31.1865 38.7617 31.2869 39.0354 31.2869 39.7813V40.4351H32.156H33.025L33.0261 39.7824C33.0275 38.9863 33.1584 38.6927 33.6205 38.4485C33.9935 38.2515 34.3289 38.251 34.699 38.447C35.1478 38.6847 35.298 39.0264 35.298 39.8097V40.4351H36.1337H36.9693V38.5941V36.7531H24H11.0306V38.5941Z" fill="white"/>
</g>
<defs>
<clipPath id="clip0_4897_293">
<rect width="48" height="48" fill="white"/>
</clipPath>
</defs>
</svg>
