<svg width="48" height="48" viewBox="0 0 48 48" fill="none" xmlns="http://www.w3.org/2000/svg"><g clip-path="url(#clip0_4961_849)"><rect width="48" height="48" rx="6.75" fill="#C75450"/><path d="M41.25 42.375c.621 0 1.125-.504 1.125-1.125V6.75c0-.621-.504-1.125-1.125-1.125H13.5c-.298 0-.585.119-.796.33l-6.75 6.75c-.21.21-.329.497-.329.795v27.75c0 .621.504 1.125 1.125 1.125h34.5z" stroke="#fff" stroke-width="2.25" stroke-linecap="round" stroke-linejoin="round"/><path d="M14.625 6v8.625h-8.25M30.75 16.125a2.625 2.625 0 1 0 0-5.25 2.625 2.625 0 0 0 0 5.25zM30.75 26.625a2.625 2.625 0 1 0 0-5.25 2.625 2.625 0 0 0 0 5.25zM17.25 26.625a2.625 2.625 0 1 0 0-5.25 2.625 2.625 0 0 0 0 5.25zM30.75 37.125a2.625 2.625 0 1 0 0-5.25 2.625 2.625 0 0 0 0 5.25zM17.25 37.125a2.625 2.625 0 1 0 0-5.25 2.625 2.625 0 0 0 0 5.25zM33 22.26l1.305-1.305a2.639 2.639 0 0 0 0-3.727L33 15.921M15.2 32.085l-1.304-1.305a2.639 2.639 0 0 1 0-3.727l1.305-1.305M28.005 24h-8.01M27.375 34.5h-6.75" stroke="#fff" stroke-width="2.25" stroke-linecap="round" stroke-linejoin="round"/></g><defs><clipPath id="clip0_4961_849"><path fill="#fff" d="M0 0h48v48H0z"/></clipPath></defs></svg>