<svg width="48" height="48" viewBox="0 0 48 48" fill="none" xmlns="http://www.w3.org/2000/svg">
<g clip-path="url(#clip0_4897_276)">
<path fill-rule="evenodd" clip-rule="evenodd" d="M6.12767 0.148396C3.03233 0.686463 0.655087 3.11579 0.13409 6.27357C0.0601206 6.72206 0.00249139 14.5736 0.00336677 24.073C0.00482574 38.4965 0.0376525 41.2246 0.220461 42.0912C0.778078 44.7357 2.54795 46.7325 5.10639 47.6041L6.05472 47.9271L23.3435 47.9684C34.7749 47.9956 40.9647 47.9583 41.6137 47.8581C42.9844 47.6465 44.0631 47.2109 45.0465 46.4716C46.5001 45.379 47.6217 43.5309 47.8176 41.9055C47.8589 41.5626 47.9498 41.2469 48.0194 41.2039C48.0897 41.1604 48.1459 33.4427 48.1459 23.8369C48.1459 14.037 48.0908 6.58215 48.0187 6.62679C47.9487 6.66998 47.8579 6.42779 47.8169 6.08829C47.4676 3.19399 44.868 0.652469 41.7265 0.134098C40.7492 -0.0271179 7.0598 -0.0135495 6.12767 0.148396ZM10.12 6.73607C9.94856 6.81894 9.73526 7.04741 9.64582 7.24364C9.4121 7.75676 9.41545 40.2507 9.64932 40.764C9.74066 40.9644 10.013 41.1973 10.2547 41.2815C10.8343 41.4835 27.2558 41.4932 27.7856 41.2917C28.1651 41.1474 28.3556 40.8305 28.5186 40.0726C28.6454 39.483 29.2252 38.9544 29.7451 38.9544C30.2488 38.9544 31.076 39.5838 31.076 39.9669C31.076 40.5729 31.3964 41.1243 31.8379 41.2781C32.4178 41.4803 37.1672 41.4831 37.7454 41.2815C37.987 41.1973 38.2594 40.9644 38.3507 40.764C38.5841 40.2517 38.5881 7.75676 38.3548 7.24481C38.2656 7.04931 38.0328 6.81646 37.8373 6.72731C37.3513 6.50599 32.234 6.50934 31.7467 6.7314C31.3933 6.89232 31.076 7.5083 31.076 8.03309C31.076 8.35844 30.2714 9.04561 29.8904 9.04561C29.7321 9.04561 29.418 8.9502 29.1926 8.83362C28.8048 8.63302 28.6661 8.3901 28.3577 7.37086C28.2853 7.13189 28.0631 6.85381 27.8638 6.75299C27.3947 6.51562 10.6083 6.49957 10.12 6.73607ZM0.0706251 24C0.0706251 33.549 0.0881327 37.4339 0.109434 32.6332C0.130735 27.8324 0.130735 20.0197 0.109434 15.2715C0.0881327 10.5233 0.0706251 14.4511 0.0706251 24ZM11.6717 24V39.2462H19.016H26.3605L26.5331 38.8675C27.296 37.1929 29.1346 36.3912 30.9583 36.9375C31.7019 37.1603 32.7627 38.1001 32.9947 38.7416L33.1772 39.2462H34.7527H36.3283V35.38V31.5137H33.2579C30.1923 31.5137 30.1868 31.5131 29.8293 31.1555C29.3871 30.7135 29.3573 30.0226 29.7629 29.617C30.0366 29.3433 30.2492 29.3252 33.1915 29.3252H36.3283V28.312V27.2987L33.1784 27.2542C30.069 27.2103 30.0248 27.2054 29.7498 26.8653C29.4123 26.4482 29.3912 25.8568 29.6983 25.4186C29.9212 25.1002 29.984 25.0942 33.1269 25.0942H36.3283V24V22.9058H33.1269C29.984 22.9058 29.9212 22.8998 29.6983 22.5815C29.3912 22.1432 29.4123 21.5519 29.7498 21.1348C30.0248 20.7947 30.069 20.7897 33.1784 20.7458L36.3283 20.7013V19.688V18.6748H33.1915C30.2492 18.6748 30.0366 18.6567 29.7629 18.383C29.3284 17.9485 29.3738 17.1677 29.8556 16.7888C30.2165 16.5047 30.4253 16.4863 33.2841 16.4863H36.3283V12.6201V8.75382H34.7527H33.1772L32.9947 9.25847C32.7494 9.93689 31.6692 10.8609 30.8548 11.0887C30.0763 11.3069 28.8188 11.211 28.19 10.8858C27.5786 10.5696 26.8409 9.80092 26.6034 9.23236L26.4034 8.75382H19.0376H11.6717V24ZM16.0284 12.5339C15.6979 12.8011 15.682 12.903 15.6366 15.0309C15.5832 17.5419 15.6861 17.9872 16.376 18.2276C16.9805 18.4384 23.5889 18.4348 24.1954 18.2234C24.8534 17.994 24.9818 17.4096 24.9238 14.9047C24.8573 12.0315 25.2496 12.2553 20.2796 12.2553C16.6521 12.2553 16.3482 12.2753 16.0284 12.5339ZM15.9134 21.3936C15.6375 21.7443 15.611 21.9729 15.611 24C15.611 26.0271 15.6375 26.2557 15.9134 26.6065L16.2157 26.9909H20.2012C23.9078 26.9909 24.2107 26.9713 24.5309 26.7119C24.8677 26.4393 24.8754 26.3796 24.8754 24.0282C24.8754 21.868 24.8471 21.5921 24.5975 21.3162C24.3275 21.018 24.2016 21.0091 20.2677 21.0091H16.2157L15.9134 21.3936ZM17.7994 24V24.8025H20.2796H22.7599V24V23.1976H20.2796H17.7994V24ZM16.3187 29.7818C15.6929 30.011 15.5844 30.5182 15.6366 32.9692C15.701 35.9897 15.2911 35.7447 20.2796 35.7447C25.2681 35.7447 24.8583 35.9897 24.9227 32.9692C24.9761 30.4581 24.8732 30.0129 24.1833 29.7724C23.6211 29.5765 16.8571 29.5845 16.3187 29.7818ZM17.7994 32.6809V33.5563H20.2796H22.7599V32.6809V31.8055H20.2796H17.7994V32.6809Z" fill="#62B543"/>
<path fill-rule="evenodd" clip-rule="evenodd" d="M10.12 6.73604C9.94857 6.81891 9.73527 7.04738 9.64584 7.24361C9.41211 7.75673 9.41547 40.2507 9.64934 40.764C9.74067 40.9644 10.0131 41.1973 10.2547 41.2815C10.8343 41.4835 27.2559 41.4931 27.7856 41.2917C28.1651 41.1474 28.3556 40.8305 28.5186 40.0726C28.6454 39.483 29.2252 38.9544 29.7451 38.9544C30.2488 38.9544 31.076 39.5838 31.076 39.9669C31.076 40.5728 31.3964 41.1243 31.8379 41.2781C32.4178 41.4803 37.1672 41.4831 37.7454 41.2815C37.987 41.1973 38.2594 40.9644 38.3507 40.764C38.5841 40.2517 38.5881 7.75673 38.3548 7.24478C38.2657 7.04928 38.0328 6.81643 37.8373 6.72729C37.3513 6.50596 32.234 6.50932 31.7467 6.73137C31.3933 6.8923 31.076 7.50827 31.076 8.03306C31.076 8.35841 30.2714 9.04558 29.8905 9.04558C29.7322 9.04558 29.418 8.95017 29.1926 8.8336C28.8048 8.63299 28.6661 8.39007 28.3577 7.37084C28.2853 7.13186 28.0631 6.85378 27.8638 6.75296C27.3948 6.51559 10.6083 6.49954 10.12 6.73604ZM11.6718 24V39.2462H19.0161H26.3605L26.5331 38.8674C27.296 37.1928 29.1346 36.3911 30.9583 36.9375C31.7019 37.1603 32.7627 38.1 32.9947 38.7415L33.1772 39.2462H34.7528H36.3283V35.3799V31.5137H33.2579C30.1923 31.5137 30.1868 31.5131 29.8293 31.1555C29.3871 30.7134 29.3574 30.0226 29.7629 29.617C30.0366 29.3433 30.2492 29.3252 33.1915 29.3252H36.3283V28.312V27.2987L33.1784 27.2542C30.069 27.2103 30.0248 27.2053 29.7498 26.8653C29.4124 26.4481 29.3912 25.8568 29.6983 25.4185C29.9212 25.1002 29.984 25.0942 33.1269 25.0942H36.3283V24V22.9058H33.1269C29.984 22.9058 29.9212 22.8998 29.6983 22.5814C29.3912 22.1432 29.4124 21.5518 29.7498 21.1347C30.0248 20.7946 30.069 20.7897 33.1784 20.7458L36.3283 20.7013V19.688V18.6748H33.1915C30.2492 18.6748 30.0366 18.6567 29.7629 18.383C29.3285 17.9485 29.3738 17.1677 29.8556 16.7888C30.2165 16.5047 30.4253 16.4863 33.2842 16.4863H36.3283V12.6201V8.75379H34.7528H33.1772L32.9947 9.25845C32.7494 9.93687 31.6692 10.8608 30.8548 11.0887C30.0763 11.3068 28.8188 11.211 28.19 10.8858C27.5786 10.5696 26.8409 9.80089 26.6034 9.23233L26.4034 8.75379H19.0376H11.6718V24ZM16.0284 12.5338C15.6979 12.8011 15.682 12.9029 15.6366 15.0308C15.5832 17.5419 15.6861 17.9872 16.3761 18.2276C16.9805 18.4384 23.5889 18.4348 24.1954 18.2234C24.8534 17.994 24.9818 17.4095 24.9238 14.9046C24.8573 12.0315 25.2496 12.2553 20.2797 12.2553C16.6521 12.2553 16.3482 12.2753 16.0284 12.5338ZM15.9134 21.3935C15.6375 21.7443 15.611 21.9729 15.611 24C15.611 26.0271 15.6375 26.2557 15.9134 26.6064L16.2157 26.9909H20.2012C23.9078 26.9909 24.2107 26.9713 24.5309 26.7119C24.8677 26.4392 24.8754 26.3796 24.8754 24.0281C24.8754 21.868 24.8471 21.5921 24.5975 21.3162C24.3276 21.018 24.2017 21.0091 20.2677 21.0091H16.2157L15.9134 21.3935ZM17.7994 24V24.8024H20.2797H22.7599V24V23.1976H20.2797H17.7994V24ZM16.3187 29.7817C15.693 30.0109 15.5844 30.5182 15.6366 32.9691C15.701 35.9896 15.2912 35.7447 20.2797 35.7447C25.2682 35.7447 24.8583 35.9896 24.9227 32.9691C24.9761 30.4581 24.8732 30.0128 24.1833 29.7724C23.6211 29.5765 16.8571 29.5845 16.3187 29.7817ZM17.7994 32.6808V33.5562H20.2797H22.7599V32.6808V31.8055H20.2797H17.7994V32.6808Z" fill="white"/>
</g>
<defs>
<clipPath id="clip0_4897_276">
<rect width="48" height="48" fill="white"/>
</clipPath>
</defs>
</svg>
