<!--
  - Copyright (C) 2025 The Android Open Source Project
  -
  - Licensed under the Apache License, Version 2.0 (the "License");
  - you may not use this file except in compliance with the License.
  - You may obtain a copy of the License at
  -
  -      http://www.apache.org/licenses/LICENSE-2.0
  -
  - Unless required by applicable law or agreed to in writing, software
  - distributed under the License is distributed on an "AS IS" BASIS,
  - WITHOUT WARRANTIES OR CONDITIONS OF ANY KIND, either express or implied.
  - See the License for the specific language governing permissions and
  - limitations under the License.
  -->
<svg width="48" height="48" viewBox="0 0 48 48" fill="none" xmlns="http://www.w3.org/2000/svg"><g clip-path="url(#clip0_5891_1634)"><rect width="48" height="48" rx="6.75" fill="#4682FA"/><path d="M39.375 8.25c0-.621-.504-1.125-1.125-1.125H9.75c-.621 0-1.125.504-1.125 1.125v13.5a1.125 1.125 0 001.558 1.038l15.923-6.634a.375.375 0 01.519.346v3.75a1.125 1.125 0 001.503 1.06l10.5-3.75c.448-.16.747-.585.747-1.06V8.25z" stroke="#fff" stroke-width="2.25" stroke-linejoin="round"/><path d="M13.875 21v-9.375h20.25v7.5M8.625 39.75c0 .621.504 1.125 1.125 1.125h28.5c.621 0 1.125-.504 1.125-1.125v-13.5a1.125 1.125 0 00-1.52-1.053l-15.973 5.99a.375.375 0 01-.507-.352V27a1.125 1.125 0 00-1.568-1.034l-10.5 4.5a1.125 1.125 0 00-.682 1.034v8.25z" stroke="#fff" stroke-width="2.25" stroke-linejoin="round"/><path d="M13.875 35.625h20.25" stroke="#fff" stroke-width="2.25" stroke-linecap="round" stroke-linejoin="round"/></g><defs><clipPath id="clip0_5891_1634"><path fill="#fff" d="M0 0h48v48H0z"/></clipPath></defs></svg>