<svg width="16" height="16" viewBox="0 0 16 16" fill="none" xmlns="http://www.w3.org/2000/svg">
<path d="M14.0387 14.4815L11.875 10.1875L14.595 8.83741C14.7243 8.77322 14.6971 8.5813 14.5551 8.55547L11.5 8L14.4396 2.37278C14.5153 2.22792 14.3376 2.08366 14.2114 2.18748L9.5 6.0625L6.36649 3.32068C6.25536 3.22344 6.08538 3.32839 6.12254 3.47131L7.3 8L2.06995 7.09827C1.91746 7.07198 1.82986 7.26579 1.95035 7.36289L5.9 10.5455L3.83437 13.949C3.75199 14.0848 3.90943 14.2387 4.04329 14.1533L8.7 11.1818L13.8203 14.6729C13.9482 14.7602 14.1084 14.6198 14.0387 14.4815Z" fill="#FFF7F7" stroke="#DB3B4B"/>
</svg>
