<svg width="16" height="16" viewBox="0 0 16 16" fill="none" xmlns="http://www.w3.org/2000/svg"><rect x="1.5" y="3.5" width="13" height="9" rx=".5" stroke="#6C707E"/><path d="M5.15 5.25H6.15l1.961 5.25h-.937l-.446-1.264H4.617L4.205 10.5H3.24L5.15 5.25zm1.327 3.255L5.72 6.397l-.079-.326-.082.327-.71 2.107h1.628zm4.975-3.255h.888v5.25h-.888V5.25zm-1.31 5.34c-.344 0-.652-.084-.922-.251a1.74 1.74 0 0 1-.633-.713 2.309 2.309 0 0 1-.23-1.046c0-.393.077-.741.23-1.046.152-.305.363-.542.633-.709.27-.17.578-.255.923-.255.317 0 .596.07.836.21.24.14.426.337.559.592.135.256.205.55.21.886h-.266v.645h.266c-.005.335-.075.63-.21.884a1.436 1.436 0 0 1-.559.593c-.24.14-.519.21-.836.21zm.222-.799c.215 0 .405-.051.57-.154.168-.102.296-.245.386-.427.093-.183.14-.393.14-.63 0-.238-.047-.447-.14-.63a1.016 1.016 0 0 0-.386-.428 1.05 1.05 0 0 0-.566-.153 1.05 1.05 0 0 0-.566.154 1.06 1.06 0 0 0-.383.427c-.09.183-.135.392-.135.63s.045.447.135.63c.093.182.22.325.383.427.165.103.352.154.562.154z" fill="#6C707E"/></svg>