<svg width="16" height="16" viewBox="0 0 16 16" fill="none" xmlns="http://www.w3.org/2000/svg"><rect x="1.5" y="2.5" width="13" height="11" rx="1.5" stroke="#6C707E"/><path d="M11.274 8.346l-.31-.393.31.393zm-.007-.791l.303-.398-.303.398zM8.311 10.68l-.31-.393.31.393zM7.906 9h.5v-.5h-.5V9zM5.24 9v.5V9zm-.5-.5h-.5.5zm0-1h.5-.5zM7.906 7v.5h.5V7h-.5zm.402-1.695l.302-.398-.302.398zm3.275 3.433a1 1 0 0 0-.013-1.581l-.606.796.62.785zm-2.962 2.336l2.962-2.336-.619-.785-2.962 2.335.619.786zm-1.215-.59a.75.75 0 0 0 1.215.59L8 10.288a.25.25 0 0 1 .405.197h-1zm0-1.484v1.485h1V9h-1zm.5-.5H5.24v1h2.666v-1zm-2.666 0h-1a1 1 0 0 0 1 1v-1zm0 0v-1h-1v1h1zm0-1v-1a1 1 0 0 0-1 1h1zm0 0h2.666v-1H5.24v1zm2.166-1.996V7h1V5.504h-1zm1.204-.597a.75.75 0 0 0-1.204.597h1a.25.25 0 0 1-.4.2l.604-.797zm2.96 2.25l-2.96-2.25-.605.796 2.96 2.25.605-.796z" fill="#6C707E"/></svg>