<svg width="16" height="16" viewBox="0 0 16 16" fill="none" xmlns="http://www.w3.org/2000/svg"><path d="M5.5 5.85c.065 0 .124.041.149.104l.473 1.192 1.23.104c.065.005.12.05.14.116a.174.174 0 0 1-.048.18l-.937.84.286 1.256a.173.173 0 0 1-.062.176.155.155 0 0 1-.178.007L5.5 9.152l-1.053.673a.155.155 0 0 1-.178-.007.173.173 0 0 1-.062-.176l.286-1.256-.937-.84a.174.174 0 0 1-.048-.18.163.163 0 0 1 .14-.116l1.23-.104.473-1.192A.161.161 0 0 1 5.5 5.85z" fill="#CED0D6"/><rect x="1.5" y="4.5" width="13" height="7" rx="3.5" stroke="#CED0D6"/></svg>