<svg width="16" height="16" viewBox="0 0 16 16" fill="none" xmlns="http://www.w3.org/2000/svg"><path fill-rule="evenodd" clip-rule="evenodd" d="M8.447 14.658l5-2.5a1 1 0 0 0 .553-.894V4.5a1 1 0 0 0-.553-.894l-5-2.5a1 1 0 0 0-.894 0l-5 2.5A1 1 0 0 0 2 4.5v6.764a1 1 0 0 0 .553.894l5 2.5a1 1 0 0 0 .894 0zm0-3.5l2-1A1 1 0 0 0 11 9.264V6.5a1 1 0 0 0-.553-.894l-2-1a1 1 0 0 0-.894 0l-2 1A1 1 0 0 0 5 6.5v2.764a1 1 0 0 0 .553.894l2 1a1 1 0 0 0 .894 0z" fill="#E7EFFD"/><path d="M13.447 12.158l-.223-.447.223.447zm-5 2.5l-.223-.447.223.447zm5-11.052l-.223.447.223-.447zm-5-2.5l.224-.448-.224.448zm-.894 0L7.329.658l.224.448zm-5 2.5l.223.447-.223-.447zm0 8.552l.223-.447-.223.447zm5 2.5l.223-.447-.223.447zm2.894-4.5l.224.448-.224-.448zm-2 1l.224.448-.224-.448zm2-5.552l.224-.448-.224.448zm-2-1l-.223.447.223-.447zm-.894 0l-.224-.448.224.448zm-2 1l-.224-.448.224.448zm0 4.552l.223-.447-.223.447zm2 1l.223-.447-.223.447zm5.67.553l-5 2.5.448.895 5-2.5-.447-.895zm.277-.447a.5.5 0 0 1-.276.447l.447.895a1.5 1.5 0 0 0 .829-1.342h-1zm0-6.764v6.764h1V4.5h-1zm-.276-.447a.5.5 0 0 1 .276.447h1a1.5 1.5 0 0 0-.83-1.342l-.446.895zm-5-2.5l5 2.5.447-.895-5-2.5-.447.895zm-.448 0a.5.5 0 0 1 .448 0L8.67.658a1.5 1.5 0 0 0-1.342 0l.447.895zm-5 2.5l5-2.5L7.33.658l-5 2.5.447.895zM2.5 4.5a.5.5 0 0 1 .276-.447l-.447-.895A1.5 1.5 0 0 0 1.5 4.5h1zm0 6.764V4.5h-1v6.764h1zm.276.447a.5.5 0 0 1-.276-.447h-1a1.5 1.5 0 0 0 .83 1.342l.446-.895zm5 2.5l-5-2.5-.447.895 5 2.5.447-.895zm.448 0a.5.5 0 0 1-.448 0l-.447.895a1.5 1.5 0 0 0 1.342 0l-.447-.895zm2-4.5l-2 1 .447.895 2-1-.447-.895zm.276-.447a.5.5 0 0 1-.276.447l.447.895a1.5 1.5 0 0 0 .829-1.342h-1zm0-2.764v2.764h1V6.5h-1zm-.276-.447a.5.5 0 0 1 .276.447h1a1.5 1.5 0 0 0-.83-1.342l-.446.895zm-2-1l2 1 .447-.895-2-1-.447.895zm-.448 0a.5.5 0 0 1 .448 0l.447-.895a1.5 1.5 0 0 0-1.342 0l.447.895zm-2 1l2-1-.447-.895-2 1 .447.895zM5.5 6.5a.5.5 0 0 1 .276-.447l-.447-.895A1.5 1.5 0 0 0 4.5 6.5h1zm0 2.764V6.5h-1v2.764h1zm.276.447a.5.5 0 0 1-.276-.447h-1a1.5 1.5 0 0 0 .83 1.342l.446-.895zm2 1l-2-1-.447.895 2 1 .447-.895zm.448 0a.5.5 0 0 1-.448 0l-.447.895a1.5 1.5 0 0 0 1.342 0l-.447-.895z" fill="#3574F0"/><mask id="a" fill="#fff"><path fill-rule="evenodd" clip-rule="evenodd" d="M5.712 5.644L2.257 3.571l-.514.858 3.281 1.969a1 1 0 0 1 .529-.674l.159-.08zm5.263.754a1 1 0 0 0-.528-.674l-.159-.08 3.455-2.073.514.858-3.282 1.969zM7.5 11.25l.053.026a1 1 0 0 0 .894 0l.053-.026V15h-1v-3.75z"/></mask><path fill-rule="evenodd" clip-rule="evenodd" d="M5.712 5.644L2.257 3.571l-.514.858 3.281 1.969a1 1 0 0 1 .529-.674l.159-.08zm5.263.754a1 1 0 0 0-.528-.674l-.159-.08 3.455-2.073.514.858-3.282 1.969zM7.5 11.25l.053.026a1 1 0 0 0 .894 0l.053-.026V15h-1v-3.75z" fill="#3574F0"/><path d="M2.257 3.571l.515-.857-.858-.515-.514.858.857.514zm3.455 2.073l.447.894 1.63-.814-1.563-.937-.514.857zM1.742 4.43l-.857-.515-.514.858.857.514.515-.857zm3.282 1.969l-.514.857 1.185.712L6 6.618l-.976-.22zm.529-.674L6 6.618l-.447-.894zm4.894 0l.447-.895-.447.895zm.528.674l-.975.22.304 1.349 1.186-.712-.515-.857zm-.687-.754l-.514-.857-1.563.937 1.63.814.447-.894zm3.455-2.073l.857-.514-.514-.858-.858.515.515.857zm.514.858l.515.857.857-.514-.514-.858-.858.515zm-6.704 6.847l-.447.895.447-.895zM7.5 11.25l.447-.894L6.5 9.632v1.618h1zm.947.026l.447.895-.447-.895zm.053-.026h1V9.632l-1.447.724.447.894zm0 3.75v1h1v-1h-1zm-1 0h-1v1h1v-1zM1.743 4.429l3.454 2.073 1.03-1.715-3.455-2.073-1.03 1.715zm.857.514l.515-.857L1.4 3.056l-.515.858L2.6 4.944zm2.939.597L2.257 3.571 1.228 5.286l3.282 1.97L5.539 5.54zm.46 1.078l-.893-1.789a2 2 0 0 0-1.057 1.349l1.95.44zm0 0l.16-.08-.894-1.788-.16.08L6 6.617zm4 0l1.952-.44a2 2 0 0 0-1.057-1.349L10 6.618zm-.158-.08l.159.08.894-1.789-.159-.08-.894 1.79zm.962-.036l3.454-2.073-1.029-1.715-3.454 2.073 1.029 1.715zm2.082-2.416l.515.857 1.715-1.029-.515-.857-1.715 1.029zm.858-.515l-3.282 1.97 1.029 1.714 3.282-1.969-1.03-1.715zM8 10.382l-.053-.026-.894 1.788.053.027L8 10.382zm0 0l-.894 1.789a2 2 0 0 0 1.788 0L8 10.382zm.053-.026L8 10.382l.894 1.789.053-.027-.894-1.788zm-.553.894V15h2v-3.75h-2zm1 2.75h-1v2h1v-2zm0 1v-3.75h-2V15h2z" fill="#3574F0" mask="url(#a)"/></svg>