<svg width="16" height="16" viewBox="0 0 16 16" fill="none" xmlns="http://www.w3.org/2000/svg"><g clip-path="url(#clip0_235_256)"><path d="M12.243 1.636l2.121 2.121L3.621 14.5h-2.12L1.5 12.379 12.243 1.636z" stroke="#CED0D6"/><path d="M10 4l2 2M3.05 5.172l.707-.708M4.464 6.586l.707-.707M9.414 11.536l.707-.708M10.828 12.95l.708-.707" stroke="#CED0D6" stroke-linecap="round"/><path fill-rule="evenodd" clip-rule="evenodd" d="M6.293 7.707L2.214 3.628l1.414-1.414 4.079 4.079.707-.707-4.432-4.432a.5.5 0 0 0-.707 0l-2.121 2.12a.5.5 0 0 0 0 .708l4.432 4.432.707-.707zm2 2l-.707.707 4.444 4.444a.5.5 0 0 0 .707 0l2.121-2.121a.5.5 0 0 0 0-.707l-4.444-4.444-.707.707 4.09 4.09-1.414 1.415-4.09-4.09z" fill="#CED0D6"/></g><defs><clipPath id="clip0_235_256"><path fill="#fff" d="M0 0h16v16H0z"/></clipPath></defs></svg>