<svg width="16" height="16" viewBox="0 0 16 16" fill="none" xmlns="http://www.w3.org/2000/svg"><g clip-path="url(#clip0_235_122)" fill="#6C707E"><path d="M3.915 2.3h1.468L8.26 10H6.885l-.654-1.854H3.134L2.529 10H1.116l2.799-7.7zm1.947 4.774L4.751 3.983l-.115-.478-.122.478-1.039 3.091h2.387zM9.177 2.3h1.304V10H9.177V2.3zm3.223 7.832a2.42 2.42 0 0 1-1.232-.308 2.143 2.143 0 0 1-.825-.869c-.194-.374-.293-.807-.297-1.298h.39v-.946h-.39c.004-.491.103-.924.297-1.298.198-.374.473-.664.825-.869a2.42 2.42 0 0 1 1.232-.308c.506 0 .957.125 1.353.374.396.246.704.592.924 1.04.224.447.336.958.336 1.534 0 .576-.112 1.087-.336 1.535-.22.447-.528.795-.924 1.045a2.513 2.513 0 0 1-1.353.368zm-.33-1.171a1.502 1.502 0 0 0 1.386-.852c.136-.269.204-.577.204-.925 0-.348-.068-.656-.204-.924a1.502 1.502 0 0 0-.56-.627 1.514 1.514 0 0 0-.826-.226c-.311 0-.59.076-.836.226-.242.15-.43.36-.566.627a2.063 2.063 0 0 0-.198.924c0 .348.066.656.198.924.136.268.324.477.566.627.246.15.525.226.836.226z"/><rect x="1" y="12" width="14" height="1" rx=".5"/></g><defs><clipPath id="clip0_235_122"><path fill="#fff" d="M0 0h16v16H0z"/></clipPath></defs></svg>