<svg width="16" height="16" viewBox="0 0 16 16" fill="none" xmlns="http://www.w3.org/2000/svg"><g clip-path="url(#clip0_235_255)"><path d="M7 11l1.923 1.923a.1.1 0 0 0 .147-.007L14 7" stroke="#CED0D6" stroke-linecap="round"/><path d="M3.255 3.572h-1.48v-.918h.832a.971.971 0 0 0 .486-.117.761.761 0 0 0 .32-.333c.075-.144.112-.312.112-.504h.833V8H3.255V3.572zm5.088 3.55c.294 0 .547-.09.76-.27.213-.18.377-.439.49-.778.118-.342.176-.747.176-1.215 0-.471-.058-.877-.175-1.22-.114-.341-.278-.604-.49-.787a1.129 1.129 0 0 0-.761-.274c-.294 0-.548.091-.76.274-.214.18-.379.441-.496.783-.114.339-.17.744-.17 1.215 0 .471.056.878.17 1.22.117.338.282.6.495.782.213.18.467.27.761.27zm-.005.986c-.513 0-.961-.132-1.345-.396-.381-.267-.677-.645-.887-1.134-.207-.492-.31-1.065-.31-1.719 0-.657.103-1.232.31-1.724.21-.494.506-.875.887-1.142.384-.268.832-.401 1.345-.401s.962.133 1.346.4c.387.268.684.648.891 1.143.21.493.315 1.067.315 1.724 0 .654-.105 1.227-.315 1.719-.207.489-.504.867-.891 1.134-.384.264-.833.396-1.346.396z" fill="#CED0D6"/></g><defs><clipPath id="clip0_235_255"><path fill="#fff" d="M0 0h16v16H0z"/></clipPath></defs></svg>