<svg width="16" height="16" viewBox="0 0 16 16" fill="none" xmlns="http://www.w3.org/2000/svg"><path fill-rule="evenodd" clip-rule="evenodd" d="M13.25 5a.75.75 0 1 0 0-1.5.75.75 0 0 0 0 1.5zM14 7.25a.75.75 0 1 1-1.5 0 .75.75 0 0 1 1.5 0zM13.25 11a.75.75 0 1 0 0-1.5.75.75 0 0 0 0 1.5zm0 3a.75.75 0 1 0 0-1.5.75.75 0 0 0 0 1.5zM11 13.25a.75.75 0 1 1-1.5 0 .75.75 0 0 1 1.5 0zM10.25 11a.75.75 0 1 0 0-1.5.75.75 0 0 0 0 1.5zM11 7.25a.75.75 0 1 1-1.5 0 .75.75 0 0 1 1.5 0zM7.25 14a.75.75 0 1 0 0-1.5.75.75 0 0 0 0 1.5zM8 10.25a.75.75 0 1 1-1.5 0 .75.75 0 0 1 1.5 0zM4.25 14a.75.75 0 1 0 0-1.5.75.75 0 0 0 0 1.5z" fill="#CED0D6"/></svg>