<svg width="16" height="16" viewBox="0 0 16 16" fill="none" xmlns="http://www.w3.org/2000/svg"><path fill-rule="evenodd" clip-rule="evenodd" d="M2 4h1V3H2v1zm-1 .5a.5.5 0 0 0 .5.5h2a.5.5 0 0 0 .5-.5v-2a.5.5 0 0 0-.5-.5h-2a.5.5 0 0 0-.5.5v2zM13 4h1V3h-1v1zm-1 .5a.5.5 0 0 0 .5.5h2a.5.5 0 0 0 .5-.5v-2a.5.5 0 0 0-.5-.5h-2a.5.5 0 0 0-.5.5v2zM10 4H6V3h4v1zM5.5 5a.5.5 0 0 1-.5-.5v-2a.5.5 0 0 1 .5-.5h5a.5.5 0 0 1 .5.5v2a.5.5 0 0 1-.5.5h-5zm7.5 8h1v-1h-1v1zm-1 .5a.5.5 0 0 0 .5.5h2a.5.5 0 0 0 .5-.5v-2a.5.5 0 0 0-.5-.5h-2a.5.5 0 0 0-.5.5v2zM3 13H2v-1h1v1zm-1.5 1a.5.5 0 0 1-.5-.5v-2a.5.5 0 0 1 .5-.5h2a.5.5 0 0 1 .5.5v2a.5.5 0 0 1-.5.5h-2zM6 13h4v-1H6v1zm-1 .5a.5.5 0 0 0 .5.5h5a.5.5 0 0 0 .5-.5v-2a.5.5 0 0 0-.5-.5h-5a.5.5 0 0 0-.5.5v2zM14 9h-1V7h1v2zm-1.5 1a.5.5 0 0 1-.5-.5v-3a.5.5 0 0 1 .5-.5h2a.5.5 0 0 1 .5.5v3a.5.5 0 0 1-.5.5h-2zM2 9h1V7H2v2zm-1 .5a.5.5 0 0 0 .5.5h2a.5.5 0 0 0 .5-.5v-3a.5.5 0 0 0-.5-.5h-2a.5.5 0 0 0-.5.5v3zm9-.5H6V7h4v2zm-4.5 1a.5.5 0 0 1-.5-.5v-3a.5.5 0 0 1 .5-.5h5a.5.5 0 0 1 .5.5v3a.5.5 0 0 1-.5.5h-5z" fill="#6C707E"/></svg>