<svg width="16" height="16" viewBox="0 0 16 16" fill="none" xmlns="http://www.w3.org/2000/svg"><mask id="a" fill="#fff"><rect x="5" y="10" width="4" height="6" rx=".5" transform="rotate(-90 5 10)"/></mask><rect x="5" y="10" width="4" height="6" rx=".5" transform="rotate(-90 5 10)" stroke="#CED0D6" stroke-width="2" mask="url(#a)"/><mask id="b" fill="#fff"><rect x="1" y="10" width="4" height="3" rx=".5" transform="rotate(-90 1 10)"/></mask><rect x="1" y="10" width="4" height="3" rx=".5" transform="rotate(-90 1 10)" stroke="#CED0D6" stroke-width="2" mask="url(#b)"/><mask id="c" fill="#fff"><rect x="12" y="10" width="4" height="3" rx=".5" transform="rotate(-90 12 10)"/></mask><rect x="12" y="10" width="4" height="3" rx=".5" transform="rotate(-90 12 10)" stroke="#CED0D6" stroke-width="2" mask="url(#c)"/><mask id="d" fill="#fff"><rect x="1" y="14" width="3" height="14" rx=".5" transform="rotate(-90 1 14)"/></mask><rect x="1" y="14" width="3" height="14" rx=".5" transform="rotate(-90 1 14)" stroke="#CED0D6" stroke-width="2" mask="url(#d)"/><mask id="e" fill="#fff"><rect x="1" y="5" width="3" height="14" rx=".5" transform="rotate(-90 1 5)"/></mask><rect x="1" y="5" width="3" height="14" rx=".5" transform="rotate(-90 1 5)" stroke="#CED0D6" stroke-width="2" mask="url(#e)"/></svg>