<svg width="16" height="16" viewBox="0 0 16 16" fill="none" xmlns="http://www.w3.org/2000/svg"><path d="M3.18 3.6h1.602L7.92 12h-1.5l-.714-2.022H2.328L1.668 12H.126L3.18 3.6zm2.124 5.208L4.092 5.436l-.126-.522-.132.522L2.7 8.808h2.604zM8.921 3.6h1.422V12H8.92V3.6zm3.516 8.544c-.508 0-.956-.112-1.344-.336a2.338 2.338 0 0 1-.9-.948c-.212-.408-.32-.88-.324-1.416h.426V8.412h-.426c.004-.536.112-1.008.324-1.416.216-.408.516-.724.9-.948.388-.224.836-.336 1.344-.336.552 0 1.044.136 1.476.408.432.268.768.646 1.008 1.134.244.488.366 1.046.366 1.674 0 .628-.122 1.186-.366 1.674-.24.488-.576.868-1.008 1.14a2.742 2.742 0 0 1-1.476.402zm-.36-1.278c.34 0 .64-.082.9-.246a1.64 1.64 0 0 0 .612-.684 2.2 2.2 0 0 0 .222-1.008 2.2 2.2 0 0 0-.222-1.008 1.64 1.64 0 0 0-.612-.684 1.65 1.65 0 0 0-.9-.246c-.34 0-.644.082-.912.246a1.68 1.68 0 0 0-.618.684 2.25 2.25 0 0 0-.216 1.008c0 .38.072.716.216 1.008.148.292.354.52.618.684.268.164.572.246.912.246z" fill="#6C707E"/></svg>