<svg width="16" height="16" viewBox="0 0 16 16" fill="none" xmlns="http://www.w3.org/2000/svg"><path fill-rule="evenodd" clip-rule="evenodd" d="M13.903 9.08A6 6 0 1 0 7.942 14l.944.944a7 7 0 1 1 6.03-5.858 1.607 1.607 0 0 0-1.013-.006z" fill="#6C707E"/><path fill-rule="evenodd" clip-rule="evenodd" d="M15.33 10.177a.6.6 0 0 1 0 .849l-3.796 3.797a.6.6 0 0 1-.849 0l-2.006-2.006a.6.6 0 1 1 .849-.849l1.581 1.582 3.373-3.373a.6.6 0 0 1 .848 0z" fill="#3574F0"/><path d="M8 4v4l2.5 2.5" stroke="#6C707E" stroke-linecap="round" stroke-linejoin="round"/></svg>