<svg width="16" height="16" viewBox="0 0 16 16" fill="none" xmlns="http://www.w3.org/2000/svg"><circle cx="12.387" cy="13.22" r=".579" fill="#6C707E" stroke="#6C707E" stroke-width=".2"/><path d="M13.155 7.35a1.23 1.23 0 0 0-.63-.159c-.257 0-.476.057-.665.164a1.13 1.13 0 0 0-.437.455 1.289 1.289 0 0 0-.143.46c-.032.25-.234.484-.525.484h-.07a.499.499 0 0 1-.498-.518v-.011c.007-.066.016-.13.027-.193.045-.263.13-.509.256-.735v-.001c.203-.356.486-.633.845-.827.36-.198.767-.293 1.214-.293.436 0 .832.091 1.181.282.351.186.627.449.823.787.197.34.292.726.292 1.15a2.268 2.268 0 0 1-.587 1.56l-.001.001-.587.56a7.01 7.01 0 0 0-.428.396c-.084.087-.157.19-.217.312l-.001.002a.75.75 0 0 0-.08.348c0 .26-.21.47-.47.47h-.112a.497.497 0 0 1-.497-.496c0-.254.047-.49.147-.703.093-.197.21-.372.351-.522.132-.14.303-.301.51-.482.206-.183.367-.337.483-.463l.002-.002c.107-.113.2-.252.275-.418l.001-.003c.07-.15.11-.326.11-.533 0-.252-.053-.466-.152-.648a1.042 1.042 0 0 0-.414-.423l-.003-.002z" fill="#6C707E"/><path fill-rule="evenodd" clip-rule="evenodd" d="M2 4h12v1.337c.375.178.713.42 1 .714V4a1 1 0 0 0-1-1H2a1 1 0 0 0-1 1v8a1 1 0 0 0 1 1h8v-1H2V4z" fill="#6C707E"/></svg>