<svg width="16" height="16" viewBox="0 0 16 16" fill="none" xmlns="http://www.w3.org/2000/svg"><path fill-rule="evenodd" clip-rule="evenodd" d="M3 4h10a1 1 0 0 1 1 1v.371c.373.159.712.394 1 .69V5a2 2 0 0 0-2-2H3a2 2 0 0 0-2 2v6a2 2 0 0 0 2 2h7.039v-1H3a1 1 0 0 1-1-1V5a1 1 0 0 1 1-1z" fill="#CED0D6"/><circle cx="12.387" cy="13.22" r=".579" fill="#CED0D6" stroke="#CED0D6" stroke-width=".2"/><path d="M13.105 7.436h.001l.003.002.049-.087-.05.087a.942.942 0 0 1 .376.383c.09.166.14.364.14.601 0 .194-.037.355-.1.49v.001l-.002.003h0a1.402 1.402 0 0 1-.256.39h0l-.001.002h0l-.002.002h0a6.57 6.57 0 0 1-.477.456c-.207.182-.38.345-.515.488h0c-.15.158-.273.342-.37.548-.107.229-.156.48-.156.746 0 .33.267.597.597.597h.112a.57.57 0 0 0 .57-.57.65.65 0 0 1 .069-.304h0v-.002h.001c.056-.113.123-.208.2-.287.097-.1.236-.23.421-.39h0l.004-.004.587-.56h0l.004-.004h.001a2.367 2.367 0 0 0 .614-1.628c0-.44-.099-.844-.305-1.2a2.13 2.13 0 0 0-.862-.827 2.53 2.53 0 0 0-1.229-.293c-.461 0-.885.098-1.262.305a2.206 2.206 0 0 0-.883.865h0l-.001.002a2.399 2.399 0 0 0-.295.967h0v.017a.598.598 0 0 0 .598.622h.07c.35 0 .586-.282.623-.571.007-.051.016-.1.028-.147.024-.1.059-.193.104-.279a1.03 1.03 0 0 1 .398-.415c.173-.098.374-.15.615-.15.23 0 .42.05.581.144z" fill="#CED0D6" stroke="#CED0D6" stroke-width=".2"/></svg>