<svg width="16" height="16" viewBox="0 0 16 16" fill="none" xmlns="http://www.w3.org/2000/svg"><path fill-rule="evenodd" clip-rule="evenodd" d="M1.75 4.5a.75.75 0 1 0 0-1.5.75.75 0 0 0 0 1.5zm3 0a.75.75 0 1 0 0-1.5.75.75 0 0 0 0 1.5zm4-.75a.75.75 0 1 1-1.5 0 .75.75 0 0 1 1.5 0zm2.5.75a.75.75 0 1 0 0-1.5.75.75 0 0 0 0 1.5zM5.5 12.25a.75.75 0 1 1-1.5 0 .75.75 0 0 1 1.5 0zM8 13a.75.75 0 1 0 0-1.5.75.75 0 0 0 0 1.5zm4-.75a.75.75 0 1 1-1.5 0 .75.75 0 0 1 1.5 0zM1.75 13a.75.75 0 1 0 0-1.5.75.75 0 0 0 0 1.5zM15 3.75a.75.75 0 1 1-1.5 0 .75.75 0 0 1 1.5 0zm-.75 3.5a.75.75 0 1 0 0-1.5.75.75 0 0 0 0 1.5zm.75 5a.75.75 0 1 1-1.5 0 .75.75 0 0 1 1.5 0zm-.75-2a.75.75 0 1 0 0-1.5.75.75 0 0 0 0 1.5zM2.5 6.5a.75.75 0 1 1-1.5 0 .75.75 0 0 1 1.5 0zm-.75 3.75a.75.75 0 1 0 0-1.5.75.75 0 0 0 0 1.5z" fill="#6C707E"/></svg>