<svg width="48" height="48" viewBox="0 0 48 48" fill="none" xmlns="http://www.w3.org/2000/svg"><g clip-path="url(#clip0_5891_1628)"><rect width="48" height="48" rx="6.75" fill="#DB5C5C"/><path d="M41.25 42.375c.621 0 1.125-.504 1.125-1.125V6.75c0-.621-.504-1.125-1.125-1.125H13.5c-.298 0-.585.119-.796.33l-6.75 6.75c-.21.21-.329.497-.329.795v27.75c0 .621.504 1.125 1.125 1.125h34.5z" stroke="#fff" stroke-width="2.25" stroke-linecap="round" stroke-linejoin="round"/><path d="M14.625 6v8.625h-8.25" stroke="#fff" stroke-width="2.25" stroke-linecap="round" stroke-linejoin="round"/><path d="M21.067 24.938a.937.937 0 1 0 0-1.875.937.937 0 0 0 0 1.875zM24 24.938a.937.937 0 1 0 0-1.875.937.937 0 0 0 0 1.875zM26.933 24.938a.937.937 0 1 0 0-1.875.937.937 0 0 0 0 1.875zM21.067 35.513a.938.938 0 1 0 0-1.876.938.938 0 0 0 0 1.876zM24 35.513a.938.938 0 1 0 0-1.876.938.938 0 0 0 0 1.876zM26.933 35.513a.938.938 0 1 0 0-1.876.938.938 0 0 0 0 1.876zM37.335 19.59a.938.938 0 1 0 0-1.875.938.938 0 0 0 0 1.875zM35.828 17.483a.937.937 0 1 0 0-1.875.937.937 0 0 0 0 1.875zM35.828 21.705a.938.938 0 1 0 0-1.875.938.938 0 0 0 0 1.875zM10.665 30.285a.938.938 0 1 0 0-1.875.938.938 0 0 0 0 1.875zM12.172 32.392a.938.938 0 1 0 0-1.875.938.938 0 0 0 0 1.875zM12.172 28.17a.937.937 0 1 0 0-1.875.937.937 0 0 0 0 1.875z" fill="#fff"/><path d="M30.75 16.125a2.625 2.625 0 1 0 0-5.25 2.625 2.625 0 0 0 0 5.25zM30.75 26.625a2.625 2.625 0 1 0 0-5.25 2.625 2.625 0 0 0 0 5.25zM17.25 26.625a2.625 2.625 0 1 0 0-5.25 2.625 2.625 0 0 0 0 5.25zM30.75 37.125a2.625 2.625 0 1 0 0-5.25 2.625 2.625 0 0 0 0 5.25zM17.25 37.125a2.625 2.625 0 1 0 0-5.25 2.625 2.625 0 0 0 0 5.25z" stroke="#fff" stroke-width="2.25" stroke-linecap="round" stroke-linejoin="round"/></g><defs><clipPath id="clip0_5891_1628"><path fill="#fff" d="M0 0h48v48H0z"/></clipPath></defs></svg>