<svg width="48" height="48" viewBox="0 0 48 48" fill="none" xmlns="http://www.w3.org/2000/svg"><rect width="48" height="48" rx="7.5" fill="#55A76A"/><g filter="url(#filter0_d_5891_1642)"><path fill-rule="evenodd" clip-rule="evenodd" d="M10.903 22.73l24.973-10.288.016.015c-.127 7.658-5.018 16.88-16.396 19.789-1.398-2.373-5.466-7.585-8.674-9.236.029-.091.055-.185.08-.28z" fill="#F5BD14"/><path d="M21.4 10.394l-1.876 5.246-.238-.308a17.767 17.767 0 0 0-3.803-3.636L18.798 8l-.17 4.035 2.772-1.641z" fill="#F86932"/><path d="M13.56 26.497a7.62 7.62 0 1 0 0-15.24 7.62 7.62 0 0 0 0 15.24z" fill="#FFCC32"/><path d="M13.342 16.303l2.59-.85m-.963 2.064l-.97-2.96" stroke="#151C1F" stroke-width=".984" stroke-linecap="round"/><path fill-rule="evenodd" clip-rule="evenodd" d="M5.94 18.963c.074 9.105 6.17 17.408 15.384 19.877 7.042 1.887 14.21-.088 19.258-4.627a20.713 20.713 0 0 1-6.726-.667 20.678 20.678 0 0 1-12.597-9.67L5.941 18.963z" fill="#FFCC32"/><path fill-rule="evenodd" clip-rule="evenodd" d="M41.766 15.854l-25.462 8.701c-.032.096-.066.19-.102.282 3.086 1.87 6.784 7.35 8.015 9.813 2.436-.446 4.605-1.192 6.515-2.164a6.987 6.987 0 0 1-1.949-1.225l-.15-.134a.433.433 0 1 1 .576-.648l.15.134a6.122 6.122 0 0 0 2.4 1.315c.257-.149.508-.302.755-.459a6.988 6.988 0 0 1-1.185-.658l-.166-.114a.434.434 0 0 1 .492-.714l.166.115c.49.337 1.02.598 1.573.78.24-.172.477-.347.707-.526a7.125 7.125 0 0 1-.39-.25l-.167-.116a.433.433 0 0 1 .493-.713l.166.115c.2.138.407.263.62.376 4.432-3.777 6.71-8.987 7.118-13.723a19.154 19.154 0 0 0-.175-.187z" fill="#FFCC32"/></g><defs><filter id="filter0_d_5891_1642" x="2.191" y="5.75" width="43.5" height="39.052" filterUnits="userSpaceOnUse" color-interpolation-filters="sRGB"><feFlood flood-opacity="0" result="BackgroundImageFix"/><feColorMatrix in="SourceAlpha" values="0 0 0 0 0 0 0 0 0 0 0 0 0 0 0 0 0 0 127 0" result="hardAlpha"/><feOffset dy="1.5"/><feGaussianBlur stdDeviation="1.875"/><feComposite in2="hardAlpha" operator="out"/><feColorMatrix values="0 0 0 0 0 0 0 0 0 0 0 0 0 0 0 0 0 0 0.25 0"/><feBlend in2="BackgroundImageFix" result="effect1_dropShadow_5891_1642"/><feBlend in="SourceGraphic" in2="effect1_dropShadow_5891_1642" result="shape"/></filter></defs></svg>