<svg width="48" height="48" viewBox="0 0 48 48" fill="none" xmlns="http://www.w3.org/2000/svg">
<g clip-path="url(#clip0_5783_484)">
<path fill-rule="evenodd" clip-rule="evenodd" d="M6.06108 0.0871625C2.98314 0.568177 0.479633 3.04506 0.0074503 6.07655C-0.0576702 6.49497 -0.0751816 11.385 -0.0577484 24.3261L-0.0339829 42.0042L0.181704 42.6908C0.978004 45.2253 2.83742 47.0239 5.38978 47.7283L6.14191 47.9359H23.8878H41.6338L42.3277 47.7594C44.9706 47.0873 46.9579 45.1387 47.6897 42.5024C47.7771 42.1871 47.8488 41.8299 47.8488 41.7085C47.8488 41.5812 47.8818 41.5081 47.9269 41.5359C47.979 41.568 48.0032 35.6649 47.9996 23.882C47.9965 13.9361 47.9647 6.24818 47.9269 6.3359C47.87 6.4682 47.8589 6.45462 47.8542 6.24709C47.8455 5.85645 47.4746 4.66987 47.1646 4.04065C46.24 2.16365 44.4917 0.761114 42.3681 0.19245L41.7119 0.0167625L24.2005 0.00286983C10.4654 -0.00797895 6.55374 0.0102064 6.06108 0.0871625ZM-0.0346865 23.9749C-0.0346865 33.7193 -0.0255399 37.7173 -0.0144389 32.8592C-0.00333797 28.0012 -0.00333797 20.0285 -0.0144389 15.1421C-0.0255399 10.2558 -0.0346865 14.2305 -0.0346865 23.9749Z" fill="#834DF0"/>
<path fill-rule="evenodd" clip-rule="evenodd" d="M16.5268 12.6369C16.7569 12.7321 17.0436 13.0546 17.1517 13.3398C17.2139 13.5038 17.2413 17.6784 17.2413 26.9397C17.2413 41.4582 17.2677 40.6547 16.7778 41.04C16.5485 41.2204 16.5105 41.2222 12.9962 41.2222C9.52343 41.2222 9.4413 41.2185 9.22299 41.0467C8.71853 40.6499 8.75098 41.6212 8.75098 26.9134C8.75098 14.022 8.75762 13.4244 8.90456 13.1504C9.22249 12.5576 9.23258 12.5561 12.9948 12.562C14.845 12.565 16.4343 12.5987 16.5268 12.6369ZM14.9716 26.8895V38.9525H12.9962H11.0207V26.8895V14.8264H12.9962H14.9716V26.8895ZM27.3874 20.2028C27.5351 20.2929 27.7243 20.4708 27.8077 20.598C27.9513 20.8173 27.9606 21.3425 27.9817 30.5107C27.9994 38.145 27.9817 40.2601 27.8977 40.5149C27.8312 40.7167 27.6842 40.9099 27.5056 41.03L27.22 41.2222H23.7005H20.1811L19.8671 40.9345L19.5531 40.6468L19.5318 30.7419C19.5107 20.9247 19.512 20.8345 19.6808 20.5587C19.9927 20.0487 20.0744 20.0384 23.7746 20.0387C26.941 20.0389 27.133 20.0477 27.3874 20.2028ZM25.7317 30.6303V38.9525H23.7562H21.7808V30.6303V22.3081H23.7562H25.7317V30.6303ZM38.1422 27.6812C38.7128 28.0291 38.6774 27.5882 38.6774 34.3519C38.6774 41.0701 38.6956 40.826 38.1758 41.0947C37.9669 41.2027 37.3929 41.2222 34.4265 41.2222H30.9239L30.5975 40.8959L30.2711 40.5695L30.2715 34.4441C30.2717 28.4484 30.2753 28.3127 30.4414 28.0403C30.7523 27.5304 30.8344 27.52 34.5346 27.5203C37.6784 27.5206 37.8946 27.5302 38.1422 27.6812ZM36.4077 34.3711V38.9525H34.4743H32.5408V34.3711V29.7897H34.4743H36.4077V34.3711Z" fill="white"/>
<path d="M35.1938 6.99069C35.2934 6.91183 35.4505 6.83189 35.5429 6.81298C36.0132 6.71689 36.341 6.81373 36.6978 7.1541C36.9507 7.39545 37.0593 7.78727 36.9771 8.16177C36.9478 8.29509 36.0383 9.74501 34.9561 11.3838L32.9884 14.3634L35.7788 14.4055C37.738 14.435 38.622 14.4778 38.7464 14.5491C39.1251 14.7663 39.3418 15.3482 39.2113 15.7974C39.1702 15.9388 37.9482 17.8491 36.4959 20.0426C34.5677 22.9545 33.7926 24.059 33.6233 24.1358C33.2611 24.2999 32.7865 24.2643 32.4672 24.0492C32.1141 23.8112 31.9731 23.5417 31.9715 23.1015C31.97 22.7022 32.1028 22.4801 34.3924 19.0511C35.2332 17.7919 35.9212 16.7421 35.9212 16.7184C35.9212 16.6946 34.7474 16.6752 33.3126 16.6752C30.501 16.6752 30.3578 16.656 29.9617 16.2264C29.8267 16.08 29.748 15.8757 29.7227 15.6061C29.6858 15.2112 29.7036 15.1757 30.7285 13.6069C33.116 9.95223 35.0242 7.12502 35.1938 6.99069Z" fill="white"/>
</g>
<defs>
<clipPath id="clip0_5783_484">
<rect width="48" height="48" fill="white"/>
</clipPath>
</defs>
</svg>
