<svg width="48" height="48" viewBox="0 0 48 48" fill="none" xmlns="http://www.w3.org/2000/svg">
<g clip-path="url(#clip0_5783_494)">
<path fill-rule="evenodd" clip-rule="evenodd" d="M6.31392 0.0477928C2.973 0.573353 0.480589 3.13292 0.0743471 6.45554C-0.0268906 7.2836 -0.0286843 40.7074 0.0724098 41.5141C0.283782 43.1995 0.994885 44.6696 2.1631 45.8362C3.09921 46.7711 4.20923 47.4115 5.52389 47.7753L6.20629 47.9641L23.6413 47.9848C35.9273 47.9994 41.2535 47.9824 41.6764 47.9273C44.4638 47.5638 46.8289 45.5834 47.6731 42.9061C48.0883 41.5895 48.0709 42.4193 48.0713 23.9229C48.0718 7.18178 48.0695 6.90031 47.9271 6.10986C47.3643 2.98433 45.1124 0.69382 42.0269 0.108492C41.5255 0.0133534 39.3022 0.0012278 23.9742 0.00976591C14.3597 0.0151471 6.41257 0.0322233 6.31392 0.0477928ZM13.2377 5.12582C13.1193 5.17963 11.2467 7.0027 9.07625 9.17712L5.13006 13.1306L5.11162 27.6296C5.09103 43.7869 5.04898 42.4451 5.5861 42.7791L5.84755 42.9417H24.0486H42.2496L42.4522 42.7916C42.5636 42.709 42.7273 42.5348 42.8162 42.4043L42.9776 42.1671V24.0224V5.87768L42.8299 5.58817C42.7253 5.38318 42.5944 5.25877 42.3814 5.16212C42.0891 5.02932 41.6855 5.02559 27.7668 5.02681C15.8378 5.02781 13.4171 5.04431 13.2377 5.12582ZM0.0353157 24C0.0353157 33.4709 0.0436385 37.3346 0.0538269 32.5862C0.0640152 27.8377 0.0640152 20.0888 0.0538269 15.3665C0.0436385 10.644 0.0353157 14.5292 0.0353157 24ZM16.2708 11.4028C16.2514 15.5006 16.249 15.5619 16.1001 15.7616C16.0171 15.873 15.8395 16.0287 15.7055 16.1076C15.4708 16.2459 15.3129 16.2519 11.3901 16.2719L7.3184 16.2926V28.523V40.7534H24.0359H40.7534V24V7.24664H28.5219H16.2904L16.2708 11.4028ZM10.6906 10.7265L7.35485 14.0628H10.7088H14.0628V10.7265C14.0628 8.89149 14.0546 7.39014 14.0446 7.39014C14.0345 7.39014 12.5253 8.89149 10.6906 10.7265ZM29.8475 10.8391C28.6573 11.0442 27.5451 12.0588 27.2286 13.2282C27.0315 13.9561 27.1007 14.9591 27.3913 15.5886C28.1327 17.1948 30.0967 17.9914 31.7094 17.3401L32.1325 17.1692L32.5969 17.6428C33.203 18.2612 33.3226 18.4987 33.3226 19.0852C33.3226 19.6717 33.203 19.9092 32.5969 20.5276L32.1325 21.0013L31.7033 20.828C30.886 20.4978 29.8293 20.5375 28.9985 20.9297C28.4051 21.2097 27.7425 21.875 27.4328 22.5017L27.171 23.0314H24.0035H20.836L20.7395 22.7623C20.1861 21.2184 18.3781 20.2794 16.7672 20.699C15.9096 20.9223 15.0617 21.536 14.6574 22.2258C14.1731 23.0521 14.0629 24.231 14.3847 25.1429L14.5602 25.64L14.0065 26.2194C13.1517 27.114 12.8431 27.8296 12.8431 28.9169C12.8431 29.9437 13.1745 30.6908 14.0108 31.5488L14.5851 32.138L14.4144 32.5174C14.264 32.8517 14.2436 33.0041 14.2429 33.7975L14.2422 34.6981L14.5237 35.2683C14.9879 36.2084 15.8274 36.883 16.7984 37.0962C17.3588 37.2192 18.3019 37.1534 18.8172 36.9551C19.6366 36.64 20.4449 35.8412 20.7156 35.079L20.8408 34.7265H24.0089H27.1769L27.4335 35.2667C27.7754 35.9868 28.3025 36.5127 29.0272 36.8568C29.5095 37.0859 29.657 37.1207 30.2717 37.1503C31.3783 37.2035 32.071 36.9519 32.8335 36.2197C33.8947 35.2007 34.1708 33.6575 33.5334 32.3098C33.301 31.8188 32.7019 31.1709 32.2048 30.873C31.1234 30.2251 29.6484 30.2775 28.5631 31.0022C28.0273 31.36 27.699 31.7505 27.4041 32.3808L27.1793 32.861H24.001H20.8228L20.7736 32.6637C20.6289 32.0824 19.8035 31.1099 19.1896 30.7971C18.3576 30.3734 17.3487 30.3024 16.4489 30.6045L15.9038 30.7875L15.4775 30.3713C14.451 29.3695 14.451 28.4072 15.4774 27.3924L15.8924 26.9821L16.3946 27.168C17.2653 27.4902 18.4863 27.4003 19.2287 26.9592C19.941 26.5362 20.5554 25.8129 20.7476 25.1714L20.8299 24.8969H24.0136C26.9822 24.8969 27.2002 24.9053 27.2387 25.0224C27.5128 25.8549 28.2196 26.6671 28.9886 27.0335C30.4488 27.7293 32.2001 27.3218 33.1588 26.0631C33.6817 25.3765 33.8221 24.9414 33.8247 24C33.8265 23.3107 33.8033 23.1547 33.6416 22.768L33.4562 22.3252L34.0168 21.768C34.3279 21.4587 34.6735 21.0302 34.7936 20.805C35.3571 19.7478 35.3571 18.4226 34.7936 17.3654C34.6735 17.1402 34.3279 16.7117 34.0168 16.4024L33.4562 15.8452L33.6416 15.4024C33.8033 15.0157 33.8265 14.8597 33.8247 14.1704C33.8221 13.229 33.6817 12.7939 33.1588 12.1073C32.405 11.1178 31.1096 10.6216 29.8475 10.8391ZM30.1434 12.6997C29.7738 12.7869 29.3391 13.1306 29.1535 13.4821C28.7118 14.3189 29.1782 15.3835 30.0996 15.6415C31.238 15.9603 32.3405 14.732 31.8889 13.6479C31.7176 13.2368 31.3016 12.8542 30.8941 12.7333C30.5045 12.6175 30.4934 12.617 30.1434 12.6997ZM17.0934 22.5532C16.481 22.7753 16.0762 23.3476 16.0733 23.9953C16.0702 24.6986 16.5436 25.2841 17.2616 25.4649C17.925 25.6319 18.6864 25.2129 18.9741 24.5225C19.272 23.8074 18.9283 22.9704 18.1968 22.6297C17.798 22.4441 17.459 22.4206 17.0934 22.5532ZM30.0082 22.5493C29.6416 22.6883 29.2708 23.0222 29.124 23.3454C28.4514 24.8268 30.236 26.1762 31.4521 25.1058C32.0372 24.5908 32.1502 23.889 31.7563 23.2169C31.4143 22.6333 30.6034 22.3237 30.0082 22.5493ZM16.9686 32.423C15.9829 32.8794 15.7678 34.1421 16.5495 34.8841C17.2985 35.595 18.5099 35.3525 18.9492 34.4036C19.5154 33.1808 18.1914 31.8569 16.9686 32.423ZM29.9193 32.3974C29.3573 32.6497 28.9866 33.2017 28.9866 33.7862C28.9866 34.2321 29.0591 34.4255 29.3516 34.7586C29.9866 35.4818 31.0307 35.4795 31.6301 34.7537C32.218 34.0419 32.0591 33.0435 31.2754 32.5249C30.9122 32.2845 30.2993 32.2269 29.9193 32.3974Z" fill="#DB5C5C"/>
<path fill-rule="evenodd" clip-rule="evenodd" d="M13.2377 5.12583C13.1193 5.17964 11.2467 7.00271 9.07626 9.17713L5.13007 13.1306L5.11163 27.6296C5.09104 43.7869 5.049 42.4451 5.58611 42.7791L5.84756 42.9417H24.0486H42.2496L42.4522 42.7916C42.5636 42.709 42.7274 42.5348 42.8162 42.4043L42.9776 42.1671V24.0224V5.87768L42.8299 5.58818C42.7253 5.38319 42.5944 5.25878 42.3815 5.16213C42.0891 5.02932 41.6855 5.02559 27.7668 5.02681C15.8378 5.02782 13.4171 5.04432 13.2377 5.12583ZM16.2708 11.4028C16.2514 15.5006 16.249 15.5619 16.1001 15.7616C16.0171 15.873 15.8395 16.0287 15.7055 16.1076C15.4708 16.2459 15.313 16.2519 11.3902 16.2719L7.31842 16.2926V28.523V40.7534H24.0359H40.7534V24V7.24665H28.5219H16.2904L16.2708 11.4028ZM10.6906 10.7265L7.35486 14.0628H10.7088H14.0628V10.7265C14.0628 8.8915 14.0546 7.39015 14.0446 7.39015C14.0345 7.39015 12.5253 8.8915 10.6906 10.7265ZM29.8476 10.8391C28.6573 11.0442 27.5451 12.0588 27.2286 13.2282C27.0316 13.9561 27.1007 14.9591 27.3913 15.5886C28.1327 17.1948 30.0967 17.9914 31.7094 17.3401L32.1325 17.1692L32.5969 17.6428C33.203 18.2612 33.3226 18.4987 33.3226 19.0852C33.3226 19.6717 33.203 19.9093 32.5969 20.5276L32.1325 21.0013L31.7033 20.828C30.886 20.4978 29.8293 20.5376 28.9986 20.9297C28.4051 21.2097 27.7425 21.875 27.4328 22.5018L27.171 23.0314H24.0035H20.836L20.7395 22.7623C20.1861 21.2185 18.3781 20.2794 16.7672 20.699C15.9096 20.9223 15.0617 21.536 14.6575 22.2258C14.1732 23.0521 14.063 24.231 14.3847 25.1429L14.5602 25.6401L14.0066 26.2194C13.1517 27.114 12.8431 27.8296 12.8431 28.9169C12.8431 29.9437 13.1746 30.6908 14.0109 31.5488L14.5851 32.138L14.4144 32.5174C14.264 32.8517 14.2436 33.0041 14.2429 33.7975L14.2422 34.6981L14.5237 35.2683C14.9879 36.2084 15.8274 36.883 16.7985 37.0962C17.3588 37.2192 18.3019 37.1534 18.8172 36.9551C19.6366 36.64 20.4449 35.8412 20.7157 35.079L20.8409 34.7265H24.0089H27.1769L27.4335 35.2667C27.7755 35.9868 28.3025 36.5127 29.0272 36.8568C29.5096 37.0859 29.657 37.1207 30.2717 37.1503C31.3783 37.2035 32.071 36.9519 32.8335 36.2197C33.8947 35.2007 34.1709 33.6575 33.5334 32.3098C33.3011 31.8188 32.702 31.1709 32.2048 30.873C31.1234 30.2251 29.6485 30.2775 28.5631 31.0022C28.0274 31.36 27.699 31.7505 27.4041 32.3808L27.1793 32.861H24.001H20.8228L20.7736 32.6637C20.6289 32.0825 19.8035 31.1099 19.1896 30.7971C18.3576 30.3734 17.3488 30.3024 16.4489 30.6045L15.9038 30.7875L15.4775 30.3713C14.451 29.3696 14.451 28.4072 15.4774 27.3924L15.8924 26.9821L16.3946 27.168C17.2653 27.4902 18.4863 27.4003 19.2287 26.9592C19.941 26.5362 20.5554 25.8129 20.7477 25.1715L20.8299 24.8969H24.0137C26.9822 24.8969 27.2002 24.9053 27.2387 25.0224C27.5129 25.8549 28.2197 26.6671 28.9887 27.0336C30.4488 27.7293 32.2001 27.3218 33.1588 26.0631C33.6818 25.3765 33.8222 24.9414 33.8247 24C33.8265 23.3107 33.8034 23.1547 33.6416 22.768L33.4562 22.3253L34.0168 21.768C34.3279 21.4587 34.6735 21.0303 34.7936 20.805C35.3571 19.7478 35.3571 18.4226 34.7936 17.3654C34.6735 17.1402 34.3279 16.7117 34.0168 16.4024L33.4562 15.8452L33.6416 15.4024C33.8034 15.0157 33.8265 14.8597 33.8247 14.1704C33.8222 13.229 33.6818 12.7939 33.1588 12.1074C32.4051 11.1178 31.1096 10.6216 29.8476 10.8391ZM30.1434 12.6997C29.7738 12.787 29.3392 13.1306 29.1535 13.4821C28.7118 14.3189 29.1782 15.3835 30.0996 15.6416C31.2381 15.9603 32.3405 14.732 31.8889 13.6479C31.7176 13.2368 31.3016 12.8543 30.8941 12.7333C30.5045 12.6176 30.4934 12.6171 30.1434 12.6997ZM17.0934 22.5532C16.481 22.7753 16.0762 23.3476 16.0734 23.9953C16.0702 24.6986 16.5436 25.2841 17.2616 25.4649C17.9251 25.6319 18.6865 25.2129 18.9741 24.5225C19.272 23.8074 18.9283 22.9704 18.1968 22.6298C17.7981 22.4441 17.459 22.4206 17.0934 22.5532ZM30.0082 22.5493C29.6416 22.6883 29.2708 23.0222 29.124 23.3454C28.4514 24.8268 30.236 26.1762 31.4521 25.1058C32.0372 24.5908 32.1502 23.889 31.7563 23.2169C31.4143 22.6333 30.6034 22.3237 30.0082 22.5493ZM16.9686 32.423C15.9829 32.8794 15.7678 34.1421 16.5495 34.8841C17.2985 35.595 18.5099 35.3525 18.9492 34.4036C19.5154 33.1808 18.1915 31.8569 16.9686 32.423ZM29.9193 32.3974C29.3573 32.6497 28.9866 33.2017 28.9866 33.7862C28.9866 34.2321 29.0591 34.4255 29.3516 34.7586C29.9866 35.4818 31.0307 35.4795 31.6302 34.7537C32.218 34.0419 32.0592 33.0435 31.2754 32.5249C30.9122 32.2845 30.2993 32.2269 29.9193 32.3974Z" fill="white"/>
</g>
<defs>
<clipPath id="clip0_5783_494">
<rect width="48" height="48" fill="white"/>
</clipPath>
</defs>
</svg>
