<svg width="48" height="48" viewBox="0 0 48 48" fill="none" xmlns="http://www.w3.org/2000/svg"><g clip-path="url(#clip0_5891_1623)"><rect width="48" height="48" rx="6.75" fill="#57965C"/><path d="M41.625 6.75c0-.621-.504-1.125-1.125-1.125h-33c-.621 0-1.125.504-1.125 1.125v28.875c0 .621.504 1.125 1.125 1.125h33c.621 0 1.125-.504 1.125-1.125V6.75zM37.875 37.125v5.258h-11.25c0-1.508-1.35-2.31-2.625-2.31s-2.625.802-2.625 2.31h-11.25v-5.258M13.807 41.633v-1.508M17.625 41.633v-1.508M34.193 41.633v-1.508M30.375 41.903v-1.778" stroke="#fff" stroke-width="2.25" stroke-linecap="round" stroke-linejoin="round"/><path d="M27.267 20.997L24 17.73l-3.267 3.267L24 24.264l3.267-3.267zM34.552 13.125l-3.267-3.267-3.267 3.267 3.267 3.267 3.267-3.267zM19.552 13.125l-3.267-3.267-3.267 3.267 3.267 3.267 3.267-3.267zM28.024 28.767l3.267 3.267 3.267-3.267-3.267-3.267-3.267 3.267zM16.715 25.5l-3.267 3.267 3.267 3.267 3.267-3.267-3.267-3.267zM28.02 13.125h-8.04M28.02 28.875h-8.04" stroke="#fff" stroke-width="2.25" stroke-linecap="round" stroke-linejoin="round"/><path d="M27 21h8.625L33 27M21 21h-8.625l2.25-5.625" stroke="#fff" stroke-width="2.25" stroke-linecap="round" stroke-linejoin="round"/></g><defs><clipPath id="clip0_5891_1623"><path fill="#fff" d="M0 0h48v48H0z"/></clipPath></defs></svg>