<svg width="48" height="48" viewBox="0 0 48 48" fill="none" xmlns="http://www.w3.org/2000/svg">
<g clip-path="url(#clip0_5783_491)">
<path fill-rule="evenodd" clip-rule="evenodd" d="M6.27882 0.0960572C5.98347 0.138687 5.40722 0.285083 4.99827 0.4214C2.68956 1.19122 0.935452 3.07933 0.263452 5.51791L0.0423713 6.32011L0.0173386 23.2977C0.000319656 34.8371 0.0205606 40.5897 0.0803747 41.2568C0.359535 44.37 2.32134 46.7821 5.3455 47.7307L6.07228 47.9587L23.6668 47.9806C39.1316 48 41.3496 47.9873 41.9917 47.8765C44.5857 47.4288 46.7714 45.5621 47.6189 43.0705C48.0591 41.7763 48.0413 42.5791 48.0413 23.9587C48.0413 7.58117 48.0333 6.6134 47.8921 5.95858C47.2768 3.10453 45.3093 1.01078 42.506 0.226508L41.8451 0.0416131L24.3305 0.0301295C13.8114 0.0232723 6.60135 0.0496269 6.27882 0.0960572ZM0.0404711 24C0.0404711 33.2695 0.0501372 37.0494 0.0619513 32.3996C0.0737654 27.7498 0.0737654 20.1657 0.0619513 15.5459C0.0501372 10.9261 0.0404711 14.7304 0.0404711 24ZM7.36068 7.56547C7.22172 7.68237 7.06846 7.91477 7.02022 8.08182C6.95933 8.29265 6.93991 13.2127 6.95677 24.1798L6.98106 39.9741L7.15215 40.2074C7.24625 40.3357 7.45073 40.5056 7.60654 40.585C7.87339 40.7211 8.82753 40.7295 24.0413 40.7295C39.2551 40.7295 40.2092 40.7211 40.4761 40.585C41.061 40.2868 41.2616 39.6205 40.9483 39.0169C40.6582 38.4581 41.9394 38.4991 24.7477 38.4991H9.17039L9.16981 23.2771C9.16931 8.36957 9.16601 8.05001 9.00961 7.81274C8.78804 7.47666 8.53895 7.35918 8.04077 7.35571C7.69949 7.35339 7.56243 7.39569 7.36068 7.56547ZM28.9983 8.44442C28.4247 8.66443 27.6577 9.41401 27.2412 10.1618C26.2468 11.947 25.7146 14.2356 24.7435 20.9019C23.83 27.1724 23.4247 29.0189 22.6162 30.5908C22.01 31.7692 21.5184 31.862 20.9121 30.9124C20.2842 29.9288 19.7938 28.1024 19.0454 23.9587C18.2145 19.3588 17.5445 17.4659 16.3863 16.4465C15.7062 15.8477 14.5199 15.5872 13.9654 15.9148C13.4752 16.2044 13.3084 16.9652 13.6222 17.4799C13.7922 17.7587 14.2405 18.0103 14.5671 18.0103C14.8719 18.0103 15.3189 18.5788 15.6123 19.3395C16.1254 20.6701 16.2313 21.1331 17.2254 26.3958C17.934 30.1474 18.5992 31.9116 19.696 32.949C20.378 33.594 20.7711 33.7486 21.728 33.7482C22.4188 33.7479 22.5624 33.7216 22.926 33.5282C24.4788 32.7022 25.3679 30.6779 26.2223 26.0241C26.3349 25.4106 26.6723 23.2244 26.9721 21.1657C27.7209 16.0232 28.0559 14.3064 28.6441 12.5989C29.2822 10.7464 29.9454 10.1181 30.6431 10.7051C31.3718 11.3183 31.8509 13.1711 32.2637 16.9726C32.6165 20.2228 32.8008 21.7317 32.9704 22.7607C33.4637 25.7546 34.1693 27.8823 35.1679 29.3868C35.5187 29.9153 36.3733 30.8603 36.6199 30.9923C36.8584 31.1198 37.4555 31.0949 37.745 30.9452C38.394 30.6096 38.4313 29.4628 37.8064 29.0534C37.494 28.8487 36.8865 27.9478 36.4796 27.0859C35.6194 25.2637 35.1515 22.953 34.6169 17.8864C34.2944 14.8304 34.0939 13.4579 33.7993 12.2919C33.2261 10.0221 32.3442 8.77348 31.041 8.38643C30.4376 8.20723 29.5512 8.23243 28.9983 8.44442Z" fill="#C77D55"/>
<path fill-rule="evenodd" clip-rule="evenodd" d="M7.36071 7.5655C7.22175 7.6824 7.0685 7.9148 7.02025 8.08185C6.95936 8.29269 6.93995 13.2127 6.9568 24.1799L6.98109 39.9741L7.15219 40.2074C7.24629 40.3357 7.45076 40.5056 7.60658 40.585C7.87343 40.7211 8.82756 40.7295 24.0413 40.7295C39.2551 40.7295 40.2092 40.7211 40.4761 40.585C41.061 40.2868 41.2616 39.6205 40.9483 39.0169C40.6582 38.4582 41.9395 38.4991 24.7477 38.4991H9.17042L9.16984 23.2771C9.16934 8.36961 9.16604 8.05005 9.00965 7.81277C8.78807 7.47669 8.53898 7.35921 8.04081 7.35574C7.69952 7.35343 7.56246 7.39573 7.36071 7.5655ZM28.9983 8.44446C28.4247 8.66446 27.6578 9.41404 27.2412 10.1618C26.2468 11.9471 25.7146 14.2356 24.7436 20.9019C23.8301 27.1725 23.4247 29.0189 22.6162 30.5908C22.01 31.7692 21.5184 31.862 20.9122 30.9124C20.2842 29.9288 19.7939 28.1024 19.0454 23.9587C18.2146 19.3588 17.5446 17.466 16.3864 16.4465C15.7062 15.8478 14.52 15.5873 13.9655 15.9149C13.4752 16.2044 13.3084 16.9652 13.6223 17.4799C13.7922 17.7587 14.2405 18.0103 14.5672 18.0103C14.8719 18.0103 15.319 18.5788 15.6123 19.3395C16.1255 20.6702 16.2313 21.1331 17.2254 26.3959C17.934 30.1474 18.5992 31.9117 19.696 32.9491C20.378 33.5941 20.7711 33.7486 21.7281 33.7482C22.4188 33.748 22.5624 33.7216 22.926 33.5282C24.4788 32.7022 25.368 30.678 26.2223 26.0241C26.3349 25.4107 26.6723 23.2244 26.9721 21.1657C27.7209 16.0233 28.056 14.3064 28.6441 12.599C29.2823 10.7464 29.9454 10.1181 30.6431 10.7052C31.3719 11.3183 31.851 13.1711 32.2637 16.9726C32.6166 20.2228 32.8008 21.7318 32.9704 22.7608C33.4637 25.7546 34.1693 27.8823 35.1679 29.3868C35.5187 29.9153 36.3734 30.8604 36.62 30.9923C36.8584 31.1199 37.4556 31.0949 37.745 30.9452C38.3941 30.6096 38.4313 29.4628 37.8064 29.0534C37.4941 28.8488 36.8865 27.9478 36.4796 27.0859C35.6194 25.2637 35.1516 22.953 34.6169 17.8864C34.2944 14.8304 34.0939 13.4579 33.7994 12.2919C33.2261 10.0221 32.3443 8.77352 31.041 8.38646C30.4376 8.20727 29.5512 8.23246 28.9983 8.44446Z" fill="white"/>
</g>
<defs>
<clipPath id="clip0_5783_491">
<rect width="48" height="48" fill="white"/>
</clipPath>
</defs>
</svg>
