<svg width="48" height="48" viewBox="0 0 48 48" fill="none" xmlns="http://www.w3.org/2000/svg"><g clip-path="url(#clip0_5891_1622)"><rect width="48" height="48" rx="6.75" fill="#57965C"/><path d="M25.125 33c0-.621-.504-1.125-1.125-1.125h-7.5c-.621 0-1.125.504-1.125 1.125v2.25c0 .621.504 1.125 1.125 1.125H24c.621 0 1.125-.504 1.125-1.125V33zM25.125 23.25c0-.621-.504-1.125-1.125-1.125h-7.5c-.621 0-1.125.504-1.125 1.125v2.25c0 .621.504 1.125 1.125 1.125H24c.621 0 1.125-.504 1.125-1.125v-2.25z" stroke="#fff" stroke-width="2.25" stroke-linecap="round" stroke-linejoin="round"/><path d="M25.125 12.75c0-.621-.504-1.125-1.125-1.125h-7.5c-.621 0-1.125.504-1.125 1.125v3c0 .621.504 1.125 1.125 1.125H24c.621 0 1.125-.504 1.125-1.125v-3z" fill="#fff" stroke="#fff" stroke-width="2.25" stroke-linecap="round" stroke-linejoin="round"/><path d="M30.375 16.125h7.057M30.375 21.375h7.057M30.375 31.875h7.23M30.375 26.625h7.23M33 6.375c-.621 0-1.125.504-1.125 1.125 0 .764-.656 1.875-2.25 1.875-1.596 0-2.25-1.105-2.25-1.875 0-.621-.504-1.125-1.125-1.125H10.5c-.621 0-1.125.504-1.125 1.125v33c0 .621.504 1.125 1.125 1.125h15.75c.621 0 1.125-.504 1.125-1.125 0-.764.656-1.875 2.25-1.875 1.596 0 2.25 1.105 2.25 1.875 0 .621.504 1.125 1.125 1.125h4.5c.621 0 1.125-.504 1.125-1.125v-33c0-.621-.504-1.125-1.125-1.125H33z" stroke="#fff" stroke-width="2.25" stroke-linecap="round" stroke-linejoin="round"/></g><defs><clipPath id="clip0_5891_1622"><path fill="#fff" d="M0 0h48v48H0z"/></clipPath></defs></svg>