<svg width="48" height="48" viewBox="0 0 48 48" fill="none" xmlns="http://www.w3.org/2000/svg">
<g clip-path="url(#clip0_5783_498)">
<path fill-rule="evenodd" clip-rule="evenodd" d="M5.65666 0.17153C3.58518 0.625603 1.69158 2.15798 0.74057 4.15004C-0.0430793 5.7915 -0.00769245 4.78736 0.0269937 24.3826L0.0584097 42.1022L0.371286 42.9588C1.20656 45.2453 2.83867 46.8647 5.0712 47.6217L6.01461 47.9416H24H41.9854L42.9288 47.6217C45.1539 46.8672 46.8167 45.2273 47.596 43.0188C47.7513 42.5789 47.8794 42.0775 47.8808 41.9047C47.8822 41.7318 47.9358 41.5579 48 41.5182C48.0771 41.4706 48.1168 35.457 48.1168 23.8568C48.1168 14.1827 48.0798 6.30467 48.0345 6.34998C47.9892 6.3953 47.8853 6.10192 47.8037 5.69795C47.6018 4.6979 46.8542 3.23372 46.1355 2.4301C45.3907 1.59752 44.1479 0.763647 43.0571 0.364815L42.219 0.0583625L24.292 0.0373406C9.75242 0.0202895 6.23114 0.0456326 5.65666 0.17153ZM0.0568915 24C0.0568915 33.6992 0.0706725 37.6844 0.0876068 32.8559C0.104424 28.0273 0.104424 20.0915 0.0876068 15.2209C0.0706725 10.3501 0.0568915 14.3007 0.0568915 24ZM9.31797 6.7216C9.10787 6.83559 8.95908 7.04896 8.87698 7.35378C8.79371 7.66315 8.76369 10.5276 8.7853 16.1019L8.81753 24.39L9.09502 24.6853C9.66075 25.2874 9.47704 25.3437 17.5577 22.0924L25.0914 19.061L25.1297 20.5551C25.1621 21.8218 25.2014 22.0863 25.3883 22.2924C25.9018 22.8588 25.9712 22.8407 32.4981 20.4366C36.6029 18.9247 38.6941 18.0981 38.8905 17.9098L39.1825 17.6299L39.2184 12.6981C39.2575 7.3087 39.2296 7.01147 38.6582 6.716C38.1499 6.45311 9.80276 6.45848 9.31797 6.7216ZM10.9781 15.5311V22.3032L11.5913 22.0596C11.9285 21.9257 12.4409 21.7225 12.7299 21.608L13.2555 21.3998L13.3139 16.5101C13.346 13.8208 13.4181 11.5494 13.4741 11.4625C13.782 10.9852 13.936 10.9781 24 10.9781C34.3051 10.9781 34.2554 10.9754 34.56 11.5445C34.6399 11.6937 34.6861 12.7677 34.6861 14.474C34.6861 15.9556 34.7255 17.1675 34.7737 17.167C34.822 17.1666 35.3343 16.9878 35.9124 16.7697L36.9635 16.3733L36.9944 12.5662L37.0251 8.75909H24.0017H10.9781V15.5311ZM15.5329 16.8175C15.5329 18.8087 15.5556 20.4379 15.5836 20.4379C15.6115 20.4379 17.9895 19.4889 20.8682 18.329C26.5313 16.047 26.5928 16.0306 27.0899 16.6624C27.3017 16.9318 27.3285 17.1321 27.3285 18.4518V19.9377L29.8978 18.992L32.4672 18.0461V15.6216V13.197H24H15.5329V16.8175ZM30.4234 25.1781C26.5051 26.6161 23.2074 27.8233 23.0949 27.8604C22.9072 27.9227 22.8905 27.8029 22.8905 26.393V24.8579L22.5492 24.5165C22.3064 24.2737 22.0937 24.1752 21.8126 24.1752C21.302 24.1752 9.5234 29.33 9.1095 29.7345L8.81753 30.0198V35.3868V40.7538L9.14139 41.0776L9.46513 41.4014H24H38.5349L38.8586 41.0776L39.1825 40.7538V31.9484V23.1429L38.8994 22.8415C38.373 22.2813 38.144 22.3444 30.4234 25.1781ZM32.0793 26.9634L27.4288 28.6715L30.7758 28.7299L34.1228 28.7883L34.4045 29.116C34.8074 29.5847 34.784 30.1683 34.3448 30.6075L34.0034 30.9489H24H13.9966L13.636 30.5881L13.2752 30.2275L12.1266 30.7237L10.9781 31.2198V35.2303V39.2408H24H37.0219V32.2335C37.0219 26.6979 36.9912 25.2293 36.8759 25.2407C36.7957 25.2487 34.6372 26.0238 32.0793 26.9634ZM18.6955 27.8337L16.7778 28.6715L18.6828 28.7036C19.7305 28.7214 20.6091 28.7146 20.635 28.6886C20.661 28.6625 20.6668 28.271 20.6477 27.8185L20.6132 26.9957L18.6955 27.8337ZM14.0491 33.9979C13.5677 34.1371 13.3139 34.5064 13.3139 35.0678C13.3139 35.3861 13.3962 35.5965 13.6006 35.8008L13.8872 36.0876H24H34.1128L34.3994 35.8008C34.712 35.4884 34.7861 34.8575 34.56 34.435C34.255 33.8651 34.3073 33.8679 24.033 33.8791C18.5149 33.8852 14.264 33.9357 14.0491 33.9979Z" fill="#548AF7"/>
<path fill-rule="evenodd" clip-rule="evenodd" d="M9.31794 6.72169C9.10784 6.83567 8.95905 7.04904 8.87695 7.35386C8.79368 7.66323 8.76366 10.5277 8.78527 16.102L8.8175 24.3901L9.09499 24.6854C9.66072 25.2875 9.47701 25.3438 17.5577 22.0924L25.0914 19.0611L25.1297 20.5551C25.162 21.8218 25.2014 22.0864 25.3882 22.2925C25.9018 22.8589 25.9711 22.8408 32.4981 20.4367C36.6028 18.9248 38.6941 18.0982 38.8905 17.9099L39.1825 17.6299L39.2183 12.6982C39.2574 7.30878 39.2295 7.01155 38.6582 6.71608C38.1498 6.45319 9.80273 6.45856 9.31794 6.72169ZM10.9781 15.5311V22.3032L11.5912 22.0597C11.9285 21.9258 12.4409 21.7226 12.7299 21.6081L13.2555 21.3999L13.3139 16.5102C13.346 13.8209 13.418 11.5495 13.4741 11.4626C13.7819 10.9853 13.936 10.9782 24 10.9782C34.305 10.9782 34.2554 10.9755 34.56 11.5446C34.6399 11.6938 34.6861 12.7678 34.6861 14.4741C34.6861 15.9557 34.7255 17.1676 34.7737 17.1671C34.8219 17.1666 35.3343 16.9878 35.9124 16.7698L36.9635 16.3734L36.9943 12.5662L37.025 8.75918H24.0016H10.9781V15.5311ZM15.5328 16.8176C15.5328 18.8088 15.5556 20.438 15.5835 20.438C15.6114 20.438 17.9895 19.489 20.8682 18.329C26.5313 16.0471 26.5928 16.0306 27.0899 16.6625C27.3017 16.9319 27.3285 17.1322 27.3285 18.4519V19.9378L29.8978 18.9921L32.4671 18.0462V15.6217V13.1971H24H15.5328V16.8176ZM30.4233 25.1782C26.5051 26.6162 23.2073 27.8234 23.0949 27.8605C22.9072 27.9227 22.8905 27.803 22.8905 26.393V24.858L22.5491 24.5166C22.3063 24.2738 22.0937 24.1752 21.8125 24.1752C21.3019 24.1752 9.52337 29.33 9.10948 29.7346L8.8175 30.0199V35.3869V40.7539L9.14136 41.0777L9.4651 41.4015H24H38.5349L38.8586 41.0777L39.1825 40.7539V31.9484V23.1429L38.8994 22.8416C38.373 22.2814 38.144 22.3445 30.4233 25.1782ZM32.0793 26.9634L27.4288 28.6716L30.7758 28.73L34.1227 28.7884L34.4044 29.1161C34.8073 29.5848 34.784 30.1683 34.3447 30.6076L34.0034 30.949H24H13.9966L13.636 30.5882L13.2752 30.2276L12.1266 30.7238L10.9781 31.2199V35.2304V39.2409H24H37.0219V32.2336C37.0219 26.698 36.9912 25.2294 36.8759 25.2408C36.7957 25.2488 34.6372 26.0239 32.0793 26.9634ZM18.6955 27.8337L16.7778 28.6716L18.6827 28.7037C19.7304 28.7215 20.609 28.7147 20.635 28.6886C20.661 28.6626 20.6667 28.2711 20.6477 27.8186L20.6131 26.9958L18.6955 27.8337ZM14.049 33.9979C13.5676 34.1372 13.3139 34.5064 13.3139 35.0678C13.3139 35.3862 13.3962 35.5965 13.6006 35.8009L13.8872 36.0876H24H34.1128L34.3994 35.8009C34.7119 35.4885 34.7861 34.8576 34.56 34.4351C34.2549 33.8652 34.3073 33.868 24.0329 33.8792C18.5149 33.8852 14.2639 33.9358 14.049 33.9979Z" fill="white"/>
</g>
<defs>
<clipPath id="clip0_5783_498">
<rect width="48" height="48" fill="white"/>
</clipPath>
</defs>
</svg>
