<svg width="48" height="48" viewBox="0 0 48 48" fill="none" xmlns="http://www.w3.org/2000/svg"><g clip-path="url(#clip0_5891_1630)"><rect width="48" height="48" rx="6.75" fill="#DB5C5C"/><path d="M36.375 12.75c0-.621-.504-1.125-1.125-1.125h-22.5c-.621 0-1.125.504-1.125 1.125v22.5c0 .621.504 1.125 1.125 1.125h22.5c.621 0 1.125-.504 1.125-1.125v-22.5zM37.5 19.125h4.125M37.5 28.875h4.125M6.375 19.125H10.5M6.375 28.875H10.5M19.125 10.5V6.375M28.875 10.5V6.375M19.125 41.625V37.5M28.875 41.625V37.5M19.125 28.875v-9.75M24 28.875v-6.75M28.875 28.875v-3.75" stroke="#fff" stroke-width="2.25" stroke-linecap="round" stroke-linejoin="round"/></g><defs><clipPath id="clip0_5891_1630"><path fill="#fff" d="M0 0h48v48H0z"/></clipPath></defs></svg>