<svg width="48" height="48" viewBox="0 0 48 48" fill="none" xmlns="http://www.w3.org/2000/svg">
<g clip-path="url(#clip0_5783_495)">
<path fill-rule="evenodd" clip-rule="evenodd" d="M5.79251 0.128494C2.86934 0.745456 0.602717 3.08585 0.0929743 6.01334C-0.0471861 6.81856 -0.0471861 41.1814 0.0929743 41.9866C0.615822 44.9893 3.00576 47.3831 6.0037 47.9068C6.80763 48.0472 41.1153 48.0472 41.9192 47.9068C44.7286 47.4161 47.0821 45.2174 47.7117 42.4953C47.7979 42.1226 47.8949 41.73 47.9273 41.6229C48.0109 41.3467 48.0065 6.34078 47.9229 6.34078C47.8881 6.34078 47.8596 6.27313 47.8596 6.19038C47.8596 5.86465 47.5348 4.78449 47.2659 4.21591C46.3277 2.23212 44.6108 0.787559 42.4961 0.202808L41.8772 0.0316696L24.1197 0.019939C6.90335 0.00858897 6.34492 0.0118862 5.79251 0.128494ZM0.0311872 24C0.0311872 33.6951 0.0385308 37.6518 0.047457 32.7927C0.0563832 27.9336 0.0563832 20.0013 0.047457 15.1652C0.0385308 10.3292 0.0311872 14.3049 0.0311872 24ZM18.8338 6.62726C18.5752 6.7672 18.4285 6.90759 18.3049 7.13326C18.2159 7.29565 18.1976 7.60527 18.1806 9.24171L18.1606 11.1598L15.0469 11.1608C11.9339 11.1619 11.9332 11.1619 11.6813 11.3048C11.54 11.385 11.3667 11.5586 11.2867 11.7C11.144 11.9523 11.144 11.9531 11.1429 15.0711L11.1419 18.1897L9.22688 18.2098C7.54717 18.2273 7.28698 18.2435 7.10941 18.3407C6.37715 18.7418 6.32878 19.8053 7.02148 20.2728C7.23286 20.4156 7.26059 20.4174 9.18877 20.4174H11.1419V24V27.5825H9.20789C7.05801 27.5825 7.05073 27.5838 6.72957 28.0055C6.57631 28.2067 6.55219 28.2959 6.55219 28.6605C6.55219 29.0251 6.57631 29.1142 6.72957 29.3154C7.07149 29.7644 7.08928 29.7678 9.22688 29.7901L11.1419 29.8102L11.1429 32.9289C11.144 36.0468 11.144 36.0476 11.2867 36.2999C11.3667 36.4413 11.54 36.615 11.6813 36.6951C11.9332 36.838 11.9339 36.838 15.0469 36.8391L18.1606 36.8401L18.1806 38.7582C18.2029 40.8993 18.2063 40.9171 18.6545 41.2595C18.8554 41.4131 18.9444 41.4372 19.3084 41.4372C19.6724 41.4372 19.7614 41.4131 19.9623 41.2595C20.3834 40.9379 20.3846 40.9306 20.3846 38.7772V36.8401H23.9614H27.5383V38.7964C27.5383 40.7277 27.5401 40.7555 27.6826 40.9672C28.1494 41.661 29.2112 41.6125 29.6116 40.8791C29.7088 40.7011 29.7247 40.4415 29.7416 38.7582L29.7608 36.8401L32.8752 36.8391C35.989 36.838 35.9897 36.838 36.2416 36.6951C36.3829 36.615 36.5562 36.4413 36.6362 36.2999C36.7789 36.0476 36.7789 36.047 36.78 32.9247L36.781 29.8018L38.5377 29.8003C40.3532 29.7987 40.6796 29.7668 40.9504 29.5644C41.2802 29.3177 41.3707 29.1244 41.3707 28.6667C41.3707 28.2953 41.3471 28.2075 41.1933 28.0055C40.8722 27.5838 40.8649 27.5825 38.715 27.5825H36.781V24V20.4174H38.715C40.8592 20.4174 40.873 20.4151 41.187 20.0026C41.388 19.7387 41.4551 19.2795 41.3425 18.9379C41.25 18.6573 40.9131 18.3533 40.5969 18.2653C40.4562 18.2262 39.6225 18.1987 38.5711 18.1985L36.7843 18.1981L36.7669 15.0119L36.7493 11.8256L36.6016 11.6181C36.5203 11.5039 36.3433 11.3542 36.2084 11.2852C35.9738 11.1653 35.8263 11.1598 32.8585 11.1598H29.754L29.7525 9.40023C29.7509 7.58187 29.719 7.25488 29.5169 6.98368C29.2706 6.65332 29.0777 6.56271 28.6207 6.56271C28.2499 6.56271 28.1623 6.5863 27.9606 6.74038C27.5395 7.06205 27.5383 7.06934 27.5383 9.22269V11.1598H23.9614H20.3846V9.22269C20.3846 7.07258 20.3828 7.06161 19.967 6.74393C19.6804 6.52505 19.1278 6.46811 18.8338 6.62726ZM13.3576 24V34.6208H23.9614H34.5653V24V13.3791H23.9614H13.3576V24ZM18.9706 18.2757C18.6388 18.3637 18.3309 18.6879 18.2415 19.0433C18.1437 19.4323 18.1389 28.4508 18.2363 28.9054C18.3672 29.5169 18.9317 29.8695 19.5588 29.7316C19.8903 29.6588 20.0676 29.5293 20.2528 29.225C20.3828 29.0114 20.3842 28.9573 20.3844 24.0199C20.3845 21.2627 20.3594 18.9643 20.3284 18.8824C20.2341 18.634 19.8829 18.3412 19.5911 18.2676C19.2795 18.189 19.2982 18.1887 18.9706 18.2757ZM23.55 21.2841C23.3067 21.3843 23.0818 21.6005 22.9742 21.8378C22.864 22.0809 22.8562 22.3194 22.855 25.5091C22.8538 28.5302 22.8653 28.9436 22.9562 29.1233C23.182 29.5699 23.4783 29.7565 23.9614 29.7565C24.3526 29.7565 24.6269 29.6219 24.8603 29.3155L25.0377 29.0826L25.0555 25.6219C25.0755 21.7509 25.0785 21.7807 24.6446 21.4492C24.4672 21.3137 24.3408 21.275 24.033 21.2617C23.8195 21.2526 23.6022 21.2626 23.55 21.2841ZM28.1061 24.3646C27.951 24.4431 27.7598 24.6042 27.6812 24.7227C27.5403 24.9351 27.5383 24.9668 27.5383 26.9651C27.5383 28.9048 27.544 29.0021 27.6708 29.2282C28.1375 30.0599 29.4485 29.8828 29.6814 28.9566C29.769 28.6079 29.7788 25.4518 29.6934 25.0828C29.6617 24.946 29.5824 24.7605 29.5171 24.6706C29.3586 24.4525 28.8948 24.2219 28.6145 24.2219C28.4899 24.2219 28.2612 24.2861 28.1061 24.3646Z" fill="#DB5C5C"/>
<path fill-rule="evenodd" clip-rule="evenodd" d="M18.8641 6.62732C18.6051 6.76726 18.4581 6.90765 18.3344 7.13332C18.2452 7.29571 18.227 7.60533 18.2098 9.24177L18.1898 11.1599L15.0711 11.1609C11.9532 11.162 11.9524 11.162 11.7001 11.3049C11.5586 11.385 11.385 11.5586 11.3049 11.7001C11.162 11.9524 11.162 11.9532 11.1609 15.0711L11.1599 18.1898L9.24176 18.2098C7.55935 18.2274 7.29875 18.2435 7.12089 18.3408C6.38744 18.7418 6.339 19.8054 7.03281 20.2729C7.24453 20.4156 7.2723 20.4175 9.20359 20.4175H11.1599V24V27.5826H9.22274C7.0694 27.5826 7.06211 27.5839 6.74044 28.0056C6.58693 28.2068 6.56277 28.2959 6.56277 28.6605C6.56277 29.0251 6.58693 29.1143 6.74044 29.3155C7.0829 29.7645 7.10072 29.7678 9.24176 29.7902L11.1599 29.8102L11.1609 32.9289C11.162 36.0469 11.162 36.0476 11.3049 36.2999C11.385 36.4414 11.5586 36.615 11.7001 36.6952C11.9524 36.8381 11.9532 36.8381 15.0711 36.8392L18.1898 36.8402L18.2098 38.7583C18.2322 40.8993 18.2356 40.9171 18.6846 41.2596C18.8858 41.4131 18.9749 41.4373 19.3395 41.4373C19.7041 41.4373 19.7933 41.4131 19.9945 41.2596C20.4162 40.9379 20.4175 40.9306 20.4175 38.7773V36.8402H24H27.5826V38.7965C27.5826 40.7277 27.5844 40.7555 27.7272 40.9672C28.1947 41.661 29.2582 41.6126 29.6593 40.8792C29.7566 40.7012 29.7725 40.4416 29.7894 38.7583L29.8087 36.8402L32.9281 36.8392C36.0469 36.8381 36.0476 36.8381 36.2999 36.6952C36.4414 36.615 36.615 36.4414 36.6952 36.2999C36.8381 36.0476 36.8381 36.047 36.8392 32.9247L36.8402 29.8019L38.5998 29.8004C40.4181 29.7988 40.7451 29.7669 41.0163 29.5644C41.3467 29.3178 41.4373 29.1245 41.4373 28.6668C41.4373 28.2954 41.4137 28.2076 41.2596 28.0056C40.9379 27.5839 40.9306 27.5826 38.7773 27.5826H36.8402V24V20.4175H38.7773C40.9249 20.4175 40.9388 20.4152 41.2533 20.0027C41.4546 19.7388 41.5218 19.2795 41.4091 18.938C41.3164 18.6573 40.9789 18.3533 40.6622 18.2654C40.5213 18.2263 39.6863 18.1987 38.6332 18.1986L36.8435 18.1982L36.826 15.0119L36.8085 11.8257L36.6605 11.6181C36.5791 11.504 36.4018 11.3542 36.2667 11.2852C36.0317 11.1654 35.8839 11.1599 32.9114 11.1599H29.8019L29.8003 9.40029C29.7988 7.58193 29.7669 7.25494 29.5644 6.98374C29.3177 6.65338 29.1245 6.56277 28.6668 6.56277C28.2954 6.56277 28.2076 6.58636 28.0056 6.74044C27.5838 7.06211 27.5826 7.0694 27.5826 9.22275V11.1599H24H20.4175V9.22275C20.4175 7.07264 20.4156 7.06167 19.9992 6.74399C19.7121 6.52511 19.1586 6.46817 18.8641 6.62732ZM13.3791 24V34.6209H24H34.6209V24V13.3792H24H13.3791V24ZM19.0012 18.2757C18.6688 18.3638 18.3604 18.6879 18.2709 19.0433C18.1729 19.4324 18.1681 28.4508 18.2656 28.9055C18.3968 29.5169 18.9622 29.8696 19.5903 29.7317C19.9223 29.6588 20.0999 29.5293 20.2854 29.2251C20.4156 29.0115 20.417 28.9574 20.4172 24.02C20.4173 21.2628 20.3922 18.9644 20.3611 18.8825C20.2667 18.6341 19.9149 18.3412 19.6226 18.2677C19.3105 18.189 19.3292 18.1888 19.0012 18.2757ZM23.5879 21.2842C23.3442 21.3843 23.119 21.6005 23.0112 21.8379C22.9008 22.0809 22.893 22.3195 22.8918 25.5091C22.8906 28.5303 22.9021 28.9436 22.9932 29.1234C23.2193 29.5699 23.5161 29.7566 24 29.7566C24.3918 29.7566 24.6665 29.622 24.9003 29.3155L25.078 29.0826L25.0958 25.6219C25.1159 21.7509 25.1189 21.7807 24.6843 21.4493C24.5066 21.3138 24.38 21.2751 24.0717 21.2618C23.8579 21.2526 23.6402 21.2627 23.5879 21.2842ZM28.1514 24.3646C27.996 24.4431 27.8045 24.6042 27.7258 24.7228C27.5846 24.9352 27.5826 24.9669 27.5826 26.9651C27.5826 28.9049 27.5883 29.0022 27.7154 29.2283C28.1828 30.06 29.4959 29.8829 29.7291 28.9567C29.8169 28.608 29.8267 25.4519 29.7412 25.0828C29.7094 24.9461 29.63 24.7606 29.5646 24.6707C29.4059 24.4526 28.9413 24.222 28.6605 24.222C28.5358 24.222 28.3067 24.2861 28.1514 24.3646Z" fill="white"/>
</g>
<defs>
<clipPath id="clip0_5783_495">
<rect width="48" height="48" fill="white"/>
</clipPath>
</defs>
</svg>
