<svg width="48" height="48" viewBox="0 0 48 48" fill="none" xmlns="http://www.w3.org/2000/svg">
<g clip-path="url(#clip0_5783_497)">
<path fill-rule="evenodd" clip-rule="evenodd" d="M6.13414 0.112187C3.0562 0.593202 0.552692 3.07008 0.0805094 6.10157C0.0153889 6.51999 -0.00212254 11.4101 0.0153107 24.3512L0.0390762 42.0292L0.254763 42.7158C1.05106 45.2504 2.91048 47.0489 5.46284 47.7533L6.21497 47.9609H23.9609H41.7068L42.4008 47.7845C45.0436 47.1123 47.031 45.1637 47.7627 42.5274C47.8502 42.2122 47.9218 41.8549 47.9218 41.7335C47.9218 41.6062 47.9549 41.5331 48 41.5609C48.0521 41.593 48.0763 35.6899 48.0727 23.907C48.0696 13.9612 48.0378 6.2732 48 6.36093C47.9431 6.49322 47.932 6.47964 47.9273 6.27211C47.9185 5.88147 47.5477 4.6949 47.2377 4.06567C46.313 2.18867 44.5648 0.786138 42.4411 0.217475L41.785 0.0417869L24.2736 0.0278942C10.5385 0.0170455 6.6268 0.0352308 6.13414 0.112187ZM0.0383726 24C0.0383726 33.7443 0.0475192 37.7423 0.0586201 32.8842C0.0697211 28.0263 0.0697211 20.0536 0.0586201 15.1672C0.0475192 10.2808 0.0383726 14.2556 0.0383726 24ZM19.4896 6.70871C18.9634 7.02903 18.9602 7.04557 18.9337 9.57677L18.9099 11.8634L17.0966 11.8652C16.0994 11.8663 15.1458 11.899 14.9776 11.9379C14.8093 11.9768 14.5631 12.1172 14.4303 12.2497L14.1889 12.4907L14.1693 26.1673C14.1502 39.4419 14.154 39.851 14.2969 40.0842C14.6228 40.6165 14.0192 40.5853 24.0118 40.585C32.8719 40.5848 33.0338 40.582 33.2841 40.4296C33.4243 40.3443 33.6087 40.1601 33.6942 40.0202C33.8477 39.7689 33.8496 39.5992 33.8496 26.2243C33.8496 12.9312 33.8468 12.6783 33.6969 12.433C33.3924 11.9342 33.2513 11.905 31.0163 11.8781L29.0032 11.8538V9.59129C29.0032 7.08959 28.9878 6.99937 28.5108 6.70903C28.2707 6.56284 28.0881 6.5566 24 6.5566C19.9145 6.5566 19.7292 6.56292 19.4896 6.70871ZM21.1857 10.3414V11.8634H23.9609H26.7361V10.3414V8.81946H23.9609H21.1857V10.3414ZM16.4169 26.2243V38.3219H24H31.5831V26.2243V14.1268H24H16.4169V26.2243ZM25.1306 17.5635C25 17.6028 24.8013 17.7323 24.689 17.8516C24.267 18.2997 19.3936 25.7621 19.3413 26.0403C19.263 26.4569 19.4254 26.888 19.7552 27.1394L20.0396 27.356L22.8014 27.3951L25.5632 27.4341L23.6077 30.3913C22.5322 32.0178 21.6309 33.4336 21.6047 33.5375C21.5082 33.9213 21.6308 34.354 21.917 34.6396C22.1475 34.8698 22.2565 34.9179 22.6067 34.9437C22.9293 34.9676 23.0806 34.9383 23.28 34.8133C23.465 34.6973 24.2738 33.5424 26.1657 30.6919C28.6085 27.0115 28.7967 26.7036 28.8292 26.3347C28.8699 25.8724 28.722 25.5192 28.3993 25.308C28.2121 25.1854 27.8894 25.1665 25.3925 25.1317L22.5956 25.0926L24.5967 22.0672C26.5542 19.1077 26.5979 19.033 26.5979 18.6442C26.5979 17.872 25.8751 17.3397 25.1306 17.5635Z" fill="#A571E6"/>
<path fill-rule="evenodd" clip-rule="evenodd" d="M19.4895 6.70876C18.9634 7.02907 18.9602 7.04562 18.9337 9.57682L18.9099 11.8634L17.0966 11.8653C16.0994 11.8663 15.1458 11.899 14.9775 11.9379C14.8093 11.9769 14.5631 12.1172 14.4303 12.2498L14.1889 12.4908L14.1693 26.1673C14.1502 39.4419 14.154 39.851 14.2969 40.0843C14.6228 40.6165 14.0192 40.5854 24.0118 40.585C32.8719 40.5848 33.0338 40.5821 33.2841 40.4297C33.4242 40.3443 33.6087 40.1601 33.6942 40.0202C33.8476 39.769 33.8496 39.5992 33.8496 26.2244C33.8496 12.9312 33.8468 12.6783 33.6969 12.4331C33.3923 11.9343 33.2513 11.9051 31.0163 11.8782L29.0032 11.8538V9.59133C29.0032 7.08964 28.9878 6.99941 28.5108 6.70907C28.2707 6.56288 28.0881 6.55664 24 6.55664C19.9145 6.55664 19.7292 6.56296 19.4895 6.70876ZM21.1856 10.3415V11.8634H23.9609H26.7361V10.3415V8.81951H23.9609H21.1856V10.3415ZM16.4169 26.2244V38.3219H24H31.583V26.2244V14.1268H24H16.4169V26.2244ZM25.1306 17.5635C25 17.6028 24.8013 17.7324 24.689 17.8516C24.267 18.2997 19.3935 25.7622 19.3412 26.0403C19.263 26.457 19.4254 26.888 19.7552 27.1394L20.0396 27.3561L22.8014 27.3951L25.5632 27.4341L23.6077 30.3913C22.5321 32.0179 21.6309 33.4336 21.6047 33.5376C21.5082 33.9213 21.6308 34.354 21.917 34.6397C22.1474 34.8699 22.2565 34.9179 22.6067 34.9438C22.9293 34.9676 23.0806 34.9383 23.28 34.8133C23.465 34.6974 24.2738 33.5424 26.1657 30.692C28.6084 27.0116 28.7967 26.7036 28.8291 26.3347C28.8699 25.8725 28.722 25.5193 28.3993 25.308C28.2121 25.1855 27.8894 25.1665 25.3925 25.1317L22.5956 25.0927L24.5967 22.0672C26.5541 19.1077 26.5978 19.033 26.5978 18.6442C26.5978 17.8721 25.8751 17.3398 25.1306 17.5635Z" fill="white"/>
</g>
<defs>
<clipPath id="clip0_5783_497">
<rect width="48" height="48" fill="white"/>
</clipPath>
</defs>
</svg>
