<svg fill="none" viewBox="0 0 40 40" height="40" width="40" xmlns="http://www.w3.org/2000/svg">
  <g transform="matrix(2.67 0 0 2.67 -1.39 -1.39)">
    <path d="m8.04 12.1c-0.00529 1e-4 -0.0106 6e-4 -0.0158 6e-4 -0.145 0.0012-0.29-0.035-0.42-0.108l-2.95-1.67c-0.173-0.0976-0.281-0.28-0.283-0.479l-5e-5 -3.39c-0.00145-0.145 0.0272-0.284 0.0859-0.407l-2.31-1.29c-0.0972 0.203-0.145 0.434-0.142 0.673l8e-5 5.6c0.00319 0.328 0.181 0.63 0.467 0.791l4.87 2.75c0.215 0.121 0.455 0.181 0.693 0.179l6e-5 -4e-3c0.00545-0.349 0.00374-1.76 0.00203-2.64z" fill="#083042"/>
    <path d="m4.45 6.01c0.0633-0.132 0.161-0.245 0.295-0.324l2.78-1.64c0.259-0.153 0.579-0.156 0.841-0.00807l2.81 1.59c0.125 0.0708 0.235 0.171 0.315 0.289 3e-4 4.7e-4 6e-4 9.6e-4 9e-4 0.00142l2.27-1.36c-0.133-0.195-0.314-0.36-0.52-0.477l-4.64-2.62c-0.432-0.244-0.961-0.239-1.39 0.0133l-4.59 2.71c-0.221 0.13-0.383 0.317-0.487 0.535l2.31 1.29c9e-5 -1.7e-4 1.5e-4 -3.6e-4 2.4e-4 -5.3e-4z" fill="#3ddc84"/>
    <path d="m13.8 4.56-2.27 1.36c0.087 0.128 0.14 0.277 0.142 0.433v3.23c0.0027 0.301-0.155 0.579-0.413 0.732l-2.78 1.64c-0.125 0.0739-0.264 0.112-0.405 0.116 0.00171 0.886 0.00343 2.29-0.00202 2.64l-5e-5 4e-3c0.24-2e-3 0.48-0.0656 0.694-0.192l4.59-2.71c0.427-0.252 0.687-0.712 0.682-1.21l1e-4 -5.33c-0.0025-0.258-0.0905-0.505-0.235-0.717z" fill="#4285f4"/>
    <path d="m5.61 6.69c-0.0232 0.0552-0.0386 0.114-0.0446 0.176-0.00228 0.0237-0.0033 0.0478-0.00306 0.0721l3e-5 2.27c1.8e-4 0.0166 0.00144 0.0331 0.00376 0.0494 0.00697 0.0487 0.0234 0.0951 0.048 0.137 0.0164 0.0277 0.0363 0.0534 0.0594 0.0761 0.0231 0.0228 0.0494 0.0427 0.0785 0.059l1.98 1.12c0.0873 0.0493 0.185 0.0736 0.282 0.0728 0.00703-1e-4 0.014-5e-4 0.0211-9e-4 0.0904-4e-3 0.18-0.0294 0.261-0.0771l1.86-1.1c0.0108-0.00639 0.0214-0.0131 0.0317-0.0202 0.0206-0.0141 0.0401-0.0294 0.0584-0.0458 0.0275-0.0247 0.0523-0.0518 0.0742-0.0811 0.0147-0.0195 0.028-0.0399 0.0399-0.0611 0.0079-0.0138 0.0149-0.0281 0.0215-0.0426 0.0072-0.0158 0.0137-0.0318 0.0195-0.0482 2e-3 -0.00572 0.0039-0.0115 0.0057-0.0172 0.0175-0.0556 0.0267-0.114 0.0262-0.174v-2.16c-4e-4 -0.0393-0.0056-0.078-0.0152-0.116-0.0063-0.025-0.0146-0.0496-0.0245-0.0734-5e-3 -0.0119-0.0104-0.0237-0.0162-0.0353-0.0068-0.0136-0.0144-0.0269-0.0223-0.04-0.0055-0.00917-0.0112-0.0183-0.0172-0.0272-0.0135-0.0198-0.0282-0.0389-0.0439-0.0571-0.0474-0.0546-0.104-0.101-0.168-0.137l-1.88-1.06c-0.0329-0.0186-0.0671-0.0336-0.102-0.045-0.0468-0.0153-0.0952-0.0243-0.144-0.027-0.0122-6.8e-4 -0.0243-9.6e-4 -0.0365-8.4e-4 -0.0133 1.2e-4 -0.0267 8.3e-4 -0.04 0.0019-0.0328 0.00265-0.0655 0.00827-0.0976 0.0167-6e-3 0.00157-0.012 0.00331-0.0179 0.00509-0.0434 0.0129-0.0856 0.031-0.126 0.0546l-1.86 1.1c-0.056 0.0331-0.103 0.0751-0.14 0.124-0.015 0.0194-0.0285 0.0398-0.0406 0.0611-0.00603 0.0107-0.0117 0.0215-0.017 0.0326-0.00386 0.00807-0.00662 0.0167-0.0101 0.025z" fill="#d6f0ff"/>
    <path d="m8.04 10.7c-0.00702 4e-4 -0.014 8e-4 -0.0211 9e-4 -0.097 8e-4 -0.194-0.0235-0.282-0.0728l-1.98-1.12c-0.029-0.0164-0.0553-0.0363-0.0785-0.059-0.0231-0.0228-0.0431-0.0484-0.0594-0.0761-0.0245-0.0416-0.041-0.088-0.048-0.137-0.00232-0.0162-0.00359-0.0327-0.00376-0.0494l-3e-5 -2.27c-2.3e-4 -0.0243 7.9e-4 -0.0484 0.00306-0.0721 0.00596-0.0619 0.0214-0.121 0.0446-0.176l-0.534-0.329-0.626-0.35c-0.0587 0.123-0.0873 0.262-0.0859 0.407l5e-5 3.39c0.00194 0.199 0.11 0.382 0.283 0.479l2.95 1.67c0.13 0.0735 0.275 0.11 0.42 0.108 0.00528 0 0.0106-5e-4 0.0158-6e-4 -8.4e-4 -0.432-0.00167-0.74-0.00167-0.74z" fill="#083042"/>
    <path d="m8.04 10.7c-0.00702 4e-4 -0.014 8e-4 -0.0211 9e-4 -0.097 8e-4 -0.194-0.0235-0.282-0.0728l-1.98-1.12c-0.029-0.0164-0.0553-0.0363-0.0785-0.059-0.0231-0.0228-0.0431-0.0484-0.0594-0.0761-0.0245-0.0416-0.041-0.088-0.048-0.137-0.00232-0.0162-0.00359-0.0327-0.00376-0.0494l-3e-5 -2.27c-2.3e-4 -0.0243 7.9e-4 -0.0484 0.00306-0.0721 0.00596-0.0619 0.0214-0.121 0.0446-0.176l-0.534-0.329-0.626-0.35c-0.0587 0.123-0.0873 0.262-0.0859 0.407l5e-5 3.39c0.00194 0.199 0.11 0.382 0.283 0.479l2.95 1.67c0.13 0.0735 0.275 0.11 0.42 0.108 0.00528 0 0.0106-5e-4 0.0158-6e-4 -8.4e-4 -0.432-0.00167-0.74-0.00167-0.74z" fill="#041619"/>
    <path d="m11.2 5.63-2.81-1.59c-0.262-0.148-0.582-0.145-0.841 0.00807l-2.78 1.64c-0.134 0.079-0.232 0.192-0.295 0.324-8e-5 1.7e-4 -1.4e-4 3.6e-4 -2.3e-4 5.4e-4l0.626 0.35 0.534 0.329c0.00348-0.00829 0.00625-0.0169 0.0101-0.025 0.0053-0.0111 0.011-0.022 0.017-0.0326 0.0121-0.0213 0.0256-0.0418 0.0406-0.0612 0.0375-0.0485 0.0842-0.0904 0.14-0.124l1.86-1.1c0.04-0.0236 0.0822-0.0416 0.126-0.0546 0.00595-0.00177 0.0119-0.00351 0.0179-0.00508 0.0321-0.00842 0.0647-0.014 0.0976-0.0167 0.0133-0.00108 0.0266-0.00178 0.04-0.0019 0.0122-1.2e-4 0.0243 1.7e-4 0.0365 8.3e-4 0.0486 0.00269 0.0969 0.0117 0.144 0.027 0.0351 0.0115 0.0694 0.0265 0.102 0.045l1.88 1.06c0.063 0.0356 0.12 0.0822 0.167 0.137 0.0158 0.0182 0.0305 0.0372 0.0439 0.0571 0.0061 0.00887 0.0117 0.018 0.0173 0.0272l0.48-0.321 0.655-0.391c-3e-4 -4.7e-4 -6e-4 -9.6e-4 -9e-4 -0.00142-0.0803-0.118-0.19-0.218-0.315-0.289z" fill="#3ddb85"/>
    <path d="m11.2 5.63-2.81-1.59c-0.262-0.148-0.582-0.145-0.841 0.00807l-2.78 1.64c-0.134 0.079-0.232 0.192-0.295 0.324-8e-5 1.7e-4 -1.4e-4 3.6e-4 -2.3e-4 5.4e-4l0.626 0.35 0.534 0.329c0.00348-0.00829 0.00625-0.0169 0.0101-0.025 0.0053-0.0111 0.011-0.022 0.017-0.0326 0.0121-0.0213 0.0256-0.0418 0.0406-0.0612 0.0375-0.0485 0.0842-0.0904 0.14-0.124l1.86-1.1c0.04-0.0236 0.0822-0.0416 0.126-0.0546 0.00595-0.00177 0.0119-0.00351 0.0179-0.00508 0.0321-0.00842 0.0647-0.014 0.0976-0.0167 0.0133-0.00108 0.0266-0.00178 0.04-0.0019 0.0122-1.2e-4 0.0243 1.7e-4 0.0365 8.3e-4 0.0486 0.00269 0.0969 0.0117 0.144 0.027 0.0351 0.0115 0.0694 0.0265 0.102 0.045l1.88 1.06c0.063 0.0356 0.12 0.0822 0.167 0.137 0.0158 0.0182 0.0305 0.0372 0.0439 0.0571 0.0061 0.00887 0.0117 0.018 0.0173 0.0272l0.48-0.321 0.655-0.391c-3e-4 -4.7e-4 -6e-4 -9.6e-4 -9e-4 -0.00142-0.0803-0.118-0.19-0.218-0.315-0.289z" fill="#37bf6e"/>
    <path d="m10.4 6.63c0.0079 0.0131 0.0154 0.0264 0.0223 0.04 0.0058 0.0116 0.0112 0.0234 0.0161 0.0353 0.01 0.0239 0.0182 0.0484 0.0246 0.0734 0.0095 0.0375 0.0148 0.0762 0.0152 0.116l-1e-4 2.16c6e-4 0.0601-0.0086 0.119-0.0261 0.174-0.0019 0.00579-0.0038 0.0115-0.0058 0.0173-0.0057 0.0164-0.0123 0.0325-0.0195 0.0482-0.0066 0.0145-0.0136 0.0287-0.0214 0.0426-0.012 0.0212-0.0253 0.0416-0.0399 0.0611-0.0219 0.0292-0.0468 0.0564-0.0743 0.0811-0.0183 0.0164-0.0378 0.0318-0.0583 0.0458-0.0103 0.00704-0.0209 0.0138-0.0317 0.0202l-1.86 1.1c-0.0807 0.0477-0.17 0.073-0.261 0.0771l9e-5 0.601s8.3e-4 0.308 0.00167 0.74c0.14-0.0038 0.28-0.0419 0.405-0.116l2.78-1.64c0.258-0.153 0.416-0.431 0.413-0.732l1e-4 -3.23c-0.0016-0.156-0.0545-0.305-0.142-0.433l-0.655 0.391z" fill="#4285f4"/>
    <path d="m10.4 6.63c0.0079 0.0131 0.0154 0.0264 0.0223 0.04 0.0058 0.0116 0.0112 0.0234 0.0161 0.0353 0.01 0.0239 0.0182 0.0484 0.0246 0.0734 0.0095 0.0375 0.0148 0.0762 0.0152 0.116l-1e-4 2.16c6e-4 0.0601-0.0086 0.119-0.0261 0.174-0.0019 0.00579-0.0038 0.0115-0.0058 0.0173-0.0057 0.0164-0.0123 0.0325-0.0195 0.0482-0.0066 0.0145-0.0136 0.0287-0.0214 0.0426-0.012 0.0212-0.0253 0.0416-0.0399 0.0611-0.0219 0.0292-0.0468 0.0564-0.0743 0.0811-0.0183 0.0164-0.0378 0.0318-0.0583 0.0458-0.0103 0.00704-0.0209 0.0138-0.0317 0.0202l-1.86 1.1c-0.0807 0.0477-0.17 0.073-0.261 0.0771l9e-5 0.601s8.3e-4 0.308 0.00167 0.74c0.14-0.0038 0.28-0.0419 0.405-0.116l2.78-1.64c0.258-0.153 0.416-0.431 0.413-0.732l1e-4 -3.23c-0.0016-0.156-0.0545-0.305-0.142-0.433l-0.655 0.391z" fill="#3870b2"/>
  </g>
</svg>
