<svg xmlns="http://www.w3.org/2000/svg" xmlns:xlink="http://www.w3.org/1999/xlink" width="860" height="680"><g transform="translate(-180 -260)"><path d="M0 0h1360v1760H0z" fill="#fff"/><path d="M205 920c-2.76 0-5-2.24-5-5V285c0-2.76 2.24-5 5-5h30c2.76 0 5 2.24 5 5v630c0 2.76-2.24 5-5 5z" fill="#fff"/><path d="M220 920V280h20v640z" fill="#fff"/><path d="M1020 915c0 2.76-2.24 5-5 5H205c-2.76 0-5-2.24-5-5V285c0-2.76 2.24-5 5-5h810c2.76 0 5 2.24 5 5zM240 920V280m-40 480h820M200 540h820" stroke="#000" stroke-width="2" fill="none"/><use xlink:href="#a" transform="matrix(6.123233995736766e-17,-1,1,6.123233995736766e-17,200.00000000000003,540) translate(68.8 23.6)"/><use xlink:href="#b" transform="matrix(6.123233995736766e-17,-1,1,6.123233995736766e-17,200.00000000000003,760) translate(27.625 23.6)"/><use xlink:href="#c" transform="matrix(6.123233995736766e-17,-1,1,6.123233995736766e-17,200.00000000000003,760) translate(87.525 23.6)"/><use xlink:href="#d" transform="matrix(6.123233995736766e-17,-1,1,6.123233995736766e-17,200.00000000000003,760) translate(155.425 23.6)"/><use xlink:href="#e" transform="matrix(6.123233995736766e-17,-1,1,6.123233995736766e-17,200.00000000000003,920) translate(57.025 23.6)"/><path d="M260 325c0-2.76 2.24-5 5-5h730c2.76 0 5 2.24 5 5v190c0 2.76-2.24 5-5 5H265c-2.76 0-5-2.24-5-5z" fill="none"/><use xlink:href="#f" transform="matrix(1,0,0,1,265,325) translate(0 14.4)"/><use xlink:href="#g" transform="matrix(1,0,0,1,265,325) translate(0 36)"/><use xlink:href="#h" transform="matrix(1,0,0,1,265,325) translate(0 57.6)"/><use xlink:href="#i" transform="matrix(1,0,0,1,265,325) translate(148.70000000000002 57.6)"/><use xlink:href="#j" transform="matrix(1,0,0,1,265,325) translate(180.70000000000002 57.6)"/><use xlink:href="#k" transform="matrix(1,0,0,1,265,325) translate(0 79.20000000000002)"/><use xlink:href="#l" transform="matrix(1,0,0,1,265,325) translate(30 79.20000000000002)"/><use xlink:href="#m" transform="matrix(1,0,0,1,265,325) translate(40.95 79.20000000000002)"/><use xlink:href="#n" transform="matrix(1,0,0,1,265,325) translate(70.95 79.20000000000002)"/><use xlink:href="#o" transform="matrix(1,0,0,1,265,325) translate(95.95 79.20000000000002)"/><use xlink:href="#p" transform="matrix(1,0,0,1,265,325) translate(193.75 79.20000000000002)"/><use xlink:href="#k" transform="matrix(1,0,0,1,265,325) translate(0 100.80000000000001)"/><use xlink:href="#l" transform="matrix(1,0,0,1,265,325) translate(30 100.80000000000001)"/><use xlink:href="#q" transform="matrix(1,0,0,1,265,325) translate(40.95 100.80000000000001)"/><use xlink:href="#r" transform="matrix(1,0,0,1,265,325) translate(54.900000000000006 100.80000000000001)"/><use xlink:href="#s" transform="matrix(1,0,0,1,265,325) translate(97.9 100.80000000000001)"/><use xlink:href="#t" transform="matrix(1,0,0,1,265,325) translate(164.70000000000002 100.80000000000001)"/><use xlink:href="#u" transform="matrix(1,0,0,1,265,325) translate(251.65000000000003 100.80000000000001)"/><use xlink:href="#v" transform="matrix(1,0,0,1,265,325) translate(286.65000000000003 100.80000000000001)"/><use xlink:href="#w" transform="matrix(1,0,0,1,265,325) translate(321.65000000000003 100.80000000000001)"/><use xlink:href="#x" transform="matrix(1,0,0,1,265,325) translate(358.00000000000006 100.80000000000001)"/><use xlink:href="#g" transform="matrix(1,0,0,1,265,325) translate(0 122.4)"/><use xlink:href="#y" transform="matrix(1,0,0,1,265,325) translate(0 144)"/><use xlink:href="#q" transform="matrix(1,0,0,1,265,325) translate(172.5 144)"/><use xlink:href="#z" transform="matrix(1,0,0,1,265,325) translate(186.45 144)"/><use xlink:href="#A" transform="matrix(1,0,0,1,265,325) translate(216.45 144)"/><use xlink:href="#B" transform="matrix(1,0,0,1,265,325) translate(254.39999999999998 144)"/><use xlink:href="#C" transform="matrix(1,0,0,1,265,325) translate(327.4 144)"/><use xlink:href="#D" transform="matrix(1,0,0,1,265,325) translate(374.34999999999997 144)"/><use xlink:href="#E" transform="matrix(1,0,0,1,265,325) translate(407.29999999999995 144)"/><use xlink:href="#F" transform="matrix(1,0,0,1,265,325) translate(450.19999999999993 144)"/><use xlink:href="#G" transform="matrix(1,0,0,1,265,325) translate(481.1499999999999 144)"/><use xlink:href="#H" transform="matrix(1,0,0,1,265,325) translate(507.0999999999999 144)"/><use xlink:href="#I" transform="matrix(1,0,0,1,265,325) translate(0 165.6)"/><use xlink:href="#q" transform="matrix(1,0,0,1,265,325) translate(177.85 165.6)"/><use xlink:href="#z" transform="matrix(1,0,0,1,265,325) translate(191.79999999999998 165.6)"/><use xlink:href="#A" transform="matrix(1,0,0,1,265,325) translate(221.79999999999998 165.6)"/><use xlink:href="#B" transform="matrix(1,0,0,1,265,325) translate(259.75 165.6)"/><use xlink:href="#C" transform="matrix(1,0,0,1,265,325) translate(332.75 165.6)"/><use xlink:href="#D" transform="matrix(1,0,0,1,265,325) translate(379.7 165.6)"/><use xlink:href="#E" transform="matrix(1,0,0,1,265,325) translate(412.65 165.6)"/><use xlink:href="#F" transform="matrix(1,0,0,1,265,325) translate(455.54999999999995 165.6)"/><use xlink:href="#J" transform="matrix(1,0,0,1,265,325) translate(486.49999999999994 165.6)"/><use xlink:href="#K" transform="matrix(1,0,0,1,265,325) translate(506.49999999999994 165.6)"/><use xlink:href="#L" transform="matrix(1,0,0,1,265,325) translate(549.5 165.6)"/><path d="M260 585c0-2.76 2.24-5 5-5h710c2.76 0 5 2.24 5 5v110c0 2.76-2.24 5-5 5H265c-2.76 0-5-2.24-5-5z" fill="none"/><g><use xlink:href="#M" transform="matrix(1,0,0,1,265,585) translate(0 37)"/><use xlink:href="#N" transform="matrix(1,0,0,1,265,585) translate(59.900000000000006 37)"/><use xlink:href="#O" transform="matrix(1,0,0,1,265,585) translate(93.9 37)"/><use xlink:href="#M" transform="matrix(1,0,0,1,265,585) translate(0 58.6)"/><use xlink:href="#P" transform="matrix(1,0,0,1,265,585) translate(59.900000000000006 58.6)"/><use xlink:href="#M" transform="matrix(1,0,0,1,265,585) translate(0 80.20000000000002)"/><use xlink:href="#Q" transform="matrix(1,0,0,1,265,585) translate(59.900000000000006 80.20000000000002)"/></g><path d="M260 785c0-2.76 2.24-5 5-5h690c2.76 0 5 2.24 5 5v110c0 2.76-2.24 5-5 5H265c-2.76 0-5-2.24-5-5z" fill="none"/><g><use xlink:href="#R" transform="matrix(1,0,0,1,265,785) translate(0 37)"/><use xlink:href="#S" transform="matrix(1,0,0,1,265,785) translate(51.900000000000006 37)"/><use xlink:href="#T" transform="matrix(1,0,0,1,265,785) translate(106.80000000000001 37)"/><use xlink:href="#u" transform="matrix(1,0,0,1,265,785) translate(154.75 37)"/><use xlink:href="#U" transform="matrix(1,0,0,1,265,785) translate(189.75 37)"/><use xlink:href="#V" transform="matrix(1,0,0,1,265,785) translate(265.7 37)"/><use xlink:href="#W" transform="matrix(1,0,0,1,265,785) translate(0 58.6)"/><use xlink:href="#S" transform="matrix(1,0,0,1,265,785) translate(98.85000000000001 58.6)"/><use xlink:href="#X" transform="matrix(1,0,0,1,265,785) translate(153.75 58.6)"/><use xlink:href="#Y" transform="matrix(1,0,0,1,265,785) translate(252.60000000000002 58.6)"/><use xlink:href="#Z" transform="matrix(1,0,0,1,265,785) translate(289.55 58.6)"/><use xlink:href="#aa" transform="matrix(1,0,0,1,265,785) translate(0 80.20000000000002)"/><use xlink:href="#ab" transform="matrix(1,0,0,1,265,785) translate(90.85000000000001 80.20000000000002)"/><use xlink:href="#ac" transform="matrix(1,0,0,1,265,785) translate(172.75 80.20000000000002)"/></g><defs><path d="M33 0v-248h34V0H33" id="ad"/><path d="M190 0L58-211 59 0H30v-248h39L202-35l-2-213h31V0h-41" id="ae"/><path d="M185-189c-5-48-123-54-124 2 14 75 158 14 163 119 3 78-121 87-175 55-17-10-28-26-33-46l33-7c5 56 141 63 141-1 0-78-155-14-162-118-5-82 145-84 179-34 5 7 8 16 11 25" id="af"/><path d="M127-220V0H93v-220H8v-28h204v28h-85" id="ag"/><path d="M205 0l-28-72H64L36 0H1l101-248h38L239 0h-34zm-38-99l-47-123c-12 45-31 82-46 123h93" id="ah"/><path d="M-5 72V49h209v23H-5" id="ai"/><path d="M30-248c118-7 216 8 213 122C240-48 200 0 122 0H30v-248zM63-27c89 8 146-16 146-99s-60-101-146-95v194" id="aj"/><path d="M30 0v-248h187v28H63v79h144v27H63v87h162V0H30" id="ak"/><path d="M137 0h-34L2-248h35l83 218 83-218h36" id="al"/><g id="a"><use transform="matrix(0.05,0,0,0.05,0,0)" xlink:href="#ad"/><use transform="matrix(0.05,0,0,0.05,5,0)" xlink:href="#ae"/><use transform="matrix(0.05,0,0,0.05,17.950000000000003,0)" xlink:href="#af"/><use transform="matrix(0.05,0,0,0.05,29.950000000000003,0)" xlink:href="#ag"/><use transform="matrix(0.05,0,0,0.05,39.550000000000004,0)" xlink:href="#ah"/><use transform="matrix(0.05,0,0,0.05,51.550000000000004,0)" xlink:href="#ae"/><use transform="matrix(0.05,0,0,0.05,64.5,0)" xlink:href="#ag"/><use transform="matrix(0.05,0,0,0.05,75.45,0)" xlink:href="#ai"/><use transform="matrix(0.05,0,0,0.05,85.45,0)" xlink:href="#aj"/><use transform="matrix(0.05,0,0,0.05,98.4,0)" xlink:href="#ak"/><use transform="matrix(0.05,0,0,0.05,110.4,0)" xlink:href="#al"/></g><path d="M100-194c63 0 86 42 84 106H49c0 40 14 67 53 68 26 1 43-12 49-29l28 8c-11 28-37 45-77 45C44 4 14-33 15-96c1-61 26-98 85-98zm52 81c6-60-76-77-97-28-3 7-6 17-6 28h103" id="am"/><path d="M108 0H70L1-190h34L89-25l56-165h34" id="an"/><path d="M24-231v-30h32v30H24zM24 0v-190h32V0H24" id="ao"/><path d="M96-169c-40 0-48 33-48 73s9 75 48 75c24 0 41-14 43-38l32 2c-6 37-31 61-74 61-59 0-76-41-82-99-10-93 101-131 147-64 4 7 5 14 7 22l-32 3c-4-21-16-35-41-35" id="ap"/><g id="b"><use transform="matrix(0.05,0,0,0.05,0,0)" xlink:href="#aj"/><use transform="matrix(0.05,0,0,0.05,12.950000000000001,0)" xlink:href="#am"/><use transform="matrix(0.05,0,0,0.05,22.950000000000003,0)" xlink:href="#an"/><use transform="matrix(0.05,0,0,0.05,31.950000000000003,0)" xlink:href="#ao"/><use transform="matrix(0.05,0,0,0.05,35.900000000000006,0)" xlink:href="#ap"/><use transform="matrix(0.05,0,0,0.05,44.900000000000006,0)" xlink:href="#am"/></g><path d="M115-194c55 1 70 41 70 98S169 2 115 4C84 4 66-9 55-30l1 105H24l-1-265h31l2 30c10-21 28-34 59-34zm-8 174c40 0 45-34 45-75s-6-73-45-74c-42 0-51 32-51 76 0 43 10 73 51 73" id="aq"/><path d="M101-234c-31-9-42 10-38 44h38v23H63V0H32v-167H5v-23h27c-7-52 17-82 69-68v24" id="ar"/><g id="c"><use transform="matrix(0.05,0,0,0.05,0,0)" xlink:href="#af"/><use transform="matrix(0.05,0,0,0.05,12,0)" xlink:href="#aq"/><use transform="matrix(0.05,0,0,0.05,22,0)" xlink:href="#am"/><use transform="matrix(0.05,0,0,0.05,32,0)" xlink:href="#ap"/><use transform="matrix(0.05,0,0,0.05,41,0)" xlink:href="#ao"/><use transform="matrix(0.05,0,0,0.05,44.95,0)" xlink:href="#ar"/><use transform="matrix(0.05,0,0,0.05,49.95,0)" xlink:href="#ao"/><use transform="matrix(0.05,0,0,0.05,53.900000000000006,0)" xlink:href="#ap"/></g><path d="M114-163C36-179 61-72 57 0H25l-1-190h30c1 12-1 29 2 39 6-27 23-49 58-41v29" id="as"/><path d="M177-190C167-65 218 103 67 71c-23-6-38-20-44-43l32-5c15 47 100 32 89-28v-30C133-14 115 1 83 1 29 1 15-40 15-95c0-56 16-97 71-98 29-1 48 16 59 35 1-10 0-23 2-32h30zM94-22c36 0 50-32 50-73 0-42-14-75-50-75-39 0-46 34-46 75s6 73 46 73" id="at"/><path d="M135-143c-3-34-86-38-87 0 15 53 115 12 119 90S17 21 10-45l28-5c4 36 97 45 98 0-10-56-113-15-118-90-4-57 82-63 122-42 12 7 21 19 24 35" id="au"/><g id="d"><use transform="matrix(0.05,0,0,0.05,0,0)" xlink:href="#ah"/><use transform="matrix(0.05,0,0,0.05,12,0)" xlink:href="#as"/><use transform="matrix(0.05,0,0,0.05,17.95,0)" xlink:href="#at"/><use transform="matrix(0.05,0,0,0.05,27.950000000000003,0)" xlink:href="#au"/></g><path d="M141-36C126-15 110 5 73 4 37 3 15-17 15-53c-1-64 63-63 125-63 3-35-9-54-41-54-24 1-41 7-42 31l-33-3c5-37 33-52 76-52 45 0 72 20 72 64v82c-1 20 7 32 28 27v20c-31 9-61-2-59-35zM48-53c0 20 12 33 32 33 41-3 63-29 60-74-43 2-92-5-92 41" id="av"/><path d="M143 0L79-87 56-68V0H24v-261h32v163l83-92h37l-77 82L181 0h-38" id="aw"/><g id="e"><use transform="matrix(0.05,0,0,0.05,0,0)" xlink:href="#ag"/><use transform="matrix(0.05,0,0,0.05,8.950000000000001,0)" xlink:href="#av"/><use transform="matrix(0.05,0,0,0.05,18.950000000000003,0)" xlink:href="#au"/><use transform="matrix(0.05,0,0,0.05,27.950000000000003,0)" xlink:href="#aw"/><use transform="matrix(0.05,0,0,0.05,36.95,0)" xlink:href="#au"/></g><path d="M16-82v-28h88v28H16" id="ax"/><path d="M30-248c87 1 191-15 191 75 0 78-77 80-158 76V0H30v-248zm33 125c57 0 124 11 124-50 0-59-68-47-124-48v98" id="ay"/><path d="M117-194c89-4 53 116 60 194h-32v-121c0-31-8-49-39-48C34-167 62-67 57 0H25l-1-190h30c1 10-1 24 2 32 11-22 29-35 61-36" id="az"/><path d="M85-194c31 0 48 13 60 33l-1-100h32l1 261h-30c-2-10 0-23-3-31C134-8 116 4 85 4 32 4 16-35 15-94c0-66 23-100 70-100zm9 24c-40 0-46 34-46 75 0 40 6 74 45 74 42 0 51-32 51-76 0-42-9-74-50-73" id="aA"/><path d="M100-194c62-1 85 37 85 99 1 63-27 99-86 99S16-35 15-95c0-66 28-99 85-99zM99-20c44 1 53-31 53-75 0-43-8-75-51-75s-53 32-53 75 10 74 51 75" id="aB"/><path d="M33 0v-38h34V0H33" id="aC"/><path d="M59-47c-2 24 18 29 38 22v24C64 9 27 4 27-40v-127H5v-23h24l9-43h21v43h35v23H59v120" id="aD"/><path d="M24 0v-261h32V0H24" id="aE"/><path d="M210-169c-67 3-38 105-44 169h-31v-121c0-29-5-50-35-48C34-165 62-65 56 0H25l-1-190h30c1 10-1 24 2 32 10-44 99-50 107 0 11-21 27-35 58-36 85-2 47 119 55 194h-31v-121c0-29-5-49-35-48" id="aF"/><path d="M18-150v-26h174v26H18zm0 90v-26h174v26H18" id="aG"/><g id="f"><use transform="matrix(0.05,0,0,0.05,0,0)" xlink:href="#ax"/><use transform="matrix(0.05,0,0,0.05,5.95,0)" xlink:href="#ay"/><use transform="matrix(0.05,0,0,0.05,17.95,0)" xlink:href="#av"/><use transform="matrix(0.05,0,0,0.05,27.950000000000003,0)" xlink:href="#az"/><use transform="matrix(0.05,0,0,0.05,37.95,0)" xlink:href="#aA"/><use transform="matrix(0.05,0,0,0.05,47.95,0)" xlink:href="#as"/><use transform="matrix(0.05,0,0,0.05,53.900000000000006,0)" xlink:href="#aB"/><use transform="matrix(0.05,0,0,0.05,63.900000000000006,0)" xlink:href="#ao"/><use transform="matrix(0.05,0,0,0.05,67.85000000000001,0)" xlink:href="#aA"/><use transform="matrix(0.05,0,0,0.05,77.85000000000001,0)" xlink:href="#aC"/><use transform="matrix(0.05,0,0,0.05,82.85000000000001,0)" xlink:href="#aB"/><use transform="matrix(0.05,0,0,0.05,92.85000000000001,0)" xlink:href="#aq"/><use transform="matrix(0.05,0,0,0.05,102.85000000000001,0)" xlink:href="#aD"/><use transform="matrix(0.05,0,0,0.05,107.85000000000001,0)" xlink:href="#ao"/><use transform="matrix(0.05,0,0,0.05,111.80000000000001,0)" xlink:href="#aB"/><use transform="matrix(0.05,0,0,0.05,121.80000000000001,0)" xlink:href="#az"/><use transform="matrix(0.05,0,0,0.05,131.8,0)" xlink:href="#av"/><use transform="matrix(0.05,0,0,0.05,141.8,0)" xlink:href="#aE"/><use transform="matrix(0.05,0,0,0.05,145.75,0)" xlink:href="#aC"/><use transform="matrix(0.05,0,0,0.05,150.75,0)" xlink:href="#ap"/><use transform="matrix(0.05,0,0,0.05,159.75,0)" xlink:href="#aB"/><use transform="matrix(0.05,0,0,0.05,169.75,0)" xlink:href="#aF"/><use transform="matrix(0.05,0,0,0.05,184.7,0)" xlink:href="#aq"/><use transform="matrix(0.05,0,0,0.05,194.7,0)" xlink:href="#ao"/><use transform="matrix(0.05,0,0,0.05,198.64999999999998,0)" xlink:href="#aE"/><use transform="matrix(0.05,0,0,0.05,202.59999999999997,0)" xlink:href="#av"/><use transform="matrix(0.05,0,0,0.05,212.59999999999997,0)" xlink:href="#aD"/><use transform="matrix(0.05,0,0,0.05,217.59999999999997,0)" xlink:href="#ao"/><use transform="matrix(0.05,0,0,0.05,221.54999999999995,0)" xlink:href="#aB"/><use transform="matrix(0.05,0,0,0.05,231.54999999999995,0)" xlink:href="#az"/><use transform="matrix(0.05,0,0,0.05,241.54999999999995,0)" xlink:href="#aG"/><use transform="matrix(0.05,0,0,0.05,252.04999999999995,0)" xlink:href="#ad"/><use transform="matrix(0.05,0,0,0.05,257.04999999999995,0)" xlink:href="#ae"/><use transform="matrix(0.05,0,0,0.05,269.99999999999994,0)" xlink:href="#af"/><use transform="matrix(0.05,0,0,0.05,281.99999999999994,0)" xlink:href="#ag"/><use transform="matrix(0.05,0,0,0.05,291.5999999999999,0)" xlink:href="#ah"/><use transform="matrix(0.05,0,0,0.05,303.5999999999999,0)" xlink:href="#ae"/><use transform="matrix(0.05,0,0,0.05,316.5499999999999,0)" xlink:href="#ag"/><use transform="matrix(0.05,0,0,0.05,327.4999999999999,0)" xlink:href="#ai"/><use transform="matrix(0.05,0,0,0.05,337.4999999999999,0)" xlink:href="#aj"/><use transform="matrix(0.05,0,0,0.05,350.4499999999999,0)" xlink:href="#ak"/><use transform="matrix(0.05,0,0,0.05,362.4499999999999,0)" xlink:href="#al"/></g><path d="M233-177c-1 41-23 64-60 70L243 0h-38l-65-103H63V0H30v-248c88 3 205-21 203 71zM63-129c60-2 137 13 137-47 0-61-80-42-137-45v92" id="aH"/><path d="M140-251c81 0 123 46 123 126C263-46 219 4 140 4 59 4 17-45 17-125s42-126 123-126zm0 227c63 0 89-41 89-101s-29-99-89-99c-61 0-89 39-89 99S79-25 140-24" id="aI"/><path d="M30 0v-248h33v221h125V0H30" id="aJ"/><path d="M137-103V0h-34v-103L8-248h37l75 118 75-118h37" id="aK"/><path d="M33-154v-36h34v36H33zM33 0v-36h34V0H33" id="aL"/><g id="h"><use transform="matrix(0.05,0,0,0.05,0,0)" xlink:href="#aH"/><use transform="matrix(0.05,0,0,0.05,12.950000000000001,0)" xlink:href="#ak"/><use transform="matrix(0.05,0,0,0.05,24.950000000000003,0)" xlink:href="#af"/><use transform="matrix(0.05,0,0,0.05,36.95,0)" xlink:href="#ag"/><use transform="matrix(0.05,0,0,0.05,46.550000000000004,0)" xlink:href="#ah"/><use transform="matrix(0.05,0,0,0.05,58.550000000000004,0)" xlink:href="#aH"/><use transform="matrix(0.05,0,0,0.05,71.15,0)" xlink:href="#ag"/><use transform="matrix(0.05,0,0,0.05,82.10000000000001,0)" xlink:href="#ai"/><use transform="matrix(0.05,0,0,0.05,92.10000000000001,0)" xlink:href="#aI"/><use transform="matrix(0.05,0,0,0.05,106.10000000000001,0)" xlink:href="#ae"/><use transform="matrix(0.05,0,0,0.05,119.05000000000001,0)" xlink:href="#aJ"/><use transform="matrix(0.05,0,0,0.05,127.7,0)" xlink:href="#aK"/><use transform="matrix(0.05,0,0,0.05,138.70000000000002,0)" xlink:href="#aL"/></g><g id="i"><use transform="matrix(0.05,0,0,0.05,0,0)" xlink:href="#af"/><use transform="matrix(0.05,0,0,0.05,12,0)" xlink:href="#am"/><use transform="matrix(0.05,0,0,0.05,22,0)" xlink:href="#aD"/></g><g id="j"><use transform="matrix(0.05,0,0,0.05,0,0)" xlink:href="#ao"/><use transform="matrix(0.05,0,0,0.05,3.95,0)" xlink:href="#ar"/></g><use transform="matrix(0.05,0,0,0.05,0,0)" xlink:href="#ax" id="l"/><g id="m"><use transform="matrix(0.05,0,0,0.05,0,0)" xlink:href="#az"/><use transform="matrix(0.05,0,0,0.05,10,0)" xlink:href="#aB"/><use transform="matrix(0.05,0,0,0.05,20,0)" xlink:href="#aD"/></g><g id="n"><use transform="matrix(0.05,0,0,0.05,0,0)" xlink:href="#av"/><use transform="matrix(0.05,0,0,0.05,10,0)" xlink:href="#az"/></g><g id="o"><use transform="matrix(0.05,0,0,0.05,0,0)" xlink:href="#ao"/><use transform="matrix(0.05,0,0,0.05,3.95,0)" xlink:href="#az"/><use transform="matrix(0.05,0,0,0.05,13.949999999999998,0)" xlink:href="#ap"/><use transform="matrix(0.05,0,0,0.05,22.95,0)" xlink:href="#as"/><use transform="matrix(0.05,0,0,0.05,28.899999999999995,0)" xlink:href="#am"/><use transform="matrix(0.05,0,0,0.05,38.9,0)" xlink:href="#aF"/><use transform="matrix(0.05,0,0,0.05,53.85,0)" xlink:href="#am"/><use transform="matrix(0.05,0,0,0.05,63.85,0)" xlink:href="#az"/><use transform="matrix(0.05,0,0,0.05,73.85,0)" xlink:href="#aD"/><use transform="matrix(0.05,0,0,0.05,78.85,0)" xlink:href="#av"/><use transform="matrix(0.05,0,0,0.05,88.85,0)" xlink:href="#aE"/></g><path d="M115-194c53 0 69 39 70 98 0 66-23 100-70 100C84 3 66-7 56-30L54 0H23l1-261h32v101c10-23 28-34 59-34zm-8 174c40 0 45-34 45-75 0-40-5-75-45-74-42 0-51 32-51 76 0 43 10 73 51 73" id="aM"/><path d="M84 4C-5 8 30-112 23-190h32v120c0 31 7 50 39 49 72-2 45-101 50-169h31l1 190h-30c-1-10 1-25-2-33-11 22-28 36-60 37" id="aN"/><g id="p"><use transform="matrix(0.05,0,0,0.05,0,0)" xlink:href="#aM"/><use transform="matrix(0.05,0,0,0.05,10,0)" xlink:href="#aN"/><use transform="matrix(0.05,0,0,0.05,20,0)" xlink:href="#ao"/><use transform="matrix(0.05,0,0,0.05,23.95,0)" xlink:href="#aE"/><use transform="matrix(0.05,0,0,0.05,27.899999999999995,0)" xlink:href="#aA"/></g><g id="q"><use transform="matrix(0.05,0,0,0.05,0,0)" xlink:href="#ao"/><use transform="matrix(0.05,0,0,0.05,3.95,0)" xlink:href="#ar"/></g><g id="r"><use transform="matrix(0.05,0,0,0.05,0,0)" xlink:href="#aN"/><use transform="matrix(0.05,0,0,0.05,10,0)" xlink:href="#au"/><use transform="matrix(0.05,0,0,0.05,19,0)" xlink:href="#am"/><use transform="matrix(0.05,0,0,0.05,29,0)" xlink:href="#au"/></g><g id="s"><use transform="matrix(0.05,0,0,0.05,0,0)" xlink:href="#aF"/><use transform="matrix(0.05,0,0,0.05,14.950000000000001,0)" xlink:href="#aN"/><use transform="matrix(0.05,0,0,0.05,24.950000000000003,0)" xlink:href="#aE"/><use transform="matrix(0.05,0,0,0.05,28.900000000000002,0)" xlink:href="#aD"/><use transform="matrix(0.05,0,0,0.05,33.900000000000006,0)" xlink:href="#ao"/><use transform="matrix(0.05,0,0,0.05,37.85000000000001,0)" xlink:href="#aq"/><use transform="matrix(0.05,0,0,0.05,47.85000000000001,0)" xlink:href="#aE"/><use transform="matrix(0.05,0,0,0.05,51.80000000000001,0)" xlink:href="#am"/></g><g id="t"><use transform="matrix(0.05,0,0,0.05,0,0)" xlink:href="#aq"/><use transform="matrix(0.05,0,0,0.05,10,0)" xlink:href="#as"/><use transform="matrix(0.05,0,0,0.05,15.949999999999998,0)" xlink:href="#aB"/><use transform="matrix(0.05,0,0,0.05,25.950000000000003,0)" xlink:href="#ap"/><use transform="matrix(0.05,0,0,0.05,34.95,0)" xlink:href="#am"/><use transform="matrix(0.05,0,0,0.05,44.95,0)" xlink:href="#au"/><use transform="matrix(0.05,0,0,0.05,53.95,0)" xlink:href="#au"/><use transform="matrix(0.05,0,0,0.05,62.95,0)" xlink:href="#am"/><use transform="matrix(0.05,0,0,0.05,72.95,0)" xlink:href="#au"/></g><g id="u"><use transform="matrix(0.05,0,0,0.05,0,0)" xlink:href="#av"/><use transform="matrix(0.05,0,0,0.05,10,0)" xlink:href="#az"/><use transform="matrix(0.05,0,0,0.05,20,0)" xlink:href="#aA"/></g><g id="v"><use transform="matrix(0.05,0,0,0.05,0,0)" xlink:href="#av"/><use transform="matrix(0.05,0,0,0.05,10,0)" xlink:href="#aq"/><use transform="matrix(0.05,0,0,0.05,20,0)" xlink:href="#aq"/></g><path d="M47-170H22l-4-78h33" id="aO"/><g id="w"><use transform="matrix(0.05,0,0,0.05,0,0)" xlink:href="#ao"/><use transform="matrix(0.05,0,0,0.05,3.95,0)" xlink:href="#au"/><use transform="matrix(0.05,0,0,0.05,12.949999999999998,0)" xlink:href="#az"/><use transform="matrix(0.05,0,0,0.05,22.95,0)" xlink:href="#aO"/><use transform="matrix(0.05,0,0,0.05,26.35,0)" xlink:href="#aD"/></g><g id="x"><use transform="matrix(0.05,0,0,0.05,0,0)" xlink:href="#as"/><use transform="matrix(0.05,0,0,0.05,5.95,0)" xlink:href="#aN"/><use transform="matrix(0.05,0,0,0.05,15.949999999999998,0)" xlink:href="#az"/><use transform="matrix(0.05,0,0,0.05,25.950000000000003,0)" xlink:href="#az"/><use transform="matrix(0.05,0,0,0.05,35.95,0)" xlink:href="#ao"/><use transform="matrix(0.05,0,0,0.05,39.900000000000006,0)" xlink:href="#az"/><use transform="matrix(0.05,0,0,0.05,49.900000000000006,0)" xlink:href="#at"/></g><path d="M212-179c-10-28-35-45-73-45-59 0-87 40-87 99 0 60 29 101 89 101 43 0 62-24 78-52l27 14C228-24 195 4 139 4 59 4 22-46 18-125c-6-104 99-153 187-111 19 9 31 26 39 46" id="aP"/><g id="y"><use transform="matrix(0.05,0,0,0.05,0,0)" xlink:href="#aJ"/><use transform="matrix(0.05,0,0,0.05,10,0)" xlink:href="#aI"/><use transform="matrix(0.05,0,0,0.05,24,0)" xlink:href="#aP"/><use transform="matrix(0.05,0,0,0.05,36.95,0)" xlink:href="#ah"/><use transform="matrix(0.05,0,0,0.05,48.95,0)" xlink:href="#aJ"/><use transform="matrix(0.05,0,0,0.05,58.95,0)" xlink:href="#ai"/><use transform="matrix(0.05,0,0,0.05,68.95,0)" xlink:href="#aH"/><use transform="matrix(0.05,0,0,0.05,81.9,0)" xlink:href="#ak"/><use transform="matrix(0.05,0,0,0.05,93.9,0)" xlink:href="#af"/><use transform="matrix(0.05,0,0,0.05,105.9,0)" xlink:href="#ai"/><use transform="matrix(0.05,0,0,0.05,115.9,0)" xlink:href="#aI"/><use transform="matrix(0.05,0,0,0.05,129.9,0)" xlink:href="#ae"/><use transform="matrix(0.05,0,0,0.05,142.85,0)" xlink:href="#aJ"/><use transform="matrix(0.05,0,0,0.05,151.5,0)" xlink:href="#aK"/><use transform="matrix(0.05,0,0,0.05,162.5,0)" xlink:href="#aL"/></g><path d="M106-169C34-169 62-67 57 0H25v-261h32l-1 103c12-21 28-36 61-36 89 0 53 116 60 194h-32v-121c2-32-8-49-39-48" id="aQ"/><g id="z"><use transform="matrix(0.05,0,0,0.05,0,0)" xlink:href="#aD"/><use transform="matrix(0.05,0,0,0.05,5,0)" xlink:href="#aQ"/><use transform="matrix(0.05,0,0,0.05,15,0)" xlink:href="#am"/></g><path d="M179-190L93 31C79 59 56 82 12 73V49c39 6 53-20 64-50L1-190h34L92-34l54-156h33" id="aR"/><g id="A"><use transform="matrix(0.05,0,0,0.05,0,0)" xlink:href="#aB"/><use transform="matrix(0.05,0,0,0.05,10,0)" xlink:href="#az"/><use transform="matrix(0.05,0,0,0.05,20,0)" xlink:href="#aE"/><use transform="matrix(0.05,0,0,0.05,23.95,0)" xlink:href="#aR"/></g><g id="B"><use transform="matrix(0.05,0,0,0.05,0,0)" xlink:href="#ap"/><use transform="matrix(0.05,0,0,0.05,9,0)" xlink:href="#aQ"/><use transform="matrix(0.05,0,0,0.05,19,0)" xlink:href="#av"/><use transform="matrix(0.05,0,0,0.05,29,0)" xlink:href="#az"/><use transform="matrix(0.05,0,0,0.05,39,0)" xlink:href="#at"/><use transform="matrix(0.05,0,0,0.05,49,0)" xlink:href="#am"/><use transform="matrix(0.05,0,0,0.05,59,0)" xlink:href="#au"/></g><g id="C"><use transform="matrix(0.05,0,0,0.05,0,0)" xlink:href="#au"/><use transform="matrix(0.05,0,0,0.05,9,0)" xlink:href="#ao"/><use transform="matrix(0.05,0,0,0.05,12.949999999999998,0)" xlink:href="#az"/><use transform="matrix(0.05,0,0,0.05,22.95,0)" xlink:href="#ap"/><use transform="matrix(0.05,0,0,0.05,31.950000000000003,0)" xlink:href="#am"/></g><g id="D"><use transform="matrix(0.05,0,0,0.05,0,0)" xlink:href="#aE"/><use transform="matrix(0.05,0,0,0.05,3.95,0)" xlink:href="#av"/><use transform="matrix(0.05,0,0,0.05,13.949999999999998,0)" xlink:href="#au"/><use transform="matrix(0.05,0,0,0.05,22.95,0)" xlink:href="#aD"/></g><g id="E"><use transform="matrix(0.05,0,0,0.05,0,0)" xlink:href="#aM"/><use transform="matrix(0.05,0,0,0.05,10,0)" xlink:href="#aN"/><use transform="matrix(0.05,0,0,0.05,20,0)" xlink:href="#ao"/><use transform="matrix(0.05,0,0,0.05,23.95,0)" xlink:href="#aE"/><use transform="matrix(0.05,0,0,0.05,27.899999999999995,0)" xlink:href="#aA"/></g><g id="F"><use transform="matrix(0.05,0,0,0.05,0,0)" xlink:href="#av"/><use transform="matrix(0.05,0,0,0.05,10,0)" xlink:href="#as"/><use transform="matrix(0.05,0,0,0.05,15.949999999999998,0)" xlink:href="#am"/></g><g id="G"><use transform="matrix(0.05,0,0,0.05,0,0)" xlink:href="#ar"/><use transform="matrix(0.05,0,0,0.05,5,0)" xlink:href="#aB"/><use transform="matrix(0.05,0,0,0.05,15,0)" xlink:href="#as"/></g><g id="H"><use transform="matrix(0.05,0,0,0.05,0,0)" xlink:href="#as"/><use transform="matrix(0.05,0,0,0.05,5.95,0)" xlink:href="#am"/><use transform="matrix(0.05,0,0,0.05,15.949999999999998,0)" xlink:href="#au"/><use transform="matrix(0.05,0,0,0.05,24.95,0)" xlink:href="#aB"/><use transform="matrix(0.05,0,0,0.05,34.95,0)" xlink:href="#aN"/><use transform="matrix(0.05,0,0,0.05,44.95,0)" xlink:href="#as"/><use transform="matrix(0.05,0,0,0.05,50.900000000000006,0)" xlink:href="#ap"/><use transform="matrix(0.05,0,0,0.05,59.900000000000006,0)" xlink:href="#am"/><use transform="matrix(0.05,0,0,0.05,69.9,0)" xlink:href="#au"/></g><path d="M153-248C145-148 188 4 80 4 36 3 13-21 6-62l32-5c4 25 16 42 43 43 27 0 39-20 39-49v-147H72v-28h81" id="aS"/><g id="I"><use transform="matrix(0.05,0,0,0.05,0,0)" xlink:href="#aJ"/><use transform="matrix(0.05,0,0,0.05,10,0)" xlink:href="#aI"/><use transform="matrix(0.05,0,0,0.05,24,0)" xlink:href="#aP"/><use transform="matrix(0.05,0,0,0.05,36.95,0)" xlink:href="#ah"/><use transform="matrix(0.05,0,0,0.05,48.95,0)" xlink:href="#aJ"/><use transform="matrix(0.05,0,0,0.05,58.95,0)" xlink:href="#ai"/><use transform="matrix(0.05,0,0,0.05,68.95,0)" xlink:href="#aS"/><use transform="matrix(0.05,0,0,0.05,77.95,0)" xlink:href="#ah"/><use transform="matrix(0.05,0,0,0.05,88.60000000000001,0)" xlink:href="#al"/><use transform="matrix(0.05,0,0,0.05,99.25000000000001,0)" xlink:href="#ah"/><use transform="matrix(0.05,0,0,0.05,111.25,0)" xlink:href="#ai"/><use transform="matrix(0.05,0,0,0.05,121.25,0)" xlink:href="#aI"/><use transform="matrix(0.05,0,0,0.05,135.25,0)" xlink:href="#ae"/><use transform="matrix(0.05,0,0,0.05,148.2,0)" xlink:href="#aJ"/><use transform="matrix(0.05,0,0,0.05,156.85,0)" xlink:href="#aK"/><use transform="matrix(0.05,0,0,0.05,167.85,0)" xlink:href="#aL"/></g><g id="J"><use transform="matrix(0.05,0,0,0.05,0,0)" xlink:href="#aD"/><use transform="matrix(0.05,0,0,0.05,5,0)" xlink:href="#aB"/></g><g id="K"><use transform="matrix(0.05,0,0,0.05,0,0)" xlink:href="#aS"/><use transform="matrix(0.05,0,0,0.05,9,0)" xlink:href="#av"/><use transform="matrix(0.05,0,0,0.05,19,0)" xlink:href="#an"/><use transform="matrix(0.05,0,0,0.05,28,0)" xlink:href="#av"/></g><g id="L"><use transform="matrix(0.05,0,0,0.05,0,0)" xlink:href="#ar"/><use transform="matrix(0.05,0,0,0.05,5,0)" xlink:href="#ao"/><use transform="matrix(0.05,0,0,0.05,8.95,0)" xlink:href="#aE"/><use transform="matrix(0.05,0,0,0.05,12.899999999999999,0)" xlink:href="#am"/><use transform="matrix(0.05,0,0,0.05,22.9,0)" xlink:href="#au"/></g><g id="M"><use transform="matrix(0.05,0,0,0.05,0,0)" xlink:href="#aj"/><use transform="matrix(0.05,0,0,0.05,12.950000000000001,0)" xlink:href="#am"/><use transform="matrix(0.05,0,0,0.05,22.950000000000003,0)" xlink:href="#an"/><use transform="matrix(0.05,0,0,0.05,31.950000000000003,0)" xlink:href="#ao"/><use transform="matrix(0.05,0,0,0.05,35.900000000000006,0)" xlink:href="#ap"/><use transform="matrix(0.05,0,0,0.05,44.900000000000006,0)" xlink:href="#am"/></g><g id="N"><use transform="matrix(0.05,0,0,0.05,0,0)" xlink:href="#ah"/><use transform="matrix(0.05,0,0,0.05,12,0)" xlink:href="#ay"/><use transform="matrix(0.05,0,0,0.05,24,0)" xlink:href="#ad"/></g><g id="O"><use transform="matrix(0.05,0,0,0.05,0,0)" xlink:href="#aE"/><use transform="matrix(0.05,0,0,0.05,3.95,0)" xlink:href="#am"/><use transform="matrix(0.05,0,0,0.05,13.949999999999998,0)" xlink:href="#an"/><use transform="matrix(0.05,0,0,0.05,22.95,0)" xlink:href="#am"/><use transform="matrix(0.05,0,0,0.05,32.95,0)" xlink:href="#aE"/></g><g id="P"><use transform="matrix(0.05,0,0,0.05,0,0)" xlink:href="#aA"/><use transform="matrix(0.05,0,0,0.05,10,0)" xlink:href="#am"/><use transform="matrix(0.05,0,0,0.05,20,0)" xlink:href="#az"/><use transform="matrix(0.05,0,0,0.05,30,0)" xlink:href="#au"/><use transform="matrix(0.05,0,0,0.05,39,0)" xlink:href="#ao"/><use transform="matrix(0.05,0,0,0.05,42.95,0)" xlink:href="#aD"/><use transform="matrix(0.05,0,0,0.05,47.95,0)" xlink:href="#aR"/></g><path d="M160-131c35 5 61 23 61 61C221 17 115-2 30 0v-248c76 3 177-17 177 60 0 33-19 50-47 57zm-97-11c50-1 110 9 110-42 0-47-63-36-110-37v79zm0 115c55-2 124 14 124-45 0-56-70-42-124-44v89" id="aT"/><g id="Q"><use transform="matrix(0.05,0,0,0.05,0,0)" xlink:href="#ah"/><use transform="matrix(0.05,0,0,0.05,12,0)" xlink:href="#aT"/><use transform="matrix(0.05,0,0,0.05,24,0)" xlink:href="#ad"/><use transform="matrix(0.05,0,0,0.05,29,0)" xlink:href="#au"/></g><g id="R"><use transform="matrix(0.05,0,0,0.05,0,0)" xlink:href="#aP"/><use transform="matrix(0.05,0,0,0.05,12.950000000000001,0)" xlink:href="#aE"/><use transform="matrix(0.05,0,0,0.05,16.900000000000002,0)" xlink:href="#am"/><use transform="matrix(0.05,0,0,0.05,26.900000000000002,0)" xlink:href="#av"/><use transform="matrix(0.05,0,0,0.05,36.900000000000006,0)" xlink:href="#az"/></g><path d="M103-251c84 0 111 97 45 133-19 10-37 24-39 52H78c0-63 77-55 77-114 0-30-21-42-52-43-32 0-53 17-56 46l-32-2c7-45 34-72 88-72zM77 0v-35h34V0H77" id="aU"/><g id="S"><use transform="matrix(0.05,0,0,0.05,0,0)" xlink:href="#aT"/><use transform="matrix(0.05,0,0,0.05,12,0)" xlink:href="#aN"/><use transform="matrix(0.05,0,0,0.05,22,0)" xlink:href="#ao"/><use transform="matrix(0.05,0,0,0.05,25.950000000000003,0)" xlink:href="#aE"/><use transform="matrix(0.05,0,0,0.05,29.899999999999995,0)" xlink:href="#aA"/><use transform="matrix(0.05,0,0,0.05,39.9,0)" xlink:href="#aU"/></g><g id="T"><use transform="matrix(0.05,0,0,0.05,0,0)" xlink:href="#ap"/><use transform="matrix(0.05,0,0,0.05,9,0)" xlink:href="#aE"/><use transform="matrix(0.05,0,0,0.05,12.949999999999998,0)" xlink:href="#am"/><use transform="matrix(0.05,0,0,0.05,22.95,0)" xlink:href="#av"/><use transform="matrix(0.05,0,0,0.05,32.95,0)" xlink:href="#az"/></g><g id="U"><use transform="matrix(0.05,0,0,0.05,0,0)" xlink:href="#at"/><use transform="matrix(0.05,0,0,0.05,10,0)" xlink:href="#am"/><use transform="matrix(0.05,0,0,0.05,20,0)" xlink:href="#az"/><use transform="matrix(0.05,0,0,0.05,30,0)" xlink:href="#am"/><use transform="matrix(0.05,0,0,0.05,40,0)" xlink:href="#as"/><use transform="matrix(0.05,0,0,0.05,45.95,0)" xlink:href="#av"/><use transform="matrix(0.05,0,0,0.05,55.95,0)" xlink:href="#aD"/><use transform="matrix(0.05,0,0,0.05,60.95,0)" xlink:href="#am"/></g><g id="V"><use transform="matrix(0.05,0,0,0.05,0,0)" xlink:href="#aD"/><use transform="matrix(0.05,0,0,0.05,5,0)" xlink:href="#av"/><use transform="matrix(0.05,0,0,0.05,15,0)" xlink:href="#au"/><use transform="matrix(0.05,0,0,0.05,24,0)" xlink:href="#aw"/><use transform="matrix(0.05,0,0,0.05,33,0)" xlink:href="#au"/></g><g id="W"><use transform="matrix(0.05,0,0,0.05,0,0)" xlink:href="#ad"/><use transform="matrix(0.05,0,0,0.05,5,0)" xlink:href="#az"/><use transform="matrix(0.05,0,0,0.05,15,0)" xlink:href="#ap"/><use transform="matrix(0.05,0,0,0.05,24,0)" xlink:href="#as"/><use transform="matrix(0.05,0,0,0.05,29.950000000000003,0)" xlink:href="#am"/><use transform="matrix(0.05,0,0,0.05,39.95,0)" xlink:href="#aF"/><use transform="matrix(0.05,0,0,0.05,54.900000000000006,0)" xlink:href="#am"/><use transform="matrix(0.05,0,0,0.05,64.9,0)" xlink:href="#az"/><use transform="matrix(0.05,0,0,0.05,74.9,0)" xlink:href="#aD"/><use transform="matrix(0.05,0,0,0.05,79.9,0)" xlink:href="#av"/><use transform="matrix(0.05,0,0,0.05,89.9,0)" xlink:href="#aE"/></g><g id="X"><use transform="matrix(0.05,0,0,0.05,0,0)" xlink:href="#ad"/><use transform="matrix(0.05,0,0,0.05,5,0)" xlink:href="#az"/><use transform="matrix(0.05,0,0,0.05,15,0)" xlink:href="#ap"/><use transform="matrix(0.05,0,0,0.05,24,0)" xlink:href="#as"/><use transform="matrix(0.05,0,0,0.05,29.950000000000003,0)" xlink:href="#am"/><use transform="matrix(0.05,0,0,0.05,39.95,0)" xlink:href="#aF"/><use transform="matrix(0.05,0,0,0.05,54.900000000000006,0)" xlink:href="#am"/><use transform="matrix(0.05,0,0,0.05,64.9,0)" xlink:href="#az"/><use transform="matrix(0.05,0,0,0.05,74.9,0)" xlink:href="#aD"/><use transform="matrix(0.05,0,0,0.05,79.9,0)" xlink:href="#av"/><use transform="matrix(0.05,0,0,0.05,89.9,0)" xlink:href="#aE"/></g><path d="M141 0L90-78 38 0H4l68-98-65-92h35l48 74 47-74h35l-64 92 68 98h-35" id="aV"/><g id="Y"><use transform="matrix(0.05,0,0,0.05,0,0)" xlink:href="#aj"/><use transform="matrix(0.05,0,0,0.05,12.950000000000001,0)" xlink:href="#am"/><use transform="matrix(0.05,0,0,0.05,22.950000000000003,0)" xlink:href="#aV"/></g><g id="Z"><use transform="matrix(0.05,0,0,0.05,0,0)" xlink:href="#ag"/><use transform="matrix(0.05,0,0,0.05,8.950000000000001,0)" xlink:href="#av"/><use transform="matrix(0.05,0,0,0.05,18.950000000000003,0)" xlink:href="#au"/><use transform="matrix(0.05,0,0,0.05,27.950000000000003,0)" xlink:href="#aw"/></g><path d="M206 0h-36l-40-164L89 0H53L-1-190h32L70-26l43-164h34l41 164 42-164h31" id="aW"/><g id="aa"><use transform="matrix(0.05,0,0,0.05,0,0)" xlink:href="#aI"/><use transform="matrix(0.05,0,0,0.05,14,0)" xlink:href="#aD"/><use transform="matrix(0.05,0,0,0.05,19,0)" xlink:href="#aQ"/><use transform="matrix(0.05,0,0,0.05,29,0)" xlink:href="#am"/><use transform="matrix(0.05,0,0,0.05,39,0)" xlink:href="#as"/><use transform="matrix(0.05,0,0,0.05,44.95,0)" xlink:href="#aW"/><use transform="matrix(0.05,0,0,0.05,57.900000000000006,0)" xlink:href="#ao"/><use transform="matrix(0.05,0,0,0.05,61.85,0)" xlink:href="#au"/><use transform="matrix(0.05,0,0,0.05,70.85000000000001,0)" xlink:href="#am"/><use transform="matrix(0.05,0,0,0.05,80.85000000000001,0)" xlink:href="#aL"/></g><g id="ab"><use transform="matrix(0.05,0,0,0.05,0,0)" xlink:href="#av"/><use transform="matrix(0.05,0,0,0.05,10,0)" xlink:href="#au"/><use transform="matrix(0.05,0,0,0.05,19,0)" xlink:href="#au"/><use transform="matrix(0.05,0,0,0.05,28,0)" xlink:href="#am"/><use transform="matrix(0.05,0,0,0.05,38,0)" xlink:href="#aF"/><use transform="matrix(0.05,0,0,0.05,52.95,0)" xlink:href="#aM"/><use transform="matrix(0.05,0,0,0.05,62.95,0)" xlink:href="#aE"/><use transform="matrix(0.05,0,0,0.05,66.9,0)" xlink:href="#am"/></g><g id="ac"><use transform="matrix(0.05,0,0,0.05,0,0)" xlink:href="#aD"/><use transform="matrix(0.05,0,0,0.05,5,0)" xlink:href="#av"/><use transform="matrix(0.05,0,0,0.05,15,0)" xlink:href="#au"/><use transform="matrix(0.05,0,0,0.05,24,0)" xlink:href="#aw"/></g></defs></g></svg>