<svg xmlns="http://www.w3.org/2000/svg" xmlns:xlink="http://www.w3.org/1999/xlink" width="814.67" height="881.6"><g transform="translate(-140 -60)"><path d="M0 0h1360v1760H0z" fill="#fff"/><path d="M160 85c0-2.76 2.24-5 5-5h150c2.76 0 5 2.24 5 5v110c0 2.76-2.24 5-5 5H165c-2.76 0-5-2.24-5-5z" stroke="#000" stroke-width="2" fill="#fff"/><use xlink:href="#a" transform="matrix(1,0,0,1,165,85) translate(25.599999999999994 58.6)"/><use xlink:href="#b" transform="matrix(1,0,0,1,165,85) translate(84.5 58.6)"/><path d="M320 140h140" stroke="#000" stroke-width="2" fill="none"/><path d="M320 141v-2zM460 140l-14.27 4.64v-9.28z"/><path d="M460 138.95v2.1L444.73 146v-12zm-13.27 4.3l10.03-3.25-10.03-3.26z"/><path d="M580 188c0 6.63-26.86 12-60 12s-60-5.37-60-12V92c0-6.63 26.86-12 60-12s60 5.37 60 12z" stroke="#000" stroke-width="2" fill="#fff"/><path d="M580 92c0 6.63-26.86 12-60 12s-60-5.37-60-12" stroke="#000" stroke-width="2" fill="none"/><use xlink:href="#c" transform="matrix(1,0,0,1,465,109) translate(2.1499999999999915 46.6)"/><path d="M516 283c2.2-1.66 5.8-1.66 8 0l72 54c2.2 1.66 2.2 4.34 0 6l-72 54c-2.2 1.66-5.8 1.66-8 0l-72-54c-2.2-1.66-2.2-4.34 0-6z" stroke="#000" stroke-width="2" fill="#fff"/><use xlink:href="#d" transform="matrix(1,0,0,1,445,285) translate(18 58.6)"/><use xlink:href="#e" transform="matrix(1,0,0,1,445,285) translate(54 58.6)"/><path d="M520 200v80" stroke="#000" stroke-width="2" fill="none"/><path d="M520 200l1-.03v.03h-2v-.04zM520 280l-4.64-14.27h9.28z"/><path d="M520.46 281.82l-.46-.06-.46.06-5.55-17.1h12zm-3.72-15.1l3.26 10.04 3.26-10.03z"/><path d="M600 340h130" stroke="#000" stroke-width="2" fill="none"/><path d="M600 341h-2.53v-2H600zM730 340l-14.27 4.64v-9.28z"/><path d="M730 338.95v2.1L714.73 346v-12zm-13.27 4.3l10.03-3.25-10.03-3.26z"/><path fill="#fff" d="M653.53 329.2h22.96v21.6h-22.97z"/><use xlink:href="#f" transform="matrix(1,0,0,1,653.5259749902501,329.2) translate(0 14.4)"/><path d="M730 285c0-2.76 2.24-5 5-5h150c2.76 0 5 2.24 5 5v110c0 2.76-2.24 5-5 5H735c-2.76 0-5-2.24-5-5z" stroke="#000" stroke-width="2" fill="#fff"/><use xlink:href="#g" transform="matrix(1,0,0,1,735,285) translate(24.575000000000003 47.8)"/><use xlink:href="#h" transform="matrix(1,0,0,1,735,285) translate(87.525 47.8)"/><use xlink:href="#i" transform="matrix(1,0,0,1,735,285) translate(33.575 69.4)"/><path d="M516 503c2.2-1.66 5.8-1.66 8 0l72 54c2.2 1.66 2.2 4.34 0 6l-72 54c-2.2 1.66-5.8 1.66-8 0l-72-54c-2.2-1.66-2.2-4.34 0-6z" stroke="#000" stroke-width="2" fill="#fff"/><use xlink:href="#j" transform="matrix(1,0,0,1,445,505) translate(16.074999999999996 58.6)"/><use xlink:href="#k" transform="matrix(1,0,0,1,445,505) translate(54.025 58.6)"/><path d="M597.47 560H730" stroke="#000" stroke-width="2" fill="none"/><path d="M597.47 561v-2zM730 560l-14.27 4.64v-9.28z"/><path d="M730 558.95v2.1L714.73 566v-12zm-13.27 4.3l10.03-3.25-10.03-3.26z"/><path fill="#fff" d="M649.06 549.2h29.35v21.6h-29.34z"/><use xlink:href="#l" transform="matrix(1,0,0,1,649.0623736107657,549.2) translate(0 14.4)"/><path d="M730 505c0-2.76 2.24-5 5-5h150c2.76 0 5 2.24 5 5v110c0 2.76-2.24 5-5 5H735c-2.76 0-5-2.24-5-5z" stroke="#000" stroke-width="2" fill="#fff"/><use xlink:href="#m" transform="matrix(1,0,0,1,735,505) translate(7.549999999999997 26.19999999999999)"/><use xlink:href="#n" transform="matrix(1,0,0,1,735,505) translate(87.45 26.19999999999999)"/><use xlink:href="#o" transform="matrix(1,0,0,1,735,505) translate(9.625 47.79999999999999)"/><use xlink:href="#p" transform="matrix(1,0,0,1,735,505) translate(52.525 47.79999999999999)"/><use xlink:href="#q" transform="matrix(1,0,0,1,735,505) translate(3.625 69.39999999999999)"/><use xlink:href="#r" transform="matrix(1,0,0,1,735,505) translate(77.525 69.39999999999999)"/><use xlink:href="#s" transform="matrix(1,0,0,1,735,505) translate(137.425 69.39999999999999)"/><use xlink:href="#t" transform="matrix(1,0,0,1,735,505) translate(45 91)"/><path d="M520 618.24l1.88 15.63 1.1 14.16.5 14.04-.1 16.22L520 760" stroke="#000" stroke-width="2" fill="none"/><path d="M520 618.24l1-.14v.02l-2 .24-.03-.27zM525.22 745.94L520 760l-4.04-14.44z"/><path d="M526.64 745l-5.57 15h-2.1l-4.35-15.5zm-6.5 11.77l3.66-9.9-6.5-.26z"/><path fill="#fff" d="M511.45 678.27h22.96v21.6h-22.95z"/><use xlink:href="#f" transform="matrix(1,0,0,1,511.45454849476107,678.2650229799638) translate(0 14.4)"/><path d="M440 765c0-2.76 2.24-5 5-5h150c2.76 0 5 2.24 5 5v110c0 2.76-2.24 5-5 5H445c-2.76 0-5-2.24-5-5z" stroke="#000" stroke-width="2" fill="#fff"/><use xlink:href="#u" transform="matrix(1,0,0,1,445,765) translate(7.6499999999999915 37)"/><use xlink:href="#v" transform="matrix(1,0,0,1,445,765) translate(41.49999999999999 37)"/><use xlink:href="#w" transform="matrix(1,0,0,1,445,765) translate(24.574999999999996 58.6)"/><use xlink:href="#x" transform="matrix(1,0,0,1,445,765) translate(62.525 58.6)"/><use xlink:href="#y" transform="matrix(1,0,0,1,445,765) translate(109.475 58.6)"/><use xlink:href="#z" transform="matrix(1,0,0,1,445,765) translate(35.074999999999996 80.20000000000002)"/><use xlink:href="#A" transform="matrix(1,0,0,1,445,765) translate(85.92500000000001 80.20000000000002)"/><path d="M520 398.24l1.52 13.03.8 11.8.2 12.28-.7 19.82-1.8 41.8L520 500" stroke="#000" stroke-width="2" fill="none"/><path d="M520 398.24l1-.14v.03l-2 .22-.02-.26zM525.13 485.9L520 500l-4.13-14.42z"/><path d="M526.54 484.95l-6.14 16.87-.4-.06-.52.07-4.95-17.3zm-6.43 11.82l3.62-9.9-6.5-.24z"/><path fill="#fff" d="M507.36 438.28h29.36v21.6h-29.36z"/><g><use xlink:href="#l" transform="matrix(1,0,0,1,507.3589864417623,438.28033259527285) translate(0 14.4)"/></g><path d="M690 225c0-2.76 2.24-5 5-5h230c2.76 0 5 2.24 5 5v50c0 2.76-2.24 5-5 5H695c-2.76 0-5-2.24-5-5z" fill="none"/><g><use xlink:href="#B" transform="matrix(1,0,0,1,695,225) translate(-7.324999999999989 28.6)"/></g><path d="M690 481.4c0-2.76 2.24-5 5-5h234.65c2.76 0 5 2.24 5 5V493c0 2.76-2.24 5-5 5H695c-2.76 0-5-2.24-5-5z" fill="none"/><g><use xlink:href="#C" transform="matrix(1,0,0,1,690,476.4) translate(12.675000000000011 14.6)"/></g><path d="M397.68 905c0-2.76 2.23-5 5-5h234.65c2.76 0 5 2.24 5 5v11.6c0 2.76-2.24 5-5 5H402.67c-2.76 0-5-2.24-5-5z" fill="none"/><g><use xlink:href="#D" transform="matrix(1,0,0,1,397.675,900) translate(-12.824999999999989 14.6)"/></g><defs><path d="M143 4C61 4 22-44 18-125c-5-107 100-154 193-111 17 8 29 25 37 43l-32 9c-13-25-37-40-76-40-61 0-88 39-88 99 0 61 29 100 91 101 35 0 62-11 79-27v-45h-74v-28h105v86C228-13 192 4 143 4" id="E"/><path d="M114-163C36-179 61-72 57 0H25l-1-190h30c1 12-1 29 2 39 6-27 23-49 58-41v29" id="F"/><path d="M141-36C126-15 110 5 73 4 37 3 15-17 15-53c-1-64 63-63 125-63 3-35-9-54-41-54-24 1-41 7-42 31l-33-3c5-37 33-52 76-52 45 0 72 20 72 64v82c-1 20 7 32 28 27v20c-31 9-61-2-59-35zM48-53c0 20 12 33 32 33 41-3 63-29 60-74-43 2-92-5-92 41" id="G"/><path d="M85-194c31 0 48 13 60 33l-1-100h32l1 261h-30c-2-10 0-23-3-31C134-8 116 4 85 4 32 4 16-35 15-94c0-66 23-100 70-100zm9 24c-40 0-46 34-46 75 0 40 6 74 45 74 42 0 51-32 51-76 0-42-9-74-50-73" id="H"/><path d="M24 0v-261h32V0H24" id="I"/><path d="M100-194c63 0 86 42 84 106H49c0 40 14 67 53 68 26 1 43-12 49-29l28 8c-11 28-37 45-77 45C44 4 14-33 15-96c1-61 26-98 85-98zm52 81c6-60-76-77-97-28-3 7-6 17-6 28h103" id="J"/><g id="a"><use transform="matrix(0.05,0,0,0.05,0,0)" xlink:href="#E"/><use transform="matrix(0.05,0,0,0.05,14,0)" xlink:href="#F"/><use transform="matrix(0.05,0,0,0.05,19.95,0)" xlink:href="#G"/><use transform="matrix(0.05,0,0,0.05,29.950000000000003,0)" xlink:href="#H"/><use transform="matrix(0.05,0,0,0.05,39.95,0)" xlink:href="#I"/><use transform="matrix(0.05,0,0,0.05,43.900000000000006,0)" xlink:href="#J"/></g><path d="M160-131c35 5 61 23 61 61C221 17 115-2 30 0v-248c76 3 177-17 177 60 0 33-19 50-47 57zm-97-11c50-1 110 9 110-42 0-47-63-36-110-37v79zm0 115c55-2 124 14 124-45 0-56-70-42-124-44v89" id="K"/><path d="M84 4C-5 8 30-112 23-190h32v120c0 31 7 50 39 49 72-2 45-101 50-169h31l1 190h-30c-1-10 1-25-2-33-11 22-28 36-60 37" id="L"/><path d="M24-231v-30h32v30H24zM24 0v-190h32V0H24" id="M"/><g id="b"><use transform="matrix(0.05,0,0,0.05,0,0)" xlink:href="#K"/><use transform="matrix(0.05,0,0,0.05,12,0)" xlink:href="#L"/><use transform="matrix(0.05,0,0,0.05,22,0)" xlink:href="#M"/><use transform="matrix(0.05,0,0,0.05,25.950000000000003,0)" xlink:href="#I"/><use transform="matrix(0.05,0,0,0.05,29.899999999999995,0)" xlink:href="#H"/></g><path d="M115-194c53 0 69 39 70 98 0 66-23 100-70 100C84 3 66-7 56-30L54 0H23l1-261h32v101c10-23 28-34 59-34zm-8 174c40 0 45-34 45-75 0-40-5-75-45-74-42 0-51 32-51 76 0 43 10 73 51 73" id="N"/><path d="M16-82v-28h88v28H16" id="O"/><path d="M117-194c89-4 53 116 60 194h-32v-121c0-31-8-49-39-48C34-167 62-67 57 0H25l-1-190h30c1 10-1 24 2 32 11-22 29-35 61-36" id="P"/><path d="M101-234c-31-9-42 10-38 44h38v23H63V0H32v-167H5v-23h27c-7-52 17-82 69-68v24" id="Q"/><path d="M100-194c62-1 85 37 85 99 1 63-27 99-86 99S16-35 15-95c0-66 28-99 85-99zM99-20c44 1 53-31 53-75 0-43-8-75-51-75s-53 32-53 75 10 74 51 75" id="R"/><path d="M33 0v-38h34V0H33" id="S"/><path d="M141 0L90-78 38 0H4l68-98-65-92h35l48 74 47-74h35l-64 92 68 98h-35" id="T"/><path d="M210-169c-67 3-38 105-44 169h-31v-121c0-29-5-50-35-48C34-165 62-65 56 0H25l-1-190h30c1 10-1 24 2 32 10-44 99-50 107 0 11-21 27-35 58-36 85-2 47 119 55 194h-31v-121c0-29-5-49-35-48" id="U"/><g id="c"><use transform="matrix(0.05,0,0,0.05,0,0)" xlink:href="#N"/><use transform="matrix(0.05,0,0,0.05,10,0)" xlink:href="#L"/><use transform="matrix(0.05,0,0,0.05,20,0)" xlink:href="#M"/><use transform="matrix(0.05,0,0,0.05,23.95,0)" xlink:href="#I"/><use transform="matrix(0.05,0,0,0.05,27.899999999999995,0)" xlink:href="#H"/><use transform="matrix(0.05,0,0,0.05,37.9,0)" xlink:href="#O"/><use transform="matrix(0.05,0,0,0.05,43.85,0)" xlink:href="#M"/><use transform="matrix(0.05,0,0,0.05,47.800000000000004,0)" xlink:href="#P"/><use transform="matrix(0.05,0,0,0.05,57.800000000000004,0)" xlink:href="#Q"/><use transform="matrix(0.05,0,0,0.05,62.800000000000004,0)" xlink:href="#R"/><use transform="matrix(0.05,0,0,0.05,72.80000000000001,0)" xlink:href="#S"/><use transform="matrix(0.05,0,0,0.05,77.80000000000001,0)" xlink:href="#T"/><use transform="matrix(0.05,0,0,0.05,86.80000000000001,0)" xlink:href="#U"/><use transform="matrix(0.05,0,0,0.05,101.75000000000001,0)" xlink:href="#I"/></g><path d="M205 0l-28-72H64L36 0H1l101-248h38L239 0h-34zm-38-99l-47-123c-12 45-31 82-46 123h93" id="V"/><path d="M179-190L93 31C79 59 56 82 12 73V49c39 6 53-20 64-50L1-190h34L92-34l54-156h33" id="W"/><g id="d"><use transform="matrix(0.05,0,0,0.05,0,0)" xlink:href="#V"/><use transform="matrix(0.05,0,0,0.05,12,0)" xlink:href="#P"/><use transform="matrix(0.05,0,0,0.05,22,0)" xlink:href="#W"/></g><path d="M96-169c-40 0-48 33-48 73s9 75 48 75c24 0 41-14 43-38l32 2c-6 37-31 61-74 61-59 0-76-41-82-99-10-93 101-131 147-64 4 7 5 14 7 22l-32 3c-4-21-16-35-41-35" id="X"/><path d="M106-169C34-169 62-67 57 0H25v-261h32l-1 103c12-21 28-36 61-36 89 0 53 116 60 194h-32v-121c2-32-8-49-39-48" id="Y"/><path d="M177-190C167-65 218 103 67 71c-23-6-38-20-44-43l32-5c15 47 100 32 89-28v-30C133-14 115 1 83 1 29 1 15-40 15-95c0-56 16-97 71-98 29-1 48 16 59 35 1-10 0-23 2-32h30zM94-22c36 0 50-32 50-73 0-42-14-75-50-75-39 0-46 34-46 75s6 73 46 73" id="Z"/><path d="M135-143c-3-34-86-38-87 0 15 53 115 12 119 90S17 21 10-45l28-5c4 36 97 45 98 0-10-56-113-15-118-90-4-57 82-63 122-42 12 7 21 19 24 35" id="aa"/><path d="M103-251c84 0 111 97 45 133-19 10-37 24-39 52H78c0-63 77-55 77-114 0-30-21-42-52-43-32 0-53 17-56 46l-32-2c7-45 34-72 88-72zM77 0v-35h34V0H77" id="ab"/><g id="e"><use transform="matrix(0.05,0,0,0.05,0,0)" xlink:href="#X"/><use transform="matrix(0.05,0,0,0.05,9,0)" xlink:href="#Y"/><use transform="matrix(0.05,0,0,0.05,19,0)" xlink:href="#G"/><use transform="matrix(0.05,0,0,0.05,29,0)" xlink:href="#P"/><use transform="matrix(0.05,0,0,0.05,39,0)" xlink:href="#Z"/><use transform="matrix(0.05,0,0,0.05,49,0)" xlink:href="#J"/><use transform="matrix(0.05,0,0,0.05,59,0)" xlink:href="#aa"/><use transform="matrix(0.05,0,0,0.05,68,0)" xlink:href="#ab"/></g><path d="M190 0L58-211 59 0H30v-248h39L202-35l-2-213h31V0h-41" id="ac"/><g id="f"><use transform="matrix(0.05,0,0,0.05,0,0)" xlink:href="#ac"/><use transform="matrix(0.05,0,0,0.05,12.950000000000001,0)" xlink:href="#R"/></g><path d="M232-93c-1 65-40 97-104 97C67 4 28-28 28-90v-158h33c8 89-33 224 67 224 102 0 64-133 71-224h33v155" id="ad"/><path d="M115-194c55 1 70 41 70 98S169 2 115 4C84 4 66-9 55-30l1 105H24l-1-265h31l2 30c10-21 28-34 59-34zm-8 174c40 0 45-34 45-75s-6-73-45-74c-42 0-51 32-51 76 0 43 10 73 51 73" id="ae"/><path d="M59-47c-2 24 18 29 38 22v24C64 9 27 4 27-40v-127H5v-23h24l9-43h21v43h35v23H59v120" id="af"/><g id="g"><use transform="matrix(0.05,0,0,0.05,0,0)" xlink:href="#ad"/><use transform="matrix(0.05,0,0,0.05,12.950000000000001,0)" xlink:href="#ae"/><use transform="matrix(0.05,0,0,0.05,22.950000000000003,0)" xlink:href="#H"/><use transform="matrix(0.05,0,0,0.05,32.95,0)" xlink:href="#G"/><use transform="matrix(0.05,0,0,0.05,42.95,0)" xlink:href="#af"/><use transform="matrix(0.05,0,0,0.05,47.95,0)" xlink:href="#J"/></g><g id="h"><use transform="matrix(0.05,0,0,0.05,0,0)" xlink:href="#N"/><use transform="matrix(0.05,0,0,0.05,10,0)" xlink:href="#L"/><use transform="matrix(0.05,0,0,0.05,20,0)" xlink:href="#M"/><use transform="matrix(0.05,0,0,0.05,23.95,0)" xlink:href="#I"/><use transform="matrix(0.05,0,0,0.05,27.899999999999995,0)" xlink:href="#H"/></g><g id="i"><use transform="matrix(0.05,0,0,0.05,0,0)" xlink:href="#af"/><use transform="matrix(0.05,0,0,0.05,5,0)" xlink:href="#M"/><use transform="matrix(0.05,0,0,0.05,8.95,0)" xlink:href="#U"/><use transform="matrix(0.05,0,0,0.05,23.9,0)" xlink:href="#J"/><use transform="matrix(0.05,0,0,0.05,33.9,0)" xlink:href="#aa"/><use transform="matrix(0.05,0,0,0.05,42.9,0)" xlink:href="#af"/><use transform="matrix(0.05,0,0,0.05,47.9,0)" xlink:href="#G"/><use transform="matrix(0.05,0,0,0.05,57.900000000000006,0)" xlink:href="#U"/><use transform="matrix(0.05,0,0,0.05,72.85,0)" xlink:href="#ae"/></g><path d="M212-179c-10-28-35-45-73-45-59 0-87 40-87 99 0 60 29 101 89 101 43 0 62-24 78-52l27 14C228-24 195 4 139 4 59 4 22-46 18-125c-6-104 99-153 187-111 19 9 31 26 39 46" id="ag"/><g id="j"><use transform="matrix(0.05,0,0,0.05,0,0)" xlink:href="#ag"/><use transform="matrix(0.05,0,0,0.05,12.950000000000001,0)" xlink:href="#G"/><use transform="matrix(0.05,0,0,0.05,22.950000000000003,0)" xlink:href="#P"/></g><path d="M197 0v-115H63V0H30v-248h33v105h134v-105h34V0h-34" id="ah"/><path d="M206 0h-36l-40-164L89 0H53L-1-190h32L70-26l43-164h34l41 164 42-164h31" id="ai"/><g id="k"><use transform="matrix(0.05,0,0,0.05,0,0)" xlink:href="#ah"/><use transform="matrix(0.05,0,0,0.05,12.950000000000001,0)" xlink:href="#R"/><use transform="matrix(0.05,0,0,0.05,22.950000000000003,0)" xlink:href="#af"/><use transform="matrix(0.05,0,0,0.05,27.950000000000003,0)" xlink:href="#aa"/><use transform="matrix(0.05,0,0,0.05,36.95,0)" xlink:href="#ai"/><use transform="matrix(0.05,0,0,0.05,49.900000000000006,0)" xlink:href="#G"/><use transform="matrix(0.05,0,0,0.05,59.900000000000006,0)" xlink:href="#ae"/><use transform="matrix(0.05,0,0,0.05,69.9,0)" xlink:href="#ab"/></g><path d="M137-103V0h-34v-103L8-248h37l75 118 75-118h37" id="aj"/><g id="l"><use transform="matrix(0.05,0,0,0.05,0,0)" xlink:href="#aj"/><use transform="matrix(0.05,0,0,0.05,10.35,0)" xlink:href="#J"/><use transform="matrix(0.05,0,0,0.05,20.35,0)" xlink:href="#aa"/></g><path d="M68-38c1 34 0 65-14 84H32c9-13 17-26 17-46H33v-38h35" id="ak"/><g id="m"><use transform="matrix(0.05,0,0,0.05,0,0)" xlink:href="#ah"/><use transform="matrix(0.05,0,0,0.05,12.950000000000001,0)" xlink:href="#R"/><use transform="matrix(0.05,0,0,0.05,22.950000000000003,0)" xlink:href="#af"/><use transform="matrix(0.05,0,0,0.05,27.950000000000003,0)" xlink:href="#aa"/><use transform="matrix(0.05,0,0,0.05,36.95,0)" xlink:href="#ai"/><use transform="matrix(0.05,0,0,0.05,49.900000000000006,0)" xlink:href="#G"/><use transform="matrix(0.05,0,0,0.05,59.900000000000006,0)" xlink:href="#ae"/><use transform="matrix(0.05,0,0,0.05,69.9,0)" xlink:href="#ak"/></g><g id="n"><use transform="matrix(0.05,0,0,0.05,0,0)" xlink:href="#L"/><use transform="matrix(0.05,0,0,0.05,10,0)" xlink:href="#ae"/><use transform="matrix(0.05,0,0,0.05,20,0)" xlink:href="#H"/><use transform="matrix(0.05,0,0,0.05,30,0)" xlink:href="#G"/><use transform="matrix(0.05,0,0,0.05,40,0)" xlink:href="#af"/><use transform="matrix(0.05,0,0,0.05,45,0)" xlink:href="#J"/></g><g id="o"><use transform="matrix(0.05,0,0,0.05,0,0)" xlink:href="#N"/><use transform="matrix(0.05,0,0,0.05,10,0)" xlink:href="#L"/><use transform="matrix(0.05,0,0,0.05,20,0)" xlink:href="#M"/><use transform="matrix(0.05,0,0,0.05,23.95,0)" xlink:href="#I"/><use transform="matrix(0.05,0,0,0.05,27.899999999999995,0)" xlink:href="#H"/></g><g id="p"><use transform="matrix(0.05,0,0,0.05,0,0)" xlink:href="#af"/><use transform="matrix(0.05,0,0,0.05,5,0)" xlink:href="#M"/><use transform="matrix(0.05,0,0,0.05,8.95,0)" xlink:href="#U"/><use transform="matrix(0.05,0,0,0.05,23.9,0)" xlink:href="#J"/><use transform="matrix(0.05,0,0,0.05,33.9,0)" xlink:href="#aa"/><use transform="matrix(0.05,0,0,0.05,42.9,0)" xlink:href="#af"/><use transform="matrix(0.05,0,0,0.05,47.9,0)" xlink:href="#G"/><use transform="matrix(0.05,0,0,0.05,57.900000000000006,0)" xlink:href="#U"/><use transform="matrix(0.05,0,0,0.05,72.85,0)" xlink:href="#ae"/><use transform="matrix(0.05,0,0,0.05,82.85,0)" xlink:href="#ak"/></g><g id="q"><use transform="matrix(0.05,0,0,0.05,0,0)" xlink:href="#F"/><use transform="matrix(0.05,0,0,0.05,5.95,0)" xlink:href="#J"/><use transform="matrix(0.05,0,0,0.05,15.949999999999998,0)" xlink:href="#I"/><use transform="matrix(0.05,0,0,0.05,19.9,0)" xlink:href="#G"/><use transform="matrix(0.05,0,0,0.05,29.899999999999995,0)" xlink:href="#L"/><use transform="matrix(0.05,0,0,0.05,39.9,0)" xlink:href="#P"/><use transform="matrix(0.05,0,0,0.05,49.9,0)" xlink:href="#X"/><use transform="matrix(0.05,0,0,0.05,58.900000000000006,0)" xlink:href="#Y"/></g><path d="M108 0H70L1-190h34L89-25l56-165h34" id="al"/><g id="r"><use transform="matrix(0.05,0,0,0.05,0,0)" xlink:href="#G"/><use transform="matrix(0.05,0,0,0.05,10,0)" xlink:href="#X"/><use transform="matrix(0.05,0,0,0.05,19,0)" xlink:href="#af"/><use transform="matrix(0.05,0,0,0.05,24,0)" xlink:href="#M"/><use transform="matrix(0.05,0,0,0.05,27.950000000000003,0)" xlink:href="#al"/><use transform="matrix(0.05,0,0,0.05,36.95,0)" xlink:href="#M"/><use transform="matrix(0.05,0,0,0.05,40.900000000000006,0)" xlink:href="#af"/><use transform="matrix(0.05,0,0,0.05,45.900000000000006,0)" xlink:href="#W"/></g><g id="s"><use transform="matrix(0.05,0,0,0.05,0,0)" xlink:href="#M"/><use transform="matrix(0.05,0,0,0.05,3.95,0)" xlink:href="#Q"/></g><g id="t"><use transform="matrix(0.05,0,0,0.05,0,0)" xlink:href="#P"/><use transform="matrix(0.05,0,0,0.05,10,0)" xlink:href="#J"/><use transform="matrix(0.05,0,0,0.05,20,0)" xlink:href="#J"/><use transform="matrix(0.05,0,0,0.05,30,0)" xlink:href="#H"/><use transform="matrix(0.05,0,0,0.05,40,0)" xlink:href="#J"/><use transform="matrix(0.05,0,0,0.05,50,0)" xlink:href="#H"/></g><path d="M63-220v92h138v28H63V0H30v-248h175v28H63" id="am"/><g id="u"><use transform="matrix(0.05,0,0,0.05,0,0)" xlink:href="#am"/><use transform="matrix(0.05,0,0,0.05,10.950000000000001,0)" xlink:href="#L"/><use transform="matrix(0.05,0,0,0.05,20.950000000000003,0)" xlink:href="#I"/><use transform="matrix(0.05,0,0,0.05,24.900000000000002,0)" xlink:href="#I"/></g><path d="M30-248c118-7 216 8 213 122C240-48 200 0 122 0H30v-248zM63-27c89 8 146-16 146-99s-60-101-146-95v194" id="an"/><path d="M33-154v-36h34v36H33zM33 0v-36h34V0H33" id="ao"/><g id="v"><use transform="matrix(0.05,0,0,0.05,0,0)" xlink:href="#an"/><use transform="matrix(0.05,0,0,0.05,12.950000000000001,0)" xlink:href="#J"/><use transform="matrix(0.05,0,0,0.05,22.950000000000003,0)" xlink:href="#ae"/><use transform="matrix(0.05,0,0,0.05,32.95,0)" xlink:href="#I"/><use transform="matrix(0.05,0,0,0.05,36.900000000000006,0)" xlink:href="#R"/><use transform="matrix(0.05,0,0,0.05,46.900000000000006,0)" xlink:href="#W"/><use transform="matrix(0.05,0,0,0.05,55.900000000000006,0)" xlink:href="#U"/><use transform="matrix(0.05,0,0,0.05,70.85000000000001,0)" xlink:href="#J"/><use transform="matrix(0.05,0,0,0.05,80.85000000000001,0)" xlink:href="#P"/><use transform="matrix(0.05,0,0,0.05,90.85000000000001,0)" xlink:href="#af"/><use transform="matrix(0.05,0,0,0.05,95.85000000000001,0)" xlink:href="#ao"/></g><g id="w"><use transform="matrix(0.05,0,0,0.05,0,0)" xlink:href="#X"/><use transform="matrix(0.05,0,0,0.05,9,0)" xlink:href="#R"/><use transform="matrix(0.05,0,0,0.05,19,0)" xlink:href="#I"/><use transform="matrix(0.05,0,0,0.05,22.95,0)" xlink:href="#H"/></g><g id="x"><use transform="matrix(0.05,0,0,0.05,0,0)" xlink:href="#aa"/><use transform="matrix(0.05,0,0,0.05,9,0)" xlink:href="#ai"/><use transform="matrix(0.05,0,0,0.05,21.950000000000003,0)" xlink:href="#G"/><use transform="matrix(0.05,0,0,0.05,31.950000000000003,0)" xlink:href="#ae"/></g><g id="y"><use transform="matrix(0.05,0,0,0.05,0,0)" xlink:href="#R"/><use transform="matrix(0.05,0,0,0.05,10,0)" xlink:href="#F"/></g><g id="z"><use transform="matrix(0.05,0,0,0.05,0,0)" xlink:href="#M"/><use transform="matrix(0.05,0,0,0.05,3.95,0)" xlink:href="#P"/><use transform="matrix(0.05,0,0,0.05,13.949999999999998,0)" xlink:href="#aa"/><use transform="matrix(0.05,0,0,0.05,22.95,0)" xlink:href="#af"/><use transform="matrix(0.05,0,0,0.05,27.950000000000003,0)" xlink:href="#G"/><use transform="matrix(0.05,0,0,0.05,37.95,0)" xlink:href="#I"/><use transform="matrix(0.05,0,0,0.05,41.900000000000006,0)" xlink:href="#I"/></g><path d="M143 0L79-87 56-68V0H24v-261h32v163l83-92h37l-77 82L181 0h-38" id="ap"/><g id="A"><use transform="matrix(0.05,0,0,0.05,0,0)" xlink:href="#G"/><use transform="matrix(0.05,0,0,0.05,10,0)" xlink:href="#ae"/><use transform="matrix(0.05,0,0,0.05,20,0)" xlink:href="#ap"/></g><path fill="#7ab648" d="M190 0L58-211 59 0H30v-248h39L202-35l-2-213h31V0h-41" id="aq"/><path fill="#7ab648" d="M100-194c62-1 85 37 85 99 1 63-27 99-86 99S16-35 15-95c0-66 28-99 85-99zM99-20c44 1 53-31 53-75 0-43-8-75-51-75s-53 32-53 75 10 74 51 75" id="ar"/><path fill="#7ab648" d="M212-179c-10-28-35-45-73-45-59 0-87 40-87 99 0 60 29 101 89 101 43 0 62-24 78-52l27 14C228-24 195 4 139 4 59 4 22-46 18-125c-6-104 99-153 187-111 19 9 31 26 39 46" id="as"/><path fill="#7ab648" d="M106-169C34-169 62-67 57 0H25v-261h32l-1 103c12-21 28-36 61-36 89 0 53 116 60 194h-32v-121c2-32-8-49-39-48" id="at"/><path fill="#7ab648" d="M141-36C126-15 110 5 73 4 37 3 15-17 15-53c-1-64 63-63 125-63 3-35-9-54-41-54-24 1-41 7-42 31l-33-3c5-37 33-52 76-52 45 0 72 20 72 64v82c-1 20 7 32 28 27v20c-31 9-61-2-59-35zM48-53c0 20 12 33 32 33 41-3 63-29 60-74-43 2-92-5-92 41" id="au"/><path fill="#7ab648" d="M117-194c89-4 53 116 60 194h-32v-121c0-31-8-49-39-48C34-167 62-67 57 0H25l-1-190h30c1 10-1 24 2 32 11-22 29-35 61-36" id="av"/><path fill="#7ab648" d="M177-190C167-65 218 103 67 71c-23-6-38-20-44-43l32-5c15 47 100 32 89-28v-30C133-14 115 1 83 1 29 1 15-40 15-95c0-56 16-97 71-98 29-1 48 16 59 35 1-10 0-23 2-32h30zM94-22c36 0 50-32 50-73 0-42-14-75-50-75-39 0-46 34-46 75s6 73 46 73" id="aw"/><path fill="#7ab648" d="M100-194c63 0 86 42 84 106H49c0 40 14 67 53 68 26 1 43-12 49-29l28 8c-11 28-37 45-77 45C44 4 14-33 15-96c1-61 26-98 85-98zm52 81c6-60-76-77-97-28-3 7-6 17-6 28h103" id="ax"/><path fill="#7ab648" d="M135-143c-3-34-86-38-87 0 15 53 115 12 119 90S17 21 10-45l28-5c4 36 97 45 98 0-10-56-113-15-118-90-4-57 82-63 122-42 12 7 21 19 24 35" id="ay"/><path fill="#7ab648" d="M127-220V0H93v-220H8v-28h204v28h-85" id="az"/><path fill="#7ab648" d="M143 0L79-87 56-68V0H24v-261h32v163l83-92h37l-77 82L181 0h-38" id="aA"/><path fill="#7ab648" d="M30-248c87 1 191-15 191 75 0 78-77 80-158 76V0H30v-248zm33 125c57 0 124 11 124-50 0-59-68-47-124-48v98" id="aB"/><path fill="#7ab648" d="M114-163C36-179 61-72 57 0H25l-1-190h30c1 12-1 29 2 39 6-27 23-49 58-41v29" id="aC"/><path fill="#7ab648" d="M108 0H70L1-190h34L89-25l56-165h34" id="aD"/><path fill="#7ab648" d="M24-231v-30h32v30H24zM24 0v-190h32V0H24" id="aE"/><path fill="#7ab648" d="M85-194c31 0 48 13 60 33l-1-100h32l1 261h-30c-2-10 0-23-3-31C134-8 116 4 85 4 32 4 16-35 15-94c0-66 23-100 70-100zm9 24c-40 0-46 34-46 75 0 40 6 74 45 74 42 0 51-32 51-76 0-42-9-74-50-73" id="aF"/><path fill="#7ab648" d="M33 0v-38h34V0H33" id="aG"/><path fill="#7ab648" d="M24-231v-30h32v30H24zM-9 49c24 4 33-6 33-30v-209h32V24c2 40-23 58-65 49V49" id="aH"/><g id="B"><use transform="matrix(0.05,0,0,0.05,0,0)" xlink:href="#aq"/><use transform="matrix(0.05,0,0,0.05,12.950000000000001,0)" xlink:href="#ar"/><use transform="matrix(0.05,0,0,0.05,22.950000000000003,0)" xlink:href="#as"/><use transform="matrix(0.05,0,0,0.05,35.900000000000006,0)" xlink:href="#at"/><use transform="matrix(0.05,0,0,0.05,45.900000000000006,0)" xlink:href="#au"/><use transform="matrix(0.05,0,0,0.05,55.900000000000006,0)" xlink:href="#av"/><use transform="matrix(0.05,0,0,0.05,65.9,0)" xlink:href="#aw"/><use transform="matrix(0.05,0,0,0.05,75.9,0)" xlink:href="#ax"/><use transform="matrix(0.05,0,0,0.05,85.9,0)" xlink:href="#ay"/><use transform="matrix(0.05,0,0,0.05,94.9,0)" xlink:href="#az"/><use transform="matrix(0.05,0,0,0.05,103.85000000000001,0)" xlink:href="#au"/><use transform="matrix(0.05,0,0,0.05,113.85000000000001,0)" xlink:href="#ay"/><use transform="matrix(0.05,0,0,0.05,122.85000000000001,0)" xlink:href="#aA"/><use transform="matrix(0.05,0,0,0.05,131.85000000000002,0)" xlink:href="#ay"/><use transform="matrix(0.05,0,0,0.05,140.85000000000002,0)" xlink:href="#aB"/><use transform="matrix(0.05,0,0,0.05,152.85000000000002,0)" xlink:href="#aC"/><use transform="matrix(0.05,0,0,0.05,158.8,0)" xlink:href="#ar"/><use transform="matrix(0.05,0,0,0.05,168.8,0)" xlink:href="#aD"/><use transform="matrix(0.05,0,0,0.05,177.8,0)" xlink:href="#aE"/><use transform="matrix(0.05,0,0,0.05,181.75,0)" xlink:href="#aF"/><use transform="matrix(0.05,0,0,0.05,191.75,0)" xlink:href="#ax"/><use transform="matrix(0.05,0,0,0.05,201.75,0)" xlink:href="#aC"/><use transform="matrix(0.05,0,0,0.05,206.69999999999996,0)" xlink:href="#aG"/><use transform="matrix(0.05,0,0,0.05,211.69999999999996,0)" xlink:href="#aH"/><use transform="matrix(0.05,0,0,0.05,215.64999999999998,0)" xlink:href="#au"/><use transform="matrix(0.05,0,0,0.05,225.64999999999998,0)" xlink:href="#aD"/><use transform="matrix(0.05,0,0,0.05,234.64999999999998,0)" xlink:href="#au"/></g><path fill="#7ab648" d="M197 0v-115H63V0H30v-248h33v105h134v-105h34V0h-34" id="aI"/><path fill="#7ab648" d="M59-47c-2 24 18 29 38 22v24C64 9 27 4 27-40v-127H5v-23h24l9-43h21v43h35v23H59v120" id="aJ"/><path fill="#7ab648" d="M206 0h-36l-40-164L89 0H53L-1-190h32L70-26l43-164h34l41 164 42-164h31" id="aK"/><path fill="#7ab648" d="M115-194c55 1 70 41 70 98S169 2 115 4C84 4 66-9 55-30l1 105H24l-1-265h31l2 30c10-21 28-34 59-34zm-8 174c40 0 45-34 45-75s-6-73-45-74c-42 0-51 32-51 76 0 43 10 73 51 73" id="aL"/><g id="C"><use transform="matrix(0.05,0,0,0.05,0,0)" xlink:href="#aI"/><use transform="matrix(0.05,0,0,0.05,12.950000000000001,0)" xlink:href="#ar"/><use transform="matrix(0.05,0,0,0.05,22.950000000000003,0)" xlink:href="#aJ"/><use transform="matrix(0.05,0,0,0.05,27.950000000000003,0)" xlink:href="#ay"/><use transform="matrix(0.05,0,0,0.05,36.95,0)" xlink:href="#aK"/><use transform="matrix(0.05,0,0,0.05,49.900000000000006,0)" xlink:href="#au"/><use transform="matrix(0.05,0,0,0.05,59.900000000000006,0)" xlink:href="#aL"/><use transform="matrix(0.05,0,0,0.05,69.9,0)" xlink:href="#az"/><use transform="matrix(0.05,0,0,0.05,78.85000000000001,0)" xlink:href="#au"/><use transform="matrix(0.05,0,0,0.05,88.85000000000001,0)" xlink:href="#ay"/><use transform="matrix(0.05,0,0,0.05,97.85000000000001,0)" xlink:href="#aA"/><use transform="matrix(0.05,0,0,0.05,106.85000000000001,0)" xlink:href="#ay"/><use transform="matrix(0.05,0,0,0.05,115.85000000000001,0)" xlink:href="#aB"/><use transform="matrix(0.05,0,0,0.05,127.85000000000001,0)" xlink:href="#aC"/><use transform="matrix(0.05,0,0,0.05,133.8,0)" xlink:href="#ar"/><use transform="matrix(0.05,0,0,0.05,143.8,0)" xlink:href="#aD"/><use transform="matrix(0.05,0,0,0.05,152.8,0)" xlink:href="#aE"/><use transform="matrix(0.05,0,0,0.05,156.75,0)" xlink:href="#aF"/><use transform="matrix(0.05,0,0,0.05,166.75,0)" xlink:href="#ax"/><use transform="matrix(0.05,0,0,0.05,176.75,0)" xlink:href="#aC"/><use transform="matrix(0.05,0,0,0.05,181.7,0)" xlink:href="#aG"/><use transform="matrix(0.05,0,0,0.05,186.7,0)" xlink:href="#aH"/><use transform="matrix(0.05,0,0,0.05,190.64999999999998,0)" xlink:href="#au"/><use transform="matrix(0.05,0,0,0.05,200.64999999999998,0)" xlink:href="#aD"/><use transform="matrix(0.05,0,0,0.05,209.64999999999998,0)" xlink:href="#au"/></g><path fill="#7ab648" d="M205 0l-28-72H64L36 0H1l101-248h38L239 0h-34zm-38-99l-47-123c-12 45-31 82-46 123h93" id="aM"/><path fill="#7ab648" d="M30 0v-248h33v221h125V0H30" id="aN"/><path fill="#7ab648" d="M84 4C-5 8 30-112 23-190h32v120c0 31 7 50 39 49 72-2 45-101 50-169h31l1 190h-30c-1-10 1-25-2-33-11 22-28 36-60 37" id="aO"/><path fill="#7ab648" d="M96-169c-40 0-48 33-48 73s9 75 48 75c24 0 41-14 43-38l32 2c-6 37-31 61-74 61-59 0-76-41-82-99-10-93 101-131 147-64 4 7 5 14 7 22l-32 3c-4-21-16-35-41-35" id="aP"/><g id="D"><use transform="matrix(0.05,0,0,0.05,0,0)" xlink:href="#aM"/><use transform="matrix(0.05,0,0,0.05,12,0)" xlink:href="#av"/><use transform="matrix(0.05,0,0,0.05,22,0)" xlink:href="#aF"/><use transform="matrix(0.05,0,0,0.05,32,0)" xlink:href="#aC"/><use transform="matrix(0.05,0,0,0.05,37.95,0)" xlink:href="#ar"/><use transform="matrix(0.05,0,0,0.05,47.95,0)" xlink:href="#aE"/><use transform="matrix(0.05,0,0,0.05,51.900000000000006,0)" xlink:href="#aF"/><use transform="matrix(0.05,0,0,0.05,61.900000000000006,0)" xlink:href="#aN"/><use transform="matrix(0.05,0,0,0.05,71.9,0)" xlink:href="#au"/><use transform="matrix(0.05,0,0,0.05,81.9,0)" xlink:href="#aO"/><use transform="matrix(0.05,0,0,0.05,91.9,0)" xlink:href="#av"/><use transform="matrix(0.05,0,0,0.05,101.9,0)" xlink:href="#aP"/><use transform="matrix(0.05,0,0,0.05,110.9,0)" xlink:href="#at"/><use transform="matrix(0.05,0,0,0.05,120.9,0)" xlink:href="#az"/><use transform="matrix(0.05,0,0,0.05,129.85,0)" xlink:href="#au"/><use transform="matrix(0.05,0,0,0.05,139.85,0)" xlink:href="#ay"/><use transform="matrix(0.05,0,0,0.05,148.85,0)" xlink:href="#aA"/><use transform="matrix(0.05,0,0,0.05,157.85,0)" xlink:href="#ay"/><use transform="matrix(0.05,0,0,0.05,166.85,0)" xlink:href="#aB"/><use transform="matrix(0.05,0,0,0.05,178.85,0)" xlink:href="#aC"/><use transform="matrix(0.05,0,0,0.05,184.79999999999998,0)" xlink:href="#ar"/><use transform="matrix(0.05,0,0,0.05,194.79999999999998,0)" xlink:href="#aD"/><use transform="matrix(0.05,0,0,0.05,203.79999999999998,0)" xlink:href="#aE"/><use transform="matrix(0.05,0,0,0.05,207.74999999999997,0)" xlink:href="#aF"/><use transform="matrix(0.05,0,0,0.05,217.74999999999997,0)" xlink:href="#ax"/><use transform="matrix(0.05,0,0,0.05,227.74999999999997,0)" xlink:href="#aC"/><use transform="matrix(0.05,0,0,0.05,232.69999999999996,0)" xlink:href="#aG"/><use transform="matrix(0.05,0,0,0.05,237.69999999999996,0)" xlink:href="#aH"/><use transform="matrix(0.05,0,0,0.05,241.64999999999998,0)" xlink:href="#au"/><use transform="matrix(0.05,0,0,0.05,251.64999999999998,0)" xlink:href="#aD"/><use transform="matrix(0.05,0,0,0.05,260.65,0)" xlink:href="#au"/></g></defs></g></svg>