<svg width="64" height="64" viewBox="0 0 64 64" fill="none" xmlns="http://www.w3.org/2000/svg">
<path opacity="0.2" d="M24.9268 61.7462C23.9376 61.5116 23.1097 60.963 21.9511 59.7745C20.0158 57.7892 18.4452 56.9626 15.7155 56.4927C12.8837 56.0052 11.6253 54.9527 10.8688 52.4387C9.93488 49.3354 8.95883 47.8493 6.81427 46.2652C4.38145 44.4683 3.75726 42.8837 4.35106 40.0121C4.90104 37.3524 4.69044 35.4615 3.57344 33.0302C2.24072 30.1293 2.40524 28.5793 4.2981 26.2027C6.0334 24.0239 6.57805 22.5837 6.83793 19.4868C7.10019 16.3616 7.96968 15.0795 10.5304 14.0419C12.6676 13.1759 14.4958 11.6726 15.5095 9.94783C16.6816 7.95338 16.8527 7.72475 17.5789 7.18292C18.7509 6.30855 19.6984 6.06623 21.503 6.17939C24.6378 6.37596 26.3179 5.99957 28.423 4.62916C31.1677 2.84236 32.832 2.84236 35.5767 4.62916C37.6818 5.99957 39.3619 6.37596 42.4967 6.17939C45.461 5.99351 46.6945 6.7717 48.5014 9.96773C49.3968 11.5516 51.2272 13.0931 53.2303 13.9504C56.0834 15.1714 56.9127 16.2858 57.1231 19.1819C57.3509 22.3184 57.994 24.072 59.6977 26.2027C61.5947 28.575 61.7602 30.1266 60.4262 33.0302C59.3093 35.4615 59.0986 37.3524 59.6486 40.0121C60.2424 42.8837 59.6182 44.4683 57.1854 46.2652C55.0409 47.8493 54.0648 49.3354 53.1309 52.4387C52.3744 54.9527 51.116 56.0052 48.2842 56.4927C45.5487 56.9636 43.9763 57.7927 42.0486 59.7808C39.9116 61.9847 38.3797 62.3483 35.3921 61.3607C32.9486 60.553 31.0672 60.5495 28.6334 61.3484C26.9285 61.9079 26.0198 62.0055 24.9268 61.7462V61.7462Z" fill="black"/>
<path d="M24.9268 61.1603C23.9376 60.9257 23.1097 60.3771 21.9511 59.1886C20.0158 57.2033 18.4452 56.3767 15.7155 55.9068C12.8837 55.4193 11.6253 54.3667 10.8688 51.8528C9.93488 48.7495 8.95883 47.2633 6.81427 45.6793C4.38145 43.8823 3.75726 42.2978 4.35106 39.4262C4.90104 36.7665 4.69044 34.8755 3.57344 32.4442C2.24072 29.5434 2.40524 27.9934 4.2981 25.6167C6.0334 23.4379 6.57805 21.9978 6.83793 18.9009C7.10019 15.7757 7.96968 14.4936 10.5304 13.4559C12.6676 12.5899 14.4958 11.0866 15.5095 9.36189C16.6816 7.36744 16.8527 7.13881 17.5789 6.59699C18.7509 5.72261 19.6984 5.48029 21.503 5.59345C24.6378 5.79002 26.3179 5.41363 28.423 4.04322C31.1677 2.25643 32.832 2.25643 35.5767 4.04322C37.6818 5.41363 39.3619 5.79002 42.4967 5.59345C45.461 5.40757 46.6945 6.18576 48.5014 9.38179C49.3968 10.9657 51.2272 12.5072 53.2303 13.3644C56.0834 14.5855 56.9127 15.6999 57.1231 18.596C57.3509 21.7324 57.994 23.486 59.6977 25.6167C61.5947 27.9891 61.7602 29.5406 60.4262 32.4442C59.3093 34.8755 59.0986 36.7665 59.6486 39.4262C60.2424 42.2978 59.6182 43.8823 57.1854 45.6793C55.0409 47.2633 54.0648 48.7495 53.1309 51.8528C52.3744 54.3667 51.116 55.4193 48.2842 55.9068C45.5487 56.3777 43.9763 57.2068 42.0486 59.1949C39.9116 61.3988 38.3797 61.7624 35.3921 60.7748C32.9486 59.967 31.0672 59.9636 28.6334 60.7624C26.9285 61.322 26.0198 61.4195 24.9268 61.1603V61.1603Z" fill="white"/>
<path d="M42.5025 29.5147C42.3181 29.1382 42.4762 28.6864 42.8527 28.5019C43.2292 28.3174 43.681 28.4756 43.8655 28.8521C44.05 29.2286 43.8919 29.6804 43.5154 29.8649C43.1388 30.0494 42.687 29.8912 42.5025 29.5147ZM46.166 37.0449C45.9815 36.6684 46.1396 36.2166 46.5161 36.0321C46.8926 35.8476 47.3444 36.0057 47.5289 36.3822C47.7134 36.7588 47.5553 37.2106 47.1788 37.3951C46.8023 37.5795 46.3505 37.4214 46.166 37.0449ZM46.486 27.2745C44.0764 25.5539 40.9325 25.1096 38.0221 26.2353L45.9777 42.5946C48.6585 41.002 50.2473 38.2497 50.3829 35.2941L53.4025 35.5087C53.5757 35.52 53.7263 35.392 53.7376 35.2151C53.7489 35.0419 53.6209 34.8913 53.4439 34.88L50.3866 34.6616C50.3565 33.3739 50.0478 32.0599 49.4341 30.7949C48.8204 29.5336 47.977 28.4793 46.983 27.6585L48.6999 25.1171C48.7978 24.974 48.7601 24.7783 48.617 24.6804C48.474 24.5825 48.2782 24.6201 48.1803 24.7632L46.486 27.2707" fill="#3DDC84"/>
<path d="M39.1516 33.4342C36.9076 34.5185 34.4942 35.0682 31.9791 35.0682C26.3127 35.0682 21.1658 32.1917 18.165 27.6133C17.9278 27.2519 17.4384 27.1653 17.0882 27.4213L14.2004 29.5486C13.8728 29.7896 13.7975 30.2489 14.0272 30.5877C17.9693 36.4726 24.6448 40.1586 31.9791 40.1586C35.2661 40.1586 38.425 39.4395 41.3655 38.02L39.1516 33.4342Z" fill="#4285F4"/>
<path d="M31.9528 15.3354H33.5153V11.8828C33.5153 11.0206 32.815 10.3203 31.9528 10.3203C31.0906 10.3203 30.3903 11.0206 30.3903 11.8828V15.3354H31.9528Z" fill="#4285F4"/>
<path d="M27.8865 22.075L17.1447 44.1835C16.9113 44.6617 16.787 45.1813 16.7757 45.7122L16.7117 48.6075C16.6967 49.3568 17.5627 49.7785 18.1425 49.3041L20.3789 47.4667C20.7893 47.1316 21.1207 46.7099 21.3541 46.2317L31.9415 24.4357L27.8903 22.0787L27.8865 22.075Z" fill="#4285F4"/>
<path d="M47.1336 45.7084C47.1223 45.1775 46.9942 44.6579 46.7646 44.1798L36.0228 22.0712L31.9716 24.4357L42.559 46.2242C42.7924 46.7024 43.1237 47.1203 43.5341 47.4591L45.7706 49.2965C46.3504 49.7709 47.2202 49.3492 47.2013 48.6L47.1373 45.7046L47.1336 45.7084Z" fill="#4285F4"/>
<path d="M31.9527 15.0606C29.3661 15.0606 27.2651 17.1653 27.2651 19.7481C27.2651 22.331 29.3698 24.4356 31.9527 24.4356C34.5355 24.4356 36.6402 22.331 36.6402 19.7481C36.6402 17.1653 34.5355 15.0606 31.9527 15.0606ZM31.9527 22.3272C30.5332 22.3272 29.3736 21.1713 29.3736 19.7481C29.3736 18.3249 30.5295 17.169 31.9527 17.169C33.3759 17.169 34.5318 18.3249 34.5318 19.7481C34.5318 21.1713 33.3759 22.3272 31.9527 22.3272Z" fill="#073042"/>
</svg>
