<svg width="16" height="16" viewBox="0 0 16 16" fill="none" xmlns="http://www.w3.org/2000/svg">
<path fill-rule="evenodd" clip-rule="evenodd" d="M7.99882 14C6.5714 14 5.38141 13.5316 4.42885 12.5949C3.47628 11.6582 3 10.4923 3 9.09714C3 8.10939 3.41389 7.02674 4.24167 5.84919C5.06945 4.67163 6.32223 3.38857 8 2C9.2828 3.06168 10.3171 4.06168 11.1031 5L9 5L9 13.9166C8.68034 13.9722 8.34662 14 7.99882 14Z" fill="#3D3223"/>
<path d="M8.07812 11.4345C7.54756 11.4662 6.99876 11.3179 6.43173 10.9896C5.86471 10.6613 5.50726 10.1153 5.35938 9.35156" stroke="#D6AE58" stroke-linecap="round" stroke-linejoin="round"/>
<path fill-rule="evenodd" clip-rule="evenodd" d="M5.05976 6.42428L5.05976 6.42428C5.71533 5.4917 6.68712 4.4536 8 3.31114C8.67907 3.90207 9.26689 4.46507 9.7669 5L11.1031 5C10.3171 4.06168 9.2828 3.06168 8 2C6.32223 3.38857 5.06945 4.67163 4.24167 5.84919C3.41389 7.02674 3 8.10939 3 9.09714C3 10.4923 3.47628 11.6582 4.42885 12.5949C5.38141 13.5316 6.5714 14 7.99882 14C8.34662 14 8.68034 13.9722 9 13.9166V12.898C8.68772 12.9658 8.35464 13 7.99882 13C6.81388 13 5.88186 12.6213 5.13001 11.8819L4.43152 12.5922L5.13001 11.8819C4.37787 11.1423 4 10.2374 4 9.09714C4 8.38977 4.29871 7.5069 5.05976 6.42428Z" fill="#D6AE58"/>
<circle cx="12.5328" cy="14.9007" r="0.602362" fill="#D6AE58"/>
<path d="M12.6584 11.6387C12.8176 11.4705 13.0257 11.2737 13.2825 11.0485C13.5463 10.816 13.7552 10.6158 13.91 10.4478L13.9107 10.447C14.0663 10.2828 14.1967 10.0854 14.3015 9.85392L14.302 9.85291C14.4091 9.62576 14.4635 9.36703 14.4635 9.07528C14.4635 8.72192 14.3894 8.4106 14.2431 8.13948C14.0968 7.86842 13.8909 7.65825 13.6243 7.50777L13.6236 7.50735C13.3573 7.35276 13.0512 7.27457 12.7032 7.27457C12.3417 7.27457 12.0219 7.35501 11.7421 7.51427C11.4667 7.67351 11.2516 7.89702 11.0961 8.18633C11.0236 8.32301 10.9684 8.4695 10.9305 8.62598C10.9129 8.69864 10.899 8.77344 10.889 8.85043C10.861 9.06442 10.6939 9.24039 10.478 9.24039H10.3903C10.1772 9.24039 10.0068 9.06335 10.0149 8.85043C10.0222 8.77431 10.0321 8.69949 10.0447 8.62598C10.0969 8.3221 10.1948 8.04056 10.3388 7.78186C10.5698 7.37544 10.8916 7.06027 11.3026 6.83852C11.7138 6.61221 12.1835 6.5 12.7099 6.5C13.2226 6.5 13.6788 6.60761 14.0765 6.82486C14.4782 7.03736 14.7909 7.33604 15.0131 7.72027C15.2355 8.10488 15.3458 8.54604 15.3458 9.04161C15.3458 9.43085 15.2817 9.77731 15.1515 10.0795C15.0232 10.3772 14.8644 10.6289 14.6741 10.8332C14.492 11.0335 14.252 11.262 13.9547 11.5188C13.7176 11.7246 13.5331 11.8958 13.4004 12.0329C13.2756 12.162 13.1698 12.313 13.083 12.4866L13.0827 12.4872C12.9985 12.6513 12.9558 12.8353 12.9558 13.0406C12.9558 13.2285 12.8035 13.3807 12.6157 13.3807H12.4743C12.2678 13.3807 12.1005 13.2134 12.1005 13.0069C12.1005 12.7198 12.1538 12.4602 12.262 12.2295C12.3682 12.0034 12.5002 11.8062 12.6584 11.6387Z" fill="#D6AE58"/>
</svg>
