<svg width="16" height="16" viewBox="0 0 16 16" fill="none" xmlns="http://www.w3.org/2000/svg">
<path d="M4.77943 12.2384L4.42885 12.5949L4.77943 12.2384C3.92708 11.4002 3.5 10.3648 3.5 9.09714C3.5 8.24958 3.8563 7.26682 4.65072 6.13673L4.24167 5.84919L4.65072 6.13673C5.39172 5.08262 6.50292 3.92085 8 2.65214C9.49708 3.92085 10.6083 5.08262 11.3493 6.13673L11.7583 5.84919L11.3493 6.13673C12.1437 7.26682 12.5 8.24958 12.5 9.09714C12.5 10.3647 12.0726 11.4001 11.2196 12.2383C10.3665 13.0764 9.30499 13.5 7.99882 13.5C6.69264 13.5 5.63163 13.0764 4.77943 12.2384Z" fill="#FFF7F7" stroke="#DB3B4B"/>
<path d="M8.07812 11.4345C7.54756 11.4662 6.99876 11.3179 6.43173 10.9896C5.86471 10.6613 5.50726 10.1153 5.35938 9.35156" stroke="#DB3B4B" stroke-linecap="round" stroke-linejoin="round"/>
</svg>
