<svg width="16" height="16" viewBox="0 0 16 16" fill="none" xmlns="http://www.w3.org/2000/svg">
<path d="M8.07812 11.4345C7.54756 11.4662 6.99876 11.3179 6.43173 10.9896C5.86471 10.6613 5.50726 10.1153 5.35938 9.35156" stroke="#CED0D6" stroke-linecap="round" stroke-linejoin="round"/>
<rect x="2" y="3.4024" width="1" height="16" transform="rotate(-45 2 3.4024)" fill="#CED0D6"/>
<path fill-rule="evenodd" clip-rule="evenodd" d="M4.95297 4.93351C4.68857 5.24551 4.45147 5.55074 4.24167 5.84919C3.41389 7.02674 3 8.10939 3 9.09714C3 10.4923 3.47628 11.6582 4.42885 12.5949C5.38141 13.5316 6.5714 14 7.99882 14C9.42623 14 10.6166 13.5316 11.57 12.5949C11.75 12.418 11.9131 12.2329 12.0591 12.0397L11.3433 11.3239C11.2066 11.5198 11.0485 11.7054 10.8691 11.8816C10.1164 12.6212 9.18375 13 7.99882 13C6.81388 13 5.88186 12.6213 5.13001 11.8819L4.43152 12.5922L5.13001 11.8819C4.37787 11.1423 4 10.2374 4 9.09714C4 8.38977 4.29871 7.5069 5.05976 6.42428L5.05976 6.42428C5.23735 6.17165 5.43815 5.91128 5.66264 5.64318L4.95297 4.93351ZM11.8119 10.3782C11.9372 9.9871 12 9.56165 12 9.09714C12 8.38977 11.7013 7.5069 10.9402 6.42428L10.9402 6.42428C10.2847 5.4917 9.31287 4.4536 8 3.31114C7.36448 3.86417 6.80889 4.39274 6.33039 4.89672L5.62306 4.18939C6.28755 3.49133 7.07986 2.76153 8 2C9.67777 3.38857 10.9305 4.67163 11.7583 5.84919C12.5861 7.02674 13 8.10939 13 9.09714C13 9.84843 12.8618 10.5333 12.5853 11.1516L11.8119 10.3782Z" fill="#CED0D6"/>
</svg>
