<svg width="16" height="16" viewBox="0 0 16 16" fill="none" xmlns="http://www.w3.org/2000/svg"><path fill-rule="evenodd" clip-rule="evenodd" d="M11 10a1 1 0 0 0-1 1v2H4a1 1 0 0 1-1-1V4a1 1 0 0 1 1-1h8a1 1 0 0 1 1 1v6h-2zm1.5 2.5l1.207-1.207a1 1 0 0 0 .293-.707V4a2 2 0 0 0-2-2H4a2 2 0 0 0-2 2v8a2 2 0 0 0 2 2h6.586a1 1 0 0 0 .707-.293L12.5 12.5zM5.5 5a.5.5 0 0 0 0 1h5a.5.5 0 0 0 0-1h-5zM5 7.5a.5.5 0 0 1 .5-.5h5a.5.5 0 0 1 0 1h-5a.5.5 0 0 1-.5-.5zM5.5 9a.5.5 0 0 0 0 1h3a.5.5 0 0 0 0-1h-3z" fill="#6C707E"/></svg>