<!--
  - Copyright (C) 2025 The Android Open Source Project
  -
  - Licensed under the Apache License, Version 2.0 (the "License");
  - you may not use this file except in compliance with the License.
  - You may obtain a copy of the License at
  -
  -      http://www.apache.org/licenses/LICENSE-2.0
  -
  - Unless required by applicable law or agreed to in writing, software
  - distributed under the License is distributed on an "AS IS" BASIS,
  - WITHOUT WARRANTIES OR CONDITIONS OF ANY KIND, either express or implied.
  - See the License for the specific language governing permissions and
  - limitations under the License.
  -->
<svg width="100" height="100" viewBox="0 0 100 100" xmlns="http://www.w3.org/2000/svg"><rect width="100" height="100" fill="none"/><g fill="none" fill-rule="evenodd"><path d="M0 0h100v100H0z"/><path d="M84 24c-1.587-1.647-3.97-3-5-3H38c-1.03 0-3.33 1.14-5 3l-6 21v31c0 1.86 1.15 3 3 3h5c.93 0 2.08-1.14 2-3v-6h43v6c-.08 1.832 1.07 3 2 3h5c1.85 0 3-1.14 3-3V45l-6-21zM38.5 59c-2.49 0-4.5-2.01-4.5-4.5s2.01-4.5 4.5-4.5 4.5 2.01 4.5 4.5-2.01 4.5-4.5 4.5zm40 0c-2.49 0-4.5-2.01-4.5-4.5s2.01-4.5 4.5-4.5 4.5 2.01 4.5 4.5-2.01 4.5-4.5 4.5zM33 45l5-18h41l5 18H33z" fill="#6E6E6E" fill-rule="nonzero"/></g></svg>