<!--
  - Copyright (C) 2025 The Android Open Source Project
  -
  - Licensed under the Apache License, Version 2.0 (the "License");
  - you may not use this file except in compliance with the License.
  - You may obtain a copy of the License at
  -
  -      http://www.apache.org/licenses/LICENSE-2.0
  -
  - Unless required by applicable law or agreed to in writing, software
  - distributed under the License is distributed on an "AS IS" BASIS,
  - WITHOUT WARRANTIES OR CONDITIONS OF ANY KIND, either express or implied.
  - See the License for the specific language governing permissions and
  - limitations under the License.
  -->
<svg width="64" height="64" viewBox="0 0 64 64" xmlns="http://www.w3.org/2000/svg"><rect width="64" height="64" fill="none"/><g fill="none" fill-rule="evenodd"><path d="M0 0h64v64H0z"/><path d="M52 11c-1.022-.927-2.913-2-4-2H16c-1.087 0-2.913.905-4 2L7 28v25c0 1.095.913 2 2 2h4c1.087 0 2-.905 2-2v-5h34v4.978c0 1.095.913 2.022 2 2.022h4c1.087 0 2-.905 2-2V28l-5-17zM15.5 39a3.495 3.495 0 0 1-3.5-3.5c0-1.937 1.563-3.5 3.5-3.5s3.5 1.563 3.5 3.5-1.563 3.5-3.5 3.5zm33 0a3.495 3.495 0 0 1-3.5-3.5c0-1.937 1.563-3.5 3.5-3.5s3.5 1.563 3.5 3.5-1.563 3.5-3.5 3.5zM12 28l4-14h32l4 14H12z" fill="#AFB1B3" fill-rule="nonzero"/></g></svg>