<svg width="16" height="16" viewBox="0 0 16 16" fill="none" xmlns="http://www.w3.org/2000/svg"><path fill-rule="evenodd" clip-rule="evenodd" d="M5 5h7v3h1V5a1 1 0 0 0-1-1H5a1 1 0 0 0-1 1v7a1 1 0 0 0 1 1h3v-1H5V5z" fill="#6C707E"/><path d="M2.5 10.5v-7a1 1 0 0 1 1-1h7" stroke="#6C707E" stroke-linecap="round"/><path fill-rule="evenodd" clip-rule="evenodd" d="M9.146 9.146a.5.5 0 0 1 .708 0L12 11.293l2.146-2.147a.5.5 0 0 1 .708.708L12.707 12l2.147 2.146a.5.5 0 0 1-.708.708L12 12.707l-2.146 2.147a.5.5 0 0 1-.708-.708L11.293 12 9.146 9.854a.5.5 0 0 1 0-.708z" fill="#DB3B4B"/></svg>