<svg width="16" height="16" viewBox="0 0 16 16" fill="none" xmlns="http://www.w3.org/2000/svg"><path d="M7.558 11.234v-.496a2.724 2.724 0 0 1 4.21-2.283" stroke="#3574F0" stroke-linecap="round"/><path d="M6.302 9.894l.983 1.53 1.53-.984M13.024 10.477v.496a2.724 2.724 0 0 1-4.209 2.283" stroke="#3574F0" stroke-linecap="round"/><path d="M14.281 11.817l-.983-1.53-1.53.984" stroke="#3574F0" stroke-linecap="round"/><path fill-rule="evenodd" clip-rule="evenodd" d="M3 3h6v3h1V3a1 1 0 0 0-1-1H3a1 1 0 0 0-1 1v10a1 1 0 0 0 1 1h3v-1H3V3z" fill="#CED0D6"/></svg>