<svg width="16" height="16" viewBox="0 0 16 16" fill="none" xmlns="http://www.w3.org/2000/svg"><path fill-rule="evenodd" clip-rule="evenodd" d="M7.84 6.604a.5.5 0 1 0-.708-.708L4.896 8.132l-.353.354.353.353 2.236 2.236a.5.5 0 1 0 .707-.707L6.471 9h4.548a2.001 2.001 0 0 1 0 4.002h-.035v1h.035a3.001 3.001 0 0 0 0-6.002H6.443l1.396-1.396z" fill="#6C707E"/><path fill-rule="evenodd" clip-rule="evenodd" d="M3 3h6v4h1V3a1 1 0 0 0-1-1H3a1 1 0 0 0-1 1v10a1 1 0 0 0 1 1h6a1 1 0 0 0 1-1v-3H9v3H3V3z" fill="#6C707E"/></svg>