<svg width="16" height="16" viewBox="0 0 16 16" fill="none" xmlns="http://www.w3.org/2000/svg">
<path d="M7 12.5C10.0376 12.5 12.5 10.0376 12.5 7C12.5 3.96243 10.0376 1.5 7 1.5C3.96243 1.5 1.5 3.96243 1.5 7C1.5 10.0376 3.96243 12.5 7 12.5Z" stroke="#6C707E"/>
<path d="M11 11L14.5 14.5" stroke="#6C707E" stroke-linecap="round"/>
<path d="M7.99999 4.5C7.99999 4.22386 7.77613 4 7.49999 4L3.99994 4.00002L3.99999 7.5C3.99999 7.77614 4.22385 8 4.49999 8C4.77613 8 4.99999 7.77614 4.99999 7.5V5.70708L8.29286 9H6.49999C6.22385 9 5.99999 9.22386 5.99999 9.5C5.99999 9.77614 6.22385 10 6.49999 10H9.99994L9.99999 6.5C9.99999 6.22386 9.77613 6 9.49999 6C9.22385 6 8.99999 6.22386 8.99999 6.5V8.29292L5.70712 5H7.49999C7.77613 5 7.99999 4.77614 7.99999 4.5Z" fill="#6C707E"/>
</svg>
