<!--
  - Copyright (C) 2025 The Android Open Source Project
  -
  - Licensed under the Apache License, Version 2.0 (the "License");
  - you may not use this file except in compliance with the License.
  - You may obtain a copy of the License at
  -
  -      http://www.apache.org/licenses/LICENSE-2.0
  -
  - Unless required by applicable law or agreed to in writing, software
  - distributed under the License is distributed on an "AS IS" BASIS,
  - WITHOUT WARRANTIES OR CONDITIONS OF ANY KIND, either express or implied.
  - See the License for the specific language governing permissions and
  - limitations under the License.
  -->
<svg width="16" height="16" viewBox="0 0 16 16" fill="none" xmlns="http://www.w3.org/2000/svg"><path d="M6 9.5h4M10.607 9.5a1.5 1.5 0 00-1.492 1.652l.204 2a1.501 1.501 0 001.493 1.348h1.84a1.5 1.5 0 001.49-1.331l.228-2A1.5 1.5 0 0012.88 9.5h-2.273z" stroke="#6C707E" stroke-linecap="square"/><rect x="2" y="6" width="4" height="2" rx="1" fill="#4682FA"/><path d="M5.393 9.5a1.5 1.5 0 011.492 1.652l-.204 2A1.501 1.501 0 015.187 14.5h-1.84a1.5 1.5 0 01-1.49-1.331l-.227-2A1.5 1.5 0 013.12 9.5h2.273z" stroke="#6C707E" stroke-linecap="square"/><path d="M9 2.5c.357-.55 1.086-1 2-1 .943 0 1.643.445 1.643 1.5 0 1.05-1.342 2.194-3.604 3.97A.101.101 0 009 7.049V7.4a.1.1 0 00.1.1H13" stroke="#6C707E" stroke-linecap="round"/></svg>