<svg width="16" height="16" viewBox="0 0 16 16" fill="none" xmlns="http://www.w3.org/2000/svg"><path d="M6 6.5h4M10.607 6.5a1.5 1.5 0 00-1.492 1.652l.204 2a1.501 1.501 0 001.493 1.348h1.84a1.5 1.5 0 001.49-1.331l.228-2A1.5 1.5 0 0012.88 6.5h-2.273z" stroke="#6C707E" stroke-linecap="square"/><rect x="2" y="3" width="4" height="2" rx="1" fill="#4682FA"/><path d="M5.393 6.5a1.5 1.5 0 011.492 1.652l-.204 2A1.501 1.501 0 015.187 11.5h-1.84a1.5 1.5 0 01-1.49-1.331l-.227-2A1.5 1.5 0 013.12 6.5h2.273z" stroke="#6C707E" stroke-linecap="square"/></svg>