<!--
  - Copyright (C) 2025 The Android Open Source Project
  -
  - Licensed under the Apache License, Version 2.0 (the "License");
  - you may not use this file except in compliance with the License.
  - You may obtain a copy of the License at
  -
  -      http://www.apache.org/licenses/LICENSE-2.0
  -
  - Unless required by applicable law or agreed to in writing, software
  - distributed under the License is distributed on an "AS IS" BASIS,
  - WITHOUT WARRANTIES OR CONDITIONS OF ANY KIND, either express or implied.
  - See the License for the specific language governing permissions and
  - limitations under the License.
  -->
<svg width="16" height="16" viewBox="0 0 16 16" fill="none" xmlns="http://www.w3.org/2000/svg"><path d="M5.392 9c.036 0 .072.003.108.005V9h5v.005c.035-.002.071-.005.107-.005h2.273a2 2 0 011.987 2.226l-.228 2A2 2 0 0112.652 15h-1.84a2.001 2.001 0 01-1.99-1.797l-.204-2A1.987 1.987 0 018.877 10H7.124c.203.35.302.766.258 1.203l-.205 2A2 2 0 015.187 15h-1.84a2 2 0 01-1.987-1.774l-.227-2A2 2 0 013.12 9h2.272zM3.12 10l-.11.006a1 1 0 00-.883 1.107l.226 2a1 1 0 00.9.882l.094.005h1.84a1 1 0 00.995-.898l.205-2a1 1 0 00-.885-1.096L5.392 10H3.12zm7.378.006a1 1 0 00-.886 1.096l.205 2a1 1 0 00.995.898h1.84l.095-.005a1 1 0 00.9-.882l.226-2a1 1 0 00-.883-1.107L12.88 10h-2.273l-.11.006z" fill="#6C707E"/><rect x="2" y="6" width="4" height="2" rx="1" fill="#4682FA"/><path d="M12.143 3c0-.409-.13-.63-.288-.76C11.683 2.095 11.402 2 11 2c-.752 0-1.32.37-1.581.772a.5.5 0 11-.838-.544C9.034 1.53 9.923 1 11 1c.541 0 1.081.127 1.494.47.429.355.649.884.649 1.53 0 .735-.463 1.408-1.094 2.06-.556.576-1.323 1.21-2.243 1.94H13a.5.5 0 010 1H9.1a.6.6 0 01-.6-.6V7.05c0-.187.088-.36.23-.473 1.136-.891 2.01-1.6 2.6-2.21.606-.627.813-1.051.813-1.366z" fill="#6C707E"/></svg>