<!--
  - Copyright (C) 2025 The Android Open Source Project
  -
  - Licensed under the Apache License, Version 2.0 (the "License");
  - you may not use this file except in compliance with the License.
  - You may obtain a copy of the License at
  -
  -      http://www.apache.org/licenses/LICENSE-2.0
  -
  - Unless required by applicable law or agreed to in writing, software
  - distributed under the License is distributed on an "AS IS" BASIS,
  - WITHOUT WARRANTIES OR CONDITIONS OF ANY KIND, either express or implied.
  - See the License for the specific language governing permissions and
  - limitations under the License.
  -->
<svg width="16" height="16" viewBox="0 0 16 16" fill="none" xmlns="http://www.w3.org/2000/svg"><path d="M6 9.5h4M10.607 9.5a1.5 1.5 0 00-1.492 1.652l.204 2a1.501 1.501 0 001.493 1.348h1.84a1.5 1.5 0 001.49-1.331l.228-2A1.5 1.5 0 0012.88 9.5h-2.273z" stroke="#CED0D6" stroke-linecap="square"/><rect x="2" y="6" width="4" height="2" rx="1" fill="#548AF7"/><path d="M5.393 9.5a1.5 1.5 0 011.492 1.652l-.204 2A1.501 1.501 0 015.187 14.5h-1.84a1.5 1.5 0 01-1.49-1.331l-.227-2A1.5 1.5 0 013.12 9.5h2.273z" stroke="#CED0D6" stroke-linecap="square"/><path d="M11.528 1.002a.5.5 0 01.277.104l.034.028.029.031c.012.014.025.028.036.043a.51.51 0 01.026.042l.017.026.005.013c.008.017.013.035.02.053.004.014.01.028.013.043l.007.04c.003.022.006.044.007.065V7.5a.5.5 0 01-1 0V2.309l-1.276.638a.5.5 0 01-.447-.894l2-1 .013-.006c.017-.008.035-.014.053-.02.014-.004.027-.01.041-.013.017-.004.035-.006.052-.008.017-.002.033-.005.05-.005L11.5 1l.028.002z" fill="#CED0D6"/></svg>