<!--
  - Copyright (C) 2025 The Android Open Source Project
  -
  - Licensed under the Apache License, Version 2.0 (the "License");
  - you may not use this file except in compliance with the License.
  - You may obtain a copy of the License at
  -
  -      http://www.apache.org/licenses/LICENSE-2.0
  -
  - Unless required by applicable law or agreed to in writing, software
  - distributed under the License is distributed on an "AS IS" BASIS,
  - WITHOUT WARRANTIES OR CONDITIONS OF ANY KIND, either express or implied.
  - See the License for the specific language governing permissions and
  - limitations under the License.
  -->
<svg width="16" height="16" viewBox="0 0 16 16" fill="none" xmlns="http://www.w3.org/2000/svg"><path d="M5.393 9c.036 0 .071.003.107.005V9h5v.005c.036-.002.071-.005.107-.005h2.273a2 2 0 011.987 2.226l-.227 2A2 2 0 0112.652 15h-1.84a2 2 0 01-1.99-1.797l-.204-2A1.987 1.987 0 018.876 10H7.124c.203.35.303.766.258 1.203l-.204 2A2 2 0 015.188 15h-1.84a2 2 0 01-1.988-1.774l-.227-2A2 2 0 013.12 9h2.273zM3.12 10l-.11.006a1 1 0 00-.883 1.107l.227 2a1 1 0 00.899.882l.095.005h1.84a1 1 0 00.995-.898l.205-2a1 1 0 00-.886-1.096L5.392 10H3.12zm7.378.006a1 1 0 00-.886 1.096l.205 2a1 1 0 00.996.898h1.84l.094-.005a1 1 0 00.9-.882l.226-2a1 1 0 00-.883-1.107L12.88 10h-2.273l-.109.006z" fill="#CED0D6"/><rect x="2" y="6" width="4" height="2" rx="1" fill="#548AF7"/><path d="M11.528 1.002a.5.5 0 01.277.104l.034.028.029.031c.012.014.025.028.036.043a.51.51 0 01.026.042l.017.026.005.013c.008.017.013.035.02.053.004.014.01.028.013.043l.007.04c.003.022.006.044.007.065V7.5a.5.5 0 01-1 0V2.309l-1.276.638a.5.5 0 01-.447-.894l2-1 .013-.006c.017-.008.035-.014.053-.02.014-.004.027-.01.041-.013.017-.004.035-.006.052-.008.017-.002.033-.005.05-.005L11.5 1l.028.002z" fill="#CED0D6"/></svg>