<svg width="16" height="16" viewBox="0 0 16 16" fill="none" xmlns="http://www.w3.org/2000/svg">
<path d="M10.5294 8.78947V7.0163C10.5294 6.33451 9.69334 6.00638 9.22962 6.50619C9.10093 6.64489 9.02942 6.8271 9.02942 7.0163V7.49847M9.02942 8.2254V6.70345C9.02942 6.17838 8.51238 5.80951 8.01588 5.98037C7.70722 6.08659 7.50001 6.37703 7.50001 6.70345V7.49847M10.5294 8.26316V7.74219C10.5294 7.4237 10.7306 7.13995 11.0311 7.0345C11.5188 6.86336 12.0294 7.22531 12.0294 7.7422V10.8443C12.0294 11.7587 11.2881 12.5 10.3737 12.5H7.35634C6.63745 12.5 5.94688 12.2198 5.43131 11.7188L3.90069 10.2314C3.66221 9.99971 3.60163 9.64005 3.75104 9.34298C3.91319 9.02057 4.27935 8.85622 4.62801 8.94934L6.00001 9.31578V3.75C6.00001 3.33579 6.3358 3 6.75001 3C7.16422 3 7.50001 3.33579 7.50001 3.75V6.68421" stroke="#6C707E" stroke-linecap="round" stroke-linejoin="round"/>
<path d="M4.5 1.5H1.5V4.5" stroke="#6C707E" stroke-linecap="round" stroke-linejoin="round"/>
<path d="M11.5 14.5H14.5V11.5" stroke="#6C707E" stroke-linecap="round" stroke-linejoin="round"/>
<path d="M14.5 4.5V1.5H11.5" stroke="#6C707E" stroke-linecap="round" stroke-linejoin="round"/>
<path d="M1.5 11.5V14.5H4.5" stroke="#6C707E" stroke-linecap="round" stroke-linejoin="round"/>
</svg>
