<svg width="16" height="16" viewBox="0 0 16 16" fill="none" xmlns="http://www.w3.org/2000/svg">
<path d="M8 3.5V12.5" stroke="#CED0D6" stroke-linecap="round"/>
<path d="M12.4998 7.99988H3.49982" stroke="#CED0D6" stroke-linecap="round"/>
<path fill-rule="evenodd" clip-rule="evenodd" d="M6.14569 3.9457C5.95667 4.14701 5.96663 4.46343 6.16794 4.65245C6.36925 4.84147 6.68568 4.83151 6.8747 4.6302L7.99274 3.43946L9.12746 4.63253C9.31777 4.83263 9.63425 4.84056 9.83434 4.65025C10.0344 4.45994 10.0424 4.14346 9.85206 3.94337L8.35271 2.36691L7.98807 1.98352L7.6259 2.36924L6.14569 3.9457ZM9.85427 12.054C10.0433 11.8527 10.0333 11.5363 9.83202 11.3472C9.63071 11.1582 9.31428 11.1682 9.12526 11.3695L8.00722 12.5602L6.8725 11.3672C6.68219 11.1671 6.36571 11.1591 6.16562 11.3494C5.96552 11.5397 5.95759 11.8562 6.1479 12.0563L7.64725 13.6328L8.01189 14.0162L8.37406 13.6304L9.85427 12.054Z" fill="#CED0D6"/>
<path fill-rule="evenodd" clip-rule="evenodd" d="M12.0541 6.1355C11.8528 5.94648 11.5364 5.95644 11.3474 6.15775C11.1583 6.35906 11.1683 6.67549 11.3696 6.86451L12.5604 7.98255L11.3673 9.11727C11.1672 9.30757 11.1593 9.62406 11.3496 9.82415C11.5399 10.0242 11.8564 10.0322 12.0564 9.84187L13.6329 8.34252L14.0163 7.97788L13.6306 7.61571L12.0541 6.1355ZM3.94582 9.84408C4.14713 10.0331 4.46355 10.0231 4.65257 9.82182C4.8416 9.62051 4.83163 9.30409 4.63032 9.11507L3.43958 7.99703L4.63265 6.86231C4.83275 6.672 4.84068 6.35552 4.65037 6.15542C4.46007 5.95533 4.14358 5.9474 3.94349 6.1377L2.36703 7.63706L1.98364 8.00169L2.36936 8.36387L3.94582 9.84408Z" fill="#CED0D6"/>
</svg>
