<svg width="16" height="16" viewBox="0 0 16 16" fill="none" xmlns="http://www.w3.org/2000/svg">
<path d="M9 8C9 8.55228 8.55228 9 8 9C7.44772 9 7 8.55228 7 8C7 7.44772 7.44772 7 8 7C8.55228 7 9 7.44772 9 8Z" fill="#6C707E"/>
<path fill-rule="evenodd" clip-rule="evenodd" d="M11.7071 5L13.8536 2.85355C14.0488 2.65829 14.0488 2.34171 13.8536 2.14645C13.6583 1.95118 13.3417 1.95118 13.1464 2.14645L11 4.29289V3C11 2.72386 10.7761 2.5 10.5 2.5C10.2239 2.5 10 2.72386 10 3V5.5V6H10.5H13C13.2761 6 13.5 5.77614 13.5 5.5C13.5 5.22386 13.2761 5 13 5H11.7071Z" fill="#6C707E"/>
<path fill-rule="evenodd" clip-rule="evenodd" d="M2.14645 13.1464C1.95118 13.3417 1.95118 13.6583 2.14645 13.8536C2.34171 14.0488 2.65829 14.0488 2.85355 13.8536L5 11.7071V13C5 13.2761 5.22386 13.5 5.5 13.5C5.77614 13.5 6 13.2761 6 13V10.5V10H5.5H3C2.72386 10 2.5 10.2239 2.5 10.5C2.5 10.7761 2.72386 11 3 11H4.29289L2.14645 13.1464Z" fill="#6C707E"/>
<path fill-rule="evenodd" clip-rule="evenodd" d="M13.1464 13.8536C13.3417 14.0488 13.6583 14.0488 13.8536 13.8536C14.0488 13.6583 14.0488 13.3417 13.8536 13.1464L11.7071 11H13C13.2761 11 13.5 10.7761 13.5 10.5C13.5 10.2239 13.2761 10 13 10H10.5H10V10.5V13C10 13.2761 10.2239 13.5 10.5 13.5C10.7761 13.5 11 13.2761 11 13V11.7071L13.1464 13.8536Z" fill="#6C707E"/>
<path fill-rule="evenodd" clip-rule="evenodd" d="M2.85355 2.14645C2.65829 1.95118 2.34171 1.95118 2.14645 2.14645C1.95118 2.34171 1.95118 2.65829 2.14645 2.85355L4.29289 5H3C2.72386 5 2.5 5.22386 2.5 5.5C2.5 5.77614 2.72386 6 3 6H5.5H6V5.5V3C6 2.72386 5.77614 2.5 5.5 2.5C5.22386 2.5 5 2.72386 5 3V4.29289L2.85355 2.14645Z" fill="#6C707E"/>
</svg>
