<svg width="14" height="14" viewBox="0 0 14 14" fill="none" xmlns="http://www.w3.org/2000/svg"><g clip-path="url(#clip0_4456_1790)" stroke="#CED0D6" stroke-linecap="round"><path d="M10 1.5H4a1 1 0 0 0-.8.4L.968 4.875a1 1 0 0 0 .024 1.231l5.232 6.439a1 1 0 0 0 1.552 0l5.232-6.439a1 1 0 0 0 .024-1.23L10.8 1.9a1 1 0 0 0-.8-.4zM1 5.5h12"/><path d="M6 1.5L4.207 5.085a1 1 0 0 0-.024.841L7 12.5M8 1.5l1.793 3.585a1 1 0 0 1 .024.841L7 12.5"/></g><defs><clipPath id="clip0_4456_1790"><path fill="#fff" d="M0 0h14v14H0z"/></clipPath></defs></svg>