<svg width="14" height="14" viewBox="0 0 14 14" fill="none" xmlns="http://www.w3.org/2000/svg"><g clip-path="url(#clip0_4456_1753)"><path d="M8.998 2.516l-.088.049.088-.05-.683-1.211A.675.675 0 0 0 7.83.96a5.644 5.644 0 0 0-1.664 0 .675.675 0 0 0-.486.343l-.682 1.212a.511.511 0 0 1-.45.26l-1.39-.015a.676.676 0 0 0-.54.248 5.594 5.594 0 0 0-.833 1.442.675.675 0 0 0 .053.59l.71 1.199c.095.16.095.36 0 .52l-.71 1.198a.675.675 0 0 0-.053.59c.206.525.488 1.01.834 1.443.131.165.333.25.538.248l1.39-.015a.511.511 0 0 1 .451.26l.682 1.213c.101.179.277.31.486.342a5.651 5.651 0 0 0 1.664 0 .675.675 0 0 0 .485-.342l.683-1.213a.511.511 0 0 1 .45-.26l1.39.015a.676.676 0 0 0 .54-.248c.345-.433.627-.918.833-1.442a.675.675 0 0 0-.054-.59l-.709-1.199a.511.511 0 0 1 0-.52l.71-1.198a.675.675 0 0 0 .053-.59 5.595 5.595 0 0 0-.834-1.443.676.676 0 0 0-.538-.248l-1.39.015a.511.511 0 0 1-.451-.26zM3.396 5.737l-.634-1.07c.142-.328.32-.636.532-.919l1.242.014a1.497 1.497 0 0 0 1.321-.763l.61-1.083a4.673 4.673 0 0 1 1.062 0l.61 1.083c.268.476.774.769 1.32.763l1.243-.014c.211.283.39.591.532.919l-.634 1.07a1.497 1.497 0 0 0 0 1.526l.634 1.07c-.142.328-.32.636-.532.919L9.46 9.238a1.497 1.497 0 0 0-1.32.763l-.61 1.083a4.692 4.692 0 0 1-1.062 0l-.61-1.083a1.497 1.497 0 0 0-1.32-.763l-1.243.014a4.608 4.608 0 0 1-.532-.919l.634-1.07a1.497 1.497 0 0 0 0-1.526zm3.602 2.946a2.183 2.183 0 1 0 0-4.366 2.183 2.183 0 0 0 0 4.366zM8.195 6.5a1.197 1.197 0 1 1-2.394 0 1.197 1.197 0 0 1 2.394 0z" fill="#CED0D6" stroke="#CED0D6" stroke-width=".2"/></g><defs><clipPath id="clip0_4456_1753"><path fill="#fff" d="M0 0h14v14H0z"/></clipPath></defs></svg>