<svg width="14" height="14" viewBox="0 0 14 14" fill="none" xmlns="http://www.w3.org/2000/svg"><g clip-path="url(#clip0_4456_1678)"><path fill-rule="evenodd" clip-rule="evenodd" d="M9 5V2H3v10h3v1H3a1 1 0 0 1-1-1V2a1 1 0 0 1 1-1h6a1 1 0 0 1 1 1v3H9z" fill="#CED0D6"/><path d="M13.108 9.492a.6.6 0 0 1 .011 1.036l-4.71 2.825a.6.6 0 0 1-.909-.515V7.332a.6.6 0 0 1 .897-.522l4.71 2.682z" fill="#253627" stroke="#57965C" stroke-linecap="round"/><rect x="5" y="3" width="2" height="1" rx=".5" fill="#CED0D6"/></g><defs><clipPath id="clip0_4456_1678"><path fill="#fff" d="M0 0h14v14H0z"/></clipPath></defs></svg>