<svg width="16" height="16" viewBox="0 0 16 16" fill="none" xmlns="http://www.w3.org/2000/svg"><circle cx="10" cy="6" r="4.5" stroke="#6C707E"/><path fill-rule="evenodd" clip-rule="evenodd" d="M2.108 6.86a5 5 0 0 0 7.031 7.031 6.03 6.03 0 0 1-2.242.008 4 4 0 0 1-4.796-4.796 6.033 6.033 0 0 1 .007-2.242z" fill="#6C707E"/><path fill-rule="evenodd" clip-rule="evenodd" d="M4.108 4.86a5 5 0 0 0 7.031 7.031 6.03 6.03 0 0 1-2.242.008 4 4 0 0 1-4.796-4.796 6.033 6.033 0 0 1 .007-2.242z" fill="#6C707E"/></svg>