<svg width="16" height="16" viewBox="0 0 16 16" fill="none" xmlns="http://www.w3.org/2000/svg"><path fill-rule="evenodd" clip-rule="evenodd" d="M12.083 3c.507 0 .917.366.917.818V8h-1V4H3v7h7v1H2.917C2.41 12 2 11.634 2 11.182V3.818C2 3.366 2.41 3 2.917 3h9.166z" fill="#6C707E"/><path d="M9.808 11.99l-1.04-4.508 4.508 1.04a.05.05 0 0 1 .024.085l-.997.997 1.945 1.944a.25.25 0 0 1 0 .354l-1.06 1.06a.25.25 0 0 1-.354 0l-1.945-1.944-.997.997a.05.05 0 0 1-.084-.024z" stroke="#6C707E" stroke-linecap="round"/></svg>