<svg width="16" height="16" viewBox="0 0 16 16" fill="none" xmlns="http://www.w3.org/2000/svg"><path fill-rule="evenodd" clip-rule="evenodd" d="M11.802 7.667a.619.619 0 0 0-.106.333v.5a.5.5 0 1 1-1 0V8c0-.247.07-.606.295-.917.242-.337.643-.583 1.205-.583.563 0 .963.246 1.206.583.225.311.294.67.294.917v1a.5.5 0 1 1-1 0V8a.619.619 0 0 0-.105-.333c-.058-.08-.157-.167-.395-.167-.237 0-.336.088-.394.167z" fill="#CED0D6"/><path fill-rule="evenodd" clip-rule="evenodd" d="M9.802 6.817a.62.62 0 0 0-.106.333v.5a.5.5 0 1 1-1 0v-.5c0-.247.07-.606.295-.917.242-.337.642-.583 1.205-.583.563 0 .963.246 1.206.583.225.311.294.67.294.917v1a.5.5 0 1 1-1 0v-1a.619.619 0 0 0-.105-.333c-.058-.08-.157-.167-.395-.167-.237 0-.337.088-.394.167z" fill="#CED0D6"/><path fill-rule="evenodd" clip-rule="evenodd" d="M7.802 6.667A.62.62 0 0 0 7.696 7v.5a.5.5 0 0 1-1 0V7c0-.247.07-.606.295-.917.242-.337.642-.583 1.205-.583.563 0 .963.246 1.206.583.225.311.294.67.294.917v1a.5.5 0 0 1-1 0V7a.62.62 0 0 0-.105-.333c-.058-.08-.158-.167-.395-.167-.237 0-.337.088-.394.167z" fill="#CED0D6"/><path fill-rule="evenodd" clip-rule="evenodd" d="M5.802 3.167a.62.62 0 0 0-.106.333v3a.5.5 0 0 1-1 0v-3c0-.247.07-.606.295-.917C5.233 2.246 5.633 2 6.196 2c.563 0 .963.246 1.206.583.225.311.294.67.294.917v4a.5.5 0 0 1-1 0v-4a.62.62 0 0 0-.105-.333C6.533 3.087 6.433 3 6.196 3c-.237 0-.337.088-.394.167z" fill="#CED0D6"/><path fill-rule="evenodd" clip-rule="evenodd" d="M7 4.834A2 2 0 1 0 5 4.6v1.15a3 3 0 1 1 2 .142V4.834z" fill="#CED0D6"/><path fill-rule="evenodd" clip-rule="evenodd" d="M5.196 5a.5.5 0 0 1 .5.5v4.42a.55.55 0 0 1-.796.491l-1.644-.895a.559.559 0 0 0-.645.895l3.06 2.857A2.5 2.5 0 0 0 7.44 14h2.757a2.5 2.5 0 0 0 2.5-2.5V8a.5.5 0 1 1 1 0v3.5a3.5 3.5 0 0 1-3.5 3.5H7.44a3.5 3.5 0 0 1-2.475-1.025l-3.06-2.857a1.559 1.559 0 0 1 1.8-2.496l.992.569V5.5a.5.5 0 0 1 .5-.5z" fill="#CED0D6"/></svg>