<svg width="16" height="16" viewBox="0 0 16 16" fill="none" xmlns="http://www.w3.org/2000/svg"><path d="M6 5.5h4M14.37 7.17l-.227 2a1.5 1.5 0 0 1-1.49 1.33h-1.841A1.5 1.5 0 0 1 9.32 9.153l-.205-2A1.5 1.5 0 0 1 10.607 5.5h2.273a1.5 1.5 0 0 1 1.49 1.67z" stroke="#CED0D6" stroke-linecap="square"/><rect x="1" y="7" width="3" height="1" rx=".5" fill="#CED0D6"/><path fill-rule="evenodd" clip-rule="evenodd" d="M1.334 9l.026.226A2 2 0 0 0 3.347 11h1.841a2 2 0 0 0 1.99-1.797l.204-2A2 2 0 0 0 5.392 5H3.12c-.746 0-1.388.406-1.732 1h4.005a1 1 0 0 1 .994 1.102l-.204 2a1 1 0 0 1-.995.898h-1.84a1 1 0 0 1-.994-.887L2.34 9H1.334z" fill="#CED0D6"/></svg>