<svg width="16" height="16" viewBox="0 0 16 16" fill="none" xmlns="http://www.w3.org/2000/svg"><mask id="a" fill="#fff"><path d="M2 4a1 1 0 0 1 1-1h10a1 1 0 0 1 1 1v7a1 1 0 0 1-1 1H3a1 1 0 0 1-1-1V4z"/></mask><path d="M1 4a2 2 0 0 1 2-2h10a2 2 0 0 1 2 2H1zm14 7a2 2 0 0 1-2 2H3a2 2 0 0 1-2-2h14zM3 13a2 2 0 0 1-2-2V4a2 2 0 0 1 2-2v11zM13 2a2 2 0 0 1 2 2v7a2 2 0 0 1-2 2V2z" fill="#6C707E" mask="url(#a)"/><path d="M6 4h4a1 1 0 0 1-1 1H7a1 1 0 0 1-1-1z" fill="#6C707E"/><rect x="1" y="13" width="14" height="1" rx=".5" fill="#6C707E"/></svg>