<svg width="16" height="16" viewBox="0 0 16 16" fill="none" xmlns="http://www.w3.org/2000/svg"><rect x="10.5" y="8.5" width="4" height="6" rx=".5" stroke="#CED0D6"/><mask id="a" fill="#fff"><path fill-rule="evenodd" clip-rule="evenodd" d="M2 3h4a1 1 0 001 1h2a1 1 0 001-1h4v3h1V3a1 1 0 00-1-1H2a1 1 0 00-1 1v9a1 1 0 001 1h6v-2H2V3z"/></mask><path d="M6 3h1V2H6v1zM2 3V2H1v1h1zm8 0V2H9v1h1zm4 0h1V2h-1v1zm0 3h-1v1h1V6zm1 0v1h1V6h-1zm-7 7v1h1v-1H8zm0-2h1v-1H8v1zm-6 0H1v1h1v-1zm4-9H2v2h4V2zm1 1H5a2 2 0 002 2V3zm2 0H7v2h2V3zm0 0v2a2 2 0 002-2H9zm5-1h-4v2h4V2zm1 4V3h-2v3h2zm-1 1h1V5h-1v2zm2-1V3h-2v3h2zm0-3a2 2 0 00-2-2v2h2zm-2-2H2v2h12V1zM2 1a2 2 0 00-2 2h2V1zM0 3v9h2V3H0zm0 9a2 2 0 002 2v-2H0zm2 2h6v-2H2v2zm7-1v-2H7v2h2zm-7-1h6v-2H2v2zM1 3v8h2V3H1z" fill="#CED0D6" mask="url(#a)"/></svg>