<svg width="16" height="16" viewBox="0 0 16 16" fill="none" xmlns="http://www.w3.org/2000/svg"><path fill-rule="evenodd" clip-rule="evenodd" d="M13 2a.5.5 0 000-1H3a.5.5 0 000 1h1v2.5c0 1.506.832 2.818 2.062 3.5A3.999 3.999 0 004 11.5V14H3a.5.5 0 000 1h5.758a4.485 4.485 0 01-.502-1H5v-2.5a3 3 0 014.666-2.495c.276-.225.579-.417.903-.57A4.01 4.01 0 009.938 8 3.999 3.999 0 0012 4.5V2h1zM5 4.5V2h6v2.5a3 3 0 01-6 0z" fill="#6C707E"/><path fill-rule="evenodd" clip-rule="evenodd" d="M12.5 16a3.5 3.5 0 100-7 3.5 3.5 0 000 7zm-.5-5.5a.5.5 0 011 0v2a.5.5 0 01-1 0v-2zm1 4a.5.5 0 11-1 0 .5.5 0 011 0z" fill="#FFAF0F"/></svg>