<!--
  - Copyright (C) 2025 The Android Open Source Project
  -
  - Licensed under the Apache License, Version 2.0 (the "License");
  - you may not use this file except in compliance with the License.
  - You may obtain a copy of the License at
  -
  -      http://www.apache.org/licenses/LICENSE-2.0
  -
  - Unless required by applicable law or agreed to in writing, software
  - distributed under the License is distributed on an "AS IS" BASIS,
  - WITHOUT WARRANTIES OR CONDITIONS OF ANY KIND, either express or implied.
  - See the License for the specific language governing permissions and
  - limitations under the License.
  -->
<svg width="16" height="16" viewBox="0 0 16 16" fill="none" xmlns="http://www.w3.org/2000/svg"><g clip-path="url(#clip0_235_61)"><path d="M11.475 4.904l.707-.707a1 1 0 111.414 1.414l-.707.707-1.414-1.414z" fill="#CED0D6"/><path d="M6 1.5h4M8 5.5V9" stroke="#CED0D6" stroke-linecap="round"/><rect x="13" y="11" width="1" height="5" rx=".5" fill="#57965C"/><path d="M11 13.5a.5.5 0 01.5-.5h4a.5.5 0 010 1h-4a.5.5 0 01-.5-.5z" fill="#57965C"/><path fill-rule="evenodd" clip-rule="evenodd" d="M10 13.584A5 5 0 1112.9 10h1.017A6 6 0 1010 14.659v-1.075z" fill="#CED0D6"/></g><defs><clipPath id="clip0_235_61"><path fill="#fff" d="M0 0h16v16H0z"/></clipPath></defs></svg>