<svg width="16" height="16" viewBox="0 0 16 16" xmlns="http://www.w3.org/2000/svg"><rect id="frame" width="16" height="16" fill="none"/><g fill="none" fill-rule="evenodd"><g fill-rule="nonzero"><g fill="#6E6E6E"><path d="M6.176 11.935a2.998 2.998 0 0 0-1.385-.83A2.247 2.247 0 0 0 6.327 8.98V4.99a3.748 3.748 0 0 1 3.756-3.741h.063a2 2 0 0 1 3.593-.238 2.997 2.997 0 0 0-2.175 1.238h-.481A3.748 3.748 0 0 0 7.327 5.99v3.99a2.245 2.245 0 0 1-1.15 1.955zM1.011 13.74A2 2 0 1 1 3.74 11.01 3 3 0 0 0 1.01 13.74z"/><path d="M9.827 10H9v3.323a3.739 3.739 0 0 1-2.916 1.398H4.016V13.22h2.068a2.246 2.246 0 0 0 2.243-2.24V6.99a3.748 3.748 0 0 1 3.756-3.741H14v1.5h-1.917A2.248 2.248 0 0 0 9.827 6.99V10z"/><circle transform="matrix(-1 0 0 1 8 0)" cx="4" cy="14" r="2"/><circle transform="matrix(-1 0 0 1 28 0)" cx="14" cy="4" r="2"/></g><g fill="#59A869"><path d="M12 9h2v6h-2z"/><path d="M10 11h6v2h-6z"/></g></g><path d="M0 0h16v16H0z"/></g></svg>