<svg width="16" height="16" viewBox="0 0 16 16" xmlns="http://www.w3.org/2000/svg"><rect id="frame" width="16" height="16" fill="none"/><g fill="none" fill-rule="evenodd"><path d="M0 0h16v16H0z"/><path d="M10.99 10H9v4h.821H6.2a.777.777 0 0 1-.565-.251L3 10.926l.421-.457a.578.578 0 0 1 .422-.189c.047 0 .085.011.127.017l1.83.412V4.571c0-.474.357-.857.8-.857.443 0 .8.383.8.857V8h.404c.1 0 .199.022.29.063l2.42 1.291a.86.86 0 0 1 .475.646z" fill="#6E6E6E"/><path d="M14 11h2v2h-2v2h-2v-2h-2v-2h2V9h2v2z" fill="#59A869" fill-rule="nonzero"/><path d="M5.267 6.709V4.57c0-.788.597-1.428 1.333-1.428s1.333.64 1.333 1.428v2.14C8.58 6.246 9 5.463 9 4.57 9 3.15 7.928 2 6.6 2 5.272 2 4.2 3.149 4.2 4.571c0 .892.421 1.675 1.067 2.138z" fill="#6E6E6E"/></g></svg>