<svg width="16" height="16" viewBox="0 0 16 16" xmlns="http://www.w3.org/2000/svg"><rect id="frame" width="16" height="16" fill="none"/><g fill="none" fill-rule="evenodd"><path d="M0 0h16v16H0z"/><g fill="#9AA7B0" fill-rule="nonzero"><path d="M6.176 11.935a2.998 2.998 0 0 0-1.385-.83A2.247 2.247 0 0 0 6.327 8.98V4.99a3.748 3.748 0 0 1 3.756-3.741h.063a2 2 0 0 1 3.593-.238 2.997 2.997 0 0 0-2.175 1.238h-.481A3.748 3.748 0 0 0 7.327 5.99v3.99a2.245 2.245 0 0 1-1.15 1.955zM1.011 13.74A2 2 0 1 1 3.74 11.01 3 3 0 0 0 1.01 13.74z"/><path d="M4.016 13.22h2.068a2.246 2.246 0 0 0 2.243-2.24V6.99a3.748 3.748 0 0 1 3.756-3.741H14v1.5h-1.917A2.248 2.248 0 0 0 9.827 6.99v3.99a3.746 3.746 0 0 1-3.743 3.741H4.016V13.22z"/><circle transform="matrix(-1 0 0 1 8 0)" cx="4" cy="14" r="2"/><circle transform="matrix(-1 0 0 1 28 0)" cx="14" cy="4" r="2"/></g><path d="M0 0h16v16H0z"/></g></svg>