<!--
  - Copyright (C) 2025 The Android Open Source Project
  -
  - Licensed under the Apache License, Version 2.0 (the "License");
  - you may not use this file except in compliance with the License.
  - You may obtain a copy of the License at
  -
  -      http://www.apache.org/licenses/LICENSE-2.0
  -
  - Unless required by applicable law or agreed to in writing, software
  - distributed under the License is distributed on an "AS IS" BASIS,
  - WITHOUT WARRANTIES OR CONDITIONS OF ANY KIND, either express or implied.
  - See the License for the specific language governing permissions and
  - limitations under the License.
  -->
<svg width="16" height="16" viewBox="0 0 16 16" fill="none" xmlns="http://www.w3.org/2000/svg"><path d="M6 5H3V2" stroke="#CED0D6" stroke-linecap="round"/><path d="M2.33 10.578a.5.5 0 11.903-.43l-.902.43zM7.75 13a5 5 0 005-5h1a6 6 0 01-6 6v-1zm5-5a5 5 0 00-5-5V2a6 6 0 016 6h-1zm-9.517 2.148A5 5 0 007.75 13v1a6 6 0 01-5.42-3.422l.903-.43zM7.75 3c-1.711 0-3.222.86-4.124 2.172l-.824-.566A5.994 5.994 0 017.75 2v1z" fill="#CED0D6"/></svg>