<svg width="16" height="16" viewBox="0 0 16 16" xmlns="http://www.w3.org/2000/svg"><rect id="frame" width="16" height="16" fill="none"/><g fill="none" fill-rule="evenodd"><path d="M0 0h16v16H0z"/><path d="M10 1a5 5 0 1 1 0 10 5 5 0 0 1 0-10zm0 1a4 4 0 1 0 0 8 4 4 0 0 0 0-8zM2 8c0 .377.035.746.101 1.104A4 4 0 0 0 6.896 13.9a6.09 6.09 0 0 0 2.243-.007 5 5 0 0 1-7.03-7.031c-.072.369-.109.75-.109 1.139z" fill="#9AA7B0"/><path d="M4 6c0 .377.035.746.101 1.104A4 4 0 0 0 8.896 11.9a6.09 6.09 0 0 0 2.243-.007 5 5 0 0 1-7.03-7.031c-.072.369-.109.75-.109 1.139z" fill="#9AA7B0"/></g></svg>