<svg width="16" height="16" viewBox="0 0 16 16" xmlns="http://www.w3.org/2000/svg"><rect id="frame" width="16" height="16" fill="none"/><g fill="none" fill-rule="evenodd"><path d="M2.217 11.945A6.96 6.96 0 0 1 1.07 9H3.1c.109.534.302 1.038.566 1.496l-1.45 1.45zM3.57 13.42l1.424-1.424a4.982 4.982 0 0 0 1.671.824v2.053A6.972 6.972 0 0 1 3.57 13.42zM2.217 4.055l1.45 1.45A4.967 4.967 0 0 0 3.1 7H1.07a6.96 6.96 0 0 1 1.147-2.945zM3.57 2.58a6.972 6.972 0 0 1 3.095-1.453V3.18a4.982 4.982 0 0 0-1.67.824L3.57 2.58zm5.185-1.54a7.001 7.001 0 0 1 0 13.92v-2.017a5.001 5.001 0 0 0 0-9.886V1.04z" fill="#6E6E6E"/><path fill="#656565" d="M6 11l5-3-5-3z"/></g></svg>