<!--
  - Copyright (C) 2025 The Android Open Source Project
  -
  - Licensed under the Apache License, Version 2.0 (the "License");
  - you may not use this file except in compliance with the License.
  - You may obtain a copy of the License at
  -
  -      http://www.apache.org/licenses/LICENSE-2.0
  -
  - Unless required by applicable law or agreed to in writing, software
  - distributed under the License is distributed on an "AS IS" BASIS,
  - WITHOUT WARRANTIES OR CONDITIONS OF ANY KIND, either express or implied.
  - See the License for the specific language governing permissions and
  - limitations under the License.
  -->
<svg width="16" height="16" viewBox="0 0 16 16" fill="none" xmlns="http://www.w3.org/2000/svg"><path fill-rule="evenodd" clip-rule="evenodd" d="M6.25 10.117a.5.5 0 00.757.429l3.528-2.117a.5.5 0 000-.858L7.007 5.454a.5.5 0 00-.757.43v4.233z" fill="#CED0D6"/><circle cx="1.75" cy="8" r=".75" fill="#CED0D6"/><circle cx="5.125" cy="2.5" r=".75" fill="#CED0D6"/><circle cx="2.719" cy="4.75" r=".75" fill="#CED0D6"/><circle cx=".75" cy=".75" r=".75" transform="matrix(1 0 0 -1 4.375 14.25)" fill="#CED0D6"/><circle cx=".75" cy=".75" r=".75" transform="matrix(1 0 0 -1 1.969 12)" fill="#CED0D6"/><path d="M8 1.5c3.5 0 6.5 3 6.5 6.5s-3 6.5-6.5 6.5" stroke="#CED0D6" stroke-linecap="round"/></svg>