<svg width="16" height="16" viewBox="0 0 16 16" fill="none" xmlns="http://www.w3.org/2000/svg"><path fill-rule="evenodd" clip-rule="evenodd" d="M9.347 7.264c-.46 0-.83.323-.85.721L8.5 8c0 .825-.674 1.5-1.5 1.5H4c-.825 0-1.5-.675-1.5-1.5S3.175 6.5 4 6.5h1.034A4.013 4.013 0 0 1 6.12 5H4C2.35 5 1 6.35 1 8s1.35 3 3 3h3c1.65 0 3-1.35 3-3 0-.256-.041-.5-.103-.736h-.55z" fill="#9AA7B0" fill-opacity=".8"/><path fill-rule="evenodd" clip-rule="evenodd" d="M11.922 5h-3c-1.65 0-3 1.35-3 3 0 .191.024.376.059.557h.61c.456 0 .822-.317.847-.71A1.5 1.5 0 0 1 8.922 6.5h3c.825 0 1.5.675 1.5 1.5s-.675 1.5-1.5 1.5h-1.153A4.023 4.023 0 0 1 9.68 11h2.24c1.65 0 3-1.35 3-3s-1.35-3-3-3z" fill="#9AA7B0" fill-opacity=".8"/></svg>