<svg width="16" height="16" viewBox="0 0 16 16" fill="none" xmlns="http://www.w3.org/2000/svg"><path fill-rule="evenodd" clip-rule="evenodd" d="M8.922 5h3a3.009 3.009 0 0 1 2.93 3.64 2.986 2.986 0 0 0-1.43-.61V8c0-.825-.675-1.5-1.5-1.5h-3a1.5 1.5 0 0 0-1.484 1.347c-.025.393-.391.71-.846.71H5.98A2.923 2.923 0 0 1 5.92 8c0-1.65 1.35-3 3-3zm2.755 4.5h.245c.441 0 .84-.193 1.115-.5.554.01 1.052.245 1.408.618A3.004 3.004 0 0 1 11.922 11H11c0-.597.262-1.134.677-1.5z" fill="#9AA7B0"/><path fill-rule="evenodd" clip-rule="evenodd" d="M9.347 7.264c-.46 0-.83.323-.85.721L8.5 8c0 .825-.674 1.5-1.5 1.5H4c-.825 0-1.5-.675-1.5-1.5S3.175 6.5 4 6.5h1.034A4.013 4.013 0 0 1 6.12 5H4C2.35 5 1 6.35 1 8s1.35 3 3 3h3c1.65 0 3-1.35 3-3 0-.256-.041-.5-.103-.736h-.55z" fill="#9AA7B0"/><circle cx="13" cy="11" r="2" fill="#62B543"/></svg>