<svg width="16" height="16" viewBox="0 0 16 16" fill="none" xmlns="http://www.w3.org/2000/svg"><g clip-path="url(#clip0_4400_1049)"><path fill-rule="evenodd" clip-rule="evenodd" d="M9 14H6.4l-.8-2.571C4.732 10.699 4 9.275 4 8s.732-2.699 1.6-3.429L6.4 2h3.2l.8 2.571c.64.542 1.211 1.468 1.463 2.429h-1.652C9.847 6.077 8.993 5.429 8 5.429 6.676 5.429 5.6 6.58 5.6 8c0 1.419 1.076 2.571 2.4 2.571.357 0 .695-.083 1-.233V14z" fill="#9AA7B0" fill-opacity=".8"/><path d="M15.221 9.6a.187.187 0 0 0-.317-.1l-.973.974-.766-1.457a.187.187 0 0 0-.332 0l-.418.797-1.05-1.958a.188.188 0 0 0-.35.06L10 14.411l2.713 1.522c.17.096.378.096.549.001l2.736-1.522-.777-4.812z" fill="#F57C00"/><path d="M15.998 14.412L15.222 9.6a.187.187 0 0 0-.317-.1L10 14.411l2.713 1.521c.17.096.378.096.549.001l2.736-1.522z" fill="#FFCA28"/></g><defs><clipPath id="clip0_4400_1049"><path fill="#fff" d="M0 0h16v16H0z"/></clipPath></defs></svg>