<svg width="16" height="16" viewBox="0 0 16 16" fill="none" xmlns="http://www.w3.org/2000/svg"><g clip-path="url(#clip0_4400_1045)"><path fill-rule="evenodd" clip-rule="evenodd" d="M12.308 3.688c.052.106.111.226.188.36 0 0 .947 1.986 1.338 2.952h-1.899l-.939-2.952H5l-1 3.142H9v4.681c-2.01.006-4.501.034-4.501.034v1.047s0 1.048-1 1.048H3C2 14 2 12.952 2 12.952v-5.46c0-.302 1.5-3.444 1.5-3.444.075-.133.134-.251.186-.357.196-.397.303-.614.885-.691h6.858c.578.077.685.294.879.688zM4.017 9.322c.01.58.463 1.04 1.016 1.03.554-.01.992-.487.982-1.066-.01-.58-.463-1.04-1.016-1.03-.553.01-.992.487-.982 1.066z" fill="#9AA7B0" fill-opacity=".8"/><path d="M15.221 9.6a.187.187 0 0 0-.317-.1l-.973.974-.766-1.457a.187.187 0 0 0-.332 0l-.418.797-1.05-1.958a.188.188 0 0 0-.35.06L10 14.411l2.713 1.522c.17.096.378.096.549.001l2.736-1.522-.777-4.812z" fill="#F57C00"/><path d="M15.998 14.412L15.222 9.6a.187.187 0 0 0-.317-.1L10 14.411l2.713 1.521c.17.096.378.096.549.001l2.736-1.522z" fill="#FFCA28"/></g><defs><clipPath id="clip0_4400_1045"><path fill="#fff" d="M0 0h16v16H0z"/></clipPath></defs></svg>