<svg width="16" height="16" viewBox="0 0 16 16" fill="none" xmlns="http://www.w3.org/2000/svg"><g clip-path="url(#clip0_4236_809)"><path fill-rule="evenodd" clip-rule="evenodd" d="M5 2h6c.5 0 1 .5 1 1v4h-1V4H5v8h4v2H5c-.5 0-1-.5-1-1V3c0-.5.5-1 1-1z" fill="#9AA7B0"/><path d="M15.221 9.6a.187.187 0 0 0-.317-.1l-.973.974-.766-1.457a.187.187 0 0 0-.332 0l-.418.797-1.05-1.958a.188.188 0 0 0-.35.06L10 14.411l2.713 1.522c.17.096.378.096.549.001l2.736-1.522-.777-4.812z" fill="#F57C00"/><path d="M15.998 14.411l-.777-4.81a.187.187 0 0 0-.317-.102L10 14.411l2.713 1.522c.17.096.378.096.549.001l2.736-1.523z" fill="#FFCA28"/></g><defs><clipPath id="clip0_4236_809"><path fill="#fff" d="M0 0h16v16H0z"/></clipPath></defs></svg>