<svg width="16" height="16" viewBox="0 0 16 16" fill="none" xmlns="http://www.w3.org/2000/svg"><g clip-path="url(#clip0_4400_1048)"><path fill-rule="evenodd" clip-rule="evenodd" d="M2.857 3h10.286c.428 0 .857.5.857 1v3h-1V5H3v6h6v3H5.429v-1H2.857C2.43 13 2 12.5 2 12V4c0-.5.429-1 .857-1z" fill="#9AA7B0" fill-opacity=".8"/><path d="M15.221 9.6a.187.187 0 0 0-.317-.1l-.973.974-.766-1.457a.187.187 0 0 0-.332 0l-.418.797-1.05-1.958a.188.188 0 0 0-.35.06L10 14.411l2.713 1.522c.17.096.378.096.549.001l2.736-1.522-.777-4.812z" fill="#F57C00"/><path d="M15.998 14.412L15.222 9.6a.187.187 0 0 0-.317-.1L10 14.411l2.713 1.521c.17.096.378.096.549.001l2.736-1.522z" fill="#FFCA28"/></g><defs><clipPath id="clip0_4400_1048"><path fill="#fff" d="M0 0h16v16H0z"/></clipPath></defs></svg>