<svg width="16" height="16" viewBox="0 0 16 16" fill="none" xmlns="http://www.w3.org/2000/svg"><g clip-path="url(#clip0_4400_1045)"><path fill-rule="evenodd" clip-rule="evenodd" d="M12.308 3.688c.052.106.111.226.188.36 0 0 1.499 3.142 1.504 3.444V8H9v3.871c-2.01.006-4.501.034-4.501.034v1.047s0 1.048-1 1.048H3C2 14 2 12.952 2 12.952v-5.46c0-.302 1.5-3.444 1.5-3.444.075-.133.134-.251.186-.357.196-.397.303-.614.885-.691h6.858c.578.077.685.294.879.688zM4.017 9.322c.01.58.463 1.04 1.016 1.03.554-.01.992-.487.982-1.066-.01-.58-.463-1.04-1.016-1.03-.553.01-.992.487-.982 1.066zm.982-5.274l-1 3.142h7.997l-1-3.142H5z" fill="#9AA7B0" fill-opacity=".8"/><path d="M11.88 15.799c.314.118.657.188 1.016.2.486.015.948-.078 1.361-.256a4.302 4.302 0 0 1-1.327-.774c-.248.37-.615.661-1.05.83z" fill="#FF9100"/><path d="M12.93 14.97c-.874-.752-1.405-1.84-1.36-3.032l.006-.116a2.43 2.43 0 0 0-1.182.012c-.234.38-.375.815-.392 1.282-.045 1.205.74 2.257 1.877 2.683.436-.169.803-.46 1.051-.83z" fill="#FFC400"/><path d="M12.93 14.97c.203-.303.327-.657.34-1.039.039-1.004-.688-1.868-1.694-2.109a4.496 4.496 0 0 0-.006.117c-.045 1.192.486 2.279 1.36 3.03z" fill="#FF9100"/><path d="M13.159 9a3.98 3.98 0 0 0-1.3 1.636c-.156.37-.254.769-.283 1.186 1.006.241 1.733 1.105 1.695 2.11a1.985 1.985 0 0 1-.341 1.037c.383.329.832.594 1.328.774.994-.427 1.7-1.345 1.74-2.433.027-.704-.264-1.332-.676-1.861C14.887 10.889 13.159 9 13.159 9z" fill="#DD2C00"/></g><defs><clipPath id="clip0_4400_1045"><path fill="#fff" d="M0 0h16v16H0z"/></clipPath></defs></svg>