<svg width="16" height="16" viewBox="0 0 16 16" fill="none" xmlns="http://www.w3.org/2000/svg"><g clip-path="url(#clip0_4400_1052)"><g clip-path="url(#clip1_4400_1052)"><path fill-rule="evenodd" clip-rule="evenodd" d="M2 4a1 1 0 0 1 1-1h10a1 1 0 0 1 1 1v4h-1V5H3v5h6v1H6v1h3v2H1v-2h1V4z" fill="#9AA7B0" fill-opacity=".8"/><path d="M11.88 15.799c.314.118.657.188 1.016.2.486.015.948-.078 1.361-.256a4.302 4.302 0 0 1-1.327-.774c-.248.37-.615.661-1.05.83z" fill="#FF9100"/><path d="M12.93 14.97c-.874-.752-1.405-1.84-1.36-3.032l.006-.116a2.43 2.43 0 0 0-1.182.012c-.234.38-.375.815-.392 1.282-.045 1.205.74 2.257 1.877 2.683.436-.169.803-.46 1.051-.83z" fill="#FFC400"/><path d="M12.93 14.97c.203-.303.327-.657.34-1.039.039-1.004-.688-1.868-1.694-2.109a4.496 4.496 0 0 0-.006.117c-.045 1.192.486 2.279 1.36 3.03z" fill="#FF9100"/><path d="M13.159 9a3.98 3.98 0 0 0-1.3 1.636c-.156.37-.254.769-.283 1.186 1.006.241 1.733 1.105 1.695 2.11a1.985 1.985 0 0 1-.341 1.037c.383.329.832.594 1.328.774.994-.427 1.7-1.345 1.74-2.433.027-.704-.264-1.332-.676-1.861C14.887 10.889 13.159 9 13.159 9z" fill="#DD2C00"/></g></g><defs><clipPath id="clip0_4400_1052"><path fill="#fff" d="M0 0h16v16H0z"/></clipPath><clipPath id="clip1_4400_1052"><path fill="#fff" d="M0 0h16v16H0z"/></clipPath></defs></svg>