<svg width="16" height="16" viewBox="0 0 16 16" fill="none" xmlns="http://www.w3.org/2000/svg">
<path d="M2.5 7.07037C2.5 6.40166 2.84498 5.78631 3.48153 5.58143C4.33267 5.30747 5.78199 5 8 5C10.218 5 11.6673 5.30747 12.5185 5.58143C13.155 5.78631 13.5 6.40166 13.5 7.07037V9.5C13.5 10.6046 12.6046 11.5 11.5 11.5H11.0777C10.6961 11.5 10.3179 11.4272 9.96358 11.2854L8.37139 10.6486C8.13298 10.5532 7.86702 10.5532 7.62861 10.6486L6.03642 11.2854C5.68206 11.4272 5.30391 11.5 4.92225 11.5H4.5C3.39543 11.5 2.5 10.6046 2.5 9.5V7.07037Z" fill="#EBECF0" stroke="#6C707E" stroke-linejoin="round"/>
</svg>
