<svg width="16" height="16" viewBox="0 0 16 16" xmlns="http://www.w3.org/2000/svg"><rect width="16" height="16" fill="none"/><g fill="none" fill-rule="evenodd"><path d="M9 14H6.4l-.8-2.571C4.732 10.699 4 9.275 4 8s.732-2.699 1.6-3.429L6.4 2h3.2l.8 2.571C11.263 5.301 12 6.73 12 8c0 .328-.049.666-.137 1h-1.652c.122-.308.189-.645.189-1 0-1.419-1.076-2.571-2.4-2.571C6.676 5.429 5.6 6.58 5.6 8c0 1.419 1.076 2.571 2.4 2.571.357 0 .695-.083 1-.233V14z" fill="#9AA7B0"/><g fill="#9178BA"><path d="M10 15h6v1h-6zM10 10h6v4h-6v-4zm1 1v2h4v-2h-4z"/></g></g></svg>