<svg width="16" height="16" viewBox="0 0 16 16" xmlns="http://www.w3.org/2000/svg"><rect width="16" height="16" fill="none"/><g fill="none" fill-rule="evenodd"><path d="M8.997 11.871c-2.009.006-4.498.034-4.498.034v1.047s0 1.048-1 1.048H3C2 14 2 12.952 2 12.952v-5.46c0-.302 1.5-3.444 1.5-3.444.358-.627.334-.95 1.071-1.048h6.858c.735.097.708.422 1.067 1.048 0 0 1.499 3.142 1.504 3.444v1.794h-1.987c-.01-.58-.464-1.04-1.017-1.03-.541.01-.973.467-.982 1.03H8.997v2.585zm-3.964-1.52c.554-.01.992-.486.982-1.065-.01-.58-.463-1.04-1.016-1.03-.553.01-.992.487-.982 1.066.01.58.463 1.04 1.016 1.03zM4 7.191h7.997l-1-3.143H5l-1 3.142z" fill="#9AA7B0"/><g fill="#9178BA"><path d="M10 15h6v1h-6zM10 10h6v4h-6v-4zm1 1v2h4v-2h-4z"/></g></g></svg>