<svg width="16" height="16" viewBox="0 0 16 16" fill="none" xmlns="http://www.w3.org/2000/svg"><path d="M6 4.5h4" stroke="#CED0D6" stroke-linecap="square"/><rect x="3" y="7" width="2" height="1" rx=".5" fill="#CED0D6"/><path d="M12.88 4a2 2 0 011.987 2.226l-.094.815A1.406 1.406 0 0014.438 7h-.665l.1-.887a1 1 0 00-.883-1.107L12.88 5h-2.273l-.109.006a1 1 0 00-.886 1.096L9.704 7H8.7l-.08-.797A2 2 0 0110.606 4h2.273z" fill="#CED0D6"/><rect x="7.5" y="8.5" width="7" height="4" rx=".75" stroke="#A571E6"/><path d="M5.393 4a2 2 0 011.99 2.203l-.086.823c-.469.09-.866.413-1.093.86l.184-1.784a1 1 0 00-.886-1.096L5.392 5H3.12l-.11.006a1 1 0 00-.883 1.107l.227 2a1 1 0 00.9.882L3.347 9h1.84c.338 0 .639-.17.82-.43-.005.059-.008.119-.008.18v1.075c-.249.111-.523.175-.812.175h-1.84a2 2 0 01-1.987-1.774l-.228-2A2 2 0 013.12 4h2.273z" fill="#CED0D6"/><path d="M7.5 14.5h7" stroke="#A571E6" stroke-linecap="round"/></svg>