<!--
  - Copyright (C) 2025 The Android Open Source Project
  -
  - Licensed under the Apache License, Version 2.0 (the "License");
  - you may not use this file except in compliance with the License.
  - You may obtain a copy of the License at
  -
  -      http://www.apache.org/licenses/LICENSE-2.0
  -
  - Unless required by applicable law or agreed to in writing, software
  - distributed under the License is distributed on an "AS IS" BASIS,
  - WITHOUT WARRANTIES OR CONDITIONS OF ANY KIND, either express or implied.
  - See the License for the specific language governing permissions and
  - limitations under the License.
  -->
<svg width="16" height="16" viewBox="0 0 16 16" fill="none" xmlns="http://www.w3.org/2000/svg"><mask id="a" fill="#fff"><path d="M5 10a1 1 0 001 1V9a1 1 0 00-1 1z"/></mask><path d="M6 11v1h1v-1H6zm0-2h1V8H6v1zm0 1H4a2 2 0 002 2v-2zm0 0V8a2 2 0 00-2 2h2zM5 9v2h2V9H5z" fill="#6C707E" mask="url(#a)"/><path d="M3.5 4l.34-1.696a1 1 0 01.98-.804h2.36a1 1 0 01.98.804L8.5 4" stroke="#6C707E" stroke-linecap="square"/><rect x="7.5" y="8.5" width="7" height="4" rx=".75" stroke="#834DF0"/><path d="M7.5 14.5h7" stroke="#834DF0" stroke-linecap="round"/><path fill-rule="evenodd" clip-rule="evenodd" d="M6 12a4 4 0 113.874-5H10.9A5.002 5.002 0 001 8c0 1.63.78 3.079 1.988 3.992l.36 1.802A1.5 1.5 0 004.82 15H6v-1H4.82a.5.5 0 01-.49-.402l-.192-.956A4.986 4.986 0 006 13v-1z" fill="#6C707E"/></svg>