<svg fill="none" viewBox="0 0 40 40" width="40" height="40" xmlns="http://www.w3.org/2000/svg">
  <g transform="translate(.274 .757)" stroke-width="3.13">
    <path d="m30.3 7.79a1.57 1.57 0 1 1 2.71 1.57l-3.51 6.08a18.8 18.8 0 0 1 8.94 14.5 1.47 1.47 0 0 1-1.5 1.57 1.69 1.69 0 0 1-1.64-1.57 15.7 15.7 0 0 0-31.2 0 1.69 1.69 0 0 1-1.64 1.57 1.47 1.47 0 0 1-1.5-1.57 18.8 18.8 0 0 1 8.93-14.5l-3.52-6.09a1.57 1.57 0 0 1 2.71-1.57l3.61 6.25a18.7 18.7 0 0 1 6.99-1.34c2.46 0 4.82 0.476 6.98 1.34z" clip-rule="evenodd" fill="#3ddc84" fill-rule="evenodd"/>
    <path d="m2.51 29.9h34.4" stroke="#3ddc84"/>
    <rect x="10.3" y="22.1" width="3.13" height="3.13" rx="1.57" fill="#3ddc84"/>
    <rect x="26" y="22.1" width="3.13" height="3.13" rx="1.57" fill="#3ddc84"/>
  </g>
</svg>
