<svg width="16" height="16" viewBox="0 0 16 16" fill="none" xmlns="http://www.w3.org/2000/svg"><path fill-rule="evenodd" clip-rule="evenodd" d="M2.201 2.314C3.602.78 5.765.589 7.357 1.739c.227.164.443.356.643.575C9.401.78 11.564.589 13.156 1.739c.227.164.443.356.643.575 1.28 1.4 1.537 3.493.772 5.172-.193.423-.45.819-.772 1.17l-4.836 5.29L8 15l-.963-1.053-4.836-5.29a4.492 4.492 0 01-.772-1.171A4.787 4.787 0 011 5.51a4.741 4.741 0 01.92-2.856c.087-.117.18-.23.281-.34zm10.915.747c.91.996 1.143 2.453.699 3.685a3.56 3.56 0 01-.103.254H10.75L9.51 5.346a.6.6 0 00-1.042.15L7.352 8.47 6.43 7.24A.6.6 0 005.95 7H2.288a3.574 3.574 0 01-.192-.539c-.316-1.166-.053-2.48.788-3.4 1.224-1.339 3.209-1.339 4.433 0L8 3.81l.683-.748c1.224-1.339 3.209-1.339 4.433 0zM2.967 8l4.236 4.633.797.872.797-.872L13.033 8H10.55a.6.6 0 01-.48-.24l-.922-1.23-1.116 2.975a.6.6 0 01-1.042.149L5.75 8H2.967z" fill="#6C707E"/></svg>