<svg width="16" height="16" viewBox="0 0 16 16" fill="none" xmlns="http://www.w3.org/2000/svg"><g clip-path="url(#clip0_2305_739)" fill-rule="evenodd" clip-rule="evenodd" fill="#CED0D6"><path d="M7.516 8.5a.5.5 0 0 1 .5.5v1.92a.55.55 0 0 1-.796.491l-1.092-.546a.559.559 0 0 0-.645.895l2.508 2.508A2.5 2.5 0 0 0 9.758 15h2.758a2.5 2.5 0 0 0 2.5-2.5V10a.5.5 0 0 1 1 0v2.5a3.5 3.5 0 0 1-3.5 3.5H9.758a3.5 3.5 0 0 1-2.475-1.025l-2.507-2.508a1.559 1.559 0 0 1 1.8-2.496l.44.22V9a.5.5 0 0 1 .5-.5zM10.121 4.667a.619.619 0 0 0-.105.333v3a.5.5 0 1 1-1 0V5c0-.247.07-.606.294-.917.243-.337.643-.583 1.206-.583s.963.246 1.205.583c.225.311.295.67.295.917v3a.5.5 0 1 1-1 0V5a.62.62 0 0 0-.106-.333c-.057-.08-.157-.167-.394-.167-.237 0-.337.088-.395.167z"/><path d="M12.121 5.667a.619.619 0 0 0-.105.333v3a.5.5 0 1 1-1 0V6c0-.247.07-.606.294-.917.243-.337.643-.583 1.206-.583s.963.246 1.205.583c.225.311.295.67.295.917v3a.5.5 0 1 1-1 0V6a.62.62 0 0 0-.106-.333c-.057-.08-.157-.167-.394-.167-.237 0-.337.088-.395.167z"/><path d="M14.121 6.667a.619.619 0 0 0-.105.333v2.5a.5.5 0 1 1-1 0V7c0-.247.07-.606.294-.917.243-.337.643-.583 1.206-.583s.963.246 1.205.583c.225.311.295.67.295.917v3a.5.5 0 1 1-1 0V7a.62.62 0 0 0-.106-.333c-.057-.08-.157-.167-.394-.167-.237 0-.337.088-.395.167zM8.121 5.667A.62.62 0 0 0 8.016 6v3a.5.5 0 1 1-1 0V6c0-.247.07-.606.294-.917.243-.337.643-.583 1.206-.583s.963.246 1.205.583c.225.311.295.67.295.917v3a.5.5 0 1 1-1 0V6a.62.62 0 0 0-.106-.333c-.057-.08-.157-.167-.394-.167-.237 0-.337.088-.395.167z"/><path d="M11.318 3A6 6 0 0 0 4 12.472v1.273A7 7 0 1 1 12.899 3h-1.581z"/></g><defs><clipPath id="clip0_2305_739"><path fill="#fff" d="M0 0h16v16H0z"/></clipPath></defs></svg>