<svg width="16" height="16" viewBox="0 0 16 16" fill="none" xmlns="http://www.w3.org/2000/svg"><path fill-rule="evenodd" clip-rule="evenodd" d="M.578 8.015a.997.997 0 0 0 0 1.413l.307.306a.998.998 0 0 0 .359.23 4.867 4.867 0 0 0 4.872 4.996 4.867 4.867 0 0 0 4.875-4.86 4.867 4.867 0 0 0-4.644-4.856.994.994 0 0 0-.292-.665l-.308-.307a1.003 1.003 0 0 0-1.416 0L.578 8.015zm1.677 1.762l.046-.043 3.491-3.482A3.867 3.867 0 0 1 9.99 10.1c0 2.13-1.731 3.86-3.874 3.86a3.867 3.867 0 0 1-3.86-4.182z" fill="#CED0D6"/><path d="M6 2c2.163 0 4.866 1.154 7.028 4.038M6 2c-1 0-2.4.2-4 1" stroke="#4285F4" stroke-linecap="round"/><path d="M13.5 2.5v4h-3.023" stroke="#4285F4" stroke-linecap="round"/></svg>