<svg width="16" height="16" viewBox="0 0 16 16" fill="none" xmlns="http://www.w3.org/2000/svg"><g clip-path="url(#clip0_2614_770)"><path fill-rule="evenodd" clip-rule="evenodd" d="M1.58 9.159a1 1 0 0 0 .424 1.666 4 4 0 1 0 4.112-3.824A1 1 0 0 0 4.41 6.33L1.579 9.16zm1.456 1.373l2.496-2.496a3 3 0 1 1-2.495 2.495z" fill="#6C707E"/><path d="M6 2c2 0 4.5 1 6.5 3.5M6 2c-1 0-2.4.2-4 1" stroke="#4285F4" stroke-linecap="round"/><g filter="url(#filter0_d_2614_770)"><path d="M13 2v4H9.5" stroke="#4285F4" stroke-linecap="round"/></g></g><defs><filter id="filter0_d_2614_770" x="5" y="1.5" width="12.5" height="13" filterUnits="userSpaceOnUse" color-interpolation-filters="sRGB"><feFlood flood-opacity="0" result="BackgroundImageFix"/><feColorMatrix in="SourceAlpha" values="0 0 0 0 0 0 0 0 0 0 0 0 0 0 0 0 0 0 127 0" result="hardAlpha"/><feOffset dy="4"/><feGaussianBlur stdDeviation="2"/><feComposite in2="hardAlpha" operator="out"/><feColorMatrix values="0 0 0 0 0 0 0 0 0 0 0 0 0 0 0 0 0 0 0.25 0"/><feBlend in2="BackgroundImageFix" result="effect1_dropShadow_2614_770"/><feBlend in="SourceGraphic" in2="effect1_dropShadow_2614_770" result="shape"/></filter><clipPath id="clip0_2614_770"><path fill="#fff" d="M0 0h16v16H0z"/></clipPath></defs></svg>