<svg width="15" height="14" viewBox="0 0 15 14" fill="none" xmlns="http://www.w3.org/2000/svg"><path d="M1.5 1.5L6 6l3-3 3.5 3.5" stroke="#CED0D6" stroke-linecap="round"/><path d="M1.5 12.5V5.207l4 4V12.5h-4z" fill="#43454A" stroke="#CED0D6"/><path fill-rule="evenodd" clip-rule="evenodd" d="M7 7.502A1.5 1.5 0 0 1 9.294 6.23l4.002 2.497a1.5 1.5 0 0 1 0 2.545L9.294 13.77A1.5 1.5 0 0 1 7 12.498V7.502zm1.765-.424A.5.5 0 0 0 8 7.502v4.996a.5.5 0 0 0 .765.424l4.002-2.498a.5.5 0 0 0 0-.848L8.765 7.078z" fill="#57965C"/><path d="M8 7.502a.5.5 0 0 1 .765-.424l4.002 2.498a.5.5 0 0 1 0 .848l-4.002 2.498A.5.5 0 0 1 8 12.498V7.502z" fill="#253627"/></svg>