<svg width="16" height="16" viewBox="0 0 16 16" fill="none" xmlns="http://www.w3.org/2000/svg"><path fill-rule="evenodd" clip-rule="evenodd" d="M11.712 7.747L9.43 10.615h2.191v2.079l1.827-2.68h-1.736V7.748zm-.07-1.52a.6.6 0 0 1 1.07.374v2.414h1.493a.6.6 0 0 1 .495.938l-2.983 4.376c-.333.487-1.096.252-1.096-.338v-2.376h-2.02a.6.6 0 0 1-.47-.974l3.511-4.413z" fill="#F2C55C"/><path fill-rule="evenodd" clip-rule="evenodd" d="M7.803 4.717l.29.283H13a1 1 0 0 1 1 1v2h1V6a2 2 0 0 0-2-2H8.5L6.736 2.283A1 1 0 0 0 6.038 2H2.75C1.784 2 1 2.836 1 3.867v8.266C1 13.164 1.784 14 2.75 14H9.5v-1H2.75c-.354 0-.75-.326-.75-.867V3.867c0-.54.396-.867.75-.867h3.288l1.765 1.717z" fill="#CED0D6"/></svg>