<svg width="16" height="16" viewBox="0 0 16 16" xmlns="http://www.w3.org/2000/svg"><rect width="16" height="16" fill="none"/><g fill="none" fill-rule="evenodd"><path d="M0 0h16v16H0z"/><circle fill="#AFB1B3" cx="8" cy="8" r="7"/><ellipse fill="#242424" cx="5" cy="6.5" rx="1" ry="1.5"/><ellipse fill="#242424" cx="11" cy="6.5" rx="1" ry="1.5"/><path d="M4.43 11.5A4.985 4.985 0 0 1 8 10c1.399 0 2.663.574 3.57 1.5-.234.24-.493.456-.772.644A3.976 3.976 0 0 0 8 11c-1.096 0-2.08.439-2.798 1.144a5.025 5.025 0 0 1-.773-.644z" fill="#242424" fill-rule="nonzero"/></g></svg>